%TF.GenerationSoftware,KiCad,Pcbnew,9.0.0*%
%TF.CreationDate,2025-08-31T15:40:07+03:00*%
%TF.ProjectId,easy home electronics,65617379-2068-46f6-9d65-20656c656374,rev?*%
%TF.SameCoordinates,Original*%
%TF.FileFunction,Profile,NP*%
%FSLAX46Y46*%
G04 Gerber Fmt 4.6, Leading zero omitted, Abs format (unit mm)*
G04 Created by KiCad (PCBNEW 9.0.0) date 2025-08-31 15:40:07*
%MOMM*%
%LPD*%
G01*
G04 APERTURE LIST*
%TA.AperFunction,Profile*%
%ADD10C,0.050000*%
%TD*%
G04 APERTURE END LIST*
D10*
X103862999Y-121429999D02*
G75*
G02*
X103862999Y-122404001I1J-487001D01*
G01*
X123113008Y-121433009D02*
G75*
G02*
X123113008Y-122406991I1J-486991D01*
G01*
X99336983Y-122403982D02*
G75*
G02*
X99336983Y-121430018I-1J486982D01*
G01*
X99336983Y-122403982D02*
X103858587Y-122403981D01*
X103863000Y-121429999D02*
X99336983Y-121430000D01*
X129290000Y-116930000D02*
X129270000Y-59910000D01*
X123113008Y-121433010D02*
X117457001Y-121428070D01*
X124790000Y-55430000D02*
X97800000Y-55430000D01*
X93300001Y-126903962D02*
G75*
G02*
X97800001Y-122404001I4499999J-38D01*
G01*
X108562999Y-121429999D02*
G75*
G02*
X108562999Y-122404001I1J-487001D01*
G01*
X129288020Y-154351981D02*
X93318020Y-154351981D01*
X123113000Y-122406991D02*
X117457001Y-122403981D01*
X93300000Y-154350000D02*
X93318020Y-154351981D01*
X105537000Y-122403981D02*
X108558587Y-122403981D01*
X124790000Y-122403982D02*
G75*
G02*
X124790000Y-121430018I0J486982D01*
G01*
X105537001Y-122403981D02*
G75*
G02*
X105537001Y-121430019I-1J486981D01*
G01*
X110167001Y-122403981D02*
X115817413Y-122403981D01*
X129290000Y-116930000D02*
G75*
G02*
X124790000Y-121430000I-4500000J0D01*
G01*
X115812999Y-121429999D02*
G75*
G02*
X115812999Y-122404001I1J-487001D01*
G01*
X108562999Y-121429999D02*
X105537001Y-121429999D01*
X93290000Y-59940000D02*
X93298414Y-116920000D01*
X93300001Y-126903962D02*
X93300000Y-147650000D01*
X115813000Y-121429999D02*
X110167001Y-121429999D01*
X93300000Y-147650000D02*
G75*
G02*
X93300000Y-151050000I0J-1700000D01*
G01*
X124790000Y-55430000D02*
G75*
G02*
X129270000Y-59910000I0J-4480000D01*
G01*
X124790001Y-122403962D02*
G75*
G02*
X129289927Y-126913962I-1J-4499938D01*
G01*
X97800000Y-121430000D02*
G75*
G02*
X93300011Y-116920000I0J4500000D01*
G01*
X93300000Y-151050000D02*
X93300000Y-154350000D01*
X93290000Y-59940000D02*
G75*
G02*
X97800000Y-55430000I4510000J0D01*
G01*
X129288020Y-154351981D02*
X129291587Y-126913962D01*
X97800000Y-121430000D02*
G75*
G02*
X97800000Y-122404000I0J-487000D01*
G01*
X110167001Y-122403981D02*
G75*
G02*
X110167001Y-121430019I-1J486981D01*
G01*
X117457001Y-122403981D02*
G75*
G02*
X117457001Y-121430019I-1J486981D01*
G01*
M02*
