%TF.GenerationSoftware,KiCad,Pcbnew,9.0.0*%
%TF.CreationDate,2025-08-03T00:00:25+03:00*%
%TF.ProjectId,easy home electronics,65617379-2068-46f6-9d65-20656c656374,rev?*%
%TF.SameCoordinates,Original*%
%TF.FileFunction,Copper,L3,Inr*%
%TF.FilePolarity,Positive*%
%FSLAX46Y46*%
G04 Gerber Fmt 4.6, Leading zero omitted, Abs format (unit mm)*
G04 Created by KiCad (PCBNEW 9.0.0) date 2025-08-03 00:00:25*
%MOMM*%
%LPD*%
G01*
G04 APERTURE LIST*
G04 Aperture macros list*
%AMRoundRect*
0 Rectangle with rounded corners*
0 $1 Rounding radius*
0 $2 $3 $4 $5 $6 $7 $8 $9 X,Y pos of 4 corners*
0 Add a 4 corners polygon primitive as box body*
4,1,4,$2,$3,$4,$5,$6,$7,$8,$9,$2,$3,0*
0 Add four circle primitives for the rounded corners*
1,1,$1+$1,$2,$3*
1,1,$1+$1,$4,$5*
1,1,$1+$1,$6,$7*
1,1,$1+$1,$8,$9*
0 Add four rect primitives between the rounded corners*
20,1,$1+$1,$2,$3,$4,$5,0*
20,1,$1+$1,$4,$5,$6,$7,0*
20,1,$1+$1,$6,$7,$8,$9,0*
20,1,$1+$1,$8,$9,$2,$3,0*%
G04 Aperture macros list end*
%TA.AperFunction,ComponentPad*%
%ADD10C,1.524000*%
%TD*%
%TA.AperFunction,ComponentPad*%
%ADD11R,1.240000X1.240000*%
%TD*%
%TA.AperFunction,ComponentPad*%
%ADD12C,1.240000*%
%TD*%
%TA.AperFunction,HeatsinkPad*%
%ADD13C,0.600000*%
%TD*%
%TA.AperFunction,ComponentPad*%
%ADD14C,2.000000*%
%TD*%
%TA.AperFunction,ComponentPad*%
%ADD15O,2.500000X1.310000*%
%TD*%
%TA.AperFunction,ComponentPad*%
%ADD16R,1.638300X1.638300*%
%TD*%
%TA.AperFunction,ComponentPad*%
%ADD17C,1.638300*%
%TD*%
%TA.AperFunction,ComponentPad*%
%ADD18C,1.800000*%
%TD*%
%TA.AperFunction,ComponentPad*%
%ADD19C,0.800000*%
%TD*%
%TA.AperFunction,ComponentPad*%
%ADD20C,6.400000*%
%TD*%
%TA.AperFunction,ComponentPad*%
%ADD21C,0.700000*%
%TD*%
%TA.AperFunction,ComponentPad*%
%ADD22C,4.400000*%
%TD*%
%TA.AperFunction,ComponentPad*%
%ADD23RoundRect,0.250000X-0.550000X-0.550000X0.550000X-0.550000X0.550000X0.550000X-0.550000X0.550000X0*%
%TD*%
%TA.AperFunction,ComponentPad*%
%ADD24C,1.600000*%
%TD*%
%TA.AperFunction,ComponentPad*%
%ADD25R,1.605000X1.605000*%
%TD*%
%TA.AperFunction,ComponentPad*%
%ADD26C,1.605000*%
%TD*%
%TA.AperFunction,ComponentPad*%
%ADD27C,6.000000*%
%TD*%
%TA.AperFunction,ComponentPad*%
%ADD28R,1.905000X2.000000*%
%TD*%
%TA.AperFunction,ComponentPad*%
%ADD29O,1.905000X2.000000*%
%TD*%
%TA.AperFunction,ComponentPad*%
%ADD30R,1.508000X1.508000*%
%TD*%
%TA.AperFunction,ComponentPad*%
%ADD31C,1.508000*%
%TD*%
%TA.AperFunction,ComponentPad*%
%ADD32C,1.650000*%
%TD*%
%TA.AperFunction,ViaPad*%
%ADD33C,0.600000*%
%TD*%
%TA.AperFunction,Conductor*%
%ADD34C,0.500000*%
%TD*%
%TA.AperFunction,Conductor*%
%ADD35C,1.000000*%
%TD*%
G04 APERTURE END LIST*
D10*
%TO.N,GND_base*%
%TO.C,J8*%
X127300000Y-64120001D03*
%TO.N,VCC_base*%
X127300000Y-66660000D03*
%TO.N,V5V_base*%
X127300000Y-69200000D03*
%TD*%
D11*
%TO.N,/I_sense*%
%TO.C,J5*%
X105415520Y-124061981D03*
D12*
%TO.N,GND*%
X107955520Y-124061981D03*
%TO.N,/V_sense*%
X110495519Y-124061981D03*
%TO.N,GND*%
X113035520Y-124061981D03*
%TO.N,/switch *%
X115575520Y-124061981D03*
%TO.N,GND*%
X118115520Y-124061981D03*
%TD*%
D13*
%TO.N,GND*%
%TO.C,U2*%
X110948020Y-137981982D03*
X110948020Y-139081981D03*
X111498020Y-137431981D03*
X111498020Y-138531981D03*
X111498020Y-139631981D03*
X112048020Y-137981981D03*
X112048020Y-139081982D03*
X112598020Y-137431981D03*
X112598020Y-138531981D03*
X112598020Y-139631981D03*
X113148020Y-137981982D03*
X113148020Y-139081981D03*
%TD*%
D14*
%TO.N,/button in*%
%TO.C,SW1*%
X124644214Y-131528175D03*
X120048020Y-126931981D03*
%TO.N,GND*%
X127826195Y-128346194D03*
X123230000Y-123750000D03*
%TD*%
D15*
%TO.N,unconnected-(J3-SHIELD-PadSH1)_2*%
%TO.C,J3*%
X127663020Y-139796980D03*
%TO.N,unconnected-(J3-SHIELD-PadSH1)_4*%
X127663020Y-146306982D03*
%TD*%
D16*
%TO.N,V5V*%
%TO.C,J7*%
X100100520Y-152691981D03*
D17*
%TO.N,VCC*%
X97560520Y-152691981D03*
%TO.N,GND*%
X95020520Y-152691981D03*
%TD*%
D18*
%TO.N,/N*%
%TO.C,RV1*%
X119100000Y-66200000D03*
%TO.N,Net-(PS1-AC1)*%
X120500000Y-58700001D03*
%TD*%
D19*
%TO.N,N/C*%
%TO.C,REF\u002A\u002A*%
X109020000Y-60640000D03*
X109722944Y-58942944D03*
X109722944Y-62337056D03*
X111420000Y-58240000D03*
D20*
X111420000Y-60640000D03*
D19*
X111420000Y-63040000D03*
X113117056Y-58942944D03*
X113117056Y-62337056D03*
X113820000Y-60640000D03*
%TD*%
D21*
%TO.N,N/C*%
%TO.C,REF\u002A\u002A*%
X109760000Y-83040000D03*
X110243274Y-81873274D03*
X110243274Y-84206726D03*
X111410000Y-81390000D03*
D22*
X111410000Y-83040000D03*
D21*
X111410000Y-84690000D03*
X112576726Y-81873274D03*
X112576726Y-84206726D03*
X113060000Y-83040000D03*
%TD*%
D23*
%TO.N,Net-(R8-Pad2)*%
%TO.C,U4*%
X99645000Y-91485000D03*
D24*
%TO.N,GND_base*%
X99645000Y-94025000D03*
%TO.N,Net-(R12-Pad1)*%
X107265000Y-94025000D03*
%TO.N,V5V_base*%
X107265000Y-91485000D03*
%TD*%
D25*
%TO.N,/current_sense*%
%TO.C,J6*%
X117760000Y-119290000D03*
D26*
%TO.N,GND_base*%
X115220000Y-119290000D03*
%TO.N,/Volt_sense*%
X112680001Y-119290000D03*
%TO.N,GND_base*%
X110139999Y-119290000D03*
%TO.N,/switch_base*%
X107600000Y-119290000D03*
%TO.N,GND_base*%
X105060000Y-119290000D03*
%TD*%
D19*
%TO.N,/N*%
%TO.C,J2*%
X98070000Y-82890000D03*
X98729010Y-81299010D03*
X98729010Y-84480990D03*
X100320000Y-80640000D03*
D27*
X100320000Y-82890000D03*
D19*
X100320000Y-85140000D03*
X101910990Y-81299010D03*
X101910990Y-84480990D03*
X102570000Y-82890000D03*
%TD*%
D21*
%TO.N,N/C*%
%TO.C,REF\u002A\u002A*%
X123950000Y-59180000D03*
X124433274Y-58013274D03*
X124433274Y-60346726D03*
X125600000Y-57530000D03*
D22*
X125600000Y-59180000D03*
D21*
X125600000Y-60830000D03*
X126766726Y-58013274D03*
X126766726Y-60346726D03*
X127250000Y-59180000D03*
%TD*%
D28*
%TO.N,/L3*%
%TO.C,Q1*%
X119860000Y-93595000D03*
D29*
%TO.N,/L2*%
X122400000Y-93595000D03*
%TO.N,/triac in*%
X124939999Y-93595000D03*
%TD*%
D30*
%TO.N,Net-(PS1-AC1)*%
%TO.C,PS1*%
X96470000Y-104370000D03*
D31*
%TO.N,/N*%
X96470000Y-109370000D03*
%TO.N,GND_base*%
X125870000Y-99170000D03*
%TO.N,VCC_base*%
X125870000Y-114570000D03*
%TD*%
D19*
%TO.N,/L*%
%TO.C,J1*%
X120320000Y-82890000D03*
X120979010Y-81299010D03*
X120979010Y-84480990D03*
X122570000Y-80640000D03*
D27*
X122570000Y-82890000D03*
D19*
X122570000Y-85140000D03*
X124160990Y-81299010D03*
X124160990Y-84480990D03*
X124820000Y-82890000D03*
%TD*%
D32*
%TO.N,Net-(PS1-AC1)*%
%TO.C,C4*%
X98000000Y-60150000D03*
%TO.N,/N*%
X98000000Y-75150000D03*
%TD*%
D33*
%TO.N,/button in*%
X117958020Y-140731981D03*
%TO.N,/L_sense*%
X118258020Y-135631981D03*
%TO.N,Net-(U2-IO8)*%
X101358020Y-140931981D03*
%TO.N,Net-(U2-IO9)*%
X100758020Y-144931981D03*
%TO.N,Net-(U2-IO7)*%
X99658020Y-143931981D03*
%TO.N,/V_sense*%
X108158020Y-133831981D03*
%TO.N,/switch *%
X107758020Y-136831981D03*
%TO.N,/button in*%
X125445012Y-136536502D03*
%TO.N,Net-(U2-IO7)*%
X105458020Y-140231981D03*
%TO.N,/XTAL OUT*%
X121458020Y-133331981D03*
%TO.N,/I_sense*%
X107258020Y-128731981D03*
%TO.N,Net-(U2-IO8)*%
X96958020Y-139231981D03*
%TO.N,Net-(U2-IO9)*%
X95849246Y-145513601D03*
%TO.N,GND*%
X122648020Y-125831981D03*
%TO.N,VCC*%
X123958020Y-151831981D03*
X120958020Y-145651981D03*
%TO.N,3V3*%
X95818020Y-133161981D03*
%TO.N,GND*%
X123848020Y-125731981D03*
X125548020Y-153231981D03*
%TO.N,VCC*%
X125958020Y-144631981D03*
%TO.N,V5V*%
X114458020Y-144231981D03*
X123858020Y-136831981D03*
X118458020Y-148831981D03*
%TO.N,GND*%
X126058020Y-141331981D03*
%TO.N,/N*%
X125600000Y-101150000D03*
%TO.N,Net-(U6-FILTER)*%
X121000000Y-75250000D03*
X119000000Y-74750000D03*
%TO.N,/triac in*%
X110590000Y-90724999D03*
X115100000Y-91950000D03*
%TO.N,/in+*%
X109700000Y-106450000D03*
X111100000Y-68150000D03*
%TO.N,/in-*%
X112000000Y-70250000D03*
X110000000Y-92550000D03*
%TO.N,/V_isolation*%
X96200000Y-117050000D03*
X95000000Y-72150000D03*
X100007107Y-99457107D03*
X99900000Y-103450000D03*
%TO.N,VCC_base*%
X126700000Y-71250000D03*
%TO.N,/current_sense*%
X116200000Y-67650000D03*
X116700000Y-63750000D03*
%TO.N,/switch_base*%
X96200000Y-98050000D03*
%TO.N,/Volt_sense*%
X100100000Y-113450000D03*
X100099348Y-110370000D03*
%TO.N,V5V_base*%
X97600000Y-64350000D03*
X105200000Y-101950000D03*
X105400000Y-114450000D03*
X124300000Y-69250000D03*
X107100000Y-90650000D03*
%TO.N,Net-(U5-OUT1)*%
X104300000Y-99550000D03*
X112000000Y-102950000D03*
X112800000Y-100150000D03*
%TO.N,GND_base*%
X117000000Y-75650000D03*
X123583499Y-67330914D03*
X99400000Y-95450000D03*
X111700000Y-108550000D03*
X113500000Y-98850000D03*
X102100000Y-114550000D03*
X102600000Y-76250000D03*
X106600000Y-110250000D03*
X115000000Y-96250000D03*
X118800000Y-70750000D03*
X100900000Y-104850000D03*
X114500000Y-116650000D03*
%TO.N,Net-(U6-VIOUT)*%
X123600000Y-62750000D03*
X116900000Y-59650000D03*
X122144700Y-73925134D03*
%TO.N,Net-(R23-Pad1)*%
X104500000Y-108450000D03*
X105200000Y-59850000D03*
X104200000Y-69450000D03*
%TD*%
D34*
%TO.N,/in-*%
X108400000Y-73850000D02*
X112000000Y-70250000D01*
X108400000Y-84950000D02*
X108400000Y-73850000D01*
X109600000Y-86150000D02*
X108400000Y-84950000D01*
X109600000Y-92150000D02*
X109600000Y-86150000D01*
X110000000Y-92550000D02*
X109600000Y-92150000D01*
%TO.N,Net-(U6-VIOUT)*%
X124100000Y-63250000D02*
X123600000Y-62750000D01*
X120300000Y-69550000D02*
X124100000Y-65750000D01*
X121500000Y-73750000D02*
X120300000Y-72550000D01*
X122144700Y-73925134D02*
X121969566Y-73750000D01*
X120300000Y-72550000D02*
X120300000Y-69550000D01*
X121969566Y-73750000D02*
X121500000Y-73750000D01*
X124100000Y-65750000D02*
X124100000Y-63250000D01*
%TO.N,Net-(U6-FILTER)*%
X120800000Y-75050000D02*
X119280000Y-75050000D01*
X121000000Y-75250000D02*
X120800000Y-75050000D01*
X119280000Y-75050000D02*
X119000000Y-74770000D01*
X119000000Y-74770000D02*
X119000000Y-74750000D01*
%TO.N,/triac in*%
X115100000Y-91950000D02*
X115100000Y-94350000D01*
X115100000Y-94350000D02*
X116500000Y-95750000D01*
X123300000Y-95750000D02*
X124939999Y-94110001D01*
X116500000Y-95750000D02*
X123300000Y-95750000D01*
X124939999Y-94110001D02*
X124939999Y-93595000D01*
%TO.N,/in+*%
X106800000Y-106450000D02*
X109700000Y-106450000D01*
X111100000Y-68150000D02*
X106400000Y-72850000D01*
X106400000Y-72850000D02*
X106400000Y-89250000D01*
X103000000Y-102650000D02*
X106800000Y-106450000D01*
X106400000Y-89250000D02*
X103000000Y-92650000D01*
X103000000Y-92650000D02*
X103000000Y-102650000D01*
%TO.N,/V_isolation*%
X100007107Y-99457107D02*
X100007107Y-103342893D01*
X95000000Y-72150000D02*
X95000000Y-94450000D01*
X95000000Y-115850000D02*
X95000000Y-94450000D01*
X95000000Y-94450000D02*
X100007107Y-99457107D01*
X100007107Y-103342893D02*
X99900000Y-103450000D01*
X96200000Y-117050000D02*
X95000000Y-115850000D01*
D35*
%TO.N,VCC_base*%
X125500000Y-68460000D02*
X127300000Y-66660000D01*
D34*
X127100000Y-94950000D02*
X127100000Y-71650000D01*
D35*
X126700000Y-71250000D02*
X125500000Y-70050000D01*
X125500000Y-70050000D02*
X125500000Y-68460000D01*
D34*
X125870000Y-114570000D02*
X123300000Y-112000000D01*
X123300000Y-112000000D02*
X123300000Y-98750000D01*
X127100000Y-71650000D02*
X126700000Y-71250000D01*
X123300000Y-98750000D02*
X127100000Y-94950000D01*
%TO.N,/current_sense*%
X116200000Y-67650000D02*
X116200000Y-64250000D01*
X116200000Y-67650000D02*
X115800000Y-68050000D01*
X113100000Y-89750000D02*
X113100000Y-96350000D01*
X117760000Y-101010000D02*
X117760000Y-119290000D01*
X115800000Y-87050000D02*
X113100000Y-89750000D01*
X116200000Y-64250000D02*
X116700000Y-63750000D01*
X115800000Y-68050000D02*
X115800000Y-87050000D01*
X113100000Y-96350000D02*
X117760000Y-101010000D01*
%TO.N,/switch_base*%
X107600000Y-117950000D02*
X106700000Y-117050000D01*
X106700000Y-117050000D02*
X106000000Y-116350000D01*
X106000000Y-116350000D02*
X100500000Y-116350000D01*
X98200000Y-100050000D02*
X96200000Y-98050000D01*
X98200000Y-113450000D02*
X98200000Y-100050000D01*
X98200000Y-114050000D02*
X98200000Y-113450000D01*
X100500000Y-116350000D02*
X98200000Y-114050000D01*
X107600000Y-119290000D02*
X107600000Y-117950000D01*
%TO.N,/Volt_sense*%
X100099348Y-113449348D02*
X100100000Y-113450000D01*
X112680001Y-119290000D02*
X112680001Y-116330001D01*
X100099348Y-110370000D02*
X100099348Y-113449348D01*
X112680001Y-116330001D02*
X109800000Y-113450000D01*
X109800000Y-113450000D02*
X100100000Y-113450000D01*
%TO.N,Net-(U5-OUT1)*%
X104900000Y-100150000D02*
X104300000Y-99550000D01*
X112800000Y-100150000D02*
X112800000Y-101450000D01*
X112800000Y-101450000D02*
X111900000Y-102350000D01*
X111900000Y-102850000D02*
X112000000Y-102950000D01*
X111900000Y-102350000D02*
X111900000Y-102850000D01*
X112800000Y-100150000D02*
X104900000Y-100150000D01*
%TO.N,Net-(U6-VIOUT)*%
X123600000Y-62750000D02*
X123500000Y-62850000D01*
X116900000Y-60950000D02*
X116900000Y-59650000D01*
X123500000Y-62850000D02*
X118800000Y-62850000D01*
X118800000Y-62850000D02*
X116900000Y-60950000D01*
%TO.N,Net-(R23-Pad1)*%
X105200000Y-88750000D02*
X102700000Y-91250000D01*
X101900000Y-92050000D02*
X101900000Y-103950000D01*
X102700000Y-91250000D02*
X101900000Y-92050000D01*
X104200000Y-71750000D02*
X105200000Y-72750000D01*
X104200000Y-69450000D02*
X105200000Y-68450000D01*
X105200000Y-72750000D02*
X105200000Y-88750000D01*
X101900000Y-103950000D02*
X104500000Y-106550000D01*
X105200000Y-68450000D02*
X105200000Y-59850000D01*
X104500000Y-106550000D02*
X104500000Y-108450000D01*
X104200000Y-69450000D02*
X104200000Y-71750000D01*
%TD*%
%TA.AperFunction,Conductor*%
%TO.N,GND*%
G36*
X104748335Y-122413745D02*
G01*
X104786244Y-122438105D01*
X104786778Y-122437436D01*
X104802329Y-122449837D01*
X104922155Y-122545394D01*
X104922156Y-122545394D01*
X104922157Y-122545395D01*
X105071886Y-122617501D01*
X105233900Y-122654480D01*
X105233905Y-122654480D01*
X105233907Y-122654481D01*
X105233909Y-122654481D01*
X105375605Y-122654481D01*
X105375613Y-122654480D01*
X108944169Y-122654480D01*
X108961622Y-122654481D01*
X108961686Y-122654500D01*
X109012998Y-122654500D01*
X109012998Y-122654501D01*
X109096095Y-122654502D01*
X109258121Y-122617520D01*
X109407856Y-122545412D01*
X109512706Y-122461797D01*
X109577388Y-122435391D01*
X109646084Y-122448146D01*
X109667327Y-122461798D01*
X109714224Y-122499196D01*
X109772155Y-122545394D01*
X109772156Y-122545394D01*
X109772157Y-122545395D01*
X109921886Y-122617501D01*
X110083900Y-122654480D01*
X110083905Y-122654480D01*
X110083907Y-122654481D01*
X110083909Y-122654481D01*
X110225605Y-122654481D01*
X110225613Y-122654480D01*
X111364169Y-122654480D01*
X111381622Y-122654481D01*
X111381686Y-122654500D01*
X111432998Y-122654500D01*
X111432998Y-122654501D01*
X111516095Y-122654502D01*
X111678121Y-122617520D01*
X111827856Y-122545412D01*
X111947706Y-122449835D01*
X112012388Y-122423429D01*
X112081084Y-122436184D01*
X112102327Y-122449836D01*
X112152664Y-122489977D01*
X112222155Y-122545394D01*
X112222156Y-122545394D01*
X112222157Y-122545395D01*
X112371886Y-122617501D01*
X112533900Y-122654480D01*
X112533905Y-122654480D01*
X112533907Y-122654481D01*
X112533909Y-122654481D01*
X112675605Y-122654481D01*
X112675613Y-122654480D01*
X116224169Y-122654480D01*
X116241622Y-122654481D01*
X116241686Y-122654500D01*
X116292998Y-122654500D01*
X116292998Y-122654501D01*
X116376095Y-122654502D01*
X116538121Y-122617520D01*
X116687856Y-122545412D01*
X116797705Y-122457810D01*
X116862389Y-122431404D01*
X116931084Y-122444159D01*
X116952327Y-122457811D01*
X117015249Y-122507988D01*
X117062155Y-122545394D01*
X117062156Y-122545394D01*
X117062157Y-122545395D01*
X117211886Y-122617501D01*
X117373900Y-122654480D01*
X117373905Y-122654480D01*
X117373907Y-122654481D01*
X117407173Y-122654481D01*
X118671615Y-122654481D01*
X118671679Y-122654500D01*
X118722998Y-122654500D01*
X118722998Y-122654501D01*
X118806095Y-122654502D01*
X118968121Y-122617520D01*
X119117856Y-122545412D01*
X119227705Y-122457810D01*
X119292389Y-122431404D01*
X119361084Y-122444159D01*
X119382327Y-122457811D01*
X119445249Y-122507988D01*
X119492155Y-122545394D01*
X119492156Y-122545394D01*
X119492157Y-122545395D01*
X119641886Y-122617501D01*
X119803900Y-122654480D01*
X119803905Y-122654480D01*
X119803907Y-122654481D01*
X119803909Y-122654481D01*
X119886493Y-122654481D01*
X123568730Y-122657455D01*
X123568829Y-122657491D01*
X123612998Y-122657491D01*
X123613103Y-122657491D01*
X123662625Y-122657531D01*
X123662626Y-122657530D01*
X123674700Y-122657540D01*
X123675191Y-122657491D01*
X123696094Y-122657492D01*
X123858118Y-122620511D01*
X124007851Y-122548404D01*
X124007853Y-122548403D01*
X124116449Y-122461799D01*
X124126075Y-122454122D01*
X124190761Y-122427714D01*
X124259456Y-122440469D01*
X124280700Y-122454121D01*
X124395153Y-122545395D01*
X124395156Y-122545396D01*
X124395157Y-122545397D01*
X124544879Y-122617499D01*
X124544881Y-122617499D01*
X124544884Y-122617501D01*
X124706906Y-122654482D01*
X124787571Y-122654482D01*
X124793305Y-122654614D01*
X125176903Y-122672375D01*
X125188322Y-122673434D01*
X125290424Y-122687697D01*
X125566251Y-122726228D01*
X125577520Y-122728338D01*
X125948948Y-122815827D01*
X125959953Y-122818962D01*
X126321721Y-122940400D01*
X126332409Y-122944548D01*
X126681401Y-123098889D01*
X126691650Y-123104002D01*
X127024880Y-123289926D01*
X127034619Y-123295966D01*
X127349255Y-123511892D01*
X127358387Y-123518802D01*
X127565986Y-123691536D01*
X127651718Y-123762870D01*
X127660186Y-123770606D01*
X127929703Y-124040726D01*
X127937420Y-124049211D01*
X128180827Y-124343082D01*
X128187727Y-124352244D01*
X128402941Y-124667349D01*
X128408962Y-124677105D01*
X128471323Y-124789464D01*
X128594135Y-125010741D01*
X128599232Y-125021017D01*
X128752792Y-125370352D01*
X128756917Y-125381053D01*
X128877539Y-125743070D01*
X128880657Y-125754108D01*
X128967310Y-126125713D01*
X128969396Y-126136992D01*
X129021344Y-126515032D01*
X129022378Y-126526455D01*
X129039361Y-126911908D01*
X129039438Y-126914102D01*
X129039485Y-126915901D01*
X129039392Y-126957572D01*
X129040676Y-126961125D01*
X129041034Y-126974705D01*
X129040852Y-126975387D01*
X129041077Y-126977985D01*
X129039554Y-138696010D01*
X129019861Y-138763047D01*
X128967051Y-138808795D01*
X128897891Y-138818730D01*
X128859259Y-138806479D01*
X128701582Y-138726137D01*
X128528600Y-138669931D01*
X128348965Y-138641480D01*
X128348960Y-138641480D01*
X126977080Y-138641480D01*
X126977075Y-138641480D01*
X126797439Y-138669931D01*
X126624457Y-138726137D01*
X126462402Y-138808710D01*
X126315268Y-138915608D01*
X126315263Y-138915612D01*
X126186652Y-139044223D01*
X126186648Y-139044228D01*
X126079750Y-139191362D01*
X125997177Y-139353417D01*
X125940971Y-139526399D01*
X125912520Y-139706034D01*
X125912520Y-139887925D01*
X125940971Y-140067560D01*
X125997177Y-140240542D01*
X126079750Y-140402597D01*
X126186648Y-140549731D01*
X126186652Y-140549736D01*
X126315263Y-140678347D01*
X126315268Y-140678351D01*
X126403246Y-140742270D01*
X126462406Y-140785252D01*
X126565665Y-140837865D01*
X126624457Y-140867822D01*
X126624459Y-140867822D01*
X126624462Y-140867824D01*
X126717182Y-140897950D01*
X126797439Y-140924028D01*
X126977075Y-140952480D01*
X126977080Y-140952480D01*
X128348965Y-140952480D01*
X128528600Y-140924028D01*
X128701578Y-140867824D01*
X128858973Y-140787626D01*
X128927642Y-140774730D01*
X128992382Y-140801006D01*
X129032640Y-140858112D01*
X129039268Y-140898127D01*
X129038708Y-145205581D01*
X129019015Y-145272618D01*
X128966205Y-145318366D01*
X128897045Y-145328301D01*
X128858413Y-145316050D01*
X128848802Y-145311153D01*
X128787866Y-145280104D01*
X128701582Y-145236139D01*
X128528600Y-145179933D01*
X128348965Y-145151482D01*
X128348960Y-145151482D01*
X126977080Y-145151482D01*
X126977075Y-145151482D01*
X126802160Y-145179186D01*
X126732867Y-145170231D01*
X126679415Y-145125235D01*
X126658775Y-145058484D01*
X126668201Y-145009261D01*
X126716849Y-144891812D01*
X126727757Y-144865478D01*
X126758520Y-144710823D01*
X126758520Y-144553139D01*
X126758520Y-144553136D01*
X126758519Y-144553134D01*
X126736467Y-144442273D01*
X126727757Y-144398484D01*
X126691589Y-144311166D01*
X126667417Y-144252808D01*
X126667410Y-144252795D01*
X126579809Y-144121692D01*
X126579806Y-144121688D01*
X126468312Y-144010194D01*
X126468308Y-144010191D01*
X126337205Y-143922590D01*
X126337192Y-143922583D01*
X126191521Y-143862245D01*
X126191509Y-143862242D01*
X126036865Y-143831481D01*
X126036862Y-143831481D01*
X125879178Y-143831481D01*
X125879175Y-143831481D01*
X125724530Y-143862242D01*
X125724518Y-143862245D01*
X125578847Y-143922583D01*
X125578834Y-143922590D01*
X125447731Y-144010191D01*
X125447727Y-144010194D01*
X125336233Y-144121688D01*
X125336230Y-144121692D01*
X125248629Y-144252795D01*
X125248622Y-144252808D01*
X125188284Y-144398479D01*
X125188281Y-144398491D01*
X125157520Y-144553134D01*
X125157520Y-144710827D01*
X125188281Y-144865470D01*
X125188284Y-144865482D01*
X125248622Y-145011153D01*
X125248629Y-145011166D01*
X125336230Y-145142269D01*
X125336233Y-145142273D01*
X125447727Y-145253767D01*
X125447731Y-145253770D01*
X125578834Y-145341371D01*
X125578847Y-145341378D01*
X125724518Y-145401716D01*
X125724523Y-145401718D01*
X125844666Y-145425616D01*
X125879173Y-145432480D01*
X125879176Y-145432481D01*
X126031741Y-145432481D01*
X126098780Y-145452166D01*
X126144535Y-145504970D01*
X126154479Y-145574128D01*
X126132060Y-145629366D01*
X126079747Y-145701368D01*
X125997177Y-145863419D01*
X125940971Y-146036401D01*
X125912520Y-146216036D01*
X125912520Y-146397927D01*
X125940971Y-146577562D01*
X125997177Y-146750544D01*
X126079750Y-146912599D01*
X126186648Y-147059733D01*
X126186652Y-147059738D01*
X126315263Y-147188349D01*
X126315268Y-147188353D01*
X126443606Y-147281595D01*
X126462406Y-147295254D01*
X126565665Y-147347867D01*
X126624457Y-147377824D01*
X126624459Y-147377824D01*
X126624462Y-147377826D01*
X126717182Y-147407952D01*
X126797439Y-147434030D01*
X126977075Y-147462482D01*
X126977080Y-147462482D01*
X128348965Y-147462482D01*
X128528600Y-147434030D01*
X128701578Y-147377826D01*
X128858127Y-147298059D01*
X128926795Y-147285163D01*
X128991536Y-147311439D01*
X129031794Y-147368545D01*
X129038422Y-147408560D01*
X129037569Y-153977497D01*
X129017876Y-154044534D01*
X128965066Y-154090282D01*
X128913569Y-154101481D01*
X101338786Y-154101481D01*
X101271747Y-154081796D01*
X101225992Y-154028992D01*
X101216048Y-153959834D01*
X101245073Y-153896278D01*
X101264476Y-153878214D01*
X101277216Y-153868677D01*
X101363466Y-153753462D01*
X101413761Y-153618614D01*
X101420170Y-153559004D01*
X101420169Y-151824959D01*
X101413761Y-151765348D01*
X101409206Y-151753136D01*
X101409205Y-151753134D01*
X123157520Y-151753134D01*
X123157520Y-151910827D01*
X123188281Y-152065470D01*
X123188284Y-152065482D01*
X123248622Y-152211153D01*
X123248629Y-152211166D01*
X123336230Y-152342269D01*
X123336233Y-152342273D01*
X123447727Y-152453767D01*
X123447731Y-152453770D01*
X123578834Y-152541371D01*
X123578847Y-152541378D01*
X123691699Y-152588122D01*
X123724523Y-152601718D01*
X123879173Y-152632480D01*
X123879176Y-152632481D01*
X123879178Y-152632481D01*
X124036864Y-152632481D01*
X124036865Y-152632480D01*
X124191517Y-152601718D01*
X124337199Y-152541375D01*
X124468309Y-152453770D01*
X124579809Y-152342270D01*
X124667414Y-152211160D01*
X124727757Y-152065478D01*
X124758520Y-151910823D01*
X124758520Y-151753139D01*
X124758520Y-151753136D01*
X124758519Y-151753134D01*
X124727758Y-151598491D01*
X124727757Y-151598484D01*
X124693295Y-151515285D01*
X124667417Y-151452808D01*
X124667410Y-151452795D01*
X124579809Y-151321692D01*
X124579806Y-151321688D01*
X124468312Y-151210194D01*
X124468308Y-151210191D01*
X124337205Y-151122590D01*
X124337192Y-151122583D01*
X124191521Y-151062245D01*
X124191509Y-151062242D01*
X124036865Y-151031481D01*
X124036862Y-151031481D01*
X123879178Y-151031481D01*
X123879175Y-151031481D01*
X123724530Y-151062242D01*
X123724518Y-151062245D01*
X123578847Y-151122583D01*
X123578834Y-151122590D01*
X123447731Y-151210191D01*
X123447727Y-151210194D01*
X123336233Y-151321688D01*
X123336230Y-151321692D01*
X123248629Y-151452795D01*
X123248622Y-151452808D01*
X123188284Y-151598479D01*
X123188281Y-151598491D01*
X123157520Y-151753134D01*
X101409205Y-151753134D01*
X101363467Y-151630502D01*
X101363463Y-151630495D01*
X101277217Y-151515286D01*
X101277214Y-151515283D01*
X101162005Y-151429037D01*
X101161998Y-151429033D01*
X101027152Y-151378739D01*
X101027153Y-151378739D01*
X100967553Y-151372332D01*
X100967551Y-151372331D01*
X100967543Y-151372331D01*
X100967534Y-151372331D01*
X99233499Y-151372331D01*
X99233493Y-151372332D01*
X99173886Y-151378739D01*
X99039041Y-151429033D01*
X99039034Y-151429037D01*
X98923825Y-151515283D01*
X98923822Y-151515286D01*
X98837576Y-151630495D01*
X98837572Y-151630502D01*
X98787279Y-151765346D01*
X98787019Y-151767766D01*
X98786293Y-151769516D01*
X98785496Y-151772893D01*
X98784948Y-151772763D01*
X98760276Y-151832315D01*
X98702882Y-151872160D01*
X98633056Y-151874649D01*
X98572970Y-151838993D01*
X98569437Y-151835031D01*
X98567091Y-151832284D01*
X98420217Y-151685410D01*
X98420215Y-151685408D01*
X98252168Y-151563315D01*
X98157900Y-151515283D01*
X98067087Y-151469011D01*
X97869540Y-151404825D01*
X97664384Y-151372331D01*
X97664379Y-151372331D01*
X97456661Y-151372331D01*
X97456656Y-151372331D01*
X97251499Y-151404825D01*
X97053952Y-151469011D01*
X96868871Y-151563315D01*
X96700822Y-151685410D01*
X96553949Y-151832283D01*
X96431854Y-152000332D01*
X96337550Y-152185413D01*
X96273364Y-152382960D01*
X96240870Y-152588116D01*
X96240870Y-152795845D01*
X96273364Y-153001001D01*
X96337550Y-153198548D01*
X96431854Y-153383629D01*
X96553947Y-153551676D01*
X96700825Y-153698554D01*
X96868872Y-153820647D01*
X96959837Y-153866996D01*
X97010633Y-153914971D01*
X97027428Y-153982792D01*
X97004891Y-154048927D01*
X96950175Y-154092378D01*
X96903542Y-154101481D01*
X93684365Y-154101481D01*
X93617326Y-154081796D01*
X93571571Y-154028992D01*
X93560365Y-153977526D01*
X93559436Y-151429033D01*
X93558461Y-148753134D01*
X117657520Y-148753134D01*
X117657520Y-148910827D01*
X117688281Y-149065470D01*
X117688284Y-149065482D01*
X117748622Y-149211153D01*
X117748629Y-149211166D01*
X117836230Y-149342269D01*
X117836233Y-149342273D01*
X117947727Y-149453767D01*
X117947731Y-149453770D01*
X118078834Y-149541371D01*
X118078847Y-149541378D01*
X118224518Y-149601716D01*
X118224523Y-149601718D01*
X118379173Y-149632480D01*
X118379176Y-149632481D01*
X118379178Y-149632481D01*
X118536864Y-149632481D01*
X118536865Y-149632480D01*
X118691517Y-149601718D01*
X118837199Y-149541375D01*
X118968309Y-149453770D01*
X119079809Y-149342270D01*
X119167414Y-149211160D01*
X119227757Y-149065478D01*
X119258520Y-148910823D01*
X119258520Y-148753139D01*
X119258520Y-148753136D01*
X119258519Y-148753134D01*
X119227758Y-148598491D01*
X119227757Y-148598484D01*
X119227755Y-148598479D01*
X119167417Y-148452808D01*
X119167410Y-148452795D01*
X119079809Y-148321692D01*
X119079806Y-148321688D01*
X118968312Y-148210194D01*
X118968308Y-148210191D01*
X118837205Y-148122590D01*
X118837192Y-148122583D01*
X118691521Y-148062245D01*
X118691509Y-148062242D01*
X118536865Y-148031481D01*
X118536862Y-148031481D01*
X118379178Y-148031481D01*
X118379175Y-148031481D01*
X118224530Y-148062242D01*
X118224518Y-148062245D01*
X118078847Y-148122583D01*
X118078834Y-148122590D01*
X117947731Y-148210191D01*
X117947727Y-148210194D01*
X117836233Y-148321688D01*
X117836230Y-148321692D01*
X117748629Y-148452795D01*
X117748622Y-148452808D01*
X117688284Y-148598479D01*
X117688281Y-148598491D01*
X117657520Y-148753134D01*
X93558461Y-148753134D01*
X93557252Y-145434754D01*
X95048746Y-145434754D01*
X95048746Y-145592447D01*
X95079507Y-145747090D01*
X95079510Y-145747102D01*
X95139848Y-145892773D01*
X95139855Y-145892786D01*
X95227456Y-146023889D01*
X95227459Y-146023893D01*
X95338953Y-146135387D01*
X95338957Y-146135390D01*
X95470060Y-146222991D01*
X95470073Y-146222998D01*
X95615744Y-146283336D01*
X95615749Y-146283338D01*
X95770399Y-146314100D01*
X95770402Y-146314101D01*
X95770404Y-146314101D01*
X95928090Y-146314101D01*
X95928091Y-146314100D01*
X96082743Y-146283338D01*
X96228425Y-146222995D01*
X96359535Y-146135390D01*
X96471035Y-146023890D01*
X96558640Y-145892780D01*
X96618983Y-145747098D01*
X96649746Y-145592443D01*
X96649746Y-145434759D01*
X96649746Y-145434756D01*
X96649745Y-145434754D01*
X96631171Y-145341378D01*
X96618983Y-145280104D01*
X96615961Y-145272808D01*
X96558643Y-145134428D01*
X96558636Y-145134415D01*
X96471035Y-145003312D01*
X96471032Y-145003308D01*
X96359538Y-144891814D01*
X96359534Y-144891811D01*
X96228431Y-144804210D01*
X96228418Y-144804203D01*
X96082747Y-144743865D01*
X96082735Y-144743862D01*
X95928091Y-144713101D01*
X95928088Y-144713101D01*
X95770404Y-144713101D01*
X95770401Y-144713101D01*
X95615756Y-144743862D01*
X95615744Y-144743865D01*
X95470073Y-144804203D01*
X95470060Y-144804210D01*
X95338957Y-144891811D01*
X95338953Y-144891814D01*
X95227459Y-145003308D01*
X95227456Y-145003312D01*
X95139855Y-145134415D01*
X95139848Y-145134428D01*
X95079510Y-145280099D01*
X95079507Y-145280111D01*
X95048746Y-145434754D01*
X93557252Y-145434754D01*
X93556701Y-143922583D01*
X93556676Y-143853134D01*
X98857520Y-143853134D01*
X98857520Y-144010827D01*
X98888281Y-144165470D01*
X98888284Y-144165482D01*
X98948622Y-144311153D01*
X98948629Y-144311166D01*
X99036230Y-144442269D01*
X99036233Y-144442273D01*
X99147727Y-144553767D01*
X99147731Y-144553770D01*
X99278834Y-144641371D01*
X99278847Y-144641378D01*
X99416703Y-144698479D01*
X99424523Y-144701718D01*
X99579173Y-144732480D01*
X99579176Y-144732481D01*
X99579178Y-144732481D01*
X99736863Y-144732481D01*
X99752697Y-144729331D01*
X99810068Y-144717919D01*
X99879658Y-144724146D01*
X99934836Y-144767008D01*
X99958081Y-144832897D01*
X99957663Y-144851678D01*
X99957520Y-144853131D01*
X99957520Y-145010827D01*
X99988281Y-145165470D01*
X99988284Y-145165482D01*
X100048622Y-145311153D01*
X100048629Y-145311166D01*
X100136230Y-145442269D01*
X100136233Y-145442273D01*
X100247727Y-145553767D01*
X100247731Y-145553770D01*
X100378834Y-145641371D01*
X100378847Y-145641378D01*
X100523678Y-145701368D01*
X100524523Y-145701718D01*
X100670843Y-145730823D01*
X100679173Y-145732480D01*
X100679176Y-145732481D01*
X100679178Y-145732481D01*
X100836864Y-145732481D01*
X100836865Y-145732480D01*
X100991517Y-145701718D01*
X101137199Y-145641375D01*
X101239329Y-145573134D01*
X120157520Y-145573134D01*
X120157520Y-145730827D01*
X120188281Y-145885470D01*
X120188284Y-145885482D01*
X120248622Y-146031153D01*
X120248629Y-146031166D01*
X120336230Y-146162269D01*
X120336233Y-146162273D01*
X120447727Y-146273767D01*
X120447731Y-146273770D01*
X120578834Y-146361371D01*
X120578847Y-146361378D01*
X120724518Y-146421716D01*
X120724523Y-146421718D01*
X120879173Y-146452480D01*
X120879176Y-146452481D01*
X120879178Y-146452481D01*
X121036864Y-146452481D01*
X121036865Y-146452480D01*
X121191517Y-146421718D01*
X121337199Y-146361375D01*
X121468309Y-146273770D01*
X121579809Y-146162270D01*
X121667414Y-146031160D01*
X121727757Y-145885478D01*
X121758520Y-145730823D01*
X121758520Y-145573139D01*
X121758520Y-145573136D01*
X121758519Y-145573134D01*
X121727757Y-145418484D01*
X121695816Y-145341371D01*
X121667417Y-145272808D01*
X121667410Y-145272795D01*
X121579809Y-145141692D01*
X121579806Y-145141688D01*
X121468312Y-145030194D01*
X121468308Y-145030191D01*
X121337205Y-144942590D01*
X121337192Y-144942583D01*
X121191521Y-144882245D01*
X121191509Y-144882242D01*
X121036865Y-144851481D01*
X121036862Y-144851481D01*
X120879178Y-144851481D01*
X120879175Y-144851481D01*
X120724530Y-144882242D01*
X120724518Y-144882245D01*
X120578847Y-144942583D01*
X120578834Y-144942590D01*
X120447731Y-145030191D01*
X120447727Y-145030194D01*
X120336233Y-145141688D01*
X120336230Y-145141692D01*
X120248629Y-145272795D01*
X120248622Y-145272808D01*
X120188284Y-145418479D01*
X120188281Y-145418491D01*
X120157520Y-145573134D01*
X101239329Y-145573134D01*
X101268309Y-145553770D01*
X101268312Y-145553767D01*
X101342714Y-145479366D01*
X101379806Y-145442273D01*
X101379809Y-145442270D01*
X101467414Y-145311160D01*
X101527757Y-145165478D01*
X101558520Y-145010823D01*
X101558520Y-144853139D01*
X101558520Y-144853136D01*
X101558519Y-144853134D01*
X101536784Y-144743865D01*
X101527757Y-144698484D01*
X101527755Y-144698479D01*
X101467417Y-144552808D01*
X101467410Y-144552795D01*
X101379809Y-144421692D01*
X101379806Y-144421688D01*
X101268312Y-144310194D01*
X101268308Y-144310191D01*
X101178449Y-144250149D01*
X101137205Y-144222590D01*
X101137192Y-144222583D01*
X100991521Y-144162245D01*
X100991509Y-144162242D01*
X100945721Y-144153134D01*
X113657520Y-144153134D01*
X113657520Y-144310827D01*
X113688281Y-144465470D01*
X113688284Y-144465482D01*
X113748622Y-144611153D01*
X113748629Y-144611166D01*
X113836230Y-144742269D01*
X113836233Y-144742273D01*
X113947727Y-144853767D01*
X113947731Y-144853770D01*
X114078834Y-144941371D01*
X114078847Y-144941378D01*
X114224518Y-145001716D01*
X114224523Y-145001718D01*
X114367681Y-145030194D01*
X114379173Y-145032480D01*
X114379176Y-145032481D01*
X114379178Y-145032481D01*
X114536864Y-145032481D01*
X114536865Y-145032480D01*
X114691517Y-145001718D01*
X114837199Y-144941375D01*
X114968309Y-144853770D01*
X115079809Y-144742270D01*
X115167414Y-144611160D01*
X115227757Y-144465478D01*
X115258520Y-144310823D01*
X115258520Y-144153139D01*
X115258520Y-144153136D01*
X115258519Y-144153134D01*
X115252264Y-144121688D01*
X115227757Y-143998484D01*
X115196318Y-143922583D01*
X115167417Y-143852808D01*
X115167410Y-143852795D01*
X115079809Y-143721692D01*
X115079806Y-143721688D01*
X114968312Y-143610194D01*
X114968308Y-143610191D01*
X114837205Y-143522590D01*
X114837192Y-143522583D01*
X114691521Y-143462245D01*
X114691509Y-143462242D01*
X114536865Y-143431481D01*
X114536862Y-143431481D01*
X114379178Y-143431481D01*
X114379175Y-143431481D01*
X114224530Y-143462242D01*
X114224518Y-143462245D01*
X114078847Y-143522583D01*
X114078834Y-143522590D01*
X113947731Y-143610191D01*
X113947727Y-143610194D01*
X113836233Y-143721688D01*
X113836230Y-143721692D01*
X113748629Y-143852795D01*
X113748622Y-143852808D01*
X113688284Y-143998479D01*
X113688281Y-143998491D01*
X113657520Y-144153134D01*
X100945721Y-144153134D01*
X100836865Y-144131481D01*
X100836862Y-144131481D01*
X100679178Y-144131481D01*
X100679173Y-144131481D01*
X100605971Y-144146042D01*
X100536380Y-144139815D01*
X100481202Y-144096952D01*
X100457958Y-144031062D01*
X100458378Y-144012266D01*
X100458520Y-144010824D01*
X100458520Y-143853136D01*
X100458519Y-143853134D01*
X100432373Y-143721692D01*
X100427757Y-143698484D01*
X100427755Y-143698479D01*
X100367417Y-143552808D01*
X100367410Y-143552795D01*
X100279809Y-143421692D01*
X100279806Y-143421688D01*
X100168312Y-143310194D01*
X100168308Y-143310191D01*
X100037205Y-143222590D01*
X100037192Y-143222583D01*
X99891521Y-143162245D01*
X99891509Y-143162242D01*
X99736865Y-143131481D01*
X99736862Y-143131481D01*
X99579178Y-143131481D01*
X99579175Y-143131481D01*
X99424530Y-143162242D01*
X99424518Y-143162245D01*
X99278847Y-143222583D01*
X99278834Y-143222590D01*
X99147731Y-143310191D01*
X99147727Y-143310194D01*
X99036233Y-143421688D01*
X99036230Y-143421692D01*
X98948629Y-143552795D01*
X98948622Y-143552808D01*
X98888284Y-143698479D01*
X98888281Y-143698491D01*
X98857520Y-143853134D01*
X93556676Y-143853134D01*
X93556674Y-143847092D01*
X93555583Y-140853134D01*
X100557520Y-140853134D01*
X100557520Y-141010827D01*
X100588281Y-141165470D01*
X100588284Y-141165482D01*
X100648622Y-141311153D01*
X100648629Y-141311166D01*
X100736230Y-141442269D01*
X100736233Y-141442273D01*
X100847727Y-141553767D01*
X100847731Y-141553770D01*
X100978834Y-141641371D01*
X100978847Y-141641378D01*
X101124518Y-141701716D01*
X101124523Y-141701718D01*
X101279173Y-141732480D01*
X101279176Y-141732481D01*
X101279178Y-141732481D01*
X101436864Y-141732481D01*
X101436865Y-141732480D01*
X101591517Y-141701718D01*
X101737199Y-141641375D01*
X101868309Y-141553770D01*
X101979809Y-141442270D01*
X102067414Y-141311160D01*
X102127757Y-141165478D01*
X102158520Y-141010823D01*
X102158520Y-140853139D01*
X102158520Y-140853136D01*
X102158519Y-140853134D01*
X102157317Y-140847092D01*
X102127757Y-140698484D01*
X102108975Y-140653139D01*
X102067417Y-140552808D01*
X102067410Y-140552795D01*
X101979809Y-140421692D01*
X101979806Y-140421688D01*
X101868312Y-140310194D01*
X101868308Y-140310191D01*
X101778449Y-140250149D01*
X101737205Y-140222590D01*
X101737192Y-140222583D01*
X101591521Y-140162245D01*
X101591509Y-140162242D01*
X101545721Y-140153134D01*
X104657520Y-140153134D01*
X104657520Y-140310827D01*
X104688281Y-140465470D01*
X104688284Y-140465482D01*
X104748622Y-140611153D01*
X104748629Y-140611166D01*
X104836230Y-140742269D01*
X104836233Y-140742273D01*
X104947727Y-140853767D01*
X104947731Y-140853770D01*
X105078834Y-140941371D01*
X105078847Y-140941378D01*
X105224518Y-141001716D01*
X105224523Y-141001718D01*
X105379173Y-141032480D01*
X105379176Y-141032481D01*
X105379178Y-141032481D01*
X105536864Y-141032481D01*
X105536865Y-141032480D01*
X105691517Y-141001718D01*
X105837199Y-140941375D01*
X105968309Y-140853770D01*
X106079809Y-140742270D01*
X106139368Y-140653134D01*
X117157520Y-140653134D01*
X117157520Y-140810827D01*
X117188281Y-140965470D01*
X117188284Y-140965482D01*
X117248622Y-141111153D01*
X117248629Y-141111166D01*
X117336230Y-141242269D01*
X117336233Y-141242273D01*
X117447727Y-141353767D01*
X117447731Y-141353770D01*
X117578834Y-141441371D01*
X117578847Y-141441378D01*
X117724518Y-141501716D01*
X117724523Y-141501718D01*
X117879173Y-141532480D01*
X117879176Y-141532481D01*
X117879178Y-141532481D01*
X118036864Y-141532481D01*
X118036865Y-141532480D01*
X118191517Y-141501718D01*
X118337199Y-141441375D01*
X118468309Y-141353770D01*
X118579809Y-141242270D01*
X118667414Y-141111160D01*
X118727757Y-140965478D01*
X118758520Y-140810823D01*
X118758520Y-140653139D01*
X118758520Y-140653136D01*
X118758519Y-140653134D01*
X118738563Y-140552808D01*
X118727757Y-140498484D01*
X118695949Y-140421692D01*
X118667417Y-140352808D01*
X118667410Y-140352795D01*
X118579809Y-140221692D01*
X118579806Y-140221688D01*
X118468312Y-140110194D01*
X118468308Y-140110191D01*
X118337205Y-140022590D01*
X118337192Y-140022583D01*
X118191521Y-139962245D01*
X118191509Y-139962242D01*
X118036865Y-139931481D01*
X118036862Y-139931481D01*
X117879178Y-139931481D01*
X117879175Y-139931481D01*
X117724530Y-139962242D01*
X117724518Y-139962245D01*
X117578847Y-140022583D01*
X117578834Y-140022590D01*
X117447731Y-140110191D01*
X117447727Y-140110194D01*
X117336233Y-140221688D01*
X117336230Y-140221692D01*
X117248629Y-140352795D01*
X117248622Y-140352808D01*
X117188284Y-140498479D01*
X117188281Y-140498491D01*
X117157520Y-140653134D01*
X106139368Y-140653134D01*
X106167414Y-140611160D01*
X106227757Y-140465478D01*
X106258520Y-140310823D01*
X106258520Y-140153139D01*
X106258520Y-140153136D01*
X106258519Y-140153134D01*
X106232551Y-140022587D01*
X106227757Y-139998484D01*
X106227755Y-139998479D01*
X106167417Y-139852808D01*
X106167410Y-139852795D01*
X106079809Y-139721692D01*
X106079806Y-139721688D01*
X105968312Y-139610194D01*
X105968308Y-139610191D01*
X105837205Y-139522590D01*
X105837192Y-139522583D01*
X105691521Y-139462245D01*
X105691509Y-139462242D01*
X105536865Y-139431481D01*
X105536862Y-139431481D01*
X105379178Y-139431481D01*
X105379175Y-139431481D01*
X105224530Y-139462242D01*
X105224518Y-139462245D01*
X105078847Y-139522583D01*
X105078834Y-139522590D01*
X104947731Y-139610191D01*
X104947727Y-139610194D01*
X104836233Y-139721688D01*
X104836230Y-139721692D01*
X104748629Y-139852795D01*
X104748622Y-139852808D01*
X104688284Y-139998479D01*
X104688281Y-139998491D01*
X104657520Y-140153134D01*
X101545721Y-140153134D01*
X101436865Y-140131481D01*
X101436862Y-140131481D01*
X101279178Y-140131481D01*
X101279175Y-140131481D01*
X101124530Y-140162242D01*
X101124518Y-140162245D01*
X100978847Y-140222583D01*
X100978834Y-140222590D01*
X100847731Y-140310191D01*
X100847727Y-140310194D01*
X100736233Y-140421688D01*
X100736230Y-140421692D01*
X100648629Y-140552795D01*
X100648622Y-140552808D01*
X100588284Y-140698479D01*
X100588281Y-140698491D01*
X100557520Y-140853134D01*
X93555583Y-140853134D01*
X93555581Y-140847092D01*
X93555401Y-140352795D01*
X93554964Y-139153134D01*
X96157520Y-139153134D01*
X96157520Y-139310827D01*
X96188281Y-139465470D01*
X96188284Y-139465482D01*
X96248622Y-139611153D01*
X96248629Y-139611166D01*
X96336230Y-139742269D01*
X96336233Y-139742273D01*
X96447727Y-139853767D01*
X96447731Y-139853770D01*
X96578834Y-139941371D01*
X96578847Y-139941378D01*
X96716703Y-139998479D01*
X96724523Y-140001718D01*
X96879173Y-140032480D01*
X96879176Y-140032481D01*
X96879178Y-140032481D01*
X97036864Y-140032481D01*
X97036865Y-140032480D01*
X97191517Y-140001718D01*
X97337199Y-139941375D01*
X97468309Y-139853770D01*
X97579809Y-139742270D01*
X97667414Y-139611160D01*
X97727757Y-139465478D01*
X97758520Y-139310823D01*
X97758520Y-139153139D01*
X97758520Y-139153136D01*
X97758519Y-139153134D01*
X97727758Y-138998491D01*
X97727757Y-138998484D01*
X97727755Y-138998479D01*
X97667417Y-138852808D01*
X97667410Y-138852795D01*
X97579809Y-138721692D01*
X97579806Y-138721688D01*
X97468312Y-138610194D01*
X97468308Y-138610191D01*
X97337205Y-138522590D01*
X97337192Y-138522583D01*
X97191521Y-138462245D01*
X97191509Y-138462242D01*
X97036865Y-138431481D01*
X97036862Y-138431481D01*
X96879178Y-138431481D01*
X96879175Y-138431481D01*
X96724530Y-138462242D01*
X96724518Y-138462245D01*
X96578847Y-138522583D01*
X96578834Y-138522590D01*
X96447731Y-138610191D01*
X96447727Y-138610194D01*
X96336233Y-138721688D01*
X96336230Y-138721692D01*
X96248629Y-138852795D01*
X96248622Y-138852808D01*
X96188284Y-138998479D01*
X96188281Y-138998491D01*
X96157520Y-139153134D01*
X93554964Y-139153134D01*
X93554089Y-136753134D01*
X106957520Y-136753134D01*
X106957520Y-136910827D01*
X106988281Y-137065470D01*
X106988284Y-137065482D01*
X107048622Y-137211153D01*
X107048629Y-137211166D01*
X107136230Y-137342269D01*
X107136233Y-137342273D01*
X107247727Y-137453767D01*
X107247731Y-137453770D01*
X107378834Y-137541371D01*
X107378847Y-137541378D01*
X107524518Y-137601716D01*
X107524523Y-137601718D01*
X107679173Y-137632480D01*
X107679176Y-137632481D01*
X107679178Y-137632481D01*
X107836864Y-137632481D01*
X107836865Y-137632480D01*
X107991517Y-137601718D01*
X108137199Y-137541375D01*
X108268309Y-137453770D01*
X108379809Y-137342270D01*
X108467414Y-137211160D01*
X108527757Y-137065478D01*
X108558520Y-136910823D01*
X108558520Y-136753139D01*
X108558520Y-136753136D01*
X108558519Y-136753134D01*
X123057520Y-136753134D01*
X123057520Y-136910827D01*
X123088281Y-137065470D01*
X123088284Y-137065482D01*
X123148622Y-137211153D01*
X123148629Y-137211166D01*
X123236230Y-137342269D01*
X123236233Y-137342273D01*
X123347727Y-137453767D01*
X123347731Y-137453770D01*
X123478834Y-137541371D01*
X123478847Y-137541378D01*
X123624518Y-137601716D01*
X123624523Y-137601718D01*
X123779173Y-137632480D01*
X123779176Y-137632481D01*
X123779178Y-137632481D01*
X123936864Y-137632481D01*
X123936865Y-137632480D01*
X124091517Y-137601718D01*
X124237199Y-137541375D01*
X124368309Y-137453770D01*
X124479809Y-137342270D01*
X124567414Y-137211160D01*
X124619463Y-137085499D01*
X124663302Y-137031099D01*
X124729596Y-137009033D01*
X124797295Y-137026311D01*
X124821704Y-137045273D01*
X124934719Y-137158288D01*
X124934723Y-137158291D01*
X125065826Y-137245892D01*
X125065839Y-137245899D01*
X125211510Y-137306237D01*
X125211515Y-137306239D01*
X125366165Y-137337001D01*
X125366168Y-137337002D01*
X125366170Y-137337002D01*
X125523856Y-137337002D01*
X125523857Y-137337001D01*
X125678509Y-137306239D01*
X125824191Y-137245896D01*
X125955301Y-137158291D01*
X126066801Y-137046791D01*
X126154406Y-136915681D01*
X126214749Y-136769999D01*
X126245512Y-136615344D01*
X126245512Y-136457660D01*
X126245512Y-136457657D01*
X126245511Y-136457655D01*
X126244544Y-136452795D01*
X126214749Y-136303005D01*
X126214747Y-136303000D01*
X126154409Y-136157329D01*
X126154402Y-136157316D01*
X126066801Y-136026213D01*
X126066798Y-136026209D01*
X125955304Y-135914715D01*
X125955300Y-135914712D01*
X125824197Y-135827111D01*
X125824184Y-135827104D01*
X125678513Y-135766766D01*
X125678501Y-135766763D01*
X125523857Y-135736002D01*
X125523854Y-135736002D01*
X125366170Y-135736002D01*
X125366167Y-135736002D01*
X125211522Y-135766763D01*
X125211510Y-135766766D01*
X125065839Y-135827104D01*
X125065826Y-135827111D01*
X124934723Y-135914712D01*
X124934719Y-135914715D01*
X124823225Y-136026209D01*
X124823222Y-136026213D01*
X124735621Y-136157316D01*
X124735614Y-136157329D01*
X124683569Y-136282980D01*
X124639728Y-136337384D01*
X124573434Y-136359449D01*
X124505735Y-136342170D01*
X124481327Y-136323209D01*
X124368312Y-136210194D01*
X124368308Y-136210191D01*
X124237205Y-136122590D01*
X124237192Y-136122583D01*
X124091521Y-136062245D01*
X124091509Y-136062242D01*
X123936865Y-136031481D01*
X123936862Y-136031481D01*
X123779178Y-136031481D01*
X123779175Y-136031481D01*
X123624530Y-136062242D01*
X123624518Y-136062245D01*
X123478847Y-136122583D01*
X123478834Y-136122590D01*
X123347731Y-136210191D01*
X123347727Y-136210194D01*
X123236233Y-136321688D01*
X123236230Y-136321692D01*
X123148629Y-136452795D01*
X123148622Y-136452808D01*
X123088284Y-136598479D01*
X123088281Y-136598491D01*
X123057520Y-136753134D01*
X108558519Y-136753134D01*
X108531111Y-136615346D01*
X108527757Y-136598484D01*
X108527755Y-136598479D01*
X108467417Y-136452808D01*
X108467410Y-136452795D01*
X108379809Y-136321692D01*
X108379806Y-136321688D01*
X108268312Y-136210194D01*
X108268308Y-136210191D01*
X108137205Y-136122590D01*
X108137192Y-136122583D01*
X107991521Y-136062245D01*
X107991509Y-136062242D01*
X107836865Y-136031481D01*
X107836862Y-136031481D01*
X107679178Y-136031481D01*
X107679175Y-136031481D01*
X107524530Y-136062242D01*
X107524518Y-136062245D01*
X107378847Y-136122583D01*
X107378834Y-136122590D01*
X107247731Y-136210191D01*
X107247727Y-136210194D01*
X107136233Y-136321688D01*
X107136230Y-136321692D01*
X107048629Y-136452795D01*
X107048622Y-136452808D01*
X106988284Y-136598479D01*
X106988281Y-136598491D01*
X106957520Y-136753134D01*
X93554089Y-136753134D01*
X93553652Y-135553134D01*
X117457520Y-135553134D01*
X117457520Y-135710827D01*
X117488281Y-135865470D01*
X117488284Y-135865482D01*
X117548622Y-136011153D01*
X117548629Y-136011166D01*
X117636230Y-136142269D01*
X117636233Y-136142273D01*
X117747727Y-136253767D01*
X117747731Y-136253770D01*
X117878834Y-136341371D01*
X117878847Y-136341378D01*
X118024518Y-136401716D01*
X118024523Y-136401718D01*
X118179173Y-136432480D01*
X118179176Y-136432481D01*
X118179178Y-136432481D01*
X118336864Y-136432481D01*
X118336865Y-136432480D01*
X118491517Y-136401718D01*
X118637199Y-136341375D01*
X118768309Y-136253770D01*
X118879809Y-136142270D01*
X118967414Y-136011160D01*
X119027757Y-135865478D01*
X119058520Y-135710823D01*
X119058520Y-135553139D01*
X119058520Y-135553136D01*
X119058519Y-135553134D01*
X119027758Y-135398491D01*
X119027757Y-135398484D01*
X119027755Y-135398479D01*
X118967417Y-135252808D01*
X118967410Y-135252795D01*
X118879809Y-135121692D01*
X118879806Y-135121688D01*
X118768312Y-135010194D01*
X118768308Y-135010191D01*
X118637205Y-134922590D01*
X118637192Y-134922583D01*
X118491521Y-134862245D01*
X118491509Y-134862242D01*
X118336865Y-134831481D01*
X118336862Y-134831481D01*
X118179178Y-134831481D01*
X118179175Y-134831481D01*
X118024530Y-134862242D01*
X118024518Y-134862245D01*
X117878847Y-134922583D01*
X117878834Y-134922590D01*
X117747731Y-135010191D01*
X117747727Y-135010194D01*
X117636233Y-135121688D01*
X117636230Y-135121692D01*
X117548629Y-135252795D01*
X117548622Y-135252808D01*
X117488284Y-135398479D01*
X117488281Y-135398491D01*
X117457520Y-135553134D01*
X93553652Y-135553134D01*
X93552752Y-133083134D01*
X95017520Y-133083134D01*
X95017520Y-133240827D01*
X95048281Y-133395470D01*
X95048284Y-133395482D01*
X95108622Y-133541153D01*
X95108629Y-133541166D01*
X95196230Y-133672269D01*
X95196233Y-133672273D01*
X95307727Y-133783767D01*
X95307731Y-133783770D01*
X95438834Y-133871371D01*
X95438847Y-133871378D01*
X95534082Y-133910825D01*
X95584523Y-133931718D01*
X95739173Y-133962480D01*
X95739176Y-133962481D01*
X95739178Y-133962481D01*
X95896864Y-133962481D01*
X95896865Y-133962480D01*
X96051517Y-133931718D01*
X96197199Y-133871375D01*
X96328309Y-133783770D01*
X96358945Y-133753134D01*
X107357520Y-133753134D01*
X107357520Y-133910827D01*
X107388281Y-134065470D01*
X107388284Y-134065482D01*
X107448622Y-134211153D01*
X107448629Y-134211166D01*
X107536230Y-134342269D01*
X107536233Y-134342273D01*
X107647727Y-134453767D01*
X107647731Y-134453770D01*
X107778834Y-134541371D01*
X107778847Y-134541378D01*
X107924518Y-134601716D01*
X107924523Y-134601718D01*
X108079173Y-134632480D01*
X108079176Y-134632481D01*
X108079178Y-134632481D01*
X108236864Y-134632481D01*
X108236865Y-134632480D01*
X108391517Y-134601718D01*
X108537199Y-134541375D01*
X108668309Y-134453770D01*
X108779809Y-134342270D01*
X108867414Y-134211160D01*
X108927757Y-134065478D01*
X108958520Y-133910823D01*
X108958520Y-133753139D01*
X108958520Y-133753136D01*
X108958519Y-133753134D01*
X108950168Y-133711153D01*
X108927757Y-133598484D01*
X108914082Y-133565470D01*
X108867417Y-133452808D01*
X108867410Y-133452795D01*
X108779810Y-133321693D01*
X108779804Y-133321686D01*
X108711252Y-133253134D01*
X120657520Y-133253134D01*
X120657520Y-133410827D01*
X120688281Y-133565470D01*
X120688284Y-133565482D01*
X120748622Y-133711153D01*
X120748629Y-133711166D01*
X120836230Y-133842269D01*
X120836233Y-133842273D01*
X120947727Y-133953767D01*
X120947731Y-133953770D01*
X121078834Y-134041371D01*
X121078847Y-134041378D01*
X121224518Y-134101716D01*
X121224523Y-134101718D01*
X121379173Y-134132480D01*
X121379176Y-134132481D01*
X121379178Y-134132481D01*
X121536864Y-134132481D01*
X121536865Y-134132480D01*
X121691517Y-134101718D01*
X121837199Y-134041375D01*
X121968309Y-133953770D01*
X122079809Y-133842270D01*
X122167414Y-133711160D01*
X122227757Y-133565478D01*
X122258520Y-133410823D01*
X122258520Y-133253139D01*
X122258520Y-133253136D01*
X122258519Y-133253134D01*
X122232551Y-133122587D01*
X122227757Y-133098484D01*
X122218896Y-133077092D01*
X122167417Y-132952808D01*
X122167410Y-132952795D01*
X122079809Y-132821692D01*
X122079806Y-132821688D01*
X121968312Y-132710194D01*
X121968308Y-132710191D01*
X121837205Y-132622590D01*
X121837192Y-132622583D01*
X121691521Y-132562245D01*
X121691509Y-132562242D01*
X121536865Y-132531481D01*
X121536862Y-132531481D01*
X121379178Y-132531481D01*
X121379175Y-132531481D01*
X121224530Y-132562242D01*
X121224518Y-132562245D01*
X121078847Y-132622583D01*
X121078834Y-132622590D01*
X120947731Y-132710191D01*
X120947727Y-132710194D01*
X120836233Y-132821688D01*
X120836230Y-132821692D01*
X120748629Y-132952795D01*
X120748622Y-132952808D01*
X120688284Y-133098479D01*
X120688281Y-133098491D01*
X120657520Y-133253134D01*
X108711252Y-133253134D01*
X108668312Y-133210194D01*
X108668308Y-133210191D01*
X108537205Y-133122590D01*
X108537192Y-133122583D01*
X108391521Y-133062245D01*
X108391509Y-133062242D01*
X108236865Y-133031481D01*
X108236862Y-133031481D01*
X108079178Y-133031481D01*
X108079175Y-133031481D01*
X107924530Y-133062242D01*
X107924518Y-133062245D01*
X107778847Y-133122583D01*
X107778834Y-133122590D01*
X107647731Y-133210191D01*
X107647727Y-133210194D01*
X107536233Y-133321688D01*
X107536230Y-133321692D01*
X107448629Y-133452795D01*
X107448622Y-133452808D01*
X107388284Y-133598479D01*
X107388281Y-133598491D01*
X107357520Y-133753134D01*
X96358945Y-133753134D01*
X96439809Y-133672270D01*
X96527414Y-133541160D01*
X96587757Y-133395478D01*
X96618520Y-133240823D01*
X96618520Y-133083139D01*
X96618520Y-133083136D01*
X96618519Y-133083134D01*
X96614363Y-133062242D01*
X96587757Y-132928484D01*
X96543521Y-132821688D01*
X96527417Y-132782808D01*
X96527410Y-132782795D01*
X96439809Y-132651692D01*
X96439806Y-132651688D01*
X96328312Y-132540194D01*
X96328308Y-132540191D01*
X96197205Y-132452590D01*
X96197192Y-132452583D01*
X96051521Y-132392245D01*
X96051509Y-132392242D01*
X95896865Y-132361481D01*
X95896862Y-132361481D01*
X95739178Y-132361481D01*
X95739175Y-132361481D01*
X95584530Y-132392242D01*
X95584518Y-132392245D01*
X95438847Y-132452583D01*
X95438834Y-132452590D01*
X95307731Y-132540191D01*
X95307727Y-132540194D01*
X95196233Y-132651688D01*
X95196230Y-132651692D01*
X95108629Y-132782795D01*
X95108622Y-132782808D01*
X95048284Y-132928479D01*
X95048281Y-132928491D01*
X95017520Y-133083134D01*
X93552752Y-133083134D01*
X93552142Y-131410077D01*
X123143714Y-131410077D01*
X123143714Y-131646272D01*
X123180660Y-131879543D01*
X123253647Y-132104171D01*
X123360871Y-132314608D01*
X123499697Y-132505685D01*
X123666704Y-132672692D01*
X123857781Y-132811518D01*
X123877749Y-132821692D01*
X124068217Y-132918741D01*
X124068219Y-132918741D01*
X124068222Y-132918743D01*
X124173063Y-132952808D01*
X124292845Y-132991728D01*
X124526117Y-133028675D01*
X124526122Y-133028675D01*
X124762311Y-133028675D01*
X124995582Y-132991728D01*
X125220206Y-132918743D01*
X125430647Y-132811518D01*
X125621724Y-132672692D01*
X125788731Y-132505685D01*
X125927557Y-132314608D01*
X126034782Y-132104167D01*
X126107767Y-131879543D01*
X126144714Y-131646272D01*
X126144714Y-131410077D01*
X126107767Y-131176806D01*
X126034780Y-130952178D01*
X125927556Y-130741741D01*
X125788731Y-130550665D01*
X125621724Y-130383658D01*
X125430647Y-130244832D01*
X125220210Y-130137608D01*
X124995582Y-130064621D01*
X124762311Y-130027675D01*
X124762306Y-130027675D01*
X124526122Y-130027675D01*
X124526117Y-130027675D01*
X124292845Y-130064621D01*
X124068217Y-130137608D01*
X123857780Y-130244832D01*
X123748764Y-130324037D01*
X123666704Y-130383658D01*
X123666702Y-130383660D01*
X123666701Y-130383660D01*
X123499699Y-130550662D01*
X123499699Y-130550663D01*
X123499697Y-130550665D01*
X123440076Y-130632725D01*
X123360871Y-130741741D01*
X123253647Y-130952178D01*
X123180660Y-131176806D01*
X123143714Y-131410077D01*
X93552142Y-131410077D01*
X93551138Y-128653134D01*
X106457520Y-128653134D01*
X106457520Y-128810827D01*
X106488281Y-128965470D01*
X106488284Y-128965482D01*
X106548622Y-129111153D01*
X106548629Y-129111166D01*
X106636230Y-129242269D01*
X106636233Y-129242273D01*
X106747727Y-129353767D01*
X106747731Y-129353770D01*
X106878834Y-129441371D01*
X106878847Y-129441378D01*
X107024518Y-129501716D01*
X107024523Y-129501718D01*
X107179173Y-129532480D01*
X107179176Y-129532481D01*
X107179178Y-129532481D01*
X107336864Y-129532481D01*
X107336865Y-129532480D01*
X107491517Y-129501718D01*
X107637199Y-129441375D01*
X107768309Y-129353770D01*
X107879809Y-129242270D01*
X107967414Y-129111160D01*
X108027757Y-128965478D01*
X108058520Y-128810823D01*
X108058520Y-128653139D01*
X108058520Y-128653136D01*
X108058519Y-128653134D01*
X108027758Y-128498491D01*
X108027757Y-128498484D01*
X107985114Y-128395534D01*
X107967417Y-128352808D01*
X107967410Y-128352795D01*
X107879809Y-128221692D01*
X107879806Y-128221688D01*
X107768312Y-128110194D01*
X107768308Y-128110191D01*
X107637205Y-128022590D01*
X107637192Y-128022583D01*
X107491521Y-127962245D01*
X107491509Y-127962242D01*
X107336865Y-127931481D01*
X107336862Y-127931481D01*
X107179178Y-127931481D01*
X107179175Y-127931481D01*
X107024530Y-127962242D01*
X107024518Y-127962245D01*
X106878847Y-128022583D01*
X106878834Y-128022590D01*
X106747731Y-128110191D01*
X106747727Y-128110194D01*
X106636233Y-128221688D01*
X106636230Y-128221692D01*
X106548629Y-128352795D01*
X106548622Y-128352808D01*
X106488284Y-128498479D01*
X106488281Y-128498491D01*
X106457520Y-128653134D01*
X93551138Y-128653134D01*
X93550502Y-126906851D01*
X93550634Y-126901081D01*
X93554666Y-126813883D01*
X118547520Y-126813883D01*
X118547520Y-127050078D01*
X118584466Y-127283349D01*
X118657453Y-127507977D01*
X118764677Y-127718414D01*
X118903503Y-127909491D01*
X119070510Y-128076498D01*
X119261587Y-128215324D01*
X119361011Y-128265983D01*
X119472023Y-128322547D01*
X119472025Y-128322547D01*
X119472028Y-128322549D01*
X119592432Y-128361670D01*
X119696651Y-128395534D01*
X119929923Y-128432481D01*
X119929928Y-128432481D01*
X120166117Y-128432481D01*
X120399388Y-128395534D01*
X120624012Y-128322549D01*
X120834453Y-128215324D01*
X121025530Y-128076498D01*
X121192537Y-127909491D01*
X121331363Y-127718414D01*
X121438588Y-127507973D01*
X121511573Y-127283349D01*
X121548520Y-127050078D01*
X121548520Y-126813883D01*
X121511573Y-126580612D01*
X121438586Y-126355984D01*
X121331362Y-126145547D01*
X121192537Y-125954471D01*
X121025530Y-125787464D01*
X120834453Y-125648638D01*
X120624016Y-125541414D01*
X120399388Y-125468427D01*
X120166117Y-125431481D01*
X120166112Y-125431481D01*
X119929928Y-125431481D01*
X119929923Y-125431481D01*
X119696651Y-125468427D01*
X119472023Y-125541414D01*
X119261586Y-125648638D01*
X119152570Y-125727843D01*
X119070510Y-125787464D01*
X119070508Y-125787466D01*
X119070507Y-125787466D01*
X118903505Y-125954468D01*
X118903505Y-125954469D01*
X118903503Y-125954471D01*
X118843882Y-126036531D01*
X118764677Y-126145547D01*
X118657453Y-126355984D01*
X118584466Y-126580612D01*
X118547520Y-126813883D01*
X93554666Y-126813883D01*
X93555156Y-126803289D01*
X93565453Y-126580612D01*
X93568367Y-126517589D01*
X93569424Y-126506192D01*
X93590379Y-126355984D01*
X93622072Y-126128793D01*
X93624176Y-126117541D01*
X93662531Y-125954471D01*
X93711420Y-125746612D01*
X93714547Y-125735622D01*
X93835654Y-125374296D01*
X93839781Y-125363641D01*
X93993704Y-125015046D01*
X93998796Y-125004820D01*
X94184229Y-124671908D01*
X94190258Y-124662175D01*
X94400822Y-124354792D01*
X94405608Y-124347805D01*
X94412490Y-124338692D01*
X94655937Y-124045520D01*
X94663632Y-124037079D01*
X94933099Y-123767615D01*
X94941542Y-123759918D01*
X95234720Y-123516467D01*
X95243848Y-123509576D01*
X95412400Y-123394116D01*
X104295020Y-123394116D01*
X104295020Y-124729851D01*
X104295021Y-124729857D01*
X104301428Y-124789464D01*
X104351722Y-124924309D01*
X104351726Y-124924316D01*
X104437972Y-125039525D01*
X104437975Y-125039528D01*
X104553184Y-125125774D01*
X104553191Y-125125778D01*
X104688037Y-125176072D01*
X104688036Y-125176072D01*
X104694964Y-125176816D01*
X104747647Y-125182481D01*
X106083392Y-125182480D01*
X106143003Y-125176072D01*
X106277851Y-125125777D01*
X106393066Y-125039527D01*
X106479316Y-124924312D01*
X106529611Y-124789464D01*
X106536020Y-124729854D01*
X106536019Y-123973790D01*
X109375019Y-123973790D01*
X109375019Y-124150171D01*
X109402608Y-124324365D01*
X109457112Y-124492108D01*
X109537181Y-124649251D01*
X109640849Y-124791938D01*
X109765562Y-124916651D01*
X109908249Y-125020319D01*
X109945947Y-125039527D01*
X110065391Y-125100387D01*
X110065393Y-125100387D01*
X110065396Y-125100389D01*
X110143523Y-125125774D01*
X110233134Y-125154891D01*
X110407329Y-125182481D01*
X110407334Y-125182481D01*
X110583709Y-125182481D01*
X110757903Y-125154891D01*
X110925642Y-125100389D01*
X111082789Y-125020319D01*
X111225476Y-124916651D01*
X111350189Y-124791938D01*
X111453857Y-124649251D01*
X111533927Y-124492104D01*
X111588429Y-124324365D01*
X111616019Y-124150171D01*
X111616019Y-123973790D01*
X114455020Y-123973790D01*
X114455020Y-124150171D01*
X114482609Y-124324365D01*
X114537113Y-124492108D01*
X114617182Y-124649251D01*
X114720850Y-124791938D01*
X114845563Y-124916651D01*
X114988250Y-125020319D01*
X115025948Y-125039527D01*
X115145392Y-125100387D01*
X115145394Y-125100387D01*
X115145397Y-125100389D01*
X115223524Y-125125774D01*
X115313135Y-125154891D01*
X115487330Y-125182481D01*
X115487335Y-125182481D01*
X115663710Y-125182481D01*
X115837904Y-125154891D01*
X116005643Y-125100389D01*
X116162790Y-125020319D01*
X116305477Y-124916651D01*
X116430190Y-124791938D01*
X116533858Y-124649251D01*
X116613928Y-124492104D01*
X116668430Y-124324365D01*
X116696020Y-124150171D01*
X116696020Y-123973790D01*
X116668430Y-123799596D01*
X116613926Y-123631853D01*
X116552800Y-123511887D01*
X116533858Y-123474711D01*
X116430190Y-123332024D01*
X116305477Y-123207311D01*
X116162790Y-123103643D01*
X116125092Y-123084435D01*
X116005647Y-123023574D01*
X115837904Y-122969070D01*
X115663710Y-122941481D01*
X115663705Y-122941481D01*
X115487335Y-122941481D01*
X115487330Y-122941481D01*
X115313135Y-122969070D01*
X115145392Y-123023574D01*
X114988249Y-123103643D01*
X114845560Y-123207313D01*
X114720852Y-123332021D01*
X114617182Y-123474710D01*
X114537113Y-123631853D01*
X114482609Y-123799596D01*
X114455020Y-123973790D01*
X111616019Y-123973790D01*
X111588429Y-123799596D01*
X111533925Y-123631853D01*
X111472799Y-123511887D01*
X111453857Y-123474711D01*
X111350189Y-123332024D01*
X111225476Y-123207311D01*
X111082789Y-123103643D01*
X111045091Y-123084435D01*
X110925646Y-123023574D01*
X110757903Y-122969070D01*
X110583709Y-122941481D01*
X110583704Y-122941481D01*
X110407334Y-122941481D01*
X110407329Y-122941481D01*
X110233134Y-122969070D01*
X110065391Y-123023574D01*
X109908248Y-123103643D01*
X109765559Y-123207313D01*
X109640851Y-123332021D01*
X109537181Y-123474710D01*
X109457112Y-123631853D01*
X109402608Y-123799596D01*
X109375019Y-123973790D01*
X106536019Y-123973790D01*
X106536019Y-123394109D01*
X106529611Y-123334498D01*
X106528688Y-123332024D01*
X106479317Y-123199652D01*
X106479313Y-123199645D01*
X106393067Y-123084436D01*
X106393064Y-123084433D01*
X106277855Y-122998187D01*
X106277848Y-122998183D01*
X106143002Y-122947889D01*
X106143003Y-122947889D01*
X106083403Y-122941482D01*
X106083401Y-122941481D01*
X106083393Y-122941481D01*
X106083384Y-122941481D01*
X104747649Y-122941481D01*
X104747643Y-122941482D01*
X104688036Y-122947889D01*
X104553191Y-122998183D01*
X104553184Y-122998187D01*
X104437975Y-123084433D01*
X104437972Y-123084436D01*
X104351726Y-123199645D01*
X104351722Y-123199652D01*
X104301428Y-123334498D01*
X104295021Y-123394097D01*
X104295021Y-123394104D01*
X104295020Y-123394116D01*
X95412400Y-123394116D01*
X95558213Y-123294233D01*
X95567944Y-123288207D01*
X95900852Y-123102779D01*
X95911061Y-123097695D01*
X96259691Y-122943762D01*
X96270331Y-122939640D01*
X96631661Y-122818535D01*
X96642640Y-122815412D01*
X97013588Y-122728166D01*
X97024825Y-122726066D01*
X97402237Y-122673419D01*
X97413625Y-122672363D01*
X97797168Y-122654631D01*
X97802892Y-122654500D01*
X97883094Y-122654500D01*
X97883096Y-122654500D01*
X97883099Y-122654499D01*
X97883101Y-122654499D01*
X98045122Y-122617519D01*
X98194853Y-122545413D01*
X98194853Y-122545412D01*
X98194857Y-122545411D01*
X98301202Y-122460602D01*
X98365887Y-122434194D01*
X98434583Y-122446949D01*
X98455825Y-122460600D01*
X98501468Y-122497000D01*
X98562152Y-122545394D01*
X98562154Y-122545395D01*
X98711885Y-122617502D01*
X98873900Y-122654481D01*
X98873905Y-122654481D01*
X98873907Y-122654482D01*
X98873909Y-122654482D01*
X99011161Y-122654482D01*
X99011173Y-122654481D01*
X101601615Y-122654481D01*
X101601679Y-122654500D01*
X101652998Y-122654500D01*
X101652998Y-122654501D01*
X101736095Y-122654502D01*
X101898121Y-122617520D01*
X102047856Y-122545412D01*
X102089874Y-122511904D01*
X102162704Y-122453825D01*
X102227390Y-122427416D01*
X102296086Y-122440173D01*
X102317328Y-122453824D01*
X102327329Y-122461799D01*
X102432155Y-122545394D01*
X102432156Y-122545394D01*
X102432157Y-122545395D01*
X102581886Y-122617501D01*
X102743900Y-122654480D01*
X102743905Y-122654480D01*
X102743907Y-122654481D01*
X102743909Y-122654481D01*
X102842199Y-122654481D01*
X104041635Y-122654499D01*
X104041638Y-122654500D01*
X104092998Y-122654500D01*
X104092998Y-122654501D01*
X104176095Y-122654502D01*
X104338121Y-122617520D01*
X104487856Y-122545412D01*
X104617791Y-122441793D01*
X104617790Y-122441793D01*
X104623236Y-122437451D01*
X104624113Y-122438551D01*
X104678642Y-122408769D01*
X104748335Y-122413745D01*
G37*
%TD.AperFunction*%
%TD*%
%TA.AperFunction,Conductor*%
%TO.N,GND_base*%
G36*
X99703208Y-114148220D02*
G01*
X99712670Y-114153949D01*
X99720811Y-114159388D01*
X99720817Y-114159391D01*
X99720821Y-114159394D01*
X99720823Y-114159395D01*
X99720827Y-114159397D01*
X99858695Y-114216503D01*
X99866503Y-114219737D01*
X100021153Y-114250499D01*
X100021156Y-114250500D01*
X100021158Y-114250500D01*
X100178844Y-114250500D01*
X100178845Y-114250499D01*
X100312458Y-114223922D01*
X100333488Y-114219739D01*
X100333489Y-114219738D01*
X100333497Y-114219737D01*
X100357155Y-114209937D01*
X100404604Y-114200500D01*
X104482351Y-114200500D01*
X104549390Y-114220185D01*
X104595145Y-114272989D01*
X104605089Y-114342147D01*
X104603969Y-114348690D01*
X104599500Y-114371158D01*
X104599500Y-114528846D01*
X104630261Y-114683489D01*
X104630264Y-114683501D01*
X104690602Y-114829172D01*
X104690609Y-114829185D01*
X104778210Y-114960288D01*
X104778213Y-114960292D01*
X104889707Y-115071786D01*
X104889711Y-115071789D01*
X105020814Y-115159390D01*
X105020827Y-115159397D01*
X105166498Y-115219735D01*
X105166503Y-115219737D01*
X105321153Y-115250499D01*
X105321156Y-115250500D01*
X105321158Y-115250500D01*
X105478844Y-115250500D01*
X105478845Y-115250499D01*
X105633497Y-115219737D01*
X105779179Y-115159394D01*
X105910289Y-115071789D01*
X106021789Y-114960289D01*
X106109394Y-114829179D01*
X106169737Y-114683497D01*
X106200500Y-114528842D01*
X106200500Y-114371158D01*
X106196031Y-114348690D01*
X106202260Y-114279099D01*
X106245123Y-114223922D01*
X106311013Y-114200678D01*
X106317649Y-114200500D01*
X109437770Y-114200500D01*
X109504809Y-114220185D01*
X109525451Y-114236819D01*
X111893182Y-116604549D01*
X111926667Y-116665872D01*
X111929501Y-116692230D01*
X111929501Y-118161492D01*
X111909816Y-118228531D01*
X111878388Y-118261809D01*
X111831154Y-118296126D01*
X111686126Y-118441154D01*
X111686122Y-118441159D01*
X111565576Y-118607077D01*
X111520203Y-118696126D01*
X111472229Y-118746921D01*
X111404407Y-118763716D01*
X111338273Y-118741178D01*
X111299234Y-118696124D01*
X111254000Y-118607347D01*
X111221263Y-118562287D01*
X110651538Y-119132012D01*
X110638539Y-119083498D01*
X110568105Y-118961503D01*
X110468496Y-118861894D01*
X110346501Y-118791460D01*
X110297984Y-118778459D01*
X110867710Y-118208734D01*
X110867710Y-118208733D01*
X110822660Y-118176003D01*
X110639990Y-118082927D01*
X110444996Y-118019570D01*
X110242512Y-117987500D01*
X110037486Y-117987500D01*
X109835001Y-118019570D01*
X109640007Y-118082927D01*
X109457337Y-118176003D01*
X109412286Y-118208733D01*
X109412286Y-118208734D01*
X109982012Y-118778460D01*
X109933497Y-118791460D01*
X109811502Y-118861894D01*
X109711893Y-118961503D01*
X109641459Y-119083498D01*
X109628459Y-119132013D01*
X109058733Y-118562287D01*
X109058732Y-118562287D01*
X109026000Y-118607341D01*
X108980763Y-118696123D01*
X108932788Y-118746919D01*
X108864967Y-118763713D01*
X108798832Y-118741175D01*
X108759794Y-118696121D01*
X108714424Y-118607077D01*
X108593878Y-118441159D01*
X108593874Y-118441154D01*
X108499630Y-118346910D01*
X108448847Y-118296127D01*
X108397433Y-118258772D01*
X108393516Y-118255394D01*
X108377255Y-118230220D01*
X108358948Y-118206479D01*
X108357730Y-118199994D01*
X108355605Y-118196704D01*
X108355586Y-118188575D01*
X108350500Y-118161492D01*
X108350500Y-117876079D01*
X108321659Y-117731092D01*
X108321658Y-117731091D01*
X108321658Y-117731087D01*
X108312194Y-117708239D01*
X108265087Y-117594511D01*
X108265080Y-117594498D01*
X108182952Y-117471585D01*
X108140539Y-117429172D01*
X108078416Y-117367049D01*
X107994856Y-117283489D01*
X107174097Y-116462728D01*
X107174074Y-116462707D01*
X106478421Y-115767052D01*
X106478414Y-115767046D01*
X106404729Y-115717812D01*
X106404729Y-115717813D01*
X106355491Y-115684913D01*
X106218917Y-115628343D01*
X106218907Y-115628340D01*
X106073920Y-115599500D01*
X106073918Y-115599500D01*
X100862229Y-115599500D01*
X100795190Y-115579815D01*
X100774548Y-115563181D01*
X99894856Y-114683489D01*
X99556099Y-114344731D01*
X99522615Y-114283410D01*
X99527599Y-114213718D01*
X99569471Y-114157785D01*
X99634935Y-114133368D01*
X99703208Y-114148220D01*
G37*
%TD.AperFunction*%
%TA.AperFunction,Conductor*%
G36*
X101080858Y-92197941D02*
G01*
X101132058Y-92245484D01*
X101149500Y-92308898D01*
X101149500Y-93665579D01*
X101129815Y-93732618D01*
X101077011Y-93778373D01*
X101007853Y-93788317D01*
X100944297Y-93759292D01*
X100907569Y-93703898D01*
X100849755Y-93525968D01*
X100756859Y-93343650D01*
X100724474Y-93299077D01*
X100724474Y-93299076D01*
X100045000Y-93978551D01*
X100045000Y-93972339D01*
X100017741Y-93870606D01*
X99965080Y-93779394D01*
X99890606Y-93704920D01*
X99799394Y-93652259D01*
X99697661Y-93625000D01*
X99691446Y-93625000D01*
X100370922Y-92945524D01*
X100369570Y-92928349D01*
X100355299Y-92909842D01*
X100349320Y-92840229D01*
X100381925Y-92778433D01*
X100431845Y-92747148D01*
X100514334Y-92719814D01*
X100663656Y-92627712D01*
X100787712Y-92503656D01*
X100879814Y-92354334D01*
X100907795Y-92269892D01*
X100947566Y-92212449D01*
X101012082Y-92185626D01*
X101080858Y-92197941D01*
G37*
%TD.AperFunction*%
%TA.AperFunction,Conductor*%
G36*
X124792855Y-55680632D02*
G01*
X125174532Y-55698277D01*
X125185922Y-55699333D01*
X125561501Y-55751724D01*
X125572745Y-55753826D01*
X125941887Y-55840647D01*
X125952877Y-55843774D01*
X126312454Y-55964293D01*
X126323108Y-55968421D01*
X126670015Y-56121595D01*
X126680242Y-56126687D01*
X126937155Y-56269787D01*
X127011532Y-56311215D01*
X127021270Y-56317244D01*
X127307706Y-56513457D01*
X127334118Y-56531549D01*
X127343258Y-56538452D01*
X127634985Y-56780699D01*
X127643449Y-56788415D01*
X127911584Y-57056550D01*
X127919300Y-57065014D01*
X128161547Y-57356741D01*
X128168450Y-57365881D01*
X128382755Y-57678729D01*
X128388784Y-57688467D01*
X128573305Y-58019744D01*
X128578410Y-58029997D01*
X128731573Y-58376878D01*
X128735711Y-58387558D01*
X128856221Y-58747109D01*
X128859355Y-58758125D01*
X128946171Y-59127246D01*
X128948276Y-59138505D01*
X129000665Y-59514070D01*
X129001722Y-59525474D01*
X129019368Y-59907144D01*
X129019500Y-59912828D01*
X129019500Y-59954170D01*
X129019514Y-59954211D01*
X129019518Y-59964666D01*
X129039497Y-116927117D01*
X129039365Y-116932887D01*
X129021636Y-117316370D01*
X129020579Y-117327774D01*
X128967935Y-117705169D01*
X128965830Y-117716428D01*
X128878591Y-118087347D01*
X128875457Y-118098363D01*
X128754361Y-118459665D01*
X128750223Y-118470345D01*
X128596313Y-118818917D01*
X128591208Y-118829170D01*
X128405789Y-119162060D01*
X128399760Y-119171798D01*
X128184410Y-119486171D01*
X128177507Y-119495311D01*
X127934080Y-119788459D01*
X127926364Y-119796923D01*
X127656923Y-120066364D01*
X127648459Y-120074080D01*
X127355311Y-120317507D01*
X127346171Y-120324410D01*
X127031798Y-120539760D01*
X127022060Y-120545789D01*
X126689170Y-120731208D01*
X126678917Y-120736313D01*
X126330345Y-120890223D01*
X126319665Y-120894361D01*
X125958363Y-121015457D01*
X125947347Y-121018591D01*
X125576428Y-121105830D01*
X125565169Y-121107935D01*
X125187774Y-121160579D01*
X125176370Y-121161636D01*
X124792855Y-121179368D01*
X124787171Y-121179500D01*
X124745830Y-121179500D01*
X124745791Y-121179514D01*
X124734830Y-121179518D01*
X124734820Y-121179515D01*
X124734787Y-121179518D01*
X124706904Y-121179518D01*
X124544879Y-121216500D01*
X124395157Y-121288602D01*
X124395152Y-121288605D01*
X124276939Y-121382878D01*
X124212252Y-121409286D01*
X124143557Y-121396530D01*
X124122314Y-121382878D01*
X124090486Y-121357496D01*
X124007853Y-121291596D01*
X124007847Y-121291593D01*
X123858124Y-121219491D01*
X123858109Y-121219486D01*
X123696096Y-121182508D01*
X123696094Y-121182508D01*
X123612998Y-121182509D01*
X123611936Y-121182509D01*
X119942277Y-121179563D01*
X119941541Y-121179499D01*
X119931171Y-121179499D01*
X119887002Y-121179499D01*
X119861302Y-121179499D01*
X119861153Y-121179499D01*
X119837374Y-121179480D01*
X119837296Y-121179512D01*
X119825039Y-121179519D01*
X119825021Y-121179513D01*
X119824971Y-121179519D01*
X119803900Y-121179519D01*
X119641886Y-121216498D01*
X119492154Y-121288605D01*
X119382327Y-121376188D01*
X119317640Y-121402596D01*
X119248945Y-121389839D01*
X119227704Y-121376188D01*
X119200617Y-121354587D01*
X119117856Y-121288588D01*
X119117853Y-121288586D01*
X119117851Y-121288585D01*
X118968125Y-121216481D01*
X118806096Y-121179498D01*
X118806095Y-121179498D01*
X118722998Y-121179499D01*
X117394997Y-121179499D01*
X117394795Y-121179519D01*
X117373900Y-121179519D01*
X117211886Y-121216498D01*
X117062154Y-121288605D01*
X116952327Y-121376188D01*
X116887640Y-121402596D01*
X116818945Y-121389839D01*
X116797704Y-121376188D01*
X116770617Y-121354587D01*
X116687856Y-121288588D01*
X116687853Y-121288586D01*
X116687851Y-121288585D01*
X116538125Y-121216481D01*
X116376096Y-121179498D01*
X116376095Y-121179498D01*
X116292998Y-121179499D01*
X112554997Y-121179499D01*
X112554795Y-121179519D01*
X112533900Y-121179519D01*
X112371886Y-121216498D01*
X112222157Y-121288604D01*
X112102328Y-121384163D01*
X112037641Y-121410571D01*
X111968945Y-121397814D01*
X111947704Y-121384162D01*
X111827861Y-121288591D01*
X111827851Y-121288585D01*
X111678125Y-121216481D01*
X111678126Y-121216481D01*
X111516096Y-121179498D01*
X111516095Y-121179498D01*
X111482823Y-121179498D01*
X111423447Y-121179499D01*
X111388829Y-121179499D01*
X111388827Y-121179499D01*
X111388803Y-121179499D01*
X110221947Y-121179518D01*
X110221946Y-121179518D01*
X110211224Y-121179518D01*
X110211171Y-121179499D01*
X110167002Y-121179499D01*
X110167002Y-121179518D01*
X110115621Y-121179519D01*
X110115620Y-121179518D01*
X110115620Y-121179519D01*
X110083900Y-121179519D01*
X109921886Y-121216498D01*
X109772157Y-121288604D01*
X109667328Y-121372201D01*
X109602641Y-121398609D01*
X109533945Y-121385852D01*
X109512704Y-121372201D01*
X109407855Y-121288587D01*
X109407851Y-121288585D01*
X109258125Y-121216481D01*
X109096096Y-121179498D01*
X109096095Y-121179498D01*
X109012998Y-121179499D01*
X105254997Y-121179499D01*
X105254795Y-121179519D01*
X105233900Y-121179519D01*
X105071886Y-121216498D01*
X104922157Y-121288604D01*
X104786778Y-121396564D01*
X104785899Y-121395462D01*
X104731358Y-121425236D01*
X104661667Y-121420244D01*
X104623766Y-121395883D01*
X104623236Y-121396549D01*
X104592704Y-121372201D01*
X104487856Y-121288588D01*
X104487853Y-121288586D01*
X104487851Y-121288585D01*
X104338125Y-121216481D01*
X104176096Y-121179498D01*
X104176095Y-121179498D01*
X104092998Y-121179499D01*
X102764997Y-121179499D01*
X102764795Y-121179519D01*
X102743900Y-121179519D01*
X102581886Y-121216498D01*
X102432154Y-121288605D01*
X102317327Y-121380175D01*
X102252640Y-121406583D01*
X102183945Y-121393826D01*
X102162704Y-121380175D01*
X102113355Y-121340821D01*
X102047856Y-121288588D01*
X102047853Y-121288586D01*
X102047851Y-121288585D01*
X101898125Y-121216481D01*
X101736096Y-121179498D01*
X101652999Y-121179498D01*
X101652998Y-121179499D01*
X101608829Y-121179499D01*
X101608826Y-121179499D01*
X101598829Y-121179500D01*
X101598828Y-121179499D01*
X101598827Y-121179500D01*
X98894935Y-121179500D01*
X98894753Y-121179518D01*
X98873900Y-121179518D01*
X98711885Y-121216497D01*
X98562154Y-121288604D01*
X98562152Y-121288605D01*
X98455828Y-121373397D01*
X98391141Y-121399805D01*
X98322446Y-121387050D01*
X98301202Y-121373397D01*
X98194858Y-121288589D01*
X98194853Y-121288586D01*
X98045121Y-121216480D01*
X98045123Y-121216480D01*
X97883101Y-121179500D01*
X97883096Y-121179500D01*
X97802862Y-121179500D01*
X97797127Y-121179367D01*
X97413094Y-121161586D01*
X97401674Y-121160527D01*
X97023744Y-121107733D01*
X97012470Y-121105622D01*
X96641056Y-121018138D01*
X96630025Y-121014995D01*
X96268273Y-120893564D01*
X96257580Y-120889415D01*
X95908601Y-120735080D01*
X95898337Y-120729961D01*
X95565103Y-120544037D01*
X95555356Y-120537991D01*
X95392526Y-120426246D01*
X95240734Y-120322076D01*
X95231588Y-120315156D01*
X94938265Y-120071098D01*
X94929796Y-120063362D01*
X94660271Y-119793237D01*
X94652554Y-119784752D01*
X94409130Y-119490866D01*
X94402246Y-119481725D01*
X94245723Y-119252555D01*
X94187028Y-119166618D01*
X94181004Y-119156858D01*
X94058669Y-118936446D01*
X93995816Y-118823203D01*
X93990730Y-118812948D01*
X93837161Y-118463606D01*
X93833039Y-118452909D01*
X93712415Y-118090894D01*
X93709298Y-118079863D01*
X93622631Y-117708220D01*
X93620552Y-117696975D01*
X93568598Y-117318930D01*
X93567564Y-117307514D01*
X93566505Y-117283497D01*
X93550634Y-116923385D01*
X93550558Y-116921185D01*
X93550512Y-116919433D01*
X93550608Y-116876387D01*
X93549300Y-116872769D01*
X93548945Y-116859102D01*
X93549122Y-116858434D01*
X93548903Y-116855906D01*
X93542291Y-72071153D01*
X94199500Y-72071153D01*
X94199500Y-72228846D01*
X94230261Y-72383489D01*
X94230263Y-72383497D01*
X94240061Y-72407151D01*
X94249500Y-72454604D01*
X94249500Y-94376082D01*
X94249500Y-115923918D01*
X94249500Y-115923920D01*
X94249499Y-115923920D01*
X94278340Y-116068907D01*
X94278343Y-116068917D01*
X94334914Y-116205492D01*
X94364318Y-116249498D01*
X94364319Y-116249501D01*
X94417046Y-116328414D01*
X94417052Y-116328421D01*
X95453927Y-117365295D01*
X95480806Y-117405521D01*
X95490606Y-117429179D01*
X95490607Y-117429181D01*
X95578207Y-117560284D01*
X95578213Y-117560292D01*
X95689707Y-117671786D01*
X95689711Y-117671789D01*
X95820814Y-117759390D01*
X95820827Y-117759397D01*
X95966498Y-117819735D01*
X95966503Y-117819737D01*
X96121153Y-117850499D01*
X96121156Y-117850500D01*
X96121158Y-117850500D01*
X96278844Y-117850500D01*
X96278845Y-117850499D01*
X96433497Y-117819737D01*
X96579179Y-117759394D01*
X96710289Y-117671789D01*
X96821789Y-117560289D01*
X96909394Y-117429179D01*
X96969737Y-117283497D01*
X97000500Y-117128842D01*
X97000500Y-116971158D01*
X97000500Y-116971155D01*
X97000499Y-116971153D01*
X96992900Y-116932951D01*
X96969737Y-116816503D01*
X96918262Y-116692230D01*
X96909397Y-116670827D01*
X96909390Y-116670814D01*
X96821789Y-116539711D01*
X96821786Y-116539707D01*
X96710292Y-116428213D01*
X96710284Y-116428207D01*
X96579181Y-116340607D01*
X96579179Y-116340606D01*
X96555521Y-116330806D01*
X96515295Y-116303927D01*
X95786819Y-115575451D01*
X95753334Y-115514128D01*
X95750500Y-115487770D01*
X95750500Y-110613703D01*
X95770185Y-110546664D01*
X95822989Y-110500909D01*
X95892147Y-110490965D01*
X95930790Y-110503217D01*
X95988439Y-110532591D01*
X96130181Y-110578645D01*
X96176236Y-110593610D01*
X96371264Y-110624500D01*
X96371269Y-110624500D01*
X96568736Y-110624500D01*
X96763763Y-110593610D01*
X96951561Y-110532591D01*
X97127501Y-110442944D01*
X97194183Y-110394497D01*
X97252615Y-110352045D01*
X97318422Y-110328565D01*
X97386475Y-110344391D01*
X97435170Y-110394497D01*
X97449500Y-110452363D01*
X97449500Y-113376082D01*
X97449500Y-114123918D01*
X97449500Y-114123920D01*
X97449499Y-114123920D01*
X97478340Y-114268907D01*
X97478343Y-114268917D01*
X97534914Y-114405492D01*
X97534915Y-114405494D01*
X97534916Y-114405495D01*
X97566108Y-114452178D01*
X97567812Y-114454727D01*
X97567813Y-114454730D01*
X97617046Y-114528414D01*
X97617052Y-114528421D01*
X100021580Y-116932948D01*
X100021584Y-116932951D01*
X100144498Y-117015080D01*
X100144511Y-117015087D01*
X100281082Y-117071656D01*
X100281087Y-117071658D01*
X100281091Y-117071658D01*
X100281092Y-117071659D01*
X100426079Y-117100500D01*
X100426082Y-117100500D01*
X100573917Y-117100500D01*
X105637770Y-117100500D01*
X105704809Y-117120185D01*
X105725451Y-117136819D01*
X106112707Y-117524074D01*
X106112728Y-117524097D01*
X106730275Y-118141642D01*
X106763760Y-118202965D01*
X106758776Y-118272656D01*
X106730276Y-118317004D01*
X106606120Y-118441160D01*
X106485575Y-118607077D01*
X106440203Y-118696124D01*
X106392229Y-118746919D01*
X106324407Y-118763714D01*
X106258273Y-118741176D01*
X106219234Y-118696122D01*
X106174001Y-118607347D01*
X106141264Y-118562287D01*
X105571539Y-119132012D01*
X105558540Y-119083498D01*
X105488106Y-118961503D01*
X105388497Y-118861894D01*
X105266502Y-118791460D01*
X105217985Y-118778459D01*
X105787711Y-118208734D01*
X105787711Y-118208733D01*
X105742661Y-118176003D01*
X105559991Y-118082927D01*
X105364997Y-118019570D01*
X105162513Y-117987500D01*
X104957487Y-117987500D01*
X104755002Y-118019570D01*
X104560008Y-118082927D01*
X104377338Y-118176003D01*
X104332287Y-118208733D01*
X104332287Y-118208734D01*
X104902013Y-118778460D01*
X104853498Y-118791460D01*
X104731503Y-118861894D01*
X104631894Y-118961503D01*
X104561460Y-119083498D01*
X104548460Y-119132013D01*
X103978734Y-118562287D01*
X103978733Y-118562287D01*
X103946003Y-118607338D01*
X103852927Y-118790008D01*
X103789570Y-118985002D01*
X103757500Y-119187486D01*
X103757500Y-119392513D01*
X103789570Y-119594997D01*
X103852927Y-119789991D01*
X103946003Y-119972661D01*
X103978733Y-120017711D01*
X103978734Y-120017711D01*
X104548459Y-119447985D01*
X104561460Y-119496502D01*
X104631894Y-119618497D01*
X104731503Y-119718106D01*
X104853498Y-119788540D01*
X104902012Y-119801539D01*
X104332287Y-120371264D01*
X104377344Y-120403999D01*
X104560008Y-120497072D01*
X104755002Y-120560429D01*
X104957487Y-120592500D01*
X105162513Y-120592500D01*
X105364997Y-120560429D01*
X105559991Y-120497072D01*
X105742659Y-120403997D01*
X105787711Y-120371264D01*
X105787712Y-120371264D01*
X105217987Y-119801539D01*
X105266502Y-119788540D01*
X105388497Y-119718106D01*
X105488106Y-119618497D01*
X105558540Y-119496502D01*
X105571539Y-119447987D01*
X106141264Y-120017712D01*
X106141264Y-120017711D01*
X106173999Y-119972657D01*
X106219234Y-119883877D01*
X106267208Y-119833081D01*
X106335028Y-119816285D01*
X106401164Y-119838822D01*
X106440204Y-119883876D01*
X106485440Y-119972657D01*
X106485577Y-119972924D01*
X106606121Y-120138840D01*
X106606125Y-120138845D01*
X106751154Y-120283874D01*
X106751159Y-120283878D01*
X106821296Y-120334835D01*
X106917079Y-120404425D01*
X107033522Y-120463755D01*
X107099817Y-120497535D01*
X107099819Y-120497535D01*
X107099822Y-120497537D01*
X107294880Y-120560916D01*
X107396166Y-120576958D01*
X107497447Y-120593000D01*
X107497452Y-120593000D01*
X107702553Y-120593000D01*
X107794626Y-120578416D01*
X107905120Y-120560916D01*
X108100178Y-120497537D01*
X108282921Y-120404425D01*
X108448847Y-120283873D01*
X108593873Y-120138847D01*
X108714425Y-119972921D01*
X108759795Y-119883876D01*
X108807768Y-119833082D01*
X108875588Y-119816286D01*
X108941724Y-119838823D01*
X108980763Y-119883876D01*
X109026000Y-119972658D01*
X109058732Y-120017711D01*
X109058733Y-120017711D01*
X109628458Y-119447985D01*
X109641459Y-119496502D01*
X109711893Y-119618497D01*
X109811502Y-119718106D01*
X109933497Y-119788540D01*
X109982011Y-119801539D01*
X109412286Y-120371264D01*
X109457343Y-120403999D01*
X109640007Y-120497072D01*
X109835001Y-120560429D01*
X110037486Y-120592500D01*
X110242512Y-120592500D01*
X110444996Y-120560429D01*
X110639990Y-120497072D01*
X110822658Y-120403997D01*
X110867710Y-120371264D01*
X110867711Y-120371264D01*
X110297986Y-119801539D01*
X110346501Y-119788540D01*
X110468496Y-119718106D01*
X110568105Y-119618497D01*
X110638539Y-119496502D01*
X110651538Y-119447987D01*
X111221263Y-120017712D01*
X111221263Y-120017711D01*
X111253998Y-119972657D01*
X111299234Y-119883875D01*
X111347208Y-119833079D01*
X111415028Y-119816283D01*
X111481164Y-119838820D01*
X111520204Y-119883874D01*
X111565441Y-119972657D01*
X111565578Y-119972924D01*
X111686122Y-120138840D01*
X111686126Y-120138845D01*
X111831155Y-120283874D01*
X111831160Y-120283878D01*
X111901297Y-120334835D01*
X111997080Y-120404425D01*
X112113523Y-120463755D01*
X112179818Y-120497535D01*
X112179820Y-120497535D01*
X112179823Y-120497537D01*
X112374881Y-120560916D01*
X112476167Y-120576958D01*
X112577448Y-120593000D01*
X112577453Y-120593000D01*
X112782554Y-120593000D01*
X112874627Y-120578416D01*
X112985121Y-120560916D01*
X113180179Y-120497537D01*
X113362922Y-120404425D01*
X113528848Y-120283873D01*
X113673874Y-120138847D01*
X113794426Y-119972921D01*
X113839796Y-119883876D01*
X113887769Y-119833082D01*
X113955589Y-119816286D01*
X114021725Y-119838823D01*
X114060764Y-119883876D01*
X114106001Y-119972658D01*
X114138733Y-120017711D01*
X114138734Y-120017711D01*
X114708459Y-119447985D01*
X114721460Y-119496502D01*
X114791894Y-119618497D01*
X114891503Y-119718106D01*
X115013498Y-119788540D01*
X115062012Y-119801539D01*
X114492287Y-120371264D01*
X114537344Y-120403999D01*
X114720008Y-120497072D01*
X114915002Y-120560429D01*
X115117487Y-120592500D01*
X115322513Y-120592500D01*
X115524997Y-120560429D01*
X115719991Y-120497072D01*
X115902659Y-120403997D01*
X115947711Y-120371264D01*
X115947712Y-120371264D01*
X115377987Y-119801539D01*
X115426502Y-119788540D01*
X115548497Y-119718106D01*
X115648106Y-119618497D01*
X115718540Y-119496502D01*
X115731539Y-119447987D01*
X116301263Y-120017711D01*
X116323271Y-120015980D01*
X116391648Y-120030344D01*
X116441405Y-120079396D01*
X116456357Y-120137088D01*
X116456599Y-120137076D01*
X116456646Y-120137071D01*
X116456646Y-120137073D01*
X116456824Y-120137064D01*
X116456947Y-120139364D01*
X116457000Y-120139568D01*
X116457000Y-120140355D01*
X116457001Y-120140376D01*
X116463408Y-120199983D01*
X116513702Y-120334828D01*
X116513706Y-120334835D01*
X116599952Y-120450044D01*
X116599955Y-120450047D01*
X116715164Y-120536293D01*
X116715171Y-120536297D01*
X116850017Y-120586591D01*
X116850016Y-120586591D01*
X116856944Y-120587335D01*
X116909627Y-120593000D01*
X118610372Y-120592999D01*
X118669983Y-120586591D01*
X118804831Y-120536296D01*
X118920046Y-120450046D01*
X119006296Y-120334831D01*
X119056591Y-120199983D01*
X119063000Y-120140373D01*
X119062999Y-118439628D01*
X119056591Y-118380017D01*
X119049074Y-118359864D01*
X119006297Y-118245171D01*
X119006293Y-118245164D01*
X118920047Y-118129955D01*
X118920044Y-118129952D01*
X118804835Y-118043706D01*
X118804828Y-118043702D01*
X118669983Y-117993408D01*
X118621243Y-117988168D01*
X118556692Y-117961429D01*
X118516845Y-117904036D01*
X118510500Y-117864879D01*
X118510500Y-100936079D01*
X118481659Y-100791092D01*
X118481658Y-100791091D01*
X118481658Y-100791087D01*
X118457578Y-100732952D01*
X118425087Y-100654511D01*
X118425080Y-100654498D01*
X118342952Y-100531585D01*
X118332463Y-100521096D01*
X118238416Y-100427049D01*
X113886819Y-96075451D01*
X113853334Y-96014128D01*
X113850500Y-95987770D01*
X113850500Y-91871153D01*
X114299500Y-91871153D01*
X114299500Y-92028846D01*
X114330261Y-92183489D01*
X114330263Y-92183497D01*
X114340061Y-92207151D01*
X114349500Y-92254604D01*
X114349500Y-94423918D01*
X114349500Y-94423920D01*
X114349499Y-94423920D01*
X114378340Y-94568907D01*
X114378343Y-94568917D01*
X114434913Y-94705490D01*
X114434916Y-94705495D01*
X114447588Y-94724459D01*
X114447589Y-94724464D01*
X114447591Y-94724464D01*
X114517051Y-94828420D01*
X114517052Y-94828421D01*
X116021584Y-96332952D01*
X116021586Y-96332954D01*
X116051058Y-96352645D01*
X116095270Y-96382186D01*
X116144505Y-96415084D01*
X116144506Y-96415084D01*
X116144507Y-96415085D01*
X116144509Y-96415086D01*
X116271087Y-96467516D01*
X116281087Y-96471658D01*
X116281091Y-96471658D01*
X116281092Y-96471659D01*
X116426079Y-96500500D01*
X116426082Y-96500500D01*
X123373920Y-96500500D01*
X123471462Y-96481096D01*
X123518913Y-96471658D01*
X123655495Y-96415084D01*
X123704729Y-96382186D01*
X123704734Y-96382183D01*
X123729071Y-96365921D01*
X123778416Y-96332952D01*
X124980235Y-95131132D01*
X125041556Y-95097649D01*
X125049573Y-95096469D01*
X125049541Y-95096262D01*
X125054352Y-95095500D01*
X125054353Y-95095500D01*
X125280244Y-95059722D01*
X125280247Y-95059721D01*
X125280248Y-95059721D01*
X125497754Y-94989049D01*
X125497754Y-94989048D01*
X125497757Y-94989048D01*
X125701537Y-94885217D01*
X125886565Y-94750786D01*
X126048285Y-94589066D01*
X126125182Y-94483225D01*
X126180512Y-94440561D01*
X126250126Y-94434582D01*
X126311920Y-94467188D01*
X126346278Y-94528027D01*
X126349500Y-94556112D01*
X126349500Y-94587769D01*
X126329815Y-94654808D01*
X126313181Y-94675450D01*
X122717050Y-98271580D01*
X122717044Y-98271588D01*
X122667812Y-98345268D01*
X122667813Y-98345269D01*
X122634921Y-98394496D01*
X122634914Y-98394508D01*
X122578342Y-98531086D01*
X122578340Y-98531092D01*
X122549500Y-98676079D01*
X122549500Y-98676082D01*
X122549500Y-112073918D01*
X122549500Y-112073920D01*
X122549499Y-112073920D01*
X122578340Y-112218907D01*
X122578343Y-112218917D01*
X122634914Y-112355492D01*
X122667812Y-112404727D01*
X122667813Y-112404730D01*
X122717046Y-112478414D01*
X122717052Y-112478421D01*
X124583731Y-114345099D01*
X124617216Y-114406422D01*
X124618523Y-114452178D01*
X124615500Y-114471264D01*
X124615500Y-114668736D01*
X124646389Y-114863763D01*
X124677753Y-114960289D01*
X124707409Y-115051561D01*
X124762355Y-115159397D01*
X124797058Y-115227504D01*
X124913115Y-115387246D01*
X125052753Y-115526884D01*
X125192398Y-115628340D01*
X125212499Y-115642944D01*
X125388439Y-115732591D01*
X125494500Y-115767052D01*
X125576236Y-115793610D01*
X125771264Y-115824500D01*
X125771269Y-115824500D01*
X125968736Y-115824500D01*
X126163763Y-115793610D01*
X126351561Y-115732591D01*
X126527501Y-115642944D01*
X126637286Y-115563181D01*
X126687246Y-115526884D01*
X126687248Y-115526881D01*
X126687252Y-115526879D01*
X126826879Y-115387252D01*
X126826881Y-115387248D01*
X126826884Y-115387246D01*
X126926234Y-115250500D01*
X126942944Y-115227501D01*
X127032591Y-115051561D01*
X127093610Y-114863763D01*
X127122161Y-114683501D01*
X127124500Y-114668736D01*
X127124500Y-114471263D01*
X127093610Y-114276236D01*
X127072068Y-114209938D01*
X127032591Y-114088439D01*
X126942944Y-113912499D01*
X126935486Y-113902234D01*
X126826884Y-113752753D01*
X126687246Y-113613115D01*
X126527504Y-113497058D01*
X126527503Y-113497057D01*
X126527501Y-113497056D01*
X126351561Y-113407409D01*
X126351558Y-113407408D01*
X126163763Y-113346389D01*
X125968736Y-113315500D01*
X125968731Y-113315500D01*
X125771269Y-113315500D01*
X125771265Y-113315500D01*
X125752178Y-113318523D01*
X125682884Y-113309568D01*
X125645099Y-113283731D01*
X124086819Y-111725451D01*
X124053334Y-111664128D01*
X124050500Y-111637770D01*
X124050500Y-99112229D01*
X124070185Y-99045190D01*
X124086819Y-99024548D01*
X124276050Y-98835317D01*
X124479893Y-98631473D01*
X124541214Y-98597990D01*
X124610905Y-98602974D01*
X124666839Y-98644845D01*
X124691256Y-98710310D01*
X124685503Y-98757474D01*
X124646877Y-98876349D01*
X124646877Y-98876352D01*
X124616000Y-99071302D01*
X124616000Y-99268697D01*
X124646876Y-99463646D01*
X124707873Y-99651373D01*
X124797483Y-99827239D01*
X124823457Y-99862988D01*
X124823457Y-99862989D01*
X125387037Y-99299408D01*
X125404075Y-99362993D01*
X125469901Y-99477007D01*
X125562993Y-99570099D01*
X125677007Y-99635925D01*
X125740590Y-99652962D01*
X125177009Y-100216541D01*
X125177010Y-100216542D01*
X125214713Y-100243935D01*
X125257379Y-100299265D01*
X125263358Y-100368878D01*
X125230752Y-100430673D01*
X125210719Y-100447355D01*
X125089711Y-100528210D01*
X125089707Y-100528213D01*
X124978213Y-100639707D01*
X124978210Y-100639711D01*
X124890609Y-100770814D01*
X124890602Y-100770827D01*
X124830264Y-100916498D01*
X124830261Y-100916510D01*
X124799500Y-101071153D01*
X124799500Y-101228846D01*
X124830261Y-101383489D01*
X124830264Y-101383501D01*
X124890602Y-101529172D01*
X124890609Y-101529185D01*
X124978210Y-101660288D01*
X124978213Y-101660292D01*
X125089707Y-101771786D01*
X125089711Y-101771789D01*
X125220814Y-101859390D01*
X125220827Y-101859397D01*
X125366498Y-101919735D01*
X125366503Y-101919737D01*
X125521153Y-101950499D01*
X125521156Y-101950500D01*
X125521158Y-101950500D01*
X125678844Y-101950500D01*
X125678845Y-101950499D01*
X125833497Y-101919737D01*
X125979179Y-101859394D01*
X126110289Y-101771789D01*
X126221789Y-101660289D01*
X126309394Y-101529179D01*
X126369737Y-101383497D01*
X126400500Y-101228842D01*
X126400500Y-101071158D01*
X126400500Y-101071155D01*
X126400499Y-101071153D01*
X126380973Y-100972989D01*
X126369737Y-100916503D01*
X126369735Y-100916498D01*
X126309397Y-100770827D01*
X126309390Y-100770814D01*
X126221789Y-100639711D01*
X126221786Y-100639707D01*
X126164498Y-100582419D01*
X126131013Y-100521096D01*
X126135997Y-100451404D01*
X126177869Y-100395471D01*
X126213861Y-100376807D01*
X126351371Y-100332126D01*
X126527241Y-100242516D01*
X126562988Y-100216543D01*
X126562988Y-100216541D01*
X125999410Y-99652962D01*
X126062993Y-99635925D01*
X126177007Y-99570099D01*
X126270099Y-99477007D01*
X126335925Y-99362993D01*
X126352962Y-99299409D01*
X126916541Y-99862988D01*
X126916543Y-99862988D01*
X126942516Y-99827241D01*
X127032126Y-99651373D01*
X127093123Y-99463646D01*
X127124000Y-99268697D01*
X127124000Y-99071302D01*
X127093123Y-98876353D01*
X127032126Y-98688626D01*
X126942520Y-98512768D01*
X126942512Y-98512755D01*
X126916542Y-98477010D01*
X126916541Y-98477009D01*
X126352962Y-99040589D01*
X126335925Y-98977007D01*
X126270099Y-98862993D01*
X126177007Y-98769901D01*
X126062993Y-98704075D01*
X125999408Y-98687037D01*
X126562989Y-98123457D01*
X126527239Y-98097483D01*
X126351373Y-98007873D01*
X126163646Y-97946876D01*
X125968697Y-97916000D01*
X125771303Y-97916000D01*
X125576353Y-97946877D01*
X125457476Y-97985503D01*
X125387634Y-97987498D01*
X125327801Y-97951418D01*
X125296973Y-97888717D01*
X125304937Y-97819303D01*
X125331476Y-97779891D01*
X127682950Y-95428417D01*
X127682952Y-95428415D01*
X127751717Y-95325500D01*
X127765084Y-95305495D01*
X127796264Y-95230220D01*
X127821659Y-95168912D01*
X127844763Y-95052759D01*
X127850500Y-95023918D01*
X127850500Y-71576082D01*
X127850500Y-71576079D01*
X127821659Y-71431092D01*
X127821658Y-71431091D01*
X127821658Y-71431087D01*
X127765084Y-71294505D01*
X127721396Y-71229121D01*
X127700520Y-71162444D01*
X127700500Y-71160232D01*
X127700500Y-71151457D01*
X127700499Y-71151455D01*
X127664244Y-70969190D01*
X127662051Y-70958164D01*
X127586631Y-70776086D01*
X127586630Y-70776084D01*
X127586630Y-70776083D01*
X127486848Y-70626748D01*
X127465970Y-70560071D01*
X127484455Y-70492691D01*
X127536434Y-70446001D01*
X127570547Y-70435386D01*
X127595636Y-70431413D01*
X127784632Y-70370005D01*
X127961694Y-70279787D01*
X128122464Y-70162981D01*
X128262981Y-70022464D01*
X128379787Y-69861694D01*
X128470005Y-69684632D01*
X128531413Y-69495636D01*
X128562500Y-69299361D01*
X128562500Y-69100639D01*
X128531413Y-68904364D01*
X128470005Y-68715368D01*
X128470005Y-68715367D01*
X128380960Y-68540609D01*
X128379787Y-68538306D01*
X128262981Y-68377536D01*
X128122464Y-68237019D01*
X127961694Y-68120213D01*
X127805218Y-68040484D01*
X127754423Y-67992510D01*
X127737628Y-67924689D01*
X127760165Y-67858554D01*
X127805218Y-67819515D01*
X127961694Y-67739787D01*
X128122464Y-67622981D01*
X128262981Y-67482464D01*
X128379787Y-67321694D01*
X128470005Y-67144632D01*
X128531413Y-66955636D01*
X128562500Y-66759361D01*
X128562500Y-66560639D01*
X128531413Y-66364364D01*
X128470005Y-66175368D01*
X128470005Y-66175367D01*
X128424035Y-66085149D01*
X128379787Y-65998306D01*
X128262981Y-65837536D01*
X128122464Y-65697019D01*
X127961694Y-65580213D01*
X127961690Y-65580211D01*
X127804669Y-65500204D01*
X127753873Y-65452229D01*
X127737078Y-65384408D01*
X127759616Y-65318273D01*
X127804670Y-65279234D01*
X127961422Y-65199365D01*
X127998716Y-65172269D01*
X127435942Y-64609495D01*
X127496081Y-64593382D01*
X127611920Y-64526503D01*
X127706502Y-64431921D01*
X127773381Y-64316082D01*
X127789495Y-64255943D01*
X128352268Y-64818716D01*
X128379362Y-64781426D01*
X128469542Y-64604438D01*
X128530924Y-64415524D01*
X128530924Y-64415521D01*
X128562000Y-64219322D01*
X128562000Y-64020679D01*
X128530924Y-63824480D01*
X128530924Y-63824477D01*
X128469542Y-63635563D01*
X128379358Y-63458568D01*
X128352268Y-63421284D01*
X127789494Y-63984058D01*
X127773381Y-63923920D01*
X127706502Y-63808081D01*
X127611920Y-63713499D01*
X127496081Y-63646620D01*
X127435942Y-63630505D01*
X127998716Y-63067732D01*
X127998715Y-63067731D01*
X127961432Y-63040642D01*
X127784437Y-62950458D01*
X127595522Y-62889076D01*
X127399321Y-62858001D01*
X127200679Y-62858001D01*
X127004479Y-62889076D01*
X127004476Y-62889076D01*
X126815562Y-62950458D01*
X126638564Y-63040644D01*
X126601283Y-63067730D01*
X126601282Y-63067731D01*
X127164058Y-63630505D01*
X127103919Y-63646620D01*
X126988080Y-63713499D01*
X126893498Y-63808081D01*
X126826619Y-63923920D01*
X126810504Y-63984058D01*
X126247730Y-63421283D01*
X126247729Y-63421284D01*
X126220643Y-63458565D01*
X126130457Y-63635563D01*
X126069075Y-63824477D01*
X126069075Y-63824480D01*
X126038000Y-64020679D01*
X126038000Y-64219322D01*
X126069075Y-64415521D01*
X126069075Y-64415524D01*
X126130457Y-64604438D01*
X126220641Y-64781433D01*
X126247730Y-64818716D01*
X126247731Y-64818717D01*
X126810504Y-64255943D01*
X126826619Y-64316082D01*
X126893498Y-64431921D01*
X126988080Y-64526503D01*
X127103919Y-64593382D01*
X127164057Y-64609495D01*
X126601283Y-65172269D01*
X126601283Y-65172270D01*
X126638567Y-65199359D01*
X126795330Y-65279234D01*
X126846126Y-65327209D01*
X126862921Y-65395029D01*
X126840384Y-65461164D01*
X126795331Y-65500203D01*
X126638307Y-65580211D01*
X126477533Y-65697021D01*
X126337021Y-65837533D01*
X126220213Y-65998305D01*
X126129994Y-66175367D01*
X126129993Y-66175370D01*
X126068587Y-66364362D01*
X126053787Y-66457800D01*
X126023857Y-66520935D01*
X126018995Y-66526082D01*
X125147267Y-67397812D01*
X124862220Y-67682859D01*
X124862218Y-67682861D01*
X124816237Y-67728842D01*
X124722859Y-67822219D01*
X124613371Y-67986080D01*
X124613364Y-67986093D01*
X124576091Y-68076082D01*
X124543288Y-68155276D01*
X124541210Y-68160292D01*
X124537949Y-68168164D01*
X124537947Y-68168170D01*
X124501840Y-68349692D01*
X124469455Y-68411603D01*
X124408739Y-68446177D01*
X124380223Y-68449500D01*
X124221155Y-68449500D01*
X124066510Y-68480261D01*
X124066498Y-68480264D01*
X123920827Y-68540602D01*
X123920814Y-68540609D01*
X123789711Y-68628210D01*
X123789707Y-68628213D01*
X123678213Y-68739707D01*
X123678210Y-68739711D01*
X123590609Y-68870814D01*
X123590602Y-68870827D01*
X123530264Y-69016498D01*
X123530261Y-69016510D01*
X123499500Y-69171153D01*
X123499500Y-69328846D01*
X123530261Y-69483489D01*
X123530264Y-69483501D01*
X123590602Y-69629172D01*
X123590609Y-69629185D01*
X123678210Y-69760288D01*
X123678213Y-69760292D01*
X123789707Y-69871786D01*
X123789711Y-69871789D01*
X123920814Y-69959390D01*
X123920827Y-69959397D01*
X124058683Y-70016498D01*
X124066503Y-70019737D01*
X124221153Y-70050499D01*
X124221156Y-70050500D01*
X124378234Y-70050500D01*
X124408689Y-70059442D01*
X124439593Y-70066745D01*
X124441979Y-70069217D01*
X124445273Y-70070185D01*
X124466054Y-70094167D01*
X124488109Y-70117024D01*
X124489653Y-70121403D01*
X124491028Y-70122989D01*
X124499851Y-70150308D01*
X124509835Y-70200499D01*
X124509835Y-70200500D01*
X124535363Y-70328838D01*
X124537949Y-70341835D01*
X124537950Y-70341840D01*
X124613364Y-70523907D01*
X124613371Y-70523920D01*
X124722859Y-70687780D01*
X124722860Y-70687781D01*
X124722861Y-70687782D01*
X124862218Y-70827139D01*
X124862219Y-70827139D01*
X124869286Y-70834206D01*
X124869285Y-70834206D01*
X124869289Y-70834209D01*
X126062212Y-72027134D01*
X126062219Y-72027140D01*
X126226084Y-72136630D01*
X126226087Y-72136632D01*
X126272952Y-72156044D01*
X126327356Y-72199885D01*
X126349421Y-72266179D01*
X126349500Y-72270605D01*
X126349500Y-79419024D01*
X126329815Y-79486063D01*
X126277011Y-79531818D01*
X126207853Y-79541762D01*
X126144297Y-79512737D01*
X126137819Y-79506705D01*
X125890341Y-79259227D01*
X125564868Y-78986121D01*
X125216826Y-78742419D01*
X125216823Y-78742417D01*
X125216820Y-78742415D01*
X125014416Y-78625557D01*
X124848869Y-78529978D01*
X124848845Y-78529965D01*
X124463803Y-78350418D01*
X124463792Y-78350414D01*
X124463790Y-78350413D01*
X124064533Y-78205095D01*
X124064532Y-78205094D01*
X124064522Y-78205091D01*
X123654137Y-78095130D01*
X123654140Y-78095130D01*
X123654130Y-78095128D01*
X123595058Y-78084712D01*
X123235706Y-78021348D01*
X122812443Y-77984317D01*
X122812440Y-77984317D01*
X122387560Y-77984317D01*
X122387556Y-77984317D01*
X121964293Y-78021348D01*
X121545875Y-78095127D01*
X121545872Y-78095127D01*
X121545870Y-78095128D01*
X121545865Y-78095129D01*
X121545862Y-78095130D01*
X121135477Y-78205091D01*
X120736196Y-78350418D01*
X120351154Y-78529965D01*
X120351130Y-78529978D01*
X119983188Y-78742410D01*
X119983173Y-78742419D01*
X119635131Y-78986121D01*
X119309658Y-79259227D01*
X119009227Y-79559658D01*
X118736121Y-79885131D01*
X118492419Y-80233173D01*
X118492410Y-80233188D01*
X118279978Y-80601130D01*
X118279965Y-80601154D01*
X118100418Y-80986196D01*
X117955091Y-81385477D01*
X117845130Y-81795862D01*
X117845127Y-81795875D01*
X117771348Y-82214293D01*
X117734317Y-82637556D01*
X117734317Y-83062443D01*
X117771348Y-83485706D01*
X117845127Y-83904124D01*
X117845130Y-83904137D01*
X117955091Y-84314522D01*
X118100418Y-84713803D01*
X118279965Y-85098845D01*
X118279978Y-85098869D01*
X118355647Y-85229931D01*
X118470242Y-85428416D01*
X118492410Y-85466811D01*
X118492419Y-85466826D01*
X118736121Y-85814868D01*
X118944434Y-86063124D01*
X119009225Y-86140339D01*
X119309661Y-86440775D01*
X119425482Y-86537961D01*
X119635131Y-86713878D01*
X119635137Y-86713882D01*
X119635138Y-86713883D01*
X119983180Y-86957585D01*
X120271276Y-87123917D01*
X120351130Y-87170021D01*
X120351154Y-87170034D01*
X120736196Y-87349581D01*
X120736201Y-87349582D01*
X120736210Y-87349587D01*
X121135467Y-87494905D01*
X121135473Y-87494906D01*
X121135477Y-87494908D01*
X121247237Y-87524853D01*
X121545870Y-87604872D01*
X121964296Y-87678652D01*
X122387558Y-87715682D01*
X122387559Y-87715683D01*
X122387560Y-87715683D01*
X122812441Y-87715683D01*
X122812441Y-87715682D01*
X123235704Y-87678652D01*
X123654130Y-87604872D01*
X124064533Y-87494905D01*
X124463790Y-87349587D01*
X124463803Y-87349581D01*
X124848845Y-87170034D01*
X124848853Y-87170029D01*
X124848863Y-87170025D01*
X125216820Y-86957585D01*
X125564862Y-86713883D01*
X125890339Y-86440775D01*
X126137819Y-86193295D01*
X126199142Y-86159810D01*
X126268834Y-86164794D01*
X126324767Y-86206666D01*
X126349184Y-86272130D01*
X126349500Y-86280976D01*
X126349500Y-92633887D01*
X126329815Y-92700926D01*
X126277011Y-92746681D01*
X126207853Y-92756625D01*
X126144297Y-92727600D01*
X126125182Y-92706773D01*
X126097942Y-92669281D01*
X126048285Y-92600934D01*
X125886565Y-92439214D01*
X125701537Y-92304783D01*
X125497754Y-92200950D01*
X125280247Y-92130278D01*
X125094811Y-92100908D01*
X125054353Y-92094500D01*
X124825645Y-92094500D01*
X124785187Y-92100908D01*
X124599752Y-92130278D01*
X124599749Y-92130278D01*
X124382243Y-92200950D01*
X124178460Y-92304783D01*
X124112549Y-92352671D01*
X123993433Y-92439214D01*
X123993431Y-92439216D01*
X123993430Y-92439216D01*
X123831714Y-92600932D01*
X123770317Y-92685438D01*
X123714986Y-92728103D01*
X123645373Y-92734082D01*
X123583578Y-92701476D01*
X123569681Y-92685437D01*
X123568314Y-92683555D01*
X123508286Y-92600934D01*
X123346566Y-92439214D01*
X123161538Y-92304783D01*
X122957755Y-92200950D01*
X122740248Y-92130278D01*
X122554812Y-92100908D01*
X122514354Y-92094500D01*
X122285646Y-92094500D01*
X122245188Y-92100908D01*
X122059753Y-92130278D01*
X122059750Y-92130278D01*
X121842244Y-92200950D01*
X121638461Y-92304783D01*
X121455759Y-92437525D01*
X121389952Y-92461005D01*
X121321898Y-92445180D01*
X121273203Y-92395074D01*
X121266690Y-92380538D01*
X121262354Y-92368913D01*
X121256296Y-92352669D01*
X121256293Y-92352664D01*
X121170047Y-92237455D01*
X121170044Y-92237452D01*
X121054835Y-92151206D01*
X121054828Y-92151202D01*
X120919982Y-92100908D01*
X120919983Y-92100908D01*
X120860383Y-92094501D01*
X120860381Y-92094500D01*
X120860373Y-92094500D01*
X120860364Y-92094500D01*
X118859629Y-92094500D01*
X118859623Y-92094501D01*
X118800016Y-92100908D01*
X118665171Y-92151202D01*
X118665164Y-92151206D01*
X118549955Y-92237452D01*
X118549952Y-92237455D01*
X118463706Y-92352664D01*
X118463702Y-92352671D01*
X118413408Y-92487517D01*
X118407001Y-92547116D01*
X118407000Y-92547135D01*
X118407000Y-94642870D01*
X118407001Y-94642876D01*
X118413408Y-94702483D01*
X118461778Y-94832167D01*
X118466762Y-94901858D01*
X118433277Y-94963181D01*
X118371954Y-94996666D01*
X118345596Y-94999500D01*
X116862230Y-94999500D01*
X116795191Y-94979815D01*
X116774549Y-94963181D01*
X115886819Y-94075451D01*
X115853334Y-94014128D01*
X115850500Y-93987770D01*
X115850500Y-92254604D01*
X115859939Y-92207151D01*
X115869737Y-92183497D01*
X115900500Y-92028842D01*
X115900500Y-91871158D01*
X115900500Y-91871155D01*
X115900499Y-91871153D01*
X115892060Y-91828726D01*
X115869737Y-91716503D01*
X115839969Y-91644636D01*
X115809397Y-91570827D01*
X115809390Y-91570814D01*
X115721789Y-91439711D01*
X115721786Y-91439707D01*
X115610292Y-91328213D01*
X115610288Y-91328210D01*
X115479185Y-91240609D01*
X115479172Y-91240602D01*
X115333501Y-91180264D01*
X115333489Y-91180261D01*
X115178845Y-91149500D01*
X115178842Y-91149500D01*
X115021158Y-91149500D01*
X115021155Y-91149500D01*
X114866510Y-91180261D01*
X114866498Y-91180264D01*
X114720827Y-91240602D01*
X114720814Y-91240609D01*
X114589711Y-91328210D01*
X114589707Y-91328213D01*
X114478213Y-91439707D01*
X114478210Y-91439711D01*
X114390609Y-91570814D01*
X114390602Y-91570827D01*
X114330264Y-91716498D01*
X114330261Y-91716510D01*
X114299500Y-91871153D01*
X113850500Y-91871153D01*
X113850500Y-90112229D01*
X113870185Y-90045190D01*
X113886819Y-90024548D01*
X114639784Y-89271583D01*
X116382952Y-87528415D01*
X116410205Y-87487627D01*
X116465084Y-87405495D01*
X116488518Y-87348920D01*
X116521659Y-87268912D01*
X116550500Y-87123917D01*
X116550500Y-86976082D01*
X116550500Y-68444836D01*
X116570185Y-68377797D01*
X116605609Y-68341734D01*
X116710289Y-68271789D01*
X116821786Y-68160292D01*
X116821789Y-68160289D01*
X116909394Y-68029179D01*
X116969737Y-67883497D01*
X117000500Y-67728842D01*
X117000500Y-67571158D01*
X117000500Y-67571155D01*
X117000499Y-67571153D01*
X116969739Y-67416511D01*
X116969738Y-67416508D01*
X116969737Y-67416503D01*
X116959937Y-67392844D01*
X116950500Y-67345396D01*
X116950500Y-66089778D01*
X117699500Y-66089778D01*
X117699500Y-66310221D01*
X117733985Y-66527952D01*
X117802103Y-66737603D01*
X117802104Y-66737606D01*
X117902187Y-66934025D01*
X118031752Y-67112358D01*
X118031756Y-67112363D01*
X118187636Y-67268243D01*
X118187641Y-67268247D01*
X118306785Y-67354809D01*
X118365978Y-67397815D01*
X118494375Y-67463237D01*
X118562393Y-67497895D01*
X118562396Y-67497896D01*
X118655695Y-67528210D01*
X118772049Y-67566015D01*
X118989778Y-67600500D01*
X118989779Y-67600500D01*
X119210221Y-67600500D01*
X119210222Y-67600500D01*
X119427951Y-67566015D01*
X119637606Y-67497895D01*
X119834022Y-67397815D01*
X120012365Y-67268242D01*
X120168242Y-67112365D01*
X120297815Y-66934022D01*
X120397895Y-66737606D01*
X120466015Y-66527951D01*
X120500500Y-66310222D01*
X120500500Y-66089778D01*
X120466015Y-65872049D01*
X120409145Y-65697019D01*
X120397896Y-65662396D01*
X120397895Y-65662393D01*
X120356020Y-65580211D01*
X120297815Y-65465978D01*
X120240994Y-65387770D01*
X120168247Y-65287641D01*
X120168243Y-65287636D01*
X120012363Y-65131756D01*
X120012358Y-65131752D01*
X119834025Y-65002187D01*
X119834024Y-65002186D01*
X119834022Y-65002185D01*
X119771096Y-64970122D01*
X119637606Y-64902104D01*
X119637603Y-64902103D01*
X119427952Y-64833985D01*
X119319086Y-64816742D01*
X119210222Y-64799500D01*
X118989778Y-64799500D01*
X118917201Y-64810995D01*
X118772047Y-64833985D01*
X118562396Y-64902103D01*
X118562393Y-64902104D01*
X118365974Y-65002187D01*
X118187641Y-65131752D01*
X118187636Y-65131756D01*
X118031756Y-65287636D01*
X118031752Y-65287641D01*
X117902187Y-65465974D01*
X117802104Y-65662393D01*
X117802103Y-65662396D01*
X117733985Y-65872047D01*
X117699500Y-66089778D01*
X116950500Y-66089778D01*
X116950500Y-64612230D01*
X116959144Y-64582790D01*
X116965667Y-64552805D01*
X116969422Y-64547787D01*
X116970185Y-64545191D01*
X116986814Y-64524552D01*
X117015297Y-64496069D01*
X117055528Y-64469189D01*
X117079179Y-64459394D01*
X117210289Y-64371789D01*
X117321789Y-64260289D01*
X117409394Y-64129179D01*
X117409723Y-64128386D01*
X117440898Y-64053121D01*
X117469737Y-63983497D01*
X117500500Y-63828842D01*
X117500500Y-63671158D01*
X117500500Y-63671155D01*
X117500499Y-63671153D01*
X117480708Y-63571658D01*
X117469737Y-63516503D01*
X117445740Y-63458568D01*
X117409397Y-63370827D01*
X117409390Y-63370814D01*
X117321789Y-63239711D01*
X117321786Y-63239707D01*
X117210292Y-63128213D01*
X117210288Y-63128210D01*
X117079185Y-63040609D01*
X117079172Y-63040602D01*
X116933501Y-62980264D01*
X116933489Y-62980261D01*
X116778845Y-62949500D01*
X116778842Y-62949500D01*
X116621158Y-62949500D01*
X116621155Y-62949500D01*
X116466510Y-62980261D01*
X116466498Y-62980264D01*
X116320827Y-63040602D01*
X116320814Y-63040609D01*
X116189711Y-63128210D01*
X116189707Y-63128213D01*
X116078213Y-63239707D01*
X116078207Y-63239715D01*
X115990607Y-63370818D01*
X115990606Y-63370819D01*
X115980805Y-63394480D01*
X115953927Y-63434703D01*
X115617050Y-63771581D01*
X115617047Y-63771584D01*
X115576043Y-63832951D01*
X115576044Y-63832952D01*
X115534914Y-63894508D01*
X115478343Y-64031082D01*
X115478340Y-64031092D01*
X115449500Y-64176079D01*
X115449500Y-67287770D01*
X115429815Y-67354809D01*
X115413181Y-67375451D01*
X115217048Y-67571583D01*
X115197728Y-67600500D01*
X115178188Y-67629744D01*
X115134919Y-67694499D01*
X115134912Y-67694511D01*
X115078343Y-67831082D01*
X115078340Y-67831092D01*
X115049500Y-67976079D01*
X115049500Y-86687770D01*
X115029815Y-86754809D01*
X115013181Y-86775451D01*
X112517048Y-89271583D01*
X112496478Y-89302369D01*
X112476045Y-89332951D01*
X112434919Y-89394499D01*
X112434912Y-89394511D01*
X112378343Y-89531082D01*
X112378340Y-89531092D01*
X112349500Y-89676079D01*
X112349500Y-89676082D01*
X112349500Y-96423918D01*
X112349500Y-96423920D01*
X112349499Y-96423920D01*
X112378340Y-96568907D01*
X112378343Y-96568917D01*
X112434914Y-96705492D01*
X112467812Y-96754727D01*
X112467813Y-96754730D01*
X112517046Y-96828414D01*
X112517052Y-96828421D01*
X116973181Y-101284548D01*
X117006666Y-101345871D01*
X117009500Y-101372229D01*
X117009500Y-117864879D01*
X116989815Y-117931918D01*
X116937011Y-117977673D01*
X116898755Y-117988168D01*
X116850020Y-117993407D01*
X116715171Y-118043702D01*
X116715164Y-118043706D01*
X116599955Y-118129952D01*
X116599952Y-118129955D01*
X116513706Y-118245164D01*
X116513702Y-118245171D01*
X116463408Y-118380017D01*
X116457001Y-118439616D01*
X116457001Y-118439623D01*
X116457000Y-118439635D01*
X116457000Y-118440401D01*
X116456949Y-118440572D01*
X116456822Y-118442952D01*
X116456259Y-118442921D01*
X116437315Y-118507440D01*
X116384511Y-118553195D01*
X116323271Y-118564019D01*
X116301264Y-118562287D01*
X115731539Y-119132012D01*
X115718540Y-119083498D01*
X115648106Y-118961503D01*
X115548497Y-118861894D01*
X115426502Y-118791460D01*
X115377985Y-118778459D01*
X115947711Y-118208734D01*
X115947711Y-118208733D01*
X115902661Y-118176003D01*
X115719991Y-118082927D01*
X115524997Y-118019570D01*
X115322513Y-117987500D01*
X115117487Y-117987500D01*
X114915002Y-118019570D01*
X114720008Y-118082927D01*
X114537338Y-118176003D01*
X114492287Y-118208733D01*
X114492287Y-118208734D01*
X115062013Y-118778460D01*
X115013498Y-118791460D01*
X114891503Y-118861894D01*
X114791894Y-118961503D01*
X114721460Y-119083498D01*
X114708460Y-119132013D01*
X114138734Y-118562287D01*
X114138733Y-118562287D01*
X114106001Y-118607341D01*
X114060764Y-118696123D01*
X114012789Y-118746919D01*
X113944968Y-118763713D01*
X113878833Y-118741175D01*
X113839795Y-118696121D01*
X113794425Y-118607077D01*
X113673879Y-118441159D01*
X113673875Y-118441154D01*
X113579631Y-118346910D01*
X113528848Y-118296127D01*
X113477434Y-118258772D01*
X113473517Y-118255394D01*
X113457256Y-118230220D01*
X113438949Y-118206479D01*
X113437731Y-118199994D01*
X113435606Y-118196704D01*
X113435587Y-118188575D01*
X113430501Y-118161492D01*
X113430501Y-116256080D01*
X113401660Y-116111093D01*
X113401659Y-116111092D01*
X113401659Y-116111088D01*
X113384187Y-116068907D01*
X113345088Y-115974512D01*
X113345081Y-115974499D01*
X113262953Y-115851586D01*
X113235867Y-115824500D01*
X113158417Y-115747050D01*
X112462925Y-115051558D01*
X110278421Y-112867052D01*
X110278414Y-112867046D01*
X110204729Y-112817812D01*
X110204729Y-112817813D01*
X110155491Y-112784913D01*
X110018917Y-112728343D01*
X110018907Y-112728340D01*
X109873920Y-112699500D01*
X109873918Y-112699500D01*
X100973848Y-112699500D01*
X100906809Y-112679815D01*
X100861054Y-112627011D01*
X100849848Y-112575500D01*
X100849848Y-110674604D01*
X100859287Y-110627151D01*
X100860385Y-110624500D01*
X100869085Y-110603497D01*
X100899848Y-110448842D01*
X100899848Y-110291158D01*
X100899848Y-110291155D01*
X100899847Y-110291153D01*
X100869085Y-110136503D01*
X100869083Y-110136498D01*
X100808745Y-109990827D01*
X100808738Y-109990814D01*
X100721137Y-109859711D01*
X100721134Y-109859707D01*
X100609640Y-109748213D01*
X100609636Y-109748210D01*
X100478533Y-109660609D01*
X100478520Y-109660602D01*
X100332849Y-109600264D01*
X100332837Y-109600261D01*
X100178193Y-109569500D01*
X100178190Y-109569500D01*
X100020506Y-109569500D01*
X100020503Y-109569500D01*
X99865858Y-109600261D01*
X99865846Y-109600264D01*
X99720175Y-109660602D01*
X99720162Y-109660609D01*
X99589059Y-109748210D01*
X99589055Y-109748213D01*
X99477561Y-109859707D01*
X99477558Y-109859711D01*
X99389957Y-109990814D01*
X99389950Y-109990827D01*
X99329612Y-110136498D01*
X99329609Y-110136510D01*
X99298848Y-110291153D01*
X99298848Y-110448846D01*
X99318306Y-110546664D01*
X99329611Y-110603497D01*
X99333838Y-110613703D01*
X99339409Y-110627151D01*
X99348848Y-110674604D01*
X99348848Y-113146970D01*
X99339410Y-113194418D01*
X99330263Y-113216503D01*
X99330262Y-113216506D01*
X99330260Y-113216511D01*
X99299500Y-113371153D01*
X99299500Y-113528846D01*
X99330261Y-113683489D01*
X99330264Y-113683501D01*
X99390602Y-113829172D01*
X99390609Y-113829185D01*
X99396049Y-113837326D01*
X99416927Y-113904004D01*
X99398442Y-113971384D01*
X99346464Y-114018074D01*
X99277494Y-114029250D01*
X99213430Y-114001365D01*
X99205266Y-113993898D01*
X98986819Y-113775451D01*
X98953334Y-113714128D01*
X98950500Y-113687770D01*
X98950500Y-103872902D01*
X98970185Y-103805863D01*
X99022989Y-103760108D01*
X99092147Y-103750164D01*
X99155703Y-103779189D01*
X99189062Y-103825451D01*
X99190605Y-103829178D01*
X99190609Y-103829185D01*
X99278210Y-103960288D01*
X99278213Y-103960292D01*
X99389707Y-104071786D01*
X99389711Y-104071789D01*
X99520814Y-104159390D01*
X99520827Y-104159397D01*
X99666498Y-104219735D01*
X99666503Y-104219737D01*
X99821153Y-104250499D01*
X99821156Y-104250500D01*
X99821158Y-104250500D01*
X99978844Y-104250500D01*
X99978845Y-104250499D01*
X100133497Y-104219737D01*
X100279179Y-104159394D01*
X100410289Y-104071789D01*
X100521789Y-103960289D01*
X100609394Y-103829179D01*
X100644834Y-103743615D01*
X100656292Y-103722181D01*
X100672191Y-103698388D01*
X100728765Y-103561806D01*
X100748958Y-103460292D01*
X100757607Y-103416813D01*
X100757607Y-99761711D01*
X100767046Y-99714258D01*
X100776844Y-99690604D01*
X100807607Y-99535949D01*
X100807607Y-99378265D01*
X100807607Y-99378262D01*
X100807606Y-99378260D01*
X100776845Y-99223617D01*
X100776844Y-99223610D01*
X100730709Y-99112229D01*
X100716504Y-99077934D01*
X100716497Y-99077921D01*
X100628896Y-98946818D01*
X100628893Y-98946814D01*
X100517399Y-98835320D01*
X100517395Y-98835317D01*
X100386292Y-98747716D01*
X100386287Y-98747714D01*
X100386286Y-98747713D01*
X100362626Y-98737912D01*
X100322400Y-98711033D01*
X96756264Y-95144896D01*
X95786819Y-94175451D01*
X95772115Y-94148523D01*
X95755523Y-94122705D01*
X95754631Y-94116504D01*
X95753334Y-94114128D01*
X95750500Y-94087770D01*
X95750500Y-83910687D01*
X95770185Y-83843648D01*
X95822989Y-83797893D01*
X95892147Y-83787949D01*
X95955703Y-83816974D01*
X95993477Y-83875752D01*
X95994270Y-83878577D01*
X96001117Y-83904130D01*
X96075557Y-84181949D01*
X96075560Y-84181959D01*
X96075561Y-84181960D01*
X96207725Y-84545076D01*
X96207728Y-84545083D01*
X96207729Y-84545085D01*
X96207732Y-84545093D01*
X96371028Y-84895281D01*
X96371036Y-84895297D01*
X96488565Y-85098863D01*
X96564242Y-85229940D01*
X96564246Y-85229946D01*
X96564253Y-85229957D01*
X96785883Y-85546477D01*
X96948688Y-85740500D01*
X97034269Y-85842491D01*
X97307509Y-86115731D01*
X97365980Y-86164794D01*
X97603522Y-86364116D01*
X97920042Y-86585746D01*
X97920049Y-86585750D01*
X97920060Y-86585758D01*
X98254709Y-86778967D01*
X98254718Y-86778971D01*
X98604906Y-86942267D01*
X98604910Y-86942268D01*
X98604924Y-86942275D01*
X98968040Y-87074439D01*
X98968046Y-87074440D01*
X98968050Y-87074442D01*
X99069694Y-87101677D01*
X99341292Y-87174451D01*
X99721841Y-87241552D01*
X100106788Y-87275230D01*
X100106789Y-87275231D01*
X100106790Y-87275231D01*
X100493211Y-87275231D01*
X100493211Y-87275230D01*
X100878159Y-87241552D01*
X101258708Y-87174451D01*
X101631960Y-87074439D01*
X101995076Y-86942275D01*
X102345291Y-86778967D01*
X102679940Y-86585758D01*
X102996476Y-86364117D01*
X103292491Y-86115731D01*
X103565731Y-85842491D01*
X103814117Y-85546476D01*
X104035758Y-85229940D01*
X104218113Y-84914091D01*
X104268680Y-84865875D01*
X104337287Y-84852652D01*
X104402152Y-84878620D01*
X104442680Y-84935535D01*
X104449500Y-84976091D01*
X104449500Y-88387770D01*
X104429815Y-88454809D01*
X104413181Y-88475451D01*
X101317049Y-91571582D01*
X101317049Y-91571583D01*
X101317048Y-91571584D01*
X101306513Y-91587351D01*
X101294390Y-91605495D01*
X101234915Y-91694506D01*
X101184060Y-91817281D01*
X101140219Y-91871684D01*
X101073925Y-91893749D01*
X101006225Y-91876470D01*
X100958615Y-91825332D01*
X100945499Y-91769831D01*
X100945499Y-90884992D01*
X100934999Y-90782203D01*
X100879814Y-90615666D01*
X100787712Y-90466344D01*
X100663656Y-90342288D01*
X100514334Y-90250186D01*
X100347797Y-90195001D01*
X100347795Y-90195000D01*
X100245010Y-90184500D01*
X99044998Y-90184500D01*
X99044981Y-90184501D01*
X98942203Y-90195000D01*
X98942200Y-90195001D01*
X98775668Y-90250185D01*
X98775663Y-90250187D01*
X98626342Y-90342289D01*
X98502289Y-90466342D01*
X98410187Y-90615663D01*
X98410186Y-90615666D01*
X98355001Y-90782203D01*
X98355001Y-90782204D01*
X98355000Y-90782204D01*
X98344500Y-90884983D01*
X98344500Y-92085001D01*
X98344501Y-92085018D01*
X98355000Y-92187796D01*
X98355001Y-92187799D01*
X98410185Y-92354331D01*
X98410187Y-92354336D01*
X98419178Y-92368913D01*
X98502288Y-92503656D01*
X98626344Y-92627712D01*
X98775666Y-92719814D01*
X98858152Y-92747147D01*
X98915597Y-92786920D01*
X98942420Y-92851436D01*
X98930105Y-92920212D01*
X98920143Y-92931975D01*
X98919077Y-92945524D01*
X99598554Y-93625000D01*
X99592339Y-93625000D01*
X99490606Y-93652259D01*
X99399394Y-93704920D01*
X99324920Y-93779394D01*
X99272259Y-93870606D01*
X99245000Y-93972339D01*
X99245000Y-93978553D01*
X98565524Y-93299077D01*
X98565523Y-93299077D01*
X98533143Y-93343644D01*
X98440244Y-93525968D01*
X98377009Y-93720582D01*
X98345000Y-93922682D01*
X98345000Y-94127317D01*
X98377009Y-94329417D01*
X98440244Y-94524031D01*
X98533141Y-94706350D01*
X98533147Y-94706359D01*
X98565523Y-94750921D01*
X98565524Y-94750922D01*
X99245000Y-94071446D01*
X99245000Y-94077661D01*
X99272259Y-94179394D01*
X99324920Y-94270606D01*
X99399394Y-94345080D01*
X99490606Y-94397741D01*
X99592339Y-94425000D01*
X99598553Y-94425000D01*
X98919076Y-95104474D01*
X98963650Y-95136859D01*
X99145968Y-95229755D01*
X99340582Y-95292990D01*
X99542683Y-95325000D01*
X99747317Y-95325000D01*
X99949417Y-95292990D01*
X100144031Y-95229755D01*
X100326349Y-95136859D01*
X100370921Y-95104474D01*
X99691447Y-94425000D01*
X99697661Y-94425000D01*
X99799394Y-94397741D01*
X99890606Y-94345080D01*
X99965080Y-94270606D01*
X100017741Y-94179394D01*
X100045000Y-94077661D01*
X100045000Y-94071448D01*
X100724474Y-94750922D01*
X100724474Y-94750921D01*
X100756859Y-94706349D01*
X100849755Y-94524031D01*
X100907569Y-94346101D01*
X100947007Y-94288426D01*
X101011366Y-94261228D01*
X101080212Y-94273143D01*
X101131688Y-94320387D01*
X101149500Y-94384420D01*
X101149500Y-104023918D01*
X101149500Y-104023920D01*
X101149499Y-104023920D01*
X101178340Y-104168907D01*
X101178343Y-104168917D01*
X101234914Y-104305492D01*
X101267812Y-104354727D01*
X101267813Y-104354730D01*
X101317046Y-104428414D01*
X101317052Y-104428421D01*
X103713181Y-106824548D01*
X103746666Y-106885871D01*
X103749500Y-106912229D01*
X103749500Y-108145396D01*
X103740062Y-108192844D01*
X103734030Y-108207409D01*
X103730262Y-108216506D01*
X103730260Y-108216511D01*
X103699500Y-108371153D01*
X103699500Y-108528846D01*
X103730261Y-108683489D01*
X103730264Y-108683501D01*
X103790602Y-108829172D01*
X103790609Y-108829185D01*
X103878210Y-108960288D01*
X103878213Y-108960292D01*
X103989707Y-109071786D01*
X103989711Y-109071789D01*
X104120814Y-109159390D01*
X104120827Y-109159397D01*
X104266498Y-109219735D01*
X104266503Y-109219737D01*
X104421153Y-109250499D01*
X104421156Y-109250500D01*
X104421158Y-109250500D01*
X104578844Y-109250500D01*
X104578845Y-109250499D01*
X104733497Y-109219737D01*
X104879179Y-109159394D01*
X105010289Y-109071789D01*
X105121789Y-108960289D01*
X105209394Y-108829179D01*
X105269737Y-108683497D01*
X105300500Y-108528842D01*
X105300500Y-108371158D01*
X105300500Y-108371155D01*
X105300499Y-108371153D01*
X105269739Y-108216511D01*
X105269738Y-108216508D01*
X105269737Y-108216503D01*
X105259937Y-108192844D01*
X105250500Y-108145396D01*
X105250500Y-106476079D01*
X105221659Y-106331092D01*
X105221658Y-106331091D01*
X105221658Y-106331087D01*
X105178745Y-106227487D01*
X105171277Y-106158020D01*
X105202552Y-106095540D01*
X105262641Y-106059888D01*
X105332466Y-106062382D01*
X105380988Y-106092355D01*
X106217049Y-106928416D01*
X106321584Y-107032951D01*
X106321587Y-107032953D01*
X106321588Y-107032954D01*
X106444503Y-107115083D01*
X106444506Y-107115085D01*
X106477960Y-107128941D01*
X106487640Y-107132951D01*
X106581088Y-107171659D01*
X106697241Y-107194763D01*
X106722170Y-107199721D01*
X106726081Y-107200500D01*
X106726082Y-107200500D01*
X106726083Y-107200500D01*
X106873918Y-107200500D01*
X109395396Y-107200500D01*
X109442844Y-107209937D01*
X109466503Y-107219737D01*
X109466508Y-107219738D01*
X109466511Y-107219739D01*
X109621153Y-107250499D01*
X109621156Y-107250500D01*
X109621158Y-107250500D01*
X109778844Y-107250500D01*
X109778845Y-107250499D01*
X109933497Y-107219737D01*
X110079179Y-107159394D01*
X110210289Y-107071789D01*
X110321789Y-106960289D01*
X110409394Y-106829179D01*
X110469737Y-106683497D01*
X110500500Y-106528842D01*
X110500500Y-106371158D01*
X110500500Y-106371155D01*
X110500499Y-106371153D01*
X110469738Y-106216510D01*
X110469737Y-106216503D01*
X110418314Y-106092355D01*
X110409397Y-106070827D01*
X110409390Y-106070814D01*
X110321789Y-105939711D01*
X110321786Y-105939707D01*
X110210292Y-105828213D01*
X110210288Y-105828210D01*
X110079185Y-105740609D01*
X110079172Y-105740602D01*
X109933501Y-105680264D01*
X109933489Y-105680261D01*
X109778845Y-105649500D01*
X109778842Y-105649500D01*
X109621158Y-105649500D01*
X109621155Y-105649500D01*
X109466511Y-105680260D01*
X109466506Y-105680262D01*
X109466504Y-105680262D01*
X109466503Y-105680263D01*
X109442844Y-105690062D01*
X109395396Y-105699500D01*
X107162229Y-105699500D01*
X107095190Y-105679815D01*
X107074548Y-105663181D01*
X103786819Y-102375451D01*
X103753334Y-102314128D01*
X103750500Y-102287770D01*
X103750500Y-101871153D01*
X104399500Y-101871153D01*
X104399500Y-102028846D01*
X104430261Y-102183489D01*
X104430264Y-102183501D01*
X104490602Y-102329172D01*
X104490609Y-102329185D01*
X104578210Y-102460288D01*
X104578213Y-102460292D01*
X104689707Y-102571786D01*
X104689711Y-102571789D01*
X104820814Y-102659390D01*
X104820827Y-102659397D01*
X104958712Y-102716510D01*
X104966503Y-102719737D01*
X105121153Y-102750499D01*
X105121156Y-102750500D01*
X105121158Y-102750500D01*
X105278844Y-102750500D01*
X105278845Y-102750499D01*
X105433497Y-102719737D01*
X105546166Y-102673067D01*
X105579172Y-102659397D01*
X105579172Y-102659396D01*
X105579179Y-102659394D01*
X105710289Y-102571789D01*
X105821789Y-102460289D01*
X105909394Y-102329179D01*
X105969737Y-102183497D01*
X106000500Y-102028842D01*
X106000500Y-101871158D01*
X106000500Y-101871155D01*
X106000499Y-101871153D01*
X105980734Y-101771789D01*
X105969737Y-101716503D01*
X105969735Y-101716498D01*
X105909397Y-101570827D01*
X105909390Y-101570814D01*
X105821789Y-101439711D01*
X105821786Y-101439707D01*
X105710292Y-101328213D01*
X105710288Y-101328210D01*
X105579185Y-101240609D01*
X105579172Y-101240602D01*
X105433501Y-101180264D01*
X105433489Y-101180261D01*
X105278845Y-101149500D01*
X105278842Y-101149500D01*
X105121158Y-101149500D01*
X105121155Y-101149500D01*
X104966510Y-101180261D01*
X104966498Y-101180264D01*
X104820827Y-101240602D01*
X104820814Y-101240609D01*
X104689711Y-101328210D01*
X104689707Y-101328213D01*
X104578213Y-101439707D01*
X104578210Y-101439711D01*
X104490609Y-101570814D01*
X104490602Y-101570827D01*
X104430264Y-101716498D01*
X104430261Y-101716510D01*
X104399500Y-101871153D01*
X103750500Y-101871153D01*
X103750500Y-100374424D01*
X103759739Y-100342958D01*
X103767856Y-100311154D01*
X103769538Y-100309587D01*
X103770185Y-100307385D01*
X103794968Y-100285909D01*
X103818992Y-100263542D01*
X103821253Y-100263133D01*
X103822989Y-100261630D01*
X103855463Y-100256960D01*
X103887752Y-100251134D01*
X103890719Y-100251891D01*
X103892147Y-100251686D01*
X103921950Y-100259862D01*
X103944474Y-100269191D01*
X103984705Y-100296072D01*
X104317049Y-100628416D01*
X104421584Y-100732951D01*
X104421585Y-100732952D01*
X104544498Y-100815080D01*
X104544511Y-100815087D01*
X104681082Y-100871656D01*
X104681087Y-100871658D01*
X104681091Y-100871658D01*
X104681092Y-100871659D01*
X104826079Y-100900500D01*
X104826082Y-100900500D01*
X111925500Y-100900500D01*
X111992539Y-100920185D01*
X112038294Y-100972989D01*
X112049500Y-101024500D01*
X112049500Y-101087770D01*
X112029815Y-101154809D01*
X112013181Y-101175451D01*
X111317050Y-101871581D01*
X111317044Y-101871589D01*
X111279074Y-101928415D01*
X111279075Y-101928416D01*
X111234913Y-101994508D01*
X111178343Y-102131082D01*
X111178340Y-102131092D01*
X111149500Y-102276079D01*
X111149500Y-102276082D01*
X111149500Y-102923918D01*
X111149500Y-102923920D01*
X111149499Y-102923920D01*
X111178340Y-103068907D01*
X111178342Y-103068913D01*
X111234915Y-103205494D01*
X111234917Y-103205498D01*
X111239861Y-103212896D01*
X111251319Y-103234333D01*
X111290604Y-103329175D01*
X111290609Y-103329185D01*
X111378210Y-103460288D01*
X111378213Y-103460292D01*
X111489707Y-103571786D01*
X111489711Y-103571789D01*
X111620814Y-103659390D01*
X111620827Y-103659397D01*
X111766498Y-103719735D01*
X111766503Y-103719737D01*
X111919469Y-103750164D01*
X111921153Y-103750499D01*
X111921156Y-103750500D01*
X111921158Y-103750500D01*
X112078844Y-103750500D01*
X112078845Y-103750499D01*
X112233497Y-103719737D01*
X112379179Y-103659394D01*
X112510289Y-103571789D01*
X112621789Y-103460289D01*
X112709394Y-103329179D01*
X112769737Y-103183497D01*
X112800500Y-103028842D01*
X112800500Y-102871158D01*
X112800500Y-102871155D01*
X112800499Y-102871153D01*
X112769738Y-102716510D01*
X112769737Y-102716503D01*
X112750223Y-102669393D01*
X112742755Y-102599927D01*
X112774029Y-102537448D01*
X112777076Y-102534290D01*
X113382951Y-101928416D01*
X113465084Y-101805495D01*
X113521658Y-101668913D01*
X113541172Y-101570814D01*
X113550500Y-101523920D01*
X113550500Y-100454604D01*
X113559939Y-100407151D01*
X113564777Y-100395471D01*
X113569737Y-100383497D01*
X113600500Y-100228842D01*
X113600500Y-100071158D01*
X113600500Y-100071155D01*
X113600499Y-100071153D01*
X113569738Y-99916510D01*
X113569737Y-99916503D01*
X113534357Y-99831087D01*
X113509397Y-99770827D01*
X113509390Y-99770814D01*
X113421789Y-99639711D01*
X113421786Y-99639707D01*
X113310292Y-99528213D01*
X113310288Y-99528210D01*
X113179185Y-99440609D01*
X113179172Y-99440602D01*
X113033501Y-99380264D01*
X113033489Y-99380261D01*
X112878845Y-99349500D01*
X112878842Y-99349500D01*
X112721158Y-99349500D01*
X112721155Y-99349500D01*
X112566511Y-99380260D01*
X112566506Y-99380262D01*
X112566504Y-99380262D01*
X112566503Y-99380263D01*
X112542844Y-99390062D01*
X112495396Y-99399500D01*
X105262229Y-99399500D01*
X105232788Y-99390855D01*
X105202802Y-99384332D01*
X105197786Y-99380577D01*
X105195190Y-99379815D01*
X105174548Y-99363181D01*
X105046072Y-99234705D01*
X105019191Y-99194473D01*
X105009397Y-99170828D01*
X105009396Y-99170826D01*
X105009394Y-99170821D01*
X104947325Y-99077928D01*
X104921789Y-99039710D01*
X104810292Y-98928213D01*
X104810288Y-98928210D01*
X104679185Y-98840609D01*
X104679172Y-98840602D01*
X104533501Y-98780264D01*
X104533489Y-98780261D01*
X104378845Y-98749500D01*
X104378842Y-98749500D01*
X104221158Y-98749500D01*
X104221155Y-98749500D01*
X104066510Y-98780261D01*
X104066507Y-98780262D01*
X104066506Y-98780262D01*
X104066503Y-98780263D01*
X103986372Y-98813454D01*
X103921952Y-98840137D01*
X103852482Y-98847605D01*
X103790003Y-98816329D01*
X103754351Y-98756240D01*
X103750500Y-98725575D01*
X103750500Y-93012228D01*
X103770185Y-92945189D01*
X103786814Y-92924552D01*
X105855412Y-90855953D01*
X105916735Y-90822469D01*
X105986427Y-90827453D01*
X106042360Y-90869325D01*
X106066777Y-90934789D01*
X106061024Y-90981954D01*
X105996522Y-91180465D01*
X105970180Y-91346785D01*
X105964500Y-91382648D01*
X105964500Y-91587352D01*
X105967374Y-91605495D01*
X105996522Y-91789534D01*
X106059781Y-91984223D01*
X106119236Y-92100908D01*
X106144864Y-92151206D01*
X106152715Y-92166613D01*
X106273028Y-92332213D01*
X106417786Y-92476971D01*
X106559112Y-92579648D01*
X106583390Y-92597287D01*
X106674840Y-92643883D01*
X106676080Y-92644515D01*
X106726876Y-92692490D01*
X106743671Y-92760311D01*
X106721134Y-92826446D01*
X106676080Y-92865485D01*
X106583386Y-92912715D01*
X106417786Y-93033028D01*
X106273028Y-93177786D01*
X106152715Y-93343386D01*
X106059781Y-93525776D01*
X105996522Y-93720465D01*
X105964500Y-93922648D01*
X105964500Y-94127351D01*
X105996522Y-94329534D01*
X106059781Y-94524223D01*
X106118331Y-94639132D01*
X106152585Y-94706359D01*
X106152715Y-94706613D01*
X106273028Y-94872213D01*
X106417786Y-95016971D01*
X106538226Y-95104474D01*
X106583390Y-95137287D01*
X106699607Y-95196503D01*
X106765776Y-95230218D01*
X106765778Y-95230218D01*
X106765781Y-95230220D01*
X106870137Y-95264127D01*
X106960465Y-95293477D01*
X107036343Y-95305495D01*
X107162648Y-95325500D01*
X107162649Y-95325500D01*
X107367351Y-95325500D01*
X107367352Y-95325500D01*
X107569534Y-95293477D01*
X107764219Y-95230220D01*
X107946610Y-95137287D01*
X108053371Y-95059721D01*
X108112213Y-95016971D01*
X108112215Y-95016968D01*
X108112219Y-95016966D01*
X108256966Y-94872219D01*
X108256968Y-94872215D01*
X108256971Y-94872213D01*
X108309732Y-94799590D01*
X108377287Y-94706610D01*
X108470220Y-94524219D01*
X108533477Y-94329534D01*
X108565500Y-94127352D01*
X108565500Y-93922648D01*
X108544224Y-93788317D01*
X108533477Y-93720465D01*
X108502458Y-93625000D01*
X108470220Y-93525781D01*
X108470218Y-93525778D01*
X108470218Y-93525776D01*
X108436503Y-93459607D01*
X108377287Y-93343390D01*
X108345092Y-93299077D01*
X108256971Y-93177786D01*
X108112213Y-93033028D01*
X107946614Y-92912715D01*
X107932495Y-92905521D01*
X107853917Y-92865483D01*
X107803123Y-92817511D01*
X107786328Y-92749690D01*
X107808865Y-92683555D01*
X107853917Y-92644516D01*
X107946610Y-92597287D01*
X108019267Y-92544499D01*
X108112213Y-92476971D01*
X108112215Y-92476968D01*
X108112219Y-92476966D01*
X108256966Y-92332219D01*
X108256968Y-92332215D01*
X108256971Y-92332213D01*
X108319982Y-92245484D01*
X108377287Y-92166610D01*
X108470220Y-91984219D01*
X108533477Y-91789534D01*
X108565500Y-91587352D01*
X108565500Y-91382648D01*
X108543003Y-91240609D01*
X108533477Y-91180465D01*
X108470218Y-90985776D01*
X108418865Y-90884991D01*
X108377287Y-90803390D01*
X108361892Y-90782200D01*
X108256971Y-90637786D01*
X108112213Y-90493028D01*
X107946613Y-90372715D01*
X107946612Y-90372714D01*
X107946610Y-90372713D01*
X107866940Y-90332119D01*
X107816146Y-90284145D01*
X107811375Y-90274528D01*
X107809390Y-90270814D01*
X107721789Y-90139711D01*
X107721786Y-90139707D01*
X107610292Y-90028213D01*
X107610288Y-90028210D01*
X107479185Y-89940609D01*
X107479172Y-89940602D01*
X107333501Y-89880264D01*
X107333489Y-89880261D01*
X107178845Y-89849500D01*
X107178842Y-89849500D01*
X107134033Y-89849500D01*
X107066994Y-89829815D01*
X107021239Y-89777011D01*
X107011295Y-89707853D01*
X107030931Y-89656609D01*
X107065080Y-89605501D01*
X107065080Y-89605500D01*
X107065084Y-89605495D01*
X107121658Y-89468913D01*
X107136460Y-89394499D01*
X107150500Y-89323920D01*
X107150500Y-85023920D01*
X107649499Y-85023920D01*
X107678340Y-85168907D01*
X107678343Y-85168917D01*
X107734914Y-85305491D01*
X107734916Y-85305495D01*
X107762571Y-85346884D01*
X107762570Y-85346884D01*
X107817046Y-85428414D01*
X107817052Y-85428421D01*
X108813181Y-86424548D01*
X108846666Y-86485871D01*
X108849500Y-86512229D01*
X108849500Y-92223918D01*
X108849500Y-92223920D01*
X108849499Y-92223920D01*
X108878340Y-92368907D01*
X108878343Y-92368917D01*
X108934914Y-92505491D01*
X108934916Y-92505495D01*
X108952367Y-92531613D01*
X108960977Y-92544499D01*
X109017049Y-92628418D01*
X109017052Y-92628421D01*
X109253927Y-92865295D01*
X109280806Y-92905521D01*
X109290606Y-92929180D01*
X109290607Y-92929182D01*
X109378210Y-93060288D01*
X109378213Y-93060292D01*
X109489707Y-93171786D01*
X109489711Y-93171789D01*
X109620814Y-93259390D01*
X109620827Y-93259397D01*
X109766498Y-93319735D01*
X109766503Y-93319737D01*
X109885394Y-93343386D01*
X109921153Y-93350499D01*
X109921156Y-93350500D01*
X109921158Y-93350500D01*
X110078844Y-93350500D01*
X110078845Y-93350499D01*
X110233497Y-93319737D01*
X110379179Y-93259394D01*
X110510289Y-93171789D01*
X110621789Y-93060289D01*
X110709394Y-92929179D01*
X110769737Y-92783497D01*
X110800500Y-92628842D01*
X110800500Y-92471158D01*
X110800500Y-92471155D01*
X110800499Y-92471153D01*
X110780161Y-92368907D01*
X110769737Y-92316503D01*
X110766587Y-92308898D01*
X110709397Y-92170827D01*
X110709390Y-92170814D01*
X110621789Y-92039711D01*
X110621786Y-92039707D01*
X110510289Y-91928210D01*
X110405609Y-91858266D01*
X110400518Y-91852174D01*
X110393297Y-91848877D01*
X110378433Y-91825749D01*
X110360804Y-91804654D01*
X110358852Y-91795279D01*
X110355523Y-91790099D01*
X110350500Y-91755164D01*
X110350500Y-91644636D01*
X110370185Y-91577597D01*
X110422989Y-91531842D01*
X110492147Y-91521898D01*
X110498684Y-91523017D01*
X110506525Y-91524577D01*
X110511157Y-91525499D01*
X110511158Y-91525499D01*
X110668844Y-91525499D01*
X110668845Y-91525498D01*
X110823497Y-91494736D01*
X110969179Y-91434393D01*
X111100289Y-91346788D01*
X111211789Y-91235288D01*
X111299394Y-91104178D01*
X111359737Y-90958496D01*
X111390500Y-90803841D01*
X111390500Y-90646157D01*
X111390500Y-90646154D01*
X111390499Y-90646152D01*
X111383569Y-90611315D01*
X111359737Y-90491502D01*
X111349316Y-90466344D01*
X111299397Y-90345826D01*
X111299390Y-90345813D01*
X111211789Y-90214710D01*
X111211786Y-90214706D01*
X111100292Y-90103212D01*
X111100288Y-90103209D01*
X110969185Y-90015608D01*
X110969172Y-90015601D01*
X110823501Y-89955263D01*
X110823489Y-89955260D01*
X110668845Y-89924499D01*
X110668842Y-89924499D01*
X110511158Y-89924499D01*
X110498690Y-89926979D01*
X110477705Y-89925100D01*
X110456853Y-89928099D01*
X110443603Y-89922048D01*
X110429099Y-89920750D01*
X110412463Y-89907826D01*
X110393297Y-89899074D01*
X110385422Y-89886820D01*
X110373922Y-89877887D01*
X110366913Y-89858020D01*
X110355523Y-89840296D01*
X110351988Y-89815710D01*
X110350678Y-89811997D01*
X110350500Y-89805361D01*
X110350500Y-86076079D01*
X110321659Y-85931092D01*
X110321658Y-85931091D01*
X110321658Y-85931087D01*
X110321656Y-85931082D01*
X110265087Y-85794511D01*
X110265080Y-85794498D01*
X110213494Y-85717294D01*
X110192616Y-85650616D01*
X110211101Y-85583236D01*
X110263080Y-85536546D01*
X110332050Y-85525370D01*
X110370401Y-85536684D01*
X110374935Y-85538868D01*
X110501732Y-85583236D01*
X110661216Y-85639042D01*
X110661228Y-85639046D01*
X110956937Y-85706540D01*
X110956946Y-85706541D01*
X110956951Y-85706542D01*
X111157874Y-85729180D01*
X111258337Y-85740499D01*
X111258340Y-85740500D01*
X111258343Y-85740500D01*
X111561660Y-85740500D01*
X111561661Y-85740499D01*
X111715694Y-85723144D01*
X111863048Y-85706542D01*
X111863051Y-85706541D01*
X111863063Y-85706540D01*
X112158772Y-85639046D01*
X112445065Y-85538868D01*
X112718341Y-85407265D01*
X112975164Y-85245892D01*
X113212304Y-85056779D01*
X113426779Y-84842304D01*
X113615892Y-84605164D01*
X113777265Y-84348341D01*
X113908868Y-84075065D01*
X114009046Y-83788772D01*
X114076540Y-83493063D01*
X114110500Y-83191657D01*
X114110500Y-82888343D01*
X114099180Y-82787874D01*
X114076542Y-82586951D01*
X114076541Y-82586946D01*
X114076540Y-82586937D01*
X114009046Y-82291228D01*
X113908868Y-82004935D01*
X113777265Y-81731659D01*
X113615892Y-81474836D01*
X113426779Y-81237696D01*
X113212304Y-81023221D01*
X112975164Y-80834108D01*
X112718341Y-80672735D01*
X112718338Y-80672733D01*
X112445068Y-80541133D01*
X112158783Y-80440957D01*
X112158771Y-80440953D01*
X111930556Y-80388864D01*
X111863063Y-80373460D01*
X111863060Y-80373459D01*
X111863048Y-80373457D01*
X111561663Y-80339500D01*
X111561657Y-80339500D01*
X111258343Y-80339500D01*
X111258336Y-80339500D01*
X110956951Y-80373457D01*
X110956937Y-80373460D01*
X110661228Y-80440953D01*
X110661216Y-80440957D01*
X110374931Y-80541133D01*
X110101661Y-80672733D01*
X109844837Y-80834107D01*
X109607696Y-81023220D01*
X109393219Y-81237697D01*
X109371446Y-81265000D01*
X109314258Y-81305140D01*
X109244446Y-81307989D01*
X109184176Y-81272643D01*
X109152584Y-81210324D01*
X109150500Y-81187686D01*
X109150500Y-74212229D01*
X109170185Y-74145190D01*
X109186814Y-74124553D01*
X112315297Y-70996069D01*
X112355524Y-70969191D01*
X112379179Y-70959394D01*
X112510289Y-70871789D01*
X112621789Y-70760289D01*
X112709394Y-70629179D01*
X112769737Y-70483497D01*
X112797916Y-70341835D01*
X112800500Y-70328845D01*
X112800500Y-70171155D01*
X112800499Y-70171153D01*
X112796001Y-70148541D01*
X112769737Y-70016503D01*
X112735855Y-69934703D01*
X112709397Y-69870827D01*
X112709390Y-69870814D01*
X112621789Y-69739711D01*
X112621786Y-69739707D01*
X112510292Y-69628213D01*
X112510288Y-69628210D01*
X112379185Y-69540609D01*
X112379172Y-69540602D01*
X112233501Y-69480264D01*
X112233489Y-69480261D01*
X112078845Y-69449500D01*
X112078842Y-69449500D01*
X111921158Y-69449500D01*
X111921155Y-69449500D01*
X111766510Y-69480261D01*
X111766498Y-69480264D01*
X111620827Y-69540602D01*
X111620814Y-69540609D01*
X111489711Y-69628210D01*
X111489707Y-69628213D01*
X111378213Y-69739707D01*
X111378207Y-69739715D01*
X111290607Y-69870818D01*
X111290606Y-69870819D01*
X111280805Y-69894480D01*
X111253927Y-69934703D01*
X107817047Y-73371584D01*
X107817045Y-73371586D01*
X107788145Y-73414842D01*
X107788143Y-73414845D01*
X107734919Y-73494498D01*
X107734912Y-73494511D01*
X107678343Y-73631082D01*
X107678340Y-73631092D01*
X107649500Y-73776079D01*
X107649500Y-73776082D01*
X107649500Y-85023918D01*
X107649500Y-85023920D01*
X107649499Y-85023920D01*
X107150500Y-85023920D01*
X107150500Y-73212229D01*
X107170185Y-73145190D01*
X107186814Y-73124553D01*
X111415297Y-68896069D01*
X111455524Y-68869191D01*
X111479179Y-68859394D01*
X111610289Y-68771789D01*
X111721789Y-68660289D01*
X111809394Y-68529179D01*
X111869737Y-68383497D01*
X111900500Y-68228842D01*
X111900500Y-68071158D01*
X111900500Y-68071155D01*
X111900499Y-68071153D01*
X111880097Y-67968587D01*
X111869737Y-67916503D01*
X111868085Y-67912514D01*
X111809397Y-67770827D01*
X111809390Y-67770814D01*
X111721789Y-67639711D01*
X111721786Y-67639707D01*
X111610292Y-67528213D01*
X111610288Y-67528210D01*
X111479185Y-67440609D01*
X111479172Y-67440602D01*
X111333501Y-67380264D01*
X111333489Y-67380261D01*
X111178845Y-67349500D01*
X111178842Y-67349500D01*
X111021158Y-67349500D01*
X111021155Y-67349500D01*
X110866510Y-67380261D01*
X110866498Y-67380264D01*
X110720827Y-67440602D01*
X110720814Y-67440609D01*
X110589711Y-67528210D01*
X110589707Y-67528213D01*
X110478213Y-67639707D01*
X110478207Y-67639715D01*
X110390607Y-67770818D01*
X110390606Y-67770819D01*
X110380805Y-67794480D01*
X110353927Y-67834703D01*
X105937680Y-72250950D01*
X105929735Y-72255287D01*
X105924310Y-72262536D01*
X105899547Y-72271772D01*
X105876357Y-72284435D01*
X105867328Y-72283789D01*
X105858846Y-72286953D01*
X105833023Y-72281336D01*
X105806665Y-72279451D01*
X105797612Y-72273633D01*
X105790573Y-72272102D01*
X105762318Y-72250951D01*
X105725495Y-72214128D01*
X105678416Y-72167049D01*
X104986819Y-71475451D01*
X104953334Y-71414128D01*
X104950500Y-71387770D01*
X104950500Y-69812229D01*
X104970185Y-69745190D01*
X104986819Y-69724548D01*
X105782950Y-68928417D01*
X105782952Y-68928415D01*
X105849818Y-68828342D01*
X105865084Y-68805495D01*
X105902416Y-68715368D01*
X105921659Y-68668912D01*
X105950500Y-68523917D01*
X105950500Y-68376082D01*
X105950500Y-60458206D01*
X107719500Y-60458206D01*
X107719500Y-60821794D01*
X107730337Y-60931829D01*
X107755137Y-61183630D01*
X107826064Y-61540212D01*
X107826067Y-61540223D01*
X107931614Y-61888165D01*
X108070754Y-62224078D01*
X108070756Y-62224083D01*
X108242140Y-62544720D01*
X108242151Y-62544738D01*
X108444140Y-62847035D01*
X108444150Y-62847049D01*
X108674807Y-63128106D01*
X108931893Y-63385192D01*
X108931898Y-63385196D01*
X108931899Y-63385197D01*
X109212956Y-63615854D01*
X109515268Y-63817853D01*
X109515277Y-63817858D01*
X109515279Y-63817859D01*
X109835916Y-63989243D01*
X109835918Y-63989243D01*
X109835924Y-63989247D01*
X110171836Y-64128386D01*
X110519767Y-64233930D01*
X110519773Y-64233931D01*
X110519776Y-64233932D01*
X110519787Y-64233935D01*
X110876369Y-64304862D01*
X111238206Y-64340500D01*
X111238209Y-64340500D01*
X111601791Y-64340500D01*
X111601794Y-64340500D01*
X111963631Y-64304862D01*
X112033045Y-64291054D01*
X112320212Y-64233935D01*
X112320223Y-64233932D01*
X112320223Y-64233931D01*
X112320233Y-64233930D01*
X112668164Y-64128386D01*
X113004076Y-63989247D01*
X113324732Y-63817853D01*
X113627044Y-63615854D01*
X113908101Y-63385197D01*
X114165197Y-63128101D01*
X114395854Y-62847044D01*
X114597853Y-62544732D01*
X114769247Y-62224076D01*
X114908386Y-61888164D01*
X115013930Y-61540233D01*
X115013932Y-61540223D01*
X115013935Y-61540212D01*
X115084862Y-61183630D01*
X115086311Y-61168917D01*
X115120500Y-60821794D01*
X115120500Y-60458206D01*
X115084862Y-60096369D01*
X115082300Y-60083489D01*
X115013935Y-59739787D01*
X115013933Y-59739782D01*
X115013932Y-59739781D01*
X115013930Y-59739767D01*
X114962781Y-59571153D01*
X116099500Y-59571153D01*
X116099500Y-59728846D01*
X116130261Y-59883489D01*
X116130263Y-59883497D01*
X116140061Y-59907151D01*
X116149500Y-59954604D01*
X116149500Y-61023918D01*
X116149500Y-61023920D01*
X116149499Y-61023920D01*
X116178340Y-61168907D01*
X116178343Y-61168917D01*
X116234914Y-61305492D01*
X116267812Y-61354727D01*
X116267813Y-61354730D01*
X116317046Y-61428414D01*
X116317052Y-61428421D01*
X117323335Y-62434703D01*
X118321584Y-63432952D01*
X118371861Y-63466545D01*
X118371863Y-63466547D01*
X118371864Y-63466547D01*
X118444505Y-63515084D01*
X118444506Y-63515084D01*
X118444507Y-63515085D01*
X118581082Y-63571656D01*
X118581087Y-63571658D01*
X118581091Y-63571658D01*
X118581092Y-63571659D01*
X118726079Y-63600500D01*
X118726082Y-63600500D01*
X118726083Y-63600500D01*
X118873918Y-63600500D01*
X123225500Y-63600500D01*
X123292539Y-63620185D01*
X123338294Y-63672989D01*
X123349500Y-63724500D01*
X123349500Y-65387770D01*
X123329815Y-65454809D01*
X123313181Y-65475451D01*
X119717047Y-69071584D01*
X119717045Y-69071586D01*
X119696271Y-69102678D01*
X119687983Y-69115084D01*
X119661358Y-69154930D01*
X119634914Y-69194507D01*
X119578343Y-69331082D01*
X119578340Y-69331092D01*
X119549500Y-69476079D01*
X119549500Y-69476082D01*
X119549500Y-72623918D01*
X119549500Y-72623920D01*
X119549499Y-72623920D01*
X119578340Y-72768907D01*
X119578343Y-72768917D01*
X119634914Y-72905491D01*
X119634916Y-72905495D01*
X119655052Y-72935631D01*
X119664986Y-72950499D01*
X119717049Y-73028418D01*
X119717052Y-73028421D01*
X120776452Y-74087819D01*
X120809937Y-74149142D01*
X120804953Y-74218833D01*
X120763082Y-74274767D01*
X120697617Y-74299184D01*
X120688771Y-74299500D01*
X119728018Y-74299500D01*
X119660979Y-74279815D01*
X119624914Y-74244388D01*
X119621788Y-74239709D01*
X119510292Y-74128213D01*
X119510288Y-74128210D01*
X119379185Y-74040609D01*
X119379172Y-74040602D01*
X119233501Y-73980264D01*
X119233489Y-73980261D01*
X119078845Y-73949500D01*
X119078842Y-73949500D01*
X118921158Y-73949500D01*
X118921155Y-73949500D01*
X118766510Y-73980261D01*
X118766498Y-73980264D01*
X118620827Y-74040602D01*
X118620814Y-74040609D01*
X118489711Y-74128210D01*
X118489707Y-74128213D01*
X118378213Y-74239707D01*
X118378210Y-74239711D01*
X118290609Y-74370814D01*
X118290602Y-74370827D01*
X118230264Y-74516498D01*
X118230261Y-74516510D01*
X118199500Y-74671153D01*
X118199500Y-74828846D01*
X118230261Y-74983489D01*
X118230264Y-74983501D01*
X118290602Y-75129172D01*
X118290609Y-75129185D01*
X118378210Y-75260288D01*
X118378213Y-75260292D01*
X118489710Y-75371789D01*
X118625887Y-75462779D01*
X118625651Y-75463130D01*
X118649306Y-75480674D01*
X118801584Y-75632952D01*
X118849053Y-75664669D01*
X118924505Y-75715084D01*
X119061087Y-75771658D01*
X119061091Y-75771658D01*
X119061092Y-75771659D01*
X119206079Y-75800500D01*
X119206082Y-75800500D01*
X119206083Y-75800500D01*
X119353918Y-75800500D01*
X120367060Y-75800500D01*
X120434099Y-75820185D01*
X120454742Y-75836820D01*
X120489707Y-75871786D01*
X120489711Y-75871789D01*
X120620814Y-75959390D01*
X120620827Y-75959397D01*
X120751460Y-76013506D01*
X120766503Y-76019737D01*
X120921153Y-76050499D01*
X120921156Y-76050500D01*
X120921158Y-76050500D01*
X121078844Y-76050500D01*
X121078845Y-76050499D01*
X121233497Y-76019737D01*
X121379179Y-75959394D01*
X121510289Y-75871789D01*
X121621789Y-75760289D01*
X121709394Y-75629179D01*
X121769737Y-75483497D01*
X121800500Y-75328842D01*
X121800500Y-75171158D01*
X121800500Y-75171155D01*
X121800499Y-75171153D01*
X121775541Y-75045681D01*
X121769737Y-75016503D01*
X121756062Y-74983489D01*
X121709397Y-74870827D01*
X121709393Y-74870820D01*
X121696711Y-74851840D01*
X121675833Y-74785162D01*
X121694317Y-74717782D01*
X121746295Y-74671092D01*
X121815265Y-74659915D01*
X121847261Y-74668385D01*
X121911203Y-74694871D01*
X122026384Y-74717782D01*
X122065853Y-74725633D01*
X122065856Y-74725634D01*
X122065858Y-74725634D01*
X122223544Y-74725634D01*
X122223545Y-74725633D01*
X122378197Y-74694871D01*
X122523879Y-74634528D01*
X122654989Y-74546923D01*
X122766489Y-74435423D01*
X122854094Y-74304313D01*
X122856219Y-74299184D01*
X122867767Y-74271300D01*
X122914437Y-74158631D01*
X122945200Y-74003976D01*
X122945200Y-73846292D01*
X122945200Y-73846289D01*
X122945199Y-73846287D01*
X122931234Y-73776082D01*
X122914437Y-73691637D01*
X122889357Y-73631087D01*
X122854097Y-73545961D01*
X122854090Y-73545948D01*
X122766487Y-73414842D01*
X122654992Y-73303347D01*
X122654988Y-73303344D01*
X122523885Y-73215743D01*
X122523873Y-73215737D01*
X122500222Y-73205940D01*
X122459996Y-73179061D01*
X122447987Y-73167052D01*
X122447980Y-73167046D01*
X122374295Y-73117812D01*
X122374295Y-73117813D01*
X122325057Y-73084913D01*
X122188483Y-73028343D01*
X122188473Y-73028340D01*
X122043486Y-72999500D01*
X122043484Y-72999500D01*
X121862229Y-72999500D01*
X121795190Y-72979815D01*
X121774548Y-72963181D01*
X121086819Y-72275451D01*
X121053334Y-72214128D01*
X121050500Y-72187770D01*
X121050500Y-69912229D01*
X121070185Y-69845190D01*
X121086819Y-69824548D01*
X124682950Y-66228417D01*
X124682952Y-66228415D01*
X124761199Y-66111309D01*
X124765084Y-66105495D01*
X124799578Y-66022219D01*
X124821659Y-65968912D01*
X124850500Y-65823917D01*
X124850500Y-65676082D01*
X124850500Y-63176082D01*
X124850500Y-63176079D01*
X124850499Y-63176077D01*
X124843161Y-63139182D01*
X124821659Y-63031092D01*
X124821658Y-63031091D01*
X124821658Y-63031087D01*
X124821656Y-63031082D01*
X124765086Y-62894509D01*
X124765085Y-62894507D01*
X124732186Y-62845270D01*
X124732185Y-62845268D01*
X124682956Y-62771589D01*
X124682952Y-62771584D01*
X124346071Y-62434703D01*
X124319191Y-62394475D01*
X124309394Y-62370821D01*
X124309390Y-62370815D01*
X124221789Y-62239710D01*
X124110292Y-62128213D01*
X124110288Y-62128210D01*
X123979185Y-62040609D01*
X123979172Y-62040602D01*
X123833501Y-61980264D01*
X123833489Y-61980261D01*
X123678845Y-61949500D01*
X123678842Y-61949500D01*
X123521158Y-61949500D01*
X123521155Y-61949500D01*
X123366510Y-61980261D01*
X123366498Y-61980264D01*
X123220827Y-62040602D01*
X123220820Y-62040606D01*
X123191928Y-62059911D01*
X123163955Y-62078602D01*
X123097279Y-62099480D01*
X123095065Y-62099500D01*
X119162230Y-62099500D01*
X119095191Y-62079815D01*
X119074549Y-62063181D01*
X117686819Y-60675451D01*
X117653334Y-60614128D01*
X117650500Y-60587770D01*
X117650500Y-59954604D01*
X117659939Y-59907151D01*
X117659942Y-59907144D01*
X117669737Y-59883497D01*
X117700500Y-59728842D01*
X117700500Y-59571158D01*
X117700500Y-59571155D01*
X117700499Y-59571153D01*
X117680543Y-59470827D01*
X117669737Y-59416503D01*
X117637929Y-59339711D01*
X117609397Y-59270827D01*
X117609390Y-59270814D01*
X117521789Y-59139711D01*
X117521786Y-59139707D01*
X117410292Y-59028213D01*
X117410288Y-59028210D01*
X117279185Y-58940609D01*
X117279172Y-58940602D01*
X117133501Y-58880264D01*
X117133489Y-58880261D01*
X116978845Y-58849500D01*
X116978842Y-58849500D01*
X116821158Y-58849500D01*
X116821155Y-58849500D01*
X116666510Y-58880261D01*
X116666498Y-58880264D01*
X116520827Y-58940602D01*
X116520814Y-58940609D01*
X116389711Y-59028210D01*
X116389707Y-59028213D01*
X116278213Y-59139707D01*
X116278210Y-59139711D01*
X116190609Y-59270814D01*
X116190602Y-59270827D01*
X116130264Y-59416498D01*
X116130261Y-59416510D01*
X116099500Y-59571153D01*
X114962781Y-59571153D01*
X114908386Y-59391836D01*
X114769247Y-59055924D01*
X114765813Y-59049500D01*
X114597859Y-58735279D01*
X114597858Y-58735277D01*
X114597853Y-58735268D01*
X114500640Y-58589779D01*
X119099500Y-58589779D01*
X119099500Y-58810223D01*
X119106931Y-58857138D01*
X119133985Y-59027953D01*
X119202103Y-59237604D01*
X119202104Y-59237607D01*
X119243087Y-59318038D01*
X119293255Y-59416498D01*
X119302187Y-59434026D01*
X119431752Y-59612359D01*
X119431756Y-59612364D01*
X119587636Y-59768244D01*
X119587641Y-59768248D01*
X119685864Y-59839610D01*
X119765978Y-59897816D01*
X119876578Y-59954170D01*
X119962393Y-59997896D01*
X119962396Y-59997897D01*
X120067221Y-60031956D01*
X120172049Y-60066016D01*
X120389778Y-60100501D01*
X120389779Y-60100501D01*
X120610221Y-60100501D01*
X120610222Y-60100501D01*
X120827951Y-60066016D01*
X121037606Y-59997896D01*
X121234022Y-59897816D01*
X121412365Y-59768243D01*
X121568242Y-59612366D01*
X121697815Y-59434023D01*
X121797895Y-59237607D01*
X121865890Y-59028336D01*
X122899500Y-59028336D01*
X122899500Y-59331663D01*
X122933457Y-59633048D01*
X122933459Y-59633060D01*
X122933460Y-59633063D01*
X122935314Y-59641184D01*
X123000953Y-59928771D01*
X123000957Y-59928783D01*
X123101133Y-60215068D01*
X123232733Y-60488338D01*
X123232735Y-60488341D01*
X123394108Y-60745164D01*
X123583221Y-60982304D01*
X123797696Y-61196779D01*
X124034836Y-61385892D01*
X124291659Y-61547265D01*
X124564935Y-61678868D01*
X124779951Y-61754105D01*
X124851216Y-61779042D01*
X124851228Y-61779046D01*
X125146937Y-61846540D01*
X125146946Y-61846541D01*
X125146951Y-61846542D01*
X125347874Y-61869180D01*
X125448337Y-61880499D01*
X125448340Y-61880500D01*
X125448343Y-61880500D01*
X125751660Y-61880500D01*
X125751661Y-61880499D01*
X125905694Y-61863144D01*
X126053048Y-61846542D01*
X126053051Y-61846541D01*
X126053063Y-61846540D01*
X126348772Y-61779046D01*
X126635065Y-61678868D01*
X126908341Y-61547265D01*
X127165164Y-61385892D01*
X127402304Y-61196779D01*
X127616779Y-60982304D01*
X127805892Y-60745164D01*
X127967265Y-60488341D01*
X128098868Y-60215065D01*
X128199046Y-59928772D01*
X128266540Y-59633063D01*
X128268407Y-59616498D01*
X128290941Y-59416498D01*
X128300500Y-59331657D01*
X128300500Y-59028343D01*
X128281210Y-58857137D01*
X128266542Y-58726951D01*
X128266541Y-58726946D01*
X128266540Y-58726937D01*
X128199046Y-58431228D01*
X128098868Y-58144935D01*
X127967265Y-57871659D01*
X127805892Y-57614836D01*
X127616779Y-57377696D01*
X127402304Y-57163221D01*
X127165164Y-56974108D01*
X126908341Y-56812735D01*
X126908338Y-56812733D01*
X126635068Y-56681133D01*
X126348783Y-56580957D01*
X126348771Y-56580953D01*
X126120556Y-56528864D01*
X126053063Y-56513460D01*
X126053060Y-56513459D01*
X126053048Y-56513457D01*
X125751663Y-56479500D01*
X125751657Y-56479500D01*
X125448343Y-56479500D01*
X125448336Y-56479500D01*
X125146951Y-56513457D01*
X125146937Y-56513460D01*
X124851228Y-56580953D01*
X124851216Y-56580957D01*
X124564931Y-56681133D01*
X124291661Y-56812733D01*
X124034837Y-56974107D01*
X123797696Y-57163220D01*
X123583220Y-57377696D01*
X123394107Y-57614837D01*
X123232733Y-57871661D01*
X123101133Y-58144931D01*
X123000957Y-58431216D01*
X123000953Y-58431228D01*
X122933460Y-58726937D01*
X122933457Y-58726951D01*
X122899500Y-59028336D01*
X121865890Y-59028336D01*
X121866015Y-59027952D01*
X121900500Y-58810223D01*
X121900500Y-58589779D01*
X121866015Y-58372050D01*
X121797895Y-58162395D01*
X121797895Y-58162394D01*
X121738902Y-58046616D01*
X121697815Y-57965979D01*
X121646103Y-57894803D01*
X121568247Y-57787642D01*
X121568243Y-57787637D01*
X121412363Y-57631757D01*
X121412358Y-57631753D01*
X121234025Y-57502188D01*
X121234024Y-57502187D01*
X121234022Y-57502186D01*
X121155428Y-57462140D01*
X121037606Y-57402105D01*
X121037603Y-57402104D01*
X120827952Y-57333986D01*
X120719086Y-57316743D01*
X120610222Y-57299501D01*
X120389778Y-57299501D01*
X120317201Y-57310996D01*
X120172047Y-57333986D01*
X119962396Y-57402104D01*
X119962393Y-57402105D01*
X119765974Y-57502188D01*
X119587641Y-57631753D01*
X119587636Y-57631757D01*
X119431756Y-57787637D01*
X119431752Y-57787642D01*
X119302187Y-57965975D01*
X119202104Y-58162394D01*
X119202103Y-58162397D01*
X119133985Y-58372048D01*
X119128492Y-58406730D01*
X119099500Y-58589779D01*
X114500640Y-58589779D01*
X114395854Y-58432956D01*
X114165197Y-58151899D01*
X114165196Y-58151898D01*
X114165192Y-58151893D01*
X113908106Y-57894807D01*
X113627049Y-57664150D01*
X113627048Y-57664149D01*
X113627044Y-57664146D01*
X113324732Y-57462147D01*
X113324727Y-57462144D01*
X113324720Y-57462140D01*
X113004083Y-57290756D01*
X113004078Y-57290754D01*
X112668165Y-57151614D01*
X112320223Y-57046067D01*
X112320212Y-57046064D01*
X111963630Y-56975137D01*
X111691111Y-56948296D01*
X111601794Y-56939500D01*
X111238206Y-56939500D01*
X111155679Y-56947628D01*
X110876369Y-56975137D01*
X110519787Y-57046064D01*
X110519776Y-57046067D01*
X110171834Y-57151614D01*
X109835921Y-57290754D01*
X109835916Y-57290756D01*
X109515279Y-57462140D01*
X109515261Y-57462151D01*
X109212964Y-57664140D01*
X109212950Y-57664150D01*
X108931893Y-57894807D01*
X108674807Y-58151893D01*
X108444150Y-58432950D01*
X108444140Y-58432964D01*
X108242151Y-58735261D01*
X108242140Y-58735279D01*
X108070756Y-59055916D01*
X108070754Y-59055921D01*
X107931614Y-59391834D01*
X107826067Y-59739776D01*
X107826064Y-59739787D01*
X107755137Y-60096369D01*
X107727628Y-60375679D01*
X107719500Y-60458206D01*
X105950500Y-60458206D01*
X105950500Y-60154604D01*
X105959939Y-60107151D01*
X105969737Y-60083497D01*
X106000500Y-59928842D01*
X106000500Y-59771158D01*
X106000500Y-59771155D01*
X106000499Y-59771153D01*
X105992741Y-59732152D01*
X105969737Y-59616503D01*
X105950955Y-59571158D01*
X105909397Y-59470827D01*
X105909390Y-59470814D01*
X105821789Y-59339711D01*
X105821786Y-59339707D01*
X105710292Y-59228213D01*
X105710288Y-59228210D01*
X105579185Y-59140609D01*
X105579172Y-59140602D01*
X105433501Y-59080264D01*
X105433489Y-59080261D01*
X105278845Y-59049500D01*
X105278842Y-59049500D01*
X105121158Y-59049500D01*
X105121155Y-59049500D01*
X104966510Y-59080261D01*
X104966498Y-59080264D01*
X104820827Y-59140602D01*
X104820814Y-59140609D01*
X104689711Y-59228210D01*
X104689707Y-59228213D01*
X104578213Y-59339707D01*
X104578210Y-59339711D01*
X104490609Y-59470814D01*
X104490602Y-59470827D01*
X104430264Y-59616498D01*
X104430261Y-59616510D01*
X104399500Y-59771153D01*
X104399500Y-59928846D01*
X104430261Y-60083489D01*
X104430263Y-60083497D01*
X104440061Y-60107151D01*
X104449500Y-60154604D01*
X104449500Y-68087769D01*
X104429815Y-68154808D01*
X104413181Y-68175450D01*
X103884703Y-68703927D01*
X103844480Y-68730805D01*
X103820819Y-68740606D01*
X103820818Y-68740607D01*
X103689715Y-68828207D01*
X103689707Y-68828213D01*
X103578213Y-68939707D01*
X103578210Y-68939711D01*
X103490609Y-69070814D01*
X103490602Y-69070827D01*
X103430264Y-69216498D01*
X103430261Y-69216510D01*
X103399500Y-69371153D01*
X103399500Y-69528846D01*
X103430261Y-69683489D01*
X103430263Y-69683497D01*
X103440061Y-69707151D01*
X103449500Y-69754604D01*
X103449500Y-71823918D01*
X103449500Y-71823920D01*
X103449499Y-71823920D01*
X103478340Y-71968907D01*
X103478343Y-71968917D01*
X103534914Y-72105492D01*
X103534915Y-72105494D01*
X103534916Y-72105495D01*
X103555720Y-72136631D01*
X103567812Y-72154727D01*
X103567813Y-72154730D01*
X103617046Y-72228414D01*
X103617052Y-72228421D01*
X104413181Y-73024548D01*
X104446666Y-73085871D01*
X104449500Y-73112229D01*
X104449500Y-80723908D01*
X104429815Y-80790947D01*
X104377011Y-80836702D01*
X104307853Y-80846646D01*
X104244297Y-80817621D01*
X104218113Y-80785908D01*
X104076791Y-80541132D01*
X104035758Y-80470060D01*
X104035750Y-80470049D01*
X104035746Y-80470042D01*
X103814116Y-80153522D01*
X103588914Y-79885138D01*
X103565731Y-79857509D01*
X103292491Y-79584269D01*
X103095560Y-79419024D01*
X102996477Y-79335883D01*
X102679957Y-79114253D01*
X102679946Y-79114246D01*
X102679940Y-79114242D01*
X102580520Y-79056842D01*
X102345297Y-78921036D01*
X102345281Y-78921028D01*
X101995093Y-78757732D01*
X101995085Y-78757729D01*
X101995083Y-78757728D01*
X101995076Y-78757725D01*
X101631960Y-78625561D01*
X101631959Y-78625560D01*
X101631949Y-78625557D01*
X101258715Y-78525551D01*
X101258718Y-78525551D01*
X101258708Y-78525549D01*
X101258702Y-78525547D01*
X101258698Y-78525547D01*
X100878164Y-78458448D01*
X100493211Y-78424769D01*
X100493210Y-78424769D01*
X100106790Y-78424769D01*
X100106789Y-78424769D01*
X99721836Y-78458448D01*
X99721834Y-78458448D01*
X99341301Y-78525547D01*
X99341284Y-78525551D01*
X98968050Y-78625557D01*
X98786482Y-78691643D01*
X98604924Y-78757725D01*
X98604920Y-78757726D01*
X98604914Y-78757729D01*
X98604906Y-78757732D01*
X98254718Y-78921028D01*
X98254702Y-78921036D01*
X97920068Y-79114237D01*
X97920042Y-79114253D01*
X97603522Y-79335883D01*
X97307506Y-79584271D01*
X97034271Y-79857506D01*
X96785883Y-80153522D01*
X96564253Y-80470042D01*
X96564237Y-80470068D01*
X96371036Y-80804702D01*
X96371028Y-80804718D01*
X96207732Y-81154906D01*
X96207729Y-81154914D01*
X96207726Y-81154920D01*
X96207725Y-81154924D01*
X96164879Y-81272643D01*
X96075557Y-81518050D01*
X95994275Y-81821405D01*
X95957910Y-81881066D01*
X95895063Y-81911595D01*
X95825688Y-81903300D01*
X95771810Y-81858815D01*
X95750535Y-81792263D01*
X95750500Y-81789312D01*
X95750500Y-75045675D01*
X96674500Y-75045675D01*
X96674500Y-75254324D01*
X96707137Y-75460389D01*
X96771612Y-75658820D01*
X96823315Y-75760292D01*
X96866330Y-75844714D01*
X96988965Y-76013505D01*
X97136495Y-76161035D01*
X97305286Y-76283670D01*
X97393116Y-76328421D01*
X97491179Y-76378387D01*
X97491181Y-76378387D01*
X97491184Y-76378389D01*
X97597545Y-76412948D01*
X97689610Y-76442862D01*
X97895676Y-76475500D01*
X97895681Y-76475500D01*
X98104324Y-76475500D01*
X98310389Y-76442862D01*
X98508816Y-76378389D01*
X98694714Y-76283670D01*
X98863505Y-76161035D01*
X99011035Y-76013505D01*
X99133670Y-75844714D01*
X99228389Y-75658816D01*
X99292862Y-75460389D01*
X99306895Y-75371789D01*
X99325500Y-75254324D01*
X99325500Y-75045675D01*
X99292862Y-74839610D01*
X99260402Y-74739711D01*
X99228389Y-74641184D01*
X99228387Y-74641181D01*
X99228387Y-74641179D01*
X99133669Y-74455285D01*
X99011035Y-74286495D01*
X98863505Y-74138965D01*
X98694714Y-74016330D01*
X98670468Y-74003976D01*
X98508820Y-73921612D01*
X98310389Y-73857137D01*
X98104324Y-73824500D01*
X98104319Y-73824500D01*
X97895681Y-73824500D01*
X97895676Y-73824500D01*
X97689610Y-73857137D01*
X97491179Y-73921612D01*
X97305285Y-74016330D01*
X97136493Y-74138966D01*
X96988966Y-74286493D01*
X96866330Y-74455285D01*
X96771612Y-74641179D01*
X96707137Y-74839610D01*
X96674500Y-75045675D01*
X95750500Y-75045675D01*
X95750500Y-72454604D01*
X95759939Y-72407151D01*
X95769737Y-72383497D01*
X95800500Y-72228842D01*
X95800500Y-72071158D01*
X95800500Y-72071155D01*
X95800499Y-72071153D01*
X95769738Y-71916510D01*
X95769737Y-71916503D01*
X95769735Y-71916498D01*
X95709397Y-71770827D01*
X95709390Y-71770814D01*
X95621789Y-71639711D01*
X95621786Y-71639707D01*
X95510292Y-71528213D01*
X95510288Y-71528210D01*
X95379185Y-71440609D01*
X95379172Y-71440602D01*
X95233501Y-71380264D01*
X95233489Y-71380261D01*
X95078845Y-71349500D01*
X95078842Y-71349500D01*
X94921158Y-71349500D01*
X94921155Y-71349500D01*
X94766510Y-71380261D01*
X94766498Y-71380264D01*
X94620827Y-71440602D01*
X94620814Y-71440609D01*
X94489711Y-71528210D01*
X94489707Y-71528213D01*
X94378213Y-71639707D01*
X94378210Y-71639711D01*
X94290609Y-71770814D01*
X94290602Y-71770827D01*
X94230264Y-71916498D01*
X94230261Y-71916510D01*
X94199500Y-72071153D01*
X93542291Y-72071153D01*
X93541139Y-64271153D01*
X96799500Y-64271153D01*
X96799500Y-64428846D01*
X96830261Y-64583489D01*
X96830264Y-64583501D01*
X96890602Y-64729172D01*
X96890609Y-64729185D01*
X96978210Y-64860288D01*
X96978213Y-64860292D01*
X97089707Y-64971786D01*
X97089711Y-64971789D01*
X97220814Y-65059390D01*
X97220827Y-65059397D01*
X97366498Y-65119735D01*
X97366503Y-65119737D01*
X97521153Y-65150499D01*
X97521156Y-65150500D01*
X97521158Y-65150500D01*
X97678844Y-65150500D01*
X97678845Y-65150499D01*
X97833497Y-65119737D01*
X97979179Y-65059394D01*
X98110289Y-64971789D01*
X98221789Y-64860289D01*
X98309394Y-64729179D01*
X98369737Y-64583497D01*
X98400500Y-64428842D01*
X98400500Y-64271158D01*
X98400500Y-64271155D01*
X98400499Y-64271153D01*
X98381587Y-64176079D01*
X98369737Y-64116503D01*
X98330046Y-64020679D01*
X98309397Y-63970827D01*
X98309390Y-63970814D01*
X98221789Y-63839711D01*
X98221786Y-63839707D01*
X98110292Y-63728213D01*
X98110288Y-63728210D01*
X97979185Y-63640609D01*
X97979172Y-63640602D01*
X97833501Y-63580264D01*
X97833489Y-63580261D01*
X97678845Y-63549500D01*
X97678842Y-63549500D01*
X97521158Y-63549500D01*
X97521155Y-63549500D01*
X97366510Y-63580261D01*
X97366498Y-63580264D01*
X97220827Y-63640602D01*
X97220814Y-63640609D01*
X97089711Y-63728210D01*
X97089707Y-63728213D01*
X96978213Y-63839707D01*
X96978210Y-63839711D01*
X96890609Y-63970814D01*
X96890602Y-63970827D01*
X96830264Y-64116498D01*
X96830261Y-64116510D01*
X96799500Y-64271153D01*
X93541139Y-64271153D01*
X93540515Y-60045675D01*
X96674500Y-60045675D01*
X96674500Y-60254324D01*
X96707137Y-60460389D01*
X96771612Y-60658820D01*
X96815606Y-60745162D01*
X96866330Y-60844714D01*
X96988965Y-61013505D01*
X97136495Y-61161035D01*
X97305286Y-61283670D01*
X97393116Y-61328421D01*
X97491179Y-61378387D01*
X97491181Y-61378387D01*
X97491184Y-61378389D01*
X97597545Y-61412948D01*
X97689610Y-61442862D01*
X97895676Y-61475500D01*
X97895681Y-61475500D01*
X98104324Y-61475500D01*
X98310389Y-61442862D01*
X98508816Y-61378389D01*
X98694714Y-61283670D01*
X98863505Y-61161035D01*
X99011035Y-61013505D01*
X99133670Y-60844714D01*
X99228389Y-60658816D01*
X99292862Y-60460389D01*
X99293208Y-60458206D01*
X99325500Y-60254324D01*
X99325500Y-60045675D01*
X99292862Y-59839610D01*
X99260427Y-59739787D01*
X99228389Y-59641184D01*
X99228387Y-59641181D01*
X99228387Y-59641179D01*
X99141585Y-59470821D01*
X99133670Y-59455286D01*
X99011035Y-59286495D01*
X98863505Y-59138965D01*
X98694714Y-59016330D01*
X98673384Y-59005462D01*
X98508820Y-58921612D01*
X98310389Y-58857137D01*
X98104324Y-58824500D01*
X98104319Y-58824500D01*
X97895681Y-58824500D01*
X97895676Y-58824500D01*
X97689610Y-58857137D01*
X97491179Y-58921612D01*
X97305285Y-59016330D01*
X97136493Y-59138966D01*
X96988966Y-59286493D01*
X96866330Y-59455285D01*
X96771612Y-59641179D01*
X96707137Y-59839610D01*
X96674500Y-60045675D01*
X93540515Y-60045675D01*
X93540500Y-59942853D01*
X93540632Y-59937127D01*
X93540965Y-59929939D01*
X93558405Y-59552697D01*
X93559462Y-59541302D01*
X93561670Y-59525474D01*
X93612236Y-59162982D01*
X93614336Y-59151746D01*
X93701795Y-58779897D01*
X93704918Y-58768917D01*
X93826318Y-58406710D01*
X93830449Y-58396050D01*
X93984739Y-58046616D01*
X93989837Y-58036376D01*
X94175711Y-57702668D01*
X94181737Y-57692936D01*
X94397619Y-57377788D01*
X94404502Y-57368675D01*
X94648540Y-57074790D01*
X94656234Y-57066350D01*
X94926350Y-56796234D01*
X94934790Y-56788540D01*
X95228675Y-56544502D01*
X95237788Y-56537619D01*
X95552942Y-56321733D01*
X95562668Y-56315711D01*
X95896376Y-56129837D01*
X95906616Y-56124739D01*
X96256050Y-55970449D01*
X96266710Y-55966318D01*
X96628917Y-55844918D01*
X96639897Y-55841795D01*
X97011746Y-55754336D01*
X97022982Y-55752236D01*
X97401312Y-55699461D01*
X97412697Y-55698405D01*
X97797145Y-55680632D01*
X97802872Y-55680500D01*
X97844170Y-55680500D01*
X124745830Y-55680500D01*
X124787128Y-55680500D01*
X124792855Y-55680632D01*
G37*
%TD.AperFunction*%
%TD*%
M02*
