%TF.GenerationSoftware,KiCad,Pcbnew,9.0.0*%
%TF.CreationDate,2025-08-03T00:00:26+03:00*%
%TF.ProjectId,easy home electronics,65617379-2068-46f6-9d65-20656c656374,rev?*%
%TF.SameCoordinates,Original*%
%TF.FileFunction,Paste,Top*%
%TF.FilePolarity,Positive*%
%FSLAX46Y46*%
G04 Gerber Fmt 4.6, Leading zero omitted, Abs format (unit mm)*
G04 Created by KiCad (PCBNEW 9.0.0) date 2025-08-03 00:00:26*
%MOMM*%
%LPD*%
G01*
G04 APERTURE LIST*
G04 Aperture macros list*
%AMRoundRect*
0 Rectangle with rounded corners*
0 $1 Rounding radius*
0 $2 $3 $4 $5 $6 $7 $8 $9 X,Y pos of 4 corners*
0 Add a 4 corners polygon primitive as box body*
4,1,4,$2,$3,$4,$5,$6,$7,$8,$9,$2,$3,0*
0 Add four circle primitives for the rounded corners*
1,1,$1+$1,$2,$3*
1,1,$1+$1,$4,$5*
1,1,$1+$1,$6,$7*
1,1,$1+$1,$8,$9*
0 Add four rect primitives between the rounded corners*
20,1,$1+$1,$2,$3,$4,$5,0*
20,1,$1+$1,$4,$5,$6,$7,0*
20,1,$1+$1,$6,$7,$8,$9,0*
20,1,$1+$1,$8,$9,$2,$3,0*%
G04 Aperture macros list end*
%ADD10RoundRect,0.250000X-0.400000X-1.450000X0.400000X-1.450000X0.400000X1.450000X-0.400000X1.450000X0*%
%ADD11RoundRect,0.249999X-1.450001X0.450001X-1.450001X-0.450001X1.450001X-0.450001X1.450001X0.450001X0*%
%ADD12R,0.700000X0.700000*%
%ADD13R,1.500000X0.900000*%
%ADD14RoundRect,0.250000X0.625000X-0.375000X0.625000X0.375000X-0.625000X0.375000X-0.625000X-0.375000X0*%
%ADD15RoundRect,0.250000X0.400000X1.450000X-0.400000X1.450000X-0.400000X-1.450000X0.400000X-1.450000X0*%
%ADD16RoundRect,0.250000X-1.450000X0.400000X-1.450000X-0.400000X1.450000X-0.400000X1.450000X0.400000X0*%
%ADD17RoundRect,0.249999X1.450001X-0.450001X1.450001X0.450001X-1.450001X0.450001X-1.450001X-0.450001X0*%
%ADD18RoundRect,0.200000X-0.200000X-0.600000X0.200000X-0.600000X0.200000X0.600000X-0.200000X0.600000X0*%
%ADD19RoundRect,0.250001X-0.799999X-1.249999X0.799999X-1.249999X0.799999X1.249999X-0.799999X1.249999X0*%
%ADD20RoundRect,0.250000X-0.625000X0.375000X-0.625000X-0.375000X0.625000X-0.375000X0.625000X0.375000X0*%
%ADD21RoundRect,0.090000X0.360000X-0.660000X0.360000X0.660000X-0.360000X0.660000X-0.360000X-0.660000X0*%
%ADD22RoundRect,0.249999X0.450001X1.450001X-0.450001X1.450001X-0.450001X-1.450001X0.450001X-1.450001X0*%
%ADD23R,1.350000X0.400000*%
%ADD24R,1.400000X1.600000*%
%ADD25R,1.900000X1.900000*%
%ADD26RoundRect,0.250000X-0.425000X-1.425000X0.425000X-1.425000X0.425000X1.425000X-0.425000X1.425000X0*%
%ADD27RoundRect,0.250000X1.412500X0.550000X-1.412500X0.550000X-1.412500X-0.550000X1.412500X-0.550000X0*%
%ADD28RoundRect,0.250000X1.450000X-0.400000X1.450000X0.400000X-1.450000X0.400000X-1.450000X-0.400000X0*%
G04 APERTURE END LIST*
D10*
%TO.C,R3*%
X105263019Y-128491981D03*
X109713021Y-128491981D03*
%TD*%
D11*
%TO.C,C2*%
X98988020Y-136391981D03*
X98988020Y-140491981D03*
%TD*%
D12*
%TO.C,U2*%
X110948020Y-137431981D03*
X110948020Y-138531980D03*
X110948020Y-139631981D03*
X112048020Y-137431980D03*
X112048020Y-138531981D03*
X112048020Y-139631981D03*
X113148020Y-137431981D03*
X113148020Y-138531980D03*
X113148020Y-139631981D03*
D13*
X102338020Y-132331981D03*
X102338020Y-133831981D03*
X102338020Y-135331981D03*
X102338020Y-136831981D03*
X102338020Y-138331981D03*
X102338020Y-139831981D03*
X102338020Y-141331981D03*
X102338020Y-142831981D03*
X102338020Y-144331981D03*
X119838020Y-144331981D03*
X119838020Y-142831981D03*
X119838020Y-141331981D03*
X119838020Y-139831981D03*
X119838020Y-138331981D03*
X119838020Y-136831981D03*
X119838020Y-135331981D03*
X119838020Y-133831981D03*
X119838020Y-132331981D03*
%TD*%
D14*
%TO.C,D3*%
X109178020Y-153181979D03*
X109178020Y-150381981D03*
%TD*%
D10*
%TO.C,R7*%
X122523019Y-136121981D03*
X126973021Y-136121981D03*
%TD*%
D15*
%TO.C,R19*%
X116053021Y-147711981D03*
X111603019Y-147711981D03*
%TD*%
D16*
%TO.C,R2*%
X98948020Y-142686980D03*
X98948020Y-147136982D03*
%TD*%
D17*
%TO.C,C6*%
X102158020Y-129531981D03*
X102158020Y-125431981D03*
%TD*%
D18*
%TO.C,J4*%
X121368020Y-148781981D03*
X122618020Y-148781981D03*
X123868020Y-148781981D03*
X125118020Y-148781981D03*
D19*
X118818020Y-151681981D03*
X127668020Y-151681981D03*
%TD*%
D20*
%TO.C,D1*%
X94868020Y-143751982D03*
X94868020Y-146551980D03*
%TD*%
D21*
%TO.C,D4*%
X103318020Y-153071981D03*
X106618020Y-153071981D03*
X106618020Y-148171981D03*
X103318020Y-148171981D03*
%TD*%
D10*
%TO.C,R1*%
X94653019Y-133161981D03*
X99103021Y-133161981D03*
%TD*%
D22*
%TO.C,C5*%
X98958020Y-128691981D03*
X94858020Y-128691981D03*
%TD*%
D23*
%TO.C,J3*%
X124988020Y-144351981D03*
X124988020Y-143701981D03*
X124988019Y-143051981D03*
X124988020Y-142401981D03*
X124988020Y-141751981D03*
D24*
X125213020Y-146251981D03*
D25*
X127663020Y-144251981D03*
X127663020Y-141851981D03*
D24*
X125213020Y-139851981D03*
%TD*%
D15*
%TO.C,R4*%
X115993022Y-152121981D03*
X111543020Y-152121981D03*
%TD*%
D26*
%TO.C,F1*%
X108400000Y-75550000D03*
X114200000Y-75550000D03*
%TD*%
D16*
%TO.C,R13*%
X114840000Y-90724999D03*
X114840000Y-95175001D03*
%TD*%
D27*
%TO.C,C8*%
X124117499Y-72870000D03*
X119042501Y-72870000D03*
%TD*%
D28*
%TO.C,R8*%
X96190000Y-95265001D03*
X96190000Y-90814999D03*
%TD*%
%TO.C,R12*%
X110590000Y-95175001D03*
X110590000Y-90724999D03*
%TD*%
M02*
