M48
; DRILL file {KiCad 9.0.0} date 2025-08-03T00:06:24+0300
; FORMAT={-:-/ absolute / metric / decimal}
; #@! TF.CreationDate,2025-08-03T00:06:24+03:00
; #@! TF.GenerationSoftware,Kicad,Pcbnew,9.0.0
; #@! TF.FileFunction,Plated,1,4,PTH
FMAT,2
METRIC
; #@! TA.AperFunction,Plated,PTH,ComponentDrill
T1C0.200
; #@! TA.AperFunction,Plated,PTH,ViaDrill
T2C0.300
; #@! TA.AperFunction,Plated,PTH,ComponentDrill
T3C0.400
; #@! TA.AperFunction,Plated,PTH,ComponentDrill
T4C0.500
; #@! TA.AperFunction,Plated,PTH,ComponentDrill
T5C0.710
; #@! TA.AperFunction,Plated,PTH,ComponentDrill
T6C0.800
; #@! TA.AperFunction,Plated,PTH,ComponentDrill
T7C0.890
; #@! TA.AperFunction,Plated,PTH,ComponentDrill
T8C1.000
; #@! TA.AperFunction,Plated,PTH,ComponentDrill
T9C1.016
; #@! TA.AperFunction,Plated,PTH,ComponentDrill
T10C1.070
; #@! TA.AperFunction,Plated,PTH,ComponentDrill
T11C1.092
; #@! TA.AperFunction,Plated,PTH,ComponentDrill
T12C1.100
; #@! TA.AperFunction,Plated,PTH,ComponentDrill
T13C2.200
; #@! TA.AperFunction,Plated,PTH,ComponentDrill
T14C3.000
; #@! TA.AperFunction,Plated,PTH,ComponentDrill
T15C3.200
%
G90
G05
T1
X110.948Y-137.982
X110.948Y-139.082
X111.498Y-137.432
X111.498Y-138.532
X111.498Y-139.632
X112.048Y-137.982
X112.048Y-139.082
X112.598Y-137.432
X112.598Y-138.532
X112.598Y-139.632
X113.148Y-137.982
X113.148Y-139.082
T2
X95.0Y-72.15
X95.818Y-133.162
X95.849Y-145.514
X96.2Y-98.05
X96.2Y-117.05
X96.958Y-139.232
X97.6Y-64.35
X99.4Y-95.45
X99.658Y-143.932
X99.9Y-103.45
X100.007Y-99.457
X100.099Y-110.37
X100.1Y-113.45
X100.758Y-144.932
X100.9Y-104.85
X101.358Y-140.932
X102.1Y-114.55
X102.6Y-76.25
X104.2Y-69.45
X104.3Y-99.55
X104.5Y-108.45
X105.2Y-59.85
X105.2Y-101.95
X105.4Y-114.45
X105.458Y-140.232
X106.6Y-110.25
X107.1Y-90.65
X107.258Y-128.732
X107.758Y-136.832
X108.158Y-133.832
X109.7Y-106.45
X110.0Y-92.55
X110.59Y-90.725
X111.1Y-68.15
X111.7Y-108.55
X112.0Y-70.25
X112.0Y-102.95
X112.8Y-100.15
X113.5Y-98.85
X114.458Y-144.232
X114.5Y-116.65
X115.0Y-96.25
X115.1Y-91.95
X116.2Y-67.65
X116.7Y-63.75
X116.9Y-59.65
X117.0Y-75.65
X117.958Y-140.732
X118.258Y-135.632
X118.458Y-148.832
X118.8Y-70.75
X119.0Y-74.75
X120.958Y-145.652
X121.0Y-75.25
X121.458Y-133.332
X122.145Y-73.925
X122.648Y-125.832
X123.583Y-67.331
X123.6Y-62.75
X123.848Y-125.732
X123.858Y-136.832
X123.958Y-151.832
X124.3Y-69.25
X125.445Y-136.537
X125.548Y-153.232
X125.6Y-101.15
X125.958Y-144.632
X126.058Y-141.332
X126.7Y-71.25
T3
X109.76Y-83.04
X110.243Y-81.873
X110.243Y-84.207
X111.41Y-81.39
X111.41Y-84.69
X112.577Y-81.873
X112.577Y-84.207
X113.06Y-83.04
X123.95Y-59.18
X124.433Y-58.013
X124.433Y-60.347
X125.6Y-57.53
X125.6Y-60.83
X126.767Y-58.013
X126.767Y-60.347
X127.25Y-59.18
T4
X98.07Y-82.89
X98.729Y-81.299
X98.729Y-84.481
X100.32Y-80.64
X100.32Y-85.14
X101.911Y-81.299
X101.911Y-84.481
X102.57Y-82.89
X109.02Y-60.64
X109.723Y-58.943
X109.723Y-62.337
X111.42Y-58.24
X111.42Y-63.04
X113.117Y-58.943
X113.117Y-62.337
X113.82Y-60.64
X120.32Y-82.89
X120.979Y-81.299
X120.979Y-84.481
X122.57Y-80.64
X122.57Y-85.14
X124.161Y-81.299
X124.161Y-84.481
X124.82Y-82.89
T6
X99.645Y-91.485
X99.645Y-94.025
X107.265Y-91.485
X107.265Y-94.025
X119.1Y-66.2
X120.5Y-58.7
T7
X105.416Y-124.062
X107.956Y-124.062
X110.496Y-124.062
X113.036Y-124.062
X115.576Y-124.062
X118.116Y-124.062
T8
X96.47Y-104.37
X96.47Y-109.37
X125.87Y-99.17
X125.87Y-114.57
T9
X127.3Y-64.12
X127.3Y-66.66
X127.3Y-69.2
T10
X105.06Y-119.29
X107.6Y-119.29
X110.14Y-119.29
X112.68Y-119.29
X115.22Y-119.29
X117.76Y-119.29
T11
X95.021Y-152.692
X97.561Y-152.692
X100.101Y-152.692
T12
X98.0Y-60.15
X98.0Y-75.15
X119.86Y-93.595
X120.048Y-126.932
X122.4Y-93.595
X123.23Y-123.75
X124.644Y-131.528
X124.94Y-93.595
X127.826Y-128.346
T13
X111.41Y-83.04
X125.6Y-59.18
T14
X100.32Y-82.89
X122.57Y-82.89
T15
X111.42Y-60.64
T5
G00X127.068Y-139.797
M15
G01X128.258Y-139.797
M16
G05
G00X127.068Y-146.307
M15
G01X128.258Y-146.307
M16
G05
M30
