%TF.GenerationSoftware,KiCad,Pcbnew,9.0.0*%
%TF.CreationDate,2025-07-10T14:22:37+03:00*%
%TF.ProjectId,easy home electronics,65617379-2068-46f6-9d65-20656c656374,rev?*%
%TF.SameCoordinates,Original*%
%TF.FileFunction,Paste,Bot*%
%TF.FilePolarity,Positive*%
%FSLAX46Y46*%
G04 Gerber Fmt 4.6, Leading zero omitted, Abs format (unit mm)*
G04 Created by KiCad (PCBNEW 9.0.0) date 2025-07-10 14:22:37*
%MOMM*%
%LPD*%
G01*
G04 APERTURE LIST*
G04 Aperture macros list*
%AMRoundRect*
0 Rectangle with rounded corners*
0 $1 Rounding radius*
0 $2 $3 $4 $5 $6 $7 $8 $9 X,Y pos of 4 corners*
0 Add a 4 corners polygon primitive as box body*
4,1,4,$2,$3,$4,$5,$6,$7,$8,$9,$2,$3,0*
0 Add four circle primitives for the rounded corners*
1,1,$1+$1,$2,$3*
1,1,$1+$1,$4,$5*
1,1,$1+$1,$6,$7*
1,1,$1+$1,$8,$9*
0 Add four rect primitives between the rounded corners*
20,1,$1+$1,$2,$3,$4,$5,0*
20,1,$1+$1,$4,$5,$6,$7,0*
20,1,$1+$1,$6,$7,$8,$9,0*
20,1,$1+$1,$8,$9,$2,$3,0*%
G04 Aperture macros list end*
%ADD10C,0.010000*%
%ADD11RoundRect,0.250000X-0.400000X-1.450000X0.400000X-1.450000X0.400000X1.450000X-0.400000X1.450000X0*%
%ADD12RoundRect,0.250000X0.400000X1.450000X-0.400000X1.450000X-0.400000X-1.450000X0.400000X-1.450000X0*%
%ADD13R,1.600000X3.000000*%
%ADD14RoundRect,0.249999X-0.450001X-1.450001X0.450001X-1.450001X0.450001X1.450001X-0.450001X1.450001X0*%
%ADD15RoundRect,0.150000X0.825000X0.150000X-0.825000X0.150000X-0.825000X-0.150000X0.825000X-0.150000X0*%
%ADD16RoundRect,0.249999X1.450001X-0.450001X1.450001X0.450001X-1.450001X0.450001X-1.450001X-0.450001X0*%
%ADD17RoundRect,0.250000X1.450000X-0.400000X1.450000X0.400000X-1.450000X0.400000X-1.450000X-0.400000X0*%
%ADD18RoundRect,0.250000X-0.850000X-0.350000X0.850000X-0.350000X0.850000X0.350000X-0.850000X0.350000X0*%
%ADD19RoundRect,0.250000X-1.275000X-1.125000X1.275000X-1.125000X1.275000X1.125000X-1.275000X1.125000X0*%
%ADD20R,2.290000X1.300000*%
%ADD21R,1.970000X0.570000*%
%ADD22RoundRect,0.249999X0.450001X1.450001X-0.450001X1.450001X-0.450001X-1.450001X0.450001X-1.450001X0*%
%ADD23RoundRect,0.249999X-1.450001X0.450001X-1.450001X-0.450001X1.450001X-0.450001X1.450001X0.450001X0*%
G04 APERTURE END LIST*
D10*
%TO.C,U1*%
X35140000Y-92680000D02*
X33560000Y-92679999D01*
X33560000Y-91100000D01*
X35140000Y-91100000D01*
X35140000Y-92680000D01*
G36*
X35140000Y-92680000D02*
G01*
X33560000Y-92679999D01*
X33560000Y-91100000D01*
X35140000Y-91100000D01*
X35140000Y-92680000D01*
G37*
X35140000Y-94910000D02*
X33560000Y-94910001D01*
X33560000Y-93330000D01*
X35140000Y-93330000D01*
X35140000Y-94910000D01*
G36*
X35140000Y-94910000D02*
G01*
X33560000Y-94910001D01*
X33560000Y-93330000D01*
X35140000Y-93330000D01*
X35140000Y-94910000D01*
G37*
X35140000Y-97140000D02*
X33560000Y-97140000D01*
X33560000Y-95560000D01*
X35140000Y-95560000D01*
X35140000Y-97140000D01*
G36*
X35140000Y-97140000D02*
G01*
X33560000Y-97140000D01*
X33560000Y-95560000D01*
X35140000Y-95560000D01*
X35140000Y-97140000D01*
G37*
X37369999Y-92680000D02*
X35790001Y-92680000D01*
X35790000Y-91100000D01*
X37370000Y-91100000D01*
X37369999Y-92680000D01*
G36*
X37369999Y-92680000D02*
G01*
X35790001Y-92680000D01*
X35790000Y-91100000D01*
X37370000Y-91100000D01*
X37369999Y-92680000D01*
G37*
X37369999Y-94910000D02*
X35790001Y-94910000D01*
X35790000Y-93330000D01*
X37370000Y-93330000D01*
X37369999Y-94910000D01*
G36*
X37369999Y-94910000D02*
G01*
X35790001Y-94910000D01*
X35790000Y-93330000D01*
X37370000Y-93330000D01*
X37369999Y-94910000D01*
G37*
X37370000Y-97140000D02*
X35790000Y-97140000D01*
X35790000Y-95560000D01*
X37370000Y-95560000D01*
X37370000Y-97140000D01*
G36*
X37370000Y-97140000D02*
G01*
X35790000Y-97140000D01*
X35790000Y-95560000D01*
X37370000Y-95560000D01*
X37370000Y-97140000D01*
G37*
X39600000Y-92679999D02*
X38020000Y-92680000D01*
X38020000Y-91100000D01*
X39600000Y-91100000D01*
X39600000Y-92679999D01*
G36*
X39600000Y-92679999D02*
G01*
X38020000Y-92680000D01*
X38020000Y-91100000D01*
X39600000Y-91100000D01*
X39600000Y-92679999D01*
G37*
X39600000Y-94910001D02*
X38020000Y-94910000D01*
X38020000Y-93330000D01*
X39600000Y-93330000D01*
X39600000Y-94910001D01*
G36*
X39600000Y-94910001D02*
G01*
X38020000Y-94910000D01*
X38020000Y-93330000D01*
X39600000Y-93330000D01*
X39600000Y-94910001D01*
G37*
X39600000Y-97140000D02*
X38020000Y-97140000D01*
X38020000Y-95560000D01*
X39600000Y-95560000D01*
X39600000Y-97140000D01*
G36*
X39600000Y-97140000D02*
G01*
X38020000Y-97140000D01*
X38020000Y-95560000D01*
X39600000Y-95560000D01*
X39600000Y-97140000D01*
G37*
%TD*%
D11*
%TO.C,R9*%
X114474999Y-104250000D03*
X118925001Y-104250000D03*
%TD*%
D12*
%TO.C,R22*%
X122225000Y-62750000D03*
X117775000Y-62750000D03*
%TD*%
D11*
%TO.C,R15*%
X98674999Y-99100000D03*
X103125001Y-99100000D03*
%TD*%
D13*
%TO.C,U1*%
X38880000Y-100770000D03*
X34280000Y-100770000D03*
%TD*%
D14*
%TO.C,C11*%
X114670000Y-114680000D03*
X118770000Y-114680000D03*
%TD*%
D12*
%TO.C,R14*%
X111225000Y-99550000D03*
X106775000Y-99550000D03*
%TD*%
D15*
%TO.C,U6*%
X126875000Y-72745000D03*
X126875000Y-74015000D03*
X126875000Y-75285000D03*
X126875000Y-76555000D03*
X121925000Y-76555000D03*
X121925000Y-75285000D03*
X121925000Y-74015000D03*
X121925000Y-72745000D03*
%TD*%
D11*
%TO.C,R16*%
X98674999Y-103850000D03*
X103125001Y-103850000D03*
%TD*%
D16*
%TO.C,C12*%
X106600000Y-115400000D03*
X106600000Y-111300000D03*
%TD*%
%TO.C,C3*%
X30220000Y-101530000D03*
X30220000Y-97430000D03*
%TD*%
D12*
%TO.C,R24*%
X120925000Y-69550000D03*
X116475000Y-69550000D03*
%TD*%
D17*
%TO.C,R11*%
X111270000Y-115555001D03*
X111270000Y-111104999D03*
%TD*%
D18*
%TO.C,U3*%
X47390000Y-111480000D03*
X47390000Y-109200000D03*
D19*
X52015000Y-107675000D03*
X52015000Y-110725000D03*
X55365000Y-107675000D03*
X55365000Y-110725000D03*
D18*
X47390000Y-106920000D03*
%TD*%
D12*
%TO.C,R20*%
X99625001Y-69750000D03*
X95174999Y-69750000D03*
%TD*%
D11*
%TO.C,R5*%
X121974999Y-104050000D03*
X126425001Y-104050000D03*
%TD*%
D16*
%TO.C,C1*%
X43010000Y-101800000D03*
X43010000Y-97700000D03*
%TD*%
D11*
%TO.C,R21*%
X95074999Y-64950000D03*
X99525001Y-64950000D03*
%TD*%
D12*
%TO.C,R23*%
X103225000Y-109450000D03*
X98775000Y-109450000D03*
%TD*%
D16*
%TO.C,C13*%
X124000000Y-70500000D03*
X124000000Y-66400000D03*
%TD*%
D14*
%TO.C,C9*%
X46990000Y-115572500D03*
X51090000Y-115572500D03*
%TD*%
D12*
%TO.C,R25*%
X103225000Y-114050000D03*
X98775000Y-114050000D03*
%TD*%
D11*
%TO.C,R6*%
X121974999Y-108850000D03*
X126425001Y-108850000D03*
%TD*%
D14*
%TO.C,C7*%
X46950000Y-103072500D03*
X51050000Y-103072500D03*
%TD*%
D11*
%TO.C,R10*%
X114474999Y-109050000D03*
X118925001Y-109050000D03*
%TD*%
D20*
%TO.C,U7*%
X102565000Y-74760000D03*
X102565000Y-72220000D03*
X102565000Y-69680000D03*
X102565000Y-67140000D03*
X113835000Y-67140000D03*
X113835000Y-69680000D03*
X113835000Y-72220000D03*
X113835000Y-74760000D03*
%TD*%
D21*
%TO.C,U5*%
X111375000Y-103845000D03*
X111375000Y-105115000D03*
X111375000Y-106385000D03*
X111375000Y-107655000D03*
X106425000Y-107655000D03*
X106425000Y-106385000D03*
X106425000Y-105115000D03*
X106425000Y-103845000D03*
%TD*%
D22*
%TO.C,C10*%
X118850000Y-99350000D03*
X114750000Y-99350000D03*
%TD*%
D23*
%TO.C,C14*%
X117700000Y-72900000D03*
X117700000Y-77000000D03*
%TD*%
M02*
