%TF.GenerationSoftware,KiCad,Pcbnew,9.0.0*%
%TF.CreationDate,2025-07-10T14:22:37+03:00*%
%TF.ProjectId,easy home electronics,65617379-2068-46f6-9d65-20656c656374,rev?*%
%TF.SameCoordinates,Original*%
%TF.FileFunction,Legend,Bot*%
%TF.FilePolarity,Positive*%
%FSLAX46Y46*%
G04 Gerber Fmt 4.6, Leading zero omitted, Abs format (unit mm)*
G04 Created by KiCad (PCBNEW 9.0.0) date 2025-07-10 14:22:37*
%MOMM*%
%LPD*%
G01*
G04 APERTURE LIST*
%ADD10C,0.000000*%
%ADD11C,0.150000*%
%ADD12C,0.508000*%
%ADD13C,0.120000*%
%ADD14C,0.127000*%
%ADD15C,0.200000*%
G04 APERTURE END LIST*
D10*
G36*
X37458777Y-117054028D02*
G01*
X37458777Y-117935973D01*
X37282389Y-117935973D01*
X37109527Y-117935973D01*
X37098944Y-117572612D01*
X37088360Y-117212778D01*
X36982528Y-117212778D01*
X36876694Y-117212778D01*
X36866110Y-117572612D01*
X36855527Y-117935973D01*
X36665027Y-117935973D01*
X36471000Y-117935973D01*
X36471000Y-117540861D01*
X36471551Y-117432168D01*
X36473425Y-117342699D01*
X36476953Y-117270180D01*
X36479440Y-117239566D01*
X36482465Y-117212337D01*
X36486068Y-117188208D01*
X36490292Y-117166896D01*
X36495177Y-117148116D01*
X36500765Y-117131584D01*
X36507097Y-117117015D01*
X36514214Y-117104126D01*
X36522159Y-117092633D01*
X36530971Y-117082250D01*
X36540273Y-117071600D01*
X36548334Y-117062034D01*
X36555156Y-117053399D01*
X36558101Y-117049382D01*
X36560737Y-117045539D01*
X36563062Y-117041851D01*
X36565078Y-117038299D01*
X36566783Y-117034863D01*
X36568178Y-117031524D01*
X36569263Y-117028263D01*
X36570039Y-117025059D01*
X36570504Y-117021895D01*
X36570659Y-117018750D01*
X36570504Y-117015605D01*
X36570039Y-117012440D01*
X36569263Y-117009237D01*
X36568178Y-117005976D01*
X36566783Y-117002637D01*
X36565078Y-116999201D01*
X36563062Y-116995649D01*
X36560737Y-116991961D01*
X36558101Y-116988118D01*
X36555156Y-116984101D01*
X36548334Y-116975466D01*
X36540273Y-116965901D01*
X36530971Y-116955251D01*
X36526764Y-116950514D01*
X36522740Y-116945556D01*
X36518895Y-116940360D01*
X36515227Y-116934910D01*
X36511732Y-116929192D01*
X36508407Y-116923190D01*
X36505248Y-116916888D01*
X36502253Y-116910271D01*
X36499418Y-116903323D01*
X36496740Y-116896029D01*
X36491842Y-116880340D01*
X36487533Y-116863080D01*
X36483787Y-116844125D01*
X36480579Y-116823351D01*
X36477883Y-116800634D01*
X36475672Y-116775850D01*
X36473921Y-116748875D01*
X36472604Y-116719584D01*
X36471695Y-116687855D01*
X36471169Y-116653562D01*
X36471000Y-116616582D01*
X36471606Y-116535437D01*
X36472488Y-116500970D01*
X36473866Y-116470125D01*
X36475823Y-116442567D01*
X36476451Y-116436667D01*
X36841416Y-116436667D01*
X36841416Y-116683611D01*
X36841416Y-116930556D01*
X36964888Y-116930556D01*
X37088360Y-116930556D01*
X37098944Y-116722416D01*
X37101196Y-116673587D01*
X37102575Y-116630101D01*
X37102951Y-116591680D01*
X37102196Y-116558044D01*
X37100179Y-116528914D01*
X37096773Y-116504011D01*
X37091847Y-116483056D01*
X37088774Y-116473972D01*
X37085273Y-116465771D01*
X37081328Y-116458416D01*
X37076921Y-116451875D01*
X37072038Y-116446111D01*
X37066663Y-116441090D01*
X37060778Y-116436777D01*
X37054368Y-116433137D01*
X37047417Y-116430136D01*
X37039908Y-116427737D01*
X37031826Y-116425907D01*
X37023154Y-116424611D01*
X37003976Y-116423479D01*
X36982245Y-116424063D01*
X36957833Y-116426084D01*
X36841416Y-116436667D01*
X36476451Y-116436667D01*
X36478441Y-116417959D01*
X36481803Y-116395967D01*
X36485992Y-116376253D01*
X36491091Y-116358483D01*
X36497182Y-116342319D01*
X36504348Y-116327427D01*
X36512671Y-116313470D01*
X36522235Y-116300113D01*
X36533121Y-116287019D01*
X36545413Y-116273853D01*
X36559194Y-116260278D01*
X36573848Y-116245335D01*
X36580872Y-116238541D01*
X36587795Y-116232180D01*
X36594695Y-116226237D01*
X36601649Y-116220699D01*
X36608733Y-116215551D01*
X36616024Y-116210779D01*
X36623600Y-116206368D01*
X36631536Y-116202305D01*
X36639911Y-116198576D01*
X36648801Y-116195165D01*
X36658282Y-116192060D01*
X36668432Y-116189245D01*
X36679327Y-116186706D01*
X36691044Y-116184430D01*
X36703661Y-116182402D01*
X36717254Y-116180608D01*
X36731900Y-116179033D01*
X36747675Y-116177664D01*
X36764657Y-116176486D01*
X36782923Y-116175485D01*
X36823612Y-116173957D01*
X36870357Y-116172967D01*
X36923775Y-116172400D01*
X36984478Y-116172144D01*
X37053083Y-116172083D01*
X37458777Y-116172083D01*
X37458777Y-116591680D01*
X37458777Y-117054028D01*
G37*
G36*
X39240305Y-116524861D02*
G01*
X39278670Y-116661838D01*
X39311743Y-116774010D01*
X39335555Y-116849803D01*
X39342748Y-116870439D01*
X39346138Y-116877639D01*
X39347327Y-116875809D01*
X39349528Y-116870439D01*
X39356721Y-116849803D01*
X39367222Y-116817178D01*
X39380534Y-116774010D01*
X39396161Y-116721748D01*
X39413607Y-116661838D01*
X39432376Y-116595727D01*
X39451972Y-116524861D01*
X39550750Y-116172083D01*
X39723610Y-116172083D01*
X39757221Y-116172717D01*
X39788764Y-116174509D01*
X39817496Y-116177292D01*
X39842673Y-116180903D01*
X39853696Y-116182966D01*
X39863551Y-116185175D01*
X39872144Y-116187507D01*
X39879384Y-116189943D01*
X39885177Y-116192461D01*
X39889430Y-116195041D01*
X39892050Y-116197663D01*
X39892719Y-116198983D01*
X39892944Y-116200305D01*
X39892010Y-116205673D01*
X39889272Y-116216291D01*
X39878778Y-116252120D01*
X39840468Y-116374049D01*
X39784299Y-116547571D01*
X39716555Y-116754167D01*
X39662385Y-116916300D01*
X39620534Y-117047799D01*
X39589431Y-117156065D01*
X39577420Y-117203797D01*
X39567507Y-117248497D01*
X39559495Y-117291088D01*
X39553189Y-117332495D01*
X39548391Y-117373644D01*
X39544907Y-117415460D01*
X39541089Y-117504792D01*
X39540166Y-117607890D01*
X39540166Y-117935973D01*
X39346138Y-117935973D01*
X39152111Y-117935973D01*
X39152111Y-117607890D01*
X39151187Y-117504792D01*
X39149739Y-117458868D01*
X39147370Y-117415460D01*
X39143885Y-117373644D01*
X39139088Y-117332495D01*
X39132782Y-117291088D01*
X39124770Y-117248497D01*
X39114857Y-117203797D01*
X39102846Y-117156065D01*
X39088540Y-117104374D01*
X39071743Y-117047799D01*
X39029892Y-116916300D01*
X38975721Y-116754167D01*
X38906489Y-116547571D01*
X38850485Y-116374049D01*
X38813003Y-116252120D01*
X38802861Y-116216291D01*
X38799333Y-116200305D01*
X38799558Y-116198983D01*
X38800227Y-116197663D01*
X38801327Y-116196348D01*
X38802847Y-116195041D01*
X38804775Y-116193745D01*
X38807100Y-116192461D01*
X38809810Y-116191193D01*
X38812893Y-116189943D01*
X38820133Y-116187507D01*
X38828726Y-116185175D01*
X38838581Y-116182966D01*
X38849604Y-116180903D01*
X38861701Y-116179005D01*
X38874780Y-116177292D01*
X38888749Y-116175787D01*
X38903513Y-116174509D01*
X38918979Y-116173479D01*
X38935056Y-116172717D01*
X38951649Y-116172245D01*
X38968667Y-116172083D01*
X39141527Y-116172083D01*
X39240305Y-116524861D01*
G37*
G36*
X38552388Y-117054028D02*
G01*
X38552388Y-117935973D01*
X38146694Y-117935973D01*
X37740999Y-117935973D01*
X37740999Y-117777222D01*
X37740999Y-117618472D01*
X37952666Y-117618472D01*
X38164333Y-117618472D01*
X38164333Y-117406806D01*
X38164333Y-117195139D01*
X37970305Y-117195139D01*
X37776278Y-117195139D01*
X37776278Y-117054028D01*
X37776278Y-116912917D01*
X37970305Y-116912917D01*
X38164333Y-116912917D01*
X38164333Y-116701250D01*
X38164333Y-116489584D01*
X37952666Y-116489584D01*
X37740999Y-116489584D01*
X37740999Y-116330833D01*
X37740999Y-116172083D01*
X38146694Y-116172083D01*
X38552388Y-116172083D01*
X38552388Y-117054028D01*
G37*
G36*
X40880722Y-117054028D02*
G01*
X40880722Y-117935973D01*
X40475027Y-117935973D01*
X40069333Y-117935973D01*
X40069333Y-117777222D01*
X40069333Y-117618472D01*
X40280999Y-117618472D01*
X40492666Y-117618472D01*
X40492666Y-117406806D01*
X40492666Y-117195139D01*
X40298639Y-117195139D01*
X40104611Y-117195139D01*
X40104611Y-117054028D01*
X40104611Y-116912917D01*
X40298639Y-116912917D01*
X40492666Y-116912917D01*
X40492666Y-116701250D01*
X40492666Y-116489584D01*
X40280999Y-116489584D01*
X40069333Y-116489584D01*
X40069333Y-116330833D01*
X40069333Y-116172083D01*
X40475027Y-116172083D01*
X40880722Y-116172083D01*
X40880722Y-117054028D01*
G37*
G36*
X42451947Y-116136240D02*
G01*
X42493283Y-116137951D01*
X42533596Y-116141325D01*
X42572296Y-116146395D01*
X42608795Y-116153190D01*
X42642504Y-116161743D01*
X42672833Y-116172083D01*
X42687016Y-116178322D01*
X42700473Y-116185201D01*
X42713222Y-116192820D01*
X42725281Y-116201284D01*
X42736668Y-116210693D01*
X42747402Y-116221150D01*
X42757500Y-116232757D01*
X42766980Y-116245616D01*
X42775861Y-116259828D01*
X42784161Y-116275497D01*
X42791897Y-116292723D01*
X42799089Y-116311610D01*
X42805753Y-116332259D01*
X42811908Y-116354772D01*
X42817572Y-116379251D01*
X42822763Y-116405799D01*
X42827500Y-116434517D01*
X42831800Y-116465508D01*
X42835681Y-116498873D01*
X42839162Y-116534715D01*
X42842260Y-116573135D01*
X42844994Y-116614236D01*
X42847382Y-116658120D01*
X42849442Y-116704889D01*
X42852649Y-116807489D01*
X42854761Y-116922853D01*
X42855922Y-117051798D01*
X42856277Y-117195139D01*
X42856277Y-117935973D01*
X42662249Y-117935973D01*
X42468222Y-117935973D01*
X42468222Y-117177500D01*
X42468222Y-116419028D01*
X42344749Y-116419028D01*
X42221277Y-116419028D01*
X42221277Y-117177500D01*
X42221277Y-117935973D01*
X42027250Y-117935973D01*
X41833222Y-117935973D01*
X41833222Y-117177500D01*
X41833222Y-116419028D01*
X41709750Y-116419028D01*
X41586277Y-116419028D01*
X41586277Y-117177500D01*
X41586277Y-117935973D01*
X41392250Y-117935973D01*
X41198222Y-117935973D01*
X41198222Y-117145750D01*
X41199545Y-116688296D01*
X41202687Y-116543678D01*
X41208805Y-116441517D01*
X41213291Y-116403167D01*
X41218893Y-116371602D01*
X41225734Y-116345546D01*
X41233941Y-116323722D01*
X41243635Y-116304854D01*
X41254942Y-116287666D01*
X41282888Y-116253222D01*
X41297508Y-116236997D01*
X41311207Y-116222643D01*
X41317838Y-116216133D01*
X41324390Y-116210047D01*
X41330913Y-116204372D01*
X41337459Y-116199093D01*
X41344076Y-116194197D01*
X41350817Y-116189669D01*
X41357731Y-116185495D01*
X41364868Y-116181661D01*
X41372279Y-116178152D01*
X41380014Y-116174955D01*
X41388124Y-116172055D01*
X41396659Y-116169438D01*
X41405670Y-116167089D01*
X41415206Y-116164995D01*
X41425318Y-116163142D01*
X41436057Y-116161514D01*
X41447473Y-116160098D01*
X41459617Y-116158880D01*
X41472538Y-116157846D01*
X41486287Y-116156980D01*
X41516471Y-116155701D01*
X41550572Y-116154927D01*
X41588994Y-116154547D01*
X41632138Y-116154445D01*
X41701075Y-116155141D01*
X41760296Y-116157366D01*
X41786535Y-116159117D01*
X41810670Y-116161328D01*
X41832811Y-116164025D01*
X41853065Y-116167233D01*
X41871542Y-116170979D01*
X41888350Y-116175287D01*
X41903597Y-116180186D01*
X41917392Y-116185699D01*
X41929844Y-116191852D01*
X41941060Y-116198673D01*
X41951150Y-116206186D01*
X41960222Y-116214417D01*
X41971498Y-116223716D01*
X41981643Y-116231760D01*
X41990847Y-116238532D01*
X41995157Y-116241437D01*
X41999303Y-116244018D01*
X42003309Y-116246273D01*
X42007200Y-116248201D01*
X42010999Y-116249799D01*
X42014730Y-116251066D01*
X42018417Y-116252000D01*
X42022084Y-116252598D01*
X42025755Y-116252860D01*
X42029454Y-116252782D01*
X42033205Y-116252363D01*
X42037031Y-116251601D01*
X42040956Y-116250494D01*
X42045005Y-116249040D01*
X42049202Y-116247238D01*
X42053569Y-116245085D01*
X42058131Y-116242579D01*
X42062913Y-116239718D01*
X42067937Y-116236501D01*
X42073228Y-116232925D01*
X42084707Y-116224690D01*
X42097539Y-116214998D01*
X42111916Y-116203834D01*
X42120854Y-116197054D01*
X42131083Y-116190610D01*
X42155117Y-116178740D01*
X42183431Y-116168254D01*
X42215434Y-116159185D01*
X42250538Y-116151563D01*
X42288153Y-116145418D01*
X42327691Y-116140783D01*
X42368562Y-116137687D01*
X42410177Y-116136163D01*
X42451947Y-116136240D01*
G37*
G36*
X37610471Y-111568333D02*
G01*
X38072610Y-112944167D01*
X38524166Y-111557750D01*
X38979249Y-110174862D01*
X39931749Y-110181916D01*
X40887777Y-110192500D01*
X40907924Y-110252472D01*
X41342860Y-111547167D01*
X41668298Y-112508927D01*
X41808527Y-112912417D01*
X41812208Y-112906539D01*
X41820447Y-112886730D01*
X41849648Y-112808127D01*
X41952284Y-112514659D01*
X42101223Y-112076995D01*
X42281249Y-111540111D01*
X42743388Y-110157222D01*
X42746916Y-113004138D01*
X42750400Y-115819306D01*
X42750444Y-115854584D01*
X41805000Y-115854584D01*
X40863083Y-115854584D01*
X40841862Y-115791084D01*
X40915999Y-115791084D01*
X40917178Y-115792717D01*
X40920676Y-115794308D01*
X40934396Y-115797361D01*
X40956694Y-115800239D01*
X40987106Y-115802935D01*
X41070408Y-115807765D01*
X41180583Y-115811810D01*
X41313908Y-115815027D01*
X41466663Y-115817377D01*
X41635129Y-115818817D01*
X41815583Y-115819306D01*
X42715166Y-115819306D01*
X42711638Y-113092333D01*
X42711638Y-110368889D01*
X41815583Y-113067639D01*
X41180583Y-114981018D01*
X40915999Y-115791084D01*
X40841862Y-115791084D01*
X40404472Y-114482278D01*
X40225878Y-113948591D01*
X40076388Y-113514785D01*
X39971878Y-113225177D01*
X39941451Y-113148296D01*
X39928222Y-113124084D01*
X39915461Y-113155399D01*
X39886329Y-113237689D01*
X39786228Y-113532865D01*
X39642471Y-113964962D01*
X39469610Y-114489333D01*
X39025110Y-115836945D01*
X38079667Y-115836945D01*
X37130693Y-115836945D01*
X37116582Y-115794611D01*
X37176555Y-115794611D01*
X37177744Y-115795913D01*
X37181272Y-115797173D01*
X37195111Y-115799565D01*
X37217599Y-115801781D01*
X37248268Y-115803816D01*
X37332267Y-115807324D01*
X37443343Y-115810045D01*
X37577737Y-115811940D01*
X37731684Y-115812966D01*
X37901424Y-115813083D01*
X38083194Y-115812250D01*
X38989833Y-115801667D01*
X39900000Y-113050000D01*
X40542937Y-111092965D01*
X40810166Y-110252472D01*
X40809568Y-110249557D01*
X40807737Y-110246764D01*
X40804620Y-110244092D01*
X40800161Y-110241537D01*
X40794308Y-110239099D01*
X40787005Y-110236775D01*
X40778198Y-110234564D01*
X40767833Y-110232463D01*
X40742211Y-110228585D01*
X40709707Y-110225125D01*
X40669885Y-110222068D01*
X40622312Y-110219399D01*
X40566553Y-110217102D01*
X40502175Y-110215162D01*
X40428743Y-110213563D01*
X40345823Y-110212289D01*
X40149783Y-110210656D01*
X39910583Y-110210139D01*
X39014527Y-110210139D01*
X38093777Y-112990028D01*
X37176555Y-115794611D01*
X37116582Y-115794611D01*
X36679138Y-114482278D01*
X36354583Y-113521399D01*
X36252498Y-113225673D01*
X36209944Y-113113500D01*
X36206304Y-113118554D01*
X36198189Y-113137230D01*
X36169485Y-113212719D01*
X36125732Y-113334510D01*
X36068833Y-113497146D01*
X35923202Y-113923125D01*
X35747805Y-114447000D01*
X35429864Y-115406556D01*
X35289194Y-115815778D01*
X35285397Y-115760801D01*
X35281973Y-115598213D01*
X35276405Y-114996010D01*
X35272823Y-114100781D01*
X35271555Y-113004138D01*
X35271555Y-110210139D01*
X35306833Y-110210139D01*
X35310361Y-112915944D01*
X35313887Y-115625278D01*
X36209944Y-112926528D01*
X37105999Y-110217194D01*
X37087603Y-110215878D01*
X37034893Y-110214604D01*
X36841416Y-110212344D01*
X36555335Y-110210745D01*
X36206416Y-110210139D01*
X35306833Y-110210139D01*
X35271555Y-110210139D01*
X35271555Y-110174862D01*
X36213471Y-110181916D01*
X37151860Y-110192500D01*
X37160092Y-110217194D01*
X37610471Y-111568333D01*
G37*
G36*
X35775504Y-116137295D02*
G01*
X35807960Y-116138085D01*
X35836882Y-116139397D01*
X35862661Y-116141349D01*
X35885692Y-116144061D01*
X35906366Y-116147652D01*
X35925076Y-116152240D01*
X35942215Y-116157944D01*
X35958176Y-116164884D01*
X35973352Y-116173177D01*
X35988135Y-116182943D01*
X36002918Y-116194300D01*
X36018094Y-116207368D01*
X36034055Y-116222266D01*
X36051194Y-116239111D01*
X36068621Y-116256776D01*
X36083950Y-116273108D01*
X36090870Y-116280951D01*
X36097315Y-116288674D01*
X36103303Y-116296349D01*
X36108851Y-116304045D01*
X36113975Y-116311834D01*
X36118692Y-116319787D01*
X36123019Y-116327976D01*
X36126972Y-116336470D01*
X36130569Y-116345342D01*
X36133826Y-116354662D01*
X36136760Y-116364501D01*
X36139388Y-116374931D01*
X36141727Y-116386022D01*
X36143793Y-116397846D01*
X36145603Y-116410473D01*
X36147174Y-116423975D01*
X36148523Y-116438423D01*
X36149667Y-116453887D01*
X36151405Y-116488151D01*
X36152523Y-116527333D01*
X36153155Y-116572004D01*
X36153436Y-116622731D01*
X36153499Y-116680083D01*
X36152907Y-116780177D01*
X36150743Y-116860386D01*
X36148891Y-116894054D01*
X36146430Y-116923976D01*
X36143286Y-116950559D01*
X36139388Y-116974212D01*
X36134663Y-116995344D01*
X36129039Y-117014361D01*
X36122443Y-117031674D01*
X36114804Y-117047689D01*
X36106048Y-117062816D01*
X36096104Y-117077462D01*
X36084898Y-117092036D01*
X36072360Y-117106945D01*
X36060500Y-117120227D01*
X36048589Y-117132342D01*
X36042546Y-117137984D01*
X36036409Y-117143361D01*
X36030150Y-117148482D01*
X36023743Y-117153357D01*
X36017160Y-117157994D01*
X36010374Y-117162402D01*
X36003359Y-117166591D01*
X35996086Y-117170569D01*
X35988529Y-117174345D01*
X35980660Y-117177929D01*
X35972454Y-117181330D01*
X35963881Y-117184556D01*
X35954916Y-117187616D01*
X35945531Y-117190521D01*
X35935699Y-117193278D01*
X35925393Y-117195897D01*
X35903249Y-117200757D01*
X35878884Y-117205171D01*
X35852079Y-117209214D01*
X35822618Y-117212958D01*
X35790285Y-117216473D01*
X35754860Y-117219834D01*
X35518499Y-117241000D01*
X35518499Y-117445611D01*
X35518499Y-117653751D01*
X35659610Y-117653751D01*
X35705175Y-117653365D01*
X35723723Y-117652634D01*
X35739702Y-117651325D01*
X35746788Y-117650402D01*
X35753304Y-117649272D01*
X35759273Y-117647914D01*
X35764720Y-117646309D01*
X35769668Y-117644435D01*
X35774142Y-117642271D01*
X35778164Y-117639798D01*
X35781760Y-117636993D01*
X35784952Y-117633838D01*
X35787765Y-117630310D01*
X35790223Y-117626389D01*
X35792350Y-117622055D01*
X35794169Y-117617287D01*
X35795704Y-117612064D01*
X35796980Y-117606366D01*
X35798020Y-117600172D01*
X35799489Y-117586212D01*
X35800301Y-117570021D01*
X35800648Y-117551431D01*
X35800721Y-117530278D01*
X35800721Y-117406806D01*
X35977111Y-117406806D01*
X36153499Y-117406806D01*
X36153499Y-117579667D01*
X36153246Y-117603996D01*
X36152466Y-117626796D01*
X36151127Y-117648190D01*
X36149200Y-117668303D01*
X36146652Y-117687257D01*
X36143453Y-117705179D01*
X36139572Y-117722191D01*
X36134978Y-117738417D01*
X36129640Y-117753982D01*
X36123527Y-117769010D01*
X36116607Y-117783624D01*
X36108851Y-117797948D01*
X36100226Y-117812108D01*
X36090702Y-117826226D01*
X36080248Y-117840427D01*
X36068833Y-117854834D01*
X36054276Y-117871640D01*
X36047393Y-117879277D01*
X36040686Y-117886425D01*
X36034090Y-117893101D01*
X36027541Y-117899319D01*
X36020971Y-117905097D01*
X36014317Y-117910451D01*
X36007514Y-117915397D01*
X36000495Y-117919950D01*
X35993195Y-117924128D01*
X35985551Y-117927945D01*
X35977495Y-117931419D01*
X35968963Y-117934566D01*
X35959890Y-117937401D01*
X35950211Y-117939941D01*
X35939859Y-117942202D01*
X35928771Y-117944200D01*
X35916880Y-117945952D01*
X35904122Y-117947472D01*
X35890431Y-117948779D01*
X35875742Y-117949887D01*
X35859990Y-117950812D01*
X35843110Y-117951572D01*
X35805702Y-117952658D01*
X35762998Y-117953274D01*
X35714474Y-117953549D01*
X35659610Y-117953612D01*
X35556223Y-117953274D01*
X35476111Y-117951572D01*
X35443478Y-117949887D01*
X35415098Y-117947472D01*
X35390449Y-117944200D01*
X35369009Y-117939941D01*
X35350257Y-117934566D01*
X35333670Y-117927945D01*
X35318726Y-117919950D01*
X35304903Y-117910451D01*
X35291680Y-117899319D01*
X35278534Y-117886425D01*
X35250388Y-117854834D01*
X35236647Y-117838176D01*
X35224467Y-117822277D01*
X35218933Y-117814463D01*
X35213754Y-117806658D01*
X35208919Y-117798803D01*
X35204416Y-117790837D01*
X35200234Y-117782701D01*
X35196360Y-117774334D01*
X35192784Y-117765677D01*
X35189492Y-117756669D01*
X35186475Y-117747250D01*
X35183720Y-117737360D01*
X35181216Y-117726939D01*
X35178950Y-117715927D01*
X35176912Y-117704264D01*
X35175090Y-117691890D01*
X35173472Y-117678744D01*
X35172047Y-117664767D01*
X35169726Y-117634079D01*
X35168037Y-117599345D01*
X35166884Y-117560083D01*
X35166176Y-117515815D01*
X35165820Y-117466058D01*
X35165722Y-117410332D01*
X35166201Y-117329045D01*
X35167906Y-117256785D01*
X35171233Y-117192989D01*
X35176581Y-117137096D01*
X35184347Y-117088540D01*
X35189261Y-117066837D01*
X35194929Y-117046758D01*
X35201401Y-117028232D01*
X35208726Y-117011189D01*
X35216954Y-116995557D01*
X35226135Y-116981267D01*
X35236318Y-116968249D01*
X35247554Y-116956431D01*
X35259892Y-116945743D01*
X35273381Y-116936116D01*
X35288072Y-116927478D01*
X35304014Y-116919760D01*
X35321257Y-116912890D01*
X35339851Y-116906798D01*
X35381289Y-116896669D01*
X35428727Y-116888808D01*
X35482563Y-116882653D01*
X35543193Y-116877639D01*
X35783083Y-116860001D01*
X35793666Y-116655389D01*
X35804250Y-116454306D01*
X35677250Y-116454306D01*
X35657841Y-116454444D01*
X35640545Y-116454912D01*
X35625245Y-116455794D01*
X35611820Y-116457172D01*
X35600152Y-116459129D01*
X35594940Y-116460350D01*
X35590123Y-116461747D01*
X35585685Y-116463330D01*
X35581613Y-116465110D01*
X35577890Y-116467096D01*
X35574503Y-116469299D01*
X35571436Y-116471729D01*
X35568675Y-116474398D01*
X35566204Y-116477314D01*
X35564009Y-116480488D01*
X35562075Y-116483932D01*
X35560387Y-116487654D01*
X35558931Y-116491666D01*
X35557691Y-116495978D01*
X35555800Y-116505541D01*
X35554597Y-116516428D01*
X35553962Y-116528720D01*
X35553777Y-116542500D01*
X35553613Y-116557443D01*
X35552964Y-116570598D01*
X35552383Y-116576541D01*
X35551591Y-116582079D01*
X35550559Y-116587227D01*
X35549257Y-116591999D01*
X35547655Y-116596410D01*
X35545724Y-116600472D01*
X35543434Y-116604202D01*
X35540754Y-116607612D01*
X35537657Y-116610718D01*
X35534111Y-116613533D01*
X35530087Y-116616071D01*
X35525555Y-116618347D01*
X35520485Y-116620375D01*
X35514849Y-116622170D01*
X35508616Y-116623744D01*
X35501756Y-116625114D01*
X35494240Y-116626292D01*
X35486038Y-116627293D01*
X35477120Y-116628131D01*
X35467457Y-116628820D01*
X35445775Y-116629811D01*
X35420755Y-116630378D01*
X35392159Y-116630634D01*
X35359749Y-116630695D01*
X35298743Y-116630378D01*
X35273723Y-116629811D01*
X35252042Y-116628820D01*
X35233460Y-116627293D01*
X35217742Y-116625114D01*
X35204649Y-116622170D01*
X35199013Y-116620375D01*
X35193944Y-116618347D01*
X35189412Y-116616071D01*
X35185388Y-116613533D01*
X35181842Y-116610718D01*
X35178744Y-116607612D01*
X35176065Y-116604202D01*
X35173774Y-116600472D01*
X35171843Y-116596410D01*
X35170241Y-116591999D01*
X35167907Y-116582079D01*
X35166535Y-116570598D01*
X35165885Y-116557443D01*
X35165722Y-116542500D01*
X35166815Y-116513768D01*
X35170007Y-116484623D01*
X35175163Y-116455312D01*
X35182148Y-116426084D01*
X35190828Y-116397186D01*
X35201068Y-116368868D01*
X35212735Y-116341376D01*
X35225693Y-116314959D01*
X35239810Y-116289864D01*
X35254949Y-116266341D01*
X35270977Y-116244637D01*
X35287760Y-116225000D01*
X35305163Y-116207678D01*
X35323052Y-116192919D01*
X35341292Y-116180972D01*
X35350502Y-116176130D01*
X35359749Y-116172083D01*
X35370800Y-116168199D01*
X35383996Y-116164490D01*
X35399165Y-116160968D01*
X35416139Y-116157642D01*
X35434745Y-116154522D01*
X35454813Y-116151620D01*
X35498656Y-116146507D01*
X35546301Y-116142387D01*
X35596386Y-116139341D01*
X35647546Y-116137453D01*
X35698417Y-116136806D01*
X35775504Y-116137295D01*
G37*
D11*
X22854633Y-101016551D02*
X23569166Y-101016551D01*
X23569166Y-101016551D02*
X23712072Y-100968916D01*
X23712072Y-100968916D02*
X23807344Y-100873645D01*
X23807344Y-100873645D02*
X23854979Y-100730738D01*
X23854979Y-100730738D02*
X23854979Y-100635467D01*
X22854633Y-101397635D02*
X22854633Y-102016897D01*
X22854633Y-102016897D02*
X23235717Y-101683448D01*
X23235717Y-101683448D02*
X23235717Y-101826355D01*
X23235717Y-101826355D02*
X23283353Y-101921626D01*
X23283353Y-101921626D02*
X23330988Y-101969261D01*
X23330988Y-101969261D02*
X23426259Y-102016897D01*
X23426259Y-102016897D02*
X23664437Y-102016897D01*
X23664437Y-102016897D02*
X23759708Y-101969261D01*
X23759708Y-101969261D02*
X23807344Y-101921626D01*
X23807344Y-101921626D02*
X23854979Y-101826355D01*
X23854979Y-101826355D02*
X23854979Y-101540542D01*
X23854979Y-101540542D02*
X23807344Y-101445271D01*
X23807344Y-101445271D02*
X23759708Y-101397635D01*
X116866666Y-104762319D02*
X117199999Y-104286128D01*
X117438094Y-104762319D02*
X117438094Y-103762319D01*
X117438094Y-103762319D02*
X117057142Y-103762319D01*
X117057142Y-103762319D02*
X116961904Y-103809938D01*
X116961904Y-103809938D02*
X116914285Y-103857557D01*
X116914285Y-103857557D02*
X116866666Y-103952795D01*
X116866666Y-103952795D02*
X116866666Y-104095652D01*
X116866666Y-104095652D02*
X116914285Y-104190890D01*
X116914285Y-104190890D02*
X116961904Y-104238509D01*
X116961904Y-104238509D02*
X117057142Y-104286128D01*
X117057142Y-104286128D02*
X117438094Y-104286128D01*
X116390475Y-104762319D02*
X116199999Y-104762319D01*
X116199999Y-104762319D02*
X116104761Y-104714700D01*
X116104761Y-104714700D02*
X116057142Y-104667080D01*
X116057142Y-104667080D02*
X115961904Y-104524223D01*
X115961904Y-104524223D02*
X115914285Y-104333747D01*
X115914285Y-104333747D02*
X115914285Y-103952795D01*
X115914285Y-103952795D02*
X115961904Y-103857557D01*
X115961904Y-103857557D02*
X116009523Y-103809938D01*
X116009523Y-103809938D02*
X116104761Y-103762319D01*
X116104761Y-103762319D02*
X116295237Y-103762319D01*
X116295237Y-103762319D02*
X116390475Y-103809938D01*
X116390475Y-103809938D02*
X116438094Y-103857557D01*
X116438094Y-103857557D02*
X116485713Y-103952795D01*
X116485713Y-103952795D02*
X116485713Y-104190890D01*
X116485713Y-104190890D02*
X116438094Y-104286128D01*
X116438094Y-104286128D02*
X116390475Y-104333747D01*
X116390475Y-104333747D02*
X116295237Y-104381366D01*
X116295237Y-104381366D02*
X116104761Y-104381366D01*
X116104761Y-104381366D02*
X116009523Y-104333747D01*
X116009523Y-104333747D02*
X115961904Y-104286128D01*
X115961904Y-104286128D02*
X115914285Y-104190890D01*
X120642857Y-60554819D02*
X120976190Y-60078628D01*
X121214285Y-60554819D02*
X121214285Y-59554819D01*
X121214285Y-59554819D02*
X120833333Y-59554819D01*
X120833333Y-59554819D02*
X120738095Y-59602438D01*
X120738095Y-59602438D02*
X120690476Y-59650057D01*
X120690476Y-59650057D02*
X120642857Y-59745295D01*
X120642857Y-59745295D02*
X120642857Y-59888152D01*
X120642857Y-59888152D02*
X120690476Y-59983390D01*
X120690476Y-59983390D02*
X120738095Y-60031009D01*
X120738095Y-60031009D02*
X120833333Y-60078628D01*
X120833333Y-60078628D02*
X121214285Y-60078628D01*
X120261904Y-59650057D02*
X120214285Y-59602438D01*
X120214285Y-59602438D02*
X120119047Y-59554819D01*
X120119047Y-59554819D02*
X119880952Y-59554819D01*
X119880952Y-59554819D02*
X119785714Y-59602438D01*
X119785714Y-59602438D02*
X119738095Y-59650057D01*
X119738095Y-59650057D02*
X119690476Y-59745295D01*
X119690476Y-59745295D02*
X119690476Y-59840533D01*
X119690476Y-59840533D02*
X119738095Y-59983390D01*
X119738095Y-59983390D02*
X120309523Y-60554819D01*
X120309523Y-60554819D02*
X119690476Y-60554819D01*
X119309523Y-59650057D02*
X119261904Y-59602438D01*
X119261904Y-59602438D02*
X119166666Y-59554819D01*
X119166666Y-59554819D02*
X118928571Y-59554819D01*
X118928571Y-59554819D02*
X118833333Y-59602438D01*
X118833333Y-59602438D02*
X118785714Y-59650057D01*
X118785714Y-59650057D02*
X118738095Y-59745295D01*
X118738095Y-59745295D02*
X118738095Y-59840533D01*
X118738095Y-59840533D02*
X118785714Y-59983390D01*
X118785714Y-59983390D02*
X119357142Y-60554819D01*
X119357142Y-60554819D02*
X118738095Y-60554819D01*
X52433333Y-93404819D02*
X52433333Y-94119104D01*
X52433333Y-94119104D02*
X52480952Y-94261961D01*
X52480952Y-94261961D02*
X52576190Y-94357200D01*
X52576190Y-94357200D02*
X52719047Y-94404819D01*
X52719047Y-94404819D02*
X52814285Y-94404819D01*
X52052380Y-93404819D02*
X51385714Y-93404819D01*
X51385714Y-93404819D02*
X51814285Y-94404819D01*
X104538094Y-59212319D02*
X103966666Y-59212319D01*
X104252380Y-60212319D02*
X104252380Y-59212319D01*
X103633332Y-60212319D02*
X103633332Y-59212319D01*
X103633332Y-59212319D02*
X103252380Y-59212319D01*
X103252380Y-59212319D02*
X103157142Y-59259938D01*
X103157142Y-59259938D02*
X103109523Y-59307557D01*
X103109523Y-59307557D02*
X103061904Y-59402795D01*
X103061904Y-59402795D02*
X103061904Y-59545652D01*
X103061904Y-59545652D02*
X103109523Y-59640890D01*
X103109523Y-59640890D02*
X103157142Y-59688509D01*
X103157142Y-59688509D02*
X103252380Y-59736128D01*
X103252380Y-59736128D02*
X103633332Y-59736128D01*
X102109523Y-60212319D02*
X102680951Y-60212319D01*
X102395237Y-60212319D02*
X102395237Y-59212319D01*
X102395237Y-59212319D02*
X102490475Y-59355176D01*
X102490475Y-59355176D02*
X102585713Y-59450414D01*
X102585713Y-59450414D02*
X102680951Y-59498033D01*
X101776189Y-59212319D02*
X101109523Y-59212319D01*
X101109523Y-59212319D02*
X101538094Y-60212319D01*
X101542857Y-99612319D02*
X101876190Y-99136128D01*
X102114285Y-99612319D02*
X102114285Y-98612319D01*
X102114285Y-98612319D02*
X101733333Y-98612319D01*
X101733333Y-98612319D02*
X101638095Y-98659938D01*
X101638095Y-98659938D02*
X101590476Y-98707557D01*
X101590476Y-98707557D02*
X101542857Y-98802795D01*
X101542857Y-98802795D02*
X101542857Y-98945652D01*
X101542857Y-98945652D02*
X101590476Y-99040890D01*
X101590476Y-99040890D02*
X101638095Y-99088509D01*
X101638095Y-99088509D02*
X101733333Y-99136128D01*
X101733333Y-99136128D02*
X102114285Y-99136128D01*
X100590476Y-99612319D02*
X101161904Y-99612319D01*
X100876190Y-99612319D02*
X100876190Y-98612319D01*
X100876190Y-98612319D02*
X100971428Y-98755176D01*
X100971428Y-98755176D02*
X101066666Y-98850414D01*
X101066666Y-98850414D02*
X101161904Y-98898033D01*
X99685714Y-98612319D02*
X100161904Y-98612319D01*
X100161904Y-98612319D02*
X100209523Y-99088509D01*
X100209523Y-99088509D02*
X100161904Y-99040890D01*
X100161904Y-99040890D02*
X100066666Y-98993271D01*
X100066666Y-98993271D02*
X99828571Y-98993271D01*
X99828571Y-98993271D02*
X99733333Y-99040890D01*
X99733333Y-99040890D02*
X99685714Y-99088509D01*
X99685714Y-99088509D02*
X99638095Y-99183747D01*
X99638095Y-99183747D02*
X99638095Y-99421842D01*
X99638095Y-99421842D02*
X99685714Y-99517080D01*
X99685714Y-99517080D02*
X99733333Y-99564700D01*
X99733333Y-99564700D02*
X99828571Y-99612319D01*
X99828571Y-99612319D02*
X100066666Y-99612319D01*
X100066666Y-99612319D02*
X100161904Y-99564700D01*
X100161904Y-99564700D02*
X100209523Y-99517080D01*
X35954819Y-99888095D02*
X36764342Y-99888095D01*
X36764342Y-99888095D02*
X36859580Y-99935714D01*
X36859580Y-99935714D02*
X36907200Y-99983333D01*
X36907200Y-99983333D02*
X36954819Y-100078571D01*
X36954819Y-100078571D02*
X36954819Y-100269047D01*
X36954819Y-100269047D02*
X36907200Y-100364285D01*
X36907200Y-100364285D02*
X36859580Y-100411904D01*
X36859580Y-100411904D02*
X36764342Y-100459523D01*
X36764342Y-100459523D02*
X35954819Y-100459523D01*
X36954819Y-101459523D02*
X36954819Y-100888095D01*
X36954819Y-101173809D02*
X35954819Y-101173809D01*
X35954819Y-101173809D02*
X36097676Y-101078571D01*
X36097676Y-101078571D02*
X36192914Y-100983333D01*
X36192914Y-100983333D02*
X36240533Y-100888095D01*
X117362857Y-115032080D02*
X117410476Y-115079700D01*
X117410476Y-115079700D02*
X117553333Y-115127319D01*
X117553333Y-115127319D02*
X117648571Y-115127319D01*
X117648571Y-115127319D02*
X117791428Y-115079700D01*
X117791428Y-115079700D02*
X117886666Y-114984461D01*
X117886666Y-114984461D02*
X117934285Y-114889223D01*
X117934285Y-114889223D02*
X117981904Y-114698747D01*
X117981904Y-114698747D02*
X117981904Y-114555890D01*
X117981904Y-114555890D02*
X117934285Y-114365414D01*
X117934285Y-114365414D02*
X117886666Y-114270176D01*
X117886666Y-114270176D02*
X117791428Y-114174938D01*
X117791428Y-114174938D02*
X117648571Y-114127319D01*
X117648571Y-114127319D02*
X117553333Y-114127319D01*
X117553333Y-114127319D02*
X117410476Y-114174938D01*
X117410476Y-114174938D02*
X117362857Y-114222557D01*
X116410476Y-115127319D02*
X116981904Y-115127319D01*
X116696190Y-115127319D02*
X116696190Y-114127319D01*
X116696190Y-114127319D02*
X116791428Y-114270176D01*
X116791428Y-114270176D02*
X116886666Y-114365414D01*
X116886666Y-114365414D02*
X116981904Y-114413033D01*
X115458095Y-115127319D02*
X116029523Y-115127319D01*
X115743809Y-115127319D02*
X115743809Y-114127319D01*
X115743809Y-114127319D02*
X115839047Y-114270176D01*
X115839047Y-114270176D02*
X115934285Y-114365414D01*
X115934285Y-114365414D02*
X116029523Y-114413033D01*
X109642857Y-99962319D02*
X109976190Y-99486128D01*
X110214285Y-99962319D02*
X110214285Y-98962319D01*
X110214285Y-98962319D02*
X109833333Y-98962319D01*
X109833333Y-98962319D02*
X109738095Y-99009938D01*
X109738095Y-99009938D02*
X109690476Y-99057557D01*
X109690476Y-99057557D02*
X109642857Y-99152795D01*
X109642857Y-99152795D02*
X109642857Y-99295652D01*
X109642857Y-99295652D02*
X109690476Y-99390890D01*
X109690476Y-99390890D02*
X109738095Y-99438509D01*
X109738095Y-99438509D02*
X109833333Y-99486128D01*
X109833333Y-99486128D02*
X110214285Y-99486128D01*
X108690476Y-99962319D02*
X109261904Y-99962319D01*
X108976190Y-99962319D02*
X108976190Y-98962319D01*
X108976190Y-98962319D02*
X109071428Y-99105176D01*
X109071428Y-99105176D02*
X109166666Y-99200414D01*
X109166666Y-99200414D02*
X109261904Y-99248033D01*
X107833333Y-99295652D02*
X107833333Y-99962319D01*
X108071428Y-98914700D02*
X108309523Y-99628985D01*
X108309523Y-99628985D02*
X107690476Y-99628985D01*
X125161904Y-73962319D02*
X125161904Y-74771842D01*
X125161904Y-74771842D02*
X125114285Y-74867080D01*
X125114285Y-74867080D02*
X125066666Y-74914700D01*
X125066666Y-74914700D02*
X124971428Y-74962319D01*
X124971428Y-74962319D02*
X124780952Y-74962319D01*
X124780952Y-74962319D02*
X124685714Y-74914700D01*
X124685714Y-74914700D02*
X124638095Y-74867080D01*
X124638095Y-74867080D02*
X124590476Y-74771842D01*
X124590476Y-74771842D02*
X124590476Y-73962319D01*
X123685714Y-73962319D02*
X123876190Y-73962319D01*
X123876190Y-73962319D02*
X123971428Y-74009938D01*
X123971428Y-74009938D02*
X124019047Y-74057557D01*
X124019047Y-74057557D02*
X124114285Y-74200414D01*
X124114285Y-74200414D02*
X124161904Y-74390890D01*
X124161904Y-74390890D02*
X124161904Y-74771842D01*
X124161904Y-74771842D02*
X124114285Y-74867080D01*
X124114285Y-74867080D02*
X124066666Y-74914700D01*
X124066666Y-74914700D02*
X123971428Y-74962319D01*
X123971428Y-74962319D02*
X123780952Y-74962319D01*
X123780952Y-74962319D02*
X123685714Y-74914700D01*
X123685714Y-74914700D02*
X123638095Y-74867080D01*
X123638095Y-74867080D02*
X123590476Y-74771842D01*
X123590476Y-74771842D02*
X123590476Y-74533747D01*
X123590476Y-74533747D02*
X123638095Y-74438509D01*
X123638095Y-74438509D02*
X123685714Y-74390890D01*
X123685714Y-74390890D02*
X123780952Y-74343271D01*
X123780952Y-74343271D02*
X123971428Y-74343271D01*
X123971428Y-74343271D02*
X124066666Y-74390890D01*
X124066666Y-74390890D02*
X124114285Y-74438509D01*
X124114285Y-74438509D02*
X124161904Y-74533747D01*
X101542857Y-104262319D02*
X101876190Y-103786128D01*
X102114285Y-104262319D02*
X102114285Y-103262319D01*
X102114285Y-103262319D02*
X101733333Y-103262319D01*
X101733333Y-103262319D02*
X101638095Y-103309938D01*
X101638095Y-103309938D02*
X101590476Y-103357557D01*
X101590476Y-103357557D02*
X101542857Y-103452795D01*
X101542857Y-103452795D02*
X101542857Y-103595652D01*
X101542857Y-103595652D02*
X101590476Y-103690890D01*
X101590476Y-103690890D02*
X101638095Y-103738509D01*
X101638095Y-103738509D02*
X101733333Y-103786128D01*
X101733333Y-103786128D02*
X102114285Y-103786128D01*
X100590476Y-104262319D02*
X101161904Y-104262319D01*
X100876190Y-104262319D02*
X100876190Y-103262319D01*
X100876190Y-103262319D02*
X100971428Y-103405176D01*
X100971428Y-103405176D02*
X101066666Y-103500414D01*
X101066666Y-103500414D02*
X101161904Y-103548033D01*
X99733333Y-103262319D02*
X99923809Y-103262319D01*
X99923809Y-103262319D02*
X100019047Y-103309938D01*
X100019047Y-103309938D02*
X100066666Y-103357557D01*
X100066666Y-103357557D02*
X100161904Y-103500414D01*
X100161904Y-103500414D02*
X100209523Y-103690890D01*
X100209523Y-103690890D02*
X100209523Y-104071842D01*
X100209523Y-104071842D02*
X100161904Y-104167080D01*
X100161904Y-104167080D02*
X100114285Y-104214700D01*
X100114285Y-104214700D02*
X100019047Y-104262319D01*
X100019047Y-104262319D02*
X99828571Y-104262319D01*
X99828571Y-104262319D02*
X99733333Y-104214700D01*
X99733333Y-104214700D02*
X99685714Y-104167080D01*
X99685714Y-104167080D02*
X99638095Y-104071842D01*
X99638095Y-104071842D02*
X99638095Y-103833747D01*
X99638095Y-103833747D02*
X99685714Y-103738509D01*
X99685714Y-103738509D02*
X99733333Y-103690890D01*
X99733333Y-103690890D02*
X99828571Y-103643271D01*
X99828571Y-103643271D02*
X100019047Y-103643271D01*
X100019047Y-103643271D02*
X100114285Y-103690890D01*
X100114285Y-103690890D02*
X100161904Y-103738509D01*
X100161904Y-103738509D02*
X100209523Y-103833747D01*
X106909580Y-112707142D02*
X106957200Y-112659523D01*
X106957200Y-112659523D02*
X107004819Y-112516666D01*
X107004819Y-112516666D02*
X107004819Y-112421428D01*
X107004819Y-112421428D02*
X106957200Y-112278571D01*
X106957200Y-112278571D02*
X106861961Y-112183333D01*
X106861961Y-112183333D02*
X106766723Y-112135714D01*
X106766723Y-112135714D02*
X106576247Y-112088095D01*
X106576247Y-112088095D02*
X106433390Y-112088095D01*
X106433390Y-112088095D02*
X106242914Y-112135714D01*
X106242914Y-112135714D02*
X106147676Y-112183333D01*
X106147676Y-112183333D02*
X106052438Y-112278571D01*
X106052438Y-112278571D02*
X106004819Y-112421428D01*
X106004819Y-112421428D02*
X106004819Y-112516666D01*
X106004819Y-112516666D02*
X106052438Y-112659523D01*
X106052438Y-112659523D02*
X106100057Y-112707142D01*
X107004819Y-113659523D02*
X107004819Y-113088095D01*
X107004819Y-113373809D02*
X106004819Y-113373809D01*
X106004819Y-113373809D02*
X106147676Y-113278571D01*
X106147676Y-113278571D02*
X106242914Y-113183333D01*
X106242914Y-113183333D02*
X106290533Y-113088095D01*
X106100057Y-114040476D02*
X106052438Y-114088095D01*
X106052438Y-114088095D02*
X106004819Y-114183333D01*
X106004819Y-114183333D02*
X106004819Y-114421428D01*
X106004819Y-114421428D02*
X106052438Y-114516666D01*
X106052438Y-114516666D02*
X106100057Y-114564285D01*
X106100057Y-114564285D02*
X106195295Y-114611904D01*
X106195295Y-114611904D02*
X106290533Y-114611904D01*
X106290533Y-114611904D02*
X106433390Y-114564285D01*
X106433390Y-114564285D02*
X107004819Y-113992857D01*
X107004819Y-113992857D02*
X107004819Y-114611904D01*
X54961904Y-95804819D02*
X54390476Y-95804819D01*
X54676190Y-96804819D02*
X54676190Y-95804819D01*
X54057142Y-96804819D02*
X54057142Y-95804819D01*
X54057142Y-95804819D02*
X53676190Y-95804819D01*
X53676190Y-95804819D02*
X53580952Y-95852438D01*
X53580952Y-95852438D02*
X53533333Y-95900057D01*
X53533333Y-95900057D02*
X53485714Y-95995295D01*
X53485714Y-95995295D02*
X53485714Y-96138152D01*
X53485714Y-96138152D02*
X53533333Y-96233390D01*
X53533333Y-96233390D02*
X53580952Y-96281009D01*
X53580952Y-96281009D02*
X53676190Y-96328628D01*
X53676190Y-96328628D02*
X54057142Y-96328628D01*
X53152380Y-95804819D02*
X52485714Y-95804819D01*
X52485714Y-95804819D02*
X52914285Y-96804819D01*
X30559580Y-99313333D02*
X30607200Y-99265714D01*
X30607200Y-99265714D02*
X30654819Y-99122857D01*
X30654819Y-99122857D02*
X30654819Y-99027619D01*
X30654819Y-99027619D02*
X30607200Y-98884762D01*
X30607200Y-98884762D02*
X30511961Y-98789524D01*
X30511961Y-98789524D02*
X30416723Y-98741905D01*
X30416723Y-98741905D02*
X30226247Y-98694286D01*
X30226247Y-98694286D02*
X30083390Y-98694286D01*
X30083390Y-98694286D02*
X29892914Y-98741905D01*
X29892914Y-98741905D02*
X29797676Y-98789524D01*
X29797676Y-98789524D02*
X29702438Y-98884762D01*
X29702438Y-98884762D02*
X29654819Y-99027619D01*
X29654819Y-99027619D02*
X29654819Y-99122857D01*
X29654819Y-99122857D02*
X29702438Y-99265714D01*
X29702438Y-99265714D02*
X29750057Y-99313333D01*
X29654819Y-99646667D02*
X29654819Y-100265714D01*
X29654819Y-100265714D02*
X30035771Y-99932381D01*
X30035771Y-99932381D02*
X30035771Y-100075238D01*
X30035771Y-100075238D02*
X30083390Y-100170476D01*
X30083390Y-100170476D02*
X30131009Y-100218095D01*
X30131009Y-100218095D02*
X30226247Y-100265714D01*
X30226247Y-100265714D02*
X30464342Y-100265714D01*
X30464342Y-100265714D02*
X30559580Y-100218095D01*
X30559580Y-100218095D02*
X30607200Y-100170476D01*
X30607200Y-100170476D02*
X30654819Y-100075238D01*
X30654819Y-100075238D02*
X30654819Y-99789524D01*
X30654819Y-99789524D02*
X30607200Y-99694286D01*
X30607200Y-99694286D02*
X30559580Y-99646667D01*
X119342857Y-67354819D02*
X119676190Y-66878628D01*
X119914285Y-67354819D02*
X119914285Y-66354819D01*
X119914285Y-66354819D02*
X119533333Y-66354819D01*
X119533333Y-66354819D02*
X119438095Y-66402438D01*
X119438095Y-66402438D02*
X119390476Y-66450057D01*
X119390476Y-66450057D02*
X119342857Y-66545295D01*
X119342857Y-66545295D02*
X119342857Y-66688152D01*
X119342857Y-66688152D02*
X119390476Y-66783390D01*
X119390476Y-66783390D02*
X119438095Y-66831009D01*
X119438095Y-66831009D02*
X119533333Y-66878628D01*
X119533333Y-66878628D02*
X119914285Y-66878628D01*
X118961904Y-66450057D02*
X118914285Y-66402438D01*
X118914285Y-66402438D02*
X118819047Y-66354819D01*
X118819047Y-66354819D02*
X118580952Y-66354819D01*
X118580952Y-66354819D02*
X118485714Y-66402438D01*
X118485714Y-66402438D02*
X118438095Y-66450057D01*
X118438095Y-66450057D02*
X118390476Y-66545295D01*
X118390476Y-66545295D02*
X118390476Y-66640533D01*
X118390476Y-66640533D02*
X118438095Y-66783390D01*
X118438095Y-66783390D02*
X119009523Y-67354819D01*
X119009523Y-67354819D02*
X118390476Y-67354819D01*
X117533333Y-66688152D02*
X117533333Y-67354819D01*
X117771428Y-66307200D02*
X118009523Y-67021485D01*
X118009523Y-67021485D02*
X117390476Y-67021485D01*
X48011904Y-95262319D02*
X47440476Y-95262319D01*
X47726190Y-96262319D02*
X47726190Y-95262319D01*
X47107142Y-96262319D02*
X47107142Y-95262319D01*
X47107142Y-95262319D02*
X46726190Y-95262319D01*
X46726190Y-95262319D02*
X46630952Y-95309938D01*
X46630952Y-95309938D02*
X46583333Y-95357557D01*
X46583333Y-95357557D02*
X46535714Y-95452795D01*
X46535714Y-95452795D02*
X46535714Y-95595652D01*
X46535714Y-95595652D02*
X46583333Y-95690890D01*
X46583333Y-95690890D02*
X46630952Y-95738509D01*
X46630952Y-95738509D02*
X46726190Y-95786128D01*
X46726190Y-95786128D02*
X47107142Y-95786128D01*
X45964285Y-95690890D02*
X46059523Y-95643271D01*
X46059523Y-95643271D02*
X46107142Y-95595652D01*
X46107142Y-95595652D02*
X46154761Y-95500414D01*
X46154761Y-95500414D02*
X46154761Y-95452795D01*
X46154761Y-95452795D02*
X46107142Y-95357557D01*
X46107142Y-95357557D02*
X46059523Y-95309938D01*
X46059523Y-95309938D02*
X45964285Y-95262319D01*
X45964285Y-95262319D02*
X45773809Y-95262319D01*
X45773809Y-95262319D02*
X45678571Y-95309938D01*
X45678571Y-95309938D02*
X45630952Y-95357557D01*
X45630952Y-95357557D02*
X45583333Y-95452795D01*
X45583333Y-95452795D02*
X45583333Y-95500414D01*
X45583333Y-95500414D02*
X45630952Y-95595652D01*
X45630952Y-95595652D02*
X45678571Y-95643271D01*
X45678571Y-95643271D02*
X45773809Y-95690890D01*
X45773809Y-95690890D02*
X45964285Y-95690890D01*
X45964285Y-95690890D02*
X46059523Y-95738509D01*
X46059523Y-95738509D02*
X46107142Y-95786128D01*
X46107142Y-95786128D02*
X46154761Y-95881366D01*
X46154761Y-95881366D02*
X46154761Y-96071842D01*
X46154761Y-96071842D02*
X46107142Y-96167080D01*
X46107142Y-96167080D02*
X46059523Y-96214700D01*
X46059523Y-96214700D02*
X45964285Y-96262319D01*
X45964285Y-96262319D02*
X45773809Y-96262319D01*
X45773809Y-96262319D02*
X45678571Y-96214700D01*
X45678571Y-96214700D02*
X45630952Y-96167080D01*
X45630952Y-96167080D02*
X45583333Y-96071842D01*
X45583333Y-96071842D02*
X45583333Y-95881366D01*
X45583333Y-95881366D02*
X45630952Y-95786128D01*
X45630952Y-95786128D02*
X45678571Y-95738509D01*
X45678571Y-95738509D02*
X45773809Y-95690890D01*
X111774819Y-112687142D02*
X111298628Y-112353809D01*
X111774819Y-112115714D02*
X110774819Y-112115714D01*
X110774819Y-112115714D02*
X110774819Y-112496666D01*
X110774819Y-112496666D02*
X110822438Y-112591904D01*
X110822438Y-112591904D02*
X110870057Y-112639523D01*
X110870057Y-112639523D02*
X110965295Y-112687142D01*
X110965295Y-112687142D02*
X111108152Y-112687142D01*
X111108152Y-112687142D02*
X111203390Y-112639523D01*
X111203390Y-112639523D02*
X111251009Y-112591904D01*
X111251009Y-112591904D02*
X111298628Y-112496666D01*
X111298628Y-112496666D02*
X111298628Y-112115714D01*
X111774819Y-113639523D02*
X111774819Y-113068095D01*
X111774819Y-113353809D02*
X110774819Y-113353809D01*
X110774819Y-113353809D02*
X110917676Y-113258571D01*
X110917676Y-113258571D02*
X111012914Y-113163333D01*
X111012914Y-113163333D02*
X111060533Y-113068095D01*
X111774819Y-114591904D02*
X111774819Y-114020476D01*
X111774819Y-114306190D02*
X110774819Y-114306190D01*
X110774819Y-114306190D02*
X110917676Y-114210952D01*
X110917676Y-114210952D02*
X111012914Y-114115714D01*
X111012914Y-114115714D02*
X111060533Y-114020476D01*
X31411904Y-90726819D02*
X30840476Y-90726819D01*
X31126190Y-91726819D02*
X31126190Y-90726819D01*
X30507142Y-91726819D02*
X30507142Y-90726819D01*
X30507142Y-90726819D02*
X30126190Y-90726819D01*
X30126190Y-90726819D02*
X30030952Y-90774438D01*
X30030952Y-90774438D02*
X29983333Y-90822057D01*
X29983333Y-90822057D02*
X29935714Y-90917295D01*
X29935714Y-90917295D02*
X29935714Y-91060152D01*
X29935714Y-91060152D02*
X29983333Y-91155390D01*
X29983333Y-91155390D02*
X30030952Y-91203009D01*
X30030952Y-91203009D02*
X30126190Y-91250628D01*
X30126190Y-91250628D02*
X30507142Y-91250628D01*
X29030952Y-90726819D02*
X29507142Y-90726819D01*
X29507142Y-90726819D02*
X29554761Y-91203009D01*
X29554761Y-91203009D02*
X29507142Y-91155390D01*
X29507142Y-91155390D02*
X29411904Y-91107771D01*
X29411904Y-91107771D02*
X29173809Y-91107771D01*
X29173809Y-91107771D02*
X29078571Y-91155390D01*
X29078571Y-91155390D02*
X29030952Y-91203009D01*
X29030952Y-91203009D02*
X28983333Y-91298247D01*
X28983333Y-91298247D02*
X28983333Y-91536342D01*
X28983333Y-91536342D02*
X29030952Y-91631580D01*
X29030952Y-91631580D02*
X29078571Y-91679200D01*
X29078571Y-91679200D02*
X29173809Y-91726819D01*
X29173809Y-91726819D02*
X29411904Y-91726819D01*
X29411904Y-91726819D02*
X29507142Y-91679200D01*
X29507142Y-91679200D02*
X29554761Y-91631580D01*
X57187319Y-108458095D02*
X57996842Y-108458095D01*
X57996842Y-108458095D02*
X58092080Y-108505714D01*
X58092080Y-108505714D02*
X58139700Y-108553333D01*
X58139700Y-108553333D02*
X58187319Y-108648571D01*
X58187319Y-108648571D02*
X58187319Y-108839047D01*
X58187319Y-108839047D02*
X58139700Y-108934285D01*
X58139700Y-108934285D02*
X58092080Y-108981904D01*
X58092080Y-108981904D02*
X57996842Y-109029523D01*
X57996842Y-109029523D02*
X57187319Y-109029523D01*
X57187319Y-109410476D02*
X57187319Y-110029523D01*
X57187319Y-110029523D02*
X57568271Y-109696190D01*
X57568271Y-109696190D02*
X57568271Y-109839047D01*
X57568271Y-109839047D02*
X57615890Y-109934285D01*
X57615890Y-109934285D02*
X57663509Y-109981904D01*
X57663509Y-109981904D02*
X57758747Y-110029523D01*
X57758747Y-110029523D02*
X57996842Y-110029523D01*
X57996842Y-110029523D02*
X58092080Y-109981904D01*
X58092080Y-109981904D02*
X58139700Y-109934285D01*
X58139700Y-109934285D02*
X58187319Y-109839047D01*
X58187319Y-109839047D02*
X58187319Y-109553333D01*
X58187319Y-109553333D02*
X58139700Y-109458095D01*
X58139700Y-109458095D02*
X58092080Y-109410476D01*
X98042857Y-70204819D02*
X98376190Y-69728628D01*
X98614285Y-70204819D02*
X98614285Y-69204819D01*
X98614285Y-69204819D02*
X98233333Y-69204819D01*
X98233333Y-69204819D02*
X98138095Y-69252438D01*
X98138095Y-69252438D02*
X98090476Y-69300057D01*
X98090476Y-69300057D02*
X98042857Y-69395295D01*
X98042857Y-69395295D02*
X98042857Y-69538152D01*
X98042857Y-69538152D02*
X98090476Y-69633390D01*
X98090476Y-69633390D02*
X98138095Y-69681009D01*
X98138095Y-69681009D02*
X98233333Y-69728628D01*
X98233333Y-69728628D02*
X98614285Y-69728628D01*
X97661904Y-69300057D02*
X97614285Y-69252438D01*
X97614285Y-69252438D02*
X97519047Y-69204819D01*
X97519047Y-69204819D02*
X97280952Y-69204819D01*
X97280952Y-69204819D02*
X97185714Y-69252438D01*
X97185714Y-69252438D02*
X97138095Y-69300057D01*
X97138095Y-69300057D02*
X97090476Y-69395295D01*
X97090476Y-69395295D02*
X97090476Y-69490533D01*
X97090476Y-69490533D02*
X97138095Y-69633390D01*
X97138095Y-69633390D02*
X97709523Y-70204819D01*
X97709523Y-70204819D02*
X97090476Y-70204819D01*
X96471428Y-69204819D02*
X96376190Y-69204819D01*
X96376190Y-69204819D02*
X96280952Y-69252438D01*
X96280952Y-69252438D02*
X96233333Y-69300057D01*
X96233333Y-69300057D02*
X96185714Y-69395295D01*
X96185714Y-69395295D02*
X96138095Y-69585771D01*
X96138095Y-69585771D02*
X96138095Y-69823866D01*
X96138095Y-69823866D02*
X96185714Y-70014342D01*
X96185714Y-70014342D02*
X96233333Y-70109580D01*
X96233333Y-70109580D02*
X96280952Y-70157200D01*
X96280952Y-70157200D02*
X96376190Y-70204819D01*
X96376190Y-70204819D02*
X96471428Y-70204819D01*
X96471428Y-70204819D02*
X96566666Y-70157200D01*
X96566666Y-70157200D02*
X96614285Y-70109580D01*
X96614285Y-70109580D02*
X96661904Y-70014342D01*
X96661904Y-70014342D02*
X96709523Y-69823866D01*
X96709523Y-69823866D02*
X96709523Y-69585771D01*
X96709523Y-69585771D02*
X96661904Y-69395295D01*
X96661904Y-69395295D02*
X96614285Y-69300057D01*
X96614285Y-69300057D02*
X96566666Y-69252438D01*
X96566666Y-69252438D02*
X96471428Y-69204819D01*
X124366666Y-104462319D02*
X124699999Y-103986128D01*
X124938094Y-104462319D02*
X124938094Y-103462319D01*
X124938094Y-103462319D02*
X124557142Y-103462319D01*
X124557142Y-103462319D02*
X124461904Y-103509938D01*
X124461904Y-103509938D02*
X124414285Y-103557557D01*
X124414285Y-103557557D02*
X124366666Y-103652795D01*
X124366666Y-103652795D02*
X124366666Y-103795652D01*
X124366666Y-103795652D02*
X124414285Y-103890890D01*
X124414285Y-103890890D02*
X124461904Y-103938509D01*
X124461904Y-103938509D02*
X124557142Y-103986128D01*
X124557142Y-103986128D02*
X124938094Y-103986128D01*
X123461904Y-103462319D02*
X123938094Y-103462319D01*
X123938094Y-103462319D02*
X123985713Y-103938509D01*
X123985713Y-103938509D02*
X123938094Y-103890890D01*
X123938094Y-103890890D02*
X123842856Y-103843271D01*
X123842856Y-103843271D02*
X123604761Y-103843271D01*
X123604761Y-103843271D02*
X123509523Y-103890890D01*
X123509523Y-103890890D02*
X123461904Y-103938509D01*
X123461904Y-103938509D02*
X123414285Y-104033747D01*
X123414285Y-104033747D02*
X123414285Y-104271842D01*
X123414285Y-104271842D02*
X123461904Y-104367080D01*
X123461904Y-104367080D02*
X123509523Y-104414700D01*
X123509523Y-104414700D02*
X123604761Y-104462319D01*
X123604761Y-104462319D02*
X123842856Y-104462319D01*
X123842856Y-104462319D02*
X123938094Y-104414700D01*
X123938094Y-104414700D02*
X123985713Y-104367080D01*
X46019580Y-99583333D02*
X46067200Y-99535714D01*
X46067200Y-99535714D02*
X46114819Y-99392857D01*
X46114819Y-99392857D02*
X46114819Y-99297619D01*
X46114819Y-99297619D02*
X46067200Y-99154762D01*
X46067200Y-99154762D02*
X45971961Y-99059524D01*
X45971961Y-99059524D02*
X45876723Y-99011905D01*
X45876723Y-99011905D02*
X45686247Y-98964286D01*
X45686247Y-98964286D02*
X45543390Y-98964286D01*
X45543390Y-98964286D02*
X45352914Y-99011905D01*
X45352914Y-99011905D02*
X45257676Y-99059524D01*
X45257676Y-99059524D02*
X45162438Y-99154762D01*
X45162438Y-99154762D02*
X45114819Y-99297619D01*
X45114819Y-99297619D02*
X45114819Y-99392857D01*
X45114819Y-99392857D02*
X45162438Y-99535714D01*
X45162438Y-99535714D02*
X45210057Y-99583333D01*
X46114819Y-100535714D02*
X46114819Y-99964286D01*
X46114819Y-100250000D02*
X45114819Y-100250000D01*
X45114819Y-100250000D02*
X45257676Y-100154762D01*
X45257676Y-100154762D02*
X45352914Y-100059524D01*
X45352914Y-100059524D02*
X45400533Y-99964286D01*
X97942857Y-65454819D02*
X98276190Y-64978628D01*
X98514285Y-65454819D02*
X98514285Y-64454819D01*
X98514285Y-64454819D02*
X98133333Y-64454819D01*
X98133333Y-64454819D02*
X98038095Y-64502438D01*
X98038095Y-64502438D02*
X97990476Y-64550057D01*
X97990476Y-64550057D02*
X97942857Y-64645295D01*
X97942857Y-64645295D02*
X97942857Y-64788152D01*
X97942857Y-64788152D02*
X97990476Y-64883390D01*
X97990476Y-64883390D02*
X98038095Y-64931009D01*
X98038095Y-64931009D02*
X98133333Y-64978628D01*
X98133333Y-64978628D02*
X98514285Y-64978628D01*
X97561904Y-64550057D02*
X97514285Y-64502438D01*
X97514285Y-64502438D02*
X97419047Y-64454819D01*
X97419047Y-64454819D02*
X97180952Y-64454819D01*
X97180952Y-64454819D02*
X97085714Y-64502438D01*
X97085714Y-64502438D02*
X97038095Y-64550057D01*
X97038095Y-64550057D02*
X96990476Y-64645295D01*
X96990476Y-64645295D02*
X96990476Y-64740533D01*
X96990476Y-64740533D02*
X97038095Y-64883390D01*
X97038095Y-64883390D02*
X97609523Y-65454819D01*
X97609523Y-65454819D02*
X96990476Y-65454819D01*
X96038095Y-65454819D02*
X96609523Y-65454819D01*
X96323809Y-65454819D02*
X96323809Y-64454819D01*
X96323809Y-64454819D02*
X96419047Y-64597676D01*
X96419047Y-64597676D02*
X96514285Y-64692914D01*
X96514285Y-64692914D02*
X96609523Y-64740533D01*
X101642857Y-107254819D02*
X101976190Y-106778628D01*
X102214285Y-107254819D02*
X102214285Y-106254819D01*
X102214285Y-106254819D02*
X101833333Y-106254819D01*
X101833333Y-106254819D02*
X101738095Y-106302438D01*
X101738095Y-106302438D02*
X101690476Y-106350057D01*
X101690476Y-106350057D02*
X101642857Y-106445295D01*
X101642857Y-106445295D02*
X101642857Y-106588152D01*
X101642857Y-106588152D02*
X101690476Y-106683390D01*
X101690476Y-106683390D02*
X101738095Y-106731009D01*
X101738095Y-106731009D02*
X101833333Y-106778628D01*
X101833333Y-106778628D02*
X102214285Y-106778628D01*
X101261904Y-106350057D02*
X101214285Y-106302438D01*
X101214285Y-106302438D02*
X101119047Y-106254819D01*
X101119047Y-106254819D02*
X100880952Y-106254819D01*
X100880952Y-106254819D02*
X100785714Y-106302438D01*
X100785714Y-106302438D02*
X100738095Y-106350057D01*
X100738095Y-106350057D02*
X100690476Y-106445295D01*
X100690476Y-106445295D02*
X100690476Y-106540533D01*
X100690476Y-106540533D02*
X100738095Y-106683390D01*
X100738095Y-106683390D02*
X101309523Y-107254819D01*
X101309523Y-107254819D02*
X100690476Y-107254819D01*
X100357142Y-106254819D02*
X99738095Y-106254819D01*
X99738095Y-106254819D02*
X100071428Y-106635771D01*
X100071428Y-106635771D02*
X99928571Y-106635771D01*
X99928571Y-106635771D02*
X99833333Y-106683390D01*
X99833333Y-106683390D02*
X99785714Y-106731009D01*
X99785714Y-106731009D02*
X99738095Y-106826247D01*
X99738095Y-106826247D02*
X99738095Y-107064342D01*
X99738095Y-107064342D02*
X99785714Y-107159580D01*
X99785714Y-107159580D02*
X99833333Y-107207200D01*
X99833333Y-107207200D02*
X99928571Y-107254819D01*
X99928571Y-107254819D02*
X100214285Y-107254819D01*
X100214285Y-107254819D02*
X100309523Y-107207200D01*
X100309523Y-107207200D02*
X100357142Y-107159580D01*
X95188094Y-116762319D02*
X94616666Y-116762319D01*
X94902380Y-117762319D02*
X94902380Y-116762319D01*
X94283332Y-117762319D02*
X94283332Y-116762319D01*
X94283332Y-116762319D02*
X93902380Y-116762319D01*
X93902380Y-116762319D02*
X93807142Y-116809938D01*
X93807142Y-116809938D02*
X93759523Y-116857557D01*
X93759523Y-116857557D02*
X93711904Y-116952795D01*
X93711904Y-116952795D02*
X93711904Y-117095652D01*
X93711904Y-117095652D02*
X93759523Y-117190890D01*
X93759523Y-117190890D02*
X93807142Y-117238509D01*
X93807142Y-117238509D02*
X93902380Y-117286128D01*
X93902380Y-117286128D02*
X94283332Y-117286128D01*
X92759523Y-117762319D02*
X93330951Y-117762319D01*
X93045237Y-117762319D02*
X93045237Y-116762319D01*
X93045237Y-116762319D02*
X93140475Y-116905176D01*
X93140475Y-116905176D02*
X93235713Y-117000414D01*
X93235713Y-117000414D02*
X93330951Y-117048033D01*
X91902380Y-117095652D02*
X91902380Y-117762319D01*
X92140475Y-116714700D02*
X92378570Y-117428985D01*
X92378570Y-117428985D02*
X91759523Y-117428985D01*
X124509580Y-67807142D02*
X124557200Y-67759523D01*
X124557200Y-67759523D02*
X124604819Y-67616666D01*
X124604819Y-67616666D02*
X124604819Y-67521428D01*
X124604819Y-67521428D02*
X124557200Y-67378571D01*
X124557200Y-67378571D02*
X124461961Y-67283333D01*
X124461961Y-67283333D02*
X124366723Y-67235714D01*
X124366723Y-67235714D02*
X124176247Y-67188095D01*
X124176247Y-67188095D02*
X124033390Y-67188095D01*
X124033390Y-67188095D02*
X123842914Y-67235714D01*
X123842914Y-67235714D02*
X123747676Y-67283333D01*
X123747676Y-67283333D02*
X123652438Y-67378571D01*
X123652438Y-67378571D02*
X123604819Y-67521428D01*
X123604819Y-67521428D02*
X123604819Y-67616666D01*
X123604819Y-67616666D02*
X123652438Y-67759523D01*
X123652438Y-67759523D02*
X123700057Y-67807142D01*
X124604819Y-68759523D02*
X124604819Y-68188095D01*
X124604819Y-68473809D02*
X123604819Y-68473809D01*
X123604819Y-68473809D02*
X123747676Y-68378571D01*
X123747676Y-68378571D02*
X123842914Y-68283333D01*
X123842914Y-68283333D02*
X123890533Y-68188095D01*
X123604819Y-69092857D02*
X123604819Y-69711904D01*
X123604819Y-69711904D02*
X123985771Y-69378571D01*
X123985771Y-69378571D02*
X123985771Y-69521428D01*
X123985771Y-69521428D02*
X124033390Y-69616666D01*
X124033390Y-69616666D02*
X124081009Y-69664285D01*
X124081009Y-69664285D02*
X124176247Y-69711904D01*
X124176247Y-69711904D02*
X124414342Y-69711904D01*
X124414342Y-69711904D02*
X124509580Y-69664285D01*
X124509580Y-69664285D02*
X124557200Y-69616666D01*
X124557200Y-69616666D02*
X124604819Y-69521428D01*
X124604819Y-69521428D02*
X124604819Y-69235714D01*
X124604819Y-69235714D02*
X124557200Y-69140476D01*
X124557200Y-69140476D02*
X124509580Y-69092857D01*
X49206666Y-115929580D02*
X49254285Y-115977200D01*
X49254285Y-115977200D02*
X49397142Y-116024819D01*
X49397142Y-116024819D02*
X49492380Y-116024819D01*
X49492380Y-116024819D02*
X49635237Y-115977200D01*
X49635237Y-115977200D02*
X49730475Y-115881961D01*
X49730475Y-115881961D02*
X49778094Y-115786723D01*
X49778094Y-115786723D02*
X49825713Y-115596247D01*
X49825713Y-115596247D02*
X49825713Y-115453390D01*
X49825713Y-115453390D02*
X49778094Y-115262914D01*
X49778094Y-115262914D02*
X49730475Y-115167676D01*
X49730475Y-115167676D02*
X49635237Y-115072438D01*
X49635237Y-115072438D02*
X49492380Y-115024819D01*
X49492380Y-115024819D02*
X49397142Y-115024819D01*
X49397142Y-115024819D02*
X49254285Y-115072438D01*
X49254285Y-115072438D02*
X49206666Y-115120057D01*
X48730475Y-116024819D02*
X48539999Y-116024819D01*
X48539999Y-116024819D02*
X48444761Y-115977200D01*
X48444761Y-115977200D02*
X48397142Y-115929580D01*
X48397142Y-115929580D02*
X48301904Y-115786723D01*
X48301904Y-115786723D02*
X48254285Y-115596247D01*
X48254285Y-115596247D02*
X48254285Y-115215295D01*
X48254285Y-115215295D02*
X48301904Y-115120057D01*
X48301904Y-115120057D02*
X48349523Y-115072438D01*
X48349523Y-115072438D02*
X48444761Y-115024819D01*
X48444761Y-115024819D02*
X48635237Y-115024819D01*
X48635237Y-115024819D02*
X48730475Y-115072438D01*
X48730475Y-115072438D02*
X48778094Y-115120057D01*
X48778094Y-115120057D02*
X48825713Y-115215295D01*
X48825713Y-115215295D02*
X48825713Y-115453390D01*
X48825713Y-115453390D02*
X48778094Y-115548628D01*
X48778094Y-115548628D02*
X48730475Y-115596247D01*
X48730475Y-115596247D02*
X48635237Y-115643866D01*
X48635237Y-115643866D02*
X48444761Y-115643866D01*
X48444761Y-115643866D02*
X48349523Y-115596247D01*
X48349523Y-115596247D02*
X48301904Y-115548628D01*
X48301904Y-115548628D02*
X48254285Y-115453390D01*
X101642857Y-111854819D02*
X101976190Y-111378628D01*
X102214285Y-111854819D02*
X102214285Y-110854819D01*
X102214285Y-110854819D02*
X101833333Y-110854819D01*
X101833333Y-110854819D02*
X101738095Y-110902438D01*
X101738095Y-110902438D02*
X101690476Y-110950057D01*
X101690476Y-110950057D02*
X101642857Y-111045295D01*
X101642857Y-111045295D02*
X101642857Y-111188152D01*
X101642857Y-111188152D02*
X101690476Y-111283390D01*
X101690476Y-111283390D02*
X101738095Y-111331009D01*
X101738095Y-111331009D02*
X101833333Y-111378628D01*
X101833333Y-111378628D02*
X102214285Y-111378628D01*
X101261904Y-110950057D02*
X101214285Y-110902438D01*
X101214285Y-110902438D02*
X101119047Y-110854819D01*
X101119047Y-110854819D02*
X100880952Y-110854819D01*
X100880952Y-110854819D02*
X100785714Y-110902438D01*
X100785714Y-110902438D02*
X100738095Y-110950057D01*
X100738095Y-110950057D02*
X100690476Y-111045295D01*
X100690476Y-111045295D02*
X100690476Y-111140533D01*
X100690476Y-111140533D02*
X100738095Y-111283390D01*
X100738095Y-111283390D02*
X101309523Y-111854819D01*
X101309523Y-111854819D02*
X100690476Y-111854819D01*
X99785714Y-110854819D02*
X100261904Y-110854819D01*
X100261904Y-110854819D02*
X100309523Y-111331009D01*
X100309523Y-111331009D02*
X100261904Y-111283390D01*
X100261904Y-111283390D02*
X100166666Y-111235771D01*
X100166666Y-111235771D02*
X99928571Y-111235771D01*
X99928571Y-111235771D02*
X99833333Y-111283390D01*
X99833333Y-111283390D02*
X99785714Y-111331009D01*
X99785714Y-111331009D02*
X99738095Y-111426247D01*
X99738095Y-111426247D02*
X99738095Y-111664342D01*
X99738095Y-111664342D02*
X99785714Y-111759580D01*
X99785714Y-111759580D02*
X99833333Y-111807200D01*
X99833333Y-111807200D02*
X99928571Y-111854819D01*
X99928571Y-111854819D02*
X100166666Y-111854819D01*
X100166666Y-111854819D02*
X100261904Y-111807200D01*
X100261904Y-111807200D02*
X100309523Y-111759580D01*
X124366666Y-109312319D02*
X124699999Y-108836128D01*
X124938094Y-109312319D02*
X124938094Y-108312319D01*
X124938094Y-108312319D02*
X124557142Y-108312319D01*
X124557142Y-108312319D02*
X124461904Y-108359938D01*
X124461904Y-108359938D02*
X124414285Y-108407557D01*
X124414285Y-108407557D02*
X124366666Y-108502795D01*
X124366666Y-108502795D02*
X124366666Y-108645652D01*
X124366666Y-108645652D02*
X124414285Y-108740890D01*
X124414285Y-108740890D02*
X124461904Y-108788509D01*
X124461904Y-108788509D02*
X124557142Y-108836128D01*
X124557142Y-108836128D02*
X124938094Y-108836128D01*
X123509523Y-108312319D02*
X123699999Y-108312319D01*
X123699999Y-108312319D02*
X123795237Y-108359938D01*
X123795237Y-108359938D02*
X123842856Y-108407557D01*
X123842856Y-108407557D02*
X123938094Y-108550414D01*
X123938094Y-108550414D02*
X123985713Y-108740890D01*
X123985713Y-108740890D02*
X123985713Y-109121842D01*
X123985713Y-109121842D02*
X123938094Y-109217080D01*
X123938094Y-109217080D02*
X123890475Y-109264700D01*
X123890475Y-109264700D02*
X123795237Y-109312319D01*
X123795237Y-109312319D02*
X123604761Y-109312319D01*
X123604761Y-109312319D02*
X123509523Y-109264700D01*
X123509523Y-109264700D02*
X123461904Y-109217080D01*
X123461904Y-109217080D02*
X123414285Y-109121842D01*
X123414285Y-109121842D02*
X123414285Y-108883747D01*
X123414285Y-108883747D02*
X123461904Y-108788509D01*
X123461904Y-108788509D02*
X123509523Y-108740890D01*
X123509523Y-108740890D02*
X123604761Y-108693271D01*
X123604761Y-108693271D02*
X123795237Y-108693271D01*
X123795237Y-108693271D02*
X123890475Y-108740890D01*
X123890475Y-108740890D02*
X123938094Y-108788509D01*
X123938094Y-108788509D02*
X123985713Y-108883747D01*
X45610833Y-116629819D02*
X45610833Y-117344104D01*
X45610833Y-117344104D02*
X45658452Y-117486961D01*
X45658452Y-117486961D02*
X45753690Y-117582200D01*
X45753690Y-117582200D02*
X45896547Y-117629819D01*
X45896547Y-117629819D02*
X45991785Y-117629819D01*
X44658452Y-116629819D02*
X45134642Y-116629819D01*
X45134642Y-116629819D02*
X45182261Y-117106009D01*
X45182261Y-117106009D02*
X45134642Y-117058390D01*
X45134642Y-117058390D02*
X45039404Y-117010771D01*
X45039404Y-117010771D02*
X44801309Y-117010771D01*
X44801309Y-117010771D02*
X44706071Y-117058390D01*
X44706071Y-117058390D02*
X44658452Y-117106009D01*
X44658452Y-117106009D02*
X44610833Y-117201247D01*
X44610833Y-117201247D02*
X44610833Y-117439342D01*
X44610833Y-117439342D02*
X44658452Y-117534580D01*
X44658452Y-117534580D02*
X44706071Y-117582200D01*
X44706071Y-117582200D02*
X44801309Y-117629819D01*
X44801309Y-117629819D02*
X45039404Y-117629819D01*
X45039404Y-117629819D02*
X45134642Y-117582200D01*
X45134642Y-117582200D02*
X45182261Y-117534580D01*
X112338094Y-91856819D02*
X111766666Y-91856819D01*
X112052380Y-92856819D02*
X112052380Y-91856819D01*
X111433332Y-92856819D02*
X111433332Y-91856819D01*
X111433332Y-91856819D02*
X111052380Y-91856819D01*
X111052380Y-91856819D02*
X110957142Y-91904438D01*
X110957142Y-91904438D02*
X110909523Y-91952057D01*
X110909523Y-91952057D02*
X110861904Y-92047295D01*
X110861904Y-92047295D02*
X110861904Y-92190152D01*
X110861904Y-92190152D02*
X110909523Y-92285390D01*
X110909523Y-92285390D02*
X110957142Y-92333009D01*
X110957142Y-92333009D02*
X111052380Y-92380628D01*
X111052380Y-92380628D02*
X111433332Y-92380628D01*
X109909523Y-92856819D02*
X110480951Y-92856819D01*
X110195237Y-92856819D02*
X110195237Y-91856819D01*
X110195237Y-91856819D02*
X110290475Y-91999676D01*
X110290475Y-91999676D02*
X110385713Y-92094914D01*
X110385713Y-92094914D02*
X110480951Y-92142533D01*
X109290475Y-91856819D02*
X109195237Y-91856819D01*
X109195237Y-91856819D02*
X109099999Y-91904438D01*
X109099999Y-91904438D02*
X109052380Y-91952057D01*
X109052380Y-91952057D02*
X109004761Y-92047295D01*
X109004761Y-92047295D02*
X108957142Y-92237771D01*
X108957142Y-92237771D02*
X108957142Y-92475866D01*
X108957142Y-92475866D02*
X109004761Y-92666342D01*
X109004761Y-92666342D02*
X109052380Y-92761580D01*
X109052380Y-92761580D02*
X109099999Y-92809200D01*
X109099999Y-92809200D02*
X109195237Y-92856819D01*
X109195237Y-92856819D02*
X109290475Y-92856819D01*
X109290475Y-92856819D02*
X109385713Y-92809200D01*
X109385713Y-92809200D02*
X109433332Y-92761580D01*
X109433332Y-92761580D02*
X109480951Y-92666342D01*
X109480951Y-92666342D02*
X109528570Y-92475866D01*
X109528570Y-92475866D02*
X109528570Y-92237771D01*
X109528570Y-92237771D02*
X109480951Y-92047295D01*
X109480951Y-92047295D02*
X109433332Y-91952057D01*
X109433332Y-91952057D02*
X109385713Y-91904438D01*
X109385713Y-91904438D02*
X109290475Y-91856819D01*
X44261904Y-90704819D02*
X43690476Y-90704819D01*
X43976190Y-91704819D02*
X43976190Y-90704819D01*
X43357142Y-91704819D02*
X43357142Y-90704819D01*
X43357142Y-90704819D02*
X42976190Y-90704819D01*
X42976190Y-90704819D02*
X42880952Y-90752438D01*
X42880952Y-90752438D02*
X42833333Y-90800057D01*
X42833333Y-90800057D02*
X42785714Y-90895295D01*
X42785714Y-90895295D02*
X42785714Y-91038152D01*
X42785714Y-91038152D02*
X42833333Y-91133390D01*
X42833333Y-91133390D02*
X42880952Y-91181009D01*
X42880952Y-91181009D02*
X42976190Y-91228628D01*
X42976190Y-91228628D02*
X43357142Y-91228628D01*
X41833333Y-91704819D02*
X42404761Y-91704819D01*
X42119047Y-91704819D02*
X42119047Y-90704819D01*
X42119047Y-90704819D02*
X42214285Y-90847676D01*
X42214285Y-90847676D02*
X42309523Y-90942914D01*
X42309523Y-90942914D02*
X42404761Y-90990533D01*
X49166666Y-103389580D02*
X49214285Y-103437200D01*
X49214285Y-103437200D02*
X49357142Y-103484819D01*
X49357142Y-103484819D02*
X49452380Y-103484819D01*
X49452380Y-103484819D02*
X49595237Y-103437200D01*
X49595237Y-103437200D02*
X49690475Y-103341961D01*
X49690475Y-103341961D02*
X49738094Y-103246723D01*
X49738094Y-103246723D02*
X49785713Y-103056247D01*
X49785713Y-103056247D02*
X49785713Y-102913390D01*
X49785713Y-102913390D02*
X49738094Y-102722914D01*
X49738094Y-102722914D02*
X49690475Y-102627676D01*
X49690475Y-102627676D02*
X49595237Y-102532438D01*
X49595237Y-102532438D02*
X49452380Y-102484819D01*
X49452380Y-102484819D02*
X49357142Y-102484819D01*
X49357142Y-102484819D02*
X49214285Y-102532438D01*
X49214285Y-102532438D02*
X49166666Y-102580057D01*
X48833332Y-102484819D02*
X48166666Y-102484819D01*
X48166666Y-102484819D02*
X48595237Y-103484819D01*
X29961904Y-102456819D02*
X29390476Y-102456819D01*
X29676190Y-103456819D02*
X29676190Y-102456819D01*
X29057142Y-103456819D02*
X29057142Y-102456819D01*
X29057142Y-102456819D02*
X28676190Y-102456819D01*
X28676190Y-102456819D02*
X28580952Y-102504438D01*
X28580952Y-102504438D02*
X28533333Y-102552057D01*
X28533333Y-102552057D02*
X28485714Y-102647295D01*
X28485714Y-102647295D02*
X28485714Y-102790152D01*
X28485714Y-102790152D02*
X28533333Y-102885390D01*
X28533333Y-102885390D02*
X28580952Y-102933009D01*
X28580952Y-102933009D02*
X28676190Y-102980628D01*
X28676190Y-102980628D02*
X29057142Y-102980628D01*
X27628571Y-102790152D02*
X27628571Y-103456819D01*
X27866666Y-102409200D02*
X28104761Y-103123485D01*
X28104761Y-103123485D02*
X27485714Y-103123485D01*
X126988094Y-117162319D02*
X126416666Y-117162319D01*
X126702380Y-118162319D02*
X126702380Y-117162319D01*
X126083332Y-118162319D02*
X126083332Y-117162319D01*
X126083332Y-117162319D02*
X125702380Y-117162319D01*
X125702380Y-117162319D02*
X125607142Y-117209938D01*
X125607142Y-117209938D02*
X125559523Y-117257557D01*
X125559523Y-117257557D02*
X125511904Y-117352795D01*
X125511904Y-117352795D02*
X125511904Y-117495652D01*
X125511904Y-117495652D02*
X125559523Y-117590890D01*
X125559523Y-117590890D02*
X125607142Y-117638509D01*
X125607142Y-117638509D02*
X125702380Y-117686128D01*
X125702380Y-117686128D02*
X126083332Y-117686128D01*
X124559523Y-118162319D02*
X125130951Y-118162319D01*
X124845237Y-118162319D02*
X124845237Y-117162319D01*
X124845237Y-117162319D02*
X124940475Y-117305176D01*
X124940475Y-117305176D02*
X125035713Y-117400414D01*
X125035713Y-117400414D02*
X125130951Y-117448033D01*
X123607142Y-118162319D02*
X124178570Y-118162319D01*
X123892856Y-118162319D02*
X123892856Y-117162319D01*
X123892856Y-117162319D02*
X123988094Y-117305176D01*
X123988094Y-117305176D02*
X124083332Y-117400414D01*
X124083332Y-117400414D02*
X124178570Y-117448033D01*
X117342857Y-109512319D02*
X117676190Y-109036128D01*
X117914285Y-109512319D02*
X117914285Y-108512319D01*
X117914285Y-108512319D02*
X117533333Y-108512319D01*
X117533333Y-108512319D02*
X117438095Y-108559938D01*
X117438095Y-108559938D02*
X117390476Y-108607557D01*
X117390476Y-108607557D02*
X117342857Y-108702795D01*
X117342857Y-108702795D02*
X117342857Y-108845652D01*
X117342857Y-108845652D02*
X117390476Y-108940890D01*
X117390476Y-108940890D02*
X117438095Y-108988509D01*
X117438095Y-108988509D02*
X117533333Y-109036128D01*
X117533333Y-109036128D02*
X117914285Y-109036128D01*
X116390476Y-109512319D02*
X116961904Y-109512319D01*
X116676190Y-109512319D02*
X116676190Y-108512319D01*
X116676190Y-108512319D02*
X116771428Y-108655176D01*
X116771428Y-108655176D02*
X116866666Y-108750414D01*
X116866666Y-108750414D02*
X116961904Y-108798033D01*
X115771428Y-108512319D02*
X115676190Y-108512319D01*
X115676190Y-108512319D02*
X115580952Y-108559938D01*
X115580952Y-108559938D02*
X115533333Y-108607557D01*
X115533333Y-108607557D02*
X115485714Y-108702795D01*
X115485714Y-108702795D02*
X115438095Y-108893271D01*
X115438095Y-108893271D02*
X115438095Y-109131366D01*
X115438095Y-109131366D02*
X115485714Y-109321842D01*
X115485714Y-109321842D02*
X115533333Y-109417080D01*
X115533333Y-109417080D02*
X115580952Y-109464700D01*
X115580952Y-109464700D02*
X115676190Y-109512319D01*
X115676190Y-109512319D02*
X115771428Y-109512319D01*
X115771428Y-109512319D02*
X115866666Y-109464700D01*
X115866666Y-109464700D02*
X115914285Y-109417080D01*
X115914285Y-109417080D02*
X115961904Y-109321842D01*
X115961904Y-109321842D02*
X116009523Y-109131366D01*
X116009523Y-109131366D02*
X116009523Y-108893271D01*
X116009523Y-108893271D02*
X115961904Y-108702795D01*
X115961904Y-108702795D02*
X115914285Y-108607557D01*
X115914285Y-108607557D02*
X115866666Y-108559938D01*
X115866666Y-108559938D02*
X115771428Y-108512319D01*
X106439819Y-70238095D02*
X107249342Y-70238095D01*
X107249342Y-70238095D02*
X107344580Y-70285714D01*
X107344580Y-70285714D02*
X107392200Y-70333333D01*
X107392200Y-70333333D02*
X107439819Y-70428571D01*
X107439819Y-70428571D02*
X107439819Y-70619047D01*
X107439819Y-70619047D02*
X107392200Y-70714285D01*
X107392200Y-70714285D02*
X107344580Y-70761904D01*
X107344580Y-70761904D02*
X107249342Y-70809523D01*
X107249342Y-70809523D02*
X106439819Y-70809523D01*
X106439819Y-71190476D02*
X106439819Y-71857142D01*
X106439819Y-71857142D02*
X107439819Y-71428571D01*
X25221904Y-105626819D02*
X24650476Y-105626819D01*
X24936190Y-106626819D02*
X24936190Y-105626819D01*
X24317142Y-106626819D02*
X24317142Y-105626819D01*
X24317142Y-105626819D02*
X23936190Y-105626819D01*
X23936190Y-105626819D02*
X23840952Y-105674438D01*
X23840952Y-105674438D02*
X23793333Y-105722057D01*
X23793333Y-105722057D02*
X23745714Y-105817295D01*
X23745714Y-105817295D02*
X23745714Y-105960152D01*
X23745714Y-105960152D02*
X23793333Y-106055390D01*
X23793333Y-106055390D02*
X23840952Y-106103009D01*
X23840952Y-106103009D02*
X23936190Y-106150628D01*
X23936190Y-106150628D02*
X24317142Y-106150628D01*
X23412380Y-105626819D02*
X22793333Y-105626819D01*
X22793333Y-105626819D02*
X23126666Y-106007771D01*
X23126666Y-106007771D02*
X22983809Y-106007771D01*
X22983809Y-106007771D02*
X22888571Y-106055390D01*
X22888571Y-106055390D02*
X22840952Y-106103009D01*
X22840952Y-106103009D02*
X22793333Y-106198247D01*
X22793333Y-106198247D02*
X22793333Y-106436342D01*
X22793333Y-106436342D02*
X22840952Y-106531580D01*
X22840952Y-106531580D02*
X22888571Y-106579200D01*
X22888571Y-106579200D02*
X22983809Y-106626819D01*
X22983809Y-106626819D02*
X23269523Y-106626819D01*
X23269523Y-106626819D02*
X23364761Y-106579200D01*
X23364761Y-106579200D02*
X23412380Y-106531580D01*
X56251903Y-117075318D02*
X55680475Y-117075318D01*
X55966189Y-118075318D02*
X55966189Y-117075318D01*
X55347141Y-118075318D02*
X55347141Y-117075318D01*
X55347141Y-117075318D02*
X54966189Y-117075318D01*
X54966189Y-117075318D02*
X54870951Y-117122937D01*
X54870951Y-117122937D02*
X54823332Y-117170556D01*
X54823332Y-117170556D02*
X54775713Y-117265794D01*
X54775713Y-117265794D02*
X54775713Y-117408651D01*
X54775713Y-117408651D02*
X54823332Y-117503889D01*
X54823332Y-117503889D02*
X54870951Y-117551508D01*
X54870951Y-117551508D02*
X54966189Y-117599127D01*
X54966189Y-117599127D02*
X55347141Y-117599127D01*
X54299522Y-118075318D02*
X54109046Y-118075318D01*
X54109046Y-118075318D02*
X54013808Y-118027699D01*
X54013808Y-118027699D02*
X53966189Y-117980079D01*
X53966189Y-117980079D02*
X53870951Y-117837222D01*
X53870951Y-117837222D02*
X53823332Y-117646746D01*
X53823332Y-117646746D02*
X53823332Y-117265794D01*
X53823332Y-117265794D02*
X53870951Y-117170556D01*
X53870951Y-117170556D02*
X53918570Y-117122937D01*
X53918570Y-117122937D02*
X54013808Y-117075318D01*
X54013808Y-117075318D02*
X54204284Y-117075318D01*
X54204284Y-117075318D02*
X54299522Y-117122937D01*
X54299522Y-117122937D02*
X54347141Y-117170556D01*
X54347141Y-117170556D02*
X54394760Y-117265794D01*
X54394760Y-117265794D02*
X54394760Y-117503889D01*
X54394760Y-117503889D02*
X54347141Y-117599127D01*
X54347141Y-117599127D02*
X54299522Y-117646746D01*
X54299522Y-117646746D02*
X54204284Y-117694365D01*
X54204284Y-117694365D02*
X54013808Y-117694365D01*
X54013808Y-117694365D02*
X53918570Y-117646746D01*
X53918570Y-117646746D02*
X53870951Y-117599127D01*
X53870951Y-117599127D02*
X53823332Y-117503889D01*
X109637942Y-104855548D02*
X109637942Y-105373987D01*
X109637942Y-105373987D02*
X109607446Y-105434980D01*
X109607446Y-105434980D02*
X109576950Y-105465477D01*
X109576950Y-105465477D02*
X109515957Y-105495973D01*
X109515957Y-105495973D02*
X109393971Y-105495973D01*
X109393971Y-105495973D02*
X109332978Y-105465477D01*
X109332978Y-105465477D02*
X109302482Y-105434980D01*
X109302482Y-105434980D02*
X109271985Y-105373987D01*
X109271985Y-105373987D02*
X109271985Y-104855548D01*
X108662057Y-104855548D02*
X108967021Y-104855548D01*
X108967021Y-104855548D02*
X108997518Y-105160512D01*
X108997518Y-105160512D02*
X108967021Y-105130016D01*
X108967021Y-105130016D02*
X108906029Y-105099519D01*
X108906029Y-105099519D02*
X108753546Y-105099519D01*
X108753546Y-105099519D02*
X108692554Y-105130016D01*
X108692554Y-105130016D02*
X108662057Y-105160512D01*
X108662057Y-105160512D02*
X108631561Y-105221505D01*
X108631561Y-105221505D02*
X108631561Y-105373987D01*
X108631561Y-105373987D02*
X108662057Y-105434980D01*
X108662057Y-105434980D02*
X108692554Y-105465477D01*
X108692554Y-105465477D02*
X108753546Y-105495973D01*
X108753546Y-105495973D02*
X108906029Y-105495973D01*
X108906029Y-105495973D02*
X108967021Y-105465477D01*
X108967021Y-105465477D02*
X108997518Y-105434980D01*
X112238094Y-87656819D02*
X111666666Y-87656819D01*
X111952380Y-88656819D02*
X111952380Y-87656819D01*
X111333332Y-88656819D02*
X111333332Y-87656819D01*
X111333332Y-87656819D02*
X110952380Y-87656819D01*
X110952380Y-87656819D02*
X110857142Y-87704438D01*
X110857142Y-87704438D02*
X110809523Y-87752057D01*
X110809523Y-87752057D02*
X110761904Y-87847295D01*
X110761904Y-87847295D02*
X110761904Y-87990152D01*
X110761904Y-87990152D02*
X110809523Y-88085390D01*
X110809523Y-88085390D02*
X110857142Y-88133009D01*
X110857142Y-88133009D02*
X110952380Y-88180628D01*
X110952380Y-88180628D02*
X111333332Y-88180628D01*
X109809523Y-88656819D02*
X110380951Y-88656819D01*
X110095237Y-88656819D02*
X110095237Y-87656819D01*
X110095237Y-87656819D02*
X110190475Y-87799676D01*
X110190475Y-87799676D02*
X110285713Y-87894914D01*
X110285713Y-87894914D02*
X110380951Y-87942533D01*
X109428570Y-87752057D02*
X109380951Y-87704438D01*
X109380951Y-87704438D02*
X109285713Y-87656819D01*
X109285713Y-87656819D02*
X109047618Y-87656819D01*
X109047618Y-87656819D02*
X108952380Y-87704438D01*
X108952380Y-87704438D02*
X108904761Y-87752057D01*
X108904761Y-87752057D02*
X108857142Y-87847295D01*
X108857142Y-87847295D02*
X108857142Y-87942533D01*
X108857142Y-87942533D02*
X108904761Y-88085390D01*
X108904761Y-88085390D02*
X109476189Y-88656819D01*
X109476189Y-88656819D02*
X108857142Y-88656819D01*
X119488094Y-53762319D02*
X118916666Y-53762319D01*
X119202380Y-54762319D02*
X119202380Y-53762319D01*
X118583332Y-54762319D02*
X118583332Y-53762319D01*
X118583332Y-53762319D02*
X118202380Y-53762319D01*
X118202380Y-53762319D02*
X118107142Y-53809938D01*
X118107142Y-53809938D02*
X118059523Y-53857557D01*
X118059523Y-53857557D02*
X118011904Y-53952795D01*
X118011904Y-53952795D02*
X118011904Y-54095652D01*
X118011904Y-54095652D02*
X118059523Y-54190890D01*
X118059523Y-54190890D02*
X118107142Y-54238509D01*
X118107142Y-54238509D02*
X118202380Y-54286128D01*
X118202380Y-54286128D02*
X118583332Y-54286128D01*
X117059523Y-54762319D02*
X117630951Y-54762319D01*
X117345237Y-54762319D02*
X117345237Y-53762319D01*
X117345237Y-53762319D02*
X117440475Y-53905176D01*
X117440475Y-53905176D02*
X117535713Y-54000414D01*
X117535713Y-54000414D02*
X117630951Y-54048033D01*
X116202380Y-53762319D02*
X116392856Y-53762319D01*
X116392856Y-53762319D02*
X116488094Y-53809938D01*
X116488094Y-53809938D02*
X116535713Y-53857557D01*
X116535713Y-53857557D02*
X116630951Y-54000414D01*
X116630951Y-54000414D02*
X116678570Y-54190890D01*
X116678570Y-54190890D02*
X116678570Y-54571842D01*
X116678570Y-54571842D02*
X116630951Y-54667080D01*
X116630951Y-54667080D02*
X116583332Y-54714700D01*
X116583332Y-54714700D02*
X116488094Y-54762319D01*
X116488094Y-54762319D02*
X116297618Y-54762319D01*
X116297618Y-54762319D02*
X116202380Y-54714700D01*
X116202380Y-54714700D02*
X116154761Y-54667080D01*
X116154761Y-54667080D02*
X116107142Y-54571842D01*
X116107142Y-54571842D02*
X116107142Y-54333747D01*
X116107142Y-54333747D02*
X116154761Y-54238509D01*
X116154761Y-54238509D02*
X116202380Y-54190890D01*
X116202380Y-54190890D02*
X116297618Y-54143271D01*
X116297618Y-54143271D02*
X116488094Y-54143271D01*
X116488094Y-54143271D02*
X116583332Y-54190890D01*
X116583332Y-54190890D02*
X116630951Y-54238509D01*
X116630951Y-54238509D02*
X116678570Y-54333747D01*
X117442857Y-99652079D02*
X117490476Y-99699699D01*
X117490476Y-99699699D02*
X117633333Y-99747318D01*
X117633333Y-99747318D02*
X117728571Y-99747318D01*
X117728571Y-99747318D02*
X117871428Y-99699699D01*
X117871428Y-99699699D02*
X117966666Y-99604460D01*
X117966666Y-99604460D02*
X118014285Y-99509222D01*
X118014285Y-99509222D02*
X118061904Y-99318746D01*
X118061904Y-99318746D02*
X118061904Y-99175889D01*
X118061904Y-99175889D02*
X118014285Y-98985413D01*
X118014285Y-98985413D02*
X117966666Y-98890175D01*
X117966666Y-98890175D02*
X117871428Y-98794937D01*
X117871428Y-98794937D02*
X117728571Y-98747318D01*
X117728571Y-98747318D02*
X117633333Y-98747318D01*
X117633333Y-98747318D02*
X117490476Y-98794937D01*
X117490476Y-98794937D02*
X117442857Y-98842556D01*
X116490476Y-99747318D02*
X117061904Y-99747318D01*
X116776190Y-99747318D02*
X116776190Y-98747318D01*
X116776190Y-98747318D02*
X116871428Y-98890175D01*
X116871428Y-98890175D02*
X116966666Y-98985413D01*
X116966666Y-98985413D02*
X117061904Y-99033032D01*
X115871428Y-98747318D02*
X115776190Y-98747318D01*
X115776190Y-98747318D02*
X115680952Y-98794937D01*
X115680952Y-98794937D02*
X115633333Y-98842556D01*
X115633333Y-98842556D02*
X115585714Y-98937794D01*
X115585714Y-98937794D02*
X115538095Y-99128270D01*
X115538095Y-99128270D02*
X115538095Y-99366365D01*
X115538095Y-99366365D02*
X115585714Y-99556841D01*
X115585714Y-99556841D02*
X115633333Y-99652079D01*
X115633333Y-99652079D02*
X115680952Y-99699699D01*
X115680952Y-99699699D02*
X115776190Y-99747318D01*
X115776190Y-99747318D02*
X115871428Y-99747318D01*
X115871428Y-99747318D02*
X115966666Y-99699699D01*
X115966666Y-99699699D02*
X116014285Y-99652079D01*
X116014285Y-99652079D02*
X116061904Y-99556841D01*
X116061904Y-99556841D02*
X116109523Y-99366365D01*
X116109523Y-99366365D02*
X116109523Y-99128270D01*
X116109523Y-99128270D02*
X116061904Y-98937794D01*
X116061904Y-98937794D02*
X116014285Y-98842556D01*
X116014285Y-98842556D02*
X115966666Y-98794937D01*
X115966666Y-98794937D02*
X115871428Y-98747318D01*
X118067080Y-74307142D02*
X118114700Y-74259523D01*
X118114700Y-74259523D02*
X118162319Y-74116666D01*
X118162319Y-74116666D02*
X118162319Y-74021428D01*
X118162319Y-74021428D02*
X118114700Y-73878571D01*
X118114700Y-73878571D02*
X118019461Y-73783333D01*
X118019461Y-73783333D02*
X117924223Y-73735714D01*
X117924223Y-73735714D02*
X117733747Y-73688095D01*
X117733747Y-73688095D02*
X117590890Y-73688095D01*
X117590890Y-73688095D02*
X117400414Y-73735714D01*
X117400414Y-73735714D02*
X117305176Y-73783333D01*
X117305176Y-73783333D02*
X117209938Y-73878571D01*
X117209938Y-73878571D02*
X117162319Y-74021428D01*
X117162319Y-74021428D02*
X117162319Y-74116666D01*
X117162319Y-74116666D02*
X117209938Y-74259523D01*
X117209938Y-74259523D02*
X117257557Y-74307142D01*
X118162319Y-75259523D02*
X118162319Y-74688095D01*
X118162319Y-74973809D02*
X117162319Y-74973809D01*
X117162319Y-74973809D02*
X117305176Y-74878571D01*
X117305176Y-74878571D02*
X117400414Y-74783333D01*
X117400414Y-74783333D02*
X117448033Y-74688095D01*
X117495652Y-76116666D02*
X118162319Y-76116666D01*
X117114700Y-75878571D02*
X117828985Y-75640476D01*
X117828985Y-75640476D02*
X117828985Y-76259523D01*
D12*
%TO.C,J8*%
X127681000Y-71486000D02*
G75*
G02*
X126919000Y-71486000I-381000J0D01*
G01*
X126919000Y-71486000D02*
G75*
G02*
X127681000Y-71486000I381000J0D01*
G01*
D13*
%TO.C,R9*%
X115313748Y-102540000D02*
X118086252Y-102540000D01*
X115313748Y-105960000D02*
X118086252Y-105960000D01*
%TO.C,R22*%
X121386252Y-61040000D02*
X118613748Y-61040000D01*
X121386252Y-64460000D02*
X118613748Y-64460000D01*
D14*
%TO.C,J7*%
X49687500Y-90383500D02*
X49687500Y-92796500D01*
X49687500Y-92796500D02*
X57307500Y-92796500D01*
X57307500Y-90383500D02*
X49687500Y-90383500D01*
X57307500Y-92796500D02*
X57307500Y-90383500D01*
D15*
X49297501Y-91590000D02*
G75*
G02*
X49097499Y-91590000I-100001J0D01*
G01*
X49097499Y-91590000D02*
G75*
G02*
X49297501Y-91590000I100001J0D01*
G01*
D13*
%TO.C,TP17*%
X106650000Y-57250000D02*
G75*
G02*
X103750000Y-57250000I-1450000J0D01*
G01*
X103750000Y-57250000D02*
G75*
G02*
X106650000Y-57250000I1450000J0D01*
G01*
%TO.C,R15*%
X99513748Y-97390000D02*
X102286252Y-97390000D01*
X99513748Y-100810000D02*
X102286252Y-100810000D01*
D14*
%TO.C,U1*%
X33330000Y-98420000D02*
X33330000Y-97784000D01*
X39830000Y-97784000D02*
X39830000Y-98420000D01*
X39830000Y-98420000D02*
X33330000Y-98420000D01*
D15*
X40680000Y-100770000D02*
G75*
G02*
X40480000Y-100770000I-100000J0D01*
G01*
X40480000Y-100770000D02*
G75*
G02*
X40680000Y-100770000I100000J0D01*
G01*
D13*
%TO.C,C11*%
X115558748Y-112970000D02*
X117881252Y-112970000D01*
X115558748Y-116390000D02*
X117881252Y-116390000D01*
%TO.C,R14*%
X110386252Y-97840000D02*
X107613748Y-97840000D01*
X110386252Y-101260000D02*
X107613748Y-101260000D01*
%TO.C,U6*%
X124400000Y-72090000D02*
X122450000Y-72090000D01*
X124400000Y-72090000D02*
X126350000Y-72090000D01*
X124400000Y-77210000D02*
X122450000Y-77210000D01*
X124400000Y-77210000D02*
X126350000Y-77210000D01*
X127100000Y-72185000D02*
X126860000Y-71855000D01*
X127340000Y-71855000D01*
X127100000Y-72185000D01*
G36*
X127100000Y-72185000D02*
G01*
X126860000Y-71855000D01*
X127340000Y-71855000D01*
X127100000Y-72185000D01*
G37*
%TO.C,R16*%
X99513748Y-102140000D02*
X102286252Y-102140000D01*
X99513748Y-105560000D02*
X102286252Y-105560000D01*
%TO.C,C12*%
X104890000Y-114511252D02*
X104890000Y-112188748D01*
X108310000Y-114511252D02*
X108310000Y-112188748D01*
%TO.C,TP7*%
X56960000Y-98420000D02*
G75*
G02*
X54060000Y-98420000I-1450000J0D01*
G01*
X54060000Y-98420000D02*
G75*
G02*
X56960000Y-98420000I1450000J0D01*
G01*
%TO.C,C3*%
X28510000Y-100641252D02*
X28510000Y-98318748D01*
X31930000Y-100641252D02*
X31930000Y-98318748D01*
%TO.C,R24*%
X120086252Y-67840000D02*
X117313748Y-67840000D01*
X120086252Y-71260000D02*
X117313748Y-71260000D01*
%TO.C,TP8*%
X49650000Y-98050000D02*
G75*
G02*
X46750000Y-98050000I-1450000J0D01*
G01*
X46750000Y-98050000D02*
G75*
G02*
X49650000Y-98050000I1450000J0D01*
G01*
%TO.C,R11*%
X109560000Y-114716252D02*
X109560000Y-111943748D01*
X112980000Y-114716252D02*
X112980000Y-111943748D01*
%TO.C,TP5*%
X31600000Y-93420000D02*
G75*
G02*
X28700000Y-93420000I-1450000J0D01*
G01*
X28700000Y-93420000D02*
G75*
G02*
X31600000Y-93420000I1450000J0D01*
G01*
%TO.C,U3*%
X49120000Y-105750000D02*
X49120000Y-106020000D01*
X49120000Y-112650000D02*
X49120000Y-112380000D01*
X55540000Y-105750001D02*
X49120000Y-105750000D01*
X55540000Y-112649999D02*
X49120000Y-112650000D01*
X47730001Y-112810000D02*
X47050000Y-112810000D01*
X47390000Y-112340000D01*
X47730001Y-112810000D01*
G36*
X47730001Y-112810000D02*
G01*
X47050000Y-112810000D01*
X47390000Y-112340000D01*
X47730001Y-112810000D01*
G37*
%TO.C,R20*%
X98786252Y-68040000D02*
X96013748Y-68040000D01*
X98786252Y-71460000D02*
X96013748Y-71460000D01*
%TO.C,R5*%
X122813748Y-102340000D02*
X125586252Y-102340000D01*
X122813748Y-105760000D02*
X125586252Y-105760000D01*
%TO.C,TP6*%
X56950000Y-102250000D02*
G75*
G02*
X54050000Y-102250000I-1450000J0D01*
G01*
X54050000Y-102250000D02*
G75*
G02*
X56950000Y-102250000I1450000J0D01*
G01*
%TO.C,C1*%
X41300000Y-100911252D02*
X41300000Y-98588748D01*
X44720000Y-100911252D02*
X44720000Y-98588748D01*
%TO.C,R21*%
X95913748Y-63240000D02*
X98686252Y-63240000D01*
X95913748Y-66660000D02*
X98686252Y-66660000D01*
%TO.C,R23*%
X102386252Y-107740000D02*
X99613748Y-107740000D01*
X102386252Y-111160000D02*
X99613748Y-111160000D01*
%TO.C,TP14*%
X98550000Y-118450000D02*
G75*
G02*
X95650000Y-118450000I-1450000J0D01*
G01*
X95650000Y-118450000D02*
G75*
G02*
X98550000Y-118450000I1450000J0D01*
G01*
%TO.C,C13*%
X122290000Y-69611252D02*
X122290000Y-67288748D01*
X125710000Y-69611252D02*
X125710000Y-67288748D01*
%TO.C,C9*%
X47878748Y-113862500D02*
X50201252Y-113862500D01*
X47878748Y-117282500D02*
X50201252Y-117282500D01*
%TO.C,R25*%
X102386252Y-112340000D02*
X99613748Y-112340000D01*
X102386252Y-115760000D02*
X99613748Y-115760000D01*
%TO.C,R6*%
X122813748Y-107140000D02*
X125586252Y-107140000D01*
X122813748Y-110560000D02*
X125586252Y-110560000D01*
D14*
%TO.C,J5*%
X31872501Y-119050000D02*
X31872501Y-121390000D01*
X31872501Y-119050000D02*
X46712500Y-119050000D01*
X31872501Y-121390000D02*
X46712500Y-121390000D01*
X46712500Y-121390000D02*
X46712500Y-119050000D01*
D15*
X47462500Y-120220000D02*
G75*
G02*
X47262500Y-120220000I-100000J0D01*
G01*
X47262500Y-120220000D02*
G75*
G02*
X47462500Y-120220000I100000J0D01*
G01*
D13*
%TO.C,TP10*%
X112050000Y-94550000D02*
G75*
G02*
X109150000Y-94550000I-1450000J0D01*
G01*
X109150000Y-94550000D02*
G75*
G02*
X112050000Y-94550000I1450000J0D01*
G01*
%TO.C,TP1*%
X44450000Y-93660000D02*
G75*
G02*
X41550000Y-93660000I-1450000J0D01*
G01*
X41550000Y-93660000D02*
G75*
G02*
X44450000Y-93660000I1450000J0D01*
G01*
%TO.C,C7*%
X47838748Y-101362500D02*
X50161252Y-101362500D01*
X47838748Y-104782500D02*
X50161252Y-104782500D01*
%TO.C,TP4*%
X30150000Y-105150000D02*
G75*
G02*
X27250000Y-105150000I-1450000J0D01*
G01*
X27250000Y-105150000D02*
G75*
G02*
X30150000Y-105150000I1450000J0D01*
G01*
%TO.C,TP11*%
X123150000Y-118950000D02*
G75*
G02*
X120250000Y-118950000I-1450000J0D01*
G01*
X120250000Y-118950000D02*
G75*
G02*
X123150000Y-118950000I1450000J0D01*
G01*
%TO.C,R10*%
X115313748Y-107340000D02*
X118086252Y-107340000D01*
X115313748Y-110760000D02*
X118086252Y-110760000D01*
D14*
%TO.C,U7*%
X103625000Y-65300000D02*
X112775000Y-65300000D01*
X103625000Y-66000000D02*
X103625000Y-65300000D01*
X103625000Y-75900000D02*
X103625000Y-76600000D01*
X103625000Y-76600000D02*
X112775000Y-76600000D01*
X112775000Y-65300000D02*
X112775000Y-66000000D01*
X112775000Y-76600000D02*
X112775000Y-75900000D01*
D15*
X100600000Y-74850000D02*
G75*
G02*
X100400000Y-74850000I-100000J0D01*
G01*
X100400000Y-74850000D02*
G75*
G02*
X100600000Y-74850000I100000J0D01*
G01*
D13*
%TO.C,TP3*%
X25410000Y-108320000D02*
G75*
G02*
X22510000Y-108320000I-1450000J0D01*
G01*
X22510000Y-108320000D02*
G75*
G02*
X25410000Y-108320000I1450000J0D01*
G01*
%TO.C,TP9*%
X56439999Y-115472500D02*
G75*
G02*
X53539999Y-115472500I-1450000J0D01*
G01*
X53539999Y-115472500D02*
G75*
G02*
X56439999Y-115472500I1450000J0D01*
G01*
D14*
%TO.C,U5*%
X110850000Y-103300000D02*
X106950000Y-103300000D01*
X110850000Y-108200000D02*
X106950000Y-108200000D01*
D15*
X113100000Y-103845000D02*
G75*
G02*
X112900000Y-103845000I-100000J0D01*
G01*
X112900000Y-103845000D02*
G75*
G02*
X113100000Y-103845000I100000J0D01*
G01*
D13*
%TO.C,TP12*%
X111950000Y-90350000D02*
G75*
G02*
X109050000Y-90350000I-1450000J0D01*
G01*
X109050000Y-90350000D02*
G75*
G02*
X111950000Y-90350000I1450000J0D01*
G01*
%TO.C,TP16*%
X118350000Y-57650000D02*
G75*
G02*
X115450000Y-57650000I-1450000J0D01*
G01*
X115450000Y-57650000D02*
G75*
G02*
X118350000Y-57650000I1450000J0D01*
G01*
%TO.C,C10*%
X117961252Y-97640000D02*
X115638748Y-97640000D01*
X117961252Y-101060000D02*
X115638748Y-101060000D01*
%TO.C,C14*%
X115990000Y-73788748D02*
X115990000Y-76111252D01*
X119410000Y-73788748D02*
X119410000Y-76111252D01*
%TD*%
M02*
