%TF.GenerationSoftware,KiCad,Pcbnew,9.0.0*%
%TF.CreationDate,2025-07-10T14:22:36+03:00*%
%TF.ProjectId,easy home electronics,65617379-2068-46f6-9d65-20656c656374,rev?*%
%TF.SameCoordinates,Original*%
%TF.FileFunction,Copper,L2,Inr*%
%TF.FilePolarity,Positive*%
%FSLAX46Y46*%
G04 Gerber Fmt 4.6, Leading zero omitted, Abs format (unit mm)*
G04 Created by KiCad (PCBNEW 9.0.0) date 2025-07-10 14:22:36*
%MOMM*%
%LPD*%
G01*
G04 APERTURE LIST*
G04 Aperture macros list*
%AMRoundRect*
0 Rectangle with rounded corners*
0 $1 Rounding radius*
0 $2 $3 $4 $5 $6 $7 $8 $9 X,Y pos of 4 corners*
0 Add a 4 corners polygon primitive as box body*
4,1,4,$2,$3,$4,$5,$6,$7,$8,$9,$2,$3,0*
0 Add four circle primitives for the rounded corners*
1,1,$1+$1,$2,$3*
1,1,$1+$1,$4,$5*
1,1,$1+$1,$6,$7*
1,1,$1+$1,$8,$9*
0 Add four rect primitives between the rounded corners*
20,1,$1+$1,$2,$3,$4,$5,0*
20,1,$1+$1,$4,$5,$6,$7,0*
20,1,$1+$1,$6,$7,$8,$9,0*
20,1,$1+$1,$8,$9,$2,$3,0*%
G04 Aperture macros list end*
%TA.AperFunction,ComponentPad*%
%ADD10C,1.800000*%
%TD*%
%TA.AperFunction,ComponentPad*%
%ADD11C,2.000000*%
%TD*%
%TA.AperFunction,HeatsinkPad*%
%ADD12C,0.600000*%
%TD*%
%TA.AperFunction,ComponentPad*%
%ADD13C,0.800000*%
%TD*%
%TA.AperFunction,ComponentPad*%
%ADD14C,6.400000*%
%TD*%
%TA.AperFunction,ComponentPad*%
%ADD15C,0.700000*%
%TD*%
%TA.AperFunction,ComponentPad*%
%ADD16C,4.400000*%
%TD*%
%TA.AperFunction,ComponentPad*%
%ADD17RoundRect,0.250000X-0.550000X-0.550000X0.550000X-0.550000X0.550000X0.550000X-0.550000X0.550000X0*%
%TD*%
%TA.AperFunction,ComponentPad*%
%ADD18C,1.600000*%
%TD*%
%TA.AperFunction,ComponentPad*%
%ADD19C,1.524000*%
%TD*%
%TA.AperFunction,ComponentPad*%
%ADD20R,1.605000X1.605000*%
%TD*%
%TA.AperFunction,ComponentPad*%
%ADD21C,1.605000*%
%TD*%
%TA.AperFunction,ComponentPad*%
%ADD22C,6.000000*%
%TD*%
%TA.AperFunction,ComponentPad*%
%ADD23R,1.905000X2.000000*%
%TD*%
%TA.AperFunction,ComponentPad*%
%ADD24O,1.905000X2.000000*%
%TD*%
%TA.AperFunction,ComponentPad*%
%ADD25R,1.508000X1.508000*%
%TD*%
%TA.AperFunction,ComponentPad*%
%ADD26C,1.508000*%
%TD*%
%TA.AperFunction,ComponentPad*%
%ADD27O,2.500000X1.310000*%
%TD*%
%TA.AperFunction,ComponentPad*%
%ADD28C,1.650000*%
%TD*%
%TA.AperFunction,ComponentPad*%
%ADD29R,1.638300X1.638300*%
%TD*%
%TA.AperFunction,ComponentPad*%
%ADD30C,1.638300*%
%TD*%
%TA.AperFunction,ComponentPad*%
%ADD31R,1.240000X1.240000*%
%TD*%
%TA.AperFunction,ComponentPad*%
%ADD32C,1.240000*%
%TD*%
%TA.AperFunction,ViaPad*%
%ADD33C,0.600000*%
%TD*%
%TA.AperFunction,Conductor*%
%ADD34C,1.000000*%
%TD*%
%TA.AperFunction,Conductor*%
%ADD35C,0.500000*%
%TD*%
G04 APERTURE END LIST*
D10*
%TO.N,/N*%
%TO.C,RV1*%
X119100000Y-66200000D03*
%TO.N,Net-(PS1-AC1)*%
X120500000Y-58700001D03*
%TD*%
D11*
%TO.N,/button in*%
%TO.C,SW1*%
X26413806Y-112753806D03*
X31010000Y-117350000D03*
%TO.N,GND*%
X23231825Y-115935787D03*
X27828020Y-120531981D03*
%TD*%
D12*
%TO.N,GND*%
%TO.C,U2*%
X40110000Y-106299999D03*
X40110000Y-105200000D03*
X39560000Y-106850000D03*
X39560000Y-105750000D03*
X39560000Y-104650000D03*
X39010000Y-106300000D03*
X39010000Y-105199999D03*
X38460000Y-106850000D03*
X38460000Y-105750000D03*
X38460000Y-104650000D03*
X37910000Y-106299999D03*
X37910000Y-105200000D03*
%TD*%
D13*
%TO.N,N/C*%
%TO.C,REF\u002A\u002A*%
X109020000Y-60640000D03*
X109722944Y-58942944D03*
X109722944Y-62337056D03*
X111420000Y-58240000D03*
D14*
X111420000Y-60640000D03*
D13*
X111420000Y-63040000D03*
X113117056Y-58942944D03*
X113117056Y-62337056D03*
X113820000Y-60640000D03*
%TD*%
D15*
%TO.N,N/C*%
%TO.C,REF\u002A\u002A*%
X109760000Y-83040000D03*
X110243274Y-81873274D03*
X110243274Y-84206726D03*
X111410000Y-81390000D03*
D16*
X111410000Y-83040000D03*
D15*
X111410000Y-84690000D03*
X112576726Y-81873274D03*
X112576726Y-84206726D03*
X113060000Y-83040000D03*
%TD*%
D17*
%TO.N,Net-(R8-Pad2)*%
%TO.C,U4*%
X99645000Y-91485000D03*
D18*
%TO.N,GND_base*%
X99645000Y-94025000D03*
%TO.N,Net-(R12-Pad1)*%
X107265000Y-94025000D03*
%TO.N,V5V_base*%
X107265000Y-91485000D03*
%TD*%
D19*
%TO.N,V5V_base*%
%TO.C,J8*%
X127300000Y-69200000D03*
%TO.N,VCC_base*%
X127300000Y-66660000D03*
%TO.N,GND_base*%
X127300000Y-64120001D03*
%TD*%
D20*
%TO.N,/current_sense*%
%TO.C,J6*%
X117760000Y-119290000D03*
D21*
%TO.N,GND_base*%
X115220000Y-119290000D03*
%TO.N,/Volt_sense*%
X112680001Y-119290000D03*
%TO.N,GND_base*%
X110139999Y-119290000D03*
%TO.N,/switch_base*%
X107600000Y-119290000D03*
%TO.N,GND_base*%
X105060000Y-119290000D03*
%TD*%
D13*
%TO.N,/N*%
%TO.C,J2*%
X98070000Y-82890000D03*
X98729010Y-81299010D03*
X98729010Y-84480990D03*
X100320000Y-80640000D03*
D22*
X100320000Y-82890000D03*
D13*
X100320000Y-85140000D03*
X101910990Y-81299010D03*
X101910990Y-84480990D03*
X102570000Y-82890000D03*
%TD*%
D15*
%TO.N,N/C*%
%TO.C,REF\u002A\u002A*%
X123950000Y-59180000D03*
X124433274Y-58013274D03*
X124433274Y-60346726D03*
X125600000Y-57530000D03*
D16*
X125600000Y-59180000D03*
D15*
X125600000Y-60830000D03*
X126766726Y-58013274D03*
X126766726Y-60346726D03*
X127250000Y-59180000D03*
%TD*%
D23*
%TO.N,/L3*%
%TO.C,Q1*%
X119860000Y-93595000D03*
D24*
%TO.N,/L2*%
X122400000Y-93595000D03*
%TO.N,/triac in*%
X124939999Y-93595000D03*
%TD*%
D25*
%TO.N,Net-(PS1-AC1)*%
%TO.C,PS1*%
X96470000Y-104370000D03*
D26*
%TO.N,/N*%
X96470000Y-109370000D03*
%TO.N,GND_base*%
X125870000Y-99170000D03*
%TO.N,VCC_base*%
X125870000Y-114570000D03*
%TD*%
D27*
%TO.N,unconnected-(J3-SHIELD-PadSH1)_2*%
%TO.C,J3*%
X23395000Y-104485001D03*
%TO.N,unconnected-(J3-SHIELD-PadSH1)_4*%
X23395000Y-97974999D03*
%TD*%
D13*
%TO.N,/L*%
%TO.C,J1*%
X120320000Y-82890000D03*
X120979010Y-81299010D03*
X120979010Y-84480990D03*
X122570000Y-80640000D03*
D22*
X122570000Y-82890000D03*
D13*
X122570000Y-85140000D03*
X124160990Y-81299010D03*
X124160990Y-84480990D03*
X124820000Y-82890000D03*
%TD*%
D28*
%TO.N,Net-(PS1-AC1)*%
%TO.C,C4*%
X98000000Y-60150000D03*
%TO.N,/N*%
X98000000Y-75150000D03*
%TD*%
D29*
%TO.N,V5V*%
%TO.C,J7*%
X50957500Y-91590000D03*
D30*
%TO.N,VCC*%
X53497500Y-91590000D03*
%TO.N,GND*%
X56037500Y-91590000D03*
%TD*%
D31*
%TO.N,/I_sense*%
%TO.C,J5*%
X45642500Y-120220000D03*
D32*
%TO.N,GND*%
X43102500Y-120220000D03*
%TO.N,/V_sense*%
X40562501Y-120220000D03*
%TO.N,GND*%
X38022500Y-120220000D03*
%TO.N,/switch *%
X35482500Y-120220000D03*
%TO.N,GND*%
X32942500Y-120220000D03*
%TD*%
D33*
%TO.N,GND*%
X25000000Y-102950000D03*
%TO.N,VCC*%
X27100000Y-92450000D03*
X30100000Y-98630000D03*
X25100000Y-99650000D03*
%TO.N,/N*%
X125600000Y-101150000D03*
%TO.N,V5V*%
X32600000Y-95450000D03*
X36600000Y-100050000D03*
X27200000Y-107450000D03*
%TO.N,Net-(U6-FILTER)*%
X120700000Y-75050000D03*
X118400000Y-74170000D03*
%TO.N,/triac in*%
X115100000Y-91950000D03*
%TO.N,/button in*%
X25613008Y-107745479D03*
X33100000Y-103550000D03*
%TO.N,Net-(U2-IO7)*%
X45600000Y-104050000D03*
X51400000Y-100350000D03*
%TO.N,/switch *%
X43300000Y-107450000D03*
%TO.N,/in+*%
X109700000Y-106450000D03*
X111100000Y-68150000D03*
%TO.N,/in-*%
X112000000Y-70250000D03*
X109600000Y-92550000D03*
%TO.N,/V_isolation*%
X96200000Y-117050000D03*
X95000000Y-72150000D03*
X100007107Y-99457107D03*
X99900000Y-103450000D03*
%TO.N,/L_sense*%
X32800000Y-108650000D03*
%TO.N,/XTAL OUT*%
X29600000Y-110950000D03*
%TO.N,/I_sense*%
X43800000Y-115550000D03*
%TO.N,/V_sense*%
X42900000Y-110450000D03*
%TO.N,Net-(U2-IO8)*%
X49700000Y-103350000D03*
X54100000Y-105050000D03*
%TO.N,Net-(U2-IO9)*%
X50300000Y-99350000D03*
%TO.N,VCC_base*%
X126700000Y-71250000D03*
%TO.N,/current_sense*%
X116200000Y-67650000D03*
X116700000Y-63750000D03*
%TO.N,/switch_base*%
X96200000Y-98050000D03*
%TO.N,/Volt_sense*%
X100100000Y-113450000D03*
X100099348Y-110370000D03*
%TO.N,V5V_base*%
X97600000Y-64350000D03*
X105200000Y-101950000D03*
X105400000Y-114450000D03*
X124300000Y-69250000D03*
X107500000Y-89950000D03*
%TO.N,Net-(U5-OUT1)*%
X104300000Y-99550000D03*
X112000000Y-102950000D03*
X112800000Y-100150000D03*
%TO.N,GND_base*%
X117000000Y-75650000D03*
X122800000Y-68750000D03*
X99400000Y-95450000D03*
X111700000Y-108550000D03*
X113500000Y-98850000D03*
X102100000Y-114550000D03*
X102600000Y-76250000D03*
X106600000Y-110250000D03*
X115000000Y-96250000D03*
X118800000Y-71150000D03*
X100900000Y-104850000D03*
X114500000Y-116650000D03*
%TO.N,Net-(U6-VIOUT)*%
X123600000Y-62750000D03*
X116900000Y-59650000D03*
X120300000Y-74250000D03*
%TO.N,Net-(R23-Pad1)*%
X104500000Y-108450000D03*
X105200000Y-59850000D03*
X104200000Y-69450000D03*
%TD*%
D34*
%TO.N,V5V*%
X50957500Y-91590000D02*
X41860000Y-91590000D01*
X41860000Y-91590000D02*
X36600000Y-96850000D01*
X36600000Y-96850000D02*
X36600000Y-100050000D01*
D35*
%TO.N,/button in*%
X25613008Y-107736992D02*
X29800000Y-103550000D01*
X25613008Y-107745479D02*
X25613008Y-107736992D01*
X29800000Y-103550000D02*
X33100000Y-103550000D01*
%TO.N,Net-(U2-IO7)*%
X46800000Y-100350000D02*
X45600000Y-101550000D01*
X51400000Y-100350000D02*
X46800000Y-100350000D01*
X45600000Y-101550000D02*
X45600000Y-104050000D01*
%TO.N,/switch *%
X42800000Y-107450000D02*
X43300000Y-107450000D01*
X35482500Y-114767500D02*
X42800000Y-107450000D01*
X35482500Y-120220000D02*
X35482500Y-114767500D01*
%TO.N,/I_sense*%
X45642500Y-117392500D02*
X43800000Y-115550000D01*
X45642500Y-120220000D02*
X45642500Y-117392500D01*
%TO.N,/V_sense*%
X40562501Y-112787499D02*
X40562501Y-120220000D01*
X42900000Y-110450000D02*
X40562501Y-112787499D01*
%TO.N,Net-(U2-IO8)*%
X53800000Y-105350000D02*
X54100000Y-105050000D01*
X50100000Y-105350000D02*
X53800000Y-105350000D01*
X49700000Y-103350000D02*
X49700000Y-104950000D01*
X49700000Y-104950000D02*
X50100000Y-105350000D01*
%TO.N,Net-(U2-IO9)*%
X50300000Y-99350000D02*
X51230000Y-98420000D01*
X51230000Y-98420000D02*
X55510000Y-98420000D01*
D34*
%TO.N,V5V_base*%
X107500000Y-89950000D02*
X107500000Y-77850000D01*
X124300000Y-69250000D02*
X127250000Y-69250000D01*
X99600000Y-66350000D02*
X97600000Y-64350000D01*
X120684372Y-72865628D02*
X112484372Y-72865628D01*
X107200000Y-89950000D02*
X107500000Y-89950000D01*
X105200000Y-101950000D02*
X105200000Y-104350000D01*
X107500000Y-77850000D02*
X99600000Y-69950000D01*
X127250000Y-69250000D02*
X127300000Y-69200000D01*
X104800000Y-92350000D02*
X107200000Y-89950000D01*
X102900000Y-106650000D02*
X102900000Y-111950000D01*
X104900000Y-96150000D02*
X104900000Y-92450000D01*
X99600000Y-69950000D02*
X99600000Y-66350000D01*
X105200000Y-101950000D02*
X106700000Y-100450000D01*
X104900000Y-92450000D02*
X104800000Y-92350000D01*
X102900000Y-111950000D02*
X105400000Y-114450000D01*
X124300000Y-69250000D02*
X120684372Y-72865628D01*
X105200000Y-104350000D02*
X102900000Y-106650000D01*
X106700000Y-97950000D02*
X104900000Y-96150000D01*
X106700000Y-100450000D02*
X106700000Y-97950000D01*
X112484372Y-72865628D02*
X107500000Y-77850000D01*
%TD*%
%TA.AperFunction,Conductor*%
%TO.N,GND*%
G36*
X41431023Y-90433309D02*
G01*
X41440914Y-90432036D01*
X41463991Y-90442989D01*
X41488496Y-90450185D01*
X41495024Y-90457719D01*
X41504035Y-90461996D01*
X41517527Y-90483689D01*
X41534251Y-90502989D01*
X41535670Y-90512857D01*
X41540937Y-90521326D01*
X41540559Y-90546864D01*
X41544195Y-90572147D01*
X41540052Y-90581218D01*
X41539905Y-90591188D01*
X41525781Y-90612467D01*
X41515170Y-90635703D01*
X41505943Y-90642356D01*
X41501267Y-90649402D01*
X41471297Y-90668043D01*
X41470118Y-90668560D01*
X41386086Y-90703368D01*
X41386085Y-90703369D01*
X41377022Y-90709424D01*
X41377014Y-90709428D01*
X41222222Y-90812857D01*
X41222214Y-90812863D01*
X37206869Y-94828210D01*
X35962220Y-96072859D01*
X35962218Y-96072861D01*
X35892538Y-96142540D01*
X35822859Y-96212219D01*
X35713371Y-96376079D01*
X35713364Y-96376092D01*
X35637950Y-96558160D01*
X35637947Y-96558170D01*
X35599500Y-96751456D01*
X35599500Y-96751459D01*
X35599500Y-100148541D01*
X35599500Y-100148543D01*
X35599499Y-100148543D01*
X35637947Y-100341829D01*
X35637950Y-100341839D01*
X35713364Y-100523907D01*
X35713371Y-100523920D01*
X35822860Y-100687781D01*
X35822863Y-100687785D01*
X35962214Y-100827136D01*
X35962218Y-100827139D01*
X36126079Y-100936628D01*
X36126092Y-100936635D01*
X36308160Y-101012049D01*
X36308165Y-101012051D01*
X36308169Y-101012051D01*
X36308170Y-101012052D01*
X36501456Y-101050500D01*
X36501459Y-101050500D01*
X36698543Y-101050500D01*
X36828582Y-101024632D01*
X36891835Y-101012051D01*
X37073914Y-100936632D01*
X37237782Y-100827139D01*
X37377139Y-100687782D01*
X37486632Y-100523914D01*
X37562051Y-100341835D01*
X37598163Y-100160292D01*
X37600500Y-100148543D01*
X37600500Y-97315782D01*
X37620185Y-97248743D01*
X37636819Y-97228101D01*
X42238102Y-92626819D01*
X42299425Y-92593334D01*
X42325783Y-92590500D01*
X49587683Y-92590500D01*
X49654722Y-92610185D01*
X49687660Y-92645562D01*
X49689238Y-92644381D01*
X49780802Y-92766694D01*
X49780805Y-92766697D01*
X49896014Y-92852943D01*
X49896021Y-92852947D01*
X50030867Y-92903241D01*
X50030866Y-92903241D01*
X50037794Y-92903985D01*
X50090477Y-92909650D01*
X51824522Y-92909649D01*
X51884133Y-92903241D01*
X52018981Y-92852946D01*
X52134196Y-92766696D01*
X52220446Y-92651481D01*
X52270741Y-92516633D01*
X52270999Y-92514224D01*
X52271722Y-92512479D01*
X52272524Y-92509088D01*
X52273073Y-92509217D01*
X52297734Y-92449675D01*
X52355125Y-92409824D01*
X52424950Y-92407327D01*
X52485040Y-92442977D01*
X52488581Y-92446947D01*
X52490922Y-92449688D01*
X52490927Y-92449695D01*
X52637805Y-92596573D01*
X52805852Y-92718666D01*
X52990930Y-92812968D01*
X52990932Y-92812969D01*
X53089705Y-92845062D01*
X53188481Y-92877156D01*
X53283499Y-92892205D01*
X53393636Y-92909650D01*
X53393641Y-92909650D01*
X53601364Y-92909650D01*
X53700821Y-92893896D01*
X53806519Y-92877156D01*
X54004070Y-92812968D01*
X54189148Y-92718666D01*
X54357195Y-92596573D01*
X54504073Y-92449695D01*
X54626166Y-92281648D01*
X54720468Y-92096570D01*
X54784656Y-91899019D01*
X54809747Y-91740602D01*
X54817150Y-91693864D01*
X54817150Y-91486135D01*
X54798246Y-91366786D01*
X54784656Y-91280981D01*
X54720468Y-91083430D01*
X54626166Y-90898352D01*
X54504073Y-90730305D01*
X54415949Y-90642181D01*
X54382464Y-90580858D01*
X54387448Y-90511166D01*
X54429320Y-90455233D01*
X54494784Y-90430816D01*
X54503630Y-90430500D01*
X57123746Y-90430500D01*
X57190785Y-90450185D01*
X57236540Y-90502989D01*
X57247746Y-90554455D01*
X57257517Y-117375124D01*
X57257385Y-117380896D01*
X57240722Y-117741322D01*
X57239665Y-117752726D01*
X57190211Y-118107250D01*
X57188106Y-118118509D01*
X57106154Y-118466950D01*
X57103020Y-118477966D01*
X56989262Y-118817374D01*
X56985124Y-118828054D01*
X56840542Y-119155502D01*
X56835437Y-119165755D01*
X56661254Y-119478472D01*
X56655225Y-119488210D01*
X56452925Y-119783532D01*
X56446022Y-119792672D01*
X56217347Y-120068054D01*
X56209631Y-120076518D01*
X55956518Y-120329631D01*
X55948054Y-120337347D01*
X55672672Y-120566022D01*
X55663532Y-120572925D01*
X55368210Y-120775225D01*
X55358472Y-120781254D01*
X55045755Y-120955437D01*
X55035502Y-120960542D01*
X54708054Y-121105124D01*
X54697374Y-121109262D01*
X54357966Y-121223020D01*
X54346950Y-121226154D01*
X53998509Y-121308106D01*
X53987250Y-121310211D01*
X53632726Y-121359665D01*
X53621322Y-121360722D01*
X53260874Y-121377387D01*
X53255147Y-121377519D01*
X46733040Y-121377519D01*
X46666001Y-121357834D01*
X46620246Y-121305030D01*
X46610302Y-121235872D01*
X46633773Y-121179208D01*
X46706296Y-121082331D01*
X46756591Y-120947483D01*
X46763000Y-120887873D01*
X46762999Y-119552128D01*
X46756591Y-119492517D01*
X46755668Y-119490043D01*
X46706297Y-119357671D01*
X46706293Y-119357664D01*
X46620047Y-119242455D01*
X46620044Y-119242452D01*
X46504834Y-119156205D01*
X46473664Y-119144579D01*
X46417731Y-119102706D01*
X46393316Y-119037241D01*
X46393000Y-119028398D01*
X46393000Y-117318579D01*
X46364159Y-117173592D01*
X46364158Y-117173591D01*
X46364158Y-117173587D01*
X46364156Y-117173582D01*
X46307587Y-117037011D01*
X46307580Y-117036998D01*
X46225452Y-116914085D01*
X46225451Y-116914084D01*
X46120916Y-116809549D01*
X44546071Y-115234703D01*
X44519191Y-115194475D01*
X44509394Y-115170821D01*
X44447619Y-115078368D01*
X44421789Y-115039710D01*
X44310292Y-114928213D01*
X44310288Y-114928210D01*
X44179185Y-114840609D01*
X44179172Y-114840602D01*
X44033501Y-114780264D01*
X44033489Y-114780261D01*
X43878845Y-114749500D01*
X43878842Y-114749500D01*
X43721158Y-114749500D01*
X43721155Y-114749500D01*
X43566510Y-114780261D01*
X43566498Y-114780264D01*
X43420827Y-114840602D01*
X43420814Y-114840609D01*
X43289711Y-114928210D01*
X43289707Y-114928213D01*
X43178213Y-115039707D01*
X43178210Y-115039711D01*
X43090609Y-115170814D01*
X43090602Y-115170827D01*
X43030264Y-115316498D01*
X43030261Y-115316510D01*
X42999500Y-115471153D01*
X42999500Y-115628846D01*
X43030261Y-115783489D01*
X43030264Y-115783501D01*
X43090602Y-115929172D01*
X43090609Y-115929185D01*
X43178210Y-116060288D01*
X43178213Y-116060292D01*
X43289710Y-116171789D01*
X43420815Y-116259390D01*
X43420821Y-116259394D01*
X43444475Y-116269191D01*
X43484703Y-116296071D01*
X44855681Y-117667048D01*
X44889166Y-117728371D01*
X44892000Y-117754729D01*
X44892000Y-119028398D01*
X44872315Y-119095437D01*
X44819511Y-119141192D01*
X44811336Y-119144579D01*
X44780165Y-119156205D01*
X44664955Y-119242452D01*
X44664952Y-119242455D01*
X44578706Y-119357664D01*
X44578702Y-119357671D01*
X44528408Y-119492517D01*
X44522001Y-119552116D01*
X44522001Y-119552123D01*
X44522000Y-119552135D01*
X44522000Y-120887870D01*
X44522001Y-120887876D01*
X44528408Y-120947483D01*
X44578702Y-121082328D01*
X44578704Y-121082331D01*
X44651226Y-121179208D01*
X44675644Y-121244672D01*
X44660793Y-121312945D01*
X44611388Y-121362351D01*
X44551960Y-121377519D01*
X41257255Y-121377519D01*
X41190216Y-121357834D01*
X41144461Y-121305030D01*
X41134517Y-121235872D01*
X41163542Y-121172316D01*
X41184369Y-121153201D01*
X41292458Y-121074670D01*
X41417171Y-120949957D01*
X41520839Y-120807270D01*
X41600909Y-120650123D01*
X41655411Y-120482384D01*
X41683001Y-120308190D01*
X41683001Y-120131809D01*
X41655411Y-119957615D01*
X41600907Y-119789872D01*
X41520838Y-119632729D01*
X41462283Y-119552135D01*
X41417171Y-119490043D01*
X41349320Y-119422192D01*
X41315835Y-119360869D01*
X41313001Y-119334511D01*
X41313001Y-113149728D01*
X41332686Y-113082689D01*
X41349315Y-113062052D01*
X43215297Y-111196069D01*
X43255524Y-111169191D01*
X43279179Y-111159394D01*
X43410289Y-111071789D01*
X43521789Y-110960289D01*
X43609394Y-110829179D01*
X43669737Y-110683497D01*
X43700500Y-110528842D01*
X43700500Y-110371158D01*
X43700500Y-110371155D01*
X43700499Y-110371153D01*
X43674531Y-110240606D01*
X43669737Y-110216503D01*
X43669735Y-110216498D01*
X43609397Y-110070827D01*
X43609390Y-110070814D01*
X43521789Y-109939711D01*
X43521786Y-109939707D01*
X43410292Y-109828213D01*
X43410288Y-109828210D01*
X43279185Y-109740609D01*
X43279172Y-109740602D01*
X43133501Y-109680264D01*
X43133489Y-109680261D01*
X42978845Y-109649500D01*
X42978842Y-109649500D01*
X42821158Y-109649500D01*
X42821155Y-109649500D01*
X42666510Y-109680261D01*
X42666498Y-109680264D01*
X42520827Y-109740602D01*
X42520814Y-109740609D01*
X42389711Y-109828210D01*
X42389707Y-109828213D01*
X42278213Y-109939707D01*
X42278207Y-109939715D01*
X42190607Y-110070818D01*
X42190606Y-110070819D01*
X42180805Y-110094480D01*
X42153927Y-110134703D01*
X39979551Y-112309079D01*
X39979545Y-112309087D01*
X39930313Y-112382767D01*
X39930314Y-112382768D01*
X39897422Y-112431995D01*
X39897415Y-112432007D01*
X39840843Y-112568585D01*
X39840841Y-112568591D01*
X39812001Y-112713578D01*
X39812001Y-119334511D01*
X39792316Y-119401550D01*
X39775682Y-119422192D01*
X39707833Y-119490040D01*
X39604163Y-119632729D01*
X39524094Y-119789872D01*
X39469590Y-119957615D01*
X39442001Y-120131809D01*
X39442001Y-120308190D01*
X39469590Y-120482384D01*
X39524094Y-120650127D01*
X39586986Y-120773559D01*
X39604163Y-120807270D01*
X39707831Y-120949957D01*
X39832544Y-121074670D01*
X39940633Y-121153201D01*
X39983298Y-121208531D01*
X39989277Y-121278145D01*
X39956671Y-121339939D01*
X39895832Y-121374297D01*
X39867747Y-121377519D01*
X36177254Y-121377519D01*
X36110215Y-121357834D01*
X36064460Y-121305030D01*
X36054516Y-121235872D01*
X36083541Y-121172316D01*
X36104368Y-121153201D01*
X36212457Y-121074670D01*
X36337170Y-120949957D01*
X36440838Y-120807270D01*
X36520908Y-120650123D01*
X36575410Y-120482384D01*
X36603000Y-120308190D01*
X36603000Y-120131809D01*
X36575410Y-119957615D01*
X36520906Y-119789872D01*
X36440837Y-119632729D01*
X36382282Y-119552135D01*
X36337170Y-119490043D01*
X36269319Y-119422192D01*
X36235834Y-119360869D01*
X36233000Y-119334511D01*
X36233000Y-115129729D01*
X36252685Y-115062690D01*
X36269314Y-115042053D01*
X43040596Y-108270770D01*
X43101917Y-108237287D01*
X43152464Y-108236836D01*
X43206002Y-108247485D01*
X43221157Y-108250500D01*
X43221158Y-108250500D01*
X43378844Y-108250500D01*
X43378845Y-108250499D01*
X43533497Y-108219737D01*
X43679179Y-108159394D01*
X43810289Y-108071789D01*
X43921789Y-107960289D01*
X44009394Y-107829179D01*
X44069737Y-107683497D01*
X44100500Y-107528842D01*
X44100500Y-107371158D01*
X44100500Y-107371155D01*
X44100499Y-107371153D01*
X44069738Y-107216510D01*
X44069737Y-107216503D01*
X44031293Y-107123690D01*
X44009397Y-107070827D01*
X44009390Y-107070814D01*
X43921789Y-106939711D01*
X43921786Y-106939707D01*
X43810292Y-106828213D01*
X43810288Y-106828210D01*
X43679185Y-106740609D01*
X43679172Y-106740602D01*
X43533501Y-106680264D01*
X43533489Y-106680261D01*
X43378845Y-106649500D01*
X43378842Y-106649500D01*
X43221158Y-106649500D01*
X43221155Y-106649500D01*
X43066511Y-106680260D01*
X43066506Y-106680262D01*
X43066504Y-106680262D01*
X43066503Y-106680263D01*
X43042844Y-106690062D01*
X42995396Y-106699500D01*
X42726076Y-106699500D01*
X42697242Y-106705234D01*
X42697243Y-106705235D01*
X42581093Y-106728339D01*
X42581083Y-106728342D01*
X42501081Y-106761479D01*
X42501082Y-106761480D01*
X42444502Y-106784917D01*
X42395269Y-106817813D01*
X42321588Y-106867044D01*
X42321580Y-106867050D01*
X34899550Y-114289080D01*
X34899544Y-114289088D01*
X34850312Y-114362768D01*
X34850313Y-114362769D01*
X34817421Y-114411996D01*
X34817414Y-114412008D01*
X34760842Y-114548586D01*
X34760840Y-114548592D01*
X34732000Y-114693579D01*
X34732000Y-119334511D01*
X34712315Y-119401550D01*
X34695681Y-119422192D01*
X34627832Y-119490040D01*
X34524162Y-119632729D01*
X34444093Y-119789872D01*
X34389589Y-119957615D01*
X34362000Y-120131809D01*
X34362000Y-120308190D01*
X34389589Y-120482384D01*
X34444093Y-120650127D01*
X34506985Y-120773559D01*
X34524162Y-120807270D01*
X34627830Y-120949957D01*
X34752543Y-121074670D01*
X34860632Y-121153201D01*
X34903297Y-121208531D01*
X34909276Y-121278145D01*
X34876670Y-121339939D01*
X34815831Y-121374297D01*
X34787746Y-121377519D01*
X26270881Y-121377519D01*
X26265146Y-121377386D01*
X25904213Y-121360674D01*
X25892793Y-121359615D01*
X25537765Y-121310020D01*
X25526491Y-121307909D01*
X25177586Y-121225727D01*
X25166555Y-121222584D01*
X24826725Y-121108511D01*
X24816032Y-121104362D01*
X24488201Y-120959380D01*
X24477937Y-120954261D01*
X24164898Y-120779605D01*
X24155151Y-120773559D01*
X23859601Y-120570733D01*
X23850454Y-120563813D01*
X23574897Y-120334536D01*
X23566429Y-120326800D01*
X23313241Y-120073049D01*
X23305524Y-120064564D01*
X23076860Y-119788498D01*
X23069960Y-119779335D01*
X22867792Y-119483334D01*
X22861768Y-119473574D01*
X22829398Y-119415254D01*
X22687802Y-119160138D01*
X22682716Y-119149884D01*
X22538452Y-118821707D01*
X22534337Y-118811030D01*
X22421013Y-118470928D01*
X22417901Y-118459916D01*
X22336486Y-118110791D01*
X22334403Y-118099521D01*
X22310556Y-117925996D01*
X22285600Y-117744399D01*
X22284567Y-117733000D01*
X22268652Y-117371887D01*
X22268557Y-117368841D01*
X22268532Y-117367540D01*
X22268675Y-117303239D01*
X22267219Y-117297759D01*
X22266964Y-117284200D01*
X22267068Y-117283817D01*
X22266942Y-117281865D01*
X22266948Y-117231902D01*
X29509500Y-117231902D01*
X29509500Y-117468097D01*
X29546446Y-117701368D01*
X29619433Y-117925996D01*
X29713596Y-118110800D01*
X29726657Y-118136433D01*
X29865483Y-118327510D01*
X30032490Y-118494517D01*
X30223567Y-118633343D01*
X30322991Y-118684002D01*
X30434003Y-118740566D01*
X30434005Y-118740566D01*
X30434008Y-118740568D01*
X30554412Y-118779689D01*
X30658631Y-118813553D01*
X30891903Y-118850500D01*
X30891908Y-118850500D01*
X31128097Y-118850500D01*
X31361368Y-118813553D01*
X31411192Y-118797364D01*
X31585992Y-118740568D01*
X31796433Y-118633343D01*
X31987510Y-118494517D01*
X32154517Y-118327510D01*
X32293343Y-118136433D01*
X32400568Y-117925992D01*
X32473553Y-117701368D01*
X32493723Y-117574021D01*
X32510500Y-117468097D01*
X32510500Y-117231902D01*
X32473553Y-116998631D01*
X32400566Y-116774003D01*
X32293342Y-116563566D01*
X32154517Y-116372490D01*
X31987510Y-116205483D01*
X31796433Y-116066657D01*
X31783933Y-116060288D01*
X31585996Y-115959433D01*
X31361368Y-115886446D01*
X31128097Y-115849500D01*
X31128092Y-115849500D01*
X30891908Y-115849500D01*
X30891903Y-115849500D01*
X30658631Y-115886446D01*
X30434003Y-115959433D01*
X30223566Y-116066657D01*
X30114550Y-116145862D01*
X30032490Y-116205483D01*
X30032488Y-116205485D01*
X30032487Y-116205485D01*
X29865485Y-116372487D01*
X29865485Y-116372488D01*
X29865483Y-116372490D01*
X29805862Y-116454550D01*
X29726657Y-116563566D01*
X29619433Y-116774003D01*
X29546446Y-116998631D01*
X29509500Y-117231902D01*
X22266948Y-117231902D01*
X22267546Y-112635708D01*
X24913306Y-112635708D01*
X24913306Y-112871903D01*
X24950252Y-113105174D01*
X25023239Y-113329802D01*
X25130463Y-113540239D01*
X25269289Y-113731316D01*
X25436296Y-113898323D01*
X25627373Y-114037149D01*
X25726797Y-114087808D01*
X25837809Y-114144372D01*
X25837811Y-114144372D01*
X25837814Y-114144374D01*
X25958218Y-114183495D01*
X26062437Y-114217359D01*
X26295709Y-114254306D01*
X26295714Y-114254306D01*
X26531903Y-114254306D01*
X26765174Y-114217359D01*
X26989798Y-114144374D01*
X27200239Y-114037149D01*
X27391316Y-113898323D01*
X27558323Y-113731316D01*
X27697149Y-113540239D01*
X27804374Y-113329798D01*
X27877359Y-113105174D01*
X27884190Y-113062047D01*
X27914306Y-112871903D01*
X27914306Y-112635708D01*
X27877359Y-112402437D01*
X27804372Y-112177809D01*
X27697148Y-111967372D01*
X27558323Y-111776296D01*
X27391316Y-111609289D01*
X27200239Y-111470463D01*
X27180277Y-111460292D01*
X26989802Y-111363239D01*
X26765174Y-111290252D01*
X26531903Y-111253306D01*
X26531898Y-111253306D01*
X26295714Y-111253306D01*
X26295709Y-111253306D01*
X26062437Y-111290252D01*
X25837809Y-111363239D01*
X25627372Y-111470463D01*
X25518356Y-111549668D01*
X25436296Y-111609289D01*
X25436294Y-111609291D01*
X25436293Y-111609291D01*
X25269291Y-111776293D01*
X25269291Y-111776294D01*
X25269289Y-111776296D01*
X25209668Y-111858356D01*
X25130463Y-111967372D01*
X25023239Y-112177809D01*
X24950252Y-112402437D01*
X24913306Y-112635708D01*
X22267546Y-112635708D01*
X22267776Y-110871153D01*
X28799500Y-110871153D01*
X28799500Y-111028846D01*
X28830261Y-111183489D01*
X28830264Y-111183501D01*
X28890602Y-111329172D01*
X28890609Y-111329185D01*
X28978210Y-111460288D01*
X28978213Y-111460292D01*
X29089707Y-111571786D01*
X29089711Y-111571789D01*
X29220814Y-111659390D01*
X29220827Y-111659397D01*
X29366498Y-111719735D01*
X29366503Y-111719737D01*
X29521153Y-111750499D01*
X29521156Y-111750500D01*
X29521158Y-111750500D01*
X29678844Y-111750500D01*
X29678845Y-111750499D01*
X29833497Y-111719737D01*
X29979179Y-111659394D01*
X30110289Y-111571789D01*
X30221789Y-111460289D01*
X30309394Y-111329179D01*
X30369737Y-111183497D01*
X30400500Y-111028842D01*
X30400500Y-110871158D01*
X30400500Y-110871155D01*
X30400499Y-110871153D01*
X30369738Y-110716510D01*
X30369737Y-110716503D01*
X30356062Y-110683489D01*
X30309397Y-110570827D01*
X30309390Y-110570814D01*
X30221789Y-110439711D01*
X30221786Y-110439707D01*
X30110292Y-110328213D01*
X30110288Y-110328210D01*
X29979185Y-110240609D01*
X29979172Y-110240602D01*
X29833501Y-110180264D01*
X29833489Y-110180261D01*
X29678845Y-110149500D01*
X29678842Y-110149500D01*
X29521158Y-110149500D01*
X29521155Y-110149500D01*
X29366510Y-110180261D01*
X29366498Y-110180264D01*
X29220827Y-110240602D01*
X29220814Y-110240609D01*
X29089711Y-110328210D01*
X29089707Y-110328213D01*
X28978213Y-110439707D01*
X28978210Y-110439711D01*
X28890609Y-110570814D01*
X28890602Y-110570827D01*
X28830264Y-110716498D01*
X28830261Y-110716510D01*
X28799500Y-110871153D01*
X22267776Y-110871153D01*
X22268075Y-108571153D01*
X31999500Y-108571153D01*
X31999500Y-108728846D01*
X32030261Y-108883489D01*
X32030264Y-108883501D01*
X32090602Y-109029172D01*
X32090609Y-109029185D01*
X32178210Y-109160288D01*
X32178213Y-109160292D01*
X32289707Y-109271786D01*
X32289711Y-109271789D01*
X32420814Y-109359390D01*
X32420827Y-109359397D01*
X32566498Y-109419735D01*
X32566503Y-109419737D01*
X32721153Y-109450499D01*
X32721156Y-109450500D01*
X32721158Y-109450500D01*
X32878844Y-109450500D01*
X32878845Y-109450499D01*
X33033497Y-109419737D01*
X33179179Y-109359394D01*
X33310289Y-109271789D01*
X33421789Y-109160289D01*
X33509394Y-109029179D01*
X33569737Y-108883497D01*
X33600500Y-108728842D01*
X33600500Y-108571158D01*
X33600500Y-108571155D01*
X33600499Y-108571153D01*
X33569737Y-108416503D01*
X33569735Y-108416498D01*
X33509397Y-108270827D01*
X33509390Y-108270814D01*
X33421789Y-108139711D01*
X33421786Y-108139707D01*
X33310292Y-108028213D01*
X33310288Y-108028210D01*
X33179185Y-107940609D01*
X33179172Y-107940602D01*
X33033501Y-107880264D01*
X33033489Y-107880261D01*
X32878845Y-107849500D01*
X32878842Y-107849500D01*
X32721158Y-107849500D01*
X32721155Y-107849500D01*
X32566510Y-107880261D01*
X32566498Y-107880264D01*
X32420827Y-107940602D01*
X32420814Y-107940609D01*
X32289711Y-108028210D01*
X32289707Y-108028213D01*
X32178213Y-108139707D01*
X32178210Y-108139711D01*
X32090609Y-108270814D01*
X32090602Y-108270827D01*
X32030264Y-108416498D01*
X32030261Y-108416510D01*
X31999500Y-108571153D01*
X22268075Y-108571153D01*
X22268193Y-107666632D01*
X24812508Y-107666632D01*
X24812508Y-107824325D01*
X24843269Y-107978968D01*
X24843272Y-107978980D01*
X24903610Y-108124651D01*
X24903617Y-108124664D01*
X24991218Y-108255767D01*
X24991221Y-108255771D01*
X25102715Y-108367265D01*
X25102719Y-108367268D01*
X25233822Y-108454869D01*
X25233835Y-108454876D01*
X25379506Y-108515214D01*
X25379511Y-108515216D01*
X25534161Y-108545978D01*
X25534164Y-108545979D01*
X25534166Y-108545979D01*
X25691852Y-108545979D01*
X25691853Y-108545978D01*
X25846505Y-108515216D01*
X25992187Y-108454873D01*
X26123297Y-108367268D01*
X26234797Y-108255768D01*
X26322402Y-108124658D01*
X26338201Y-108086512D01*
X26342832Y-108079581D01*
X26343930Y-108074538D01*
X26365075Y-108046291D01*
X26426965Y-107984401D01*
X26488287Y-107950919D01*
X26557978Y-107955904D01*
X26602325Y-107984404D01*
X26689707Y-108071786D01*
X26689711Y-108071789D01*
X26820814Y-108159390D01*
X26820827Y-108159397D01*
X26966498Y-108219735D01*
X26966503Y-108219737D01*
X27121153Y-108250499D01*
X27121156Y-108250500D01*
X27121158Y-108250500D01*
X27278844Y-108250500D01*
X27278845Y-108250499D01*
X27433497Y-108219737D01*
X27579179Y-108159394D01*
X27710289Y-108071789D01*
X27821789Y-107960289D01*
X27909394Y-107829179D01*
X27969737Y-107683497D01*
X28000500Y-107528842D01*
X28000500Y-107371158D01*
X28000500Y-107371155D01*
X28000499Y-107371153D01*
X27969738Y-107216510D01*
X27969737Y-107216503D01*
X27931293Y-107123690D01*
X27909397Y-107070827D01*
X27909390Y-107070814D01*
X27821789Y-106939711D01*
X27821786Y-106939707D01*
X27734404Y-106852325D01*
X27700919Y-106791002D01*
X27705903Y-106721310D01*
X27734404Y-106676963D01*
X28900345Y-105511023D01*
X30074549Y-104336819D01*
X30135872Y-104303334D01*
X30162230Y-104300500D01*
X32795396Y-104300500D01*
X32842844Y-104309937D01*
X32866503Y-104319737D01*
X32866508Y-104319738D01*
X32866511Y-104319739D01*
X33021153Y-104350499D01*
X33021156Y-104350500D01*
X33021158Y-104350500D01*
X33178844Y-104350500D01*
X33178845Y-104350499D01*
X33333497Y-104319737D01*
X33479179Y-104259394D01*
X33610289Y-104171789D01*
X33721789Y-104060289D01*
X33781344Y-103971158D01*
X44799500Y-103971158D01*
X44799500Y-103979001D01*
X44799500Y-104128846D01*
X44830261Y-104283489D01*
X44830264Y-104283501D01*
X44890602Y-104429172D01*
X44890609Y-104429185D01*
X44978210Y-104560288D01*
X44978213Y-104560292D01*
X45089707Y-104671786D01*
X45089711Y-104671789D01*
X45220814Y-104759390D01*
X45220827Y-104759397D01*
X45358683Y-104816498D01*
X45366503Y-104819737D01*
X45521153Y-104850499D01*
X45521156Y-104850500D01*
X45521158Y-104850500D01*
X45678844Y-104850500D01*
X45678845Y-104850499D01*
X45833497Y-104819737D01*
X45979179Y-104759394D01*
X46110289Y-104671789D01*
X46221789Y-104560289D01*
X46309394Y-104429179D01*
X46369737Y-104283497D01*
X46400500Y-104128842D01*
X46400500Y-103971158D01*
X46400500Y-103971155D01*
X46400499Y-103971153D01*
X46369739Y-103816511D01*
X46369738Y-103816508D01*
X46369737Y-103816503D01*
X46359937Y-103792844D01*
X46350500Y-103745396D01*
X46350500Y-103271153D01*
X48899500Y-103271153D01*
X48899500Y-103428846D01*
X48930261Y-103583489D01*
X48930263Y-103583497D01*
X48938604Y-103603635D01*
X48940061Y-103607151D01*
X48949500Y-103654604D01*
X48949500Y-105023918D01*
X48949500Y-105023920D01*
X48949499Y-105023920D01*
X48978340Y-105168907D01*
X48978342Y-105168913D01*
X49034915Y-105305494D01*
X49036326Y-105307604D01*
X49036333Y-105307627D01*
X49036339Y-105307624D01*
X49075592Y-105366372D01*
X49117051Y-105428420D01*
X49117052Y-105428421D01*
X49621580Y-105932948D01*
X49621584Y-105932951D01*
X49744498Y-106015080D01*
X49744511Y-106015087D01*
X49881082Y-106071656D01*
X49881087Y-106071658D01*
X49881091Y-106071658D01*
X49881092Y-106071659D01*
X50026079Y-106100500D01*
X50026082Y-106100500D01*
X53873920Y-106100500D01*
X53971462Y-106081096D01*
X54018913Y-106071658D01*
X54155495Y-106015084D01*
X54204729Y-105982186D01*
X54278416Y-105932952D01*
X54415298Y-105796068D01*
X54455528Y-105769189D01*
X54479179Y-105759394D01*
X54610289Y-105671789D01*
X54721789Y-105560289D01*
X54809394Y-105429179D01*
X54869737Y-105283497D01*
X54900500Y-105128842D01*
X54900500Y-104971158D01*
X54900500Y-104971155D01*
X54900499Y-104971153D01*
X54869738Y-104816510D01*
X54869737Y-104816503D01*
X54846080Y-104759390D01*
X54809397Y-104670827D01*
X54809390Y-104670814D01*
X54721789Y-104539711D01*
X54721786Y-104539707D01*
X54610292Y-104428213D01*
X54610288Y-104428210D01*
X54479185Y-104340609D01*
X54479172Y-104340602D01*
X54333501Y-104280264D01*
X54333489Y-104280261D01*
X54178845Y-104249500D01*
X54178842Y-104249500D01*
X54021158Y-104249500D01*
X54021155Y-104249500D01*
X53866510Y-104280261D01*
X53866498Y-104280264D01*
X53720827Y-104340602D01*
X53720814Y-104340609D01*
X53589711Y-104428210D01*
X53589707Y-104428213D01*
X53478211Y-104539709D01*
X53475086Y-104544388D01*
X53421475Y-104589194D01*
X53371982Y-104599500D01*
X50574500Y-104599500D01*
X50507461Y-104579815D01*
X50461706Y-104527011D01*
X50450500Y-104475500D01*
X50450500Y-103654604D01*
X50459939Y-103607151D01*
X50469737Y-103583497D01*
X50500500Y-103428842D01*
X50500500Y-103271158D01*
X50500500Y-103271155D01*
X50500499Y-103271153D01*
X50480543Y-103170827D01*
X50469737Y-103116503D01*
X50437929Y-103039711D01*
X50409397Y-102970827D01*
X50409390Y-102970814D01*
X50321789Y-102839711D01*
X50321786Y-102839707D01*
X50210292Y-102728213D01*
X50210288Y-102728210D01*
X50079185Y-102640609D01*
X50079172Y-102640602D01*
X49933501Y-102580264D01*
X49933489Y-102580261D01*
X49778845Y-102549500D01*
X49778842Y-102549500D01*
X49621158Y-102549500D01*
X49621155Y-102549500D01*
X49466510Y-102580261D01*
X49466498Y-102580264D01*
X49320827Y-102640602D01*
X49320814Y-102640609D01*
X49189711Y-102728210D01*
X49189707Y-102728213D01*
X49078213Y-102839707D01*
X49078210Y-102839711D01*
X48990609Y-102970814D01*
X48990602Y-102970827D01*
X48930264Y-103116498D01*
X48930261Y-103116510D01*
X48899500Y-103271153D01*
X46350500Y-103271153D01*
X46350500Y-101912229D01*
X46370185Y-101845190D01*
X46386819Y-101824548D01*
X47074548Y-101136819D01*
X47135871Y-101103334D01*
X47162229Y-101100500D01*
X51095396Y-101100500D01*
X51142844Y-101109937D01*
X51166503Y-101119737D01*
X51166508Y-101119738D01*
X51166511Y-101119739D01*
X51321153Y-101150499D01*
X51321156Y-101150500D01*
X51321158Y-101150500D01*
X51478844Y-101150500D01*
X51478845Y-101150499D01*
X51633497Y-101119737D01*
X51779179Y-101059394D01*
X51910289Y-100971789D01*
X52021789Y-100860289D01*
X52109394Y-100729179D01*
X52169737Y-100583497D01*
X52200500Y-100428842D01*
X52200500Y-100271158D01*
X52200500Y-100271155D01*
X52200499Y-100271153D01*
X52178447Y-100160292D01*
X52169737Y-100116503D01*
X52133569Y-100029185D01*
X52109397Y-99970827D01*
X52109390Y-99970814D01*
X52021789Y-99839711D01*
X52021786Y-99839707D01*
X51910292Y-99728213D01*
X51910288Y-99728210D01*
X51779185Y-99640609D01*
X51779172Y-99640602D01*
X51633501Y-99580264D01*
X51633489Y-99580261D01*
X51478845Y-99549500D01*
X51478842Y-99549500D01*
X51461229Y-99549500D01*
X51439983Y-99543261D01*
X51417895Y-99541682D01*
X51407111Y-99533609D01*
X51394190Y-99529815D01*
X51379690Y-99513081D01*
X51361962Y-99499810D01*
X51357254Y-99487189D01*
X51348435Y-99477011D01*
X51345283Y-99455093D01*
X51337545Y-99434346D01*
X51340407Y-99421185D01*
X51338491Y-99407853D01*
X51347690Y-99387709D01*
X51352397Y-99366073D01*
X51365665Y-99348347D01*
X51367516Y-99344297D01*
X51373548Y-99337819D01*
X51504548Y-99206819D01*
X51565871Y-99173334D01*
X51592229Y-99170500D01*
X55583920Y-99170500D01*
X55681462Y-99151096D01*
X55728913Y-99141658D01*
X55865495Y-99085084D01*
X55988416Y-99002951D01*
X56092951Y-98898416D01*
X56175084Y-98775495D01*
X56231658Y-98638913D01*
X56260500Y-98493918D01*
X56260500Y-98346082D01*
X56260500Y-98346079D01*
X56231659Y-98201092D01*
X56231658Y-98201091D01*
X56231658Y-98201087D01*
X56197951Y-98119711D01*
X56175087Y-98064511D01*
X56175080Y-98064498D01*
X56092951Y-97941584D01*
X56092948Y-97941580D01*
X55988419Y-97837051D01*
X55988415Y-97837048D01*
X55865501Y-97754919D01*
X55865488Y-97754912D01*
X55728917Y-97698343D01*
X55728907Y-97698340D01*
X55583920Y-97669500D01*
X55583918Y-97669500D01*
X51156082Y-97669500D01*
X51156076Y-97669500D01*
X51127242Y-97675234D01*
X51127243Y-97675235D01*
X51011093Y-97698339D01*
X51011083Y-97698342D01*
X50931081Y-97731479D01*
X50931082Y-97731480D01*
X50874505Y-97754915D01*
X50792372Y-97809795D01*
X50751585Y-97837047D01*
X50751581Y-97837050D01*
X49984704Y-98603927D01*
X49944478Y-98630806D01*
X49920826Y-98640603D01*
X49920814Y-98640609D01*
X49789711Y-98728210D01*
X49789707Y-98728213D01*
X49678213Y-98839707D01*
X49678210Y-98839711D01*
X49590609Y-98970814D01*
X49590602Y-98970827D01*
X49530264Y-99116498D01*
X49530261Y-99116510D01*
X49499500Y-99271153D01*
X49499500Y-99428841D01*
X49503969Y-99451310D01*
X49497740Y-99520901D01*
X49454877Y-99576078D01*
X49388987Y-99599322D01*
X49382351Y-99599500D01*
X46726080Y-99599500D01*
X46581092Y-99628340D01*
X46581082Y-99628343D01*
X46444511Y-99684912D01*
X46444498Y-99684919D01*
X46321584Y-99767048D01*
X46321580Y-99767051D01*
X45017052Y-101071578D01*
X45017049Y-101071581D01*
X44984873Y-101119736D01*
X44984874Y-101119737D01*
X44934913Y-101194508D01*
X44878343Y-101331082D01*
X44878340Y-101331092D01*
X44849500Y-101476079D01*
X44849500Y-103745396D01*
X44848049Y-103752687D01*
X44846408Y-103772916D01*
X44844079Y-103783147D01*
X44830263Y-103816503D01*
X44799500Y-103971158D01*
X33781344Y-103971158D01*
X33809394Y-103929179D01*
X33869737Y-103783497D01*
X33900500Y-103628842D01*
X33900500Y-103471158D01*
X33900500Y-103471155D01*
X33900499Y-103471153D01*
X33898050Y-103458842D01*
X33869737Y-103316503D01*
X33850955Y-103271158D01*
X33809397Y-103170827D01*
X33809390Y-103170814D01*
X33721789Y-103039711D01*
X33721786Y-103039707D01*
X33610292Y-102928213D01*
X33610288Y-102928210D01*
X33479185Y-102840609D01*
X33479172Y-102840602D01*
X33333501Y-102780264D01*
X33333489Y-102780261D01*
X33178845Y-102749500D01*
X33178842Y-102749500D01*
X33021158Y-102749500D01*
X33021155Y-102749500D01*
X32866511Y-102780260D01*
X32866506Y-102780262D01*
X32866504Y-102780262D01*
X32866503Y-102780263D01*
X32842844Y-102790062D01*
X32795396Y-102799500D01*
X29726080Y-102799500D01*
X29581092Y-102828340D01*
X29581086Y-102828342D01*
X29444508Y-102884914D01*
X29444496Y-102884921D01*
X29395269Y-102917813D01*
X29321588Y-102967044D01*
X29321580Y-102967050D01*
X25283222Y-107005408D01*
X25243001Y-107032285D01*
X25233830Y-107036084D01*
X25233826Y-107036086D01*
X25102723Y-107123686D01*
X25102715Y-107123692D01*
X24991221Y-107235186D01*
X24991218Y-107235190D01*
X24903617Y-107366293D01*
X24903610Y-107366306D01*
X24843272Y-107511977D01*
X24843269Y-107511989D01*
X24812508Y-107666632D01*
X22268193Y-107666632D01*
X22268449Y-105697906D01*
X22288142Y-105630872D01*
X22340952Y-105585124D01*
X22410112Y-105575189D01*
X22430757Y-105579991D01*
X22505205Y-105604181D01*
X22529419Y-105612049D01*
X22709055Y-105640501D01*
X22709060Y-105640501D01*
X24080945Y-105640501D01*
X24260580Y-105612049D01*
X24433558Y-105555845D01*
X24595614Y-105473273D01*
X24742758Y-105366367D01*
X24871366Y-105237759D01*
X24978272Y-105090615D01*
X25060844Y-104928559D01*
X25117048Y-104755581D01*
X25145500Y-104575946D01*
X25145500Y-104394055D01*
X25117048Y-104214420D01*
X25060842Y-104041438D01*
X24997748Y-103917611D01*
X24978272Y-103879387D01*
X24932590Y-103816511D01*
X24871371Y-103732249D01*
X24871367Y-103732244D01*
X24742756Y-103603633D01*
X24742751Y-103603629D01*
X24595617Y-103496731D01*
X24595616Y-103496730D01*
X24595614Y-103496729D01*
X24521257Y-103458842D01*
X24433562Y-103414158D01*
X24260580Y-103357952D01*
X24080945Y-103329501D01*
X24080940Y-103329501D01*
X22709060Y-103329501D01*
X22709055Y-103329501D01*
X22529418Y-103357953D01*
X22529415Y-103357953D01*
X22431083Y-103389904D01*
X22361242Y-103391899D01*
X22301409Y-103355819D01*
X22270581Y-103293118D01*
X22268765Y-103271957D01*
X22268811Y-102917813D01*
X22269295Y-99188179D01*
X22288988Y-99121145D01*
X22341798Y-99075397D01*
X22410958Y-99065462D01*
X22431604Y-99070264D01*
X22503069Y-99093485D01*
X22529419Y-99102047D01*
X22709055Y-99130499D01*
X22709060Y-99130499D01*
X24080944Y-99130499D01*
X24153842Y-99118952D01*
X24255861Y-99102794D01*
X24325152Y-99111748D01*
X24378604Y-99156744D01*
X24399244Y-99223495D01*
X24389819Y-99272718D01*
X24330263Y-99416503D01*
X24330261Y-99416510D01*
X24299500Y-99571153D01*
X24299500Y-99728846D01*
X24330261Y-99883489D01*
X24330264Y-99883501D01*
X24390602Y-100029172D01*
X24390609Y-100029185D01*
X24478210Y-100160288D01*
X24478213Y-100160292D01*
X24589707Y-100271786D01*
X24589711Y-100271789D01*
X24720814Y-100359390D01*
X24720827Y-100359397D01*
X24866498Y-100419735D01*
X24866503Y-100419737D01*
X25021153Y-100450499D01*
X25021156Y-100450500D01*
X25021158Y-100450500D01*
X25178844Y-100450500D01*
X25178845Y-100450499D01*
X25333497Y-100419737D01*
X25479179Y-100359394D01*
X25610289Y-100271789D01*
X25721789Y-100160289D01*
X25809394Y-100029179D01*
X25869737Y-99883497D01*
X25900500Y-99728842D01*
X25900500Y-99571158D01*
X25900500Y-99571155D01*
X25900499Y-99571153D01*
X25877413Y-99455093D01*
X25869737Y-99416503D01*
X25857810Y-99387709D01*
X25809397Y-99270827D01*
X25809390Y-99270814D01*
X25721789Y-99139711D01*
X25721786Y-99139707D01*
X25610292Y-99028213D01*
X25610288Y-99028210D01*
X25479185Y-98940609D01*
X25479172Y-98940602D01*
X25333501Y-98880264D01*
X25333489Y-98880261D01*
X25178845Y-98849500D01*
X25178842Y-98849500D01*
X25026279Y-98849500D01*
X25019191Y-98847419D01*
X25011910Y-98848665D01*
X24986118Y-98837707D01*
X24959240Y-98829815D01*
X24954403Y-98824233D01*
X24947603Y-98821344D01*
X24931828Y-98798180D01*
X24913485Y-98777011D01*
X24912433Y-98769701D01*
X24908275Y-98763594D01*
X24907528Y-98735583D01*
X24903541Y-98707853D01*
X24906563Y-98699406D01*
X24906413Y-98693749D01*
X24915225Y-98675205D01*
X24920214Y-98661265D01*
X24922912Y-98656808D01*
X24978272Y-98580613D01*
X24993283Y-98551153D01*
X29299500Y-98551153D01*
X29299500Y-98708846D01*
X29330261Y-98863489D01*
X29330264Y-98863501D01*
X29390602Y-99009172D01*
X29390609Y-99009185D01*
X29478210Y-99140288D01*
X29478213Y-99140292D01*
X29589707Y-99251786D01*
X29589711Y-99251789D01*
X29720814Y-99339390D01*
X29720827Y-99339397D01*
X29866498Y-99399735D01*
X29866503Y-99399737D01*
X29974329Y-99421185D01*
X30021153Y-99430499D01*
X30021156Y-99430500D01*
X30021158Y-99430500D01*
X30178844Y-99430500D01*
X30178845Y-99430499D01*
X30333497Y-99399737D01*
X30479179Y-99339394D01*
X30610289Y-99251789D01*
X30721789Y-99140289D01*
X30809394Y-99009179D01*
X30869737Y-98863497D01*
X30900500Y-98708842D01*
X30900500Y-98551158D01*
X30900500Y-98551155D01*
X30900499Y-98551153D01*
X30869737Y-98396503D01*
X30848851Y-98346079D01*
X30809397Y-98250827D01*
X30809390Y-98250814D01*
X30721789Y-98119711D01*
X30721786Y-98119707D01*
X30610292Y-98008213D01*
X30610288Y-98008210D01*
X30479185Y-97920609D01*
X30479172Y-97920602D01*
X30333501Y-97860264D01*
X30333489Y-97860261D01*
X30178845Y-97829500D01*
X30178842Y-97829500D01*
X30021158Y-97829500D01*
X30021155Y-97829500D01*
X29866510Y-97860261D01*
X29866498Y-97860264D01*
X29720827Y-97920602D01*
X29720814Y-97920609D01*
X29589711Y-98008210D01*
X29589707Y-98008213D01*
X29478213Y-98119707D01*
X29478210Y-98119711D01*
X29390609Y-98250814D01*
X29390602Y-98250827D01*
X29330264Y-98396498D01*
X29330261Y-98396510D01*
X29299500Y-98551153D01*
X24993283Y-98551153D01*
X25060844Y-98418557D01*
X25117048Y-98245579D01*
X25124096Y-98201082D01*
X25145500Y-98065944D01*
X25145500Y-97884053D01*
X25117048Y-97704418D01*
X25060842Y-97531436D01*
X25030885Y-97472644D01*
X24978272Y-97369385D01*
X24875624Y-97228101D01*
X24871371Y-97222247D01*
X24871367Y-97222242D01*
X24742756Y-97093631D01*
X24742751Y-97093627D01*
X24595617Y-96986729D01*
X24595616Y-96986728D01*
X24595614Y-96986727D01*
X24520411Y-96948409D01*
X24433562Y-96904156D01*
X24260580Y-96847950D01*
X24080945Y-96819499D01*
X24080940Y-96819499D01*
X22709060Y-96819499D01*
X22709055Y-96819499D01*
X22529418Y-96847951D01*
X22529415Y-96847951D01*
X22431929Y-96879627D01*
X22362088Y-96881622D01*
X22302255Y-96845542D01*
X22271427Y-96782841D01*
X22269611Y-96761680D01*
X22269613Y-96751459D01*
X22269793Y-95371153D01*
X31799500Y-95371153D01*
X31799500Y-95528846D01*
X31830261Y-95683489D01*
X31830264Y-95683501D01*
X31890602Y-95829172D01*
X31890609Y-95829185D01*
X31978210Y-95960288D01*
X31978213Y-95960292D01*
X32089707Y-96071786D01*
X32089711Y-96071789D01*
X32220814Y-96159390D01*
X32220827Y-96159397D01*
X32366498Y-96219735D01*
X32366503Y-96219737D01*
X32521153Y-96250499D01*
X32521156Y-96250500D01*
X32521158Y-96250500D01*
X32678844Y-96250500D01*
X32678845Y-96250499D01*
X32833497Y-96219737D01*
X32979179Y-96159394D01*
X33110289Y-96071789D01*
X33221789Y-95960289D01*
X33309394Y-95829179D01*
X33369737Y-95683497D01*
X33400500Y-95528842D01*
X33400500Y-95371158D01*
X33400500Y-95371155D01*
X33400499Y-95371153D01*
X33369738Y-95216510D01*
X33369737Y-95216503D01*
X33369735Y-95216498D01*
X33309397Y-95070827D01*
X33309390Y-95070814D01*
X33221789Y-94939711D01*
X33221786Y-94939707D01*
X33110292Y-94828213D01*
X33110288Y-94828210D01*
X32979185Y-94740609D01*
X32979172Y-94740602D01*
X32833501Y-94680264D01*
X32833489Y-94680261D01*
X32678845Y-94649500D01*
X32678842Y-94649500D01*
X32521158Y-94649500D01*
X32521155Y-94649500D01*
X32366510Y-94680261D01*
X32366498Y-94680264D01*
X32220827Y-94740602D01*
X32220814Y-94740609D01*
X32089711Y-94828210D01*
X32089707Y-94828213D01*
X31978213Y-94939707D01*
X31978210Y-94939711D01*
X31890609Y-95070814D01*
X31890602Y-95070827D01*
X31830264Y-95216498D01*
X31830261Y-95216510D01*
X31799500Y-95371153D01*
X22269793Y-95371153D01*
X22270183Y-92371153D01*
X26299500Y-92371153D01*
X26299500Y-92528846D01*
X26330261Y-92683489D01*
X26330264Y-92683501D01*
X26390602Y-92829172D01*
X26390609Y-92829185D01*
X26478210Y-92960288D01*
X26478213Y-92960292D01*
X26589707Y-93071786D01*
X26589711Y-93071789D01*
X26720814Y-93159390D01*
X26720827Y-93159397D01*
X26866498Y-93219735D01*
X26866503Y-93219737D01*
X27021153Y-93250499D01*
X27021156Y-93250500D01*
X27021158Y-93250500D01*
X27178844Y-93250500D01*
X27178845Y-93250499D01*
X27333497Y-93219737D01*
X27479179Y-93159394D01*
X27610289Y-93071789D01*
X27721789Y-92960289D01*
X27809394Y-92829179D01*
X27869737Y-92683497D01*
X27900500Y-92528842D01*
X27900500Y-92371158D01*
X27900500Y-92371155D01*
X27900499Y-92371153D01*
X27869738Y-92216510D01*
X27869737Y-92216503D01*
X27869735Y-92216498D01*
X27809397Y-92070827D01*
X27809390Y-92070814D01*
X27721789Y-91939711D01*
X27721786Y-91939707D01*
X27610292Y-91828213D01*
X27610288Y-91828210D01*
X27479185Y-91740609D01*
X27479172Y-91740602D01*
X27333501Y-91680264D01*
X27333489Y-91680261D01*
X27178845Y-91649500D01*
X27178842Y-91649500D01*
X27021158Y-91649500D01*
X27021155Y-91649500D01*
X26866510Y-91680261D01*
X26866498Y-91680264D01*
X26720827Y-91740602D01*
X26720814Y-91740609D01*
X26589711Y-91828210D01*
X26589707Y-91828213D01*
X26478213Y-91939707D01*
X26478210Y-91939711D01*
X26390609Y-92070814D01*
X26390602Y-92070827D01*
X26330264Y-92216498D01*
X26330261Y-92216510D01*
X26299500Y-92371153D01*
X22270183Y-92371153D01*
X22270399Y-90709428D01*
X22270419Y-90554484D01*
X22290112Y-90487447D01*
X22342922Y-90441699D01*
X22394419Y-90430500D01*
X41421457Y-90430500D01*
X41431023Y-90433309D01*
G37*
%TD.AperFunction*%
%TD*%
%TA.AperFunction,Conductor*%
%TO.N,GND_base*%
G36*
X124792855Y-55930632D02*
G01*
X125151465Y-55947211D01*
X125162854Y-55948267D01*
X125515563Y-55997468D01*
X125526807Y-55999570D01*
X125873471Y-56081104D01*
X125884461Y-56084231D01*
X126222143Y-56197411D01*
X126232797Y-56201539D01*
X126558581Y-56345386D01*
X126568808Y-56350478D01*
X126800446Y-56479500D01*
X126879924Y-56523769D01*
X126889634Y-56529779D01*
X126890934Y-56530669D01*
X126935132Y-56584783D01*
X126943057Y-56654202D01*
X126912193Y-56716886D01*
X126852340Y-56752932D01*
X126782500Y-56750897D01*
X126767084Y-56744708D01*
X126635076Y-56681136D01*
X126635068Y-56681133D01*
X126348783Y-56580957D01*
X126348771Y-56580953D01*
X126098229Y-56523769D01*
X126053063Y-56513460D01*
X126053060Y-56513459D01*
X126053048Y-56513457D01*
X125751663Y-56479500D01*
X125751657Y-56479500D01*
X125448343Y-56479500D01*
X125448336Y-56479500D01*
X125146951Y-56513457D01*
X125146937Y-56513460D01*
X124851228Y-56580953D01*
X124851216Y-56580957D01*
X124564931Y-56681133D01*
X124291661Y-56812733D01*
X124034837Y-56974107D01*
X123797696Y-57163220D01*
X123583220Y-57377696D01*
X123394107Y-57614837D01*
X123232733Y-57871661D01*
X123101133Y-58144931D01*
X123000957Y-58431216D01*
X123000953Y-58431228D01*
X122933460Y-58726937D01*
X122933457Y-58726951D01*
X122899500Y-59028336D01*
X122899500Y-59331663D01*
X122933457Y-59633048D01*
X122933459Y-59633060D01*
X122933460Y-59633063D01*
X122935314Y-59641184D01*
X123000953Y-59928771D01*
X123000957Y-59928783D01*
X123101133Y-60215068D01*
X123232733Y-60488338D01*
X123232735Y-60488341D01*
X123394108Y-60745164D01*
X123583221Y-60982304D01*
X123797696Y-61196779D01*
X124034836Y-61385892D01*
X124291659Y-61547265D01*
X124564935Y-61678868D01*
X124779951Y-61754105D01*
X124851216Y-61779042D01*
X124851228Y-61779046D01*
X125146937Y-61846540D01*
X125146946Y-61846541D01*
X125146951Y-61846542D01*
X125347874Y-61869180D01*
X125448337Y-61880499D01*
X125448340Y-61880500D01*
X125448343Y-61880500D01*
X125751660Y-61880500D01*
X125751661Y-61880499D01*
X125905694Y-61863144D01*
X126053048Y-61846542D01*
X126053051Y-61846541D01*
X126053063Y-61846540D01*
X126348772Y-61779046D01*
X126635065Y-61678868D01*
X126908341Y-61547265D01*
X127165164Y-61385892D01*
X127402304Y-61196779D01*
X127616779Y-60982304D01*
X127805892Y-60745164D01*
X127967265Y-60488341D01*
X128098868Y-60215065D01*
X128199046Y-59928772D01*
X128266540Y-59633063D01*
X128268407Y-59616498D01*
X128290941Y-59416498D01*
X128300500Y-59331657D01*
X128300500Y-59028343D01*
X128281210Y-58857137D01*
X128266542Y-58726951D01*
X128266541Y-58726946D01*
X128266540Y-58726937D01*
X128199046Y-58431228D01*
X128149947Y-58290913D01*
X128146386Y-58221135D01*
X128181114Y-58160508D01*
X128243107Y-58128280D01*
X128312683Y-58134685D01*
X128367751Y-58177688D01*
X128380423Y-58199873D01*
X128498455Y-58467189D01*
X128502593Y-58477869D01*
X128615764Y-58815525D01*
X128618898Y-58826541D01*
X128700427Y-59173184D01*
X128702532Y-59184443D01*
X128751731Y-59537137D01*
X128752788Y-59548541D01*
X128769368Y-59907144D01*
X128769500Y-59912828D01*
X128769500Y-59975892D01*
X128769521Y-59975971D01*
X128769524Y-59984156D01*
X128769525Y-59984157D01*
X128770857Y-63779966D01*
X128751196Y-63847013D01*
X128698408Y-63892786D01*
X128629253Y-63902754D01*
X128565687Y-63873751D01*
X128528926Y-63818328D01*
X128469542Y-63635563D01*
X128379358Y-63458568D01*
X128352268Y-63421284D01*
X127789494Y-63984058D01*
X127773381Y-63923920D01*
X127706502Y-63808081D01*
X127611920Y-63713499D01*
X127496081Y-63646620D01*
X127435942Y-63630505D01*
X127998716Y-63067732D01*
X127998715Y-63067731D01*
X127961432Y-63040642D01*
X127784437Y-62950458D01*
X127595522Y-62889076D01*
X127399321Y-62858001D01*
X127200679Y-62858001D01*
X127004479Y-62889076D01*
X127004476Y-62889076D01*
X126815562Y-62950458D01*
X126638564Y-63040644D01*
X126601283Y-63067730D01*
X126601282Y-63067731D01*
X127164058Y-63630505D01*
X127103919Y-63646620D01*
X126988080Y-63713499D01*
X126893498Y-63808081D01*
X126826619Y-63923920D01*
X126810504Y-63984058D01*
X126247730Y-63421283D01*
X126247729Y-63421284D01*
X126220643Y-63458565D01*
X126130457Y-63635563D01*
X126069075Y-63824477D01*
X126069075Y-63824480D01*
X126038000Y-64020679D01*
X126038000Y-64219322D01*
X126069075Y-64415521D01*
X126069075Y-64415524D01*
X126130457Y-64604438D01*
X126220641Y-64781433D01*
X126247730Y-64818716D01*
X126247731Y-64818717D01*
X126810504Y-64255943D01*
X126826619Y-64316082D01*
X126893498Y-64431921D01*
X126988080Y-64526503D01*
X127103919Y-64593382D01*
X127164057Y-64609495D01*
X126601283Y-65172269D01*
X126601283Y-65172270D01*
X126638567Y-65199359D01*
X126795330Y-65279234D01*
X126846126Y-65327209D01*
X126862921Y-65395029D01*
X126840384Y-65461164D01*
X126795331Y-65500203D01*
X126638307Y-65580211D01*
X126477533Y-65697021D01*
X126337021Y-65837533D01*
X126220213Y-65998305D01*
X126129994Y-66175367D01*
X126129993Y-66175370D01*
X126068587Y-66364362D01*
X126037500Y-66560639D01*
X126037500Y-66759360D01*
X126068587Y-66955637D01*
X126129993Y-67144629D01*
X126129994Y-67144632D01*
X126192978Y-67268243D01*
X126220213Y-67321694D01*
X126337019Y-67482464D01*
X126477536Y-67622981D01*
X126638306Y-67739787D01*
X126756832Y-67800179D01*
X126794780Y-67819515D01*
X126845576Y-67867490D01*
X126862371Y-67935311D01*
X126839833Y-68001446D01*
X126794780Y-68040485D01*
X126638305Y-68120213D01*
X126583147Y-68160288D01*
X126492951Y-68225818D01*
X126427147Y-68249298D01*
X126420068Y-68249500D01*
X124201455Y-68249500D01*
X124108260Y-68268038D01*
X124108257Y-68268038D01*
X124104812Y-68268724D01*
X124008164Y-68287949D01*
X123977864Y-68300500D01*
X123969851Y-68303818D01*
X123969847Y-68303820D01*
X123826088Y-68363366D01*
X123826079Y-68363371D01*
X123662219Y-68472859D01*
X123605907Y-68529172D01*
X123522861Y-68612218D01*
X123522858Y-68612221D01*
X120306271Y-71828809D01*
X120244948Y-71862294D01*
X120218590Y-71865128D01*
X112385828Y-71865128D01*
X112192543Y-71903574D01*
X112192539Y-71903576D01*
X112192537Y-71903576D01*
X112192536Y-71903577D01*
X112117117Y-71934816D01*
X112117115Y-71934817D01*
X112010457Y-71978996D01*
X112010457Y-71978997D01*
X112010456Y-71978997D01*
X111846594Y-72088485D01*
X111846586Y-72088491D01*
X107587680Y-76347398D01*
X107526357Y-76380883D01*
X107456665Y-76375899D01*
X107412318Y-76347398D01*
X100636819Y-69571899D01*
X100622115Y-69544971D01*
X100605523Y-69519153D01*
X100604631Y-69512952D01*
X100603334Y-69510576D01*
X100600500Y-69484218D01*
X100600500Y-69371153D01*
X103399500Y-69371153D01*
X103399500Y-69528846D01*
X103430261Y-69683489D01*
X103430264Y-69683501D01*
X103490602Y-69829172D01*
X103490609Y-69829185D01*
X103578210Y-69960288D01*
X103578213Y-69960292D01*
X103689707Y-70071786D01*
X103689711Y-70071789D01*
X103820814Y-70159390D01*
X103820827Y-70159397D01*
X103947942Y-70212049D01*
X103966503Y-70219737D01*
X104077617Y-70241839D01*
X104121153Y-70250499D01*
X104121156Y-70250500D01*
X104121158Y-70250500D01*
X104278844Y-70250500D01*
X104278845Y-70250499D01*
X104433497Y-70219737D01*
X104550790Y-70171153D01*
X111199500Y-70171153D01*
X111199500Y-70328846D01*
X111230261Y-70483489D01*
X111230264Y-70483501D01*
X111290602Y-70629172D01*
X111290609Y-70629185D01*
X111378210Y-70760288D01*
X111378213Y-70760292D01*
X111489707Y-70871786D01*
X111489711Y-70871789D01*
X111620814Y-70959390D01*
X111620827Y-70959397D01*
X111758683Y-71016498D01*
X111766503Y-71019737D01*
X111921153Y-71050499D01*
X111921156Y-71050500D01*
X111921158Y-71050500D01*
X112078844Y-71050500D01*
X112078845Y-71050499D01*
X112233497Y-71019737D01*
X112379179Y-70959394D01*
X112510289Y-70871789D01*
X112621789Y-70760289D01*
X112709394Y-70629179D01*
X112769737Y-70483497D01*
X112800500Y-70328842D01*
X112800500Y-70171158D01*
X112800500Y-70171155D01*
X112800499Y-70171153D01*
X112781473Y-70075503D01*
X112769737Y-70016503D01*
X112746452Y-69960288D01*
X112709397Y-69870827D01*
X112709390Y-69870814D01*
X112621789Y-69739711D01*
X112621786Y-69739707D01*
X112510292Y-69628213D01*
X112510288Y-69628210D01*
X112379185Y-69540609D01*
X112379172Y-69540602D01*
X112233501Y-69480264D01*
X112233489Y-69480261D01*
X112078845Y-69449500D01*
X112078842Y-69449500D01*
X111921158Y-69449500D01*
X111921155Y-69449500D01*
X111766510Y-69480261D01*
X111766498Y-69480264D01*
X111620827Y-69540602D01*
X111620814Y-69540609D01*
X111489711Y-69628210D01*
X111489707Y-69628213D01*
X111378213Y-69739707D01*
X111378210Y-69739711D01*
X111290609Y-69870814D01*
X111290602Y-69870827D01*
X111230264Y-70016498D01*
X111230261Y-70016510D01*
X111199500Y-70171153D01*
X104550790Y-70171153D01*
X104570519Y-70162981D01*
X104579172Y-70159397D01*
X104579172Y-70159396D01*
X104579179Y-70159394D01*
X104710289Y-70071789D01*
X104821789Y-69960289D01*
X104909394Y-69829179D01*
X104969737Y-69683497D01*
X105000500Y-69528842D01*
X105000500Y-69371158D01*
X105000500Y-69371155D01*
X105000499Y-69371153D01*
X104969737Y-69216503D01*
X104921745Y-69100639D01*
X104909397Y-69070827D01*
X104909390Y-69070814D01*
X104821789Y-68939711D01*
X104821786Y-68939707D01*
X104710292Y-68828213D01*
X104710288Y-68828210D01*
X104579185Y-68740609D01*
X104579172Y-68740602D01*
X104433501Y-68680264D01*
X104433489Y-68680261D01*
X104278845Y-68649500D01*
X104278842Y-68649500D01*
X104121158Y-68649500D01*
X104121155Y-68649500D01*
X103966510Y-68680261D01*
X103966498Y-68680264D01*
X103820827Y-68740602D01*
X103820814Y-68740609D01*
X103689711Y-68828210D01*
X103689707Y-68828213D01*
X103578213Y-68939707D01*
X103578210Y-68939711D01*
X103490609Y-69070814D01*
X103490602Y-69070827D01*
X103430264Y-69216498D01*
X103430261Y-69216510D01*
X103399500Y-69371153D01*
X100600500Y-69371153D01*
X100600500Y-68071153D01*
X110299500Y-68071153D01*
X110299500Y-68228846D01*
X110330261Y-68383489D01*
X110330264Y-68383501D01*
X110390602Y-68529172D01*
X110390609Y-68529185D01*
X110478210Y-68660288D01*
X110478213Y-68660292D01*
X110589707Y-68771786D01*
X110589711Y-68771789D01*
X110720814Y-68859390D01*
X110720827Y-68859397D01*
X110824157Y-68902197D01*
X110866503Y-68919737D01*
X111021153Y-68950499D01*
X111021156Y-68950500D01*
X111021158Y-68950500D01*
X111178844Y-68950500D01*
X111178845Y-68950499D01*
X111333497Y-68919737D01*
X111479179Y-68859394D01*
X111610289Y-68771789D01*
X111721789Y-68660289D01*
X111809394Y-68529179D01*
X111869737Y-68383497D01*
X111900500Y-68228842D01*
X111900500Y-68071158D01*
X111900500Y-68071155D01*
X111900499Y-68071153D01*
X111880097Y-67968587D01*
X111869737Y-67916503D01*
X111869735Y-67916498D01*
X111809397Y-67770827D01*
X111809390Y-67770814D01*
X111721790Y-67639712D01*
X111721784Y-67639705D01*
X111653232Y-67571153D01*
X115399500Y-67571153D01*
X115399500Y-67728846D01*
X115430261Y-67883489D01*
X115430264Y-67883501D01*
X115490602Y-68029172D01*
X115490609Y-68029185D01*
X115578210Y-68160288D01*
X115578213Y-68160292D01*
X115689707Y-68271786D01*
X115689711Y-68271789D01*
X115820814Y-68359390D01*
X115820827Y-68359397D01*
X115966498Y-68419735D01*
X115966503Y-68419737D01*
X116121153Y-68450499D01*
X116121156Y-68450500D01*
X116121158Y-68450500D01*
X116278844Y-68450500D01*
X116278845Y-68450499D01*
X116433497Y-68419737D01*
X116579179Y-68359394D01*
X116710289Y-68271789D01*
X116821789Y-68160289D01*
X116909394Y-68029179D01*
X116969737Y-67883497D01*
X117000500Y-67728842D01*
X117000500Y-67571158D01*
X117000500Y-67571155D01*
X117000499Y-67571153D01*
X116982858Y-67482466D01*
X116969737Y-67416503D01*
X116961995Y-67397812D01*
X116909397Y-67270827D01*
X116909390Y-67270814D01*
X116821789Y-67139711D01*
X116821786Y-67139707D01*
X116710292Y-67028213D01*
X116710288Y-67028210D01*
X116579185Y-66940609D01*
X116579172Y-66940602D01*
X116433501Y-66880264D01*
X116433489Y-66880261D01*
X116278845Y-66849500D01*
X116278842Y-66849500D01*
X116121158Y-66849500D01*
X116121155Y-66849500D01*
X115966510Y-66880261D01*
X115966498Y-66880264D01*
X115820827Y-66940602D01*
X115820814Y-66940609D01*
X115689711Y-67028210D01*
X115689707Y-67028213D01*
X115578213Y-67139707D01*
X115578210Y-67139711D01*
X115490609Y-67270814D01*
X115490602Y-67270827D01*
X115430264Y-67416498D01*
X115430261Y-67416510D01*
X115399500Y-67571153D01*
X111653232Y-67571153D01*
X111610292Y-67528213D01*
X111610288Y-67528210D01*
X111479185Y-67440609D01*
X111479172Y-67440602D01*
X111333501Y-67380264D01*
X111333489Y-67380261D01*
X111178845Y-67349500D01*
X111178842Y-67349500D01*
X111021158Y-67349500D01*
X111021155Y-67349500D01*
X110866510Y-67380261D01*
X110866498Y-67380264D01*
X110720827Y-67440602D01*
X110720814Y-67440609D01*
X110589711Y-67528210D01*
X110589707Y-67528213D01*
X110478213Y-67639707D01*
X110478210Y-67639711D01*
X110390609Y-67770814D01*
X110390602Y-67770827D01*
X110330264Y-67916498D01*
X110330261Y-67916510D01*
X110299500Y-68071153D01*
X100600500Y-68071153D01*
X100600500Y-66251456D01*
X100600499Y-66251454D01*
X100572183Y-66109097D01*
X100568340Y-66089778D01*
X117699500Y-66089778D01*
X117699500Y-66310222D01*
X117707297Y-66359452D01*
X117733985Y-66527952D01*
X117802103Y-66737603D01*
X117802104Y-66737606D01*
X117841938Y-66815782D01*
X117878152Y-66886856D01*
X117902187Y-66934025D01*
X118031752Y-67112358D01*
X118031756Y-67112363D01*
X118187636Y-67268243D01*
X118187641Y-67268247D01*
X118341817Y-67380261D01*
X118365978Y-67397815D01*
X118494375Y-67463237D01*
X118562393Y-67497895D01*
X118562396Y-67497896D01*
X118655695Y-67528210D01*
X118772049Y-67566015D01*
X118989778Y-67600500D01*
X118989779Y-67600500D01*
X119210221Y-67600500D01*
X119210222Y-67600500D01*
X119427951Y-67566015D01*
X119637606Y-67497895D01*
X119834022Y-67397815D01*
X120012365Y-67268242D01*
X120168242Y-67112365D01*
X120297815Y-66934022D01*
X120397895Y-66737606D01*
X120466015Y-66527951D01*
X120500500Y-66310222D01*
X120500500Y-66089778D01*
X120466015Y-65872049D01*
X120397895Y-65662394D01*
X120397895Y-65662393D01*
X120352275Y-65572861D01*
X120297815Y-65465978D01*
X120246268Y-65395029D01*
X120168247Y-65287641D01*
X120168243Y-65287636D01*
X120012363Y-65131756D01*
X120012358Y-65131752D01*
X119834025Y-65002187D01*
X119834024Y-65002186D01*
X119834022Y-65002185D01*
X119771096Y-64970122D01*
X119637606Y-64902104D01*
X119637603Y-64902103D01*
X119427952Y-64833985D01*
X119319086Y-64816742D01*
X119210222Y-64799500D01*
X118989778Y-64799500D01*
X118917201Y-64810995D01*
X118772047Y-64833985D01*
X118562396Y-64902103D01*
X118562393Y-64902104D01*
X118365974Y-65002187D01*
X118187641Y-65131752D01*
X118187636Y-65131756D01*
X118031756Y-65287636D01*
X118031752Y-65287641D01*
X117902187Y-65465974D01*
X117802104Y-65662393D01*
X117802103Y-65662396D01*
X117733985Y-65872047D01*
X117713988Y-65998305D01*
X117699500Y-66089778D01*
X100568340Y-66089778D01*
X100562052Y-66058170D01*
X100562051Y-66058169D01*
X100562051Y-66058165D01*
X100537257Y-65998306D01*
X100486635Y-65876092D01*
X100486628Y-65876079D01*
X100377139Y-65712218D01*
X100377136Y-65712214D01*
X100234686Y-65569764D01*
X100234655Y-65569735D01*
X98237784Y-63572863D01*
X98237780Y-63572860D01*
X98073920Y-63463372D01*
X98073910Y-63463367D01*
X97891836Y-63387949D01*
X97891828Y-63387947D01*
X97698543Y-63349500D01*
X97698540Y-63349500D01*
X97501460Y-63349500D01*
X97501457Y-63349500D01*
X97308171Y-63387947D01*
X97308163Y-63387949D01*
X97126089Y-63463367D01*
X97126079Y-63463372D01*
X96962219Y-63572860D01*
X96962215Y-63572863D01*
X96822863Y-63712215D01*
X96822860Y-63712219D01*
X96713372Y-63876079D01*
X96713367Y-63876089D01*
X96637949Y-64058163D01*
X96637947Y-64058171D01*
X96599500Y-64251455D01*
X96599500Y-64448544D01*
X96637947Y-64641828D01*
X96637949Y-64641836D01*
X96713367Y-64823910D01*
X96713372Y-64823920D01*
X96822860Y-64987780D01*
X96822863Y-64987784D01*
X98563181Y-66728101D01*
X98596666Y-66789424D01*
X98599500Y-66815782D01*
X98599500Y-70048541D01*
X98604124Y-70071788D01*
X98604863Y-70075500D01*
X98604863Y-70075503D01*
X98632023Y-70212049D01*
X98632024Y-70212049D01*
X98632024Y-70212051D01*
X98637949Y-70241835D01*
X98637950Y-70241837D01*
X98637950Y-70241839D01*
X98713364Y-70423907D01*
X98713371Y-70423920D01*
X98822860Y-70587781D01*
X98822863Y-70587785D01*
X98966537Y-70731459D01*
X98966559Y-70731479D01*
X106463181Y-78228101D01*
X106496666Y-78289424D01*
X106499500Y-78315782D01*
X106499500Y-89184217D01*
X106479815Y-89251256D01*
X106463180Y-89271898D01*
X104162219Y-91572861D01*
X104092539Y-91642541D01*
X104022859Y-91712220D01*
X103913372Y-91876079D01*
X103913367Y-91876089D01*
X103837949Y-92058163D01*
X103837947Y-92058171D01*
X103799500Y-92251455D01*
X103799500Y-92448544D01*
X103835365Y-92628846D01*
X103837949Y-92641836D01*
X103882959Y-92750499D01*
X103890061Y-92767643D01*
X103899500Y-92815096D01*
X103899500Y-96248541D01*
X103899500Y-96248543D01*
X103899499Y-96248543D01*
X103937947Y-96441829D01*
X103937950Y-96441839D01*
X104013364Y-96623907D01*
X104013371Y-96623920D01*
X104122859Y-96787780D01*
X104122860Y-96787781D01*
X104122861Y-96787782D01*
X104262218Y-96927139D01*
X104262219Y-96927139D01*
X104269286Y-96934206D01*
X104269285Y-96934206D01*
X104269289Y-96934209D01*
X105663181Y-98328101D01*
X105696666Y-98389424D01*
X105699500Y-98415782D01*
X105699500Y-99984217D01*
X105679815Y-100051256D01*
X105663181Y-100071898D01*
X104562220Y-101172859D01*
X104562218Y-101172861D01*
X104506237Y-101228842D01*
X104422859Y-101312219D01*
X104313371Y-101476079D01*
X104313364Y-101476092D01*
X104276676Y-101564668D01*
X104276676Y-101564669D01*
X104237950Y-101658161D01*
X104237947Y-101658170D01*
X104226344Y-101716504D01*
X104199500Y-101851454D01*
X104199500Y-103884217D01*
X104179815Y-103951256D01*
X104163181Y-103971898D01*
X103147299Y-104987780D01*
X102262221Y-105872858D01*
X102262218Y-105872861D01*
X102195372Y-105939707D01*
X102122859Y-106012219D01*
X102013371Y-106176080D01*
X102013366Y-106176089D01*
X101978504Y-106260256D01*
X101937950Y-106358161D01*
X101937947Y-106358170D01*
X101932425Y-106385933D01*
X101899500Y-106551454D01*
X101899500Y-106551459D01*
X101899500Y-112048541D01*
X101899500Y-112048543D01*
X101899499Y-112048543D01*
X101937947Y-112241829D01*
X101937950Y-112241839D01*
X102013364Y-112423907D01*
X102013371Y-112423920D01*
X102122860Y-112587781D01*
X102122863Y-112587785D01*
X102266537Y-112731459D01*
X102266559Y-112731479D01*
X104762215Y-115227136D01*
X104762219Y-115227139D01*
X104926079Y-115336627D01*
X104926083Y-115336629D01*
X104926086Y-115336631D01*
X105108164Y-115412051D01*
X105301455Y-115450499D01*
X105301458Y-115450500D01*
X105301460Y-115450500D01*
X105498542Y-115450500D01*
X105498543Y-115450499D01*
X105691836Y-115412051D01*
X105873914Y-115336631D01*
X106037781Y-115227139D01*
X106177139Y-115087781D01*
X106286631Y-114923914D01*
X106362051Y-114741836D01*
X106400500Y-114548540D01*
X106400500Y-114471263D01*
X124615500Y-114471263D01*
X124615500Y-114668736D01*
X124646389Y-114863763D01*
X124707408Y-115051558D01*
X124707409Y-115051561D01*
X124725866Y-115087784D01*
X124797058Y-115227504D01*
X124913115Y-115387246D01*
X125052753Y-115526884D01*
X125202234Y-115635486D01*
X125212499Y-115642944D01*
X125388439Y-115732591D01*
X125513637Y-115773270D01*
X125576236Y-115793610D01*
X125771264Y-115824500D01*
X125771269Y-115824500D01*
X125968736Y-115824500D01*
X126163763Y-115793610D01*
X126351561Y-115732591D01*
X126527501Y-115642944D01*
X126617192Y-115577779D01*
X126687246Y-115526884D01*
X126687248Y-115526881D01*
X126687252Y-115526879D01*
X126826879Y-115387252D01*
X126826881Y-115387248D01*
X126826884Y-115387246D01*
X126877779Y-115317192D01*
X126942944Y-115227501D01*
X127032591Y-115051561D01*
X127093610Y-114863763D01*
X127124500Y-114668736D01*
X127124500Y-114471263D01*
X127093610Y-114276236D01*
X127073270Y-114213637D01*
X127032591Y-114088439D01*
X126942944Y-113912499D01*
X126935486Y-113902234D01*
X126826884Y-113752753D01*
X126687246Y-113613115D01*
X126527504Y-113497058D01*
X126527503Y-113497057D01*
X126527501Y-113497056D01*
X126351561Y-113407409D01*
X126351558Y-113407408D01*
X126163763Y-113346389D01*
X125968736Y-113315500D01*
X125968731Y-113315500D01*
X125771269Y-113315500D01*
X125771264Y-113315500D01*
X125576236Y-113346389D01*
X125388441Y-113407408D01*
X125212495Y-113497058D01*
X125052753Y-113613115D01*
X124913115Y-113752753D01*
X124797058Y-113912495D01*
X124707408Y-114088441D01*
X124646389Y-114276236D01*
X124615500Y-114471263D01*
X106400500Y-114471263D01*
X106400500Y-114351460D01*
X106400500Y-114351457D01*
X106400499Y-114351455D01*
X106380418Y-114250500D01*
X106362051Y-114158164D01*
X106286631Y-113976086D01*
X106286629Y-113976083D01*
X106286627Y-113976079D01*
X106177139Y-113812219D01*
X106177136Y-113812215D01*
X103936819Y-111571898D01*
X103903334Y-111510575D01*
X103900500Y-111484217D01*
X103900500Y-109244168D01*
X103920185Y-109177129D01*
X103972989Y-109131374D01*
X104042147Y-109121430D01*
X104093392Y-109141067D01*
X104120812Y-109159389D01*
X104120827Y-109159397D01*
X104266498Y-109219735D01*
X104266503Y-109219737D01*
X104421153Y-109250499D01*
X104421156Y-109250500D01*
X104421158Y-109250500D01*
X104578844Y-109250500D01*
X104578845Y-109250499D01*
X104733497Y-109219737D01*
X104879179Y-109159394D01*
X105010289Y-109071789D01*
X105121789Y-108960289D01*
X105209394Y-108829179D01*
X105269737Y-108683497D01*
X105300500Y-108528842D01*
X105300500Y-108371158D01*
X105300500Y-108371155D01*
X105300499Y-108371153D01*
X105269738Y-108216510D01*
X105269737Y-108216503D01*
X105265970Y-108207408D01*
X105209397Y-108070827D01*
X105209390Y-108070814D01*
X105121789Y-107939711D01*
X105121786Y-107939707D01*
X105010292Y-107828213D01*
X105010288Y-107828210D01*
X104879185Y-107740609D01*
X104879172Y-107740602D01*
X104733501Y-107680264D01*
X104733489Y-107680261D01*
X104578845Y-107649500D01*
X104578842Y-107649500D01*
X104421158Y-107649500D01*
X104421155Y-107649500D01*
X104266510Y-107680261D01*
X104266498Y-107680264D01*
X104120827Y-107740602D01*
X104120816Y-107740608D01*
X104093390Y-107758934D01*
X104026712Y-107779811D01*
X103959332Y-107761326D01*
X103912643Y-107709346D01*
X103900500Y-107655831D01*
X103900500Y-107115781D01*
X103920185Y-107048742D01*
X103936814Y-107028105D01*
X104593766Y-106371153D01*
X108899500Y-106371153D01*
X108899500Y-106528846D01*
X108930261Y-106683489D01*
X108930264Y-106683501D01*
X108990602Y-106829172D01*
X108990609Y-106829185D01*
X109078210Y-106960288D01*
X109078213Y-106960292D01*
X109189707Y-107071786D01*
X109189711Y-107071789D01*
X109320814Y-107159390D01*
X109320827Y-107159397D01*
X109466498Y-107219735D01*
X109466503Y-107219737D01*
X109621153Y-107250499D01*
X109621156Y-107250500D01*
X109621158Y-107250500D01*
X109778844Y-107250500D01*
X109778845Y-107250499D01*
X109933497Y-107219737D01*
X110079179Y-107159394D01*
X110210289Y-107071789D01*
X110321789Y-106960289D01*
X110409394Y-106829179D01*
X110469737Y-106683497D01*
X110500500Y-106528842D01*
X110500500Y-106371158D01*
X110500500Y-106371155D01*
X110500499Y-106371153D01*
X110469737Y-106216503D01*
X110452996Y-106176086D01*
X110409397Y-106070827D01*
X110409390Y-106070814D01*
X110321789Y-105939711D01*
X110321786Y-105939707D01*
X110210292Y-105828213D01*
X110210288Y-105828210D01*
X110079185Y-105740609D01*
X110079172Y-105740602D01*
X109933501Y-105680264D01*
X109933489Y-105680261D01*
X109778845Y-105649500D01*
X109778842Y-105649500D01*
X109621158Y-105649500D01*
X109621155Y-105649500D01*
X109466510Y-105680261D01*
X109466498Y-105680264D01*
X109320827Y-105740602D01*
X109320814Y-105740609D01*
X109189711Y-105828210D01*
X109189707Y-105828213D01*
X109078213Y-105939707D01*
X109078210Y-105939711D01*
X108990609Y-106070814D01*
X108990602Y-106070827D01*
X108930264Y-106216498D01*
X108930261Y-106216510D01*
X108899500Y-106371153D01*
X104593766Y-106371153D01*
X105837778Y-105127141D01*
X105837782Y-105127139D01*
X105977139Y-104987782D01*
X106086632Y-104823914D01*
X106162051Y-104641835D01*
X106200500Y-104448541D01*
X106200500Y-102871153D01*
X111199500Y-102871153D01*
X111199500Y-103028846D01*
X111230261Y-103183489D01*
X111230264Y-103183501D01*
X111290602Y-103329172D01*
X111290609Y-103329185D01*
X111378210Y-103460288D01*
X111378213Y-103460292D01*
X111489707Y-103571786D01*
X111489711Y-103571789D01*
X111620814Y-103659390D01*
X111620827Y-103659397D01*
X111766498Y-103719735D01*
X111766503Y-103719737D01*
X111921153Y-103750499D01*
X111921156Y-103750500D01*
X111921158Y-103750500D01*
X112078844Y-103750500D01*
X112078845Y-103750499D01*
X112233497Y-103719737D01*
X112379179Y-103659394D01*
X112510289Y-103571789D01*
X112621789Y-103460289D01*
X112709394Y-103329179D01*
X112769737Y-103183497D01*
X112800500Y-103028842D01*
X112800500Y-102871158D01*
X112800500Y-102871155D01*
X112800499Y-102871153D01*
X112774531Y-102740606D01*
X112769737Y-102716503D01*
X112769735Y-102716498D01*
X112709397Y-102570827D01*
X112709390Y-102570814D01*
X112621789Y-102439711D01*
X112621786Y-102439707D01*
X112510292Y-102328213D01*
X112510288Y-102328210D01*
X112379185Y-102240609D01*
X112379172Y-102240602D01*
X112233501Y-102180264D01*
X112233489Y-102180261D01*
X112078845Y-102149500D01*
X112078842Y-102149500D01*
X111921158Y-102149500D01*
X111921155Y-102149500D01*
X111766510Y-102180261D01*
X111766498Y-102180264D01*
X111620827Y-102240602D01*
X111620814Y-102240609D01*
X111489711Y-102328210D01*
X111489707Y-102328213D01*
X111378213Y-102439707D01*
X111378210Y-102439711D01*
X111290609Y-102570814D01*
X111290602Y-102570827D01*
X111230264Y-102716498D01*
X111230261Y-102716510D01*
X111199500Y-102871153D01*
X106200500Y-102871153D01*
X106200500Y-102415782D01*
X106220185Y-102348743D01*
X106236819Y-102328101D01*
X106848417Y-101716504D01*
X107477139Y-101087782D01*
X107568868Y-100950500D01*
X107586631Y-100923916D01*
X107586636Y-100923906D01*
X107662050Y-100741838D01*
X107662051Y-100741834D01*
X107665110Y-100726462D01*
X107700499Y-100548545D01*
X107700500Y-100548542D01*
X107700500Y-100071153D01*
X111999500Y-100071153D01*
X111999500Y-100228846D01*
X112030261Y-100383489D01*
X112030264Y-100383501D01*
X112090602Y-100529172D01*
X112090609Y-100529185D01*
X112178210Y-100660288D01*
X112178213Y-100660292D01*
X112289707Y-100771786D01*
X112289711Y-100771789D01*
X112420814Y-100859390D01*
X112420827Y-100859397D01*
X112558683Y-100916498D01*
X112566503Y-100919737D01*
X112721153Y-100950499D01*
X112721156Y-100950500D01*
X112721158Y-100950500D01*
X112878844Y-100950500D01*
X112878845Y-100950499D01*
X112889179Y-100948443D01*
X112914287Y-100943450D01*
X112914292Y-100943449D01*
X113012538Y-100923906D01*
X113033497Y-100919737D01*
X113179179Y-100859394D01*
X113310289Y-100771789D01*
X113421789Y-100660289D01*
X113509394Y-100529179D01*
X113569737Y-100383497D01*
X113600500Y-100228842D01*
X113600500Y-100071158D01*
X113600500Y-100071155D01*
X113600499Y-100071153D01*
X113579860Y-99967395D01*
X113569737Y-99916503D01*
X113536513Y-99836292D01*
X113509397Y-99770827D01*
X113509390Y-99770814D01*
X113421789Y-99639711D01*
X113421786Y-99639707D01*
X113310292Y-99528213D01*
X113310288Y-99528210D01*
X113179185Y-99440609D01*
X113179172Y-99440602D01*
X113033501Y-99380264D01*
X113033489Y-99380261D01*
X112878845Y-99349500D01*
X112878842Y-99349500D01*
X112721158Y-99349500D01*
X112721155Y-99349500D01*
X112566510Y-99380261D01*
X112566498Y-99380264D01*
X112420827Y-99440602D01*
X112420814Y-99440609D01*
X112289711Y-99528210D01*
X112289707Y-99528213D01*
X112178213Y-99639707D01*
X112178210Y-99639711D01*
X112090609Y-99770814D01*
X112090602Y-99770827D01*
X112030264Y-99916498D01*
X112030261Y-99916510D01*
X111999500Y-100071153D01*
X107700500Y-100071153D01*
X107700500Y-99071302D01*
X124616000Y-99071302D01*
X124616000Y-99268697D01*
X124646876Y-99463646D01*
X124707873Y-99651373D01*
X124797483Y-99827239D01*
X124823457Y-99862988D01*
X124823457Y-99862989D01*
X125387037Y-99299409D01*
X125404075Y-99362993D01*
X125469901Y-99477007D01*
X125562993Y-99570099D01*
X125677007Y-99635925D01*
X125740590Y-99652962D01*
X125177009Y-100216541D01*
X125177010Y-100216542D01*
X125214713Y-100243935D01*
X125257379Y-100299265D01*
X125263358Y-100368878D01*
X125230752Y-100430673D01*
X125210719Y-100447355D01*
X125089711Y-100528210D01*
X125089707Y-100528213D01*
X124978213Y-100639707D01*
X124978210Y-100639711D01*
X124890609Y-100770814D01*
X124890602Y-100770827D01*
X124830264Y-100916498D01*
X124830261Y-100916510D01*
X124799500Y-101071153D01*
X124799500Y-101228844D01*
X124830261Y-101383489D01*
X124830264Y-101383501D01*
X124890602Y-101529172D01*
X124890609Y-101529185D01*
X124978210Y-101660288D01*
X124978213Y-101660292D01*
X125089707Y-101771786D01*
X125089711Y-101771789D01*
X125220814Y-101859390D01*
X125220827Y-101859397D01*
X125366498Y-101919735D01*
X125366503Y-101919737D01*
X125521153Y-101950499D01*
X125521156Y-101950500D01*
X125521158Y-101950500D01*
X125678844Y-101950500D01*
X125678845Y-101950499D01*
X125833497Y-101919737D01*
X125979179Y-101859394D01*
X126110289Y-101771789D01*
X126221789Y-101660289D01*
X126309394Y-101529179D01*
X126369737Y-101383497D01*
X126400500Y-101228842D01*
X126400500Y-101071158D01*
X126400500Y-101071155D01*
X126400499Y-101071153D01*
X126375097Y-100943449D01*
X126369737Y-100916503D01*
X126309794Y-100771786D01*
X126309397Y-100770827D01*
X126309390Y-100770814D01*
X126221789Y-100639711D01*
X126221786Y-100639707D01*
X126164498Y-100582419D01*
X126131013Y-100521096D01*
X126135997Y-100451404D01*
X126177869Y-100395471D01*
X126213861Y-100376807D01*
X126351371Y-100332126D01*
X126527241Y-100242516D01*
X126562988Y-100216543D01*
X126562988Y-100216541D01*
X125999410Y-99652962D01*
X126062993Y-99635925D01*
X126177007Y-99570099D01*
X126270099Y-99477007D01*
X126335925Y-99362993D01*
X126352962Y-99299409D01*
X126916541Y-99862988D01*
X126916543Y-99862988D01*
X126942516Y-99827241D01*
X127032126Y-99651373D01*
X127093123Y-99463646D01*
X127124000Y-99268697D01*
X127124000Y-99071302D01*
X127093123Y-98876353D01*
X127032126Y-98688626D01*
X126942520Y-98512768D01*
X126942512Y-98512755D01*
X126916542Y-98477010D01*
X126916541Y-98477009D01*
X126352962Y-99040589D01*
X126335925Y-98977007D01*
X126270099Y-98862993D01*
X126177007Y-98769901D01*
X126062993Y-98704075D01*
X125999409Y-98687037D01*
X126562989Y-98123457D01*
X126527239Y-98097483D01*
X126351373Y-98007873D01*
X126163646Y-97946876D01*
X125968697Y-97916000D01*
X125771303Y-97916000D01*
X125576353Y-97946876D01*
X125388626Y-98007873D01*
X125212762Y-98097482D01*
X125212760Y-98097483D01*
X125177010Y-98123456D01*
X125177010Y-98123457D01*
X125740591Y-98687037D01*
X125677007Y-98704075D01*
X125562993Y-98769901D01*
X125469901Y-98862993D01*
X125404075Y-98977007D01*
X125387037Y-99040590D01*
X124823457Y-98477010D01*
X124823456Y-98477010D01*
X124797483Y-98512760D01*
X124797482Y-98512762D01*
X124707873Y-98688626D01*
X124646876Y-98876353D01*
X124616000Y-99071302D01*
X107700500Y-99071302D01*
X107700500Y-97851456D01*
X107679867Y-97747730D01*
X107678702Y-97741873D01*
X107662051Y-97658164D01*
X107630811Y-97582745D01*
X107586632Y-97476086D01*
X107554642Y-97428210D01*
X107477140Y-97312219D01*
X107414421Y-97249500D01*
X107337782Y-97172861D01*
X107337781Y-97172860D01*
X105936819Y-95771898D01*
X105903334Y-95710575D01*
X105900500Y-95684217D01*
X105900500Y-94728111D01*
X105920185Y-94661072D01*
X105972989Y-94615317D01*
X106042147Y-94605373D01*
X106105703Y-94634398D01*
X106134985Y-94671817D01*
X106152713Y-94706611D01*
X106273028Y-94872213D01*
X106417786Y-95016971D01*
X106538226Y-95104474D01*
X106583390Y-95137287D01*
X106699607Y-95196503D01*
X106765776Y-95230218D01*
X106765778Y-95230218D01*
X106765781Y-95230220D01*
X106870137Y-95264127D01*
X106960465Y-95293477D01*
X107061557Y-95309488D01*
X107162648Y-95325500D01*
X107162649Y-95325500D01*
X107367351Y-95325500D01*
X107367352Y-95325500D01*
X107569534Y-95293477D01*
X107764219Y-95230220D01*
X107946610Y-95137287D01*
X108082171Y-95038797D01*
X108112213Y-95016971D01*
X108112215Y-95016968D01*
X108112219Y-95016966D01*
X108256966Y-94872219D01*
X108256968Y-94872215D01*
X108256971Y-94872213D01*
X108343965Y-94752474D01*
X108377287Y-94706610D01*
X108470220Y-94524219D01*
X108533477Y-94329534D01*
X108565500Y-94127352D01*
X108565500Y-93922648D01*
X108557257Y-93870606D01*
X108533477Y-93720465D01*
X108502458Y-93625000D01*
X108470220Y-93525781D01*
X108470218Y-93525778D01*
X108470218Y-93525776D01*
X108420897Y-93428979D01*
X108377287Y-93343390D01*
X108345092Y-93299077D01*
X108256971Y-93177786D01*
X108112213Y-93033028D01*
X107946614Y-92912715D01*
X107940006Y-92909348D01*
X107853917Y-92865483D01*
X107803123Y-92817511D01*
X107786328Y-92749690D01*
X107808865Y-92683555D01*
X107853917Y-92644516D01*
X107946610Y-92597287D01*
X108075482Y-92503657D01*
X108112213Y-92476971D01*
X108112215Y-92476968D01*
X108112219Y-92476966D01*
X108118032Y-92471153D01*
X108799500Y-92471153D01*
X108799500Y-92628846D01*
X108830261Y-92783489D01*
X108830264Y-92783501D01*
X108890602Y-92929172D01*
X108890609Y-92929185D01*
X108978210Y-93060288D01*
X108978213Y-93060292D01*
X109089707Y-93171786D01*
X109089711Y-93171789D01*
X109220814Y-93259390D01*
X109220827Y-93259397D01*
X109366498Y-93319735D01*
X109366503Y-93319737D01*
X109485394Y-93343386D01*
X109521153Y-93350499D01*
X109521156Y-93350500D01*
X109521158Y-93350500D01*
X109678844Y-93350500D01*
X109678845Y-93350499D01*
X109833497Y-93319737D01*
X109979179Y-93259394D01*
X110110289Y-93171789D01*
X110221789Y-93060289D01*
X110309394Y-92929179D01*
X110369737Y-92783497D01*
X110400500Y-92628842D01*
X110400500Y-92471158D01*
X110400500Y-92471155D01*
X110400499Y-92471153D01*
X110393810Y-92437525D01*
X110369737Y-92316503D01*
X110366570Y-92308858D01*
X110309397Y-92170827D01*
X110309390Y-92170814D01*
X110221789Y-92039711D01*
X110221786Y-92039707D01*
X110110292Y-91928213D01*
X110110288Y-91928210D01*
X110024897Y-91871153D01*
X114299500Y-91871153D01*
X114299500Y-92028846D01*
X114330261Y-92183489D01*
X114330264Y-92183501D01*
X114390602Y-92329172D01*
X114390609Y-92329185D01*
X114478210Y-92460288D01*
X114478213Y-92460292D01*
X114589707Y-92571786D01*
X114589711Y-92571789D01*
X114720814Y-92659390D01*
X114720827Y-92659397D01*
X114856952Y-92715781D01*
X114866503Y-92719737D01*
X115017086Y-92749690D01*
X115021153Y-92750499D01*
X115021156Y-92750500D01*
X115021158Y-92750500D01*
X115178844Y-92750500D01*
X115178845Y-92750499D01*
X115333497Y-92719737D01*
X115479179Y-92659394D01*
X115610289Y-92571789D01*
X115634943Y-92547135D01*
X118407000Y-92547135D01*
X118407000Y-94642870D01*
X118407001Y-94642876D01*
X118413408Y-94702483D01*
X118463702Y-94837328D01*
X118463706Y-94837335D01*
X118549952Y-94952544D01*
X118549955Y-94952547D01*
X118665164Y-95038793D01*
X118665171Y-95038797D01*
X118800017Y-95089091D01*
X118800016Y-95089091D01*
X118806944Y-95089835D01*
X118859627Y-95095500D01*
X120860372Y-95095499D01*
X120919983Y-95089091D01*
X121054831Y-95038796D01*
X121170046Y-94952546D01*
X121256296Y-94837331D01*
X121266690Y-94809460D01*
X121308560Y-94753527D01*
X121374023Y-94729108D01*
X121442297Y-94743958D01*
X121455746Y-94752465D01*
X121638462Y-94885217D01*
X121770599Y-94952544D01*
X121842244Y-94989049D01*
X122059751Y-95059721D01*
X122059752Y-95059721D01*
X122059755Y-95059722D01*
X122285646Y-95095500D01*
X122285647Y-95095500D01*
X122514353Y-95095500D01*
X122514354Y-95095500D01*
X122740245Y-95059722D01*
X122740248Y-95059721D01*
X122740249Y-95059721D01*
X122957755Y-94989049D01*
X122957755Y-94989048D01*
X122957758Y-94989048D01*
X123161538Y-94885217D01*
X123346566Y-94750786D01*
X123508286Y-94589066D01*
X123569684Y-94504558D01*
X123625010Y-94461896D01*
X123694624Y-94455917D01*
X123756419Y-94488522D01*
X123770313Y-94504556D01*
X123831713Y-94589066D01*
X123993433Y-94750786D01*
X124178461Y-94885217D01*
X124310598Y-94952544D01*
X124382243Y-94989049D01*
X124599750Y-95059721D01*
X124599751Y-95059721D01*
X124599754Y-95059722D01*
X124825645Y-95095500D01*
X124825646Y-95095500D01*
X125054352Y-95095500D01*
X125054353Y-95095500D01*
X125280244Y-95059722D01*
X125280247Y-95059721D01*
X125280248Y-95059721D01*
X125497754Y-94989049D01*
X125497754Y-94989048D01*
X125497757Y-94989048D01*
X125701537Y-94885217D01*
X125886565Y-94750786D01*
X126048285Y-94589066D01*
X126182716Y-94404038D01*
X126286547Y-94200258D01*
X126357221Y-93982745D01*
X126392999Y-93756854D01*
X126392999Y-93433146D01*
X126357221Y-93207255D01*
X126357220Y-93207251D01*
X126357220Y-93207250D01*
X126286548Y-92989744D01*
X126255692Y-92929185D01*
X126182716Y-92785962D01*
X126048285Y-92600934D01*
X125886565Y-92439214D01*
X125701537Y-92304783D01*
X125596875Y-92251455D01*
X125497754Y-92200950D01*
X125280247Y-92130278D01*
X125094811Y-92100908D01*
X125054353Y-92094500D01*
X124825645Y-92094500D01*
X124785187Y-92100908D01*
X124599752Y-92130278D01*
X124599749Y-92130278D01*
X124382243Y-92200950D01*
X124178460Y-92304783D01*
X124112549Y-92352671D01*
X123993433Y-92439214D01*
X123993431Y-92439216D01*
X123993430Y-92439216D01*
X123831714Y-92600932D01*
X123770317Y-92685438D01*
X123714986Y-92728103D01*
X123645373Y-92734082D01*
X123583578Y-92701476D01*
X123569681Y-92685437D01*
X123550757Y-92659390D01*
X123508286Y-92600934D01*
X123346566Y-92439214D01*
X123161538Y-92304783D01*
X123056876Y-92251455D01*
X122957755Y-92200950D01*
X122740248Y-92130278D01*
X122554812Y-92100908D01*
X122514354Y-92094500D01*
X122285646Y-92094500D01*
X122245188Y-92100908D01*
X122059753Y-92130278D01*
X122059750Y-92130278D01*
X121842244Y-92200950D01*
X121638461Y-92304783D01*
X121455759Y-92437525D01*
X121389952Y-92461005D01*
X121321898Y-92445180D01*
X121273203Y-92395074D01*
X121266690Y-92380538D01*
X121263219Y-92371232D01*
X121256296Y-92352669D01*
X121256293Y-92352664D01*
X121170047Y-92237455D01*
X121170044Y-92237452D01*
X121054835Y-92151206D01*
X121054828Y-92151202D01*
X120919982Y-92100908D01*
X120919983Y-92100908D01*
X120860383Y-92094501D01*
X120860381Y-92094500D01*
X120860373Y-92094500D01*
X120860364Y-92094500D01*
X118859629Y-92094500D01*
X118859623Y-92094501D01*
X118800016Y-92100908D01*
X118665171Y-92151202D01*
X118665164Y-92151206D01*
X118549955Y-92237452D01*
X118549952Y-92237455D01*
X118463706Y-92352664D01*
X118463702Y-92352671D01*
X118413408Y-92487517D01*
X118407001Y-92547116D01*
X118407000Y-92547135D01*
X115634943Y-92547135D01*
X115721789Y-92460289D01*
X115809394Y-92329179D01*
X115869737Y-92183497D01*
X115900500Y-92028842D01*
X115900500Y-91871158D01*
X115900500Y-91871155D01*
X115900499Y-91871153D01*
X115882419Y-91780261D01*
X115869737Y-91716503D01*
X115867963Y-91712219D01*
X115809397Y-91570827D01*
X115809390Y-91570814D01*
X115721789Y-91439711D01*
X115721786Y-91439707D01*
X115610292Y-91328213D01*
X115610288Y-91328210D01*
X115479185Y-91240609D01*
X115479172Y-91240602D01*
X115333501Y-91180264D01*
X115333489Y-91180261D01*
X115178845Y-91149500D01*
X115178842Y-91149500D01*
X115021158Y-91149500D01*
X115021155Y-91149500D01*
X114866510Y-91180261D01*
X114866498Y-91180264D01*
X114720827Y-91240602D01*
X114720814Y-91240609D01*
X114589711Y-91328210D01*
X114589707Y-91328213D01*
X114478213Y-91439707D01*
X114478210Y-91439711D01*
X114390609Y-91570814D01*
X114390602Y-91570827D01*
X114330264Y-91716498D01*
X114330261Y-91716510D01*
X114299500Y-91871153D01*
X110024897Y-91871153D01*
X109979185Y-91840609D01*
X109979172Y-91840602D01*
X109833501Y-91780264D01*
X109833489Y-91780261D01*
X109678845Y-91749500D01*
X109678842Y-91749500D01*
X109521158Y-91749500D01*
X109521155Y-91749500D01*
X109366510Y-91780261D01*
X109366498Y-91780264D01*
X109220827Y-91840602D01*
X109220814Y-91840609D01*
X109089711Y-91928210D01*
X109089707Y-91928213D01*
X108978213Y-92039707D01*
X108978210Y-92039711D01*
X108890609Y-92170814D01*
X108890602Y-92170827D01*
X108830264Y-92316498D01*
X108830261Y-92316510D01*
X108799500Y-92471153D01*
X108118032Y-92471153D01*
X108256966Y-92332219D01*
X108256968Y-92332215D01*
X108256971Y-92332213D01*
X108315644Y-92251455D01*
X108377287Y-92166610D01*
X108470220Y-91984219D01*
X108533477Y-91789534D01*
X108565500Y-91587352D01*
X108565500Y-91382648D01*
X108543003Y-91240609D01*
X108533477Y-91180465D01*
X108470218Y-90985776D01*
X108418865Y-90884991D01*
X108377287Y-90803390D01*
X108361892Y-90782200D01*
X108300870Y-90698209D01*
X108277390Y-90632402D01*
X108293216Y-90564349D01*
X108298086Y-90556433D01*
X108386628Y-90423920D01*
X108386628Y-90423919D01*
X108386632Y-90423914D01*
X108462051Y-90241835D01*
X108500500Y-90048541D01*
X108500500Y-83529115D01*
X108520185Y-83462076D01*
X108572989Y-83416321D01*
X108642147Y-83406377D01*
X108705703Y-83435402D01*
X108743477Y-83494180D01*
X108745391Y-83501522D01*
X108810953Y-83788771D01*
X108810957Y-83788783D01*
X108911133Y-84075068D01*
X109042733Y-84348338D01*
X109042735Y-84348341D01*
X109204108Y-84605164D01*
X109393221Y-84842304D01*
X109607696Y-85056779D01*
X109844836Y-85245892D01*
X110101659Y-85407265D01*
X110374935Y-85538868D01*
X110589951Y-85614105D01*
X110661216Y-85639042D01*
X110661228Y-85639046D01*
X110956937Y-85706540D01*
X110956946Y-85706541D01*
X110956951Y-85706542D01*
X111157874Y-85729180D01*
X111258337Y-85740499D01*
X111258340Y-85740500D01*
X111258343Y-85740500D01*
X111561660Y-85740500D01*
X111561661Y-85740499D01*
X111715694Y-85723144D01*
X111863048Y-85706542D01*
X111863051Y-85706541D01*
X111863063Y-85706540D01*
X112158772Y-85639046D01*
X112445065Y-85538868D01*
X112718341Y-85407265D01*
X112975164Y-85245892D01*
X113212304Y-85056779D01*
X113426779Y-84842304D01*
X113615892Y-84605164D01*
X113777265Y-84348341D01*
X113908868Y-84075065D01*
X114009046Y-83788772D01*
X114076540Y-83493063D01*
X114080032Y-83462076D01*
X114110499Y-83191663D01*
X114110500Y-83191659D01*
X114110500Y-82888340D01*
X114110499Y-82888338D01*
X114092532Y-82728871D01*
X114092532Y-82728870D01*
X114091311Y-82718034D01*
X119069500Y-82718034D01*
X119069500Y-83061965D01*
X119103210Y-83404249D01*
X119170308Y-83741572D01*
X119270150Y-84070706D01*
X119401770Y-84388464D01*
X119401772Y-84388469D01*
X119563893Y-84691775D01*
X119563904Y-84691793D01*
X119754975Y-84977751D01*
X119754985Y-84977765D01*
X119973176Y-85243632D01*
X120216367Y-85486823D01*
X120216372Y-85486827D01*
X120216373Y-85486828D01*
X120482240Y-85705019D01*
X120768213Y-85896100D01*
X120768222Y-85896105D01*
X120768224Y-85896106D01*
X121071530Y-86058227D01*
X121071532Y-86058227D01*
X121071538Y-86058231D01*
X121389295Y-86189850D01*
X121718422Y-86289690D01*
X122055750Y-86356789D01*
X122398031Y-86390500D01*
X122398034Y-86390500D01*
X122741966Y-86390500D01*
X122741969Y-86390500D01*
X123084250Y-86356789D01*
X123421578Y-86289690D01*
X123750705Y-86189850D01*
X124068462Y-86058231D01*
X124371787Y-85896100D01*
X124657760Y-85705019D01*
X124923627Y-85486828D01*
X125166828Y-85243627D01*
X125385019Y-84977760D01*
X125576100Y-84691787D01*
X125738231Y-84388462D01*
X125869850Y-84070705D01*
X125969690Y-83741578D01*
X126036789Y-83404250D01*
X126070500Y-83061969D01*
X126070500Y-82718031D01*
X126036789Y-82375750D01*
X125969690Y-82038422D01*
X125869850Y-81709295D01*
X125738231Y-81391538D01*
X125576100Y-81088213D01*
X125385019Y-80802240D01*
X125166828Y-80536373D01*
X125166827Y-80536372D01*
X125166823Y-80536367D01*
X124923632Y-80293176D01*
X124657765Y-80074985D01*
X124657764Y-80074984D01*
X124657760Y-80074981D01*
X124371787Y-79883900D01*
X124371782Y-79883897D01*
X124371775Y-79883893D01*
X124068469Y-79721772D01*
X124068464Y-79721770D01*
X123750706Y-79590150D01*
X123421572Y-79490308D01*
X123084248Y-79423210D01*
X123084249Y-79423210D01*
X122826456Y-79397821D01*
X122741969Y-79389500D01*
X122398031Y-79389500D01*
X122319966Y-79397188D01*
X122055750Y-79423210D01*
X121718427Y-79490308D01*
X121389293Y-79590150D01*
X121071535Y-79721770D01*
X121071530Y-79721772D01*
X120768224Y-79883893D01*
X120768206Y-79883904D01*
X120482248Y-80074975D01*
X120482234Y-80074985D01*
X120216367Y-80293176D01*
X119973176Y-80536367D01*
X119754985Y-80802234D01*
X119754975Y-80802248D01*
X119563904Y-81088206D01*
X119563893Y-81088224D01*
X119401772Y-81391530D01*
X119401770Y-81391535D01*
X119270150Y-81709293D01*
X119170308Y-82038427D01*
X119103210Y-82375750D01*
X119069500Y-82718034D01*
X114091311Y-82718034D01*
X114076542Y-82586950D01*
X114076540Y-82586945D01*
X114076540Y-82586937D01*
X114009046Y-82291228D01*
X113908868Y-82004935D01*
X113777265Y-81731659D01*
X113615892Y-81474836D01*
X113426779Y-81237696D01*
X113212304Y-81023221D01*
X112975164Y-80834108D01*
X112718341Y-80672735D01*
X112718338Y-80672733D01*
X112445068Y-80541133D01*
X112158783Y-80440957D01*
X112158771Y-80440953D01*
X111930556Y-80388864D01*
X111863063Y-80373460D01*
X111863060Y-80373459D01*
X111863048Y-80373457D01*
X111561663Y-80339500D01*
X111561657Y-80339500D01*
X111258343Y-80339500D01*
X111258336Y-80339500D01*
X110956951Y-80373457D01*
X110956937Y-80373460D01*
X110661228Y-80440953D01*
X110661216Y-80440957D01*
X110374931Y-80541133D01*
X110101661Y-80672733D01*
X109844837Y-80834107D01*
X109607696Y-81023220D01*
X109393220Y-81237696D01*
X109204107Y-81474837D01*
X109042733Y-81731661D01*
X108911133Y-82004931D01*
X108810957Y-82291216D01*
X108810953Y-82291228D01*
X108745391Y-82578477D01*
X108711282Y-82639455D01*
X108649621Y-82672313D01*
X108579984Y-82666618D01*
X108524480Y-82624178D01*
X108500732Y-82558468D01*
X108500500Y-82550884D01*
X108500500Y-78315782D01*
X108520185Y-78248743D01*
X108536819Y-78228101D01*
X112862474Y-73902447D01*
X112923797Y-73868962D01*
X112950155Y-73866128D01*
X117493167Y-73866128D01*
X117560206Y-73885813D01*
X117605961Y-73938617D01*
X117615905Y-74007775D01*
X117614784Y-74014320D01*
X117599500Y-74091155D01*
X117599500Y-74248846D01*
X117630261Y-74403489D01*
X117630264Y-74403501D01*
X117690602Y-74549172D01*
X117690609Y-74549185D01*
X117778210Y-74680288D01*
X117778213Y-74680292D01*
X117889707Y-74791786D01*
X117889711Y-74791789D01*
X118020814Y-74879390D01*
X118020827Y-74879397D01*
X118166498Y-74939735D01*
X118166503Y-74939737D01*
X118321153Y-74970499D01*
X118321156Y-74970500D01*
X118321158Y-74970500D01*
X118478844Y-74970500D01*
X118478845Y-74970499D01*
X118633497Y-74939737D01*
X118779179Y-74879394D01*
X118910289Y-74791789D01*
X119021789Y-74680289D01*
X119109394Y-74549179D01*
X119169737Y-74403497D01*
X119200500Y-74248842D01*
X119200500Y-74091158D01*
X119200500Y-74091155D01*
X119185216Y-74014320D01*
X119187093Y-73993335D01*
X119184095Y-73972481D01*
X119190145Y-73959233D01*
X119191443Y-73944728D01*
X119204367Y-73928090D01*
X119213120Y-73908925D01*
X119225372Y-73901050D01*
X119234306Y-73889551D01*
X119254172Y-73882542D01*
X119271898Y-73871151D01*
X119296480Y-73867616D01*
X119300195Y-73866306D01*
X119306833Y-73866128D01*
X119409080Y-73866128D01*
X119476119Y-73885813D01*
X119521874Y-73938617D01*
X119531818Y-74007775D01*
X119530697Y-74014320D01*
X119499500Y-74171155D01*
X119499500Y-74328846D01*
X119530261Y-74483489D01*
X119530264Y-74483501D01*
X119590602Y-74629172D01*
X119590609Y-74629185D01*
X119678210Y-74760288D01*
X119678213Y-74760292D01*
X119789707Y-74871786D01*
X119789715Y-74871792D01*
X119844390Y-74908325D01*
X119889196Y-74961937D01*
X119899500Y-75011427D01*
X119899500Y-75128846D01*
X119930261Y-75283489D01*
X119930264Y-75283501D01*
X119990602Y-75429172D01*
X119990609Y-75429185D01*
X120078210Y-75560288D01*
X120078213Y-75560292D01*
X120189707Y-75671786D01*
X120189711Y-75671789D01*
X120320814Y-75759390D01*
X120320827Y-75759397D01*
X120466498Y-75819735D01*
X120466503Y-75819737D01*
X120592070Y-75844714D01*
X120621153Y-75850499D01*
X120621156Y-75850500D01*
X120621158Y-75850500D01*
X120778844Y-75850500D01*
X120778845Y-75850499D01*
X120933497Y-75819737D01*
X121079179Y-75759394D01*
X121210289Y-75671789D01*
X121321789Y-75560289D01*
X121409394Y-75429179D01*
X121469737Y-75283497D01*
X121500500Y-75128842D01*
X121500500Y-74971158D01*
X121500500Y-74971155D01*
X121500499Y-74971153D01*
X121494250Y-74939737D01*
X121469737Y-74816503D01*
X121413316Y-74680289D01*
X121409397Y-74670827D01*
X121409390Y-74670814D01*
X121321789Y-74539711D01*
X121321786Y-74539707D01*
X121210292Y-74428213D01*
X121155608Y-74391674D01*
X121110804Y-74338061D01*
X121100500Y-74288572D01*
X121100500Y-74171155D01*
X121100499Y-74171153D01*
X121069737Y-74016503D01*
X121036732Y-73936823D01*
X121029264Y-73867356D01*
X121060539Y-73804876D01*
X121103842Y-73774811D01*
X121158279Y-73752263D01*
X121158279Y-73752262D01*
X121158286Y-73752260D01*
X121322154Y-73642767D01*
X121461511Y-73503410D01*
X121461512Y-73503407D01*
X121468578Y-73496342D01*
X121468580Y-73496338D01*
X124678101Y-70286819D01*
X124739424Y-70253334D01*
X124765782Y-70250500D01*
X126397810Y-70250500D01*
X126464849Y-70270185D01*
X126510604Y-70322989D01*
X126520548Y-70392147D01*
X126491523Y-70455703D01*
X126445262Y-70489061D01*
X126320827Y-70540602D01*
X126320814Y-70540609D01*
X126189711Y-70628210D01*
X126189707Y-70628213D01*
X126078213Y-70739707D01*
X126078210Y-70739711D01*
X125990609Y-70870814D01*
X125990602Y-70870827D01*
X125930264Y-71016498D01*
X125930261Y-71016510D01*
X125899500Y-71171153D01*
X125899500Y-71328846D01*
X125930261Y-71483489D01*
X125930264Y-71483501D01*
X125990602Y-71629172D01*
X125990609Y-71629185D01*
X126078210Y-71760288D01*
X126078213Y-71760292D01*
X126189707Y-71871786D01*
X126189711Y-71871789D01*
X126320814Y-71959390D01*
X126320827Y-71959397D01*
X126466498Y-72019735D01*
X126466503Y-72019737D01*
X126621153Y-72050499D01*
X126621156Y-72050500D01*
X126621158Y-72050500D01*
X126778844Y-72050500D01*
X126778845Y-72050499D01*
X126933497Y-72019737D01*
X127079179Y-71959394D01*
X127210289Y-71871789D01*
X127321789Y-71760289D01*
X127409394Y-71629179D01*
X127469737Y-71483497D01*
X127500500Y-71328842D01*
X127500500Y-71171158D01*
X127500500Y-71171155D01*
X127500499Y-71171153D01*
X127469738Y-71016510D01*
X127469737Y-71016503D01*
X127409794Y-70871786D01*
X127409397Y-70870827D01*
X127409390Y-70870814D01*
X127321789Y-70739711D01*
X127321786Y-70739707D01*
X127256260Y-70674181D01*
X127222775Y-70612858D01*
X127227759Y-70543166D01*
X127269631Y-70487233D01*
X127335095Y-70462816D01*
X127343941Y-70462500D01*
X127399360Y-70462500D01*
X127399361Y-70462500D01*
X127595636Y-70431413D01*
X127784632Y-70370005D01*
X127961694Y-70279787D01*
X128122464Y-70162981D01*
X128262981Y-70022464D01*
X128379787Y-69861694D01*
X128470005Y-69684632D01*
X128470006Y-69684629D01*
X128530945Y-69497077D01*
X128570382Y-69439402D01*
X128634741Y-69412203D01*
X128703587Y-69424117D01*
X128755063Y-69471361D01*
X128772876Y-69535352D01*
X128789498Y-116927107D01*
X128789366Y-116932877D01*
X128772703Y-117293303D01*
X128771646Y-117304707D01*
X128722192Y-117659231D01*
X128720087Y-117670490D01*
X128638135Y-118018931D01*
X128635001Y-118029947D01*
X128521243Y-118369355D01*
X128517105Y-118380035D01*
X128372523Y-118707482D01*
X128367418Y-118717735D01*
X128193234Y-119030452D01*
X128187205Y-119040190D01*
X127984906Y-119335512D01*
X127978003Y-119344652D01*
X127749328Y-119620035D01*
X127741612Y-119628499D01*
X127488499Y-119881612D01*
X127480035Y-119889328D01*
X127204652Y-120118003D01*
X127195512Y-120124906D01*
X126900190Y-120327205D01*
X126890452Y-120333234D01*
X126577735Y-120507418D01*
X126567482Y-120512523D01*
X126240035Y-120657105D01*
X126229355Y-120661243D01*
X125889947Y-120775001D01*
X125878931Y-120778135D01*
X125530490Y-120860087D01*
X125519231Y-120862192D01*
X125164707Y-120911646D01*
X125153303Y-120912703D01*
X124792855Y-120929368D01*
X124787128Y-120929500D01*
X97802862Y-120929500D01*
X97797127Y-120929367D01*
X97436194Y-120912656D01*
X97424774Y-120911597D01*
X97069746Y-120862002D01*
X97058471Y-120859891D01*
X96709565Y-120777708D01*
X96698535Y-120774565D01*
X96358705Y-120660493D01*
X96348012Y-120656344D01*
X96020182Y-120511362D01*
X96009918Y-120506243D01*
X95877375Y-120432292D01*
X95696878Y-120331586D01*
X95687131Y-120325540D01*
X95391581Y-120122714D01*
X95382435Y-120115794D01*
X95106878Y-119886518D01*
X95098409Y-119878782D01*
X94845216Y-119625026D01*
X94837509Y-119616553D01*
X94608825Y-119340462D01*
X94601952Y-119331334D01*
X94503704Y-119187486D01*
X103757500Y-119187486D01*
X103757500Y-119392513D01*
X103789570Y-119594997D01*
X103852927Y-119789991D01*
X103946003Y-119972661D01*
X103978733Y-120017711D01*
X103978734Y-120017711D01*
X104548459Y-119447985D01*
X104561460Y-119496502D01*
X104631894Y-119618497D01*
X104731503Y-119718106D01*
X104853498Y-119788540D01*
X104902012Y-119801539D01*
X104332287Y-120371264D01*
X104377344Y-120403999D01*
X104560008Y-120497072D01*
X104755002Y-120560429D01*
X104957487Y-120592500D01*
X105162513Y-120592500D01*
X105364997Y-120560429D01*
X105559991Y-120497072D01*
X105742659Y-120403997D01*
X105787711Y-120371264D01*
X105787712Y-120371264D01*
X105217987Y-119801539D01*
X105266502Y-119788540D01*
X105388497Y-119718106D01*
X105488106Y-119618497D01*
X105558540Y-119496502D01*
X105571539Y-119447987D01*
X106141264Y-120017712D01*
X106141264Y-120017711D01*
X106173999Y-119972657D01*
X106219234Y-119883877D01*
X106267208Y-119833081D01*
X106335028Y-119816285D01*
X106401164Y-119838822D01*
X106440204Y-119883876D01*
X106442982Y-119889328D01*
X106485440Y-119972657D01*
X106485577Y-119972924D01*
X106606121Y-120138840D01*
X106606125Y-120138845D01*
X106751154Y-120283874D01*
X106751159Y-120283878D01*
X106821296Y-120334835D01*
X106917079Y-120404425D01*
X107033522Y-120463755D01*
X107099817Y-120497535D01*
X107099819Y-120497535D01*
X107099822Y-120497537D01*
X107294880Y-120560916D01*
X107396166Y-120576958D01*
X107497447Y-120593000D01*
X107497452Y-120593000D01*
X107702553Y-120593000D01*
X107794626Y-120578416D01*
X107905120Y-120560916D01*
X108100178Y-120497537D01*
X108282921Y-120404425D01*
X108448847Y-120283873D01*
X108593873Y-120138847D01*
X108714425Y-119972921D01*
X108759795Y-119883876D01*
X108807768Y-119833082D01*
X108875588Y-119816286D01*
X108941724Y-119838823D01*
X108980763Y-119883876D01*
X109026000Y-119972658D01*
X109058732Y-120017711D01*
X109058733Y-120017711D01*
X109628458Y-119447985D01*
X109641459Y-119496502D01*
X109711893Y-119618497D01*
X109811502Y-119718106D01*
X109933497Y-119788540D01*
X109982011Y-119801539D01*
X109412286Y-120371264D01*
X109457343Y-120403999D01*
X109640007Y-120497072D01*
X109835001Y-120560429D01*
X110037486Y-120592500D01*
X110242512Y-120592500D01*
X110444996Y-120560429D01*
X110639990Y-120497072D01*
X110822658Y-120403997D01*
X110867710Y-120371264D01*
X110867711Y-120371264D01*
X110297986Y-119801539D01*
X110346501Y-119788540D01*
X110468496Y-119718106D01*
X110568105Y-119618497D01*
X110638539Y-119496502D01*
X110651538Y-119447987D01*
X111221263Y-120017712D01*
X111221263Y-120017711D01*
X111253998Y-119972657D01*
X111299234Y-119883875D01*
X111347208Y-119833079D01*
X111415028Y-119816283D01*
X111481164Y-119838820D01*
X111520204Y-119883874D01*
X111522983Y-119889328D01*
X111565441Y-119972657D01*
X111565578Y-119972924D01*
X111686122Y-120138840D01*
X111686126Y-120138845D01*
X111831155Y-120283874D01*
X111831160Y-120283878D01*
X111901297Y-120334835D01*
X111997080Y-120404425D01*
X112113523Y-120463755D01*
X112179818Y-120497535D01*
X112179820Y-120497535D01*
X112179823Y-120497537D01*
X112374881Y-120560916D01*
X112476167Y-120576958D01*
X112577448Y-120593000D01*
X112577453Y-120593000D01*
X112782554Y-120593000D01*
X112874627Y-120578416D01*
X112985121Y-120560916D01*
X113180179Y-120497537D01*
X113362922Y-120404425D01*
X113528848Y-120283873D01*
X113673874Y-120138847D01*
X113794426Y-119972921D01*
X113839796Y-119883876D01*
X113887769Y-119833082D01*
X113955589Y-119816286D01*
X114021725Y-119838823D01*
X114060764Y-119883876D01*
X114106001Y-119972658D01*
X114138733Y-120017711D01*
X114138734Y-120017711D01*
X114708459Y-119447985D01*
X114721460Y-119496502D01*
X114791894Y-119618497D01*
X114891503Y-119718106D01*
X115013498Y-119788540D01*
X115062012Y-119801539D01*
X114492287Y-120371264D01*
X114537344Y-120403999D01*
X114720008Y-120497072D01*
X114915002Y-120560429D01*
X115117487Y-120592500D01*
X115322513Y-120592500D01*
X115524997Y-120560429D01*
X115719991Y-120497072D01*
X115902659Y-120403997D01*
X115947711Y-120371264D01*
X115947712Y-120371264D01*
X115377987Y-119801539D01*
X115426502Y-119788540D01*
X115548497Y-119718106D01*
X115648106Y-119618497D01*
X115718540Y-119496502D01*
X115731539Y-119447987D01*
X116301263Y-120017711D01*
X116323271Y-120015980D01*
X116391648Y-120030344D01*
X116441405Y-120079396D01*
X116456357Y-120137088D01*
X116456599Y-120137076D01*
X116456646Y-120137071D01*
X116456646Y-120137073D01*
X116456824Y-120137064D01*
X116456947Y-120139364D01*
X116457000Y-120139568D01*
X116457000Y-120140355D01*
X116457001Y-120140376D01*
X116463408Y-120199983D01*
X116513702Y-120334828D01*
X116513706Y-120334835D01*
X116599952Y-120450044D01*
X116599955Y-120450047D01*
X116715164Y-120536293D01*
X116715171Y-120536297D01*
X116850017Y-120586591D01*
X116850016Y-120586591D01*
X116856944Y-120587335D01*
X116909627Y-120593000D01*
X118610372Y-120592999D01*
X118669983Y-120586591D01*
X118804831Y-120536296D01*
X118920046Y-120450046D01*
X119006296Y-120334831D01*
X119056591Y-120199983D01*
X119063000Y-120140373D01*
X119062999Y-118439628D01*
X119056591Y-118380017D01*
X119052614Y-118369355D01*
X119006297Y-118245171D01*
X119006293Y-118245164D01*
X118920047Y-118129955D01*
X118920044Y-118129952D01*
X118804835Y-118043706D01*
X118804828Y-118043702D01*
X118669982Y-117993408D01*
X118669983Y-117993408D01*
X118610383Y-117987001D01*
X118610381Y-117987000D01*
X118610373Y-117987000D01*
X118610364Y-117987000D01*
X116909629Y-117987000D01*
X116909623Y-117987001D01*
X116850016Y-117993408D01*
X116715171Y-118043702D01*
X116715164Y-118043706D01*
X116599955Y-118129952D01*
X116599952Y-118129955D01*
X116513706Y-118245164D01*
X116513702Y-118245171D01*
X116463408Y-118380017D01*
X116457001Y-118439616D01*
X116457001Y-118439623D01*
X116457000Y-118439635D01*
X116457000Y-118440401D01*
X116456949Y-118440572D01*
X116456822Y-118442952D01*
X116456259Y-118442921D01*
X116437315Y-118507440D01*
X116384511Y-118553195D01*
X116323271Y-118564019D01*
X116301264Y-118562287D01*
X115731539Y-119132012D01*
X115718540Y-119083498D01*
X115648106Y-118961503D01*
X115548497Y-118861894D01*
X115426502Y-118791460D01*
X115377985Y-118778459D01*
X115947711Y-118208734D01*
X115947711Y-118208733D01*
X115902661Y-118176003D01*
X115719991Y-118082927D01*
X115524997Y-118019570D01*
X115322513Y-117987500D01*
X115117487Y-117987500D01*
X114915002Y-118019570D01*
X114720008Y-118082927D01*
X114537338Y-118176003D01*
X114492287Y-118208733D01*
X114492287Y-118208734D01*
X115062013Y-118778460D01*
X115013498Y-118791460D01*
X114891503Y-118861894D01*
X114791894Y-118961503D01*
X114721460Y-119083498D01*
X114708460Y-119132013D01*
X114138734Y-118562287D01*
X114138733Y-118562287D01*
X114106001Y-118607341D01*
X114060764Y-118696123D01*
X114012789Y-118746919D01*
X113944968Y-118763713D01*
X113878833Y-118741175D01*
X113839795Y-118696121D01*
X113794425Y-118607077D01*
X113673879Y-118441159D01*
X113673875Y-118441154D01*
X113528846Y-118296125D01*
X113528841Y-118296121D01*
X113362925Y-118175577D01*
X113362924Y-118175576D01*
X113362922Y-118175575D01*
X113273382Y-118129952D01*
X113180183Y-118082464D01*
X113133385Y-118067258D01*
X112985121Y-118019084D01*
X112984155Y-118018931D01*
X112782554Y-117987000D01*
X112782549Y-117987000D01*
X112577453Y-117987000D01*
X112577448Y-117987000D01*
X112374886Y-118019083D01*
X112374884Y-118019083D01*
X112374881Y-118019084D01*
X112277352Y-118050773D01*
X112179818Y-118082464D01*
X111997076Y-118175577D01*
X111831160Y-118296121D01*
X111831155Y-118296125D01*
X111686126Y-118441154D01*
X111686122Y-118441159D01*
X111565576Y-118607077D01*
X111520203Y-118696126D01*
X111472229Y-118746921D01*
X111404407Y-118763716D01*
X111338273Y-118741178D01*
X111299234Y-118696124D01*
X111254000Y-118607347D01*
X111221263Y-118562287D01*
X110651538Y-119132012D01*
X110638539Y-119083498D01*
X110568105Y-118961503D01*
X110468496Y-118861894D01*
X110346501Y-118791460D01*
X110297984Y-118778459D01*
X110867710Y-118208734D01*
X110867710Y-118208733D01*
X110822660Y-118176003D01*
X110639990Y-118082927D01*
X110444996Y-118019570D01*
X110242512Y-117987500D01*
X110037486Y-117987500D01*
X109835001Y-118019570D01*
X109640007Y-118082927D01*
X109457337Y-118176003D01*
X109412286Y-118208733D01*
X109412286Y-118208734D01*
X109982012Y-118778460D01*
X109933497Y-118791460D01*
X109811502Y-118861894D01*
X109711893Y-118961503D01*
X109641459Y-119083498D01*
X109628459Y-119132013D01*
X109058733Y-118562287D01*
X109058732Y-118562287D01*
X109026000Y-118607341D01*
X108980763Y-118696123D01*
X108932788Y-118746919D01*
X108864967Y-118763713D01*
X108798832Y-118741175D01*
X108759794Y-118696121D01*
X108714424Y-118607077D01*
X108593878Y-118441159D01*
X108593874Y-118441154D01*
X108448845Y-118296125D01*
X108448840Y-118296121D01*
X108282924Y-118175577D01*
X108282923Y-118175576D01*
X108282921Y-118175575D01*
X108193381Y-118129952D01*
X108100182Y-118082464D01*
X108053384Y-118067258D01*
X107905120Y-118019084D01*
X107904154Y-118018931D01*
X107702553Y-117987000D01*
X107702548Y-117987000D01*
X107497452Y-117987000D01*
X107497447Y-117987000D01*
X107294885Y-118019083D01*
X107294883Y-118019083D01*
X107294880Y-118019084D01*
X107197351Y-118050773D01*
X107099817Y-118082464D01*
X106917075Y-118175577D01*
X106751159Y-118296121D01*
X106751154Y-118296125D01*
X106606125Y-118441154D01*
X106606121Y-118441159D01*
X106485575Y-118607077D01*
X106440203Y-118696124D01*
X106392229Y-118746919D01*
X106324407Y-118763714D01*
X106258273Y-118741176D01*
X106219234Y-118696122D01*
X106174001Y-118607347D01*
X106141264Y-118562287D01*
X105571539Y-119132012D01*
X105558540Y-119083498D01*
X105488106Y-118961503D01*
X105388497Y-118861894D01*
X105266502Y-118791460D01*
X105217985Y-118778459D01*
X105787711Y-118208734D01*
X105787711Y-118208733D01*
X105742661Y-118176003D01*
X105559991Y-118082927D01*
X105364997Y-118019570D01*
X105162513Y-117987500D01*
X104957487Y-117987500D01*
X104755002Y-118019570D01*
X104560008Y-118082927D01*
X104377338Y-118176003D01*
X104332287Y-118208733D01*
X104332287Y-118208734D01*
X104902013Y-118778460D01*
X104853498Y-118791460D01*
X104731503Y-118861894D01*
X104631894Y-118961503D01*
X104561460Y-119083498D01*
X104548460Y-119132013D01*
X103978734Y-118562287D01*
X103978733Y-118562287D01*
X103946003Y-118607338D01*
X103852927Y-118790008D01*
X103789570Y-118985002D01*
X103757500Y-119187486D01*
X94503704Y-119187486D01*
X94399772Y-119035316D01*
X94393748Y-119025556D01*
X94344289Y-118936446D01*
X94219781Y-118712119D01*
X94214695Y-118701865D01*
X94070432Y-118373688D01*
X94066312Y-118362997D01*
X94043719Y-118295191D01*
X94003862Y-118175575D01*
X93952993Y-118022909D01*
X93949881Y-118011897D01*
X93868464Y-117662764D01*
X93866385Y-117651519D01*
X93817579Y-117296383D01*
X93816545Y-117284967D01*
X93802715Y-116971153D01*
X95399500Y-116971153D01*
X95399500Y-117128846D01*
X95430261Y-117283489D01*
X95430264Y-117283501D01*
X95490602Y-117429172D01*
X95490609Y-117429185D01*
X95578210Y-117560288D01*
X95578213Y-117560292D01*
X95689707Y-117671786D01*
X95689711Y-117671789D01*
X95820814Y-117759390D01*
X95820827Y-117759397D01*
X95966498Y-117819735D01*
X95966503Y-117819737D01*
X96121153Y-117850499D01*
X96121156Y-117850500D01*
X96121158Y-117850500D01*
X96278844Y-117850500D01*
X96278845Y-117850499D01*
X96433497Y-117819737D01*
X96579179Y-117759394D01*
X96710289Y-117671789D01*
X96821789Y-117560289D01*
X96909394Y-117429179D01*
X96969737Y-117283497D01*
X97000500Y-117128842D01*
X97000500Y-116971158D01*
X97000500Y-116971155D01*
X97000499Y-116971153D01*
X96976318Y-116849589D01*
X96969737Y-116816503D01*
X96969735Y-116816498D01*
X96909397Y-116670827D01*
X96909390Y-116670814D01*
X96821789Y-116539711D01*
X96821786Y-116539707D01*
X96710292Y-116428213D01*
X96710288Y-116428210D01*
X96579185Y-116340609D01*
X96579172Y-116340602D01*
X96433501Y-116280264D01*
X96433489Y-116280261D01*
X96278845Y-116249500D01*
X96278842Y-116249500D01*
X96121158Y-116249500D01*
X96121155Y-116249500D01*
X95966510Y-116280261D01*
X95966498Y-116280264D01*
X95820827Y-116340602D01*
X95820814Y-116340609D01*
X95689711Y-116428210D01*
X95689707Y-116428213D01*
X95578213Y-116539707D01*
X95578210Y-116539711D01*
X95490609Y-116670814D01*
X95490602Y-116670827D01*
X95430264Y-116816498D01*
X95430261Y-116816510D01*
X95399500Y-116971153D01*
X93802715Y-116971153D01*
X93800635Y-116923964D01*
X93800516Y-116918244D01*
X93800656Y-116855220D01*
X93800654Y-116855214D01*
X93799927Y-116849589D01*
X93798900Y-116833695D01*
X93798389Y-113371153D01*
X99299500Y-113371153D01*
X99299500Y-113528846D01*
X99330261Y-113683489D01*
X99330264Y-113683501D01*
X99390602Y-113829172D01*
X99390609Y-113829185D01*
X99478210Y-113960288D01*
X99478213Y-113960292D01*
X99589707Y-114071786D01*
X99589711Y-114071789D01*
X99720814Y-114159390D01*
X99720827Y-114159397D01*
X99866498Y-114219735D01*
X99866503Y-114219737D01*
X100021153Y-114250499D01*
X100021156Y-114250500D01*
X100021158Y-114250500D01*
X100178844Y-114250500D01*
X100178845Y-114250499D01*
X100333497Y-114219737D01*
X100479179Y-114159394D01*
X100610289Y-114071789D01*
X100721789Y-113960289D01*
X100809394Y-113829179D01*
X100869737Y-113683497D01*
X100900500Y-113528842D01*
X100900500Y-113371158D01*
X100900500Y-113371155D01*
X100900499Y-113371153D01*
X100869738Y-113216510D01*
X100869737Y-113216503D01*
X100869735Y-113216498D01*
X100809397Y-113070827D01*
X100809390Y-113070814D01*
X100721789Y-112939711D01*
X100721786Y-112939707D01*
X100610292Y-112828213D01*
X100610288Y-112828210D01*
X100479185Y-112740609D01*
X100479172Y-112740602D01*
X100333501Y-112680264D01*
X100333489Y-112680261D01*
X100178845Y-112649500D01*
X100178842Y-112649500D01*
X100021158Y-112649500D01*
X100021155Y-112649500D01*
X99866510Y-112680261D01*
X99866498Y-112680264D01*
X99720827Y-112740602D01*
X99720814Y-112740609D01*
X99589711Y-112828210D01*
X99589707Y-112828213D01*
X99478213Y-112939707D01*
X99478210Y-112939711D01*
X99390609Y-113070814D01*
X99390602Y-113070827D01*
X99330264Y-113216498D01*
X99330261Y-113216510D01*
X99299500Y-113371153D01*
X93798389Y-113371153D01*
X93797783Y-109271263D01*
X95215500Y-109271263D01*
X95215500Y-109468736D01*
X95246389Y-109663763D01*
X95273829Y-109748213D01*
X95307409Y-109851561D01*
X95397056Y-110027501D01*
X95397058Y-110027504D01*
X95513115Y-110187246D01*
X95652753Y-110326884D01*
X95802234Y-110435486D01*
X95812499Y-110442944D01*
X95988439Y-110532591D01*
X96113637Y-110573270D01*
X96176236Y-110593610D01*
X96371264Y-110624500D01*
X96371269Y-110624500D01*
X96568736Y-110624500D01*
X96763763Y-110593610D01*
X96951561Y-110532591D01*
X97127501Y-110442944D01*
X97217192Y-110377779D01*
X97287246Y-110326884D01*
X97287248Y-110326881D01*
X97287252Y-110326879D01*
X97322978Y-110291153D01*
X99298848Y-110291153D01*
X99298848Y-110448846D01*
X99329609Y-110603489D01*
X99329612Y-110603501D01*
X99389950Y-110749172D01*
X99389957Y-110749185D01*
X99477558Y-110880288D01*
X99477561Y-110880292D01*
X99589055Y-110991786D01*
X99589059Y-110991789D01*
X99720162Y-111079390D01*
X99720175Y-111079397D01*
X99865846Y-111139735D01*
X99865851Y-111139737D01*
X100020501Y-111170499D01*
X100020504Y-111170500D01*
X100020506Y-111170500D01*
X100178192Y-111170500D01*
X100178193Y-111170499D01*
X100332845Y-111139737D01*
X100478527Y-111079394D01*
X100609637Y-110991789D01*
X100721137Y-110880289D01*
X100808742Y-110749179D01*
X100869085Y-110603497D01*
X100899848Y-110448842D01*
X100899848Y-110291158D01*
X100899848Y-110291155D01*
X100899847Y-110291153D01*
X100881195Y-110197385D01*
X100869085Y-110136503D01*
X100869083Y-110136498D01*
X100808745Y-109990827D01*
X100808738Y-109990814D01*
X100721137Y-109859711D01*
X100721134Y-109859707D01*
X100609640Y-109748213D01*
X100609636Y-109748210D01*
X100478533Y-109660609D01*
X100478520Y-109660602D01*
X100332849Y-109600264D01*
X100332837Y-109600261D01*
X100178193Y-109569500D01*
X100178190Y-109569500D01*
X100020506Y-109569500D01*
X100020503Y-109569500D01*
X99865858Y-109600261D01*
X99865846Y-109600264D01*
X99720175Y-109660602D01*
X99720162Y-109660609D01*
X99589059Y-109748210D01*
X99589055Y-109748213D01*
X99477561Y-109859707D01*
X99477558Y-109859711D01*
X99389957Y-109990814D01*
X99389950Y-109990827D01*
X99329612Y-110136498D01*
X99329609Y-110136510D01*
X99298848Y-110291153D01*
X97322978Y-110291153D01*
X97426879Y-110187252D01*
X97426881Y-110187248D01*
X97426884Y-110187246D01*
X97477779Y-110117192D01*
X97542944Y-110027501D01*
X97632591Y-109851561D01*
X97693610Y-109663763D01*
X97694111Y-109660602D01*
X97724500Y-109468736D01*
X97724500Y-109271263D01*
X97693610Y-109076236D01*
X97655936Y-108960288D01*
X97632591Y-108888439D01*
X97542944Y-108712499D01*
X97521867Y-108683489D01*
X97426884Y-108552753D01*
X97287246Y-108413115D01*
X97127504Y-108297058D01*
X97127503Y-108297057D01*
X97127501Y-108297056D01*
X96951561Y-108207409D01*
X96951558Y-108207408D01*
X96763763Y-108146389D01*
X96568736Y-108115500D01*
X96568731Y-108115500D01*
X96371269Y-108115500D01*
X96371264Y-108115500D01*
X96176236Y-108146389D01*
X95988441Y-108207408D01*
X95988439Y-108207408D01*
X95988439Y-108207409D01*
X95929792Y-108237291D01*
X95812495Y-108297058D01*
X95652753Y-108413115D01*
X95513115Y-108552753D01*
X95397058Y-108712495D01*
X95307408Y-108888441D01*
X95246389Y-109076236D01*
X95215500Y-109271263D01*
X93797783Y-109271263D01*
X93796941Y-103568135D01*
X95215500Y-103568135D01*
X95215500Y-105171870D01*
X95215501Y-105171876D01*
X95221908Y-105231483D01*
X95272202Y-105366328D01*
X95272206Y-105366335D01*
X95358452Y-105481544D01*
X95358455Y-105481547D01*
X95473664Y-105567793D01*
X95473671Y-105567797D01*
X95608517Y-105618091D01*
X95608516Y-105618091D01*
X95615444Y-105618835D01*
X95668127Y-105624500D01*
X97271872Y-105624499D01*
X97331483Y-105618091D01*
X97466331Y-105567796D01*
X97581546Y-105481546D01*
X97667796Y-105366331D01*
X97718091Y-105231483D01*
X97724500Y-105171873D01*
X97724499Y-103568128D01*
X97718091Y-103508517D01*
X97718091Y-103508516D01*
X97680750Y-103408399D01*
X97667797Y-103373671D01*
X97667793Y-103373664D01*
X97665913Y-103371153D01*
X99099500Y-103371153D01*
X99099500Y-103528846D01*
X99130261Y-103683489D01*
X99130264Y-103683501D01*
X99190602Y-103829172D01*
X99190609Y-103829185D01*
X99278210Y-103960288D01*
X99278213Y-103960292D01*
X99389707Y-104071786D01*
X99389711Y-104071789D01*
X99520814Y-104159390D01*
X99520827Y-104159397D01*
X99666498Y-104219735D01*
X99666503Y-104219737D01*
X99821153Y-104250499D01*
X99821156Y-104250500D01*
X99821158Y-104250500D01*
X99978844Y-104250500D01*
X99978845Y-104250499D01*
X100133497Y-104219737D01*
X100279179Y-104159394D01*
X100410289Y-104071789D01*
X100521789Y-103960289D01*
X100609394Y-103829179D01*
X100669737Y-103683497D01*
X100700500Y-103528842D01*
X100700500Y-103371158D01*
X100700500Y-103371155D01*
X100700499Y-103371153D01*
X100678082Y-103258455D01*
X100669737Y-103216503D01*
X100651387Y-103172202D01*
X100609397Y-103070827D01*
X100609390Y-103070814D01*
X100521789Y-102939711D01*
X100521786Y-102939707D01*
X100410292Y-102828213D01*
X100410288Y-102828210D01*
X100279185Y-102740609D01*
X100279172Y-102740602D01*
X100133501Y-102680264D01*
X100133489Y-102680261D01*
X99978845Y-102649500D01*
X99978842Y-102649500D01*
X99821158Y-102649500D01*
X99821155Y-102649500D01*
X99666510Y-102680261D01*
X99666498Y-102680264D01*
X99520827Y-102740602D01*
X99520814Y-102740609D01*
X99389711Y-102828210D01*
X99389707Y-102828213D01*
X99278213Y-102939707D01*
X99278210Y-102939711D01*
X99190609Y-103070814D01*
X99190602Y-103070827D01*
X99130264Y-103216498D01*
X99130261Y-103216510D01*
X99099500Y-103371153D01*
X97665913Y-103371153D01*
X97581547Y-103258455D01*
X97581544Y-103258452D01*
X97466335Y-103172206D01*
X97466328Y-103172202D01*
X97331482Y-103121908D01*
X97331483Y-103121908D01*
X97271883Y-103115501D01*
X97271881Y-103115500D01*
X97271873Y-103115500D01*
X97271864Y-103115500D01*
X95668129Y-103115500D01*
X95668123Y-103115501D01*
X95608516Y-103121908D01*
X95473671Y-103172202D01*
X95473664Y-103172206D01*
X95358455Y-103258452D01*
X95358452Y-103258455D01*
X95272206Y-103373664D01*
X95272202Y-103373671D01*
X95221908Y-103508517D01*
X95219723Y-103528846D01*
X95215501Y-103568123D01*
X95215500Y-103568135D01*
X93796941Y-103568135D01*
X93796323Y-99378260D01*
X99206607Y-99378260D01*
X99206607Y-99535953D01*
X99237368Y-99690596D01*
X99237371Y-99690608D01*
X99297709Y-99836279D01*
X99297716Y-99836292D01*
X99385317Y-99967395D01*
X99385320Y-99967399D01*
X99496814Y-100078893D01*
X99496818Y-100078896D01*
X99627921Y-100166497D01*
X99627934Y-100166504D01*
X99748741Y-100216543D01*
X99773610Y-100226844D01*
X99928260Y-100257606D01*
X99928263Y-100257607D01*
X99928265Y-100257607D01*
X100085951Y-100257607D01*
X100085952Y-100257606D01*
X100240604Y-100226844D01*
X100386286Y-100166501D01*
X100517396Y-100078896D01*
X100628896Y-99967396D01*
X100716501Y-99836286D01*
X100776844Y-99690604D01*
X100807607Y-99535949D01*
X100807607Y-99471153D01*
X103499500Y-99471153D01*
X103499500Y-99628846D01*
X103530261Y-99783489D01*
X103530264Y-99783501D01*
X103590602Y-99929172D01*
X103590609Y-99929185D01*
X103678210Y-100060288D01*
X103678213Y-100060292D01*
X103789707Y-100171786D01*
X103789711Y-100171789D01*
X103920814Y-100259390D01*
X103920827Y-100259397D01*
X104066498Y-100319735D01*
X104066503Y-100319737D01*
X104216131Y-100349500D01*
X104221153Y-100350499D01*
X104221156Y-100350500D01*
X104221158Y-100350500D01*
X104378844Y-100350500D01*
X104378845Y-100350499D01*
X104533497Y-100319737D01*
X104679179Y-100259394D01*
X104810289Y-100171789D01*
X104921789Y-100060289D01*
X105009394Y-99929179D01*
X105069737Y-99783497D01*
X105100500Y-99628842D01*
X105100500Y-99471158D01*
X105100500Y-99471155D01*
X105100499Y-99471153D01*
X105082022Y-99378265D01*
X105069737Y-99316503D01*
X105031258Y-99223605D01*
X105009397Y-99170827D01*
X105009390Y-99170814D01*
X104921789Y-99039711D01*
X104921786Y-99039707D01*
X104810292Y-98928213D01*
X104810288Y-98928210D01*
X104679185Y-98840609D01*
X104679172Y-98840602D01*
X104533501Y-98780264D01*
X104533489Y-98780261D01*
X104378845Y-98749500D01*
X104378842Y-98749500D01*
X104221158Y-98749500D01*
X104221155Y-98749500D01*
X104066510Y-98780261D01*
X104066498Y-98780264D01*
X103920827Y-98840602D01*
X103920814Y-98840609D01*
X103789711Y-98928210D01*
X103789707Y-98928213D01*
X103678213Y-99039707D01*
X103678210Y-99039711D01*
X103590609Y-99170814D01*
X103590602Y-99170827D01*
X103530264Y-99316498D01*
X103530261Y-99316510D01*
X103499500Y-99471153D01*
X100807607Y-99471153D01*
X100807607Y-99378265D01*
X100807607Y-99378262D01*
X100807606Y-99378260D01*
X100776845Y-99223617D01*
X100776844Y-99223610D01*
X100754978Y-99170821D01*
X100716504Y-99077934D01*
X100716497Y-99077921D01*
X100628896Y-98946818D01*
X100628893Y-98946814D01*
X100517399Y-98835320D01*
X100517395Y-98835317D01*
X100386292Y-98747716D01*
X100386279Y-98747709D01*
X100240608Y-98687371D01*
X100240596Y-98687368D01*
X100085952Y-98656607D01*
X100085949Y-98656607D01*
X99928265Y-98656607D01*
X99928262Y-98656607D01*
X99773617Y-98687368D01*
X99773605Y-98687371D01*
X99627934Y-98747709D01*
X99627921Y-98747716D01*
X99496818Y-98835317D01*
X99496814Y-98835320D01*
X99385320Y-98946814D01*
X99385317Y-98946818D01*
X99297716Y-99077921D01*
X99297709Y-99077934D01*
X99237371Y-99223605D01*
X99237368Y-99223617D01*
X99206607Y-99378260D01*
X93796323Y-99378260D01*
X93796115Y-97971153D01*
X95399500Y-97971153D01*
X95399500Y-98128846D01*
X95430261Y-98283489D01*
X95430264Y-98283501D01*
X95490602Y-98429172D01*
X95490609Y-98429185D01*
X95578210Y-98560288D01*
X95578213Y-98560292D01*
X95689707Y-98671786D01*
X95689711Y-98671789D01*
X95820814Y-98759390D01*
X95820827Y-98759397D01*
X95958558Y-98816446D01*
X95966503Y-98819737D01*
X96121153Y-98850499D01*
X96121156Y-98850500D01*
X96121158Y-98850500D01*
X96278844Y-98850500D01*
X96278845Y-98850499D01*
X96433497Y-98819737D01*
X96579179Y-98759394D01*
X96710289Y-98671789D01*
X96821789Y-98560289D01*
X96909394Y-98429179D01*
X96969737Y-98283497D01*
X97000500Y-98128842D01*
X97000500Y-97971158D01*
X97000500Y-97971155D01*
X97000499Y-97971153D01*
X96976690Y-97851459D01*
X96969737Y-97816503D01*
X96941251Y-97747730D01*
X96909397Y-97670827D01*
X96909390Y-97670814D01*
X96821789Y-97539711D01*
X96821786Y-97539707D01*
X96710292Y-97428213D01*
X96710288Y-97428210D01*
X96579185Y-97340609D01*
X96579172Y-97340602D01*
X96433501Y-97280264D01*
X96433489Y-97280261D01*
X96278845Y-97249500D01*
X96278842Y-97249500D01*
X96121158Y-97249500D01*
X96121155Y-97249500D01*
X95966510Y-97280261D01*
X95966498Y-97280264D01*
X95820827Y-97340602D01*
X95820814Y-97340609D01*
X95689711Y-97428210D01*
X95689707Y-97428213D01*
X95578213Y-97539707D01*
X95578210Y-97539711D01*
X95490609Y-97670814D01*
X95490602Y-97670827D01*
X95430264Y-97816498D01*
X95430261Y-97816510D01*
X95399500Y-97971153D01*
X93796115Y-97971153D01*
X93795069Y-90884983D01*
X98344500Y-90884983D01*
X98344500Y-92085001D01*
X98344501Y-92085018D01*
X98355000Y-92187796D01*
X98355001Y-92187799D01*
X98410185Y-92354331D01*
X98410187Y-92354336D01*
X98420609Y-92371232D01*
X98502288Y-92503656D01*
X98626344Y-92627712D01*
X98775666Y-92719814D01*
X98858152Y-92747147D01*
X98915597Y-92786920D01*
X98942420Y-92851436D01*
X98930105Y-92920212D01*
X98920143Y-92931975D01*
X98919077Y-92945524D01*
X99598554Y-93625000D01*
X99592339Y-93625000D01*
X99490606Y-93652259D01*
X99399394Y-93704920D01*
X99324920Y-93779394D01*
X99272259Y-93870606D01*
X99245000Y-93972339D01*
X99245000Y-93978553D01*
X98565524Y-93299077D01*
X98565523Y-93299077D01*
X98533143Y-93343644D01*
X98440244Y-93525968D01*
X98377009Y-93720582D01*
X98345000Y-93922682D01*
X98345000Y-94127317D01*
X98377009Y-94329417D01*
X98440244Y-94524031D01*
X98533141Y-94706350D01*
X98533147Y-94706359D01*
X98565523Y-94750921D01*
X98565524Y-94750922D01*
X99245000Y-94071446D01*
X99245000Y-94077661D01*
X99272259Y-94179394D01*
X99324920Y-94270606D01*
X99399394Y-94345080D01*
X99490606Y-94397741D01*
X99592339Y-94425000D01*
X99598553Y-94425000D01*
X98919076Y-95104474D01*
X98963650Y-95136859D01*
X99145968Y-95229755D01*
X99340582Y-95292990D01*
X99542683Y-95325000D01*
X99747317Y-95325000D01*
X99949417Y-95292990D01*
X100144031Y-95229755D01*
X100326349Y-95136859D01*
X100370921Y-95104474D01*
X99691447Y-94425000D01*
X99697661Y-94425000D01*
X99799394Y-94397741D01*
X99890606Y-94345080D01*
X99965080Y-94270606D01*
X100017741Y-94179394D01*
X100045000Y-94077661D01*
X100045000Y-94071448D01*
X100724474Y-94750922D01*
X100724474Y-94750921D01*
X100756859Y-94706349D01*
X100849755Y-94524031D01*
X100912990Y-94329417D01*
X100945000Y-94127317D01*
X100945000Y-93922682D01*
X100912990Y-93720582D01*
X100849755Y-93525968D01*
X100756859Y-93343650D01*
X100724474Y-93299077D01*
X100724474Y-93299076D01*
X100045000Y-93978551D01*
X100045000Y-93972339D01*
X100017741Y-93870606D01*
X99965080Y-93779394D01*
X99890606Y-93704920D01*
X99799394Y-93652259D01*
X99697661Y-93625000D01*
X99691446Y-93625000D01*
X100370922Y-92945524D01*
X100369570Y-92928349D01*
X100355299Y-92909842D01*
X100349320Y-92840229D01*
X100381925Y-92778433D01*
X100431845Y-92747148D01*
X100514334Y-92719814D01*
X100663656Y-92627712D01*
X100787712Y-92503656D01*
X100879814Y-92354334D01*
X100934999Y-92187797D01*
X100945500Y-92085009D01*
X100945499Y-90884992D01*
X100934999Y-90782203D01*
X100879814Y-90615666D01*
X100787712Y-90466344D01*
X100663656Y-90342288D01*
X100514334Y-90250186D01*
X100347797Y-90195001D01*
X100347795Y-90195000D01*
X100245010Y-90184500D01*
X99044998Y-90184500D01*
X99044981Y-90184501D01*
X98942203Y-90195000D01*
X98942200Y-90195001D01*
X98775668Y-90250185D01*
X98775663Y-90250187D01*
X98626342Y-90342289D01*
X98502289Y-90466342D01*
X98410187Y-90615663D01*
X98410186Y-90615666D01*
X98355001Y-90782203D01*
X98355001Y-90782204D01*
X98355000Y-90782204D01*
X98344500Y-90884983D01*
X93795069Y-90884983D01*
X93793863Y-82718034D01*
X96819500Y-82718034D01*
X96819500Y-83061965D01*
X96853210Y-83404249D01*
X96920308Y-83741572D01*
X97020150Y-84070706D01*
X97151770Y-84388464D01*
X97151772Y-84388469D01*
X97313893Y-84691775D01*
X97313904Y-84691793D01*
X97504975Y-84977751D01*
X97504985Y-84977765D01*
X97723176Y-85243632D01*
X97966367Y-85486823D01*
X97966372Y-85486827D01*
X97966373Y-85486828D01*
X98232240Y-85705019D01*
X98518213Y-85896100D01*
X98518222Y-85896105D01*
X98518224Y-85896106D01*
X98821530Y-86058227D01*
X98821532Y-86058227D01*
X98821538Y-86058231D01*
X99139295Y-86189850D01*
X99468422Y-86289690D01*
X99805750Y-86356789D01*
X100148031Y-86390500D01*
X100148034Y-86390500D01*
X100491966Y-86390500D01*
X100491969Y-86390500D01*
X100834250Y-86356789D01*
X101171578Y-86289690D01*
X101500705Y-86189850D01*
X101818462Y-86058231D01*
X102121787Y-85896100D01*
X102407760Y-85705019D01*
X102673627Y-85486828D01*
X102916828Y-85243627D01*
X103135019Y-84977760D01*
X103326100Y-84691787D01*
X103488231Y-84388462D01*
X103619850Y-84070705D01*
X103719690Y-83741578D01*
X103786789Y-83404250D01*
X103820500Y-83061969D01*
X103820500Y-82718031D01*
X103786789Y-82375750D01*
X103719690Y-82038422D01*
X103619850Y-81709295D01*
X103488231Y-81391538D01*
X103326100Y-81088213D01*
X103135019Y-80802240D01*
X102916828Y-80536373D01*
X102916827Y-80536372D01*
X102916823Y-80536367D01*
X102673632Y-80293176D01*
X102407765Y-80074985D01*
X102407764Y-80074984D01*
X102407760Y-80074981D01*
X102121787Y-79883900D01*
X102121782Y-79883897D01*
X102121775Y-79883893D01*
X101818469Y-79721772D01*
X101818464Y-79721770D01*
X101500706Y-79590150D01*
X101171572Y-79490308D01*
X100834248Y-79423210D01*
X100834249Y-79423210D01*
X100576456Y-79397821D01*
X100491969Y-79389500D01*
X100148031Y-79389500D01*
X100069966Y-79397188D01*
X99805750Y-79423210D01*
X99468427Y-79490308D01*
X99139293Y-79590150D01*
X98821535Y-79721770D01*
X98821530Y-79721772D01*
X98518224Y-79883893D01*
X98518206Y-79883904D01*
X98232248Y-80074975D01*
X98232234Y-80074985D01*
X97966367Y-80293176D01*
X97723176Y-80536367D01*
X97504985Y-80802234D01*
X97504975Y-80802248D01*
X97313904Y-81088206D01*
X97313893Y-81088224D01*
X97151772Y-81391530D01*
X97151770Y-81391535D01*
X97020150Y-81709293D01*
X96920308Y-82038427D01*
X96853210Y-82375750D01*
X96819500Y-82718034D01*
X93793863Y-82718034D01*
X93792730Y-75045675D01*
X96674500Y-75045675D01*
X96674500Y-75254324D01*
X96707137Y-75460389D01*
X96771612Y-75658820D01*
X96822859Y-75759397D01*
X96866330Y-75844714D01*
X96988965Y-76013505D01*
X97136495Y-76161035D01*
X97305286Y-76283670D01*
X97393116Y-76328421D01*
X97491179Y-76378387D01*
X97491181Y-76378387D01*
X97491184Y-76378389D01*
X97597545Y-76412948D01*
X97689610Y-76442862D01*
X97895676Y-76475500D01*
X97895681Y-76475500D01*
X98104324Y-76475500D01*
X98310389Y-76442862D01*
X98508816Y-76378389D01*
X98694714Y-76283670D01*
X98863505Y-76161035D01*
X99011035Y-76013505D01*
X99133670Y-75844714D01*
X99228389Y-75658816D01*
X99292862Y-75460389D01*
X99297806Y-75429172D01*
X99325500Y-75254324D01*
X99325500Y-75045675D01*
X99292862Y-74839610D01*
X99241095Y-74680289D01*
X99228389Y-74641184D01*
X99228387Y-74641181D01*
X99228387Y-74641179D01*
X99133669Y-74455285D01*
X99114000Y-74428213D01*
X99011035Y-74286495D01*
X98863505Y-74138965D01*
X98694714Y-74016330D01*
X98677924Y-74007775D01*
X98508820Y-73921612D01*
X98310389Y-73857137D01*
X98104324Y-73824500D01*
X98104319Y-73824500D01*
X97895681Y-73824500D01*
X97895676Y-73824500D01*
X97689610Y-73857137D01*
X97491179Y-73921612D01*
X97305285Y-74016330D01*
X97136493Y-74138966D01*
X96988966Y-74286493D01*
X96866330Y-74455285D01*
X96771612Y-74641179D01*
X96707137Y-74839610D01*
X96674500Y-75045675D01*
X93792730Y-75045675D01*
X93792291Y-72071153D01*
X94199500Y-72071153D01*
X94199500Y-72228846D01*
X94230261Y-72383489D01*
X94230264Y-72383501D01*
X94290602Y-72529172D01*
X94290609Y-72529185D01*
X94378210Y-72660288D01*
X94378213Y-72660292D01*
X94489707Y-72771786D01*
X94489711Y-72771789D01*
X94620814Y-72859390D01*
X94620827Y-72859397D01*
X94766498Y-72919735D01*
X94766503Y-72919737D01*
X94921153Y-72950499D01*
X94921156Y-72950500D01*
X94921158Y-72950500D01*
X95078844Y-72950500D01*
X95078845Y-72950499D01*
X95233497Y-72919737D01*
X95379179Y-72859394D01*
X95510289Y-72771789D01*
X95621789Y-72660289D01*
X95709394Y-72529179D01*
X95769737Y-72383497D01*
X95800500Y-72228842D01*
X95800500Y-72071158D01*
X95800500Y-72071155D01*
X95800499Y-72071153D01*
X95782168Y-71978997D01*
X95769737Y-71916503D01*
X95747283Y-71862294D01*
X95709397Y-71770827D01*
X95709390Y-71770814D01*
X95621789Y-71639711D01*
X95621786Y-71639707D01*
X95510292Y-71528213D01*
X95510288Y-71528210D01*
X95379185Y-71440609D01*
X95379172Y-71440602D01*
X95233501Y-71380264D01*
X95233489Y-71380261D01*
X95078845Y-71349500D01*
X95078842Y-71349500D01*
X94921158Y-71349500D01*
X94921155Y-71349500D01*
X94766510Y-71380261D01*
X94766498Y-71380264D01*
X94620827Y-71440602D01*
X94620814Y-71440609D01*
X94489711Y-71528210D01*
X94489707Y-71528213D01*
X94378213Y-71639707D01*
X94378210Y-71639711D01*
X94290609Y-71770814D01*
X94290602Y-71770827D01*
X94230264Y-71916498D01*
X94230261Y-71916510D01*
X94199500Y-72071153D01*
X93792291Y-72071153D01*
X93790515Y-60045675D01*
X96674500Y-60045675D01*
X96674500Y-60254324D01*
X96707137Y-60460389D01*
X96771612Y-60658820D01*
X96815606Y-60745162D01*
X96866330Y-60844714D01*
X96988965Y-61013505D01*
X97136495Y-61161035D01*
X97305286Y-61283670D01*
X97393116Y-61328421D01*
X97491179Y-61378387D01*
X97491181Y-61378387D01*
X97491184Y-61378389D01*
X97597545Y-61412948D01*
X97689610Y-61442862D01*
X97895676Y-61475500D01*
X97895681Y-61475500D01*
X98104324Y-61475500D01*
X98310389Y-61442862D01*
X98508816Y-61378389D01*
X98694714Y-61283670D01*
X98863505Y-61161035D01*
X99011035Y-61013505D01*
X99133670Y-60844714D01*
X99228389Y-60658816D01*
X99292862Y-60460389D01*
X99294428Y-60450499D01*
X99325500Y-60254324D01*
X99325500Y-60045675D01*
X99303558Y-59907144D01*
X99292862Y-59839611D01*
X99292861Y-59839607D01*
X99292861Y-59839606D01*
X99281092Y-59803384D01*
X99270619Y-59771153D01*
X104399500Y-59771153D01*
X104399500Y-59928846D01*
X104430261Y-60083489D01*
X104430264Y-60083501D01*
X104490602Y-60229172D01*
X104490609Y-60229185D01*
X104578210Y-60360288D01*
X104578213Y-60360292D01*
X104689707Y-60471786D01*
X104689711Y-60471789D01*
X104820814Y-60559390D01*
X104820827Y-60559397D01*
X104966498Y-60619735D01*
X104966503Y-60619737D01*
X105121153Y-60650499D01*
X105121156Y-60650500D01*
X105121158Y-60650500D01*
X105278844Y-60650500D01*
X105278845Y-60650499D01*
X105433497Y-60619737D01*
X105579179Y-60559394D01*
X105710289Y-60471789D01*
X105723872Y-60458206D01*
X107719500Y-60458206D01*
X107719500Y-60821794D01*
X107730337Y-60931829D01*
X107755137Y-61183630D01*
X107826064Y-61540212D01*
X107826067Y-61540223D01*
X107931614Y-61888165D01*
X108070754Y-62224078D01*
X108070756Y-62224083D01*
X108242140Y-62544720D01*
X108242151Y-62544738D01*
X108444140Y-62847035D01*
X108444150Y-62847049D01*
X108674807Y-63128106D01*
X108931893Y-63385192D01*
X108931898Y-63385196D01*
X108931899Y-63385197D01*
X109212956Y-63615854D01*
X109515268Y-63817853D01*
X109515277Y-63817858D01*
X109515279Y-63817859D01*
X109835916Y-63989243D01*
X109835918Y-63989243D01*
X109835924Y-63989247D01*
X110171836Y-64128386D01*
X110519767Y-64233930D01*
X110519773Y-64233931D01*
X110519776Y-64233932D01*
X110519787Y-64233935D01*
X110876369Y-64304862D01*
X111238206Y-64340500D01*
X111238209Y-64340500D01*
X111601791Y-64340500D01*
X111601794Y-64340500D01*
X111963631Y-64304862D01*
X112033045Y-64291054D01*
X112320212Y-64233935D01*
X112320223Y-64233932D01*
X112320223Y-64233931D01*
X112320233Y-64233930D01*
X112668164Y-64128386D01*
X113004076Y-63989247D01*
X113324732Y-63817853D01*
X113544283Y-63671153D01*
X115899500Y-63671153D01*
X115899500Y-63828846D01*
X115930261Y-63983489D01*
X115930264Y-63983501D01*
X115990602Y-64129172D01*
X115990609Y-64129185D01*
X116078210Y-64260288D01*
X116078213Y-64260292D01*
X116189707Y-64371786D01*
X116189711Y-64371789D01*
X116320814Y-64459390D01*
X116320827Y-64459397D01*
X116466498Y-64519735D01*
X116466503Y-64519737D01*
X116621153Y-64550499D01*
X116621156Y-64550500D01*
X116621158Y-64550500D01*
X116778844Y-64550500D01*
X116778845Y-64550499D01*
X116933497Y-64519737D01*
X117079179Y-64459394D01*
X117210289Y-64371789D01*
X117321789Y-64260289D01*
X117409394Y-64129179D01*
X117409723Y-64128386D01*
X117438809Y-64058164D01*
X117469737Y-63983497D01*
X117500500Y-63828842D01*
X117500500Y-63671158D01*
X117500500Y-63671155D01*
X117500499Y-63671153D01*
X117480947Y-63572860D01*
X117469737Y-63516503D01*
X117447730Y-63463372D01*
X117409397Y-63370827D01*
X117409390Y-63370814D01*
X117321789Y-63239711D01*
X117321786Y-63239707D01*
X117210292Y-63128213D01*
X117210288Y-63128210D01*
X117079185Y-63040609D01*
X117079172Y-63040602D01*
X116933501Y-62980264D01*
X116933489Y-62980261D01*
X116778845Y-62949500D01*
X116778842Y-62949500D01*
X116621158Y-62949500D01*
X116621155Y-62949500D01*
X116466510Y-62980261D01*
X116466498Y-62980264D01*
X116320827Y-63040602D01*
X116320814Y-63040609D01*
X116189711Y-63128210D01*
X116189707Y-63128213D01*
X116078213Y-63239707D01*
X116078210Y-63239711D01*
X115990609Y-63370814D01*
X115990602Y-63370827D01*
X115930264Y-63516498D01*
X115930261Y-63516510D01*
X115899500Y-63671153D01*
X113544283Y-63671153D01*
X113627044Y-63615854D01*
X113908101Y-63385197D01*
X114165197Y-63128101D01*
X114395854Y-62847044D01*
X114513381Y-62671153D01*
X122799500Y-62671153D01*
X122799500Y-62828846D01*
X122830261Y-62983489D01*
X122830264Y-62983501D01*
X122890602Y-63129172D01*
X122890609Y-63129185D01*
X122978210Y-63260288D01*
X122978213Y-63260292D01*
X123089707Y-63371786D01*
X123089711Y-63371789D01*
X123220814Y-63459390D01*
X123220827Y-63459397D01*
X123358683Y-63516498D01*
X123366503Y-63519737D01*
X123521153Y-63550499D01*
X123521156Y-63550500D01*
X123521158Y-63550500D01*
X123678844Y-63550500D01*
X123678845Y-63550499D01*
X123833497Y-63519737D01*
X123969575Y-63463372D01*
X123979172Y-63459397D01*
X123979172Y-63459396D01*
X123979179Y-63459394D01*
X124110289Y-63371789D01*
X124221789Y-63260289D01*
X124309394Y-63129179D01*
X124369737Y-62983497D01*
X124400500Y-62828842D01*
X124400500Y-62671158D01*
X124400500Y-62671155D01*
X124400499Y-62671153D01*
X124375352Y-62544732D01*
X124369737Y-62516503D01*
X124369735Y-62516498D01*
X124309397Y-62370827D01*
X124309390Y-62370814D01*
X124221789Y-62239711D01*
X124221786Y-62239707D01*
X124110292Y-62128213D01*
X124110288Y-62128210D01*
X123979185Y-62040609D01*
X123979172Y-62040602D01*
X123833501Y-61980264D01*
X123833489Y-61980261D01*
X123678845Y-61949500D01*
X123678842Y-61949500D01*
X123521158Y-61949500D01*
X123521155Y-61949500D01*
X123366510Y-61980261D01*
X123366498Y-61980264D01*
X123220827Y-62040602D01*
X123220814Y-62040609D01*
X123089711Y-62128210D01*
X123089707Y-62128213D01*
X122978213Y-62239707D01*
X122978210Y-62239711D01*
X122890609Y-62370814D01*
X122890602Y-62370827D01*
X122830264Y-62516498D01*
X122830261Y-62516510D01*
X122799500Y-62671153D01*
X114513381Y-62671153D01*
X114597853Y-62544732D01*
X114769247Y-62224076D01*
X114908386Y-61888164D01*
X115013930Y-61540233D01*
X115013932Y-61540223D01*
X115013935Y-61540212D01*
X115084862Y-61183630D01*
X115120500Y-60821794D01*
X115120500Y-60458206D01*
X115084862Y-60096369D01*
X115082300Y-60083489D01*
X115013935Y-59739787D01*
X115013933Y-59739782D01*
X115013932Y-59739781D01*
X115013930Y-59739767D01*
X114962781Y-59571153D01*
X116099500Y-59571153D01*
X116099500Y-59728846D01*
X116130261Y-59883489D01*
X116130264Y-59883501D01*
X116190602Y-60029172D01*
X116190609Y-60029185D01*
X116278210Y-60160288D01*
X116278213Y-60160292D01*
X116389707Y-60271786D01*
X116389711Y-60271789D01*
X116520814Y-60359390D01*
X116520827Y-60359397D01*
X116666498Y-60419735D01*
X116666503Y-60419737D01*
X116821153Y-60450499D01*
X116821156Y-60450500D01*
X116821158Y-60450500D01*
X116978844Y-60450500D01*
X116978845Y-60450499D01*
X117133497Y-60419737D01*
X117279179Y-60359394D01*
X117410289Y-60271789D01*
X117521789Y-60160289D01*
X117609394Y-60029179D01*
X117669737Y-59883497D01*
X117700500Y-59728842D01*
X117700500Y-59571158D01*
X117700500Y-59571155D01*
X117700499Y-59571153D01*
X117680543Y-59470827D01*
X117669737Y-59416503D01*
X117637929Y-59339711D01*
X117609397Y-59270827D01*
X117609390Y-59270814D01*
X117521789Y-59139711D01*
X117521786Y-59139707D01*
X117410292Y-59028213D01*
X117410288Y-59028210D01*
X117279185Y-58940609D01*
X117279172Y-58940602D01*
X117133501Y-58880264D01*
X117133489Y-58880261D01*
X116978845Y-58849500D01*
X116978842Y-58849500D01*
X116821158Y-58849500D01*
X116821155Y-58849500D01*
X116666510Y-58880261D01*
X116666498Y-58880264D01*
X116520827Y-58940602D01*
X116520814Y-58940609D01*
X116389711Y-59028210D01*
X116389707Y-59028213D01*
X116278213Y-59139707D01*
X116278210Y-59139711D01*
X116190609Y-59270814D01*
X116190602Y-59270827D01*
X116130264Y-59416498D01*
X116130261Y-59416510D01*
X116099500Y-59571153D01*
X114962781Y-59571153D01*
X114908386Y-59391836D01*
X114769247Y-59055924D01*
X114765813Y-59049500D01*
X114597859Y-58735279D01*
X114597858Y-58735277D01*
X114597853Y-58735268D01*
X114500640Y-58589779D01*
X119099500Y-58589779D01*
X119099500Y-58810223D01*
X119106931Y-58857138D01*
X119133985Y-59027953D01*
X119202103Y-59237604D01*
X119202104Y-59237607D01*
X119230544Y-59293422D01*
X119293255Y-59416498D01*
X119302187Y-59434026D01*
X119431752Y-59612359D01*
X119431756Y-59612364D01*
X119587636Y-59768244D01*
X119587641Y-59768248D01*
X119685858Y-59839606D01*
X119765978Y-59897816D01*
X119894375Y-59963238D01*
X119962393Y-59997896D01*
X119962396Y-59997897D01*
X120058653Y-60029172D01*
X120172049Y-60066016D01*
X120389778Y-60100501D01*
X120389779Y-60100501D01*
X120610221Y-60100501D01*
X120610222Y-60100501D01*
X120827951Y-60066016D01*
X121037606Y-59997896D01*
X121234022Y-59897816D01*
X121412365Y-59768243D01*
X121568242Y-59612366D01*
X121697815Y-59434023D01*
X121797895Y-59237607D01*
X121866015Y-59027952D01*
X121900500Y-58810223D01*
X121900500Y-58589779D01*
X121866015Y-58372050D01*
X121831955Y-58267222D01*
X121797896Y-58162397D01*
X121797895Y-58162394D01*
X121763237Y-58094376D01*
X121697815Y-57965979D01*
X121646103Y-57894803D01*
X121568247Y-57787642D01*
X121568243Y-57787637D01*
X121412363Y-57631757D01*
X121412358Y-57631753D01*
X121234025Y-57502188D01*
X121234024Y-57502187D01*
X121234022Y-57502186D01*
X121155428Y-57462140D01*
X121037606Y-57402105D01*
X121037603Y-57402104D01*
X120827952Y-57333986D01*
X120719086Y-57316743D01*
X120610222Y-57299501D01*
X120389778Y-57299501D01*
X120317201Y-57310996D01*
X120172047Y-57333986D01*
X119962396Y-57402104D01*
X119962393Y-57402105D01*
X119765974Y-57502188D01*
X119587641Y-57631753D01*
X119587636Y-57631757D01*
X119431756Y-57787637D01*
X119431752Y-57787642D01*
X119302187Y-57965975D01*
X119202104Y-58162394D01*
X119202103Y-58162397D01*
X119133985Y-58372048D01*
X119133985Y-58372050D01*
X119099500Y-58589779D01*
X114500640Y-58589779D01*
X114395854Y-58432956D01*
X114165197Y-58151899D01*
X114165196Y-58151898D01*
X114165192Y-58151893D01*
X113908106Y-57894807D01*
X113627049Y-57664150D01*
X113627048Y-57664149D01*
X113627044Y-57664146D01*
X113324732Y-57462147D01*
X113324727Y-57462144D01*
X113324720Y-57462140D01*
X113004083Y-57290756D01*
X113004078Y-57290754D01*
X112668165Y-57151614D01*
X112320223Y-57046067D01*
X112320212Y-57046064D01*
X111963630Y-56975137D01*
X111691111Y-56948296D01*
X111601794Y-56939500D01*
X111238206Y-56939500D01*
X111155679Y-56947628D01*
X110876369Y-56975137D01*
X110519787Y-57046064D01*
X110519776Y-57046067D01*
X110171834Y-57151614D01*
X109835921Y-57290754D01*
X109835916Y-57290756D01*
X109515279Y-57462140D01*
X109515261Y-57462151D01*
X109212964Y-57664140D01*
X109212950Y-57664150D01*
X108931893Y-57894807D01*
X108674807Y-58151893D01*
X108444150Y-58432950D01*
X108444140Y-58432964D01*
X108242151Y-58735261D01*
X108242140Y-58735279D01*
X108070756Y-59055916D01*
X108070754Y-59055921D01*
X107931614Y-59391834D01*
X107826067Y-59739776D01*
X107826064Y-59739787D01*
X107755137Y-60096369D01*
X107729233Y-60359390D01*
X107719500Y-60458206D01*
X105723872Y-60458206D01*
X105762343Y-60419735D01*
X105814598Y-60367481D01*
X105821786Y-60360292D01*
X105821789Y-60360289D01*
X105909394Y-60229179D01*
X105969737Y-60083497D01*
X106000500Y-59928842D01*
X106000500Y-59771158D01*
X106000500Y-59771155D01*
X106000499Y-59771153D01*
X105992863Y-59732764D01*
X105969737Y-59616503D01*
X105950955Y-59571158D01*
X105909397Y-59470827D01*
X105909390Y-59470814D01*
X105821789Y-59339711D01*
X105821786Y-59339707D01*
X105710292Y-59228213D01*
X105710288Y-59228210D01*
X105579185Y-59140609D01*
X105579172Y-59140602D01*
X105433501Y-59080264D01*
X105433489Y-59080261D01*
X105278845Y-59049500D01*
X105278842Y-59049500D01*
X105121158Y-59049500D01*
X105121155Y-59049500D01*
X104966510Y-59080261D01*
X104966498Y-59080264D01*
X104820827Y-59140602D01*
X104820814Y-59140609D01*
X104689711Y-59228210D01*
X104689707Y-59228213D01*
X104578213Y-59339707D01*
X104578210Y-59339711D01*
X104490609Y-59470814D01*
X104490602Y-59470827D01*
X104430264Y-59616498D01*
X104430261Y-59616510D01*
X104399500Y-59771153D01*
X99270619Y-59771153D01*
X99228387Y-59641179D01*
X99141585Y-59470821D01*
X99133670Y-59455286D01*
X99011035Y-59286495D01*
X98863505Y-59138965D01*
X98694714Y-59016330D01*
X98508820Y-58921612D01*
X98310389Y-58857137D01*
X98104324Y-58824500D01*
X98104319Y-58824500D01*
X97895681Y-58824500D01*
X97895676Y-58824500D01*
X97689610Y-58857137D01*
X97491179Y-58921612D01*
X97305285Y-59016330D01*
X97136493Y-59138966D01*
X96988966Y-59286493D01*
X96866330Y-59455285D01*
X96771612Y-59641179D01*
X96707137Y-59839610D01*
X96674500Y-60045675D01*
X93790515Y-60045675D01*
X93790500Y-59942861D01*
X93790632Y-59937135D01*
X93791016Y-59928846D01*
X93807339Y-59575764D01*
X93808396Y-59564369D01*
X93810604Y-59548541D01*
X93857979Y-59208919D01*
X93860079Y-59197683D01*
X93942251Y-58848313D01*
X93945374Y-58837334D01*
X94059439Y-58497012D01*
X94063554Y-58486390D01*
X94208543Y-58158019D01*
X94213618Y-58147828D01*
X94388265Y-57834276D01*
X94394291Y-57824544D01*
X94400786Y-57815063D01*
X94597123Y-57528446D01*
X94604005Y-57519333D01*
X94833291Y-57243214D01*
X94840986Y-57234774D01*
X95094774Y-56980986D01*
X95103214Y-56973291D01*
X95379333Y-56744005D01*
X95388446Y-56737123D01*
X95684549Y-56534287D01*
X95694276Y-56528265D01*
X96007828Y-56353618D01*
X96018019Y-56348543D01*
X96346390Y-56203554D01*
X96357012Y-56199439D01*
X96697334Y-56085374D01*
X96708313Y-56082251D01*
X97057683Y-56000079D01*
X97068919Y-55997979D01*
X97424378Y-55948395D01*
X97435764Y-55947339D01*
X97797145Y-55930632D01*
X97802872Y-55930500D01*
X97865892Y-55930500D01*
X124724108Y-55930500D01*
X124787128Y-55930500D01*
X124792855Y-55930632D01*
G37*
%TD.AperFunction*%
%TA.AperFunction,Conductor*%
G36*
X128352268Y-64818716D02*
G01*
X128379362Y-64781426D01*
X128469542Y-64604438D01*
X128529164Y-64420940D01*
X128568601Y-64363265D01*
X128632960Y-64336066D01*
X128701806Y-64347980D01*
X128753282Y-64395224D01*
X128771095Y-64459215D01*
X128771748Y-66321091D01*
X128752087Y-66388137D01*
X128699299Y-66433910D01*
X128630144Y-66443878D01*
X128566578Y-66414875D01*
X128529817Y-66359452D01*
X128470006Y-66175370D01*
X128470005Y-66175367D01*
X128379786Y-65998305D01*
X128262981Y-65837536D01*
X128122464Y-65697019D01*
X127961694Y-65580213D01*
X127941130Y-65569735D01*
X127804669Y-65500204D01*
X127753873Y-65452229D01*
X127737078Y-65384408D01*
X127759616Y-65318273D01*
X127804670Y-65279234D01*
X127961422Y-65199365D01*
X127998716Y-65172269D01*
X127435942Y-64609495D01*
X127496081Y-64593382D01*
X127611920Y-64526503D01*
X127706502Y-64431921D01*
X127773381Y-64316082D01*
X127789495Y-64255943D01*
X128352268Y-64818716D01*
G37*
%TD.AperFunction*%
%TD*%
M02*
