%TF.GenerationSoftware,KiCad,Pcbnew,9.0.0*%
%TF.CreationDate,2025-07-10T14:22:37+03:00*%
%TF.ProjectId,easy home electronics,65617379-2068-46f6-9d65-20656c656374,rev?*%
%TF.SameCoordinates,Original*%
%TF.FileFunction,Copper,L3,Inr*%
%TF.FilePolarity,Positive*%
%FSLAX46Y46*%
G04 Gerber Fmt 4.6, Leading zero omitted, Abs format (unit mm)*
G04 Created by KiCad (PCBNEW 9.0.0) date 2025-07-10 14:22:37*
%MOMM*%
%LPD*%
G01*
G04 APERTURE LIST*
G04 Aperture macros list*
%AMRoundRect*
0 Rectangle with rounded corners*
0 $1 Rounding radius*
0 $2 $3 $4 $5 $6 $7 $8 $9 X,Y pos of 4 corners*
0 Add a 4 corners polygon primitive as box body*
4,1,4,$2,$3,$4,$5,$6,$7,$8,$9,$2,$3,0*
0 Add four circle primitives for the rounded corners*
1,1,$1+$1,$2,$3*
1,1,$1+$1,$4,$5*
1,1,$1+$1,$6,$7*
1,1,$1+$1,$8,$9*
0 Add four rect primitives between the rounded corners*
20,1,$1+$1,$2,$3,$4,$5,0*
20,1,$1+$1,$4,$5,$6,$7,0*
20,1,$1+$1,$6,$7,$8,$9,0*
20,1,$1+$1,$8,$9,$2,$3,0*%
G04 Aperture macros list end*
%TA.AperFunction,ComponentPad*%
%ADD10C,1.800000*%
%TD*%
%TA.AperFunction,ComponentPad*%
%ADD11C,2.000000*%
%TD*%
%TA.AperFunction,HeatsinkPad*%
%ADD12C,0.600000*%
%TD*%
%TA.AperFunction,ComponentPad*%
%ADD13C,0.800000*%
%TD*%
%TA.AperFunction,ComponentPad*%
%ADD14C,6.400000*%
%TD*%
%TA.AperFunction,ComponentPad*%
%ADD15C,0.700000*%
%TD*%
%TA.AperFunction,ComponentPad*%
%ADD16C,4.400000*%
%TD*%
%TA.AperFunction,ComponentPad*%
%ADD17RoundRect,0.250000X-0.550000X-0.550000X0.550000X-0.550000X0.550000X0.550000X-0.550000X0.550000X0*%
%TD*%
%TA.AperFunction,ComponentPad*%
%ADD18C,1.600000*%
%TD*%
%TA.AperFunction,ComponentPad*%
%ADD19C,1.524000*%
%TD*%
%TA.AperFunction,ComponentPad*%
%ADD20R,1.605000X1.605000*%
%TD*%
%TA.AperFunction,ComponentPad*%
%ADD21C,1.605000*%
%TD*%
%TA.AperFunction,ComponentPad*%
%ADD22C,6.000000*%
%TD*%
%TA.AperFunction,ComponentPad*%
%ADD23R,1.905000X2.000000*%
%TD*%
%TA.AperFunction,ComponentPad*%
%ADD24O,1.905000X2.000000*%
%TD*%
%TA.AperFunction,ComponentPad*%
%ADD25R,1.508000X1.508000*%
%TD*%
%TA.AperFunction,ComponentPad*%
%ADD26C,1.508000*%
%TD*%
%TA.AperFunction,ComponentPad*%
%ADD27O,2.500000X1.310000*%
%TD*%
%TA.AperFunction,ComponentPad*%
%ADD28C,1.650000*%
%TD*%
%TA.AperFunction,ComponentPad*%
%ADD29R,1.638300X1.638300*%
%TD*%
%TA.AperFunction,ComponentPad*%
%ADD30C,1.638300*%
%TD*%
%TA.AperFunction,ComponentPad*%
%ADD31R,1.240000X1.240000*%
%TD*%
%TA.AperFunction,ComponentPad*%
%ADD32C,1.240000*%
%TD*%
%TA.AperFunction,ViaPad*%
%ADD33C,0.600000*%
%TD*%
%TA.AperFunction,Conductor*%
%ADD34C,0.500000*%
%TD*%
%TA.AperFunction,Conductor*%
%ADD35C,1.000000*%
%TD*%
G04 APERTURE END LIST*
D10*
%TO.N,/N*%
%TO.C,RV1*%
X119100000Y-66200000D03*
%TO.N,Net-(PS1-AC1)*%
X120500000Y-58700001D03*
%TD*%
D11*
%TO.N,/button in*%
%TO.C,SW1*%
X26413806Y-112753806D03*
X31010000Y-117350000D03*
%TO.N,GND*%
X23231825Y-115935787D03*
X27828020Y-120531981D03*
%TD*%
D12*
%TO.N,GND*%
%TO.C,U2*%
X40110000Y-106299999D03*
X40110000Y-105200000D03*
X39560000Y-106850000D03*
X39560000Y-105750000D03*
X39560000Y-104650000D03*
X39010000Y-106300000D03*
X39010000Y-105199999D03*
X38460000Y-106850000D03*
X38460000Y-105750000D03*
X38460000Y-104650000D03*
X37910000Y-106299999D03*
X37910000Y-105200000D03*
%TD*%
D13*
%TO.N,N/C*%
%TO.C,REF\u002A\u002A*%
X109020000Y-60640000D03*
X109722944Y-58942944D03*
X109722944Y-62337056D03*
X111420000Y-58240000D03*
D14*
X111420000Y-60640000D03*
D13*
X111420000Y-63040000D03*
X113117056Y-58942944D03*
X113117056Y-62337056D03*
X113820000Y-60640000D03*
%TD*%
D15*
%TO.N,N/C*%
%TO.C,REF\u002A\u002A*%
X109760000Y-83040000D03*
X110243274Y-81873274D03*
X110243274Y-84206726D03*
X111410000Y-81390000D03*
D16*
X111410000Y-83040000D03*
D15*
X111410000Y-84690000D03*
X112576726Y-81873274D03*
X112576726Y-84206726D03*
X113060000Y-83040000D03*
%TD*%
D17*
%TO.N,Net-(R8-Pad2)*%
%TO.C,U4*%
X99645000Y-91485000D03*
D18*
%TO.N,GND_base*%
X99645000Y-94025000D03*
%TO.N,Net-(R12-Pad1)*%
X107265000Y-94025000D03*
%TO.N,V5V_base*%
X107265000Y-91485000D03*
%TD*%
D19*
%TO.N,V5V_base*%
%TO.C,J8*%
X127300000Y-69200000D03*
%TO.N,VCC_base*%
X127300000Y-66660000D03*
%TO.N,GND_base*%
X127300000Y-64120001D03*
%TD*%
D20*
%TO.N,/current_sense*%
%TO.C,J6*%
X117760000Y-119290000D03*
D21*
%TO.N,GND_base*%
X115220000Y-119290000D03*
%TO.N,/Volt_sense*%
X112680001Y-119290000D03*
%TO.N,GND_base*%
X110139999Y-119290000D03*
%TO.N,/switch_base*%
X107600000Y-119290000D03*
%TO.N,GND_base*%
X105060000Y-119290000D03*
%TD*%
D13*
%TO.N,/N*%
%TO.C,J2*%
X98070000Y-82890000D03*
X98729010Y-81299010D03*
X98729010Y-84480990D03*
X100320000Y-80640000D03*
D22*
X100320000Y-82890000D03*
D13*
X100320000Y-85140000D03*
X101910990Y-81299010D03*
X101910990Y-84480990D03*
X102570000Y-82890000D03*
%TD*%
D15*
%TO.N,N/C*%
%TO.C,REF\u002A\u002A*%
X123950000Y-59180000D03*
X124433274Y-58013274D03*
X124433274Y-60346726D03*
X125600000Y-57530000D03*
D16*
X125600000Y-59180000D03*
D15*
X125600000Y-60830000D03*
X126766726Y-58013274D03*
X126766726Y-60346726D03*
X127250000Y-59180000D03*
%TD*%
D23*
%TO.N,/L3*%
%TO.C,Q1*%
X119860000Y-93595000D03*
D24*
%TO.N,/L2*%
X122400000Y-93595000D03*
%TO.N,/triac in*%
X124939999Y-93595000D03*
%TD*%
D25*
%TO.N,Net-(PS1-AC1)*%
%TO.C,PS1*%
X96470000Y-104370000D03*
D26*
%TO.N,/N*%
X96470000Y-109370000D03*
%TO.N,GND_base*%
X125870000Y-99170000D03*
%TO.N,VCC_base*%
X125870000Y-114570000D03*
%TD*%
D27*
%TO.N,unconnected-(J3-SHIELD-PadSH1)_2*%
%TO.C,J3*%
X23395000Y-104485001D03*
%TO.N,unconnected-(J3-SHIELD-PadSH1)_4*%
X23395000Y-97974999D03*
%TD*%
D13*
%TO.N,/L*%
%TO.C,J1*%
X120320000Y-82890000D03*
X120979010Y-81299010D03*
X120979010Y-84480990D03*
X122570000Y-80640000D03*
D22*
X122570000Y-82890000D03*
D13*
X122570000Y-85140000D03*
X124160990Y-81299010D03*
X124160990Y-84480990D03*
X124820000Y-82890000D03*
%TD*%
D28*
%TO.N,Net-(PS1-AC1)*%
%TO.C,C4*%
X98000000Y-60150000D03*
%TO.N,/N*%
X98000000Y-75150000D03*
%TD*%
D29*
%TO.N,V5V*%
%TO.C,J7*%
X50957500Y-91590000D03*
D30*
%TO.N,VCC*%
X53497500Y-91590000D03*
%TO.N,GND*%
X56037500Y-91590000D03*
%TD*%
D31*
%TO.N,/I_sense*%
%TO.C,J5*%
X45642500Y-120220000D03*
D32*
%TO.N,GND*%
X43102500Y-120220000D03*
%TO.N,/V_sense*%
X40562501Y-120220000D03*
%TO.N,GND*%
X38022500Y-120220000D03*
%TO.N,/switch *%
X35482500Y-120220000D03*
%TO.N,GND*%
X32942500Y-120220000D03*
%TD*%
D33*
%TO.N,GND*%
X25000000Y-102950000D03*
%TO.N,VCC*%
X27100000Y-92450000D03*
X30100000Y-98630000D03*
X25100000Y-99650000D03*
%TO.N,/N*%
X125600000Y-101150000D03*
%TO.N,V5V*%
X32600000Y-95450000D03*
X36600000Y-100050000D03*
X27200000Y-107450000D03*
%TO.N,Net-(U6-FILTER)*%
X120700000Y-75050000D03*
X118400000Y-74170000D03*
%TO.N,/triac in*%
X115100000Y-91950000D03*
%TO.N,/button in*%
X25613008Y-107745479D03*
X33100000Y-103550000D03*
%TO.N,Net-(U2-IO7)*%
X45600000Y-104050000D03*
X51400000Y-100350000D03*
%TO.N,/switch *%
X43300000Y-107450000D03*
%TO.N,/in+*%
X109700000Y-106450000D03*
X111100000Y-68150000D03*
%TO.N,/in-*%
X112000000Y-70250000D03*
X109600000Y-92550000D03*
%TO.N,/V_isolation*%
X96200000Y-117050000D03*
X95000000Y-72150000D03*
X100007107Y-99457107D03*
X99900000Y-103450000D03*
%TO.N,/L_sense*%
X32800000Y-108650000D03*
%TO.N,/XTAL OUT*%
X29600000Y-110950000D03*
%TO.N,/I_sense*%
X43800000Y-115550000D03*
%TO.N,/V_sense*%
X42900000Y-110450000D03*
%TO.N,Net-(U2-IO8)*%
X49700000Y-103350000D03*
X54100000Y-105050000D03*
%TO.N,Net-(U2-IO9)*%
X50300000Y-99350000D03*
%TO.N,VCC_base*%
X126700000Y-71250000D03*
%TO.N,/current_sense*%
X116200000Y-67650000D03*
X116700000Y-63750000D03*
%TO.N,/switch_base*%
X96200000Y-98050000D03*
%TO.N,/Volt_sense*%
X100100000Y-113450000D03*
X100099348Y-110370000D03*
%TO.N,V5V_base*%
X97600000Y-64350000D03*
X105200000Y-101950000D03*
X105400000Y-114450000D03*
X124300000Y-69250000D03*
X107500000Y-89950000D03*
%TO.N,Net-(U5-OUT1)*%
X104300000Y-99550000D03*
X112000000Y-102950000D03*
X112800000Y-100150000D03*
%TO.N,GND_base*%
X117000000Y-75650000D03*
X122800000Y-68750000D03*
X99400000Y-95450000D03*
X111700000Y-108550000D03*
X113500000Y-98850000D03*
X102100000Y-114550000D03*
X102600000Y-76250000D03*
X106600000Y-110250000D03*
X115000000Y-96250000D03*
X118800000Y-71150000D03*
X100900000Y-104850000D03*
X114500000Y-116650000D03*
%TO.N,Net-(U6-VIOUT)*%
X123600000Y-62750000D03*
X116900000Y-59650000D03*
X120300000Y-74250000D03*
%TO.N,Net-(R23-Pad1)*%
X104500000Y-108450000D03*
X105200000Y-59850000D03*
X104200000Y-69450000D03*
%TD*%
D34*
%TO.N,Net-(U6-FILTER)*%
X119280000Y-75050000D02*
X118400000Y-74170000D01*
X120700000Y-75050000D02*
X119280000Y-75050000D01*
%TO.N,/triac in*%
X115100000Y-91950000D02*
X115100000Y-94350000D01*
X115100000Y-94350000D02*
X116500000Y-95750000D01*
X123300000Y-95750000D02*
X124939999Y-94110001D01*
X116500000Y-95750000D02*
X123300000Y-95750000D01*
X124939999Y-94110001D02*
X124939999Y-93595000D01*
%TO.N,/in+*%
X106800000Y-106450000D02*
X109700000Y-106450000D01*
X111100000Y-68150000D02*
X106400000Y-72850000D01*
X106400000Y-72850000D02*
X106400000Y-89250000D01*
X103000000Y-102650000D02*
X106800000Y-106450000D01*
X106400000Y-89250000D02*
X103000000Y-92650000D01*
X103000000Y-92650000D02*
X103000000Y-102650000D01*
%TO.N,/in-*%
X112000000Y-70250000D02*
X108400000Y-73850000D01*
X109600000Y-86150000D02*
X109600000Y-92550000D01*
X108400000Y-84950000D02*
X109600000Y-86150000D01*
X108400000Y-73850000D02*
X108400000Y-84950000D01*
%TO.N,/V_isolation*%
X100007107Y-99457107D02*
X100007107Y-103342893D01*
X95000000Y-72150000D02*
X95000000Y-94450000D01*
X95000000Y-115850000D02*
X95000000Y-94450000D01*
X95000000Y-94450000D02*
X100007107Y-99457107D01*
X100007107Y-103342893D02*
X99900000Y-103450000D01*
X96200000Y-117050000D02*
X95000000Y-115850000D01*
D35*
%TO.N,VCC_base*%
X125500000Y-68460000D02*
X127300000Y-66660000D01*
D34*
X127100000Y-94950000D02*
X127100000Y-71650000D01*
D35*
X126700000Y-71250000D02*
X125500000Y-70050000D01*
X125500000Y-70050000D02*
X125500000Y-68460000D01*
D34*
X125870000Y-114570000D02*
X123300000Y-112000000D01*
X123300000Y-112000000D02*
X123300000Y-98750000D01*
X127100000Y-71650000D02*
X126700000Y-71250000D01*
X123300000Y-98750000D02*
X127100000Y-94950000D01*
%TO.N,/current_sense*%
X116200000Y-67650000D02*
X116200000Y-64250000D01*
X116200000Y-67650000D02*
X115800000Y-68050000D01*
X113100000Y-89750000D02*
X113100000Y-96350000D01*
X117760000Y-101010000D02*
X117760000Y-119290000D01*
X115800000Y-87050000D02*
X113100000Y-89750000D01*
X116200000Y-64250000D02*
X116700000Y-63750000D01*
X115800000Y-68050000D02*
X115800000Y-87050000D01*
X113100000Y-96350000D02*
X117760000Y-101010000D01*
%TO.N,/switch_base*%
X107600000Y-117950000D02*
X106700000Y-117050000D01*
X106700000Y-117050000D02*
X106000000Y-116350000D01*
X106000000Y-116350000D02*
X100500000Y-116350000D01*
X98200000Y-100050000D02*
X96200000Y-98050000D01*
X98200000Y-113450000D02*
X98200000Y-100050000D01*
X98200000Y-114050000D02*
X98200000Y-113450000D01*
X100500000Y-116350000D02*
X98200000Y-114050000D01*
X107600000Y-119290000D02*
X107600000Y-117950000D01*
%TO.N,/Volt_sense*%
X100099348Y-113449348D02*
X100100000Y-113450000D01*
X112680001Y-119290000D02*
X112680001Y-116330001D01*
X100099348Y-110370000D02*
X100099348Y-113449348D01*
X112680001Y-116330001D02*
X109800000Y-113450000D01*
X109800000Y-113450000D02*
X100100000Y-113450000D01*
%TO.N,Net-(U5-OUT1)*%
X104900000Y-100150000D02*
X104300000Y-99550000D01*
X112800000Y-100150000D02*
X112800000Y-101450000D01*
X112800000Y-101450000D02*
X111900000Y-102350000D01*
X111900000Y-102850000D02*
X112000000Y-102950000D01*
X111900000Y-102350000D02*
X111900000Y-102850000D01*
X112800000Y-100150000D02*
X104900000Y-100150000D01*
%TO.N,Net-(U6-VIOUT)*%
X120300000Y-69550000D02*
X120300000Y-74250000D01*
X124100000Y-63250000D02*
X124100000Y-65750000D01*
X123600000Y-62750000D02*
X124100000Y-63250000D01*
X123600000Y-62750000D02*
X123500000Y-62850000D01*
X124100000Y-65750000D02*
X120300000Y-69550000D01*
X116900000Y-60950000D02*
X116900000Y-59650000D01*
X123500000Y-62850000D02*
X118800000Y-62850000D01*
X118800000Y-62850000D02*
X116900000Y-60950000D01*
%TO.N,Net-(R23-Pad1)*%
X105200000Y-88750000D02*
X102700000Y-91250000D01*
X101900000Y-92050000D02*
X101900000Y-103950000D01*
X102700000Y-91250000D02*
X101900000Y-92050000D01*
X104200000Y-71750000D02*
X105200000Y-72750000D01*
X104200000Y-69450000D02*
X105200000Y-68450000D01*
X105200000Y-72750000D02*
X105200000Y-88750000D01*
X101900000Y-103950000D02*
X104500000Y-106550000D01*
X105200000Y-68450000D02*
X105200000Y-59850000D01*
X104500000Y-106550000D02*
X104500000Y-108450000D01*
X104200000Y-69450000D02*
X104200000Y-71750000D01*
%TD*%
%TA.AperFunction,Conductor*%
%TO.N,GND*%
G36*
X49619558Y-90450185D02*
G01*
X49665313Y-90502989D01*
X49675257Y-90572147D01*
X49668701Y-90597833D01*
X49644258Y-90663366D01*
X49637851Y-90722966D01*
X49637850Y-90722985D01*
X49637850Y-92457020D01*
X49637851Y-92457026D01*
X49644258Y-92516633D01*
X49694552Y-92651478D01*
X49694556Y-92651485D01*
X49780802Y-92766694D01*
X49780805Y-92766697D01*
X49896014Y-92852943D01*
X49896021Y-92852947D01*
X50030867Y-92903241D01*
X50030866Y-92903241D01*
X50037794Y-92903985D01*
X50090477Y-92909650D01*
X51824522Y-92909649D01*
X51884133Y-92903241D01*
X52018981Y-92852946D01*
X52134196Y-92766696D01*
X52220446Y-92651481D01*
X52270741Y-92516633D01*
X52270999Y-92514224D01*
X52271722Y-92512479D01*
X52272524Y-92509088D01*
X52273073Y-92509217D01*
X52297734Y-92449675D01*
X52355125Y-92409824D01*
X52424950Y-92407327D01*
X52485040Y-92442977D01*
X52488581Y-92446947D01*
X52490922Y-92449688D01*
X52490927Y-92449695D01*
X52637805Y-92596573D01*
X52805852Y-92718666D01*
X52990930Y-92812968D01*
X52990932Y-92812969D01*
X53089705Y-92845062D01*
X53188481Y-92877156D01*
X53283499Y-92892205D01*
X53393636Y-92909650D01*
X53393641Y-92909650D01*
X53601364Y-92909650D01*
X53700821Y-92893896D01*
X53806519Y-92877156D01*
X54004070Y-92812968D01*
X54189148Y-92718666D01*
X54357195Y-92596573D01*
X54504073Y-92449695D01*
X54626166Y-92281648D01*
X54720468Y-92096570D01*
X54784656Y-91899019D01*
X54809747Y-91740602D01*
X54817150Y-91693864D01*
X54817150Y-91486135D01*
X54798246Y-91366786D01*
X54784656Y-91280981D01*
X54720468Y-91083430D01*
X54626166Y-90898352D01*
X54504073Y-90730305D01*
X54415949Y-90642181D01*
X54382464Y-90580858D01*
X54387448Y-90511166D01*
X54429320Y-90455233D01*
X54494784Y-90430816D01*
X54503630Y-90430500D01*
X57123746Y-90430500D01*
X57190785Y-90450185D01*
X57236540Y-90502989D01*
X57247746Y-90554455D01*
X57257517Y-117375124D01*
X57257385Y-117380896D01*
X57240722Y-117741322D01*
X57239665Y-117752726D01*
X57190211Y-118107250D01*
X57188106Y-118118509D01*
X57106154Y-118466950D01*
X57103020Y-118477966D01*
X56989262Y-118817374D01*
X56985124Y-118828054D01*
X56840542Y-119155502D01*
X56835437Y-119165755D01*
X56661254Y-119478472D01*
X56655225Y-119488210D01*
X56452925Y-119783532D01*
X56446022Y-119792672D01*
X56217347Y-120068054D01*
X56209631Y-120076518D01*
X55956518Y-120329631D01*
X55948054Y-120337347D01*
X55672672Y-120566022D01*
X55663532Y-120572925D01*
X55368210Y-120775225D01*
X55358472Y-120781254D01*
X55045755Y-120955437D01*
X55035502Y-120960542D01*
X54708054Y-121105124D01*
X54697374Y-121109262D01*
X54357966Y-121223020D01*
X54346950Y-121226154D01*
X53998509Y-121308106D01*
X53987250Y-121310211D01*
X53632726Y-121359665D01*
X53621322Y-121360722D01*
X53260874Y-121377387D01*
X53255147Y-121377519D01*
X46733040Y-121377519D01*
X46666001Y-121357834D01*
X46620246Y-121305030D01*
X46610302Y-121235872D01*
X46633773Y-121179208D01*
X46706296Y-121082331D01*
X46756591Y-120947483D01*
X46763000Y-120887873D01*
X46762999Y-119552128D01*
X46756591Y-119492517D01*
X46755668Y-119490043D01*
X46706297Y-119357671D01*
X46706293Y-119357664D01*
X46620047Y-119242455D01*
X46620044Y-119242452D01*
X46504835Y-119156206D01*
X46504828Y-119156202D01*
X46369982Y-119105908D01*
X46369983Y-119105908D01*
X46310383Y-119099501D01*
X46310381Y-119099500D01*
X46310373Y-119099500D01*
X46310364Y-119099500D01*
X44974629Y-119099500D01*
X44974623Y-119099501D01*
X44915016Y-119105908D01*
X44780171Y-119156202D01*
X44780164Y-119156206D01*
X44664955Y-119242452D01*
X44664952Y-119242455D01*
X44578706Y-119357664D01*
X44578702Y-119357671D01*
X44528408Y-119492517D01*
X44522001Y-119552116D01*
X44522001Y-119552123D01*
X44522000Y-119552135D01*
X44522000Y-120887870D01*
X44522001Y-120887876D01*
X44528408Y-120947483D01*
X44578702Y-121082328D01*
X44578704Y-121082331D01*
X44651226Y-121179208D01*
X44675644Y-121244672D01*
X44660793Y-121312945D01*
X44611388Y-121362351D01*
X44551960Y-121377519D01*
X41257255Y-121377519D01*
X41190216Y-121357834D01*
X41144461Y-121305030D01*
X41134517Y-121235872D01*
X41163542Y-121172316D01*
X41184369Y-121153201D01*
X41292458Y-121074670D01*
X41417171Y-120949957D01*
X41520839Y-120807270D01*
X41600909Y-120650123D01*
X41655411Y-120482384D01*
X41683001Y-120308190D01*
X41683001Y-120131809D01*
X41655411Y-119957615D01*
X41600907Y-119789872D01*
X41520838Y-119632729D01*
X41462283Y-119552135D01*
X41417171Y-119490043D01*
X41292458Y-119365330D01*
X41149771Y-119261662D01*
X41112073Y-119242454D01*
X40992628Y-119181593D01*
X40824885Y-119127089D01*
X40650691Y-119099500D01*
X40650686Y-119099500D01*
X40474316Y-119099500D01*
X40474311Y-119099500D01*
X40300116Y-119127089D01*
X40132373Y-119181593D01*
X39975230Y-119261662D01*
X39832541Y-119365332D01*
X39707833Y-119490040D01*
X39604163Y-119632729D01*
X39524094Y-119789872D01*
X39469590Y-119957615D01*
X39442001Y-120131809D01*
X39442001Y-120308190D01*
X39469590Y-120482384D01*
X39524094Y-120650127D01*
X39586986Y-120773559D01*
X39604163Y-120807270D01*
X39707831Y-120949957D01*
X39832544Y-121074670D01*
X39940633Y-121153201D01*
X39983298Y-121208531D01*
X39989277Y-121278145D01*
X39956671Y-121339939D01*
X39895832Y-121374297D01*
X39867747Y-121377519D01*
X36177254Y-121377519D01*
X36110215Y-121357834D01*
X36064460Y-121305030D01*
X36054516Y-121235872D01*
X36083541Y-121172316D01*
X36104368Y-121153201D01*
X36212457Y-121074670D01*
X36337170Y-120949957D01*
X36440838Y-120807270D01*
X36520908Y-120650123D01*
X36575410Y-120482384D01*
X36603000Y-120308190D01*
X36603000Y-120131809D01*
X36575410Y-119957615D01*
X36520906Y-119789872D01*
X36440837Y-119632729D01*
X36382282Y-119552135D01*
X36337170Y-119490043D01*
X36212457Y-119365330D01*
X36069770Y-119261662D01*
X36032072Y-119242454D01*
X35912627Y-119181593D01*
X35744884Y-119127089D01*
X35570690Y-119099500D01*
X35570685Y-119099500D01*
X35394315Y-119099500D01*
X35394310Y-119099500D01*
X35220115Y-119127089D01*
X35052372Y-119181593D01*
X34895229Y-119261662D01*
X34752540Y-119365332D01*
X34627832Y-119490040D01*
X34524162Y-119632729D01*
X34444093Y-119789872D01*
X34389589Y-119957615D01*
X34362000Y-120131809D01*
X34362000Y-120308190D01*
X34389589Y-120482384D01*
X34444093Y-120650127D01*
X34506985Y-120773559D01*
X34524162Y-120807270D01*
X34627830Y-120949957D01*
X34752543Y-121074670D01*
X34860632Y-121153201D01*
X34903297Y-121208531D01*
X34909276Y-121278145D01*
X34876670Y-121339939D01*
X34815831Y-121374297D01*
X34787746Y-121377519D01*
X26270881Y-121377519D01*
X26265146Y-121377386D01*
X25904213Y-121360674D01*
X25892793Y-121359615D01*
X25537765Y-121310020D01*
X25526491Y-121307909D01*
X25177586Y-121225727D01*
X25166555Y-121222584D01*
X24826725Y-121108511D01*
X24816032Y-121104362D01*
X24488201Y-120959380D01*
X24477937Y-120954261D01*
X24164898Y-120779605D01*
X24155151Y-120773559D01*
X23859601Y-120570733D01*
X23850454Y-120563813D01*
X23574897Y-120334536D01*
X23566429Y-120326800D01*
X23313241Y-120073049D01*
X23305524Y-120064564D01*
X23076860Y-119788498D01*
X23069960Y-119779335D01*
X22867792Y-119483334D01*
X22861768Y-119473574D01*
X22797437Y-119357669D01*
X22687802Y-119160138D01*
X22682716Y-119149884D01*
X22538452Y-118821707D01*
X22534337Y-118811030D01*
X22421013Y-118470928D01*
X22417901Y-118459916D01*
X22336486Y-118110791D01*
X22334403Y-118099521D01*
X22310556Y-117925996D01*
X22285600Y-117744399D01*
X22284567Y-117733000D01*
X22268652Y-117371887D01*
X22268557Y-117368841D01*
X22268532Y-117367540D01*
X22268675Y-117303239D01*
X22267219Y-117297759D01*
X22266964Y-117284200D01*
X22267068Y-117283817D01*
X22266942Y-117281865D01*
X22266948Y-117231902D01*
X29509500Y-117231902D01*
X29509500Y-117468097D01*
X29546446Y-117701368D01*
X29619433Y-117925996D01*
X29713596Y-118110800D01*
X29726657Y-118136433D01*
X29865483Y-118327510D01*
X30032490Y-118494517D01*
X30223567Y-118633343D01*
X30322991Y-118684002D01*
X30434003Y-118740566D01*
X30434005Y-118740566D01*
X30434008Y-118740568D01*
X30554412Y-118779689D01*
X30658631Y-118813553D01*
X30891903Y-118850500D01*
X30891908Y-118850500D01*
X31128097Y-118850500D01*
X31361368Y-118813553D01*
X31411192Y-118797364D01*
X31585992Y-118740568D01*
X31796433Y-118633343D01*
X31987510Y-118494517D01*
X32154517Y-118327510D01*
X32293343Y-118136433D01*
X32400568Y-117925992D01*
X32473553Y-117701368D01*
X32493723Y-117574021D01*
X32510500Y-117468097D01*
X32510500Y-117231902D01*
X32473553Y-116998631D01*
X32400566Y-116774003D01*
X32293342Y-116563566D01*
X32154517Y-116372490D01*
X31987510Y-116205483D01*
X31796433Y-116066657D01*
X31783933Y-116060288D01*
X31585996Y-115959433D01*
X31361368Y-115886446D01*
X31128097Y-115849500D01*
X31128092Y-115849500D01*
X30891908Y-115849500D01*
X30891903Y-115849500D01*
X30658631Y-115886446D01*
X30434003Y-115959433D01*
X30223566Y-116066657D01*
X30114550Y-116145862D01*
X30032490Y-116205483D01*
X30032488Y-116205485D01*
X30032487Y-116205485D01*
X29865485Y-116372487D01*
X29865485Y-116372488D01*
X29865483Y-116372490D01*
X29805862Y-116454550D01*
X29726657Y-116563566D01*
X29619433Y-116774003D01*
X29546446Y-116998631D01*
X29509500Y-117231902D01*
X22266948Y-117231902D01*
X22267177Y-115471153D01*
X42999500Y-115471153D01*
X42999500Y-115628846D01*
X43030261Y-115783489D01*
X43030264Y-115783501D01*
X43090602Y-115929172D01*
X43090609Y-115929185D01*
X43178210Y-116060288D01*
X43178213Y-116060292D01*
X43289707Y-116171786D01*
X43289711Y-116171789D01*
X43420814Y-116259390D01*
X43420827Y-116259397D01*
X43566498Y-116319735D01*
X43566503Y-116319737D01*
X43721153Y-116350499D01*
X43721156Y-116350500D01*
X43721158Y-116350500D01*
X43878844Y-116350500D01*
X43878845Y-116350499D01*
X44033497Y-116319737D01*
X44179179Y-116259394D01*
X44310289Y-116171789D01*
X44421789Y-116060289D01*
X44509394Y-115929179D01*
X44569737Y-115783497D01*
X44600500Y-115628842D01*
X44600500Y-115471158D01*
X44600500Y-115471155D01*
X44600499Y-115471153D01*
X44569738Y-115316510D01*
X44569737Y-115316503D01*
X44569735Y-115316498D01*
X44509397Y-115170827D01*
X44509390Y-115170814D01*
X44421789Y-115039711D01*
X44421786Y-115039707D01*
X44310292Y-114928213D01*
X44310288Y-114928210D01*
X44179185Y-114840609D01*
X44179172Y-114840602D01*
X44033501Y-114780264D01*
X44033489Y-114780261D01*
X43878845Y-114749500D01*
X43878842Y-114749500D01*
X43721158Y-114749500D01*
X43721155Y-114749500D01*
X43566510Y-114780261D01*
X43566498Y-114780264D01*
X43420827Y-114840602D01*
X43420814Y-114840609D01*
X43289711Y-114928210D01*
X43289707Y-114928213D01*
X43178213Y-115039707D01*
X43178210Y-115039711D01*
X43090609Y-115170814D01*
X43090602Y-115170827D01*
X43030264Y-115316498D01*
X43030261Y-115316510D01*
X42999500Y-115471153D01*
X22267177Y-115471153D01*
X22267546Y-112635708D01*
X24913306Y-112635708D01*
X24913306Y-112871903D01*
X24950252Y-113105174D01*
X25023239Y-113329802D01*
X25130463Y-113540239D01*
X25269289Y-113731316D01*
X25436296Y-113898323D01*
X25627373Y-114037149D01*
X25726797Y-114087808D01*
X25837809Y-114144372D01*
X25837811Y-114144372D01*
X25837814Y-114144374D01*
X25958218Y-114183495D01*
X26062437Y-114217359D01*
X26295709Y-114254306D01*
X26295714Y-114254306D01*
X26531903Y-114254306D01*
X26765174Y-114217359D01*
X26989798Y-114144374D01*
X27200239Y-114037149D01*
X27391316Y-113898323D01*
X27558323Y-113731316D01*
X27697149Y-113540239D01*
X27804374Y-113329798D01*
X27877359Y-113105174D01*
X27914306Y-112871903D01*
X27914306Y-112635708D01*
X27877359Y-112402437D01*
X27804372Y-112177809D01*
X27697148Y-111967372D01*
X27558323Y-111776296D01*
X27391316Y-111609289D01*
X27200239Y-111470463D01*
X27180277Y-111460292D01*
X26989802Y-111363239D01*
X26765174Y-111290252D01*
X26531903Y-111253306D01*
X26531898Y-111253306D01*
X26295714Y-111253306D01*
X26295709Y-111253306D01*
X26062437Y-111290252D01*
X25837809Y-111363239D01*
X25627372Y-111470463D01*
X25518356Y-111549668D01*
X25436296Y-111609289D01*
X25436294Y-111609291D01*
X25436293Y-111609291D01*
X25269291Y-111776293D01*
X25269291Y-111776294D01*
X25269289Y-111776296D01*
X25209668Y-111858356D01*
X25130463Y-111967372D01*
X25023239Y-112177809D01*
X24950252Y-112402437D01*
X24913306Y-112635708D01*
X22267546Y-112635708D01*
X22267776Y-110871153D01*
X28799500Y-110871153D01*
X28799500Y-111028846D01*
X28830261Y-111183489D01*
X28830264Y-111183501D01*
X28890602Y-111329172D01*
X28890609Y-111329185D01*
X28978210Y-111460288D01*
X28978213Y-111460292D01*
X29089707Y-111571786D01*
X29089711Y-111571789D01*
X29220814Y-111659390D01*
X29220827Y-111659397D01*
X29366498Y-111719735D01*
X29366503Y-111719737D01*
X29521153Y-111750499D01*
X29521156Y-111750500D01*
X29521158Y-111750500D01*
X29678844Y-111750500D01*
X29678845Y-111750499D01*
X29833497Y-111719737D01*
X29979179Y-111659394D01*
X30110289Y-111571789D01*
X30221789Y-111460289D01*
X30309394Y-111329179D01*
X30369737Y-111183497D01*
X30400500Y-111028842D01*
X30400500Y-110871158D01*
X30400500Y-110871155D01*
X30400499Y-110871153D01*
X30369738Y-110716510D01*
X30369737Y-110716503D01*
X30356062Y-110683489D01*
X30309397Y-110570827D01*
X30309390Y-110570814D01*
X30221790Y-110439712D01*
X30221784Y-110439705D01*
X30153232Y-110371153D01*
X42099500Y-110371153D01*
X42099500Y-110528846D01*
X42130261Y-110683489D01*
X42130264Y-110683501D01*
X42190602Y-110829172D01*
X42190609Y-110829185D01*
X42278210Y-110960288D01*
X42278213Y-110960292D01*
X42389707Y-111071786D01*
X42389711Y-111071789D01*
X42520814Y-111159390D01*
X42520827Y-111159397D01*
X42666498Y-111219735D01*
X42666503Y-111219737D01*
X42821153Y-111250499D01*
X42821156Y-111250500D01*
X42821158Y-111250500D01*
X42978844Y-111250500D01*
X42978845Y-111250499D01*
X43133497Y-111219737D01*
X43279179Y-111159394D01*
X43410289Y-111071789D01*
X43521789Y-110960289D01*
X43609394Y-110829179D01*
X43669737Y-110683497D01*
X43700500Y-110528842D01*
X43700500Y-110371158D01*
X43700500Y-110371155D01*
X43700499Y-110371153D01*
X43674531Y-110240606D01*
X43669737Y-110216503D01*
X43669735Y-110216498D01*
X43609397Y-110070827D01*
X43609390Y-110070814D01*
X43521789Y-109939711D01*
X43521786Y-109939707D01*
X43410292Y-109828213D01*
X43410288Y-109828210D01*
X43279185Y-109740609D01*
X43279172Y-109740602D01*
X43133501Y-109680264D01*
X43133489Y-109680261D01*
X42978845Y-109649500D01*
X42978842Y-109649500D01*
X42821158Y-109649500D01*
X42821155Y-109649500D01*
X42666510Y-109680261D01*
X42666498Y-109680264D01*
X42520827Y-109740602D01*
X42520814Y-109740609D01*
X42389711Y-109828210D01*
X42389707Y-109828213D01*
X42278213Y-109939707D01*
X42278210Y-109939711D01*
X42190609Y-110070814D01*
X42190602Y-110070827D01*
X42130264Y-110216498D01*
X42130261Y-110216510D01*
X42099500Y-110371153D01*
X30153232Y-110371153D01*
X30110292Y-110328213D01*
X30110288Y-110328210D01*
X29979185Y-110240609D01*
X29979172Y-110240602D01*
X29833501Y-110180264D01*
X29833489Y-110180261D01*
X29678845Y-110149500D01*
X29678842Y-110149500D01*
X29521158Y-110149500D01*
X29521155Y-110149500D01*
X29366510Y-110180261D01*
X29366498Y-110180264D01*
X29220827Y-110240602D01*
X29220814Y-110240609D01*
X29089711Y-110328210D01*
X29089707Y-110328213D01*
X28978213Y-110439707D01*
X28978210Y-110439711D01*
X28890609Y-110570814D01*
X28890602Y-110570827D01*
X28830264Y-110716498D01*
X28830261Y-110716510D01*
X28799500Y-110871153D01*
X22267776Y-110871153D01*
X22268075Y-108571153D01*
X31999500Y-108571153D01*
X31999500Y-108728846D01*
X32030261Y-108883489D01*
X32030264Y-108883501D01*
X32090602Y-109029172D01*
X32090609Y-109029185D01*
X32178210Y-109160288D01*
X32178213Y-109160292D01*
X32289707Y-109271786D01*
X32289711Y-109271789D01*
X32420814Y-109359390D01*
X32420827Y-109359397D01*
X32566498Y-109419735D01*
X32566503Y-109419737D01*
X32721153Y-109450499D01*
X32721156Y-109450500D01*
X32721158Y-109450500D01*
X32878844Y-109450500D01*
X32878845Y-109450499D01*
X33033497Y-109419737D01*
X33179179Y-109359394D01*
X33310289Y-109271789D01*
X33421789Y-109160289D01*
X33509394Y-109029179D01*
X33569737Y-108883497D01*
X33600500Y-108728842D01*
X33600500Y-108571158D01*
X33600500Y-108571155D01*
X33600499Y-108571153D01*
X33569737Y-108416503D01*
X33569735Y-108416498D01*
X33509397Y-108270827D01*
X33509390Y-108270814D01*
X33421789Y-108139711D01*
X33421786Y-108139707D01*
X33310292Y-108028213D01*
X33310288Y-108028210D01*
X33179185Y-107940609D01*
X33179172Y-107940602D01*
X33033501Y-107880264D01*
X33033489Y-107880261D01*
X32878845Y-107849500D01*
X32878842Y-107849500D01*
X32721158Y-107849500D01*
X32721155Y-107849500D01*
X32566510Y-107880261D01*
X32566498Y-107880264D01*
X32420827Y-107940602D01*
X32420814Y-107940609D01*
X32289711Y-108028210D01*
X32289707Y-108028213D01*
X32178213Y-108139707D01*
X32178210Y-108139711D01*
X32090609Y-108270814D01*
X32090602Y-108270827D01*
X32030264Y-108416498D01*
X32030261Y-108416510D01*
X31999500Y-108571153D01*
X22268075Y-108571153D01*
X22268193Y-107666632D01*
X24812508Y-107666632D01*
X24812508Y-107824325D01*
X24843269Y-107978968D01*
X24843272Y-107978980D01*
X24903610Y-108124651D01*
X24903617Y-108124664D01*
X24991218Y-108255767D01*
X24991221Y-108255771D01*
X25102715Y-108367265D01*
X25102719Y-108367268D01*
X25233822Y-108454869D01*
X25233835Y-108454876D01*
X25379506Y-108515214D01*
X25379511Y-108515216D01*
X25534161Y-108545978D01*
X25534164Y-108545979D01*
X25534166Y-108545979D01*
X25691852Y-108545979D01*
X25691853Y-108545978D01*
X25846505Y-108515216D01*
X25992187Y-108454873D01*
X26123297Y-108367268D01*
X26234797Y-108255768D01*
X26322402Y-108124658D01*
X26374451Y-107998997D01*
X26418290Y-107944597D01*
X26484584Y-107922531D01*
X26552283Y-107939809D01*
X26576692Y-107958771D01*
X26689707Y-108071786D01*
X26689711Y-108071789D01*
X26820814Y-108159390D01*
X26820827Y-108159397D01*
X26966498Y-108219735D01*
X26966503Y-108219737D01*
X27121153Y-108250499D01*
X27121156Y-108250500D01*
X27121158Y-108250500D01*
X27278844Y-108250500D01*
X27278845Y-108250499D01*
X27433497Y-108219737D01*
X27579179Y-108159394D01*
X27710289Y-108071789D01*
X27821789Y-107960289D01*
X27909394Y-107829179D01*
X27969737Y-107683497D01*
X28000500Y-107528842D01*
X28000500Y-107371158D01*
X28000500Y-107371155D01*
X28000499Y-107371153D01*
X42499500Y-107371153D01*
X42499500Y-107528846D01*
X42530261Y-107683489D01*
X42530264Y-107683501D01*
X42590602Y-107829172D01*
X42590609Y-107829185D01*
X42678210Y-107960288D01*
X42678213Y-107960292D01*
X42789707Y-108071786D01*
X42789711Y-108071789D01*
X42920814Y-108159390D01*
X42920827Y-108159397D01*
X43066498Y-108219735D01*
X43066503Y-108219737D01*
X43221153Y-108250499D01*
X43221156Y-108250500D01*
X43221158Y-108250500D01*
X43378844Y-108250500D01*
X43378845Y-108250499D01*
X43533497Y-108219737D01*
X43679179Y-108159394D01*
X43810289Y-108071789D01*
X43921789Y-107960289D01*
X44009394Y-107829179D01*
X44069737Y-107683497D01*
X44100500Y-107528842D01*
X44100500Y-107371158D01*
X44100500Y-107371155D01*
X44100499Y-107371153D01*
X44069738Y-107216510D01*
X44069737Y-107216503D01*
X44069735Y-107216498D01*
X44009397Y-107070827D01*
X44009390Y-107070814D01*
X43921789Y-106939711D01*
X43921786Y-106939707D01*
X43810292Y-106828213D01*
X43810288Y-106828210D01*
X43679185Y-106740609D01*
X43679172Y-106740602D01*
X43533501Y-106680264D01*
X43533489Y-106680261D01*
X43378845Y-106649500D01*
X43378842Y-106649500D01*
X43221158Y-106649500D01*
X43221155Y-106649500D01*
X43066510Y-106680261D01*
X43066498Y-106680264D01*
X42920827Y-106740602D01*
X42920814Y-106740609D01*
X42789711Y-106828210D01*
X42789707Y-106828213D01*
X42678213Y-106939707D01*
X42678210Y-106939711D01*
X42590609Y-107070814D01*
X42590602Y-107070827D01*
X42530264Y-107216498D01*
X42530261Y-107216510D01*
X42499500Y-107371153D01*
X28000499Y-107371153D01*
X27969738Y-107216510D01*
X27969737Y-107216503D01*
X27969735Y-107216498D01*
X27909397Y-107070827D01*
X27909390Y-107070814D01*
X27821789Y-106939711D01*
X27821786Y-106939707D01*
X27710292Y-106828213D01*
X27710288Y-106828210D01*
X27579185Y-106740609D01*
X27579172Y-106740602D01*
X27433501Y-106680264D01*
X27433489Y-106680261D01*
X27278845Y-106649500D01*
X27278842Y-106649500D01*
X27121158Y-106649500D01*
X27121155Y-106649500D01*
X26966510Y-106680261D01*
X26966498Y-106680264D01*
X26820827Y-106740602D01*
X26820814Y-106740609D01*
X26689711Y-106828210D01*
X26689707Y-106828213D01*
X26578213Y-106939707D01*
X26578210Y-106939711D01*
X26490609Y-107070814D01*
X26490602Y-107070827D01*
X26438557Y-107196478D01*
X26394716Y-107250882D01*
X26328422Y-107272947D01*
X26260723Y-107255668D01*
X26236315Y-107236707D01*
X26123300Y-107123692D01*
X26123296Y-107123689D01*
X25992193Y-107036088D01*
X25992180Y-107036081D01*
X25846509Y-106975743D01*
X25846497Y-106975740D01*
X25691853Y-106944979D01*
X25691850Y-106944979D01*
X25534166Y-106944979D01*
X25534163Y-106944979D01*
X25379518Y-106975740D01*
X25379506Y-106975743D01*
X25233835Y-107036081D01*
X25233822Y-107036088D01*
X25102719Y-107123689D01*
X25102715Y-107123692D01*
X24991221Y-107235186D01*
X24991218Y-107235190D01*
X24903617Y-107366293D01*
X24903610Y-107366306D01*
X24843272Y-107511977D01*
X24843269Y-107511989D01*
X24812508Y-107666632D01*
X22268193Y-107666632D01*
X22268449Y-105697906D01*
X22288142Y-105630872D01*
X22340952Y-105585124D01*
X22410112Y-105575189D01*
X22430757Y-105579991D01*
X22505205Y-105604181D01*
X22529419Y-105612049D01*
X22709055Y-105640501D01*
X22709060Y-105640501D01*
X24080945Y-105640501D01*
X24260580Y-105612049D01*
X24433558Y-105555845D01*
X24595614Y-105473273D01*
X24742758Y-105366367D01*
X24871366Y-105237759D01*
X24978272Y-105090615D01*
X25039141Y-104971153D01*
X53299500Y-104971153D01*
X53299500Y-105128846D01*
X53330261Y-105283489D01*
X53330264Y-105283501D01*
X53390602Y-105429172D01*
X53390609Y-105429185D01*
X53478210Y-105560288D01*
X53478213Y-105560292D01*
X53589707Y-105671786D01*
X53589711Y-105671789D01*
X53720814Y-105759390D01*
X53720827Y-105759397D01*
X53866498Y-105819735D01*
X53866503Y-105819737D01*
X54021153Y-105850499D01*
X54021156Y-105850500D01*
X54021158Y-105850500D01*
X54178844Y-105850500D01*
X54178845Y-105850499D01*
X54333497Y-105819737D01*
X54479179Y-105759394D01*
X54610289Y-105671789D01*
X54721789Y-105560289D01*
X54809394Y-105429179D01*
X54869737Y-105283497D01*
X54900500Y-105128842D01*
X54900500Y-104971158D01*
X54900500Y-104971155D01*
X54900499Y-104971153D01*
X54869738Y-104816510D01*
X54869737Y-104816503D01*
X54846080Y-104759390D01*
X54809397Y-104670827D01*
X54809390Y-104670814D01*
X54721789Y-104539711D01*
X54721786Y-104539707D01*
X54610292Y-104428213D01*
X54610288Y-104428210D01*
X54479185Y-104340609D01*
X54479172Y-104340602D01*
X54333501Y-104280264D01*
X54333489Y-104280261D01*
X54178845Y-104249500D01*
X54178842Y-104249500D01*
X54021158Y-104249500D01*
X54021155Y-104249500D01*
X53866510Y-104280261D01*
X53866498Y-104280264D01*
X53720827Y-104340602D01*
X53720814Y-104340609D01*
X53589711Y-104428210D01*
X53589707Y-104428213D01*
X53478213Y-104539707D01*
X53478210Y-104539711D01*
X53390609Y-104670814D01*
X53390602Y-104670827D01*
X53330264Y-104816498D01*
X53330261Y-104816510D01*
X53299500Y-104971153D01*
X25039141Y-104971153D01*
X25060844Y-104928559D01*
X25117048Y-104755581D01*
X25145500Y-104575946D01*
X25145500Y-104394055D01*
X25117048Y-104214420D01*
X25066967Y-104060288D01*
X25060844Y-104041443D01*
X25060842Y-104041440D01*
X25060842Y-104041438D01*
X25003640Y-103929175D01*
X24978272Y-103879387D01*
X24964396Y-103860288D01*
X24871371Y-103732249D01*
X24871367Y-103732244D01*
X24742756Y-103603633D01*
X24742751Y-103603629D01*
X24690111Y-103565384D01*
X24595617Y-103496731D01*
X24595616Y-103496730D01*
X24595614Y-103496729D01*
X24545419Y-103471153D01*
X32299500Y-103471153D01*
X32299500Y-103628846D01*
X32330261Y-103783489D01*
X32330264Y-103783501D01*
X32390602Y-103929172D01*
X32390609Y-103929185D01*
X32478210Y-104060288D01*
X32478213Y-104060292D01*
X32589707Y-104171786D01*
X32589711Y-104171789D01*
X32720814Y-104259390D01*
X32720827Y-104259397D01*
X32866498Y-104319735D01*
X32866503Y-104319737D01*
X33021153Y-104350499D01*
X33021156Y-104350500D01*
X33021158Y-104350500D01*
X33178844Y-104350500D01*
X33178845Y-104350499D01*
X33333497Y-104319737D01*
X33479179Y-104259394D01*
X33610289Y-104171789D01*
X33721789Y-104060289D01*
X33781348Y-103971153D01*
X44799500Y-103971153D01*
X44799500Y-104128846D01*
X44830261Y-104283489D01*
X44830264Y-104283501D01*
X44890602Y-104429172D01*
X44890609Y-104429185D01*
X44978210Y-104560288D01*
X44978213Y-104560292D01*
X45089707Y-104671786D01*
X45089711Y-104671789D01*
X45220814Y-104759390D01*
X45220827Y-104759397D01*
X45358683Y-104816498D01*
X45366503Y-104819737D01*
X45521153Y-104850499D01*
X45521156Y-104850500D01*
X45521158Y-104850500D01*
X45678844Y-104850500D01*
X45678845Y-104850499D01*
X45689179Y-104848443D01*
X45714287Y-104843450D01*
X45714292Y-104843449D01*
X45799800Y-104826439D01*
X45833497Y-104819737D01*
X45979179Y-104759394D01*
X46110289Y-104671789D01*
X46221789Y-104560289D01*
X46309394Y-104429179D01*
X46369737Y-104283497D01*
X46400500Y-104128842D01*
X46400500Y-103971158D01*
X46400500Y-103971155D01*
X46400499Y-103971153D01*
X46382245Y-103879387D01*
X46369737Y-103816503D01*
X46333569Y-103729185D01*
X46309397Y-103670827D01*
X46309390Y-103670814D01*
X46221789Y-103539711D01*
X46221786Y-103539707D01*
X46110292Y-103428213D01*
X46110288Y-103428210D01*
X46020429Y-103368168D01*
X45979185Y-103340609D01*
X45979172Y-103340602D01*
X45833501Y-103280264D01*
X45833489Y-103280261D01*
X45787701Y-103271153D01*
X48899500Y-103271153D01*
X48899500Y-103428846D01*
X48930261Y-103583489D01*
X48930264Y-103583501D01*
X48990602Y-103729172D01*
X48990609Y-103729185D01*
X49078210Y-103860288D01*
X49078213Y-103860292D01*
X49189707Y-103971786D01*
X49189711Y-103971789D01*
X49320814Y-104059390D01*
X49320827Y-104059397D01*
X49466498Y-104119735D01*
X49466503Y-104119737D01*
X49621153Y-104150499D01*
X49621156Y-104150500D01*
X49621158Y-104150500D01*
X49778844Y-104150500D01*
X49778845Y-104150499D01*
X49933497Y-104119737D01*
X50079179Y-104059394D01*
X50210289Y-103971789D01*
X50321789Y-103860289D01*
X50409394Y-103729179D01*
X50469737Y-103583497D01*
X50500500Y-103428842D01*
X50500500Y-103271158D01*
X50500500Y-103271155D01*
X50500499Y-103271153D01*
X50480543Y-103170827D01*
X50469737Y-103116503D01*
X50437929Y-103039711D01*
X50409397Y-102970827D01*
X50409390Y-102970814D01*
X50321789Y-102839711D01*
X50321786Y-102839707D01*
X50210292Y-102728213D01*
X50210288Y-102728210D01*
X50079185Y-102640609D01*
X50079172Y-102640602D01*
X49933501Y-102580264D01*
X49933489Y-102580261D01*
X49778845Y-102549500D01*
X49778842Y-102549500D01*
X49621158Y-102549500D01*
X49621155Y-102549500D01*
X49466510Y-102580261D01*
X49466498Y-102580264D01*
X49320827Y-102640602D01*
X49320814Y-102640609D01*
X49189711Y-102728210D01*
X49189707Y-102728213D01*
X49078213Y-102839707D01*
X49078210Y-102839711D01*
X48990609Y-102970814D01*
X48990602Y-102970827D01*
X48930264Y-103116498D01*
X48930261Y-103116510D01*
X48899500Y-103271153D01*
X45787701Y-103271153D01*
X45678845Y-103249500D01*
X45678842Y-103249500D01*
X45521158Y-103249500D01*
X45521155Y-103249500D01*
X45366510Y-103280261D01*
X45366498Y-103280264D01*
X45220827Y-103340602D01*
X45220814Y-103340609D01*
X45089711Y-103428210D01*
X45089707Y-103428213D01*
X44978213Y-103539707D01*
X44978210Y-103539711D01*
X44890609Y-103670814D01*
X44890602Y-103670827D01*
X44830264Y-103816498D01*
X44830261Y-103816510D01*
X44799500Y-103971153D01*
X33781348Y-103971153D01*
X33809394Y-103929179D01*
X33869737Y-103783497D01*
X33900500Y-103628842D01*
X33900500Y-103471158D01*
X33900500Y-103471155D01*
X33900499Y-103471153D01*
X33898050Y-103458842D01*
X33869737Y-103316503D01*
X33860051Y-103293118D01*
X33809397Y-103170827D01*
X33809390Y-103170814D01*
X33721789Y-103039711D01*
X33721786Y-103039707D01*
X33610292Y-102928213D01*
X33610288Y-102928210D01*
X33479185Y-102840609D01*
X33479172Y-102840602D01*
X33333501Y-102780264D01*
X33333489Y-102780261D01*
X33178845Y-102749500D01*
X33178842Y-102749500D01*
X33021158Y-102749500D01*
X33021155Y-102749500D01*
X32866510Y-102780261D01*
X32866498Y-102780264D01*
X32720827Y-102840602D01*
X32720814Y-102840609D01*
X32589711Y-102928210D01*
X32589707Y-102928213D01*
X32478213Y-103039707D01*
X32478210Y-103039711D01*
X32390609Y-103170814D01*
X32390602Y-103170827D01*
X32330264Y-103316498D01*
X32330261Y-103316510D01*
X32299500Y-103471153D01*
X24545419Y-103471153D01*
X24521257Y-103458842D01*
X24433562Y-103414158D01*
X24260580Y-103357952D01*
X24080945Y-103329501D01*
X24080940Y-103329501D01*
X22709060Y-103329501D01*
X22709055Y-103329501D01*
X22529418Y-103357953D01*
X22529415Y-103357953D01*
X22431083Y-103389904D01*
X22361242Y-103391899D01*
X22301409Y-103355819D01*
X22270581Y-103293118D01*
X22268765Y-103271957D01*
X22268859Y-102549500D01*
X22269295Y-99188179D01*
X22288988Y-99121145D01*
X22341798Y-99075397D01*
X22410958Y-99065462D01*
X22431604Y-99070264D01*
X22503069Y-99093485D01*
X22529419Y-99102047D01*
X22709055Y-99130499D01*
X22709060Y-99130499D01*
X24080944Y-99130499D01*
X24153842Y-99118952D01*
X24255861Y-99102794D01*
X24325152Y-99111748D01*
X24378604Y-99156744D01*
X24399244Y-99223495D01*
X24389819Y-99272718D01*
X24330263Y-99416503D01*
X24330261Y-99416510D01*
X24299500Y-99571153D01*
X24299500Y-99728846D01*
X24330261Y-99883489D01*
X24330264Y-99883501D01*
X24390602Y-100029172D01*
X24390609Y-100029185D01*
X24478210Y-100160288D01*
X24478213Y-100160292D01*
X24589707Y-100271786D01*
X24589711Y-100271789D01*
X24720814Y-100359390D01*
X24720827Y-100359397D01*
X24866498Y-100419735D01*
X24866503Y-100419737D01*
X25021153Y-100450499D01*
X25021156Y-100450500D01*
X25021158Y-100450500D01*
X25178844Y-100450500D01*
X25178845Y-100450499D01*
X25333497Y-100419737D01*
X25479179Y-100359394D01*
X25610289Y-100271789D01*
X25721789Y-100160289D01*
X25809394Y-100029179D01*
X25833429Y-99971153D01*
X35799500Y-99971153D01*
X35799500Y-100128846D01*
X35830261Y-100283489D01*
X35830264Y-100283501D01*
X35890602Y-100429172D01*
X35890609Y-100429185D01*
X35978210Y-100560288D01*
X35978213Y-100560292D01*
X36089707Y-100671786D01*
X36089711Y-100671789D01*
X36220814Y-100759390D01*
X36220827Y-100759397D01*
X36366498Y-100819735D01*
X36366503Y-100819737D01*
X36521153Y-100850499D01*
X36521156Y-100850500D01*
X36521158Y-100850500D01*
X36678844Y-100850500D01*
X36678845Y-100850499D01*
X36833497Y-100819737D01*
X36979179Y-100759394D01*
X37110289Y-100671789D01*
X37221789Y-100560289D01*
X37309394Y-100429179D01*
X37369737Y-100283497D01*
X37400500Y-100128842D01*
X37400500Y-99971158D01*
X37400500Y-99971155D01*
X37400499Y-99971153D01*
X37378447Y-99860292D01*
X37369737Y-99816503D01*
X37333569Y-99729185D01*
X37309397Y-99670827D01*
X37309390Y-99670814D01*
X37221789Y-99539711D01*
X37221786Y-99539707D01*
X37110292Y-99428213D01*
X37110288Y-99428210D01*
X37020429Y-99368168D01*
X36979185Y-99340609D01*
X36979172Y-99340602D01*
X36833501Y-99280264D01*
X36833489Y-99280261D01*
X36787701Y-99271153D01*
X49499500Y-99271153D01*
X49499500Y-99428846D01*
X49530261Y-99583489D01*
X49530264Y-99583501D01*
X49590602Y-99729172D01*
X49590609Y-99729185D01*
X49678210Y-99860288D01*
X49678213Y-99860292D01*
X49789707Y-99971786D01*
X49789711Y-99971789D01*
X49920814Y-100059390D01*
X49920827Y-100059397D01*
X50058683Y-100116498D01*
X50066503Y-100119737D01*
X50221153Y-100150499D01*
X50221156Y-100150500D01*
X50221158Y-100150500D01*
X50378843Y-100150500D01*
X50394677Y-100147350D01*
X50452048Y-100135938D01*
X50521638Y-100142165D01*
X50576816Y-100185027D01*
X50600061Y-100250916D01*
X50599643Y-100269697D01*
X50599500Y-100271150D01*
X50599500Y-100428846D01*
X50630261Y-100583489D01*
X50630264Y-100583501D01*
X50690602Y-100729172D01*
X50690609Y-100729185D01*
X50778210Y-100860288D01*
X50778213Y-100860292D01*
X50889707Y-100971786D01*
X50889711Y-100971789D01*
X51020814Y-101059390D01*
X51020827Y-101059397D01*
X51166498Y-101119735D01*
X51166503Y-101119737D01*
X51321153Y-101150499D01*
X51321156Y-101150500D01*
X51321158Y-101150500D01*
X51478844Y-101150500D01*
X51478845Y-101150499D01*
X51633497Y-101119737D01*
X51779179Y-101059394D01*
X51910289Y-100971789D01*
X52021789Y-100860289D01*
X52109394Y-100729179D01*
X52169737Y-100583497D01*
X52200500Y-100428842D01*
X52200500Y-100271158D01*
X52200500Y-100271155D01*
X52200499Y-100271153D01*
X52178447Y-100160292D01*
X52169737Y-100116503D01*
X52169735Y-100116498D01*
X52109397Y-99970827D01*
X52109390Y-99970814D01*
X52021789Y-99839711D01*
X52021786Y-99839707D01*
X51910292Y-99728213D01*
X51910288Y-99728210D01*
X51779185Y-99640609D01*
X51779172Y-99640602D01*
X51633501Y-99580264D01*
X51633489Y-99580261D01*
X51478845Y-99549500D01*
X51478842Y-99549500D01*
X51321158Y-99549500D01*
X51321153Y-99549500D01*
X51247951Y-99564061D01*
X51178360Y-99557834D01*
X51123182Y-99514971D01*
X51099938Y-99449081D01*
X51100358Y-99430285D01*
X51100500Y-99428843D01*
X51100500Y-99271155D01*
X51100499Y-99271153D01*
X51074353Y-99139711D01*
X51069737Y-99116503D01*
X51069735Y-99116498D01*
X51009397Y-98970827D01*
X51009390Y-98970814D01*
X50921789Y-98839711D01*
X50921786Y-98839707D01*
X50810292Y-98728213D01*
X50810288Y-98728210D01*
X50679185Y-98640609D01*
X50679172Y-98640602D01*
X50533501Y-98580264D01*
X50533489Y-98580261D01*
X50378845Y-98549500D01*
X50378842Y-98549500D01*
X50221158Y-98549500D01*
X50221155Y-98549500D01*
X50066510Y-98580261D01*
X50066498Y-98580264D01*
X49920827Y-98640602D01*
X49920814Y-98640609D01*
X49789711Y-98728210D01*
X49789707Y-98728213D01*
X49678213Y-98839707D01*
X49678210Y-98839711D01*
X49590609Y-98970814D01*
X49590602Y-98970827D01*
X49530264Y-99116498D01*
X49530261Y-99116510D01*
X49499500Y-99271153D01*
X36787701Y-99271153D01*
X36678845Y-99249500D01*
X36678842Y-99249500D01*
X36521158Y-99249500D01*
X36521155Y-99249500D01*
X36366510Y-99280261D01*
X36366498Y-99280264D01*
X36220827Y-99340602D01*
X36220814Y-99340609D01*
X36089711Y-99428210D01*
X36089707Y-99428213D01*
X35978213Y-99539707D01*
X35978210Y-99539711D01*
X35890609Y-99670814D01*
X35890602Y-99670827D01*
X35830264Y-99816498D01*
X35830261Y-99816510D01*
X35799500Y-99971153D01*
X25833429Y-99971153D01*
X25833564Y-99970827D01*
X25855603Y-99917621D01*
X25855605Y-99917614D01*
X25869737Y-99883497D01*
X25900500Y-99728842D01*
X25900500Y-99571158D01*
X25900500Y-99571155D01*
X25900499Y-99571153D01*
X25894244Y-99539707D01*
X25869737Y-99416503D01*
X25837796Y-99339390D01*
X25809397Y-99270827D01*
X25809390Y-99270814D01*
X25721789Y-99139711D01*
X25721786Y-99139707D01*
X25610292Y-99028213D01*
X25610288Y-99028210D01*
X25479185Y-98940609D01*
X25479172Y-98940602D01*
X25333501Y-98880264D01*
X25333489Y-98880261D01*
X25178845Y-98849500D01*
X25178842Y-98849500D01*
X25026279Y-98849500D01*
X25019191Y-98847419D01*
X25011910Y-98848665D01*
X24986118Y-98837707D01*
X24959240Y-98829815D01*
X24954403Y-98824233D01*
X24947603Y-98821344D01*
X24931828Y-98798180D01*
X24913485Y-98777011D01*
X24912433Y-98769701D01*
X24908275Y-98763594D01*
X24907528Y-98735583D01*
X24903541Y-98707853D01*
X24906563Y-98699406D01*
X24906413Y-98693749D01*
X24915225Y-98675205D01*
X24920214Y-98661265D01*
X24922912Y-98656808D01*
X24978272Y-98580613D01*
X24993283Y-98551153D01*
X29299500Y-98551153D01*
X29299500Y-98708846D01*
X29330261Y-98863489D01*
X29330264Y-98863501D01*
X29390602Y-99009172D01*
X29390609Y-99009185D01*
X29478210Y-99140288D01*
X29478213Y-99140292D01*
X29589707Y-99251786D01*
X29589711Y-99251789D01*
X29720814Y-99339390D01*
X29720827Y-99339397D01*
X29866498Y-99399735D01*
X29866503Y-99399737D01*
X30009661Y-99428213D01*
X30021153Y-99430499D01*
X30021156Y-99430500D01*
X30021158Y-99430500D01*
X30178844Y-99430500D01*
X30178845Y-99430499D01*
X30333497Y-99399737D01*
X30479179Y-99339394D01*
X30610289Y-99251789D01*
X30721789Y-99140289D01*
X30809394Y-99009179D01*
X30869737Y-98863497D01*
X30900500Y-98708842D01*
X30900500Y-98551158D01*
X30900500Y-98551155D01*
X30900499Y-98551153D01*
X30887286Y-98484726D01*
X30869737Y-98396503D01*
X30869735Y-98396498D01*
X30809397Y-98250827D01*
X30809390Y-98250814D01*
X30721789Y-98119711D01*
X30721786Y-98119707D01*
X30610292Y-98008213D01*
X30610288Y-98008210D01*
X30479185Y-97920609D01*
X30479172Y-97920602D01*
X30333501Y-97860264D01*
X30333489Y-97860261D01*
X30178845Y-97829500D01*
X30178842Y-97829500D01*
X30021158Y-97829500D01*
X30021155Y-97829500D01*
X29866510Y-97860261D01*
X29866498Y-97860264D01*
X29720827Y-97920602D01*
X29720814Y-97920609D01*
X29589711Y-98008210D01*
X29589707Y-98008213D01*
X29478213Y-98119707D01*
X29478210Y-98119711D01*
X29390609Y-98250814D01*
X29390602Y-98250827D01*
X29330264Y-98396498D01*
X29330261Y-98396510D01*
X29299500Y-98551153D01*
X24993283Y-98551153D01*
X25060844Y-98418557D01*
X25117048Y-98245579D01*
X25145500Y-98065944D01*
X25145500Y-97884053D01*
X25117048Y-97704418D01*
X25060842Y-97531436D01*
X25030885Y-97472644D01*
X24978272Y-97369385D01*
X24964613Y-97350585D01*
X24871371Y-97222247D01*
X24871367Y-97222242D01*
X24742756Y-97093631D01*
X24742751Y-97093627D01*
X24595617Y-96986729D01*
X24595616Y-96986728D01*
X24595614Y-96986727D01*
X24520411Y-96948409D01*
X24433562Y-96904156D01*
X24260580Y-96847950D01*
X24080945Y-96819499D01*
X24080940Y-96819499D01*
X22709060Y-96819499D01*
X22709055Y-96819499D01*
X22529418Y-96847951D01*
X22529415Y-96847951D01*
X22431929Y-96879627D01*
X22362088Y-96881622D01*
X22302255Y-96845542D01*
X22271427Y-96782841D01*
X22269611Y-96761680D01*
X22269690Y-96159397D01*
X22269793Y-95371153D01*
X31799500Y-95371153D01*
X31799500Y-95528846D01*
X31830261Y-95683489D01*
X31830264Y-95683501D01*
X31890602Y-95829172D01*
X31890609Y-95829185D01*
X31978210Y-95960288D01*
X31978213Y-95960292D01*
X32089707Y-96071786D01*
X32089711Y-96071789D01*
X32220814Y-96159390D01*
X32220827Y-96159397D01*
X32366498Y-96219735D01*
X32366503Y-96219737D01*
X32521153Y-96250499D01*
X32521156Y-96250500D01*
X32521158Y-96250500D01*
X32678844Y-96250500D01*
X32678845Y-96250499D01*
X32833497Y-96219737D01*
X32979179Y-96159394D01*
X33110289Y-96071789D01*
X33221789Y-95960289D01*
X33309394Y-95829179D01*
X33369737Y-95683497D01*
X33400500Y-95528842D01*
X33400500Y-95371158D01*
X33400500Y-95371155D01*
X33400499Y-95371153D01*
X33369738Y-95216510D01*
X33369737Y-95216503D01*
X33369735Y-95216498D01*
X33309397Y-95070827D01*
X33309390Y-95070814D01*
X33221789Y-94939711D01*
X33221786Y-94939707D01*
X33110292Y-94828213D01*
X33110288Y-94828210D01*
X32979185Y-94740609D01*
X32979172Y-94740602D01*
X32833501Y-94680264D01*
X32833489Y-94680261D01*
X32678845Y-94649500D01*
X32678842Y-94649500D01*
X32521158Y-94649500D01*
X32521155Y-94649500D01*
X32366510Y-94680261D01*
X32366498Y-94680264D01*
X32220827Y-94740602D01*
X32220814Y-94740609D01*
X32089711Y-94828210D01*
X32089707Y-94828213D01*
X31978213Y-94939707D01*
X31978210Y-94939711D01*
X31890609Y-95070814D01*
X31890602Y-95070827D01*
X31830264Y-95216498D01*
X31830261Y-95216510D01*
X31799500Y-95371153D01*
X22269793Y-95371153D01*
X22270183Y-92371153D01*
X26299500Y-92371153D01*
X26299500Y-92528846D01*
X26330261Y-92683489D01*
X26330264Y-92683501D01*
X26390602Y-92829172D01*
X26390609Y-92829185D01*
X26478210Y-92960288D01*
X26478213Y-92960292D01*
X26589707Y-93071786D01*
X26589711Y-93071789D01*
X26720814Y-93159390D01*
X26720827Y-93159397D01*
X26866498Y-93219735D01*
X26866503Y-93219737D01*
X27021153Y-93250499D01*
X27021156Y-93250500D01*
X27021158Y-93250500D01*
X27178844Y-93250500D01*
X27178845Y-93250499D01*
X27333497Y-93219737D01*
X27479179Y-93159394D01*
X27610289Y-93071789D01*
X27721789Y-92960289D01*
X27809394Y-92829179D01*
X27869737Y-92683497D01*
X27900500Y-92528842D01*
X27900500Y-92371158D01*
X27900500Y-92371155D01*
X27900499Y-92371153D01*
X27869738Y-92216510D01*
X27869737Y-92216503D01*
X27869735Y-92216498D01*
X27809397Y-92070827D01*
X27809390Y-92070814D01*
X27721789Y-91939711D01*
X27721786Y-91939707D01*
X27610292Y-91828213D01*
X27610288Y-91828210D01*
X27479185Y-91740609D01*
X27479172Y-91740602D01*
X27333501Y-91680264D01*
X27333489Y-91680261D01*
X27178845Y-91649500D01*
X27178842Y-91649500D01*
X27021158Y-91649500D01*
X27021155Y-91649500D01*
X26866510Y-91680261D01*
X26866498Y-91680264D01*
X26720827Y-91740602D01*
X26720814Y-91740609D01*
X26589711Y-91828210D01*
X26589707Y-91828213D01*
X26478213Y-91939707D01*
X26478210Y-91939711D01*
X26390609Y-92070814D01*
X26390602Y-92070827D01*
X26330264Y-92216498D01*
X26330261Y-92216510D01*
X26299500Y-92371153D01*
X22270183Y-92371153D01*
X22270405Y-90663366D01*
X22270419Y-90554484D01*
X22290112Y-90487447D01*
X22342922Y-90441699D01*
X22394419Y-90430500D01*
X49552519Y-90430500D01*
X49619558Y-90450185D01*
G37*
%TD.AperFunction*%
%TD*%
%TA.AperFunction,Conductor*%
%TO.N,GND_base*%
G36*
X99703208Y-114148220D02*
G01*
X99712670Y-114153949D01*
X99720811Y-114159388D01*
X99720817Y-114159391D01*
X99720821Y-114159394D01*
X99720823Y-114159395D01*
X99720827Y-114159397D01*
X99858695Y-114216503D01*
X99866503Y-114219737D01*
X100021153Y-114250499D01*
X100021156Y-114250500D01*
X100021158Y-114250500D01*
X100178844Y-114250500D01*
X100178845Y-114250499D01*
X100312458Y-114223922D01*
X100333488Y-114219739D01*
X100333489Y-114219738D01*
X100333497Y-114219737D01*
X100357155Y-114209937D01*
X100404604Y-114200500D01*
X104482351Y-114200500D01*
X104549390Y-114220185D01*
X104595145Y-114272989D01*
X104605089Y-114342147D01*
X104603969Y-114348690D01*
X104599500Y-114371158D01*
X104599500Y-114528846D01*
X104630261Y-114683489D01*
X104630264Y-114683501D01*
X104690602Y-114829172D01*
X104690609Y-114829185D01*
X104778210Y-114960288D01*
X104778213Y-114960292D01*
X104889707Y-115071786D01*
X104889711Y-115071789D01*
X105020814Y-115159390D01*
X105020827Y-115159397D01*
X105166498Y-115219735D01*
X105166503Y-115219737D01*
X105321153Y-115250499D01*
X105321156Y-115250500D01*
X105321158Y-115250500D01*
X105478844Y-115250500D01*
X105478845Y-115250499D01*
X105633497Y-115219737D01*
X105779179Y-115159394D01*
X105910289Y-115071789D01*
X106021789Y-114960289D01*
X106109394Y-114829179D01*
X106169737Y-114683497D01*
X106200500Y-114528842D01*
X106200500Y-114371158D01*
X106196031Y-114348690D01*
X106202260Y-114279099D01*
X106245123Y-114223922D01*
X106311013Y-114200678D01*
X106317649Y-114200500D01*
X109437770Y-114200500D01*
X109504809Y-114220185D01*
X109525451Y-114236819D01*
X111893182Y-116604549D01*
X111926667Y-116665872D01*
X111929501Y-116692230D01*
X111929501Y-118161492D01*
X111909816Y-118228531D01*
X111878388Y-118261809D01*
X111831154Y-118296126D01*
X111686126Y-118441154D01*
X111686122Y-118441159D01*
X111565576Y-118607077D01*
X111520203Y-118696126D01*
X111472229Y-118746921D01*
X111404407Y-118763716D01*
X111338273Y-118741178D01*
X111299234Y-118696124D01*
X111254000Y-118607347D01*
X111221263Y-118562287D01*
X110651538Y-119132012D01*
X110638539Y-119083498D01*
X110568105Y-118961503D01*
X110468496Y-118861894D01*
X110346501Y-118791460D01*
X110297984Y-118778459D01*
X110867710Y-118208734D01*
X110867710Y-118208733D01*
X110822660Y-118176003D01*
X110639990Y-118082927D01*
X110444996Y-118019570D01*
X110242512Y-117987500D01*
X110037486Y-117987500D01*
X109835001Y-118019570D01*
X109640007Y-118082927D01*
X109457337Y-118176003D01*
X109412286Y-118208733D01*
X109412286Y-118208734D01*
X109982012Y-118778460D01*
X109933497Y-118791460D01*
X109811502Y-118861894D01*
X109711893Y-118961503D01*
X109641459Y-119083498D01*
X109628459Y-119132013D01*
X109058733Y-118562287D01*
X109058732Y-118562287D01*
X109026000Y-118607341D01*
X108980763Y-118696123D01*
X108932788Y-118746919D01*
X108864967Y-118763713D01*
X108798832Y-118741175D01*
X108759794Y-118696121D01*
X108714424Y-118607077D01*
X108593878Y-118441159D01*
X108593874Y-118441154D01*
X108499630Y-118346910D01*
X108448847Y-118296127D01*
X108397433Y-118258772D01*
X108393516Y-118255394D01*
X108377255Y-118230220D01*
X108358948Y-118206479D01*
X108357730Y-118199994D01*
X108355605Y-118196704D01*
X108355586Y-118188575D01*
X108350500Y-118161492D01*
X108350500Y-117876079D01*
X108321659Y-117731092D01*
X108321658Y-117731091D01*
X108321658Y-117731087D01*
X108293366Y-117662783D01*
X108265087Y-117594511D01*
X108265080Y-117594498D01*
X108182952Y-117471585D01*
X108140539Y-117429172D01*
X108078416Y-117367049D01*
X107994856Y-117283489D01*
X107174097Y-116462728D01*
X107174074Y-116462707D01*
X106478421Y-115767052D01*
X106478414Y-115767046D01*
X106404729Y-115717812D01*
X106404729Y-115717813D01*
X106355491Y-115684913D01*
X106218917Y-115628343D01*
X106218907Y-115628340D01*
X106073920Y-115599500D01*
X106073918Y-115599500D01*
X100862229Y-115599500D01*
X100795190Y-115579815D01*
X100774548Y-115563181D01*
X99894856Y-114683489D01*
X99556099Y-114344731D01*
X99522615Y-114283410D01*
X99527599Y-114213718D01*
X99569471Y-114157785D01*
X99634935Y-114133368D01*
X99703208Y-114148220D01*
G37*
%TD.AperFunction*%
%TA.AperFunction,Conductor*%
G36*
X101080858Y-92197941D02*
G01*
X101132058Y-92245484D01*
X101149500Y-92308898D01*
X101149500Y-93665579D01*
X101129815Y-93732618D01*
X101077011Y-93778373D01*
X101007853Y-93788317D01*
X100944297Y-93759292D01*
X100907569Y-93703898D01*
X100849755Y-93525968D01*
X100756859Y-93343650D01*
X100724474Y-93299077D01*
X100724474Y-93299076D01*
X100045000Y-93978551D01*
X100045000Y-93972339D01*
X100017741Y-93870606D01*
X99965080Y-93779394D01*
X99890606Y-93704920D01*
X99799394Y-93652259D01*
X99697661Y-93625000D01*
X99691446Y-93625000D01*
X100370922Y-92945524D01*
X100369570Y-92928349D01*
X100355299Y-92909842D01*
X100349320Y-92840229D01*
X100381925Y-92778433D01*
X100431845Y-92747148D01*
X100514334Y-92719814D01*
X100663656Y-92627712D01*
X100787712Y-92503656D01*
X100879814Y-92354334D01*
X100907795Y-92269892D01*
X100947566Y-92212449D01*
X101012082Y-92185626D01*
X101080858Y-92197941D01*
G37*
%TD.AperFunction*%
%TA.AperFunction,Conductor*%
G36*
X124792855Y-55930632D02*
G01*
X125151465Y-55947211D01*
X125162854Y-55948267D01*
X125515563Y-55997468D01*
X125526807Y-55999570D01*
X125873471Y-56081104D01*
X125884461Y-56084231D01*
X126222143Y-56197411D01*
X126232797Y-56201539D01*
X126558581Y-56345386D01*
X126568808Y-56350478D01*
X126800446Y-56479500D01*
X126879924Y-56523769D01*
X126889634Y-56529779D01*
X126890934Y-56530669D01*
X126935132Y-56584783D01*
X126943057Y-56654202D01*
X126912193Y-56716886D01*
X126852340Y-56752932D01*
X126782500Y-56750897D01*
X126767084Y-56744708D01*
X126635076Y-56681136D01*
X126635068Y-56681133D01*
X126348783Y-56580957D01*
X126348771Y-56580953D01*
X126098229Y-56523769D01*
X126053063Y-56513460D01*
X126053060Y-56513459D01*
X126053048Y-56513457D01*
X125751663Y-56479500D01*
X125751657Y-56479500D01*
X125448343Y-56479500D01*
X125448336Y-56479500D01*
X125146951Y-56513457D01*
X125146937Y-56513460D01*
X124851228Y-56580953D01*
X124851216Y-56580957D01*
X124564931Y-56681133D01*
X124291661Y-56812733D01*
X124034837Y-56974107D01*
X123797696Y-57163220D01*
X123583220Y-57377696D01*
X123394107Y-57614837D01*
X123232733Y-57871661D01*
X123101133Y-58144931D01*
X123000957Y-58431216D01*
X123000953Y-58431228D01*
X122933460Y-58726937D01*
X122933457Y-58726951D01*
X122899500Y-59028336D01*
X122899500Y-59331663D01*
X122933457Y-59633048D01*
X122933459Y-59633060D01*
X122933460Y-59633063D01*
X122935314Y-59641184D01*
X123000953Y-59928771D01*
X123000957Y-59928783D01*
X123101133Y-60215068D01*
X123232733Y-60488338D01*
X123232735Y-60488341D01*
X123394108Y-60745164D01*
X123583221Y-60982304D01*
X123797696Y-61196779D01*
X124034836Y-61385892D01*
X124291659Y-61547265D01*
X124564935Y-61678868D01*
X124779951Y-61754105D01*
X124851216Y-61779042D01*
X124851228Y-61779046D01*
X125146937Y-61846540D01*
X125146946Y-61846541D01*
X125146951Y-61846542D01*
X125347874Y-61869180D01*
X125448337Y-61880499D01*
X125448340Y-61880500D01*
X125448343Y-61880500D01*
X125751660Y-61880500D01*
X125751661Y-61880499D01*
X125905694Y-61863144D01*
X126053048Y-61846542D01*
X126053051Y-61846541D01*
X126053063Y-61846540D01*
X126348772Y-61779046D01*
X126635065Y-61678868D01*
X126908341Y-61547265D01*
X127165164Y-61385892D01*
X127402304Y-61196779D01*
X127616779Y-60982304D01*
X127805892Y-60745164D01*
X127967265Y-60488341D01*
X128098868Y-60215065D01*
X128199046Y-59928772D01*
X128266540Y-59633063D01*
X128268407Y-59616498D01*
X128290941Y-59416498D01*
X128300500Y-59331657D01*
X128300500Y-59028343D01*
X128281210Y-58857137D01*
X128266542Y-58726951D01*
X128266541Y-58726946D01*
X128266540Y-58726937D01*
X128199046Y-58431228D01*
X128149947Y-58290913D01*
X128146386Y-58221135D01*
X128181114Y-58160508D01*
X128243107Y-58128280D01*
X128312683Y-58134685D01*
X128367751Y-58177688D01*
X128380423Y-58199873D01*
X128498455Y-58467189D01*
X128502593Y-58477869D01*
X128615764Y-58815525D01*
X128618898Y-58826541D01*
X128700427Y-59173184D01*
X128702532Y-59184443D01*
X128751731Y-59537137D01*
X128752788Y-59548541D01*
X128769368Y-59907144D01*
X128769500Y-59912828D01*
X128769500Y-59975892D01*
X128769521Y-59975971D01*
X128769524Y-59984156D01*
X128769525Y-59984157D01*
X128770857Y-63779966D01*
X128751196Y-63847013D01*
X128698408Y-63892786D01*
X128629253Y-63902754D01*
X128565687Y-63873751D01*
X128528926Y-63818328D01*
X128469542Y-63635563D01*
X128379358Y-63458568D01*
X128352268Y-63421284D01*
X127789494Y-63984058D01*
X127773381Y-63923920D01*
X127706502Y-63808081D01*
X127611920Y-63713499D01*
X127496081Y-63646620D01*
X127435942Y-63630505D01*
X127998716Y-63067732D01*
X127998715Y-63067731D01*
X127961432Y-63040642D01*
X127784437Y-62950458D01*
X127595522Y-62889076D01*
X127399321Y-62858001D01*
X127200679Y-62858001D01*
X127004479Y-62889076D01*
X127004476Y-62889076D01*
X126815562Y-62950458D01*
X126638564Y-63040644D01*
X126601283Y-63067730D01*
X126601282Y-63067731D01*
X127164058Y-63630505D01*
X127103919Y-63646620D01*
X126988080Y-63713499D01*
X126893498Y-63808081D01*
X126826619Y-63923920D01*
X126810504Y-63984058D01*
X126247730Y-63421283D01*
X126247729Y-63421284D01*
X126220643Y-63458565D01*
X126130457Y-63635563D01*
X126069075Y-63824477D01*
X126069075Y-63824480D01*
X126038000Y-64020679D01*
X126038000Y-64219322D01*
X126069075Y-64415521D01*
X126069075Y-64415524D01*
X126130457Y-64604438D01*
X126220641Y-64781433D01*
X126247730Y-64818716D01*
X126247731Y-64818717D01*
X126810504Y-64255943D01*
X126826619Y-64316082D01*
X126893498Y-64431921D01*
X126988080Y-64526503D01*
X127103919Y-64593382D01*
X127164057Y-64609495D01*
X126601283Y-65172269D01*
X126601283Y-65172270D01*
X126638567Y-65199359D01*
X126795330Y-65279234D01*
X126846126Y-65327209D01*
X126862921Y-65395029D01*
X126840384Y-65461164D01*
X126795331Y-65500203D01*
X126638307Y-65580211D01*
X126477533Y-65697021D01*
X126337021Y-65837533D01*
X126220213Y-65998305D01*
X126129994Y-66175367D01*
X126129993Y-66175370D01*
X126068587Y-66364362D01*
X126053787Y-66457800D01*
X126023857Y-66520935D01*
X126018995Y-66526082D01*
X125147267Y-67397812D01*
X124862220Y-67682859D01*
X124862218Y-67682861D01*
X124816237Y-67728842D01*
X124722859Y-67822219D01*
X124613371Y-67986080D01*
X124613364Y-67986093D01*
X124576091Y-68076082D01*
X124543288Y-68155276D01*
X124541210Y-68160292D01*
X124537949Y-68168164D01*
X124537947Y-68168170D01*
X124501840Y-68349692D01*
X124469455Y-68411603D01*
X124408739Y-68446177D01*
X124380223Y-68449500D01*
X124221155Y-68449500D01*
X124066510Y-68480261D01*
X124066498Y-68480264D01*
X123920827Y-68540602D01*
X123920814Y-68540609D01*
X123789711Y-68628210D01*
X123789707Y-68628213D01*
X123678213Y-68739707D01*
X123678210Y-68739711D01*
X123590609Y-68870814D01*
X123590602Y-68870827D01*
X123530264Y-69016498D01*
X123530261Y-69016510D01*
X123499500Y-69171153D01*
X123499500Y-69328846D01*
X123530261Y-69483489D01*
X123530264Y-69483501D01*
X123590602Y-69629172D01*
X123590609Y-69629185D01*
X123678210Y-69760288D01*
X123678213Y-69760292D01*
X123789707Y-69871786D01*
X123789711Y-69871789D01*
X123920814Y-69959390D01*
X123920827Y-69959397D01*
X124058683Y-70016498D01*
X124066503Y-70019737D01*
X124221153Y-70050499D01*
X124221156Y-70050500D01*
X124378234Y-70050500D01*
X124408689Y-70059442D01*
X124439593Y-70066745D01*
X124441979Y-70069217D01*
X124445273Y-70070185D01*
X124466054Y-70094167D01*
X124488109Y-70117024D01*
X124489653Y-70121403D01*
X124491028Y-70122989D01*
X124499851Y-70150308D01*
X124509835Y-70200499D01*
X124509835Y-70200500D01*
X124535363Y-70328838D01*
X124537949Y-70341835D01*
X124537950Y-70341840D01*
X124613364Y-70523907D01*
X124613371Y-70523920D01*
X124722859Y-70687780D01*
X124722860Y-70687781D01*
X124722861Y-70687782D01*
X124862218Y-70827139D01*
X124862219Y-70827139D01*
X124869286Y-70834206D01*
X124869285Y-70834206D01*
X124869289Y-70834209D01*
X126062212Y-72027134D01*
X126062219Y-72027140D01*
X126226084Y-72136630D01*
X126226087Y-72136632D01*
X126272952Y-72156044D01*
X126327356Y-72199885D01*
X126349421Y-72266179D01*
X126349500Y-72270605D01*
X126349500Y-92633887D01*
X126329815Y-92700926D01*
X126277011Y-92746681D01*
X126207853Y-92756625D01*
X126144297Y-92727600D01*
X126125182Y-92706773D01*
X126097942Y-92669281D01*
X126048285Y-92600934D01*
X125886565Y-92439214D01*
X125701537Y-92304783D01*
X125678111Y-92292847D01*
X125497754Y-92200950D01*
X125280247Y-92130278D01*
X125094811Y-92100908D01*
X125054353Y-92094500D01*
X124825645Y-92094500D01*
X124785187Y-92100908D01*
X124599752Y-92130278D01*
X124599749Y-92130278D01*
X124382243Y-92200950D01*
X124178460Y-92304783D01*
X124112549Y-92352671D01*
X123993433Y-92439214D01*
X123993431Y-92439216D01*
X123993430Y-92439216D01*
X123831714Y-92600932D01*
X123770317Y-92685438D01*
X123714986Y-92728103D01*
X123645373Y-92734082D01*
X123583578Y-92701476D01*
X123569681Y-92685437D01*
X123568314Y-92683555D01*
X123508286Y-92600934D01*
X123346566Y-92439214D01*
X123161538Y-92304783D01*
X123138112Y-92292847D01*
X122957755Y-92200950D01*
X122740248Y-92130278D01*
X122554812Y-92100908D01*
X122514354Y-92094500D01*
X122285646Y-92094500D01*
X122245188Y-92100908D01*
X122059753Y-92130278D01*
X122059750Y-92130278D01*
X121842244Y-92200950D01*
X121638461Y-92304783D01*
X121455759Y-92437525D01*
X121389952Y-92461005D01*
X121321898Y-92445180D01*
X121273203Y-92395074D01*
X121266690Y-92380538D01*
X121256296Y-92352669D01*
X121256293Y-92352664D01*
X121170047Y-92237455D01*
X121170044Y-92237452D01*
X121054835Y-92151206D01*
X121054828Y-92151202D01*
X120919982Y-92100908D01*
X120919983Y-92100908D01*
X120860383Y-92094501D01*
X120860381Y-92094500D01*
X120860373Y-92094500D01*
X120860364Y-92094500D01*
X118859629Y-92094500D01*
X118859623Y-92094501D01*
X118800016Y-92100908D01*
X118665171Y-92151202D01*
X118665164Y-92151206D01*
X118549955Y-92237452D01*
X118549952Y-92237455D01*
X118463706Y-92352664D01*
X118463702Y-92352671D01*
X118413408Y-92487517D01*
X118407001Y-92547116D01*
X118407000Y-92547135D01*
X118407000Y-94642870D01*
X118407001Y-94642876D01*
X118413408Y-94702483D01*
X118461778Y-94832167D01*
X118466762Y-94901858D01*
X118433277Y-94963181D01*
X118371954Y-94996666D01*
X118345596Y-94999500D01*
X116862230Y-94999500D01*
X116795191Y-94979815D01*
X116774549Y-94963181D01*
X115886819Y-94075451D01*
X115853334Y-94014128D01*
X115850500Y-93987770D01*
X115850500Y-92254604D01*
X115859939Y-92207151D01*
X115869737Y-92183497D01*
X115900500Y-92028842D01*
X115900500Y-91871158D01*
X115900500Y-91871155D01*
X115900499Y-91871153D01*
X115892529Y-91831087D01*
X115869737Y-91716503D01*
X115860625Y-91694505D01*
X115809397Y-91570827D01*
X115809390Y-91570814D01*
X115721789Y-91439711D01*
X115721786Y-91439707D01*
X115610292Y-91328213D01*
X115610288Y-91328210D01*
X115479185Y-91240609D01*
X115479172Y-91240602D01*
X115333501Y-91180264D01*
X115333489Y-91180261D01*
X115178845Y-91149500D01*
X115178842Y-91149500D01*
X115021158Y-91149500D01*
X115021155Y-91149500D01*
X114866510Y-91180261D01*
X114866498Y-91180264D01*
X114720827Y-91240602D01*
X114720814Y-91240609D01*
X114589711Y-91328210D01*
X114589707Y-91328213D01*
X114478213Y-91439707D01*
X114478210Y-91439711D01*
X114390609Y-91570814D01*
X114390602Y-91570827D01*
X114330264Y-91716498D01*
X114330261Y-91716510D01*
X114299500Y-91871153D01*
X114299500Y-92028846D01*
X114330261Y-92183489D01*
X114330263Y-92183497D01*
X114340061Y-92207151D01*
X114349500Y-92254604D01*
X114349500Y-94423918D01*
X114349500Y-94423920D01*
X114349499Y-94423920D01*
X114378340Y-94568907D01*
X114378343Y-94568917D01*
X114434913Y-94705490D01*
X114434916Y-94705495D01*
X114447588Y-94724459D01*
X114447589Y-94724464D01*
X114447591Y-94724464D01*
X114517051Y-94828420D01*
X114517052Y-94828421D01*
X116021584Y-96332952D01*
X116021586Y-96332954D01*
X116051058Y-96352645D01*
X116095270Y-96382186D01*
X116144505Y-96415084D01*
X116144506Y-96415084D01*
X116144507Y-96415085D01*
X116144509Y-96415086D01*
X116271087Y-96467516D01*
X116281087Y-96471658D01*
X116281091Y-96471658D01*
X116281092Y-96471659D01*
X116426079Y-96500500D01*
X116426082Y-96500500D01*
X123373920Y-96500500D01*
X123471462Y-96481096D01*
X123518913Y-96471658D01*
X123655495Y-96415084D01*
X123704729Y-96382186D01*
X123704734Y-96382183D01*
X123729071Y-96365921D01*
X123778416Y-96332952D01*
X124980235Y-95131132D01*
X125041556Y-95097649D01*
X125049573Y-95096469D01*
X125049541Y-95096262D01*
X125054352Y-95095500D01*
X125054353Y-95095500D01*
X125280244Y-95059722D01*
X125280247Y-95059721D01*
X125280248Y-95059721D01*
X125497754Y-94989049D01*
X125497754Y-94989048D01*
X125497757Y-94989048D01*
X125701537Y-94885217D01*
X125886565Y-94750786D01*
X126048285Y-94589066D01*
X126125182Y-94483225D01*
X126180512Y-94440561D01*
X126250126Y-94434582D01*
X126311920Y-94467188D01*
X126346278Y-94528027D01*
X126349500Y-94556112D01*
X126349500Y-94587769D01*
X126329815Y-94654808D01*
X126313181Y-94675450D01*
X122717050Y-98271580D01*
X122717044Y-98271588D01*
X122667812Y-98345268D01*
X122667813Y-98345269D01*
X122634921Y-98394496D01*
X122634914Y-98394508D01*
X122578342Y-98531086D01*
X122578340Y-98531092D01*
X122549500Y-98676079D01*
X122549500Y-98676082D01*
X122549500Y-112073918D01*
X122549500Y-112073920D01*
X122549499Y-112073920D01*
X122578340Y-112218907D01*
X122578343Y-112218917D01*
X122634914Y-112355492D01*
X122667812Y-112404727D01*
X122667813Y-112404730D01*
X122717046Y-112478414D01*
X122717052Y-112478421D01*
X124583731Y-114345099D01*
X124617216Y-114406422D01*
X124618523Y-114452178D01*
X124615500Y-114471264D01*
X124615500Y-114668736D01*
X124646389Y-114863763D01*
X124677753Y-114960289D01*
X124707409Y-115051561D01*
X124762355Y-115159397D01*
X124797058Y-115227504D01*
X124913115Y-115387246D01*
X125052753Y-115526884D01*
X125192398Y-115628340D01*
X125212499Y-115642944D01*
X125388439Y-115732591D01*
X125494500Y-115767052D01*
X125576236Y-115793610D01*
X125771264Y-115824500D01*
X125771269Y-115824500D01*
X125968736Y-115824500D01*
X126163763Y-115793610D01*
X126351561Y-115732591D01*
X126527501Y-115642944D01*
X126637286Y-115563181D01*
X126687246Y-115526884D01*
X126687248Y-115526881D01*
X126687252Y-115526879D01*
X126826879Y-115387252D01*
X126826881Y-115387248D01*
X126826884Y-115387246D01*
X126926234Y-115250500D01*
X126942944Y-115227501D01*
X127032591Y-115051561D01*
X127093610Y-114863763D01*
X127122161Y-114683501D01*
X127124500Y-114668736D01*
X127124500Y-114471263D01*
X127093610Y-114276236D01*
X127072068Y-114209938D01*
X127032591Y-114088439D01*
X126942944Y-113912499D01*
X126935486Y-113902234D01*
X126826884Y-113752753D01*
X126687246Y-113613115D01*
X126527504Y-113497058D01*
X126527503Y-113497057D01*
X126527501Y-113497056D01*
X126351561Y-113407409D01*
X126351558Y-113407408D01*
X126163763Y-113346389D01*
X125968736Y-113315500D01*
X125968731Y-113315500D01*
X125771269Y-113315500D01*
X125771265Y-113315500D01*
X125752178Y-113318523D01*
X125682884Y-113309568D01*
X125645099Y-113283731D01*
X124086819Y-111725451D01*
X124053334Y-111664128D01*
X124050500Y-111637770D01*
X124050500Y-99112229D01*
X124070185Y-99045190D01*
X124086819Y-99024548D01*
X124276050Y-98835317D01*
X124479893Y-98631473D01*
X124541214Y-98597990D01*
X124610905Y-98602974D01*
X124666839Y-98644845D01*
X124691256Y-98710310D01*
X124685503Y-98757474D01*
X124646877Y-98876349D01*
X124646877Y-98876352D01*
X124616000Y-99071302D01*
X124616000Y-99268697D01*
X124646876Y-99463646D01*
X124707873Y-99651373D01*
X124797483Y-99827239D01*
X124823457Y-99862988D01*
X124823457Y-99862989D01*
X125387037Y-99299408D01*
X125404075Y-99362993D01*
X125469901Y-99477007D01*
X125562993Y-99570099D01*
X125677007Y-99635925D01*
X125740590Y-99652962D01*
X125177009Y-100216541D01*
X125177010Y-100216542D01*
X125214713Y-100243935D01*
X125257379Y-100299265D01*
X125263358Y-100368878D01*
X125230752Y-100430673D01*
X125210719Y-100447355D01*
X125089711Y-100528210D01*
X125089707Y-100528213D01*
X124978213Y-100639707D01*
X124978210Y-100639711D01*
X124890609Y-100770814D01*
X124890602Y-100770827D01*
X124830264Y-100916498D01*
X124830261Y-100916510D01*
X124799500Y-101071153D01*
X124799500Y-101228846D01*
X124830261Y-101383489D01*
X124830264Y-101383501D01*
X124890602Y-101529172D01*
X124890609Y-101529185D01*
X124978210Y-101660288D01*
X124978213Y-101660292D01*
X125089707Y-101771786D01*
X125089711Y-101771789D01*
X125220814Y-101859390D01*
X125220827Y-101859397D01*
X125366498Y-101919735D01*
X125366503Y-101919737D01*
X125521153Y-101950499D01*
X125521156Y-101950500D01*
X125521158Y-101950500D01*
X125678844Y-101950500D01*
X125678845Y-101950499D01*
X125833497Y-101919737D01*
X125979179Y-101859394D01*
X126110289Y-101771789D01*
X126221789Y-101660289D01*
X126309394Y-101529179D01*
X126369737Y-101383497D01*
X126400500Y-101228842D01*
X126400500Y-101071158D01*
X126400500Y-101071155D01*
X126400499Y-101071153D01*
X126380973Y-100972989D01*
X126369737Y-100916503D01*
X126369735Y-100916498D01*
X126309397Y-100770827D01*
X126309390Y-100770814D01*
X126221789Y-100639711D01*
X126221786Y-100639707D01*
X126164498Y-100582419D01*
X126131013Y-100521096D01*
X126135997Y-100451404D01*
X126177869Y-100395471D01*
X126213861Y-100376807D01*
X126351371Y-100332126D01*
X126527241Y-100242516D01*
X126562988Y-100216543D01*
X126562988Y-100216541D01*
X125999410Y-99652962D01*
X126062993Y-99635925D01*
X126177007Y-99570099D01*
X126270099Y-99477007D01*
X126335925Y-99362993D01*
X126352962Y-99299409D01*
X126916541Y-99862988D01*
X126916543Y-99862988D01*
X126942516Y-99827241D01*
X127032126Y-99651373D01*
X127093123Y-99463646D01*
X127124000Y-99268697D01*
X127124000Y-99071302D01*
X127093123Y-98876353D01*
X127032126Y-98688626D01*
X126942520Y-98512768D01*
X126942512Y-98512755D01*
X126916542Y-98477010D01*
X126916541Y-98477009D01*
X126352962Y-99040589D01*
X126335925Y-98977007D01*
X126270099Y-98862993D01*
X126177007Y-98769901D01*
X126062993Y-98704075D01*
X125999408Y-98687037D01*
X126562989Y-98123457D01*
X126527239Y-98097483D01*
X126351373Y-98007873D01*
X126163646Y-97946876D01*
X125968697Y-97916000D01*
X125771303Y-97916000D01*
X125576353Y-97946877D01*
X125457476Y-97985503D01*
X125387634Y-97987498D01*
X125327801Y-97951418D01*
X125296973Y-97888717D01*
X125304937Y-97819303D01*
X125331476Y-97779891D01*
X127682950Y-95428417D01*
X127682952Y-95428415D01*
X127751717Y-95325500D01*
X127765084Y-95305495D01*
X127796264Y-95230220D01*
X127821659Y-95168912D01*
X127844763Y-95052759D01*
X127850500Y-95023918D01*
X127850500Y-71576082D01*
X127850500Y-71576079D01*
X127821659Y-71431092D01*
X127821658Y-71431091D01*
X127821658Y-71431087D01*
X127765084Y-71294505D01*
X127721396Y-71229121D01*
X127700520Y-71162444D01*
X127700500Y-71160232D01*
X127700500Y-71151457D01*
X127700499Y-71151455D01*
X127664244Y-70969190D01*
X127662051Y-70958164D01*
X127586631Y-70776086D01*
X127586630Y-70776084D01*
X127586630Y-70776083D01*
X127486848Y-70626748D01*
X127465970Y-70560071D01*
X127484455Y-70492691D01*
X127536434Y-70446001D01*
X127570547Y-70435386D01*
X127595636Y-70431413D01*
X127784632Y-70370005D01*
X127961694Y-70279787D01*
X128122464Y-70162981D01*
X128262981Y-70022464D01*
X128379787Y-69861694D01*
X128470005Y-69684632D01*
X128488025Y-69629172D01*
X128530945Y-69497077D01*
X128570382Y-69439402D01*
X128634741Y-69412203D01*
X128703587Y-69424117D01*
X128755063Y-69471361D01*
X128772876Y-69535352D01*
X128789498Y-116927107D01*
X128789366Y-116932877D01*
X128772703Y-117293303D01*
X128771646Y-117304707D01*
X128722192Y-117659231D01*
X128720087Y-117670490D01*
X128638135Y-118018931D01*
X128635001Y-118029947D01*
X128521243Y-118369355D01*
X128517105Y-118380035D01*
X128372523Y-118707482D01*
X128367418Y-118717735D01*
X128193234Y-119030452D01*
X128187205Y-119040190D01*
X127984906Y-119335512D01*
X127978003Y-119344652D01*
X127749328Y-119620035D01*
X127741612Y-119628499D01*
X127488499Y-119881612D01*
X127480035Y-119889328D01*
X127204652Y-120118003D01*
X127195512Y-120124906D01*
X126900190Y-120327205D01*
X126890452Y-120333234D01*
X126577735Y-120507418D01*
X126567482Y-120512523D01*
X126240035Y-120657105D01*
X126229355Y-120661243D01*
X125889947Y-120775001D01*
X125878931Y-120778135D01*
X125530490Y-120860087D01*
X125519231Y-120862192D01*
X125164707Y-120911646D01*
X125153303Y-120912703D01*
X124792855Y-120929368D01*
X124787128Y-120929500D01*
X97802862Y-120929500D01*
X97797127Y-120929367D01*
X97436194Y-120912656D01*
X97424774Y-120911597D01*
X97069746Y-120862002D01*
X97058471Y-120859891D01*
X96709565Y-120777708D01*
X96698535Y-120774565D01*
X96358705Y-120660493D01*
X96348012Y-120656344D01*
X96020182Y-120511362D01*
X96009918Y-120506243D01*
X95877375Y-120432292D01*
X95696878Y-120331586D01*
X95687131Y-120325540D01*
X95391581Y-120122714D01*
X95382435Y-120115794D01*
X95106878Y-119886518D01*
X95098409Y-119878782D01*
X94845216Y-119625026D01*
X94837509Y-119616553D01*
X94608825Y-119340462D01*
X94601952Y-119331334D01*
X94399772Y-119035316D01*
X94393748Y-119025556D01*
X94344289Y-118936446D01*
X94219781Y-118712119D01*
X94214695Y-118701865D01*
X94070432Y-118373688D01*
X94066312Y-118362997D01*
X94043719Y-118295191D01*
X94022070Y-118230220D01*
X93952993Y-118022909D01*
X93949881Y-118011897D01*
X93868464Y-117662764D01*
X93866385Y-117651519D01*
X93817579Y-117296383D01*
X93816545Y-117284966D01*
X93816480Y-117283501D01*
X93800635Y-116923953D01*
X93800538Y-116920880D01*
X93800513Y-116919587D01*
X93800656Y-116855220D01*
X93799181Y-116849670D01*
X93798922Y-116836026D01*
X93799026Y-116835643D01*
X93798900Y-116833695D01*
X93792291Y-72071153D01*
X94199500Y-72071153D01*
X94199500Y-72228846D01*
X94230261Y-72383489D01*
X94230263Y-72383497D01*
X94240061Y-72407151D01*
X94249500Y-72454604D01*
X94249500Y-94376082D01*
X94249500Y-115923918D01*
X94249500Y-115923920D01*
X94249499Y-115923920D01*
X94278340Y-116068907D01*
X94278343Y-116068917D01*
X94334914Y-116205492D01*
X94364318Y-116249498D01*
X94364319Y-116249501D01*
X94417046Y-116328414D01*
X94417052Y-116328421D01*
X95453927Y-117365295D01*
X95480806Y-117405521D01*
X95490606Y-117429179D01*
X95490607Y-117429181D01*
X95578207Y-117560284D01*
X95578213Y-117560292D01*
X95689707Y-117671786D01*
X95689711Y-117671789D01*
X95820814Y-117759390D01*
X95820827Y-117759397D01*
X95966498Y-117819735D01*
X95966503Y-117819737D01*
X96121153Y-117850499D01*
X96121156Y-117850500D01*
X96121158Y-117850500D01*
X96278844Y-117850500D01*
X96278845Y-117850499D01*
X96433497Y-117819737D01*
X96579179Y-117759394D01*
X96710289Y-117671789D01*
X96821789Y-117560289D01*
X96909394Y-117429179D01*
X96969737Y-117283497D01*
X97000500Y-117128842D01*
X97000500Y-116971158D01*
X97000500Y-116971155D01*
X97000499Y-116971153D01*
X96992900Y-116932951D01*
X96969737Y-116816503D01*
X96918262Y-116692230D01*
X96909397Y-116670827D01*
X96909390Y-116670814D01*
X96821789Y-116539711D01*
X96821786Y-116539707D01*
X96710292Y-116428213D01*
X96710284Y-116428207D01*
X96579181Y-116340607D01*
X96579179Y-116340606D01*
X96555521Y-116330806D01*
X96515295Y-116303927D01*
X95786819Y-115575451D01*
X95753334Y-115514128D01*
X95750500Y-115487770D01*
X95750500Y-110613703D01*
X95770185Y-110546664D01*
X95822989Y-110500909D01*
X95892147Y-110490965D01*
X95930790Y-110503217D01*
X95988439Y-110532591D01*
X96130181Y-110578645D01*
X96176236Y-110593610D01*
X96371264Y-110624500D01*
X96371269Y-110624500D01*
X96568736Y-110624500D01*
X96763763Y-110593610D01*
X96951561Y-110532591D01*
X97127501Y-110442944D01*
X97194183Y-110394497D01*
X97252615Y-110352045D01*
X97318422Y-110328565D01*
X97386475Y-110344391D01*
X97435170Y-110394497D01*
X97449500Y-110452363D01*
X97449500Y-113376082D01*
X97449500Y-114123918D01*
X97449500Y-114123920D01*
X97449499Y-114123920D01*
X97478340Y-114268907D01*
X97478343Y-114268917D01*
X97534914Y-114405492D01*
X97534915Y-114405494D01*
X97534916Y-114405495D01*
X97566108Y-114452178D01*
X97567812Y-114454727D01*
X97567813Y-114454730D01*
X97617046Y-114528414D01*
X97617052Y-114528421D01*
X100021580Y-116932948D01*
X100021584Y-116932951D01*
X100144498Y-117015080D01*
X100144511Y-117015087D01*
X100281082Y-117071656D01*
X100281087Y-117071658D01*
X100281091Y-117071658D01*
X100281092Y-117071659D01*
X100426079Y-117100500D01*
X100426082Y-117100500D01*
X100573917Y-117100500D01*
X105637770Y-117100500D01*
X105704809Y-117120185D01*
X105725451Y-117136819D01*
X106112707Y-117524074D01*
X106112728Y-117524097D01*
X106730275Y-118141642D01*
X106763760Y-118202965D01*
X106758776Y-118272656D01*
X106730276Y-118317004D01*
X106606120Y-118441160D01*
X106485575Y-118607077D01*
X106440203Y-118696124D01*
X106392229Y-118746919D01*
X106324407Y-118763714D01*
X106258273Y-118741176D01*
X106219234Y-118696122D01*
X106174001Y-118607347D01*
X106141264Y-118562287D01*
X105571539Y-119132012D01*
X105558540Y-119083498D01*
X105488106Y-118961503D01*
X105388497Y-118861894D01*
X105266502Y-118791460D01*
X105217985Y-118778459D01*
X105787711Y-118208734D01*
X105787711Y-118208733D01*
X105742661Y-118176003D01*
X105559991Y-118082927D01*
X105364997Y-118019570D01*
X105162513Y-117987500D01*
X104957487Y-117987500D01*
X104755002Y-118019570D01*
X104560008Y-118082927D01*
X104377338Y-118176003D01*
X104332287Y-118208733D01*
X104332287Y-118208734D01*
X104902013Y-118778460D01*
X104853498Y-118791460D01*
X104731503Y-118861894D01*
X104631894Y-118961503D01*
X104561460Y-119083498D01*
X104548460Y-119132013D01*
X103978734Y-118562287D01*
X103978733Y-118562287D01*
X103946003Y-118607338D01*
X103852927Y-118790008D01*
X103789570Y-118985002D01*
X103757500Y-119187486D01*
X103757500Y-119392513D01*
X103789570Y-119594997D01*
X103852927Y-119789991D01*
X103946003Y-119972661D01*
X103978733Y-120017711D01*
X103978734Y-120017711D01*
X104548459Y-119447985D01*
X104561460Y-119496502D01*
X104631894Y-119618497D01*
X104731503Y-119718106D01*
X104853498Y-119788540D01*
X104902012Y-119801539D01*
X104332287Y-120371264D01*
X104377344Y-120403999D01*
X104560008Y-120497072D01*
X104755002Y-120560429D01*
X104957487Y-120592500D01*
X105162513Y-120592500D01*
X105364997Y-120560429D01*
X105559991Y-120497072D01*
X105742659Y-120403997D01*
X105787711Y-120371264D01*
X105787712Y-120371264D01*
X105217987Y-119801539D01*
X105266502Y-119788540D01*
X105388497Y-119718106D01*
X105488106Y-119618497D01*
X105558540Y-119496502D01*
X105571539Y-119447987D01*
X106141264Y-120017712D01*
X106141264Y-120017711D01*
X106173999Y-119972657D01*
X106219234Y-119883877D01*
X106267208Y-119833081D01*
X106335028Y-119816285D01*
X106401164Y-119838822D01*
X106440204Y-119883876D01*
X106442982Y-119889328D01*
X106485440Y-119972657D01*
X106485577Y-119972924D01*
X106606121Y-120138840D01*
X106606125Y-120138845D01*
X106751154Y-120283874D01*
X106751159Y-120283878D01*
X106821296Y-120334835D01*
X106917079Y-120404425D01*
X107033522Y-120463755D01*
X107099817Y-120497535D01*
X107099819Y-120497535D01*
X107099822Y-120497537D01*
X107294880Y-120560916D01*
X107396166Y-120576958D01*
X107497447Y-120593000D01*
X107497452Y-120593000D01*
X107702553Y-120593000D01*
X107794626Y-120578416D01*
X107905120Y-120560916D01*
X108100178Y-120497537D01*
X108282921Y-120404425D01*
X108448847Y-120283873D01*
X108593873Y-120138847D01*
X108714425Y-119972921D01*
X108759795Y-119883876D01*
X108807768Y-119833082D01*
X108875588Y-119816286D01*
X108941724Y-119838823D01*
X108980763Y-119883876D01*
X109026000Y-119972658D01*
X109058732Y-120017711D01*
X109058733Y-120017711D01*
X109628458Y-119447985D01*
X109641459Y-119496502D01*
X109711893Y-119618497D01*
X109811502Y-119718106D01*
X109933497Y-119788540D01*
X109982011Y-119801539D01*
X109412286Y-120371264D01*
X109457343Y-120403999D01*
X109640007Y-120497072D01*
X109835001Y-120560429D01*
X110037486Y-120592500D01*
X110242512Y-120592500D01*
X110444996Y-120560429D01*
X110639990Y-120497072D01*
X110822658Y-120403997D01*
X110867710Y-120371264D01*
X110867711Y-120371264D01*
X110297986Y-119801539D01*
X110346501Y-119788540D01*
X110468496Y-119718106D01*
X110568105Y-119618497D01*
X110638539Y-119496502D01*
X110651538Y-119447987D01*
X111221263Y-120017712D01*
X111221263Y-120017711D01*
X111253998Y-119972657D01*
X111299234Y-119883875D01*
X111347208Y-119833079D01*
X111415028Y-119816283D01*
X111481164Y-119838820D01*
X111520204Y-119883874D01*
X111522983Y-119889328D01*
X111565441Y-119972657D01*
X111565578Y-119972924D01*
X111686122Y-120138840D01*
X111686126Y-120138845D01*
X111831155Y-120283874D01*
X111831160Y-120283878D01*
X111901297Y-120334835D01*
X111997080Y-120404425D01*
X112113523Y-120463755D01*
X112179818Y-120497535D01*
X112179820Y-120497535D01*
X112179823Y-120497537D01*
X112374881Y-120560916D01*
X112476167Y-120576958D01*
X112577448Y-120593000D01*
X112577453Y-120593000D01*
X112782554Y-120593000D01*
X112874627Y-120578416D01*
X112985121Y-120560916D01*
X113180179Y-120497537D01*
X113362922Y-120404425D01*
X113528848Y-120283873D01*
X113673874Y-120138847D01*
X113794426Y-119972921D01*
X113839796Y-119883876D01*
X113887769Y-119833082D01*
X113955589Y-119816286D01*
X114021725Y-119838823D01*
X114060764Y-119883876D01*
X114106001Y-119972658D01*
X114138733Y-120017711D01*
X114138734Y-120017711D01*
X114708459Y-119447985D01*
X114721460Y-119496502D01*
X114791894Y-119618497D01*
X114891503Y-119718106D01*
X115013498Y-119788540D01*
X115062012Y-119801539D01*
X114492287Y-120371264D01*
X114537344Y-120403999D01*
X114720008Y-120497072D01*
X114915002Y-120560429D01*
X115117487Y-120592500D01*
X115322513Y-120592500D01*
X115524997Y-120560429D01*
X115719991Y-120497072D01*
X115902659Y-120403997D01*
X115947711Y-120371264D01*
X115947712Y-120371264D01*
X115377987Y-119801539D01*
X115426502Y-119788540D01*
X115548497Y-119718106D01*
X115648106Y-119618497D01*
X115718540Y-119496502D01*
X115731539Y-119447987D01*
X116301263Y-120017711D01*
X116323271Y-120015980D01*
X116391648Y-120030344D01*
X116441405Y-120079396D01*
X116456357Y-120137088D01*
X116456599Y-120137076D01*
X116456646Y-120137071D01*
X116456646Y-120137073D01*
X116456824Y-120137064D01*
X116456947Y-120139364D01*
X116457000Y-120139568D01*
X116457000Y-120140355D01*
X116457001Y-120140376D01*
X116463408Y-120199983D01*
X116513702Y-120334828D01*
X116513706Y-120334835D01*
X116599952Y-120450044D01*
X116599955Y-120450047D01*
X116715164Y-120536293D01*
X116715171Y-120536297D01*
X116850017Y-120586591D01*
X116850016Y-120586591D01*
X116856944Y-120587335D01*
X116909627Y-120593000D01*
X118610372Y-120592999D01*
X118669983Y-120586591D01*
X118804831Y-120536296D01*
X118920046Y-120450046D01*
X119006296Y-120334831D01*
X119056591Y-120199983D01*
X119063000Y-120140373D01*
X119062999Y-118439628D01*
X119056591Y-118380017D01*
X119052614Y-118369355D01*
X119006297Y-118245171D01*
X119006293Y-118245164D01*
X118920047Y-118129955D01*
X118920044Y-118129952D01*
X118804835Y-118043706D01*
X118804828Y-118043702D01*
X118669983Y-117993408D01*
X118621243Y-117988168D01*
X118556692Y-117961429D01*
X118516845Y-117904036D01*
X118510500Y-117864879D01*
X118510500Y-100936079D01*
X118481659Y-100791092D01*
X118481658Y-100791091D01*
X118481658Y-100791087D01*
X118457578Y-100732952D01*
X118425087Y-100654511D01*
X118425080Y-100654498D01*
X118342952Y-100531585D01*
X118332463Y-100521096D01*
X118238416Y-100427049D01*
X113886819Y-96075451D01*
X113853334Y-96014128D01*
X113850500Y-95987770D01*
X113850500Y-90112229D01*
X113870185Y-90045190D01*
X113886819Y-90024548D01*
X114859125Y-89052242D01*
X116382952Y-87528415D01*
X116410205Y-87487627D01*
X116465084Y-87405495D01*
X116488518Y-87348920D01*
X116521659Y-87268912D01*
X116550500Y-87123917D01*
X116550500Y-86976082D01*
X116550500Y-82718034D01*
X119069500Y-82718034D01*
X119069500Y-83061965D01*
X119103210Y-83404249D01*
X119170308Y-83741572D01*
X119270150Y-84070706D01*
X119401770Y-84388464D01*
X119401772Y-84388469D01*
X119563893Y-84691775D01*
X119563904Y-84691793D01*
X119754975Y-84977751D01*
X119754985Y-84977765D01*
X119973176Y-85243632D01*
X120216367Y-85486823D01*
X120216372Y-85486827D01*
X120216373Y-85486828D01*
X120482240Y-85705019D01*
X120768213Y-85896100D01*
X120768222Y-85896105D01*
X120768224Y-85896106D01*
X121071530Y-86058227D01*
X121071532Y-86058227D01*
X121071538Y-86058231D01*
X121389295Y-86189850D01*
X121718422Y-86289690D01*
X122055750Y-86356789D01*
X122398031Y-86390500D01*
X122398034Y-86390500D01*
X122741966Y-86390500D01*
X122741969Y-86390500D01*
X123084250Y-86356789D01*
X123421578Y-86289690D01*
X123750705Y-86189850D01*
X124068462Y-86058231D01*
X124371787Y-85896100D01*
X124657760Y-85705019D01*
X124923627Y-85486828D01*
X125166828Y-85243627D01*
X125385019Y-84977760D01*
X125576100Y-84691787D01*
X125738231Y-84388462D01*
X125869850Y-84070705D01*
X125969690Y-83741578D01*
X126036789Y-83404250D01*
X126070500Y-83061969D01*
X126070500Y-82718031D01*
X126036789Y-82375750D01*
X125969690Y-82038422D01*
X125869850Y-81709295D01*
X125738231Y-81391538D01*
X125576100Y-81088213D01*
X125385019Y-80802240D01*
X125166828Y-80536373D01*
X125166827Y-80536372D01*
X125166823Y-80536367D01*
X124923632Y-80293176D01*
X124657765Y-80074985D01*
X124657764Y-80074984D01*
X124657760Y-80074981D01*
X124371787Y-79883900D01*
X124371782Y-79883897D01*
X124371775Y-79883893D01*
X124068469Y-79721772D01*
X124068464Y-79721770D01*
X123750706Y-79590150D01*
X123421572Y-79490308D01*
X123084248Y-79423210D01*
X123084249Y-79423210D01*
X122826456Y-79397821D01*
X122741969Y-79389500D01*
X122398031Y-79389500D01*
X122319966Y-79397188D01*
X122055750Y-79423210D01*
X121718427Y-79490308D01*
X121389293Y-79590150D01*
X121071535Y-79721770D01*
X121071530Y-79721772D01*
X120768224Y-79883893D01*
X120768206Y-79883904D01*
X120482248Y-80074975D01*
X120482234Y-80074985D01*
X120216367Y-80293176D01*
X119973176Y-80536367D01*
X119754985Y-80802234D01*
X119754975Y-80802248D01*
X119563904Y-81088206D01*
X119563893Y-81088224D01*
X119401772Y-81391530D01*
X119401770Y-81391535D01*
X119270150Y-81709293D01*
X119170308Y-82038427D01*
X119103210Y-82375750D01*
X119069500Y-82718034D01*
X116550500Y-82718034D01*
X116550500Y-68444836D01*
X116570185Y-68377797D01*
X116605609Y-68341734D01*
X116710289Y-68271789D01*
X116821786Y-68160292D01*
X116821789Y-68160289D01*
X116909394Y-68029179D01*
X116969737Y-67883497D01*
X117000500Y-67728842D01*
X117000500Y-67571158D01*
X117000500Y-67571155D01*
X117000499Y-67571153D01*
X116969739Y-67416511D01*
X116969738Y-67416508D01*
X116969737Y-67416503D01*
X116959937Y-67392844D01*
X116950500Y-67345396D01*
X116950500Y-66089778D01*
X117699500Y-66089778D01*
X117699500Y-66310222D01*
X117707297Y-66359452D01*
X117733985Y-66527952D01*
X117802103Y-66737603D01*
X117802104Y-66737606D01*
X117870122Y-66871096D01*
X117878152Y-66886856D01*
X117902187Y-66934025D01*
X118031752Y-67112358D01*
X118031756Y-67112363D01*
X118187636Y-67268243D01*
X118187641Y-67268247D01*
X118306785Y-67354809D01*
X118365978Y-67397815D01*
X118494375Y-67463237D01*
X118562393Y-67497895D01*
X118562396Y-67497896D01*
X118655695Y-67528210D01*
X118772049Y-67566015D01*
X118989778Y-67600500D01*
X118989779Y-67600500D01*
X119210221Y-67600500D01*
X119210222Y-67600500D01*
X119427951Y-67566015D01*
X119637606Y-67497895D01*
X119834022Y-67397815D01*
X120012365Y-67268242D01*
X120168242Y-67112365D01*
X120297815Y-66934022D01*
X120397895Y-66737606D01*
X120466015Y-66527951D01*
X120500500Y-66310222D01*
X120500500Y-66089778D01*
X120466015Y-65872049D01*
X120409145Y-65697019D01*
X120397896Y-65662396D01*
X120397895Y-65662393D01*
X120356020Y-65580211D01*
X120297815Y-65465978D01*
X120240994Y-65387770D01*
X120168247Y-65287641D01*
X120168243Y-65287636D01*
X120012363Y-65131756D01*
X120012358Y-65131752D01*
X119834025Y-65002187D01*
X119834024Y-65002186D01*
X119834022Y-65002185D01*
X119771096Y-64970122D01*
X119637606Y-64902104D01*
X119637603Y-64902103D01*
X119427952Y-64833985D01*
X119319086Y-64816742D01*
X119210222Y-64799500D01*
X118989778Y-64799500D01*
X118917201Y-64810995D01*
X118772047Y-64833985D01*
X118562396Y-64902103D01*
X118562393Y-64902104D01*
X118365974Y-65002187D01*
X118187641Y-65131752D01*
X118187636Y-65131756D01*
X118031756Y-65287636D01*
X118031752Y-65287641D01*
X117902187Y-65465974D01*
X117802104Y-65662393D01*
X117802103Y-65662396D01*
X117733985Y-65872047D01*
X117718643Y-65968912D01*
X117699500Y-66089778D01*
X116950500Y-66089778D01*
X116950500Y-64612230D01*
X116959144Y-64582790D01*
X116965667Y-64552805D01*
X116969422Y-64547787D01*
X116970185Y-64545191D01*
X116986814Y-64524552D01*
X117015297Y-64496069D01*
X117055528Y-64469189D01*
X117079179Y-64459394D01*
X117210289Y-64371789D01*
X117321789Y-64260289D01*
X117409394Y-64129179D01*
X117409723Y-64128386D01*
X117440898Y-64053121D01*
X117469737Y-63983497D01*
X117500500Y-63828842D01*
X117500500Y-63671158D01*
X117500500Y-63671155D01*
X117500499Y-63671153D01*
X117480708Y-63571658D01*
X117469737Y-63516503D01*
X117445740Y-63458568D01*
X117409397Y-63370827D01*
X117409390Y-63370814D01*
X117321789Y-63239711D01*
X117321786Y-63239707D01*
X117210292Y-63128213D01*
X117210288Y-63128210D01*
X117079185Y-63040609D01*
X117079172Y-63040602D01*
X116933501Y-62980264D01*
X116933489Y-62980261D01*
X116778845Y-62949500D01*
X116778842Y-62949500D01*
X116621158Y-62949500D01*
X116621155Y-62949500D01*
X116466510Y-62980261D01*
X116466498Y-62980264D01*
X116320827Y-63040602D01*
X116320814Y-63040609D01*
X116189711Y-63128210D01*
X116189707Y-63128213D01*
X116078213Y-63239707D01*
X116078207Y-63239715D01*
X115990607Y-63370818D01*
X115990606Y-63370819D01*
X115980805Y-63394480D01*
X115953927Y-63434703D01*
X115617050Y-63771581D01*
X115617047Y-63771584D01*
X115576043Y-63832951D01*
X115576044Y-63832952D01*
X115534914Y-63894508D01*
X115478343Y-64031082D01*
X115478340Y-64031092D01*
X115449500Y-64176079D01*
X115449500Y-67287770D01*
X115429815Y-67354809D01*
X115413181Y-67375451D01*
X115217048Y-67571583D01*
X115197728Y-67600500D01*
X115178188Y-67629744D01*
X115134919Y-67694499D01*
X115134912Y-67694511D01*
X115078343Y-67831082D01*
X115078340Y-67831092D01*
X115049500Y-67976079D01*
X115049500Y-86687769D01*
X115029815Y-86754808D01*
X115013181Y-86775450D01*
X112517052Y-89271578D01*
X112517049Y-89271581D01*
X112481691Y-89324498D01*
X112481692Y-89324499D01*
X112434914Y-89394508D01*
X112378343Y-89531082D01*
X112378340Y-89531092D01*
X112349500Y-89676079D01*
X112349500Y-89676082D01*
X112349500Y-96423918D01*
X112349500Y-96423920D01*
X112349499Y-96423920D01*
X112378340Y-96568907D01*
X112378343Y-96568917D01*
X112434914Y-96705492D01*
X112467812Y-96754727D01*
X112467813Y-96754730D01*
X112517046Y-96828414D01*
X112517052Y-96828421D01*
X116973181Y-101284548D01*
X117006666Y-101345871D01*
X117009500Y-101372229D01*
X117009500Y-117864879D01*
X116989815Y-117931918D01*
X116937011Y-117977673D01*
X116898755Y-117988168D01*
X116850020Y-117993407D01*
X116715171Y-118043702D01*
X116715164Y-118043706D01*
X116599955Y-118129952D01*
X116599952Y-118129955D01*
X116513706Y-118245164D01*
X116513702Y-118245171D01*
X116463408Y-118380017D01*
X116457001Y-118439616D01*
X116457001Y-118439623D01*
X116457000Y-118439635D01*
X116457000Y-118440401D01*
X116456949Y-118440572D01*
X116456822Y-118442952D01*
X116456259Y-118442921D01*
X116437315Y-118507440D01*
X116384511Y-118553195D01*
X116323271Y-118564019D01*
X116301264Y-118562287D01*
X115731539Y-119132012D01*
X115718540Y-119083498D01*
X115648106Y-118961503D01*
X115548497Y-118861894D01*
X115426502Y-118791460D01*
X115377985Y-118778459D01*
X115947711Y-118208734D01*
X115947711Y-118208733D01*
X115902661Y-118176003D01*
X115719991Y-118082927D01*
X115524997Y-118019570D01*
X115322513Y-117987500D01*
X115117487Y-117987500D01*
X114915002Y-118019570D01*
X114720008Y-118082927D01*
X114537338Y-118176003D01*
X114492287Y-118208733D01*
X114492287Y-118208734D01*
X115062013Y-118778460D01*
X115013498Y-118791460D01*
X114891503Y-118861894D01*
X114791894Y-118961503D01*
X114721460Y-119083498D01*
X114708460Y-119132013D01*
X114138734Y-118562287D01*
X114138733Y-118562287D01*
X114106001Y-118607341D01*
X114060764Y-118696123D01*
X114012789Y-118746919D01*
X113944968Y-118763713D01*
X113878833Y-118741175D01*
X113839795Y-118696121D01*
X113794425Y-118607077D01*
X113673879Y-118441159D01*
X113673875Y-118441154D01*
X113579631Y-118346910D01*
X113528848Y-118296127D01*
X113477434Y-118258772D01*
X113473517Y-118255394D01*
X113457256Y-118230220D01*
X113438949Y-118206479D01*
X113437731Y-118199994D01*
X113435606Y-118196704D01*
X113435587Y-118188575D01*
X113430501Y-118161492D01*
X113430501Y-116256080D01*
X113401660Y-116111093D01*
X113401659Y-116111092D01*
X113401659Y-116111088D01*
X113384187Y-116068907D01*
X113345088Y-115974512D01*
X113345081Y-115974499D01*
X113262953Y-115851586D01*
X113235867Y-115824500D01*
X113158417Y-115747050D01*
X112462925Y-115051558D01*
X110278421Y-112867052D01*
X110278414Y-112867046D01*
X110204729Y-112817812D01*
X110204729Y-112817813D01*
X110155491Y-112784913D01*
X110018917Y-112728343D01*
X110018907Y-112728340D01*
X109873920Y-112699500D01*
X109873918Y-112699500D01*
X100973848Y-112699500D01*
X100906809Y-112679815D01*
X100861054Y-112627011D01*
X100849848Y-112575500D01*
X100849848Y-110674604D01*
X100859287Y-110627151D01*
X100860385Y-110624500D01*
X100869085Y-110603497D01*
X100899848Y-110448842D01*
X100899848Y-110291158D01*
X100899848Y-110291155D01*
X100899847Y-110291153D01*
X100869085Y-110136503D01*
X100869083Y-110136498D01*
X100808745Y-109990827D01*
X100808738Y-109990814D01*
X100721137Y-109859711D01*
X100721134Y-109859707D01*
X100609640Y-109748213D01*
X100609636Y-109748210D01*
X100478533Y-109660609D01*
X100478520Y-109660602D01*
X100332849Y-109600264D01*
X100332837Y-109600261D01*
X100178193Y-109569500D01*
X100178190Y-109569500D01*
X100020506Y-109569500D01*
X100020503Y-109569500D01*
X99865858Y-109600261D01*
X99865846Y-109600264D01*
X99720175Y-109660602D01*
X99720162Y-109660609D01*
X99589059Y-109748210D01*
X99589055Y-109748213D01*
X99477561Y-109859707D01*
X99477558Y-109859711D01*
X99389957Y-109990814D01*
X99389950Y-109990827D01*
X99329612Y-110136498D01*
X99329609Y-110136510D01*
X99298848Y-110291153D01*
X99298848Y-110448846D01*
X99318306Y-110546664D01*
X99329611Y-110603497D01*
X99333838Y-110613703D01*
X99339409Y-110627151D01*
X99348848Y-110674604D01*
X99348848Y-113146970D01*
X99339410Y-113194418D01*
X99330263Y-113216503D01*
X99330262Y-113216506D01*
X99330260Y-113216511D01*
X99299500Y-113371153D01*
X99299500Y-113528846D01*
X99330261Y-113683489D01*
X99330264Y-113683501D01*
X99390602Y-113829172D01*
X99390609Y-113829185D01*
X99396049Y-113837326D01*
X99416927Y-113904004D01*
X99398442Y-113971384D01*
X99346464Y-114018074D01*
X99277494Y-114029250D01*
X99213430Y-114001365D01*
X99205266Y-113993898D01*
X98986819Y-113775451D01*
X98953334Y-113714128D01*
X98950500Y-113687770D01*
X98950500Y-103872902D01*
X98970185Y-103805863D01*
X99022989Y-103760108D01*
X99092147Y-103750164D01*
X99155703Y-103779189D01*
X99189062Y-103825451D01*
X99190605Y-103829178D01*
X99190609Y-103829185D01*
X99278210Y-103960288D01*
X99278213Y-103960292D01*
X99389707Y-104071786D01*
X99389711Y-104071789D01*
X99520814Y-104159390D01*
X99520827Y-104159397D01*
X99666498Y-104219735D01*
X99666503Y-104219737D01*
X99821153Y-104250499D01*
X99821156Y-104250500D01*
X99821158Y-104250500D01*
X99978844Y-104250500D01*
X99978845Y-104250499D01*
X100133497Y-104219737D01*
X100279179Y-104159394D01*
X100410289Y-104071789D01*
X100521789Y-103960289D01*
X100609394Y-103829179D01*
X100644834Y-103743615D01*
X100656292Y-103722181D01*
X100672191Y-103698388D01*
X100728765Y-103561806D01*
X100748958Y-103460292D01*
X100757607Y-103416813D01*
X100757607Y-99761711D01*
X100767046Y-99714258D01*
X100776844Y-99690604D01*
X100807607Y-99535949D01*
X100807607Y-99378265D01*
X100807607Y-99378262D01*
X100807606Y-99378260D01*
X100776845Y-99223617D01*
X100776844Y-99223610D01*
X100730709Y-99112229D01*
X100716504Y-99077934D01*
X100716497Y-99077921D01*
X100628896Y-98946818D01*
X100628893Y-98946814D01*
X100517399Y-98835320D01*
X100517395Y-98835317D01*
X100386292Y-98747716D01*
X100386287Y-98747714D01*
X100386286Y-98747713D01*
X100362626Y-98737912D01*
X100322400Y-98711033D01*
X96756264Y-95144896D01*
X95786819Y-94175451D01*
X95772115Y-94148523D01*
X95755523Y-94122705D01*
X95754631Y-94116504D01*
X95753334Y-94114128D01*
X95750500Y-94087770D01*
X95750500Y-90884983D01*
X98344500Y-90884983D01*
X98344500Y-92085001D01*
X98344501Y-92085018D01*
X98355000Y-92187796D01*
X98355001Y-92187799D01*
X98382205Y-92269894D01*
X98410186Y-92354334D01*
X98502288Y-92503656D01*
X98626344Y-92627712D01*
X98775666Y-92719814D01*
X98858152Y-92747147D01*
X98915597Y-92786920D01*
X98942420Y-92851436D01*
X98930105Y-92920212D01*
X98920143Y-92931975D01*
X98919077Y-92945524D01*
X99598554Y-93625000D01*
X99592339Y-93625000D01*
X99490606Y-93652259D01*
X99399394Y-93704920D01*
X99324920Y-93779394D01*
X99272259Y-93870606D01*
X99245000Y-93972339D01*
X99245000Y-93978553D01*
X98565524Y-93299077D01*
X98565523Y-93299077D01*
X98533143Y-93343644D01*
X98440244Y-93525968D01*
X98377009Y-93720582D01*
X98345000Y-93922682D01*
X98345000Y-94127317D01*
X98377009Y-94329417D01*
X98440244Y-94524031D01*
X98533141Y-94706350D01*
X98533147Y-94706359D01*
X98565523Y-94750921D01*
X98565524Y-94750922D01*
X99245000Y-94071446D01*
X99245000Y-94077661D01*
X99272259Y-94179394D01*
X99324920Y-94270606D01*
X99399394Y-94345080D01*
X99490606Y-94397741D01*
X99592339Y-94425000D01*
X99598553Y-94425000D01*
X98919076Y-95104474D01*
X98963650Y-95136859D01*
X99145968Y-95229755D01*
X99340582Y-95292990D01*
X99542683Y-95325000D01*
X99747317Y-95325000D01*
X99949417Y-95292990D01*
X100144031Y-95229755D01*
X100326349Y-95136859D01*
X100370921Y-95104474D01*
X99691447Y-94425000D01*
X99697661Y-94425000D01*
X99799394Y-94397741D01*
X99890606Y-94345080D01*
X99965080Y-94270606D01*
X100017741Y-94179394D01*
X100045000Y-94077661D01*
X100045000Y-94071448D01*
X100724474Y-94750922D01*
X100724474Y-94750921D01*
X100756859Y-94706349D01*
X100849755Y-94524031D01*
X100907569Y-94346101D01*
X100947007Y-94288426D01*
X101011366Y-94261228D01*
X101080212Y-94273143D01*
X101131688Y-94320387D01*
X101149500Y-94384420D01*
X101149500Y-104023918D01*
X101149500Y-104023920D01*
X101149499Y-104023920D01*
X101178340Y-104168907D01*
X101178343Y-104168917D01*
X101234914Y-104305492D01*
X101267812Y-104354727D01*
X101267813Y-104354730D01*
X101317046Y-104428414D01*
X101317052Y-104428421D01*
X103713181Y-106824548D01*
X103746666Y-106885871D01*
X103749500Y-106912229D01*
X103749500Y-108145396D01*
X103740062Y-108192844D01*
X103734030Y-108207409D01*
X103730262Y-108216506D01*
X103730260Y-108216511D01*
X103699500Y-108371153D01*
X103699500Y-108528846D01*
X103730261Y-108683489D01*
X103730264Y-108683501D01*
X103790602Y-108829172D01*
X103790609Y-108829185D01*
X103878210Y-108960288D01*
X103878213Y-108960292D01*
X103989707Y-109071786D01*
X103989711Y-109071789D01*
X104120814Y-109159390D01*
X104120827Y-109159397D01*
X104266498Y-109219735D01*
X104266503Y-109219737D01*
X104421153Y-109250499D01*
X104421156Y-109250500D01*
X104421158Y-109250500D01*
X104578844Y-109250500D01*
X104578845Y-109250499D01*
X104733497Y-109219737D01*
X104879179Y-109159394D01*
X105010289Y-109071789D01*
X105121789Y-108960289D01*
X105209394Y-108829179D01*
X105269737Y-108683497D01*
X105300500Y-108528842D01*
X105300500Y-108371158D01*
X105300500Y-108371155D01*
X105300499Y-108371153D01*
X105269739Y-108216511D01*
X105269738Y-108216508D01*
X105269737Y-108216503D01*
X105259937Y-108192844D01*
X105250500Y-108145396D01*
X105250500Y-106476079D01*
X105221659Y-106331092D01*
X105221658Y-106331091D01*
X105221658Y-106331087D01*
X105178745Y-106227487D01*
X105171277Y-106158020D01*
X105202552Y-106095540D01*
X105262641Y-106059888D01*
X105332466Y-106062382D01*
X105380988Y-106092355D01*
X106217049Y-106928416D01*
X106321584Y-107032951D01*
X106321587Y-107032953D01*
X106321588Y-107032954D01*
X106444503Y-107115083D01*
X106444506Y-107115085D01*
X106477960Y-107128941D01*
X106487640Y-107132951D01*
X106581088Y-107171659D01*
X106697241Y-107194763D01*
X106722170Y-107199721D01*
X106726081Y-107200500D01*
X106726082Y-107200500D01*
X106726083Y-107200500D01*
X106873918Y-107200500D01*
X109395396Y-107200500D01*
X109442844Y-107209937D01*
X109466503Y-107219737D01*
X109466508Y-107219738D01*
X109466511Y-107219739D01*
X109621153Y-107250499D01*
X109621156Y-107250500D01*
X109621158Y-107250500D01*
X109778844Y-107250500D01*
X109778845Y-107250499D01*
X109933497Y-107219737D01*
X110079179Y-107159394D01*
X110210289Y-107071789D01*
X110321789Y-106960289D01*
X110409394Y-106829179D01*
X110469737Y-106683497D01*
X110500500Y-106528842D01*
X110500500Y-106371158D01*
X110500500Y-106371155D01*
X110500499Y-106371153D01*
X110469738Y-106216510D01*
X110469737Y-106216503D01*
X110418314Y-106092355D01*
X110409397Y-106070827D01*
X110409390Y-106070814D01*
X110321789Y-105939711D01*
X110321786Y-105939707D01*
X110210292Y-105828213D01*
X110210288Y-105828210D01*
X110079185Y-105740609D01*
X110079172Y-105740602D01*
X109933501Y-105680264D01*
X109933489Y-105680261D01*
X109778845Y-105649500D01*
X109778842Y-105649500D01*
X109621158Y-105649500D01*
X109621155Y-105649500D01*
X109466511Y-105680260D01*
X109466506Y-105680262D01*
X109466504Y-105680262D01*
X109466503Y-105680263D01*
X109442844Y-105690062D01*
X109395396Y-105699500D01*
X107162229Y-105699500D01*
X107095190Y-105679815D01*
X107074548Y-105663181D01*
X103786819Y-102375451D01*
X103753334Y-102314128D01*
X103750500Y-102287770D01*
X103750500Y-101871153D01*
X104399500Y-101871153D01*
X104399500Y-102028846D01*
X104430261Y-102183489D01*
X104430264Y-102183501D01*
X104490602Y-102329172D01*
X104490609Y-102329185D01*
X104578210Y-102460288D01*
X104578213Y-102460292D01*
X104689707Y-102571786D01*
X104689711Y-102571789D01*
X104820814Y-102659390D01*
X104820827Y-102659397D01*
X104958712Y-102716510D01*
X104966503Y-102719737D01*
X105121153Y-102750499D01*
X105121156Y-102750500D01*
X105121158Y-102750500D01*
X105278844Y-102750500D01*
X105278845Y-102750499D01*
X105433497Y-102719737D01*
X105546166Y-102673067D01*
X105579172Y-102659397D01*
X105579172Y-102659396D01*
X105579179Y-102659394D01*
X105710289Y-102571789D01*
X105821789Y-102460289D01*
X105909394Y-102329179D01*
X105969737Y-102183497D01*
X106000500Y-102028842D01*
X106000500Y-101871158D01*
X106000500Y-101871155D01*
X106000499Y-101871153D01*
X105980734Y-101771789D01*
X105969737Y-101716503D01*
X105969735Y-101716498D01*
X105909397Y-101570827D01*
X105909390Y-101570814D01*
X105821789Y-101439711D01*
X105821786Y-101439707D01*
X105710292Y-101328213D01*
X105710288Y-101328210D01*
X105579185Y-101240609D01*
X105579172Y-101240602D01*
X105433501Y-101180264D01*
X105433489Y-101180261D01*
X105278845Y-101149500D01*
X105278842Y-101149500D01*
X105121158Y-101149500D01*
X105121155Y-101149500D01*
X104966510Y-101180261D01*
X104966498Y-101180264D01*
X104820827Y-101240602D01*
X104820814Y-101240609D01*
X104689711Y-101328210D01*
X104689707Y-101328213D01*
X104578213Y-101439707D01*
X104578210Y-101439711D01*
X104490609Y-101570814D01*
X104490602Y-101570827D01*
X104430264Y-101716498D01*
X104430261Y-101716510D01*
X104399500Y-101871153D01*
X103750500Y-101871153D01*
X103750500Y-100374424D01*
X103759739Y-100342958D01*
X103767856Y-100311154D01*
X103769538Y-100309587D01*
X103770185Y-100307385D01*
X103794968Y-100285909D01*
X103818992Y-100263542D01*
X103821253Y-100263133D01*
X103822989Y-100261630D01*
X103855463Y-100256960D01*
X103887752Y-100251134D01*
X103890719Y-100251891D01*
X103892147Y-100251686D01*
X103921950Y-100259862D01*
X103944474Y-100269191D01*
X103984705Y-100296072D01*
X104317049Y-100628416D01*
X104421584Y-100732951D01*
X104421585Y-100732952D01*
X104544498Y-100815080D01*
X104544511Y-100815087D01*
X104681082Y-100871656D01*
X104681087Y-100871658D01*
X104681091Y-100871658D01*
X104681092Y-100871659D01*
X104826079Y-100900500D01*
X104826082Y-100900500D01*
X111925500Y-100900500D01*
X111992539Y-100920185D01*
X112038294Y-100972989D01*
X112049500Y-101024500D01*
X112049500Y-101087770D01*
X112029815Y-101154809D01*
X112013181Y-101175451D01*
X111317050Y-101871581D01*
X111317044Y-101871589D01*
X111279074Y-101928415D01*
X111279075Y-101928416D01*
X111234913Y-101994508D01*
X111178343Y-102131082D01*
X111178340Y-102131092D01*
X111149500Y-102276079D01*
X111149500Y-102276082D01*
X111149500Y-102923918D01*
X111149500Y-102923920D01*
X111149499Y-102923920D01*
X111178340Y-103068907D01*
X111178342Y-103068913D01*
X111234915Y-103205494D01*
X111234917Y-103205498D01*
X111239861Y-103212896D01*
X111251319Y-103234333D01*
X111290604Y-103329175D01*
X111290609Y-103329185D01*
X111378210Y-103460288D01*
X111378213Y-103460292D01*
X111489707Y-103571786D01*
X111489711Y-103571789D01*
X111620814Y-103659390D01*
X111620827Y-103659397D01*
X111766498Y-103719735D01*
X111766503Y-103719737D01*
X111919469Y-103750164D01*
X111921153Y-103750499D01*
X111921156Y-103750500D01*
X111921158Y-103750500D01*
X112078844Y-103750500D01*
X112078845Y-103750499D01*
X112233497Y-103719737D01*
X112379179Y-103659394D01*
X112510289Y-103571789D01*
X112621789Y-103460289D01*
X112709394Y-103329179D01*
X112769737Y-103183497D01*
X112800500Y-103028842D01*
X112800500Y-102871158D01*
X112800500Y-102871155D01*
X112800499Y-102871153D01*
X112769738Y-102716510D01*
X112769737Y-102716503D01*
X112750223Y-102669393D01*
X112742755Y-102599927D01*
X112774029Y-102537448D01*
X112777076Y-102534290D01*
X113382951Y-101928416D01*
X113465084Y-101805495D01*
X113521658Y-101668913D01*
X113541172Y-101570814D01*
X113550500Y-101523920D01*
X113550500Y-100454604D01*
X113559939Y-100407151D01*
X113564777Y-100395471D01*
X113569737Y-100383497D01*
X113600500Y-100228842D01*
X113600500Y-100071158D01*
X113600500Y-100071155D01*
X113600499Y-100071153D01*
X113569738Y-99916510D01*
X113569737Y-99916503D01*
X113534357Y-99831087D01*
X113509397Y-99770827D01*
X113509390Y-99770814D01*
X113421789Y-99639711D01*
X113421786Y-99639707D01*
X113310292Y-99528213D01*
X113310288Y-99528210D01*
X113179185Y-99440609D01*
X113179172Y-99440602D01*
X113033501Y-99380264D01*
X113033489Y-99380261D01*
X112878845Y-99349500D01*
X112878842Y-99349500D01*
X112721158Y-99349500D01*
X112721155Y-99349500D01*
X112566511Y-99380260D01*
X112566506Y-99380262D01*
X112566504Y-99380262D01*
X112566503Y-99380263D01*
X112542844Y-99390062D01*
X112495396Y-99399500D01*
X105262229Y-99399500D01*
X105232788Y-99390855D01*
X105202802Y-99384332D01*
X105197786Y-99380577D01*
X105195190Y-99379815D01*
X105174548Y-99363181D01*
X105046072Y-99234705D01*
X105019191Y-99194473D01*
X105009397Y-99170828D01*
X105009396Y-99170826D01*
X105009394Y-99170821D01*
X104947325Y-99077928D01*
X104921789Y-99039710D01*
X104810292Y-98928213D01*
X104810288Y-98928210D01*
X104679185Y-98840609D01*
X104679172Y-98840602D01*
X104533501Y-98780264D01*
X104533489Y-98780261D01*
X104378845Y-98749500D01*
X104378842Y-98749500D01*
X104221158Y-98749500D01*
X104221155Y-98749500D01*
X104066510Y-98780261D01*
X104066507Y-98780262D01*
X104066506Y-98780262D01*
X104066503Y-98780263D01*
X103986372Y-98813454D01*
X103921952Y-98840137D01*
X103852482Y-98847605D01*
X103790003Y-98816329D01*
X103754351Y-98756240D01*
X103750500Y-98725575D01*
X103750500Y-93012229D01*
X103770185Y-92945190D01*
X103786819Y-92924548D01*
X104817618Y-91893749D01*
X105855413Y-90855953D01*
X105916734Y-90822470D01*
X105986426Y-90827454D01*
X106042359Y-90869326D01*
X106066776Y-90934790D01*
X106061023Y-90981954D01*
X105996523Y-91180461D01*
X105996523Y-91180464D01*
X105986997Y-91240609D01*
X105964500Y-91382648D01*
X105964500Y-91587352D01*
X105967374Y-91605495D01*
X105996522Y-91789534D01*
X106059781Y-91984223D01*
X106119236Y-92100908D01*
X106144864Y-92151206D01*
X106152715Y-92166613D01*
X106273028Y-92332213D01*
X106417786Y-92476971D01*
X106559112Y-92579648D01*
X106583390Y-92597287D01*
X106674840Y-92643883D01*
X106676080Y-92644515D01*
X106726876Y-92692490D01*
X106743671Y-92760311D01*
X106721134Y-92826446D01*
X106676080Y-92865485D01*
X106583386Y-92912715D01*
X106417786Y-93033028D01*
X106273028Y-93177786D01*
X106152715Y-93343386D01*
X106059781Y-93525776D01*
X105996522Y-93720465D01*
X105964500Y-93922648D01*
X105964500Y-94127351D01*
X105996522Y-94329534D01*
X106059781Y-94524223D01*
X106118331Y-94639132D01*
X106152585Y-94706359D01*
X106152715Y-94706613D01*
X106273028Y-94872213D01*
X106417786Y-95016971D01*
X106538226Y-95104474D01*
X106583390Y-95137287D01*
X106699607Y-95196503D01*
X106765776Y-95230218D01*
X106765778Y-95230218D01*
X106765781Y-95230220D01*
X106870137Y-95264127D01*
X106960465Y-95293477D01*
X107036343Y-95305495D01*
X107162648Y-95325500D01*
X107162649Y-95325500D01*
X107367351Y-95325500D01*
X107367352Y-95325500D01*
X107569534Y-95293477D01*
X107764219Y-95230220D01*
X107946610Y-95137287D01*
X108053371Y-95059721D01*
X108112213Y-95016971D01*
X108112215Y-95016968D01*
X108112219Y-95016966D01*
X108256966Y-94872219D01*
X108256968Y-94872215D01*
X108256971Y-94872213D01*
X108309732Y-94799590D01*
X108377287Y-94706610D01*
X108470220Y-94524219D01*
X108533477Y-94329534D01*
X108565500Y-94127352D01*
X108565500Y-93922648D01*
X108544224Y-93788317D01*
X108533477Y-93720465D01*
X108502458Y-93625000D01*
X108470220Y-93525781D01*
X108470218Y-93525778D01*
X108470218Y-93525776D01*
X108436503Y-93459607D01*
X108377287Y-93343390D01*
X108345092Y-93299077D01*
X108256971Y-93177786D01*
X108112213Y-93033028D01*
X107946614Y-92912715D01*
X107940006Y-92909348D01*
X107853917Y-92865483D01*
X107803123Y-92817511D01*
X107786328Y-92749690D01*
X107808865Y-92683555D01*
X107853917Y-92644516D01*
X107946610Y-92597287D01*
X108075482Y-92503657D01*
X108112213Y-92476971D01*
X108112215Y-92476968D01*
X108112219Y-92476966D01*
X108256966Y-92332219D01*
X108256968Y-92332215D01*
X108256971Y-92332213D01*
X108320046Y-92245396D01*
X108377287Y-92166610D01*
X108470220Y-91984219D01*
X108533477Y-91789534D01*
X108565500Y-91587352D01*
X108565500Y-91382648D01*
X108543003Y-91240609D01*
X108533477Y-91180465D01*
X108470218Y-90985776D01*
X108418865Y-90884991D01*
X108377287Y-90803390D01*
X108278230Y-90667048D01*
X108256972Y-90637788D01*
X108256968Y-90637784D01*
X108256966Y-90637781D01*
X108176797Y-90557612D01*
X108143313Y-90496288D01*
X108148297Y-90426597D01*
X108161375Y-90401043D01*
X108209394Y-90329179D01*
X108269737Y-90183497D01*
X108300500Y-90028842D01*
X108300500Y-89871158D01*
X108300500Y-89871155D01*
X108300499Y-89871153D01*
X108269738Y-89716510D01*
X108269737Y-89716503D01*
X108252993Y-89676079D01*
X108209397Y-89570827D01*
X108209390Y-89570814D01*
X108121789Y-89439711D01*
X108121786Y-89439707D01*
X108010292Y-89328213D01*
X108010288Y-89328210D01*
X107879185Y-89240609D01*
X107879172Y-89240602D01*
X107733501Y-89180264D01*
X107733489Y-89180261D01*
X107578845Y-89149500D01*
X107578842Y-89149500D01*
X107421158Y-89149500D01*
X107421153Y-89149500D01*
X107298691Y-89173859D01*
X107229099Y-89167632D01*
X107173922Y-89124768D01*
X107150678Y-89058879D01*
X107150500Y-89052242D01*
X107150500Y-85023920D01*
X107649499Y-85023920D01*
X107678340Y-85168907D01*
X107678343Y-85168917D01*
X107734914Y-85305491D01*
X107734916Y-85305495D01*
X107762571Y-85346884D01*
X107762570Y-85346884D01*
X107817046Y-85428414D01*
X107817052Y-85428421D01*
X108813181Y-86424548D01*
X108846666Y-86485871D01*
X108849500Y-86512229D01*
X108849500Y-92245396D01*
X108840062Y-92292844D01*
X108835118Y-92304783D01*
X108830262Y-92316506D01*
X108830260Y-92316511D01*
X108799500Y-92471153D01*
X108799500Y-92628846D01*
X108830261Y-92783489D01*
X108830264Y-92783501D01*
X108890602Y-92929172D01*
X108890609Y-92929185D01*
X108978210Y-93060288D01*
X108978213Y-93060292D01*
X109089707Y-93171786D01*
X109089711Y-93171789D01*
X109220814Y-93259390D01*
X109220827Y-93259397D01*
X109366498Y-93319735D01*
X109366503Y-93319737D01*
X109485394Y-93343386D01*
X109521153Y-93350499D01*
X109521156Y-93350500D01*
X109521158Y-93350500D01*
X109678844Y-93350500D01*
X109678845Y-93350499D01*
X109833497Y-93319737D01*
X109979179Y-93259394D01*
X110110289Y-93171789D01*
X110221789Y-93060289D01*
X110309394Y-92929179D01*
X110369737Y-92783497D01*
X110400500Y-92628842D01*
X110400500Y-92471158D01*
X110400500Y-92471155D01*
X110400499Y-92471153D01*
X110369739Y-92316511D01*
X110369738Y-92316508D01*
X110369737Y-92316503D01*
X110359937Y-92292844D01*
X110350500Y-92245396D01*
X110350500Y-86076079D01*
X110321659Y-85931092D01*
X110321658Y-85931091D01*
X110321658Y-85931087D01*
X110321656Y-85931082D01*
X110265087Y-85794511D01*
X110265080Y-85794498D01*
X110213494Y-85717294D01*
X110192616Y-85650616D01*
X110211101Y-85583236D01*
X110263080Y-85536546D01*
X110332050Y-85525370D01*
X110370401Y-85536684D01*
X110374935Y-85538868D01*
X110501732Y-85583236D01*
X110661216Y-85639042D01*
X110661228Y-85639046D01*
X110956937Y-85706540D01*
X110956946Y-85706541D01*
X110956951Y-85706542D01*
X111157874Y-85729180D01*
X111258337Y-85740499D01*
X111258340Y-85740500D01*
X111258343Y-85740500D01*
X111561660Y-85740500D01*
X111561661Y-85740499D01*
X111715694Y-85723144D01*
X111863048Y-85706542D01*
X111863051Y-85706541D01*
X111863063Y-85706540D01*
X112158772Y-85639046D01*
X112445065Y-85538868D01*
X112718341Y-85407265D01*
X112975164Y-85245892D01*
X113212304Y-85056779D01*
X113426779Y-84842304D01*
X113615892Y-84605164D01*
X113777265Y-84348341D01*
X113908868Y-84075065D01*
X114009046Y-83788772D01*
X114076540Y-83493063D01*
X114110500Y-83191657D01*
X114110500Y-82888343D01*
X114076540Y-82586937D01*
X114009046Y-82291228D01*
X113908868Y-82004935D01*
X113777265Y-81731659D01*
X113615892Y-81474836D01*
X113426779Y-81237696D01*
X113212304Y-81023221D01*
X112975164Y-80834108D01*
X112718341Y-80672735D01*
X112718338Y-80672733D01*
X112445068Y-80541133D01*
X112158783Y-80440957D01*
X112158771Y-80440953D01*
X111930556Y-80388864D01*
X111863063Y-80373460D01*
X111863060Y-80373459D01*
X111863048Y-80373457D01*
X111561663Y-80339500D01*
X111561657Y-80339500D01*
X111258343Y-80339500D01*
X111258336Y-80339500D01*
X110956951Y-80373457D01*
X110956937Y-80373460D01*
X110661228Y-80440953D01*
X110661216Y-80440957D01*
X110374931Y-80541133D01*
X110101661Y-80672733D01*
X109844837Y-80834107D01*
X109607696Y-81023220D01*
X109393219Y-81237697D01*
X109371446Y-81265000D01*
X109314258Y-81305140D01*
X109244446Y-81307989D01*
X109184176Y-81272643D01*
X109152584Y-81210324D01*
X109150500Y-81187686D01*
X109150500Y-74212229D01*
X109170185Y-74145190D01*
X109186814Y-74124553D01*
X112315297Y-70996069D01*
X112355524Y-70969191D01*
X112379179Y-70959394D01*
X112510289Y-70871789D01*
X112621789Y-70760289D01*
X112709394Y-70629179D01*
X112769737Y-70483497D01*
X112797916Y-70341835D01*
X112800500Y-70328845D01*
X112800500Y-70171155D01*
X112800499Y-70171153D01*
X112796001Y-70148541D01*
X112769737Y-70016503D01*
X112735855Y-69934703D01*
X112709397Y-69870827D01*
X112709390Y-69870814D01*
X112621789Y-69739711D01*
X112621786Y-69739707D01*
X112510292Y-69628213D01*
X112510288Y-69628210D01*
X112379185Y-69540609D01*
X112379172Y-69540602D01*
X112233501Y-69480264D01*
X112233489Y-69480261D01*
X112078845Y-69449500D01*
X112078842Y-69449500D01*
X111921158Y-69449500D01*
X111921155Y-69449500D01*
X111766510Y-69480261D01*
X111766498Y-69480264D01*
X111620827Y-69540602D01*
X111620814Y-69540609D01*
X111489711Y-69628210D01*
X111489707Y-69628213D01*
X111378213Y-69739707D01*
X111378207Y-69739715D01*
X111290607Y-69870818D01*
X111290606Y-69870819D01*
X111280805Y-69894480D01*
X111253927Y-69934703D01*
X107817049Y-73371581D01*
X107776043Y-73432951D01*
X107776044Y-73432952D01*
X107734914Y-73494508D01*
X107678343Y-73631082D01*
X107678340Y-73631092D01*
X107649500Y-73776079D01*
X107649500Y-73776082D01*
X107649500Y-85023918D01*
X107649500Y-85023920D01*
X107649499Y-85023920D01*
X107150500Y-85023920D01*
X107150500Y-73212229D01*
X107170185Y-73145190D01*
X107186814Y-73124553D01*
X111415297Y-68896069D01*
X111455524Y-68869191D01*
X111479179Y-68859394D01*
X111610289Y-68771789D01*
X111721789Y-68660289D01*
X111809394Y-68529179D01*
X111869737Y-68383497D01*
X111900500Y-68228842D01*
X111900500Y-68071158D01*
X111900500Y-68071155D01*
X111900499Y-68071153D01*
X111880097Y-67968587D01*
X111869737Y-67916503D01*
X111868085Y-67912514D01*
X111809397Y-67770827D01*
X111809390Y-67770814D01*
X111721789Y-67639711D01*
X111721786Y-67639707D01*
X111610292Y-67528213D01*
X111610288Y-67528210D01*
X111479185Y-67440609D01*
X111479172Y-67440602D01*
X111333501Y-67380264D01*
X111333489Y-67380261D01*
X111178845Y-67349500D01*
X111178842Y-67349500D01*
X111021158Y-67349500D01*
X111021155Y-67349500D01*
X110866510Y-67380261D01*
X110866498Y-67380264D01*
X110720827Y-67440602D01*
X110720814Y-67440609D01*
X110589711Y-67528210D01*
X110589707Y-67528213D01*
X110478213Y-67639707D01*
X110478207Y-67639715D01*
X110390607Y-67770818D01*
X110390606Y-67770819D01*
X110380805Y-67794480D01*
X110353927Y-67834703D01*
X105937680Y-72250950D01*
X105929735Y-72255287D01*
X105924310Y-72262536D01*
X105899547Y-72271772D01*
X105876357Y-72284435D01*
X105867328Y-72283789D01*
X105858846Y-72286953D01*
X105833023Y-72281336D01*
X105806665Y-72279451D01*
X105797612Y-72273633D01*
X105790573Y-72272102D01*
X105762318Y-72250951D01*
X105739781Y-72228414D01*
X105678416Y-72167049D01*
X104986819Y-71475451D01*
X104953334Y-71414128D01*
X104950500Y-71387770D01*
X104950500Y-69812229D01*
X104970185Y-69745190D01*
X104986819Y-69724548D01*
X105782950Y-68928417D01*
X105782952Y-68928415D01*
X105849818Y-68828342D01*
X105865084Y-68805495D01*
X105902416Y-68715368D01*
X105921659Y-68668912D01*
X105950500Y-68523917D01*
X105950500Y-68376082D01*
X105950500Y-60458206D01*
X107719500Y-60458206D01*
X107719500Y-60821794D01*
X107730337Y-60931829D01*
X107755137Y-61183630D01*
X107826064Y-61540212D01*
X107826067Y-61540223D01*
X107931614Y-61888165D01*
X108070754Y-62224078D01*
X108070756Y-62224083D01*
X108242140Y-62544720D01*
X108242151Y-62544738D01*
X108444140Y-62847035D01*
X108444150Y-62847049D01*
X108674807Y-63128106D01*
X108931893Y-63385192D01*
X108931898Y-63385196D01*
X108931899Y-63385197D01*
X109212956Y-63615854D01*
X109515268Y-63817853D01*
X109515277Y-63817858D01*
X109515279Y-63817859D01*
X109835916Y-63989243D01*
X109835918Y-63989243D01*
X109835924Y-63989247D01*
X110171836Y-64128386D01*
X110519767Y-64233930D01*
X110519773Y-64233931D01*
X110519776Y-64233932D01*
X110519787Y-64233935D01*
X110876369Y-64304862D01*
X111238206Y-64340500D01*
X111238209Y-64340500D01*
X111601791Y-64340500D01*
X111601794Y-64340500D01*
X111963631Y-64304862D01*
X112033045Y-64291054D01*
X112320212Y-64233935D01*
X112320223Y-64233932D01*
X112320223Y-64233931D01*
X112320233Y-64233930D01*
X112668164Y-64128386D01*
X113004076Y-63989247D01*
X113324732Y-63817853D01*
X113627044Y-63615854D01*
X113908101Y-63385197D01*
X114165197Y-63128101D01*
X114395854Y-62847044D01*
X114597853Y-62544732D01*
X114769247Y-62224076D01*
X114908386Y-61888164D01*
X115013930Y-61540233D01*
X115013932Y-61540223D01*
X115013935Y-61540212D01*
X115084862Y-61183630D01*
X115086311Y-61168917D01*
X115120500Y-60821794D01*
X115120500Y-60458206D01*
X115084862Y-60096369D01*
X115082300Y-60083489D01*
X115013935Y-59739787D01*
X115013933Y-59739782D01*
X115013932Y-59739781D01*
X115013930Y-59739767D01*
X114962781Y-59571153D01*
X116099500Y-59571153D01*
X116099500Y-59728846D01*
X116130261Y-59883489D01*
X116130263Y-59883497D01*
X116140061Y-59907151D01*
X116149500Y-59954604D01*
X116149500Y-61023918D01*
X116149500Y-61023920D01*
X116149499Y-61023920D01*
X116178340Y-61168907D01*
X116178343Y-61168917D01*
X116234914Y-61305492D01*
X116267812Y-61354727D01*
X116267813Y-61354730D01*
X116317046Y-61428414D01*
X116317052Y-61428421D01*
X117323335Y-62434703D01*
X118321584Y-63432952D01*
X118371861Y-63466545D01*
X118371863Y-63466547D01*
X118371864Y-63466547D01*
X118444505Y-63515084D01*
X118444506Y-63515084D01*
X118444507Y-63515085D01*
X118581082Y-63571656D01*
X118581087Y-63571658D01*
X118581091Y-63571658D01*
X118581092Y-63571659D01*
X118726079Y-63600500D01*
X118726082Y-63600500D01*
X118726083Y-63600500D01*
X118873918Y-63600500D01*
X123225500Y-63600500D01*
X123292539Y-63620185D01*
X123338294Y-63672989D01*
X123349500Y-63724500D01*
X123349500Y-65387770D01*
X123329815Y-65454809D01*
X123313181Y-65475451D01*
X119717047Y-69071584D01*
X119717045Y-69071586D01*
X119696271Y-69102678D01*
X119687983Y-69115084D01*
X119661358Y-69154930D01*
X119634914Y-69194507D01*
X119578343Y-69331082D01*
X119578340Y-69331092D01*
X119549500Y-69476079D01*
X119549500Y-73945396D01*
X119547873Y-73953571D01*
X119548790Y-73958649D01*
X119540062Y-73992845D01*
X119540062Y-73992847D01*
X119536145Y-74002303D01*
X119492305Y-74056708D01*
X119426011Y-74078774D01*
X119358312Y-74061496D01*
X119333902Y-74042534D01*
X119146071Y-73854703D01*
X119119191Y-73814475D01*
X119109394Y-73790821D01*
X119099544Y-73776079D01*
X119021789Y-73659710D01*
X118910292Y-73548213D01*
X118910288Y-73548210D01*
X118779185Y-73460609D01*
X118779172Y-73460602D01*
X118633501Y-73400264D01*
X118633489Y-73400261D01*
X118478845Y-73369500D01*
X118478842Y-73369500D01*
X118321158Y-73369500D01*
X118321155Y-73369500D01*
X118166510Y-73400261D01*
X118166498Y-73400264D01*
X118020827Y-73460602D01*
X118020814Y-73460609D01*
X117889711Y-73548210D01*
X117889707Y-73548213D01*
X117778213Y-73659707D01*
X117778210Y-73659711D01*
X117690609Y-73790814D01*
X117690602Y-73790827D01*
X117630264Y-73936498D01*
X117630261Y-73936510D01*
X117599500Y-74091153D01*
X117599500Y-74248846D01*
X117630261Y-74403489D01*
X117630264Y-74403501D01*
X117690602Y-74549172D01*
X117690609Y-74549185D01*
X117778210Y-74680288D01*
X117778213Y-74680292D01*
X117889710Y-74791789D01*
X118020815Y-74879390D01*
X118020821Y-74879394D01*
X118044475Y-74889191D01*
X118084703Y-74916071D01*
X118801578Y-75632947D01*
X118801585Y-75632953D01*
X118859704Y-75671786D01*
X118859706Y-75671787D01*
X118859709Y-75671789D01*
X118924505Y-75715084D01*
X119061087Y-75771658D01*
X119061091Y-75771658D01*
X119061092Y-75771659D01*
X119206079Y-75800500D01*
X119206082Y-75800500D01*
X119206083Y-75800500D01*
X119353917Y-75800500D01*
X120395396Y-75800500D01*
X120442844Y-75809937D01*
X120466503Y-75819737D01*
X120466508Y-75819738D01*
X120466511Y-75819739D01*
X120621153Y-75850499D01*
X120621156Y-75850500D01*
X120621158Y-75850500D01*
X120778844Y-75850500D01*
X120778845Y-75850499D01*
X120933497Y-75819737D01*
X121079179Y-75759394D01*
X121210289Y-75671789D01*
X121321789Y-75560289D01*
X121409394Y-75429179D01*
X121469737Y-75283497D01*
X121500500Y-75128842D01*
X121500500Y-74971158D01*
X121500500Y-74971155D01*
X121500499Y-74971153D01*
X121469738Y-74816510D01*
X121469737Y-74816503D01*
X121413316Y-74680289D01*
X121409397Y-74670827D01*
X121409390Y-74670814D01*
X121321789Y-74539711D01*
X121321786Y-74539707D01*
X121210292Y-74428213D01*
X121155608Y-74391674D01*
X121110804Y-74338061D01*
X121100500Y-74288572D01*
X121100500Y-74171155D01*
X121100499Y-74171153D01*
X121069739Y-74016511D01*
X121069738Y-74016508D01*
X121069737Y-74016503D01*
X121059937Y-73992844D01*
X121050500Y-73945396D01*
X121050500Y-69912229D01*
X121070185Y-69845190D01*
X121086819Y-69824548D01*
X124682950Y-66228417D01*
X124682952Y-66228415D01*
X124761199Y-66111309D01*
X124765084Y-66105495D01*
X124799578Y-66022219D01*
X124821659Y-65968912D01*
X124850500Y-65823917D01*
X124850500Y-65676082D01*
X124850500Y-63176082D01*
X124850500Y-63176079D01*
X124850499Y-63176077D01*
X124843161Y-63139182D01*
X124821659Y-63031092D01*
X124821658Y-63031091D01*
X124821658Y-63031087D01*
X124821656Y-63031082D01*
X124765086Y-62894509D01*
X124765085Y-62894507D01*
X124732186Y-62845270D01*
X124732185Y-62845268D01*
X124682956Y-62771589D01*
X124682952Y-62771584D01*
X124346071Y-62434703D01*
X124319191Y-62394475D01*
X124309394Y-62370821D01*
X124309390Y-62370815D01*
X124221789Y-62239710D01*
X124110292Y-62128213D01*
X124110288Y-62128210D01*
X123979185Y-62040609D01*
X123979172Y-62040602D01*
X123833501Y-61980264D01*
X123833489Y-61980261D01*
X123678845Y-61949500D01*
X123678842Y-61949500D01*
X123521158Y-61949500D01*
X123521155Y-61949500D01*
X123366510Y-61980261D01*
X123366498Y-61980264D01*
X123220827Y-62040602D01*
X123220820Y-62040606D01*
X123191928Y-62059911D01*
X123163955Y-62078602D01*
X123097279Y-62099480D01*
X123095065Y-62099500D01*
X119162230Y-62099500D01*
X119095191Y-62079815D01*
X119074549Y-62063181D01*
X117686819Y-60675451D01*
X117653334Y-60614128D01*
X117650500Y-60587770D01*
X117650500Y-59954604D01*
X117659939Y-59907151D01*
X117659942Y-59907144D01*
X117669737Y-59883497D01*
X117700500Y-59728842D01*
X117700500Y-59571158D01*
X117700500Y-59571155D01*
X117700499Y-59571153D01*
X117680543Y-59470827D01*
X117669737Y-59416503D01*
X117637929Y-59339711D01*
X117609397Y-59270827D01*
X117609390Y-59270814D01*
X117521789Y-59139711D01*
X117521786Y-59139707D01*
X117410292Y-59028213D01*
X117410288Y-59028210D01*
X117279185Y-58940609D01*
X117279172Y-58940602D01*
X117133501Y-58880264D01*
X117133489Y-58880261D01*
X116978845Y-58849500D01*
X116978842Y-58849500D01*
X116821158Y-58849500D01*
X116821155Y-58849500D01*
X116666510Y-58880261D01*
X116666498Y-58880264D01*
X116520827Y-58940602D01*
X116520814Y-58940609D01*
X116389711Y-59028210D01*
X116389707Y-59028213D01*
X116278213Y-59139707D01*
X116278210Y-59139711D01*
X116190609Y-59270814D01*
X116190602Y-59270827D01*
X116130264Y-59416498D01*
X116130261Y-59416510D01*
X116099500Y-59571153D01*
X114962781Y-59571153D01*
X114908386Y-59391836D01*
X114769247Y-59055924D01*
X114765813Y-59049500D01*
X114597859Y-58735279D01*
X114597858Y-58735277D01*
X114597853Y-58735268D01*
X114500640Y-58589779D01*
X119099500Y-58589779D01*
X119099500Y-58810223D01*
X119106931Y-58857138D01*
X119133985Y-59027953D01*
X119202103Y-59237604D01*
X119202104Y-59237607D01*
X119230544Y-59293422D01*
X119293255Y-59416498D01*
X119302187Y-59434026D01*
X119431752Y-59612359D01*
X119431756Y-59612364D01*
X119587636Y-59768244D01*
X119587641Y-59768248D01*
X119685864Y-59839610D01*
X119765978Y-59897816D01*
X119877430Y-59954604D01*
X119962393Y-59997896D01*
X119962396Y-59997897D01*
X120067221Y-60031956D01*
X120172049Y-60066016D01*
X120389778Y-60100501D01*
X120389779Y-60100501D01*
X120610221Y-60100501D01*
X120610222Y-60100501D01*
X120827951Y-60066016D01*
X121037606Y-59997896D01*
X121234022Y-59897816D01*
X121412365Y-59768243D01*
X121568242Y-59612366D01*
X121697815Y-59434023D01*
X121797895Y-59237607D01*
X121866015Y-59027952D01*
X121900500Y-58810223D01*
X121900500Y-58589779D01*
X121866015Y-58372050D01*
X121831955Y-58267222D01*
X121797896Y-58162397D01*
X121797895Y-58162394D01*
X121763237Y-58094376D01*
X121697815Y-57965979D01*
X121646103Y-57894803D01*
X121568247Y-57787642D01*
X121568243Y-57787637D01*
X121412363Y-57631757D01*
X121412358Y-57631753D01*
X121234025Y-57502188D01*
X121234024Y-57502187D01*
X121234022Y-57502186D01*
X121155428Y-57462140D01*
X121037606Y-57402105D01*
X121037603Y-57402104D01*
X120827952Y-57333986D01*
X120719086Y-57316743D01*
X120610222Y-57299501D01*
X120389778Y-57299501D01*
X120317201Y-57310996D01*
X120172047Y-57333986D01*
X119962396Y-57402104D01*
X119962393Y-57402105D01*
X119765974Y-57502188D01*
X119587641Y-57631753D01*
X119587636Y-57631757D01*
X119431756Y-57787637D01*
X119431752Y-57787642D01*
X119302187Y-57965975D01*
X119202104Y-58162394D01*
X119202103Y-58162397D01*
X119133985Y-58372048D01*
X119133985Y-58372050D01*
X119099500Y-58589779D01*
X114500640Y-58589779D01*
X114395854Y-58432956D01*
X114165197Y-58151899D01*
X114165196Y-58151898D01*
X114165192Y-58151893D01*
X113908106Y-57894807D01*
X113627049Y-57664150D01*
X113627048Y-57664149D01*
X113627044Y-57664146D01*
X113324732Y-57462147D01*
X113324727Y-57462144D01*
X113324720Y-57462140D01*
X113004083Y-57290756D01*
X113004078Y-57290754D01*
X112668165Y-57151614D01*
X112320223Y-57046067D01*
X112320212Y-57046064D01*
X111963630Y-56975137D01*
X111691111Y-56948296D01*
X111601794Y-56939500D01*
X111238206Y-56939500D01*
X111155679Y-56947628D01*
X110876369Y-56975137D01*
X110519787Y-57046064D01*
X110519776Y-57046067D01*
X110171834Y-57151614D01*
X109835921Y-57290754D01*
X109835916Y-57290756D01*
X109515279Y-57462140D01*
X109515261Y-57462151D01*
X109212964Y-57664140D01*
X109212950Y-57664150D01*
X108931893Y-57894807D01*
X108674807Y-58151893D01*
X108444150Y-58432950D01*
X108444140Y-58432964D01*
X108242151Y-58735261D01*
X108242140Y-58735279D01*
X108070756Y-59055916D01*
X108070754Y-59055921D01*
X107931614Y-59391834D01*
X107826067Y-59739776D01*
X107826064Y-59739787D01*
X107755137Y-60096369D01*
X107727628Y-60375679D01*
X107719500Y-60458206D01*
X105950500Y-60458206D01*
X105950500Y-60154604D01*
X105959939Y-60107151D01*
X105969737Y-60083497D01*
X106000500Y-59928842D01*
X106000500Y-59771158D01*
X106000500Y-59771155D01*
X106000499Y-59771153D01*
X105992863Y-59732764D01*
X105969737Y-59616503D01*
X105950955Y-59571158D01*
X105909397Y-59470827D01*
X105909390Y-59470814D01*
X105821789Y-59339711D01*
X105821786Y-59339707D01*
X105710292Y-59228213D01*
X105710288Y-59228210D01*
X105579185Y-59140609D01*
X105579172Y-59140602D01*
X105433501Y-59080264D01*
X105433489Y-59080261D01*
X105278845Y-59049500D01*
X105278842Y-59049500D01*
X105121158Y-59049500D01*
X105121155Y-59049500D01*
X104966510Y-59080261D01*
X104966498Y-59080264D01*
X104820827Y-59140602D01*
X104820814Y-59140609D01*
X104689711Y-59228210D01*
X104689707Y-59228213D01*
X104578213Y-59339707D01*
X104578210Y-59339711D01*
X104490609Y-59470814D01*
X104490602Y-59470827D01*
X104430264Y-59616498D01*
X104430261Y-59616510D01*
X104399500Y-59771153D01*
X104399500Y-59928846D01*
X104430261Y-60083489D01*
X104430263Y-60083497D01*
X104440061Y-60107151D01*
X104449500Y-60154604D01*
X104449500Y-68087769D01*
X104429815Y-68154808D01*
X104413181Y-68175450D01*
X103884703Y-68703927D01*
X103844480Y-68730805D01*
X103820819Y-68740606D01*
X103820818Y-68740607D01*
X103689715Y-68828207D01*
X103689707Y-68828213D01*
X103578213Y-68939707D01*
X103578210Y-68939711D01*
X103490609Y-69070814D01*
X103490602Y-69070827D01*
X103430264Y-69216498D01*
X103430261Y-69216510D01*
X103399500Y-69371153D01*
X103399500Y-69528846D01*
X103430261Y-69683489D01*
X103430263Y-69683497D01*
X103440061Y-69707151D01*
X103449500Y-69754604D01*
X103449500Y-71823918D01*
X103449500Y-71823920D01*
X103449499Y-71823920D01*
X103478340Y-71968907D01*
X103478343Y-71968917D01*
X103534914Y-72105492D01*
X103534915Y-72105494D01*
X103534916Y-72105495D01*
X103555720Y-72136631D01*
X103567812Y-72154727D01*
X103567813Y-72154730D01*
X103617046Y-72228414D01*
X103617052Y-72228421D01*
X104413181Y-73024548D01*
X104446666Y-73085871D01*
X104449500Y-73112229D01*
X104449500Y-88387770D01*
X104429815Y-88454809D01*
X104413181Y-88475451D01*
X101317049Y-91571582D01*
X101317049Y-91571583D01*
X101294390Y-91605495D01*
X101234915Y-91694506D01*
X101184060Y-91817281D01*
X101140219Y-91871684D01*
X101073925Y-91893749D01*
X101006225Y-91876470D01*
X100958615Y-91825332D01*
X100945499Y-91769831D01*
X100945499Y-90884992D01*
X100934999Y-90782203D01*
X100879814Y-90615666D01*
X100787712Y-90466344D01*
X100663656Y-90342288D01*
X100514334Y-90250186D01*
X100347797Y-90195001D01*
X100347795Y-90195000D01*
X100245010Y-90184500D01*
X99044998Y-90184500D01*
X99044981Y-90184501D01*
X98942203Y-90195000D01*
X98942200Y-90195001D01*
X98775668Y-90250185D01*
X98775663Y-90250187D01*
X98626342Y-90342289D01*
X98502289Y-90466342D01*
X98410187Y-90615663D01*
X98410186Y-90615666D01*
X98355001Y-90782203D01*
X98355001Y-90782204D01*
X98355000Y-90782204D01*
X98344500Y-90884983D01*
X95750500Y-90884983D01*
X95750500Y-82718034D01*
X96819500Y-82718034D01*
X96819500Y-83061965D01*
X96853210Y-83404249D01*
X96920308Y-83741572D01*
X97020150Y-84070706D01*
X97151770Y-84388464D01*
X97151772Y-84388469D01*
X97313893Y-84691775D01*
X97313904Y-84691793D01*
X97504975Y-84977751D01*
X97504985Y-84977765D01*
X97723176Y-85243632D01*
X97966367Y-85486823D01*
X97966372Y-85486827D01*
X97966373Y-85486828D01*
X98232240Y-85705019D01*
X98518213Y-85896100D01*
X98518222Y-85896105D01*
X98518224Y-85896106D01*
X98821530Y-86058227D01*
X98821532Y-86058227D01*
X98821538Y-86058231D01*
X99139295Y-86189850D01*
X99468422Y-86289690D01*
X99805750Y-86356789D01*
X100148031Y-86390500D01*
X100148034Y-86390500D01*
X100491966Y-86390500D01*
X100491969Y-86390500D01*
X100834250Y-86356789D01*
X101171578Y-86289690D01*
X101500705Y-86189850D01*
X101818462Y-86058231D01*
X102121787Y-85896100D01*
X102407760Y-85705019D01*
X102673627Y-85486828D01*
X102916828Y-85243627D01*
X103135019Y-84977760D01*
X103326100Y-84691787D01*
X103488231Y-84388462D01*
X103619850Y-84070705D01*
X103719690Y-83741578D01*
X103786789Y-83404250D01*
X103820500Y-83061969D01*
X103820500Y-82718031D01*
X103786789Y-82375750D01*
X103719690Y-82038422D01*
X103619850Y-81709295D01*
X103488231Y-81391538D01*
X103326100Y-81088213D01*
X103135019Y-80802240D01*
X102916828Y-80536373D01*
X102916827Y-80536372D01*
X102916823Y-80536367D01*
X102673632Y-80293176D01*
X102407765Y-80074985D01*
X102407764Y-80074984D01*
X102407760Y-80074981D01*
X102121787Y-79883900D01*
X102121782Y-79883897D01*
X102121775Y-79883893D01*
X101818469Y-79721772D01*
X101818464Y-79721770D01*
X101500706Y-79590150D01*
X101171572Y-79490308D01*
X100834248Y-79423210D01*
X100834249Y-79423210D01*
X100576456Y-79397821D01*
X100491969Y-79389500D01*
X100148031Y-79389500D01*
X100069966Y-79397188D01*
X99805750Y-79423210D01*
X99468427Y-79490308D01*
X99139293Y-79590150D01*
X98821535Y-79721770D01*
X98821530Y-79721772D01*
X98518224Y-79883893D01*
X98518206Y-79883904D01*
X98232248Y-80074975D01*
X98232234Y-80074985D01*
X97966367Y-80293176D01*
X97723176Y-80536367D01*
X97504985Y-80802234D01*
X97504975Y-80802248D01*
X97313904Y-81088206D01*
X97313893Y-81088224D01*
X97151772Y-81391530D01*
X97151770Y-81391535D01*
X97020150Y-81709293D01*
X96920308Y-82038427D01*
X96853210Y-82375750D01*
X96819500Y-82718034D01*
X95750500Y-82718034D01*
X95750500Y-75045675D01*
X96674500Y-75045675D01*
X96674500Y-75254324D01*
X96707137Y-75460389D01*
X96771612Y-75658820D01*
X96822859Y-75759397D01*
X96866330Y-75844714D01*
X96988965Y-76013505D01*
X97136495Y-76161035D01*
X97305286Y-76283670D01*
X97393116Y-76328421D01*
X97491179Y-76378387D01*
X97491181Y-76378387D01*
X97491184Y-76378389D01*
X97597545Y-76412948D01*
X97689610Y-76442862D01*
X97895676Y-76475500D01*
X97895681Y-76475500D01*
X98104324Y-76475500D01*
X98310389Y-76442862D01*
X98508816Y-76378389D01*
X98694714Y-76283670D01*
X98863505Y-76161035D01*
X99011035Y-76013505D01*
X99133670Y-75844714D01*
X99228389Y-75658816D01*
X99292862Y-75460389D01*
X99297806Y-75429172D01*
X99325500Y-75254324D01*
X99325500Y-75045675D01*
X99292862Y-74839610D01*
X99241095Y-74680289D01*
X99228389Y-74641184D01*
X99228387Y-74641181D01*
X99228387Y-74641179D01*
X99133669Y-74455285D01*
X99114000Y-74428213D01*
X99011035Y-74286495D01*
X98863505Y-74138965D01*
X98694714Y-74016330D01*
X98508820Y-73921612D01*
X98310389Y-73857137D01*
X98104324Y-73824500D01*
X98104319Y-73824500D01*
X97895681Y-73824500D01*
X97895676Y-73824500D01*
X97689610Y-73857137D01*
X97491179Y-73921612D01*
X97305285Y-74016330D01*
X97136493Y-74138966D01*
X96988966Y-74286493D01*
X96866330Y-74455285D01*
X96771612Y-74641179D01*
X96707137Y-74839610D01*
X96674500Y-75045675D01*
X95750500Y-75045675D01*
X95750500Y-72454604D01*
X95759939Y-72407151D01*
X95769737Y-72383497D01*
X95800500Y-72228842D01*
X95800500Y-72071158D01*
X95800500Y-72071155D01*
X95800499Y-72071153D01*
X95769738Y-71916510D01*
X95769737Y-71916503D01*
X95769735Y-71916498D01*
X95709397Y-71770827D01*
X95709390Y-71770814D01*
X95621789Y-71639711D01*
X95621786Y-71639707D01*
X95510292Y-71528213D01*
X95510288Y-71528210D01*
X95379185Y-71440609D01*
X95379172Y-71440602D01*
X95233501Y-71380264D01*
X95233489Y-71380261D01*
X95078845Y-71349500D01*
X95078842Y-71349500D01*
X94921158Y-71349500D01*
X94921155Y-71349500D01*
X94766510Y-71380261D01*
X94766498Y-71380264D01*
X94620827Y-71440602D01*
X94620814Y-71440609D01*
X94489711Y-71528210D01*
X94489707Y-71528213D01*
X94378213Y-71639707D01*
X94378210Y-71639711D01*
X94290609Y-71770814D01*
X94290602Y-71770827D01*
X94230264Y-71916498D01*
X94230261Y-71916510D01*
X94199500Y-72071153D01*
X93792291Y-72071153D01*
X93791139Y-64271153D01*
X96799500Y-64271153D01*
X96799500Y-64428846D01*
X96830261Y-64583489D01*
X96830264Y-64583501D01*
X96890602Y-64729172D01*
X96890609Y-64729185D01*
X96978210Y-64860288D01*
X96978213Y-64860292D01*
X97089707Y-64971786D01*
X97089711Y-64971789D01*
X97220814Y-65059390D01*
X97220827Y-65059397D01*
X97366498Y-65119735D01*
X97366503Y-65119737D01*
X97521153Y-65150499D01*
X97521156Y-65150500D01*
X97521158Y-65150500D01*
X97678844Y-65150500D01*
X97678845Y-65150499D01*
X97833497Y-65119737D01*
X97979179Y-65059394D01*
X98110289Y-64971789D01*
X98221789Y-64860289D01*
X98309394Y-64729179D01*
X98369737Y-64583497D01*
X98400500Y-64428842D01*
X98400500Y-64271158D01*
X98400500Y-64271155D01*
X98400499Y-64271153D01*
X98381587Y-64176079D01*
X98369737Y-64116503D01*
X98330046Y-64020679D01*
X98309397Y-63970827D01*
X98309390Y-63970814D01*
X98221789Y-63839711D01*
X98221786Y-63839707D01*
X98110292Y-63728213D01*
X98110288Y-63728210D01*
X97979185Y-63640609D01*
X97979172Y-63640602D01*
X97833501Y-63580264D01*
X97833489Y-63580261D01*
X97678845Y-63549500D01*
X97678842Y-63549500D01*
X97521158Y-63549500D01*
X97521155Y-63549500D01*
X97366510Y-63580261D01*
X97366498Y-63580264D01*
X97220827Y-63640602D01*
X97220814Y-63640609D01*
X97089711Y-63728210D01*
X97089707Y-63728213D01*
X96978213Y-63839707D01*
X96978210Y-63839711D01*
X96890609Y-63970814D01*
X96890602Y-63970827D01*
X96830264Y-64116498D01*
X96830261Y-64116510D01*
X96799500Y-64271153D01*
X93791139Y-64271153D01*
X93790515Y-60045675D01*
X96674500Y-60045675D01*
X96674500Y-60254324D01*
X96707137Y-60460389D01*
X96771612Y-60658820D01*
X96815606Y-60745162D01*
X96866330Y-60844714D01*
X96988965Y-61013505D01*
X97136495Y-61161035D01*
X97305286Y-61283670D01*
X97393116Y-61328421D01*
X97491179Y-61378387D01*
X97491181Y-61378387D01*
X97491184Y-61378389D01*
X97597545Y-61412948D01*
X97689610Y-61442862D01*
X97895676Y-61475500D01*
X97895681Y-61475500D01*
X98104324Y-61475500D01*
X98310389Y-61442862D01*
X98508816Y-61378389D01*
X98694714Y-61283670D01*
X98863505Y-61161035D01*
X99011035Y-61013505D01*
X99133670Y-60844714D01*
X99228389Y-60658816D01*
X99292862Y-60460389D01*
X99293208Y-60458206D01*
X99325500Y-60254324D01*
X99325500Y-60045675D01*
X99292862Y-59839610D01*
X99260427Y-59739787D01*
X99228389Y-59641184D01*
X99228387Y-59641181D01*
X99228387Y-59641179D01*
X99141585Y-59470821D01*
X99133670Y-59455286D01*
X99011035Y-59286495D01*
X98863505Y-59138965D01*
X98694714Y-59016330D01*
X98508820Y-58921612D01*
X98310389Y-58857137D01*
X98104324Y-58824500D01*
X98104319Y-58824500D01*
X97895681Y-58824500D01*
X97895676Y-58824500D01*
X97689610Y-58857137D01*
X97491179Y-58921612D01*
X97305285Y-59016330D01*
X97136493Y-59138966D01*
X96988966Y-59286493D01*
X96866330Y-59455285D01*
X96771612Y-59641179D01*
X96707137Y-59839610D01*
X96674500Y-60045675D01*
X93790515Y-60045675D01*
X93790500Y-59942861D01*
X93790632Y-59937135D01*
X93791016Y-59928846D01*
X93807339Y-59575764D01*
X93808396Y-59564369D01*
X93810604Y-59548541D01*
X93857979Y-59208919D01*
X93860079Y-59197683D01*
X93942251Y-58848313D01*
X93945374Y-58837334D01*
X94059439Y-58497012D01*
X94063554Y-58486390D01*
X94208543Y-58158019D01*
X94213618Y-58147828D01*
X94388265Y-57834276D01*
X94394291Y-57824544D01*
X94400786Y-57815063D01*
X94597123Y-57528446D01*
X94604005Y-57519333D01*
X94833291Y-57243214D01*
X94840986Y-57234774D01*
X95094774Y-56980986D01*
X95103214Y-56973291D01*
X95379333Y-56744005D01*
X95388446Y-56737123D01*
X95684549Y-56534287D01*
X95694276Y-56528265D01*
X96007828Y-56353618D01*
X96018019Y-56348543D01*
X96346390Y-56203554D01*
X96357012Y-56199439D01*
X96697334Y-56085374D01*
X96708313Y-56082251D01*
X97057683Y-56000079D01*
X97068919Y-55997979D01*
X97424378Y-55948395D01*
X97435764Y-55947339D01*
X97797145Y-55930632D01*
X97802872Y-55930500D01*
X97865892Y-55930500D01*
X124724108Y-55930500D01*
X124787128Y-55930500D01*
X124792855Y-55930632D01*
G37*
%TD.AperFunction*%
%TA.AperFunction,Conductor*%
G36*
X128352268Y-64818716D02*
G01*
X128379362Y-64781426D01*
X128469542Y-64604438D01*
X128529164Y-64420940D01*
X128568601Y-64363265D01*
X128632960Y-64336066D01*
X128701806Y-64347980D01*
X128753282Y-64395224D01*
X128771095Y-64459215D01*
X128771748Y-66321091D01*
X128752087Y-66388137D01*
X128699299Y-66433910D01*
X128630144Y-66443878D01*
X128566578Y-66414875D01*
X128529817Y-66359452D01*
X128470006Y-66175370D01*
X128470005Y-66175367D01*
X128424035Y-66085149D01*
X128379787Y-65998306D01*
X128262981Y-65837536D01*
X128122464Y-65697019D01*
X127961694Y-65580213D01*
X127961690Y-65580211D01*
X127804669Y-65500204D01*
X127753873Y-65452229D01*
X127737078Y-65384408D01*
X127759616Y-65318273D01*
X127804670Y-65279234D01*
X127961422Y-65199365D01*
X127998716Y-65172269D01*
X127435942Y-64609495D01*
X127496081Y-64593382D01*
X127611920Y-64526503D01*
X127706502Y-64431921D01*
X127773381Y-64316082D01*
X127789495Y-64255943D01*
X128352268Y-64818716D01*
G37*
%TD.AperFunction*%
%TD*%
M02*
