%TF.GenerationSoftware,KiCad,Pcbnew,9.0.0*%
%TF.CreationDate,2025-07-10T14:22:36+03:00*%
%TF.ProjectId,easy home electronics,65617379-2068-46f6-9d65-20656c656374,rev?*%
%TF.SameCoordinates,Original*%
%TF.FileFunction,Copper,L1,Top*%
%TF.FilePolarity,Positive*%
%FSLAX46Y46*%
G04 Gerber Fmt 4.6, Leading zero omitted, Abs format (unit mm)*
G04 Created by KiCad (PCBNEW 9.0.0) date 2025-07-10 14:22:36*
%MOMM*%
%LPD*%
G01*
G04 APERTURE LIST*
G04 Aperture macros list*
%AMRoundRect*
0 Rectangle with rounded corners*
0 $1 Rounding radius*
0 $2 $3 $4 $5 $6 $7 $8 $9 X,Y pos of 4 corners*
0 Add a 4 corners polygon primitive as box body*
4,1,4,$2,$3,$4,$5,$6,$7,$8,$9,$2,$3,0*
0 Add four circle primitives for the rounded corners*
1,1,$1+$1,$2,$3*
1,1,$1+$1,$4,$5*
1,1,$1+$1,$6,$7*
1,1,$1+$1,$8,$9*
0 Add four rect primitives between the rounded corners*
20,1,$1+$1,$2,$3,$4,$5,0*
20,1,$1+$1,$4,$5,$6,$7,0*
20,1,$1+$1,$6,$7,$8,$9,0*
20,1,$1+$1,$8,$9,$2,$3,0*%
%AMFreePoly0*
4,1,6,1.000000,0.000000,0.500000,-0.750000,-0.500000,-0.750000,-0.500000,0.750000,0.500000,0.750000,1.000000,0.000000,1.000000,0.000000,$1*%
%AMFreePoly1*
4,1,6,0.500000,-0.750000,-0.650000,-0.750000,-0.150000,0.000000,-0.650000,0.750000,0.500000,0.750000,0.500000,-0.750000,0.500000,-0.750000,$1*%
G04 Aperture macros list end*
%TA.AperFunction,SMDPad,CuDef*%
%ADD10RoundRect,0.250000X-0.625000X0.375000X-0.625000X-0.375000X0.625000X-0.375000X0.625000X0.375000X0*%
%TD*%
%TA.AperFunction,ComponentPad*%
%ADD11C,1.800000*%
%TD*%
%TA.AperFunction,SMDPad,CuDef*%
%ADD12RoundRect,0.250000X-0.425000X-1.425000X0.425000X-1.425000X0.425000X1.425000X-0.425000X1.425000X0*%
%TD*%
%TA.AperFunction,ComponentPad*%
%ADD13C,2.000000*%
%TD*%
%TA.AperFunction,SMDPad,CuDef*%
%ADD14RoundRect,0.250000X0.400000X1.450000X-0.400000X1.450000X-0.400000X-1.450000X0.400000X-1.450000X0*%
%TD*%
%TA.AperFunction,SMDPad,CuDef*%
%ADD15RoundRect,0.249999X1.450001X-0.450001X1.450001X0.450001X-1.450001X0.450001X-1.450001X-0.450001X0*%
%TD*%
%TA.AperFunction,SMDPad,CuDef*%
%ADD16R,1.500000X0.900000*%
%TD*%
%TA.AperFunction,HeatsinkPad*%
%ADD17C,0.600000*%
%TD*%
%TA.AperFunction,HeatsinkPad*%
%ADD18R,2.900000X2.900000*%
%TD*%
%TA.AperFunction,SMDPad,CuDef*%
%ADD19RoundRect,0.250000X-1.450000X0.400000X-1.450000X-0.400000X1.450000X-0.400000X1.450000X0.400000X0*%
%TD*%
%TA.AperFunction,ComponentPad*%
%ADD20C,0.800000*%
%TD*%
%TA.AperFunction,ComponentPad*%
%ADD21C,6.400000*%
%TD*%
%TA.AperFunction,SMDPad,CuDef*%
%ADD22RoundRect,0.250000X-0.400000X-1.450000X0.400000X-1.450000X0.400000X1.450000X-0.400000X1.450000X0*%
%TD*%
%TA.AperFunction,ComponentPad*%
%ADD23C,0.700000*%
%TD*%
%TA.AperFunction,ComponentPad*%
%ADD24C,4.400000*%
%TD*%
%TA.AperFunction,SMDPad,CuDef*%
%ADD25RoundRect,0.250000X1.450000X-0.400000X1.450000X0.400000X-1.450000X0.400000X-1.450000X-0.400000X0*%
%TD*%
%TA.AperFunction,SMDPad,CuDef*%
%ADD26RoundRect,0.249999X-1.450001X0.450001X-1.450001X-0.450001X1.450001X-0.450001X1.450001X0.450001X0*%
%TD*%
%TA.AperFunction,SMDPad,CuDef*%
%ADD27RoundRect,0.250000X1.412500X0.550000X-1.412500X0.550000X-1.412500X-0.550000X1.412500X-0.550000X0*%
%TD*%
%TA.AperFunction,SMDPad,CuDef*%
%ADD28RoundRect,0.200000X0.200000X0.600000X-0.200000X0.600000X-0.200000X-0.600000X0.200000X-0.600000X0*%
%TD*%
%TA.AperFunction,SMDPad,CuDef*%
%ADD29RoundRect,0.250001X0.799999X1.249999X-0.799999X1.249999X-0.799999X-1.249999X0.799999X-1.249999X0*%
%TD*%
%TA.AperFunction,SMDPad,CuDef*%
%ADD30R,4.000000X4.000000*%
%TD*%
%TA.AperFunction,ComponentPad*%
%ADD31RoundRect,0.250000X-0.550000X-0.550000X0.550000X-0.550000X0.550000X0.550000X-0.550000X0.550000X0*%
%TD*%
%TA.AperFunction,ComponentPad*%
%ADD32C,1.600000*%
%TD*%
%TA.AperFunction,SMDPad,CuDef*%
%ADD33RoundRect,0.250000X0.625000X-0.375000X0.625000X0.375000X-0.625000X0.375000X-0.625000X-0.375000X0*%
%TD*%
%TA.AperFunction,SMDPad,CuDef*%
%ADD34RoundRect,0.090000X-0.360000X0.660000X-0.360000X-0.660000X0.360000X-0.660000X0.360000X0.660000X0*%
%TD*%
%TA.AperFunction,ComponentPad*%
%ADD35C,1.524000*%
%TD*%
%TA.AperFunction,SMDPad,CuDef*%
%ADD36FreePoly0,90.000000*%
%TD*%
%TA.AperFunction,SMDPad,CuDef*%
%ADD37FreePoly1,90.000000*%
%TD*%
%TA.AperFunction,ComponentPad*%
%ADD38R,1.605000X1.605000*%
%TD*%
%TA.AperFunction,ComponentPad*%
%ADD39C,1.605000*%
%TD*%
%TA.AperFunction,ComponentPad*%
%ADD40C,6.000000*%
%TD*%
%TA.AperFunction,SMDPad,CuDef*%
%ADD41FreePoly0,180.000000*%
%TD*%
%TA.AperFunction,SMDPad,CuDef*%
%ADD42FreePoly1,180.000000*%
%TD*%
%TA.AperFunction,ComponentPad*%
%ADD43R,1.905000X2.000000*%
%TD*%
%TA.AperFunction,ComponentPad*%
%ADD44O,1.905000X2.000000*%
%TD*%
%TA.AperFunction,ComponentPad*%
%ADD45R,1.508000X1.508000*%
%TD*%
%TA.AperFunction,ComponentPad*%
%ADD46C,1.508000*%
%TD*%
%TA.AperFunction,SMDPad,CuDef*%
%ADD47R,1.350000X0.400000*%
%TD*%
%TA.AperFunction,SMDPad,CuDef*%
%ADD48R,1.400000X1.600000*%
%TD*%
%TA.AperFunction,SMDPad,CuDef*%
%ADD49R,1.900000X1.900000*%
%TD*%
%TA.AperFunction,ComponentPad*%
%ADD50O,2.500000X1.310000*%
%TD*%
%TA.AperFunction,SMDPad,CuDef*%
%ADD51RoundRect,0.249999X-0.450001X-1.450001X0.450001X-1.450001X0.450001X1.450001X-0.450001X1.450001X0*%
%TD*%
%TA.AperFunction,ComponentPad*%
%ADD52C,1.650000*%
%TD*%
%TA.AperFunction,ComponentPad*%
%ADD53R,1.638300X1.638300*%
%TD*%
%TA.AperFunction,ComponentPad*%
%ADD54C,1.638300*%
%TD*%
%TA.AperFunction,ComponentPad*%
%ADD55R,1.240000X1.240000*%
%TD*%
%TA.AperFunction,ComponentPad*%
%ADD56C,1.240000*%
%TD*%
%TA.AperFunction,ViaPad*%
%ADD57C,0.600000*%
%TD*%
%TA.AperFunction,Conductor*%
%ADD58C,0.500000*%
%TD*%
%TA.AperFunction,Conductor*%
%ADD59C,0.200000*%
%TD*%
%TA.AperFunction,Conductor*%
%ADD60C,1.000000*%
%TD*%
G04 APERTURE END LIST*
D10*
%TO.P,D3,1,K*%
%TO.N,GND*%
X41880000Y-91100002D03*
%TO.P,D3,2,A*%
%TO.N,Net-(D3-A)*%
X41880000Y-93900000D03*
%TD*%
D11*
%TO.P,RV1,1*%
%TO.N,/N*%
X119100000Y-66200000D03*
%TO.P,RV1,2*%
%TO.N,Net-(PS1-AC1)*%
X120500000Y-58700001D03*
%TD*%
D12*
%TO.P,F1,1*%
%TO.N,/L2*%
X108400000Y-75550000D03*
%TO.P,F1,2*%
%TO.N,Net-(PS1-AC1)*%
X114200000Y-75550000D03*
%TD*%
D13*
%TO.P,SW1,1,1*%
%TO.N,/button in*%
X26413806Y-112753806D03*
X31010000Y-117350000D03*
%TO.P,SW1,2,2*%
%TO.N,GND*%
X23231825Y-115935787D03*
X27828020Y-120531981D03*
%TD*%
D14*
%TO.P,R3,1*%
%TO.N,3V3*%
X45795001Y-115790000D03*
%TO.P,R3,2*%
%TO.N,/boot*%
X41344999Y-115790000D03*
%TD*%
D15*
%TO.P,C2,1*%
%TO.N,Net-(JP1-B)*%
X52070000Y-107890000D03*
%TO.P,C2,2*%
%TO.N,GND*%
X52070000Y-103790000D03*
%TD*%
D16*
%TO.P,U2,1,3V3*%
%TO.N,3V3*%
X48720000Y-111950000D03*
%TO.P,U2,2,EN*%
%TO.N,Net-(JP1-B)*%
X48720000Y-110450000D03*
%TO.P,U2,3,IO4*%
%TO.N,/V_sense*%
X48720000Y-108950000D03*
%TO.P,U2,4,IO5*%
%TO.N,/switch *%
X48720000Y-107450000D03*
%TO.P,U2,5,IO6*%
%TO.N,/ring light*%
X48720000Y-105950000D03*
%TO.P,U2,6,IO7*%
%TO.N,Net-(U2-IO7)*%
X48720000Y-104450000D03*
%TO.P,U2,7,IO8*%
%TO.N,Net-(U2-IO8)*%
X48720000Y-102950000D03*
%TO.P,U2,8,IO9*%
%TO.N,Net-(U2-IO9)*%
X48720000Y-101450000D03*
%TO.P,U2,9,GND*%
%TO.N,GND*%
X48720000Y-99950000D03*
%TO.P,U2,10,IO10*%
%TO.N,/button in*%
X31220000Y-99950000D03*
%TO.P,U2,11,IO20/RXD*%
%TO.N,Net-(J4-Pin_2)*%
X31220000Y-101450000D03*
%TO.P,U2,12,IO21/TXD*%
%TO.N,Net-(J4-Pin_3)*%
X31220000Y-102950000D03*
%TO.P,U2,13,IO18*%
%TO.N,/USB_D-*%
X31220000Y-104450000D03*
%TO.P,U2,14,IO19*%
%TO.N,/USB_D+*%
X31220000Y-105950000D03*
%TO.P,U2,15,IO3*%
%TO.N,/I_sense*%
X31220000Y-107450000D03*
%TO.P,U2,16,IO2*%
%TO.N,/L_sense*%
X31220000Y-108950000D03*
%TO.P,U2,17,IO1*%
%TO.N,/XTAL OUT*%
X31220000Y-110450000D03*
%TO.P,U2,18,IO0*%
%TO.N,/boot*%
X31220000Y-111950000D03*
D17*
%TO.P,U2,19,GND*%
%TO.N,GND*%
X40110000Y-106299999D03*
X40110000Y-105200000D03*
X39560000Y-106850000D03*
X39560000Y-105750000D03*
X39560000Y-104650000D03*
X39010000Y-106300000D03*
D18*
X39010000Y-105750000D03*
D17*
X39010000Y-105199999D03*
X38460000Y-106850000D03*
X38460000Y-105750000D03*
X38460000Y-104650000D03*
X37910000Y-106299999D03*
X37910000Y-105200000D03*
%TD*%
D19*
%TO.P,R13,1*%
%TO.N,/triac in*%
X114840000Y-90724999D03*
%TO.P,R13,2*%
%TO.N,GND_base*%
X114840000Y-95175001D03*
%TD*%
D20*
%TO.P,REF\u002A\u002A,1*%
%TO.N,N/C*%
X109020000Y-60640000D03*
X109722944Y-58942944D03*
X109722944Y-62337056D03*
X111420000Y-58240000D03*
D21*
X111420000Y-60640000D03*
D20*
X111420000Y-63040000D03*
X113117056Y-58942944D03*
X113117056Y-62337056D03*
X113820000Y-60640000D03*
%TD*%
D22*
%TO.P,R19,1*%
%TO.N,/ring light*%
X35004999Y-96570000D03*
%TO.P,R19,2*%
%TO.N,Net-(D4-DIN)*%
X39455001Y-96570000D03*
%TD*%
D23*
%TO.P,REF\u002A\u002A,1*%
%TO.N,N/C*%
X109760000Y-83040000D03*
X110243274Y-81873274D03*
X110243274Y-84206726D03*
X111410000Y-81390000D03*
D24*
X111410000Y-83040000D03*
D23*
X111410000Y-84690000D03*
X112576726Y-81873274D03*
X112576726Y-84206726D03*
X113060000Y-83040000D03*
%TD*%
D14*
%TO.P,R7,1*%
%TO.N,V5V*%
X28535001Y-108160000D03*
%TO.P,R7,2*%
%TO.N,/button in*%
X24084999Y-108160000D03*
%TD*%
D25*
%TO.P,R2,1*%
%TO.N,Net-(U2-IO7)*%
X52110000Y-101595001D03*
%TO.P,R2,2*%
%TO.N,Net-(D1-A)*%
X52110000Y-97144999D03*
%TD*%
D26*
%TO.P,C6,1*%
%TO.N,3V3*%
X48900000Y-114750000D03*
%TO.P,C6,2*%
%TO.N,GND*%
X48900000Y-118850000D03*
%TD*%
D27*
%TO.P,C8,1*%
%TO.N,VCC_base*%
X124117499Y-72870000D03*
%TO.P,C8,2*%
%TO.N,GND_base*%
X119042501Y-72870000D03*
%TD*%
D28*
%TO.P,J4,1,Pin_1*%
%TO.N,VCC*%
X29690000Y-95500000D03*
%TO.P,J4,2,Pin_2*%
%TO.N,Net-(J4-Pin_2)*%
X28440000Y-95500000D03*
%TO.P,J4,3,Pin_3*%
%TO.N,Net-(J4-Pin_3)*%
X27190000Y-95500000D03*
%TO.P,J4,4,Pin_4*%
%TO.N,GND*%
X25940000Y-95500000D03*
D29*
%TO.P,J4,MP*%
%TO.N,N/C*%
X32240000Y-92600000D03*
X23390000Y-92600000D03*
%TD*%
D30*
%TO.P,TP2,1,1*%
%TO.N,/N*%
X106130000Y-82770000D03*
%TD*%
D31*
%TO.P,U4,1*%
%TO.N,Net-(R8-Pad2)*%
X99645000Y-91485000D03*
D32*
%TO.P,U4,2*%
%TO.N,GND_base*%
X99645000Y-94025000D03*
%TO.P,U4,3*%
%TO.N,Net-(R12-Pad1)*%
X107265000Y-94025000D03*
%TO.P,U4,4*%
%TO.N,V5V_base*%
X107265000Y-91485000D03*
%TD*%
D33*
%TO.P,D1,1,K*%
%TO.N,GND*%
X56190000Y-100529999D03*
%TO.P,D1,2,A*%
%TO.N,Net-(D1-A)*%
X56190000Y-97730001D03*
%TD*%
D34*
%TO.P,D4,1,VDD*%
%TO.N,V5V*%
X47740000Y-91210000D03*
%TO.P,D4,2,DOUT*%
%TO.N,unconnected-(D4-DOUT-Pad2)*%
X44440000Y-91210000D03*
%TO.P,D4,3,VSS*%
%TO.N,GND*%
X44440000Y-96110000D03*
%TO.P,D4,4,DIN*%
%TO.N,Net-(D4-DIN)*%
X47740000Y-96110000D03*
%TD*%
D35*
%TO.P,J8,1,1*%
%TO.N,V5V_base*%
X127300000Y-69200000D03*
%TO.P,J8,2,2*%
%TO.N,VCC_base*%
X127300000Y-66660000D03*
%TO.P,J8,3,3*%
%TO.N,GND_base*%
X127300000Y-64120001D03*
%TD*%
D36*
%TO.P,JP2,1,A*%
%TO.N,GND*%
X38760000Y-116184999D03*
D37*
%TO.P,JP2,2,B*%
%TO.N,/boot*%
X38760000Y-114735001D03*
%TD*%
D14*
%TO.P,R1,1*%
%TO.N,3V3*%
X56405001Y-111120000D03*
%TO.P,R1,2*%
%TO.N,Net-(JP1-B)*%
X51954999Y-111120000D03*
%TD*%
D38*
%TO.P,J6,1,1*%
%TO.N,/current_sense*%
X117760000Y-119290000D03*
D39*
%TO.P,J6,2,2*%
%TO.N,GND_base*%
X115220000Y-119290000D03*
%TO.P,J6,3,3*%
%TO.N,/Volt_sense*%
X112680001Y-119290000D03*
%TO.P,J6,4,4*%
%TO.N,GND_base*%
X110139999Y-119290000D03*
%TO.P,J6,5,5*%
%TO.N,/switch_base*%
X107600000Y-119290000D03*
%TO.P,J6,6,6*%
%TO.N,GND_base*%
X105060000Y-119290000D03*
%TD*%
D25*
%TO.P,R8,1*%
%TO.N,/switch_base*%
X96190000Y-95265001D03*
%TO.P,R8,2*%
%TO.N,Net-(R8-Pad2)*%
X96190000Y-90814999D03*
%TD*%
D20*
%TO.P,J2,1,Pin_1*%
%TO.N,/N*%
X98070000Y-82890000D03*
X98729010Y-81299010D03*
X98729010Y-84480990D03*
X100320000Y-80640000D03*
D40*
X100320000Y-82890000D03*
D20*
X100320000Y-85140000D03*
X101910990Y-81299010D03*
X101910990Y-84480990D03*
X102570000Y-82890000D03*
%TD*%
D41*
%TO.P,JP1,1,A*%
%TO.N,GND*%
X56619998Y-107590000D03*
D42*
%TO.P,JP1,2,B*%
%TO.N,Net-(JP1-B)*%
X55170000Y-107590000D03*
%TD*%
D23*
%TO.P,REF\u002A\u002A,1*%
%TO.N,N/C*%
X123950000Y-59180000D03*
X124433274Y-58013274D03*
X124433274Y-60346726D03*
X125600000Y-57530000D03*
D24*
X125600000Y-59180000D03*
D23*
X125600000Y-60830000D03*
X126766726Y-58013274D03*
X126766726Y-60346726D03*
X127250000Y-59180000D03*
%TD*%
D25*
%TO.P,R12,1*%
%TO.N,Net-(R12-Pad1)*%
X110590000Y-95175001D03*
%TO.P,R12,2*%
%TO.N,/triac in*%
X110590000Y-90724999D03*
%TD*%
D43*
%TO.P,Q1,1,A1*%
%TO.N,/L3*%
X119860000Y-93595000D03*
D44*
%TO.P,Q1,2,A2*%
%TO.N,/L2*%
X122400000Y-93595000D03*
%TO.P,Q1,3,G*%
%TO.N,/triac in*%
X124939999Y-93595000D03*
%TD*%
D45*
%TO.P,PS1,1,AC1*%
%TO.N,Net-(PS1-AC1)*%
X96470000Y-104370000D03*
D46*
%TO.P,PS1,2,AC2*%
%TO.N,/N*%
X96470000Y-109370000D03*
%TO.P,PS1,3,-VO*%
%TO.N,GND_base*%
X125870000Y-99170000D03*
%TO.P,PS1,4,+VO*%
%TO.N,VCC_base*%
X125870000Y-114570000D03*
%TD*%
D30*
%TO.P,TP13,1,1*%
%TO.N,/L3*%
X116650000Y-82830000D03*
%TD*%
D22*
%TO.P,R4,1*%
%TO.N,V5V*%
X35064998Y-92160000D03*
%TO.P,R4,2*%
%TO.N,Net-(D3-A)*%
X39515000Y-92160000D03*
%TD*%
D47*
%TO.P,J3,1,VBUS*%
%TO.N,VCC*%
X26070000Y-99930000D03*
%TO.P,J3,2,DN*%
%TO.N,/USB_D-*%
X26070000Y-100580000D03*
%TO.P,J3,3,DP*%
%TO.N,/USB_D+*%
X26070001Y-101230000D03*
%TO.P,J3,4,ID*%
%TO.N,unconnected-(J3-ID-Pad4)*%
X26070000Y-101880000D03*
%TO.P,J3,5,GND*%
%TO.N,GND*%
X26070000Y-102530000D03*
D48*
%TO.P,J3,SH1,SHIELD*%
%TO.N,unconnected-(J3-SHIELD-PadSH1)_5*%
X25845000Y-98030000D03*
D49*
%TO.P,J3,SH2,SHIELD*%
%TO.N,unconnected-(J3-SHIELD-PadSH1)_1*%
X23395000Y-100030000D03*
%TO.P,J3,SH3,SHIELD*%
%TO.N,unconnected-(J3-SHIELD-PadSH1)*%
X23395000Y-102430000D03*
D48*
%TO.P,J3,SH4,SHIELD*%
%TO.N,unconnected-(J3-SHIELD-PadSH1)_3*%
X25845000Y-104430000D03*
D50*
%TO.P,J3,SH5,SHIELD*%
%TO.N,unconnected-(J3-SHIELD-PadSH1)_2*%
X23395000Y-104485001D03*
%TO.P,J3,SH6,SHIELD*%
%TO.N,unconnected-(J3-SHIELD-PadSH1)_4*%
X23395000Y-97974999D03*
%TD*%
D51*
%TO.P,C5,1*%
%TO.N,3V3*%
X52100000Y-115590000D03*
%TO.P,C5,2*%
%TO.N,GND*%
X56200000Y-115590000D03*
%TD*%
D20*
%TO.P,J1,1,Pin_1*%
%TO.N,/L*%
X120320000Y-82890000D03*
X120979010Y-81299010D03*
X120979010Y-84480990D03*
X122570000Y-80640000D03*
D40*
X122570000Y-82890000D03*
D20*
X122570000Y-85140000D03*
X124160990Y-81299010D03*
X124160990Y-84480990D03*
X124820000Y-82890000D03*
%TD*%
D52*
%TO.P,C4,1*%
%TO.N,Net-(PS1-AC1)*%
X98000000Y-60150000D03*
%TO.P,C4,2*%
%TO.N,/N*%
X98000000Y-75150000D03*
%TD*%
D53*
%TO.P,J7,1,1*%
%TO.N,V5V*%
X50957500Y-91590000D03*
D54*
%TO.P,J7,2,2*%
%TO.N,VCC*%
X53497500Y-91590000D03*
%TO.P,J7,3,3*%
%TO.N,GND*%
X56037500Y-91590000D03*
%TD*%
D55*
%TO.P,J5,1,1*%
%TO.N,/I_sense*%
X45642500Y-120220000D03*
D56*
%TO.P,J5,2,2*%
%TO.N,GND*%
X43102500Y-120220000D03*
%TO.P,J5,3,3*%
%TO.N,/V_sense*%
X40562501Y-120220000D03*
%TO.P,J5,4,4*%
%TO.N,GND*%
X38022500Y-120220000D03*
%TO.P,J5,5,5*%
%TO.N,/switch *%
X35482500Y-120220000D03*
%TO.P,J5,6,6*%
%TO.N,GND*%
X32942500Y-120220000D03*
%TD*%
D57*
%TO.N,GND*%
X25000000Y-102950000D03*
%TO.N,VCC*%
X27100000Y-92450000D03*
X30100000Y-98630000D03*
X25100000Y-99650000D03*
%TO.N,/N*%
X125600000Y-101150000D03*
%TO.N,V5V*%
X32600000Y-95450000D03*
X36600000Y-100050000D03*
X27200000Y-107450000D03*
%TO.N,Net-(U6-FILTER)*%
X120700000Y-75050000D03*
X118400000Y-74170000D03*
%TO.N,/triac in*%
X115100000Y-91950000D03*
%TO.N,/button in*%
X25613008Y-107745479D03*
X33100000Y-103550000D03*
%TO.N,Net-(U2-IO7)*%
X45600000Y-104050000D03*
X51400000Y-100350000D03*
%TO.N,/switch *%
X43300000Y-107450000D03*
%TO.N,/in+*%
X109700000Y-106450000D03*
X111100000Y-68150000D03*
%TO.N,/in-*%
X112000000Y-70250000D03*
X109600000Y-92550000D03*
%TO.N,/V_isolation*%
X96200000Y-117050000D03*
X95000000Y-72150000D03*
X100007107Y-99457107D03*
X99900000Y-103450000D03*
%TO.N,/L_sense*%
X32800000Y-108650000D03*
%TO.N,/XTAL OUT*%
X29600000Y-110950000D03*
%TO.N,/I_sense*%
X43800000Y-115550000D03*
%TO.N,/V_sense*%
X42900000Y-110450000D03*
%TO.N,Net-(U2-IO8)*%
X49700000Y-103350000D03*
X54100000Y-105050000D03*
%TO.N,Net-(U2-IO9)*%
X50300000Y-99350000D03*
%TO.N,VCC_base*%
X126700000Y-71250000D03*
%TO.N,/current_sense*%
X116200000Y-67650000D03*
X116700000Y-63750000D03*
%TO.N,/switch_base*%
X96200000Y-98050000D03*
%TO.N,/Volt_sense*%
X100100000Y-113450000D03*
X100099348Y-110370000D03*
%TO.N,V5V_base*%
X97600000Y-64350000D03*
X105200000Y-101950000D03*
X105400000Y-114450000D03*
X124300000Y-69250000D03*
X107500000Y-89950000D03*
%TO.N,Net-(U5-OUT1)*%
X104300000Y-99550000D03*
X112000000Y-102950000D03*
X112800000Y-100150000D03*
%TO.N,GND_base*%
X117000000Y-75650000D03*
X122800000Y-68750000D03*
X99400000Y-95450000D03*
X111700000Y-108550000D03*
X113500000Y-98850000D03*
X102100000Y-114550000D03*
X102600000Y-76250000D03*
X106600000Y-110250000D03*
X115000000Y-96250000D03*
X118800000Y-71150000D03*
X100900000Y-104850000D03*
X114500000Y-116650000D03*
%TO.N,Net-(U6-VIOUT)*%
X123600000Y-62750000D03*
X116900000Y-59650000D03*
X120300000Y-74250000D03*
%TO.N,Net-(R23-Pad1)*%
X104500000Y-108450000D03*
X105200000Y-59850000D03*
X104200000Y-69450000D03*
%TD*%
D58*
%TO.N,GND*%
X41880000Y-91100002D02*
X41880000Y-91230000D01*
D59*
X26070000Y-102530000D02*
X25420000Y-102530000D01*
X25420000Y-102530000D02*
X25000000Y-102950000D01*
D58*
%TO.N,VCC*%
X29690000Y-98220000D02*
X30100000Y-98630000D01*
X29690000Y-93240000D02*
X29690000Y-95500000D01*
X29690000Y-95500000D02*
X29690000Y-98220000D01*
X28900000Y-92450000D02*
X29690000Y-93240000D01*
X25380000Y-99930000D02*
X26070000Y-99930000D01*
X27100000Y-92450000D02*
X28900000Y-92450000D01*
X25100000Y-99650000D02*
X25380000Y-99930000D01*
D60*
%TO.N,3V3*%
X54400000Y-114650000D02*
X54400000Y-112050000D01*
X52100000Y-115590000D02*
X53460000Y-115590000D01*
X48720000Y-114570000D02*
X48900000Y-114750000D01*
X48720000Y-111950000D02*
X48720000Y-114570000D01*
X48900000Y-114750000D02*
X46835001Y-114750000D01*
X55330000Y-111120000D02*
X56405001Y-111120000D01*
X48900000Y-114750000D02*
X51260000Y-114750000D01*
X54400000Y-112050000D02*
X55330000Y-111120000D01*
X53460000Y-115590000D02*
X54400000Y-114650000D01*
X51260000Y-114750000D02*
X52100000Y-115590000D01*
X46835001Y-114750000D02*
X45795001Y-115790000D01*
%TO.N,/N*%
X98000000Y-69650000D02*
X98000000Y-75150000D01*
X98000000Y-80570000D02*
X100320000Y-82890000D01*
X103300000Y-85870000D02*
X100320000Y-82890000D01*
X96470000Y-109370000D02*
X100280000Y-109370000D01*
X119100000Y-66200000D02*
X101450000Y-66200000D01*
X108500000Y-101150000D02*
X103300000Y-95950000D01*
X101450000Y-66200000D02*
X98000000Y-69650000D01*
X100280000Y-109370000D02*
X108500000Y-101150000D01*
X103300000Y-95950000D02*
X103300000Y-85870000D01*
X98000000Y-75150000D02*
X98000000Y-80570000D01*
X125600000Y-101150000D02*
X108500000Y-101150000D01*
X100440000Y-82770000D02*
X100320000Y-82890000D01*
X106130000Y-82770000D02*
X100440000Y-82770000D01*
%TO.N,V5V*%
X28535001Y-108160000D02*
X27910000Y-108160000D01*
X47740000Y-91210000D02*
X50577500Y-91210000D01*
X50577500Y-91210000D02*
X50957500Y-91590000D01*
D58*
X35064998Y-92160000D02*
X35064998Y-92985002D01*
X35064998Y-92985002D02*
X32600000Y-95450000D01*
D60*
X27910000Y-108160000D02*
X27200000Y-107450000D01*
%TO.N,Net-(PS1-AC1)*%
X101800000Y-89050000D02*
X99600000Y-89050000D01*
X120300000Y-69450000D02*
X122600000Y-67150000D01*
X96470000Y-101580000D02*
X101800000Y-96250000D01*
X120500000Y-58700001D02*
X118650001Y-58700001D01*
X101500000Y-56650000D02*
X98000000Y-60150000D01*
X122600000Y-60800001D02*
X120500000Y-58700001D01*
X114200000Y-72750000D02*
X117500000Y-69450000D01*
X96300000Y-85750000D02*
X96300000Y-61850000D01*
X114200000Y-75550000D02*
X114200000Y-72750000D01*
X122600000Y-67150000D02*
X122600000Y-60800001D01*
X116600000Y-56650000D02*
X101500000Y-56650000D01*
X117500000Y-69450000D02*
X120300000Y-69450000D01*
X96300000Y-61850000D02*
X98000000Y-60150000D01*
X99600000Y-89050000D02*
X96300000Y-85750000D01*
X101800000Y-96250000D02*
X101800000Y-89050000D01*
X96470000Y-104370000D02*
X96470000Y-101580000D01*
X118650001Y-58700001D02*
X116600000Y-56650000D01*
D58*
%TO.N,Net-(D4-DIN)*%
X43400000Y-98150000D02*
X47100000Y-98150000D01*
X47740000Y-97510000D02*
X47740000Y-96110000D01*
X41820000Y-96570000D02*
X43400000Y-98150000D01*
X39455001Y-96570000D02*
X41820000Y-96570000D01*
X47100000Y-98150000D02*
X47740000Y-97510000D01*
%TO.N,Net-(D1-A)*%
X54694999Y-97144999D02*
X52110000Y-97144999D01*
X56190000Y-97730001D02*
X55280001Y-97730001D01*
X55280001Y-97730001D02*
X54694999Y-97144999D01*
%TO.N,Net-(D3-A)*%
X41880000Y-93900000D02*
X41880000Y-93230000D01*
X41880000Y-93230000D02*
X40810000Y-92160000D01*
X40810000Y-92160000D02*
X39515000Y-92160000D01*
D59*
%TO.N,/USB_D+*%
X28456802Y-105425000D02*
X29569999Y-105425000D01*
X30094999Y-105950000D02*
X31220000Y-105950000D01*
X27061803Y-101130001D02*
X27375000Y-101443198D01*
X27375000Y-101443198D02*
X27375000Y-104343198D01*
X26170000Y-101130001D02*
X27061803Y-101130001D01*
X26070001Y-101230000D02*
X26170000Y-101130001D01*
X27375000Y-104343198D02*
X28456802Y-105425000D01*
X29569999Y-105425000D02*
X30094999Y-105950000D01*
D58*
%TO.N,/triac in*%
X114840000Y-90724999D02*
X114840000Y-91690000D01*
X114840000Y-91690000D02*
X115100000Y-91950000D01*
X114840000Y-90724999D02*
X110590000Y-90724999D01*
D59*
%TO.N,/USB_D-*%
X28643198Y-104975000D02*
X29569999Y-104975000D01*
X27825000Y-104156802D02*
X28643198Y-104975000D01*
X26170000Y-100680000D02*
X27248198Y-100680000D01*
X29569999Y-104975000D02*
X30094999Y-104450000D01*
X27248198Y-100680000D02*
X27825000Y-101256802D01*
X30094999Y-104450000D02*
X31220000Y-104450000D01*
X26070000Y-100580000D02*
X26170000Y-100680000D01*
X27825000Y-101256802D02*
X27825000Y-104156802D01*
D58*
%TO.N,/boot*%
X41344999Y-115790000D02*
X41344999Y-112994999D01*
X41344999Y-115790000D02*
X40284095Y-114729096D01*
X41344999Y-112994999D02*
X40300000Y-111950000D01*
X40284095Y-114729096D02*
X39198842Y-114729096D01*
X40300000Y-111950000D02*
X31220000Y-111950000D01*
%TO.N,/button in*%
X25604521Y-107745479D02*
X25190000Y-108160000D01*
X26413806Y-112753806D02*
X31010000Y-117350000D01*
X33900000Y-100650000D02*
X33200000Y-99950000D01*
X25190000Y-108160000D02*
X24084999Y-108160000D01*
X33100000Y-103550000D02*
X33900000Y-102750000D01*
X25613008Y-107745479D02*
X25604521Y-107745479D01*
X33900000Y-102750000D02*
X33900000Y-100650000D01*
X24084999Y-110424999D02*
X26413806Y-112753806D01*
X33200000Y-99950000D02*
X31220000Y-99950000D01*
X24084999Y-108160000D02*
X24084999Y-110424999D01*
%TO.N,Net-(J4-Pin_3)*%
X30300000Y-102950000D02*
X31220000Y-102950000D01*
X27190000Y-95500000D02*
X27200000Y-95510000D01*
X27200000Y-96850000D02*
X27500000Y-97150000D01*
X27200000Y-95510000D02*
X27200000Y-96850000D01*
X27500000Y-100150000D02*
X30300000Y-102950000D01*
X27500000Y-97150000D02*
X27500000Y-100150000D01*
%TO.N,Net-(J4-Pin_2)*%
X28440000Y-99920000D02*
X28440000Y-95500000D01*
X31220000Y-101450000D02*
X29970000Y-101450000D01*
X29970000Y-101450000D02*
X28440000Y-99920000D01*
%TO.N,Net-(U2-IO7)*%
X52110000Y-101060000D02*
X51400000Y-100350000D01*
X46000000Y-104450000D02*
X48720000Y-104450000D01*
X52110000Y-101595001D02*
X52110000Y-101060000D01*
X45600000Y-104050000D02*
X46000000Y-104450000D01*
%TO.N,/switch *%
X43300000Y-107450000D02*
X48720000Y-107450000D01*
%TO.N,/L_sense*%
X31220000Y-108950000D02*
X32500000Y-108950000D01*
X32500000Y-108950000D02*
X32800000Y-108650000D01*
%TO.N,/ring light*%
X36120000Y-96570000D02*
X35004999Y-96570000D01*
X48720000Y-105950000D02*
X45500000Y-105950000D01*
X45500000Y-105950000D02*
X36120000Y-96570000D01*
%TO.N,/XTAL OUT*%
X31220000Y-110450000D02*
X30100000Y-110450000D01*
X30100000Y-110450000D02*
X29600000Y-110950000D01*
%TO.N,/I_sense*%
X35500000Y-109150000D02*
X33800000Y-107450000D01*
X39700000Y-109150000D02*
X35500000Y-109150000D01*
X43800000Y-113250000D02*
X39700000Y-109150000D01*
X33800000Y-107450000D02*
X31220000Y-107450000D01*
X43800000Y-115550000D02*
X43800000Y-113250000D01*
%TO.N,/V_sense*%
X42900000Y-110450000D02*
X44400000Y-108950000D01*
X44400000Y-108950000D02*
X48720000Y-108950000D01*
D60*
%TO.N,/L2*%
X122400000Y-93595000D02*
X122400000Y-89950000D01*
X112900000Y-78550000D02*
X109900000Y-75550000D01*
X125000000Y-87350000D02*
X126800000Y-87350000D01*
X122400000Y-89950000D02*
X125000000Y-87350000D01*
X127700000Y-80350000D02*
X125900000Y-78550000D01*
X126800000Y-87350000D02*
X127700000Y-86450000D01*
X125900000Y-78550000D02*
X112900000Y-78550000D01*
X109900000Y-75550000D02*
X108400000Y-75550000D01*
X127700000Y-86450000D02*
X127700000Y-80350000D01*
D58*
%TO.N,Net-(U2-IO8)*%
X49700000Y-103350000D02*
X49300000Y-102950000D01*
X49300000Y-102950000D02*
X48720000Y-102950000D01*
%TO.N,Net-(U2-IO9)*%
X50300000Y-100472000D02*
X49322000Y-101450000D01*
X50300000Y-99350000D02*
X50300000Y-100472000D01*
X49322000Y-101450000D02*
X48720000Y-101450000D01*
D60*
%TO.N,VCC_base*%
X126700000Y-71250000D02*
X125080000Y-72870000D01*
X125080000Y-72870000D02*
X124117499Y-72870000D01*
D58*
%TO.N,/switch_base*%
X96200000Y-98050000D02*
X96200000Y-95275001D01*
X96200000Y-95275001D02*
X96190000Y-95265001D01*
D60*
%TO.N,/L3*%
X119860000Y-93595000D02*
X119860000Y-90110000D01*
X116650000Y-86900000D02*
X116650000Y-82830000D01*
X119860000Y-90110000D02*
X116650000Y-86900000D01*
%TO.N,GND_base*%
X114840000Y-95175001D02*
X114840000Y-96090000D01*
X114840000Y-96090000D02*
X115000000Y-96250000D01*
X119042501Y-72870000D02*
X119042501Y-71392501D01*
X119042501Y-71392501D02*
X118800000Y-71150000D01*
D58*
%TO.N,Net-(JP1-B)*%
X48720000Y-110450000D02*
X51284999Y-110450000D01*
X54864095Y-107890000D02*
X55164095Y-107590000D01*
X52070000Y-107890000D02*
X54864095Y-107890000D01*
X51284999Y-110450000D02*
X51954999Y-111120000D01*
X52070000Y-107890000D02*
X52070000Y-111004999D01*
X52070000Y-111004999D02*
X51954999Y-111120000D01*
%TO.N,Net-(R8-Pad2)*%
X99645000Y-91485000D02*
X96860001Y-91485000D01*
X96860001Y-91485000D02*
X96190000Y-90814999D01*
%TO.N,Net-(R12-Pad1)*%
X110590000Y-95175001D02*
X108415001Y-95175001D01*
X108415001Y-95175001D02*
X107265000Y-94025000D01*
%TD*%
%TA.AperFunction,Conductor*%
%TO.N,/L2*%
G36*
X112677723Y-72469685D02*
G01*
X112723478Y-72522489D01*
X112733422Y-72591647D01*
X112729660Y-72608937D01*
X112714978Y-72658932D01*
X112714977Y-72658939D01*
X112694500Y-72801363D01*
X112694500Y-76912428D01*
X112694519Y-76916870D01*
X112694537Y-76918928D01*
X112694588Y-76923030D01*
X112694589Y-76923035D01*
X112717454Y-77065080D01*
X112717454Y-77065081D01*
X112738265Y-77131789D01*
X112738318Y-77131922D01*
X112738746Y-77132796D01*
X112800225Y-77261640D01*
X112936688Y-77466335D01*
X112942588Y-77475184D01*
X113008767Y-77555220D01*
X113008776Y-77555229D01*
X113008778Y-77555231D01*
X113044895Y-77590746D01*
X113044899Y-77590749D01*
X113044902Y-77590752D01*
X113126027Y-77655567D01*
X113256904Y-77715338D01*
X113323943Y-77735023D01*
X113323947Y-77735024D01*
X113466363Y-77755500D01*
X113466366Y-77755500D01*
X115675990Y-77755500D01*
X115676000Y-77755500D01*
X115783456Y-77743947D01*
X115834967Y-77732741D01*
X115869197Y-77721347D01*
X115937497Y-77698616D01*
X115937501Y-77698613D01*
X115937504Y-77698613D01*
X116058543Y-77620825D01*
X116111347Y-77575070D01*
X116205567Y-77466336D01*
X116225592Y-77422487D01*
X116271346Y-77369685D01*
X116338386Y-77350000D01*
X125697706Y-77350000D01*
X125702295Y-77350085D01*
X128281458Y-77445609D01*
X128347722Y-77467761D01*
X128391492Y-77522223D01*
X128400865Y-77568619D01*
X128499589Y-91093772D01*
X128480394Y-91160953D01*
X128457973Y-91187356D01*
X127635236Y-91918679D01*
X127572053Y-91948505D01*
X127552855Y-91950000D01*
X124000000Y-91950000D01*
X123700000Y-92350000D01*
X123700000Y-92750857D01*
X123686485Y-92807152D01*
X123593449Y-92989744D01*
X123522777Y-93207250D01*
X123522777Y-93207253D01*
X123486999Y-93433146D01*
X123486999Y-93756853D01*
X123522777Y-93982746D01*
X123522777Y-93982749D01*
X123593449Y-94200255D01*
X123593451Y-94200258D01*
X123686485Y-94382849D01*
X123700000Y-94439141D01*
X123700000Y-95526000D01*
X123680315Y-95593039D01*
X123627511Y-95638794D01*
X123576000Y-95650000D01*
X121524000Y-95650000D01*
X121456961Y-95630315D01*
X121411206Y-95577511D01*
X121400000Y-95526000D01*
X121400000Y-91751409D01*
X121400032Y-91748592D01*
X121497246Y-87471183D01*
X121518449Y-87404608D01*
X121572279Y-87360064D01*
X121621214Y-87350000D01*
X123600000Y-87350000D01*
X124463681Y-86486319D01*
X124525004Y-86452834D01*
X124551362Y-86450000D01*
X126100000Y-86450000D01*
X126800000Y-85750000D01*
X126800000Y-80650000D01*
X125400000Y-79350000D01*
X107124000Y-79350000D01*
X107056961Y-79330315D01*
X107011206Y-79277511D01*
X107000000Y-79226000D01*
X107000000Y-72574000D01*
X107019685Y-72506961D01*
X107072489Y-72461206D01*
X107124000Y-72450000D01*
X112610684Y-72450000D01*
X112677723Y-72469685D01*
G37*
%TD.AperFunction*%
%TD*%
%TA.AperFunction,Conductor*%
%TO.N,/L3*%
G36*
X119043039Y-79875185D02*
G01*
X119088794Y-79927989D01*
X119100000Y-79979500D01*
X119100000Y-82402259D01*
X119099403Y-82414413D01*
X119069500Y-82718034D01*
X119069500Y-83061965D01*
X119099403Y-83365585D01*
X119100000Y-83377739D01*
X119100000Y-85250000D01*
X120965900Y-87214105D01*
X120979213Y-87240046D01*
X120994977Y-87264575D01*
X120996212Y-87273169D01*
X120997802Y-87276266D01*
X121000000Y-87299510D01*
X121000000Y-87400785D01*
X120998305Y-87421216D01*
X120991878Y-87459686D01*
X120991877Y-87459699D01*
X120894663Y-91737099D01*
X120894564Y-91742854D01*
X120894533Y-91745661D01*
X120894500Y-91751416D01*
X120894500Y-95526000D01*
X120874815Y-95593039D01*
X120822011Y-95638794D01*
X120770500Y-95650000D01*
X117924000Y-95650000D01*
X117856961Y-95630315D01*
X117811206Y-95577511D01*
X117800000Y-95526000D01*
X117800000Y-89750000D01*
X114436319Y-86386319D01*
X114402834Y-86324996D01*
X114400000Y-86298638D01*
X114400000Y-79979500D01*
X114419685Y-79912461D01*
X114472489Y-79866706D01*
X114524000Y-79855500D01*
X118976000Y-79855500D01*
X119043039Y-79875185D01*
G37*
%TD.AperFunction*%
%TD*%
%TA.AperFunction,Conductor*%
%TO.N,Net-(PS1-AC1)*%
G36*
X124643039Y-55950185D02*
G01*
X124688794Y-56002989D01*
X124700000Y-56054500D01*
X124700000Y-56545888D01*
X124680315Y-56612927D01*
X124627511Y-56658682D01*
X124616955Y-56662929D01*
X124564941Y-56681129D01*
X124564927Y-56681135D01*
X124291661Y-56812733D01*
X124034837Y-56974107D01*
X123797696Y-57163220D01*
X123583220Y-57377696D01*
X123394107Y-57614837D01*
X123232733Y-57871661D01*
X123101133Y-58144931D01*
X123000957Y-58431216D01*
X123000953Y-58431228D01*
X122933460Y-58726937D01*
X122933457Y-58726951D01*
X122899500Y-59028336D01*
X122899500Y-59331663D01*
X122933457Y-59633048D01*
X122933460Y-59633062D01*
X123000953Y-59928771D01*
X123000957Y-59928783D01*
X123101133Y-60215068D01*
X123232733Y-60488338D01*
X123232735Y-60488341D01*
X123394108Y-60745164D01*
X123583221Y-60982304D01*
X123797696Y-61196779D01*
X124034836Y-61385892D01*
X124291659Y-61547265D01*
X124564935Y-61678868D01*
X124616954Y-61697070D01*
X124673730Y-61737792D01*
X124699478Y-61802744D01*
X124700000Y-61814112D01*
X124700000Y-68001766D01*
X124680315Y-68068805D01*
X124667407Y-68085556D01*
X124405921Y-68370814D01*
X124370651Y-68409290D01*
X124310840Y-68445407D01*
X124279244Y-68449500D01*
X124221155Y-68449500D01*
X124066510Y-68480261D01*
X124066498Y-68480264D01*
X123920827Y-68540602D01*
X123920814Y-68540609D01*
X123789711Y-68628210D01*
X123789708Y-68628212D01*
X123788798Y-68629123D01*
X123788204Y-68629446D01*
X123785001Y-68632076D01*
X123784502Y-68631468D01*
X123727471Y-68662602D01*
X123657780Y-68657611D01*
X123601851Y-68615734D01*
X123579508Y-68565624D01*
X123569738Y-68516509D01*
X123569737Y-68516503D01*
X123569735Y-68516498D01*
X123509397Y-68370827D01*
X123509390Y-68370814D01*
X123421789Y-68239711D01*
X123421786Y-68239707D01*
X123310292Y-68128213D01*
X123310288Y-68128210D01*
X123179185Y-68040609D01*
X123179172Y-68040602D01*
X123033501Y-67980264D01*
X123033489Y-67980261D01*
X122878845Y-67949500D01*
X122878842Y-67949500D01*
X122721158Y-67949500D01*
X122721155Y-67949500D01*
X122566510Y-67980261D01*
X122566498Y-67980264D01*
X122420827Y-68040602D01*
X122420814Y-68040609D01*
X122289711Y-68128210D01*
X122289707Y-68128213D01*
X122178213Y-68239707D01*
X122178210Y-68239711D01*
X122090609Y-68370814D01*
X122090602Y-68370827D01*
X122030264Y-68516498D01*
X122030261Y-68516510D01*
X121999500Y-68671153D01*
X121999500Y-68828846D01*
X122030261Y-68983489D01*
X122030264Y-68983501D01*
X122090602Y-69129172D01*
X122090609Y-69129185D01*
X122178210Y-69260288D01*
X122178213Y-69260292D01*
X122289707Y-69371786D01*
X122289711Y-69371789D01*
X122420814Y-69459390D01*
X122420827Y-69459397D01*
X122566498Y-69519735D01*
X122566503Y-69519737D01*
X122671418Y-69540606D01*
X122721153Y-69550499D01*
X122721156Y-69550500D01*
X122721158Y-69550500D01*
X122878844Y-69550500D01*
X122878845Y-69550499D01*
X123033497Y-69519737D01*
X123033509Y-69519731D01*
X123039324Y-69517969D01*
X123039868Y-69519764D01*
X123100636Y-69513226D01*
X123163118Y-69544495D01*
X123198776Y-69604581D01*
X123196289Y-69674406D01*
X123170038Y-69719048D01*
X122536859Y-70409790D01*
X122477048Y-70445907D01*
X122445452Y-70450000D01*
X119566282Y-70450000D01*
X119499243Y-70430315D01*
X119478600Y-70413680D01*
X119437784Y-70372863D01*
X119437780Y-70372860D01*
X119273920Y-70263372D01*
X119273910Y-70263367D01*
X119091836Y-70187949D01*
X119091828Y-70187947D01*
X118898543Y-70149500D01*
X118898540Y-70149500D01*
X118701460Y-70149500D01*
X118701457Y-70149500D01*
X118508171Y-70187947D01*
X118508163Y-70187949D01*
X118326089Y-70263367D01*
X118326079Y-70263372D01*
X118162219Y-70372860D01*
X118162215Y-70372863D01*
X118022863Y-70512215D01*
X118022860Y-70512219D01*
X117913372Y-70676079D01*
X117913367Y-70676089D01*
X117837949Y-70858163D01*
X117837947Y-70858168D01*
X117826878Y-70913816D01*
X117794644Y-70975568D01*
X115800000Y-73049999D01*
X115800000Y-77126000D01*
X115780315Y-77193039D01*
X115727511Y-77238794D01*
X115676000Y-77250000D01*
X113466363Y-77250000D01*
X113399324Y-77230315D01*
X113363189Y-77194783D01*
X113220826Y-76981239D01*
X113200018Y-76914540D01*
X113200000Y-76912456D01*
X113200000Y-72801362D01*
X113219685Y-72734323D01*
X113236319Y-72713681D01*
X117263681Y-68686319D01*
X117325004Y-68652834D01*
X117351362Y-68650000D01*
X120000000Y-68650000D01*
X121600000Y-66950000D01*
X121600000Y-64350000D01*
X118424000Y-64350000D01*
X118356961Y-64330315D01*
X118311206Y-64277511D01*
X118300000Y-64226000D01*
X118300000Y-62671153D01*
X122799500Y-62671153D01*
X122799500Y-62828846D01*
X122830261Y-62983489D01*
X122830264Y-62983501D01*
X122890602Y-63129172D01*
X122890609Y-63129185D01*
X122978210Y-63260288D01*
X122978213Y-63260292D01*
X123089707Y-63371786D01*
X123089711Y-63371789D01*
X123220814Y-63459390D01*
X123220827Y-63459397D01*
X123358695Y-63516503D01*
X123366503Y-63519737D01*
X123516131Y-63549500D01*
X123521153Y-63550499D01*
X123521156Y-63550500D01*
X123521158Y-63550500D01*
X123678844Y-63550500D01*
X123678845Y-63550499D01*
X123833497Y-63519737D01*
X123979179Y-63459394D01*
X124110289Y-63371789D01*
X124221789Y-63260289D01*
X124309394Y-63129179D01*
X124369737Y-62983497D01*
X124400500Y-62828842D01*
X124400500Y-62671158D01*
X124400500Y-62671155D01*
X124400499Y-62671153D01*
X124369738Y-62516510D01*
X124369737Y-62516503D01*
X124369735Y-62516498D01*
X124309397Y-62370827D01*
X124309390Y-62370814D01*
X124221789Y-62239711D01*
X124221786Y-62239707D01*
X124110292Y-62128213D01*
X124110288Y-62128210D01*
X123979185Y-62040609D01*
X123979172Y-62040602D01*
X123833501Y-61980264D01*
X123833489Y-61980261D01*
X123678845Y-61949500D01*
X123678842Y-61949500D01*
X123521158Y-61949500D01*
X123521155Y-61949500D01*
X123366510Y-61980261D01*
X123366498Y-61980264D01*
X123220827Y-62040602D01*
X123220814Y-62040609D01*
X123089711Y-62128210D01*
X123089707Y-62128213D01*
X122978213Y-62239707D01*
X122978210Y-62239711D01*
X122890609Y-62370814D01*
X122890602Y-62370827D01*
X122830264Y-62516498D01*
X122830261Y-62516510D01*
X122799500Y-62671153D01*
X118300000Y-62671153D01*
X118300000Y-59850000D01*
X116200000Y-57750000D01*
X113776026Y-57750000D01*
X113708987Y-57730315D01*
X113697361Y-57721853D01*
X113627049Y-57664149D01*
X113324738Y-57462151D01*
X113324737Y-57462150D01*
X113324732Y-57462147D01*
X113324727Y-57462144D01*
X113324720Y-57462140D01*
X113004083Y-57290756D01*
X113004078Y-57290754D01*
X112668165Y-57151614D01*
X112320223Y-57046067D01*
X112320212Y-57046064D01*
X111963630Y-56975137D01*
X111691111Y-56948296D01*
X111601794Y-56939500D01*
X111238206Y-56939500D01*
X111155679Y-56947628D01*
X110876369Y-56975137D01*
X110519787Y-57046064D01*
X110519776Y-57046067D01*
X110171834Y-57151614D01*
X109835921Y-57290754D01*
X109835916Y-57290756D01*
X109515279Y-57462140D01*
X109515261Y-57462151D01*
X109212950Y-57664149D01*
X109142639Y-57721853D01*
X109078329Y-57749166D01*
X109063974Y-57750000D01*
X101999999Y-57750000D01*
X96800000Y-63049999D01*
X96800000Y-64268644D01*
X96799500Y-64271158D01*
X96799500Y-64428842D01*
X96800000Y-64431355D01*
X96800000Y-74555697D01*
X96786485Y-74611992D01*
X96771612Y-74641179D01*
X96707137Y-74839610D01*
X96674500Y-75045675D01*
X96674500Y-75254324D01*
X96707137Y-75460389D01*
X96743129Y-75571158D01*
X96771611Y-75658816D01*
X96786485Y-75688009D01*
X96800000Y-75744301D01*
X96800000Y-85350000D01*
X100000000Y-88550000D01*
X102175500Y-88550000D01*
X102242539Y-88569685D01*
X102288294Y-88622489D01*
X102299500Y-88674000D01*
X102299500Y-96049540D01*
X102300000Y-96059708D01*
X102300000Y-101896813D01*
X102280315Y-101963852D01*
X102261462Y-101986658D01*
X100880429Y-103300322D01*
X100818289Y-103332264D01*
X100748743Y-103325539D01*
X100693874Y-103282283D01*
X100673350Y-103234667D01*
X100669737Y-103216503D01*
X100656066Y-103183497D01*
X100609397Y-103070827D01*
X100609390Y-103070814D01*
X100521789Y-102939711D01*
X100521786Y-102939707D01*
X100410292Y-102828213D01*
X100410288Y-102828210D01*
X100279185Y-102740609D01*
X100279172Y-102740602D01*
X100133501Y-102680264D01*
X100133489Y-102680261D01*
X99978845Y-102649500D01*
X99978842Y-102649500D01*
X99821158Y-102649500D01*
X99821155Y-102649500D01*
X99666510Y-102680261D01*
X99666498Y-102680264D01*
X99520827Y-102740602D01*
X99520814Y-102740609D01*
X99389711Y-102828210D01*
X99389707Y-102828213D01*
X99278213Y-102939707D01*
X99278210Y-102939711D01*
X99190609Y-103070814D01*
X99190602Y-103070827D01*
X99130264Y-103216498D01*
X99130261Y-103216510D01*
X99099500Y-103371153D01*
X99099500Y-103528846D01*
X99130261Y-103683489D01*
X99130264Y-103683501D01*
X99190602Y-103829172D01*
X99190609Y-103829185D01*
X99278210Y-103960288D01*
X99278213Y-103960292D01*
X99389707Y-104071786D01*
X99389711Y-104071789D01*
X99520814Y-104159390D01*
X99520827Y-104159397D01*
X99662647Y-104218140D01*
X99717051Y-104261980D01*
X99739116Y-104328275D01*
X99721837Y-104395974D01*
X99700661Y-104422541D01*
X98235904Y-105815846D01*
X98173767Y-105847787D01*
X98150445Y-105850000D01*
X93921262Y-105850000D01*
X93854223Y-105830315D01*
X93808468Y-105777511D01*
X93797262Y-105726018D01*
X93796324Y-99378260D01*
X99206607Y-99378260D01*
X99206607Y-99535953D01*
X99237368Y-99690596D01*
X99237371Y-99690608D01*
X99297709Y-99836279D01*
X99297716Y-99836292D01*
X99385317Y-99967395D01*
X99385320Y-99967399D01*
X99496814Y-100078893D01*
X99496818Y-100078896D01*
X99627921Y-100166497D01*
X99627934Y-100166504D01*
X99773605Y-100226842D01*
X99773610Y-100226844D01*
X99928260Y-100257606D01*
X99928263Y-100257607D01*
X99928265Y-100257607D01*
X100085951Y-100257607D01*
X100085952Y-100257606D01*
X100240604Y-100226844D01*
X100386286Y-100166501D01*
X100517396Y-100078896D01*
X100628896Y-99967396D01*
X100716501Y-99836286D01*
X100776844Y-99690604D01*
X100807607Y-99535949D01*
X100807607Y-99378265D01*
X100807607Y-99378262D01*
X100807606Y-99378260D01*
X100785819Y-99268731D01*
X100776844Y-99223610D01*
X100718808Y-99083497D01*
X100716504Y-99077934D01*
X100716497Y-99077921D01*
X100628896Y-98946818D01*
X100628893Y-98946814D01*
X100517399Y-98835320D01*
X100517395Y-98835317D01*
X100386292Y-98747716D01*
X100386279Y-98747709D01*
X100240608Y-98687371D01*
X100240596Y-98687368D01*
X100085952Y-98656607D01*
X100085949Y-98656607D01*
X99928265Y-98656607D01*
X99928262Y-98656607D01*
X99773617Y-98687368D01*
X99773605Y-98687371D01*
X99627934Y-98747709D01*
X99627921Y-98747716D01*
X99496818Y-98835317D01*
X99496814Y-98835320D01*
X99385320Y-98946814D01*
X99385317Y-98946818D01*
X99297716Y-99077921D01*
X99297709Y-99077934D01*
X99237371Y-99223605D01*
X99237368Y-99223617D01*
X99206607Y-99378260D01*
X93796324Y-99378260D01*
X93796323Y-99372191D01*
X93796280Y-99083497D01*
X93795820Y-95970061D01*
X93815495Y-95903022D01*
X93868292Y-95857259D01*
X93937449Y-95847306D01*
X94001009Y-95876321D01*
X94037525Y-95931040D01*
X94047218Y-95960289D01*
X94055186Y-95984335D01*
X94147288Y-96133657D01*
X94271344Y-96257713D01*
X94420666Y-96349815D01*
X94587203Y-96405000D01*
X94689991Y-96415501D01*
X95325500Y-96415500D01*
X95392539Y-96435184D01*
X95438294Y-96487988D01*
X95449500Y-96539500D01*
X95449500Y-97745396D01*
X95440062Y-97792844D01*
X95430263Y-97816503D01*
X95430262Y-97816506D01*
X95430260Y-97816511D01*
X95399500Y-97971153D01*
X95399500Y-98128846D01*
X95430261Y-98283489D01*
X95430264Y-98283501D01*
X95490602Y-98429172D01*
X95490609Y-98429185D01*
X95578210Y-98560288D01*
X95578213Y-98560292D01*
X95689707Y-98671786D01*
X95689711Y-98671789D01*
X95820814Y-98759390D01*
X95820827Y-98759397D01*
X95966498Y-98819735D01*
X95966503Y-98819737D01*
X96044844Y-98835320D01*
X96121153Y-98850499D01*
X96121156Y-98850500D01*
X96121158Y-98850500D01*
X96278844Y-98850500D01*
X96278845Y-98850499D01*
X96433497Y-98819737D01*
X96579179Y-98759394D01*
X96710289Y-98671789D01*
X96821789Y-98560289D01*
X96909394Y-98429179D01*
X96969737Y-98283497D01*
X97000500Y-98128842D01*
X97000500Y-97971158D01*
X97000500Y-97971155D01*
X97000499Y-97971153D01*
X96969739Y-97816511D01*
X96969738Y-97816508D01*
X96969737Y-97816503D01*
X96959937Y-97792844D01*
X96950500Y-97745396D01*
X96950500Y-96539500D01*
X96970185Y-96472461D01*
X97022989Y-96426706D01*
X97074500Y-96415500D01*
X97690002Y-96415500D01*
X97690008Y-96415500D01*
X97792797Y-96405000D01*
X97959334Y-96349815D01*
X98108656Y-96257713D01*
X98232712Y-96133657D01*
X98324814Y-95984335D01*
X98379999Y-95817798D01*
X98390500Y-95715010D01*
X98390499Y-95715006D01*
X98390591Y-95714116D01*
X98416987Y-95649424D01*
X98474167Y-95609273D01*
X98543978Y-95606409D01*
X98604255Y-95641743D01*
X98628510Y-95679266D01*
X98690602Y-95829172D01*
X98690609Y-95829185D01*
X98778210Y-95960288D01*
X98778213Y-95960292D01*
X98889707Y-96071786D01*
X98889711Y-96071789D01*
X99020814Y-96159390D01*
X99020827Y-96159397D01*
X99166498Y-96219735D01*
X99166503Y-96219737D01*
X99321153Y-96250499D01*
X99321156Y-96250500D01*
X99321158Y-96250500D01*
X99478844Y-96250500D01*
X99478845Y-96250499D01*
X99633497Y-96219737D01*
X99779179Y-96159394D01*
X99910289Y-96071789D01*
X100021789Y-95960289D01*
X100109394Y-95829179D01*
X100169737Y-95683497D01*
X100200500Y-95528842D01*
X100200500Y-95371158D01*
X100188178Y-95309212D01*
X100194405Y-95239623D01*
X100237267Y-95184445D01*
X100253488Y-95174544D01*
X100326610Y-95137287D01*
X100347770Y-95121913D01*
X100492213Y-95016971D01*
X100492215Y-95016968D01*
X100492219Y-95016966D01*
X100636966Y-94872219D01*
X100636968Y-94872215D01*
X100636971Y-94872213D01*
X100699025Y-94786801D01*
X100757287Y-94706610D01*
X100850220Y-94524219D01*
X100913477Y-94329534D01*
X100945500Y-94127352D01*
X100945500Y-93922648D01*
X100913477Y-93720465D01*
X100850218Y-93525776D01*
X100803020Y-93433146D01*
X100757287Y-93343390D01*
X100696261Y-93259394D01*
X100636971Y-93177786D01*
X100492219Y-93033034D01*
X100432632Y-92989742D01*
X100398547Y-92964978D01*
X100355882Y-92909649D01*
X100349903Y-92840036D01*
X100382508Y-92778240D01*
X100432426Y-92746955D01*
X100514334Y-92719814D01*
X100663656Y-92627712D01*
X100787712Y-92503656D01*
X100879814Y-92354334D01*
X100934999Y-92187797D01*
X100945500Y-92085009D01*
X100945499Y-90884992D01*
X100934999Y-90782203D01*
X100879814Y-90615666D01*
X100787712Y-90466344D01*
X100663656Y-90342288D01*
X100533814Y-90262201D01*
X100514336Y-90250187D01*
X100514331Y-90250185D01*
X100512862Y-90249698D01*
X100347797Y-90195001D01*
X100347795Y-90195000D01*
X100245010Y-90184500D01*
X99044998Y-90184500D01*
X99044981Y-90184501D01*
X98942203Y-90195000D01*
X98942200Y-90195001D01*
X98775668Y-90250185D01*
X98775663Y-90250187D01*
X98626342Y-90342289D01*
X98594773Y-90373858D01*
X98533449Y-90407343D01*
X98463758Y-90402357D01*
X98407825Y-90360485D01*
X98383735Y-90298777D01*
X98379999Y-90262202D01*
X98324814Y-90095665D01*
X98232712Y-89946343D01*
X98108656Y-89822287D01*
X97959334Y-89730185D01*
X97792797Y-89675000D01*
X97792795Y-89674999D01*
X97690010Y-89664499D01*
X94689998Y-89664499D01*
X94689981Y-89664500D01*
X94587203Y-89674999D01*
X94587200Y-89675000D01*
X94420668Y-89730184D01*
X94420663Y-89730186D01*
X94271342Y-89822288D01*
X94147289Y-89946341D01*
X94055187Y-90095662D01*
X94055184Y-90095670D01*
X94036660Y-90151570D01*
X93996887Y-90209014D01*
X93932371Y-90235836D01*
X93863595Y-90223520D01*
X93812396Y-90175976D01*
X93794955Y-90112584D01*
X93792291Y-72071153D01*
X94199500Y-72071153D01*
X94199500Y-72228846D01*
X94230261Y-72383489D01*
X94230264Y-72383501D01*
X94290602Y-72529172D01*
X94290609Y-72529185D01*
X94378210Y-72660288D01*
X94378213Y-72660292D01*
X94489707Y-72771786D01*
X94489711Y-72771789D01*
X94620814Y-72859390D01*
X94620827Y-72859397D01*
X94766498Y-72919735D01*
X94766503Y-72919737D01*
X94921153Y-72950499D01*
X94921156Y-72950500D01*
X94921158Y-72950500D01*
X95078844Y-72950500D01*
X95078845Y-72950499D01*
X95233497Y-72919737D01*
X95379179Y-72859394D01*
X95510289Y-72771789D01*
X95621789Y-72660289D01*
X95709394Y-72529179D01*
X95769737Y-72383497D01*
X95800500Y-72228842D01*
X95800500Y-72071158D01*
X95800500Y-72071155D01*
X95800499Y-72071153D01*
X95769738Y-71916510D01*
X95769737Y-71916503D01*
X95757840Y-71887781D01*
X95709397Y-71770827D01*
X95709390Y-71770814D01*
X95621789Y-71639711D01*
X95621786Y-71639707D01*
X95510292Y-71528213D01*
X95510288Y-71528210D01*
X95379185Y-71440609D01*
X95379172Y-71440602D01*
X95233501Y-71380264D01*
X95233489Y-71380261D01*
X95078845Y-71349500D01*
X95078842Y-71349500D01*
X94921158Y-71349500D01*
X94921155Y-71349500D01*
X94766510Y-71380261D01*
X94766498Y-71380264D01*
X94620827Y-71440602D01*
X94620814Y-71440609D01*
X94489711Y-71528210D01*
X94489707Y-71528213D01*
X94378213Y-71639707D01*
X94378210Y-71639711D01*
X94290609Y-71770814D01*
X94290602Y-71770827D01*
X94230264Y-71916498D01*
X94230261Y-71916510D01*
X94199500Y-72071153D01*
X93792291Y-72071153D01*
X93790500Y-59942861D01*
X93790632Y-59937135D01*
X93791016Y-59928842D01*
X93807339Y-59575764D01*
X93808396Y-59564369D01*
X93857979Y-59208919D01*
X93860079Y-59197683D01*
X93942251Y-58848313D01*
X93945374Y-58837334D01*
X94059439Y-58497012D01*
X94063554Y-58486390D01*
X94208543Y-58158019D01*
X94213618Y-58147828D01*
X94388265Y-57834276D01*
X94394291Y-57824544D01*
X94445355Y-57750000D01*
X94597123Y-57528446D01*
X94604005Y-57519333D01*
X94833291Y-57243214D01*
X94840986Y-57234774D01*
X95094774Y-56980986D01*
X95103214Y-56973291D01*
X95379333Y-56744005D01*
X95388446Y-56737123D01*
X95684549Y-56534287D01*
X95694276Y-56528265D01*
X96007828Y-56353618D01*
X96018019Y-56348543D01*
X96346390Y-56203554D01*
X96357012Y-56199439D01*
X96697334Y-56085374D01*
X96708313Y-56082251D01*
X97057683Y-56000079D01*
X97068919Y-55997979D01*
X97424378Y-55948395D01*
X97435764Y-55947339D01*
X97797145Y-55930632D01*
X97802872Y-55930500D01*
X97865892Y-55930500D01*
X124576000Y-55930500D01*
X124643039Y-55950185D01*
G37*
%TD.AperFunction*%
%TD*%
%TA.AperFunction,Conductor*%
%TO.N,GND*%
G36*
X27050702Y-104585739D02*
G01*
X27057180Y-104591771D01*
X28210889Y-105745480D01*
X28302214Y-105798207D01*
X28404075Y-105825500D01*
X28509529Y-105825500D01*
X29352744Y-105825500D01*
X29419783Y-105845185D01*
X29440425Y-105861819D01*
X29849086Y-106270480D01*
X29940411Y-106323207D01*
X30042272Y-106350500D01*
X30048107Y-106350500D01*
X30115146Y-106370185D01*
X30160901Y-106422989D01*
X30171281Y-106460213D01*
X30172201Y-106468149D01*
X30172415Y-106469992D01*
X30217793Y-106572764D01*
X30257348Y-106612319D01*
X30290833Y-106673642D01*
X30285849Y-106743334D01*
X30257348Y-106787681D01*
X30217794Y-106827234D01*
X30172415Y-106930006D01*
X30172415Y-106930008D01*
X30169500Y-106955131D01*
X30169500Y-107944856D01*
X30169502Y-107944882D01*
X30172413Y-107969987D01*
X30172415Y-107969991D01*
X30217793Y-108072764D01*
X30257348Y-108112319D01*
X30290833Y-108173642D01*
X30285849Y-108243334D01*
X30257348Y-108287681D01*
X30217794Y-108327234D01*
X30172415Y-108430006D01*
X30172415Y-108430008D01*
X30169500Y-108455131D01*
X30169500Y-109444856D01*
X30169502Y-109444882D01*
X30172413Y-109469987D01*
X30172415Y-109469991D01*
X30217793Y-109572764D01*
X30257348Y-109612319D01*
X30259342Y-109615971D01*
X30262858Y-109618199D01*
X30275945Y-109646377D01*
X30290833Y-109673642D01*
X30290536Y-109677792D01*
X30292289Y-109681567D01*
X30288065Y-109712342D01*
X30285849Y-109743334D01*
X30283193Y-109747842D01*
X30282789Y-109750788D01*
X30273665Y-109764018D01*
X30263898Y-109780601D01*
X30260763Y-109784265D01*
X30217794Y-109827235D01*
X30211161Y-109842255D01*
X30199319Y-109856101D01*
X30184698Y-109865630D01*
X30173436Y-109878963D01*
X30156034Y-109884311D01*
X30140784Y-109894251D01*
X30123332Y-109894362D01*
X30106650Y-109899490D01*
X30105088Y-109899500D01*
X30027525Y-109899500D01*
X29913664Y-109930009D01*
X29913663Y-109930008D01*
X29887517Y-109937015D01*
X29887514Y-109937016D01*
X29761986Y-110009489D01*
X29761983Y-110009491D01*
X29407567Y-110363906D01*
X29374894Y-110385740D01*
X29375253Y-110386361D01*
X29368218Y-110390422D01*
X29368216Y-110390423D01*
X29333258Y-110410606D01*
X29231285Y-110469479D01*
X29231282Y-110469481D01*
X29119481Y-110581282D01*
X29119475Y-110581290D01*
X29040426Y-110718209D01*
X29040423Y-110718216D01*
X28999500Y-110870943D01*
X28999500Y-111029057D01*
X29038242Y-111173642D01*
X29040423Y-111181783D01*
X29040426Y-111181790D01*
X29119475Y-111318709D01*
X29119479Y-111318714D01*
X29119480Y-111318716D01*
X29231284Y-111430520D01*
X29231286Y-111430521D01*
X29231290Y-111430524D01*
X29294764Y-111467170D01*
X29368216Y-111509577D01*
X29520943Y-111550500D01*
X29520945Y-111550500D01*
X29679055Y-111550500D01*
X29679057Y-111550500D01*
X29831784Y-111509577D01*
X29952516Y-111439872D01*
X29968704Y-111430527D01*
X29968704Y-111430526D01*
X29968716Y-111430520D01*
X29968725Y-111430510D01*
X29970003Y-111429531D01*
X29971298Y-111429030D01*
X29975755Y-111426457D01*
X29976155Y-111427151D01*
X30035170Y-111404330D01*
X30103616Y-111418361D01*
X30153611Y-111467170D01*
X30169500Y-111527899D01*
X30169500Y-112444856D01*
X30169502Y-112444882D01*
X30172413Y-112469987D01*
X30172415Y-112469991D01*
X30217793Y-112572764D01*
X30217794Y-112572765D01*
X30297235Y-112652206D01*
X30400009Y-112697585D01*
X30425135Y-112700500D01*
X32014864Y-112700499D01*
X32014879Y-112700497D01*
X32014882Y-112700497D01*
X32039987Y-112697586D01*
X32039988Y-112697585D01*
X32039991Y-112697585D01*
X32142765Y-112652206D01*
X32222206Y-112572765D01*
X32222207Y-112572760D01*
X32228699Y-112563286D01*
X32230078Y-112564231D01*
X32266564Y-112521037D01*
X32333350Y-112500510D01*
X32334912Y-112500500D01*
X40020613Y-112500500D01*
X40087652Y-112520185D01*
X40108294Y-112536819D01*
X40758180Y-113186705D01*
X40791665Y-113248028D01*
X40794499Y-113274386D01*
X40794499Y-113723196D01*
X40774814Y-113790235D01*
X40722010Y-113835990D01*
X40715989Y-113838550D01*
X40672659Y-113855637D01*
X40672657Y-113855638D01*
X40552076Y-113947077D01*
X40460637Y-114067658D01*
X40447849Y-114100087D01*
X40404943Y-114155230D01*
X40339035Y-114178423D01*
X40332495Y-114178596D01*
X39899809Y-114178596D01*
X39832770Y-114158911D01*
X39789310Y-114108755D01*
X39788593Y-114109113D01*
X39787205Y-114106327D01*
X39787015Y-114106107D01*
X39786783Y-114105479D01*
X39783473Y-114098832D01*
X39783472Y-114098828D01*
X39715814Y-114009234D01*
X39715813Y-114009233D01*
X39620360Y-113950131D01*
X39620361Y-113950131D01*
X39565179Y-113939816D01*
X39510000Y-113929501D01*
X38010000Y-113929501D01*
X38007130Y-113929633D01*
X37981816Y-113930803D01*
X37981807Y-113930805D01*
X37873830Y-113961527D01*
X37873825Y-113961530D01*
X37784232Y-114029187D01*
X37725130Y-114124640D01*
X37725130Y-114124642D01*
X37704500Y-114235001D01*
X37704500Y-115385001D01*
X37719137Y-115478430D01*
X37719137Y-115478431D01*
X37719138Y-115478432D01*
X37772528Y-115577192D01*
X37772530Y-115577194D01*
X37857992Y-115649999D01*
X37963982Y-115687015D01*
X37963983Y-115687015D01*
X37963986Y-115687016D01*
X38076193Y-115683244D01*
X38076194Y-115683243D01*
X38076196Y-115683243D01*
X38179456Y-115639194D01*
X38179455Y-115639194D01*
X38179461Y-115639192D01*
X38691218Y-115298020D01*
X38757915Y-115277213D01*
X38825276Y-115295768D01*
X38828782Y-115298021D01*
X39340532Y-115639188D01*
X39340543Y-115639194D01*
X39426394Y-115678839D01*
X39485988Y-115684361D01*
X39538188Y-115689198D01*
X39538188Y-115689197D01*
X39538189Y-115689198D01*
X39646170Y-115658474D01*
X39646170Y-115658473D01*
X39646173Y-115658473D01*
X39735767Y-115590815D01*
X39794870Y-115495360D01*
X39815500Y-115385001D01*
X39815500Y-115384998D01*
X39816283Y-115380810D01*
X39830984Y-115351898D01*
X39844459Y-115322393D01*
X39846729Y-115320933D01*
X39847952Y-115318530D01*
X39875942Y-115302160D01*
X39903237Y-115284619D01*
X39906814Y-115284104D01*
X39908264Y-115283257D01*
X39938172Y-115279596D01*
X40004708Y-115279596D01*
X40071747Y-115299281D01*
X40092389Y-115315915D01*
X40358180Y-115581706D01*
X40391665Y-115643029D01*
X40394499Y-115669387D01*
X40394499Y-117283102D01*
X40398011Y-117312345D01*
X40405121Y-117371561D01*
X40460638Y-117512343D01*
X40552076Y-117632922D01*
X40672655Y-117724360D01*
X40672656Y-117724360D01*
X40672657Y-117724361D01*
X40813435Y-117779877D01*
X40901897Y-117790500D01*
X40901902Y-117790500D01*
X41788096Y-117790500D01*
X41788101Y-117790500D01*
X41876563Y-117779877D01*
X42017341Y-117724361D01*
X42137921Y-117632922D01*
X42229360Y-117512342D01*
X42284876Y-117371564D01*
X42295499Y-117283102D01*
X42295499Y-114296898D01*
X42284876Y-114208436D01*
X42229360Y-114067658D01*
X42229359Y-114067657D01*
X42229359Y-114067656D01*
X42137921Y-113947077D01*
X42017340Y-113855638D01*
X42017338Y-113855637D01*
X41974009Y-113838550D01*
X41918865Y-113795644D01*
X41895672Y-113729736D01*
X41895499Y-113723196D01*
X41895499Y-112922526D01*
X41895499Y-112922524D01*
X41857983Y-112782514D01*
X41831715Y-112737016D01*
X41785509Y-112656984D01*
X40638015Y-111509490D01*
X40512485Y-111437016D01*
X40512482Y-111437015D01*
X40486336Y-111430008D01*
X40486336Y-111430009D01*
X40429405Y-111414754D01*
X40372475Y-111399500D01*
X40372474Y-111399500D01*
X32334912Y-111399500D01*
X32267873Y-111379815D01*
X32240681Y-111356101D01*
X32228838Y-111342255D01*
X32222206Y-111327235D01*
X32179236Y-111284265D01*
X32176102Y-111280601D01*
X32163690Y-111252955D01*
X32149167Y-111226358D01*
X32149521Y-111221396D01*
X32147485Y-111216860D01*
X32151989Y-111186896D01*
X32154151Y-111156666D01*
X32157260Y-111151827D01*
X32157871Y-111147767D01*
X32165335Y-111139263D01*
X32182652Y-111112319D01*
X32222206Y-111072765D01*
X32267585Y-110969991D01*
X32270500Y-110944865D01*
X32270499Y-109955136D01*
X32268398Y-109937016D01*
X32267586Y-109930012D01*
X32267585Y-109930010D01*
X32267585Y-109930009D01*
X32222206Y-109827235D01*
X32182652Y-109787681D01*
X32180657Y-109784028D01*
X32177142Y-109781801D01*
X32164054Y-109753622D01*
X32149167Y-109726358D01*
X32149463Y-109722207D01*
X32147711Y-109718433D01*
X32151934Y-109687657D01*
X32154151Y-109656666D01*
X32156806Y-109652157D01*
X32157211Y-109649212D01*
X32166334Y-109635981D01*
X32176102Y-109619399D01*
X32179236Y-109615734D01*
X32222206Y-109572765D01*
X32228838Y-109557744D01*
X32240681Y-109543899D01*
X32255301Y-109534369D01*
X32266564Y-109521037D01*
X32283965Y-109515688D01*
X32299216Y-109505749D01*
X32316667Y-109505637D01*
X32333350Y-109500510D01*
X32334912Y-109500500D01*
X32572472Y-109500500D01*
X32572474Y-109500500D01*
X32572475Y-109500500D01*
X32712485Y-109462984D01*
X32743870Y-109444864D01*
X32838015Y-109390510D01*
X32992434Y-109236089D01*
X33025104Y-109214262D01*
X33024745Y-109213640D01*
X33031780Y-109209577D01*
X33031784Y-109209577D01*
X33168716Y-109130520D01*
X33280520Y-109018716D01*
X33359577Y-108881784D01*
X33400500Y-108729057D01*
X33400500Y-108570943D01*
X33359577Y-108418216D01*
X33359573Y-108418209D01*
X33280524Y-108281290D01*
X33280518Y-108281282D01*
X33211417Y-108212181D01*
X33200804Y-108192744D01*
X33186304Y-108176011D01*
X33184387Y-108162679D01*
X33177932Y-108150858D01*
X33179511Y-108128771D01*
X33176360Y-108106853D01*
X33181955Y-108094601D01*
X33182916Y-108081166D01*
X33196186Y-108063439D01*
X33205385Y-108043297D01*
X33216716Y-108036014D01*
X33224788Y-108025233D01*
X33245533Y-108017495D01*
X33264163Y-108005523D01*
X33286081Y-108002371D01*
X33290252Y-108000816D01*
X33299098Y-108000500D01*
X33520613Y-108000500D01*
X33587652Y-108020185D01*
X33608294Y-108036819D01*
X35161985Y-109590510D01*
X35225012Y-109626898D01*
X35287515Y-109662984D01*
X35427525Y-109700500D01*
X35427526Y-109700500D01*
X35572474Y-109700500D01*
X39420613Y-109700500D01*
X39487652Y-109720185D01*
X39508294Y-109736819D01*
X43213181Y-113441705D01*
X43246666Y-113503028D01*
X43249500Y-113529386D01*
X43249500Y-115271637D01*
X43241834Y-115310179D01*
X43242527Y-115310365D01*
X43240423Y-115318214D01*
X43240423Y-115318216D01*
X43199500Y-115470943D01*
X43199500Y-115629057D01*
X43238054Y-115772940D01*
X43240423Y-115781783D01*
X43240426Y-115781790D01*
X43319475Y-115918709D01*
X43319479Y-115918714D01*
X43319480Y-115918716D01*
X43431284Y-116030520D01*
X43431286Y-116030521D01*
X43431290Y-116030524D01*
X43557713Y-116103513D01*
X43568216Y-116109577D01*
X43720943Y-116150500D01*
X43720945Y-116150500D01*
X43879055Y-116150500D01*
X43879057Y-116150500D01*
X44031784Y-116109577D01*
X44168716Y-116030520D01*
X44280520Y-115918716D01*
X44359577Y-115781784D01*
X44400500Y-115629057D01*
X44400500Y-115470943D01*
X44359577Y-115318216D01*
X44359576Y-115318214D01*
X44357473Y-115310365D01*
X44358165Y-115310179D01*
X44350500Y-115271637D01*
X44350500Y-113177527D01*
X44350500Y-113177525D01*
X44312984Y-113037515D01*
X44269918Y-112962922D01*
X44240510Y-112911986D01*
X43400716Y-112072192D01*
X42544501Y-111215976D01*
X42511016Y-111154653D01*
X42516000Y-111084961D01*
X42557872Y-111029028D01*
X42623336Y-111004611D01*
X42664276Y-111008520D01*
X42668211Y-111009574D01*
X42668216Y-111009577D01*
X42820943Y-111050500D01*
X42820946Y-111050500D01*
X42979055Y-111050500D01*
X42979057Y-111050500D01*
X43131784Y-111009577D01*
X43268716Y-110930520D01*
X43380520Y-110818716D01*
X43459577Y-110681784D01*
X43459577Y-110681780D01*
X43463640Y-110674745D01*
X43464262Y-110675104D01*
X43486092Y-110642431D01*
X44591706Y-109536819D01*
X44653029Y-109503334D01*
X44679387Y-109500500D01*
X47605088Y-109500500D01*
X47672127Y-109520185D01*
X47699319Y-109543899D01*
X47711161Y-109557744D01*
X47717794Y-109572765D01*
X47760763Y-109615734D01*
X47763898Y-109619399D01*
X47776309Y-109647044D01*
X47790833Y-109673642D01*
X47790478Y-109678603D01*
X47792515Y-109683140D01*
X47788010Y-109713103D01*
X47785849Y-109743334D01*
X47782739Y-109748172D01*
X47782129Y-109752233D01*
X47774664Y-109760736D01*
X47757348Y-109787681D01*
X47717794Y-109827234D01*
X47672415Y-109930006D01*
X47672415Y-109930008D01*
X47669500Y-109955131D01*
X47669500Y-110944856D01*
X47669502Y-110944882D01*
X47672413Y-110969987D01*
X47672415Y-110969991D01*
X47717793Y-111072764D01*
X47757348Y-111112319D01*
X47790833Y-111173642D01*
X47785849Y-111243334D01*
X47757348Y-111287681D01*
X47717794Y-111327234D01*
X47672415Y-111430006D01*
X47672415Y-111430008D01*
X47669500Y-111455131D01*
X47669500Y-112444856D01*
X47669502Y-112444882D01*
X47672413Y-112469987D01*
X47672415Y-112469991D01*
X47717793Y-112572764D01*
X47717794Y-112572765D01*
X47797235Y-112652206D01*
X47845588Y-112673556D01*
X47898962Y-112718640D01*
X47919490Y-112785426D01*
X47919500Y-112786989D01*
X47919500Y-113625500D01*
X47899815Y-113692539D01*
X47847011Y-113738294D01*
X47795500Y-113749500D01*
X47406903Y-113749500D01*
X47318435Y-113760123D01*
X47318431Y-113760124D01*
X47177660Y-113815637D01*
X47177654Y-113815640D01*
X47057080Y-113907073D01*
X47051083Y-113913072D01*
X47048471Y-113910460D01*
X47006196Y-113941851D01*
X46963318Y-113949500D01*
X46756159Y-113949500D01*
X46711415Y-113958400D01*
X46695679Y-113961530D01*
X46680098Y-113964629D01*
X46610507Y-113958400D01*
X46580983Y-113941815D01*
X46467344Y-113855639D01*
X46365911Y-113815639D01*
X46326565Y-113800123D01*
X46326564Y-113800122D01*
X46326562Y-113800122D01*
X46280927Y-113794642D01*
X46238103Y-113789500D01*
X45351899Y-113789500D01*
X45312854Y-113794188D01*
X45263439Y-113800122D01*
X45122657Y-113855639D01*
X45002078Y-113947077D01*
X44910640Y-114067656D01*
X44855123Y-114208438D01*
X44849189Y-114257853D01*
X44844501Y-114296898D01*
X44844501Y-117283102D01*
X44848013Y-117312345D01*
X44855123Y-117371561D01*
X44910640Y-117512343D01*
X45002078Y-117632922D01*
X45122657Y-117724360D01*
X45122658Y-117724360D01*
X45122659Y-117724361D01*
X45263437Y-117779877D01*
X45351899Y-117790500D01*
X45351904Y-117790500D01*
X46238098Y-117790500D01*
X46238103Y-117790500D01*
X46326565Y-117779877D01*
X46467343Y-117724361D01*
X46587923Y-117632922D01*
X46679362Y-117512342D01*
X46734878Y-117371564D01*
X46745501Y-117283102D01*
X46745501Y-116022939D01*
X46765186Y-115955900D01*
X46781816Y-115935262D01*
X47018772Y-115698305D01*
X47080095Y-115664821D01*
X47149787Y-115669805D01*
X47169890Y-115680863D01*
X47170262Y-115680203D01*
X47177653Y-115684358D01*
X47177657Y-115684361D01*
X47318435Y-115739877D01*
X47406897Y-115750500D01*
X50393102Y-115750499D01*
X50481565Y-115739877D01*
X50622343Y-115684361D01*
X50742923Y-115592923D01*
X50742926Y-115592918D01*
X50748917Y-115586928D01*
X50750467Y-115588478D01*
X50768983Y-115576578D01*
X50793804Y-115558149D01*
X50799142Y-115557196D01*
X50801747Y-115555523D01*
X50836682Y-115550500D01*
X50877060Y-115550500D01*
X50944099Y-115570185D01*
X50964741Y-115586819D01*
X51063181Y-115685259D01*
X51096666Y-115746582D01*
X51099500Y-115772940D01*
X51099500Y-117083096D01*
X51099501Y-117083102D01*
X51110123Y-117171565D01*
X51110123Y-117171566D01*
X51110124Y-117171568D01*
X51165637Y-117312339D01*
X51165640Y-117312345D01*
X51257076Y-117432923D01*
X51377654Y-117524359D01*
X51377657Y-117524361D01*
X51518435Y-117579877D01*
X51606897Y-117590500D01*
X52593102Y-117590499D01*
X52681565Y-117579877D01*
X52822343Y-117524361D01*
X52942923Y-117432923D01*
X53034361Y-117312343D01*
X53089877Y-117171565D01*
X53100500Y-117083103D01*
X53100500Y-116514500D01*
X53120185Y-116447461D01*
X53172989Y-116401706D01*
X53224500Y-116390500D01*
X53538844Y-116390500D01*
X53538845Y-116390499D01*
X53693497Y-116359737D01*
X53839179Y-116299394D01*
X53970289Y-116211789D01*
X55021789Y-115160289D01*
X55109394Y-115029179D01*
X55169738Y-114883497D01*
X55200500Y-114728842D01*
X55200500Y-114571157D01*
X55200500Y-112432940D01*
X55209144Y-112403499D01*
X55215668Y-112373513D01*
X55219422Y-112368497D01*
X55220185Y-112365901D01*
X55236819Y-112345259D01*
X55242820Y-112339258D01*
X55304143Y-112305773D01*
X55373835Y-112310757D01*
X55429768Y-112352629D01*
X55454185Y-112418093D01*
X55454501Y-112426939D01*
X55454501Y-112613102D01*
X55459107Y-112651454D01*
X55465123Y-112701561D01*
X55520640Y-112842343D01*
X55612078Y-112962922D01*
X55732657Y-113054360D01*
X55732658Y-113054360D01*
X55732659Y-113054361D01*
X55873437Y-113109877D01*
X55961899Y-113120500D01*
X55961904Y-113120500D01*
X56848098Y-113120500D01*
X56848103Y-113120500D01*
X56936565Y-113109877D01*
X57077343Y-113054361D01*
X57077343Y-113054360D01*
X57085234Y-113051249D01*
X57086441Y-113054309D01*
X57139210Y-113042106D01*
X57204989Y-113065664D01*
X57247588Y-113121045D01*
X57255983Y-113165850D01*
X57257517Y-117375124D01*
X57257385Y-117380896D01*
X57240722Y-117741322D01*
X57239665Y-117752726D01*
X57190211Y-118107250D01*
X57188106Y-118118509D01*
X57106154Y-118466950D01*
X57103020Y-118477966D01*
X56989262Y-118817374D01*
X56985124Y-118828054D01*
X56840542Y-119155502D01*
X56835437Y-119165755D01*
X56661254Y-119478472D01*
X56655225Y-119488210D01*
X56452925Y-119783532D01*
X56446022Y-119792672D01*
X56217347Y-120068054D01*
X56209631Y-120076518D01*
X55956518Y-120329631D01*
X55948054Y-120337347D01*
X55672672Y-120566022D01*
X55663532Y-120572925D01*
X55368210Y-120775225D01*
X55358472Y-120781254D01*
X55045755Y-120955437D01*
X55035502Y-120960542D01*
X54708054Y-121105124D01*
X54697374Y-121109262D01*
X54357966Y-121223020D01*
X54346950Y-121226154D01*
X53998509Y-121308106D01*
X53987250Y-121310211D01*
X53632726Y-121359665D01*
X53621322Y-121360722D01*
X53260874Y-121377387D01*
X53255147Y-121377519D01*
X46376916Y-121377519D01*
X46309877Y-121357834D01*
X46264122Y-121305030D01*
X46254178Y-121235872D01*
X46283203Y-121172316D01*
X46326830Y-121140085D01*
X46380505Y-121116384D01*
X46435265Y-121092206D01*
X46514706Y-121012765D01*
X46560085Y-120909991D01*
X46563000Y-120884865D01*
X46562999Y-119555136D01*
X46562997Y-119555117D01*
X46560086Y-119530012D01*
X46560085Y-119530010D01*
X46560085Y-119530009D01*
X46514706Y-119427235D01*
X46435265Y-119347794D01*
X46406004Y-119334874D01*
X46332492Y-119302415D01*
X46307365Y-119299500D01*
X44977643Y-119299500D01*
X44977617Y-119299502D01*
X44952512Y-119302413D01*
X44952508Y-119302415D01*
X44849735Y-119347793D01*
X44770294Y-119427234D01*
X44724915Y-119530006D01*
X44724915Y-119530008D01*
X44722000Y-119555131D01*
X44722000Y-120884856D01*
X44722002Y-120884882D01*
X44724913Y-120909987D01*
X44724915Y-120909991D01*
X44770293Y-121012764D01*
X44770294Y-121012765D01*
X44849735Y-121092206D01*
X44910824Y-121119179D01*
X44958170Y-121140085D01*
X45011546Y-121185171D01*
X45032073Y-121251957D01*
X45013235Y-121319239D01*
X44961011Y-121365656D01*
X44908083Y-121377519D01*
X40720581Y-121377519D01*
X40653542Y-121357834D01*
X40607787Y-121305030D01*
X40597843Y-121235872D01*
X40626868Y-121172316D01*
X40685646Y-121134542D01*
X40696390Y-121131902D01*
X40757543Y-121119737D01*
X40831001Y-121105126D01*
X40998521Y-121035737D01*
X41149286Y-120934999D01*
X41277500Y-120806785D01*
X41378238Y-120656020D01*
X41447627Y-120488500D01*
X41483001Y-120310661D01*
X41483001Y-120129339D01*
X41447627Y-119951500D01*
X41381838Y-119792672D01*
X41378239Y-119783982D01*
X41378234Y-119783973D01*
X41277500Y-119633215D01*
X41277497Y-119633211D01*
X41149289Y-119505003D01*
X41149285Y-119505000D01*
X40998527Y-119404266D01*
X40998518Y-119404261D01*
X40831001Y-119334874D01*
X40830993Y-119334872D01*
X40653166Y-119299500D01*
X40653162Y-119299500D01*
X40471840Y-119299500D01*
X40471835Y-119299500D01*
X40294008Y-119334872D01*
X40294000Y-119334874D01*
X40126483Y-119404261D01*
X40126474Y-119404266D01*
X39975716Y-119505000D01*
X39975712Y-119505003D01*
X39847504Y-119633211D01*
X39847501Y-119633215D01*
X39746767Y-119783973D01*
X39746762Y-119783982D01*
X39677375Y-119951499D01*
X39677373Y-119951507D01*
X39642001Y-120129334D01*
X39642001Y-120310665D01*
X39677373Y-120488492D01*
X39677375Y-120488500D01*
X39746762Y-120656017D01*
X39746767Y-120656026D01*
X39847501Y-120806784D01*
X39847504Y-120806788D01*
X39975712Y-120934996D01*
X39975716Y-120934999D01*
X40126474Y-121035733D01*
X40126480Y-121035736D01*
X40126481Y-121035737D01*
X40294001Y-121105126D01*
X40353707Y-121117002D01*
X40428612Y-121131902D01*
X40490523Y-121164287D01*
X40525097Y-121225002D01*
X40521358Y-121294772D01*
X40480492Y-121351444D01*
X40415474Y-121377025D01*
X40404421Y-121377519D01*
X35640580Y-121377519D01*
X35573541Y-121357834D01*
X35527786Y-121305030D01*
X35517842Y-121235872D01*
X35546867Y-121172316D01*
X35605645Y-121134542D01*
X35616389Y-121131902D01*
X35677542Y-121119737D01*
X35751000Y-121105126D01*
X35918520Y-121035737D01*
X36069285Y-120934999D01*
X36197499Y-120806785D01*
X36298237Y-120656020D01*
X36367626Y-120488500D01*
X36403000Y-120310661D01*
X36403000Y-120129339D01*
X36367626Y-119951500D01*
X36301837Y-119792672D01*
X36298238Y-119783982D01*
X36298233Y-119783973D01*
X36197499Y-119633215D01*
X36197496Y-119633211D01*
X36069288Y-119505003D01*
X36069284Y-119505000D01*
X35918526Y-119404266D01*
X35918517Y-119404261D01*
X35751000Y-119334874D01*
X35750992Y-119334872D01*
X35573165Y-119299500D01*
X35573161Y-119299500D01*
X35391839Y-119299500D01*
X35391834Y-119299500D01*
X35214007Y-119334872D01*
X35213999Y-119334874D01*
X35046482Y-119404261D01*
X35046473Y-119404266D01*
X34895715Y-119505000D01*
X34895711Y-119505003D01*
X34767503Y-119633211D01*
X34767500Y-119633215D01*
X34666766Y-119783973D01*
X34666761Y-119783982D01*
X34597374Y-119951499D01*
X34597372Y-119951507D01*
X34562000Y-120129334D01*
X34562000Y-120310665D01*
X34597372Y-120488492D01*
X34597374Y-120488500D01*
X34666761Y-120656017D01*
X34666766Y-120656026D01*
X34767500Y-120806784D01*
X34767503Y-120806788D01*
X34895711Y-120934996D01*
X34895715Y-120934999D01*
X35046473Y-121035733D01*
X35046479Y-121035736D01*
X35046480Y-121035737D01*
X35214000Y-121105126D01*
X35273706Y-121117002D01*
X35348611Y-121131902D01*
X35410522Y-121164287D01*
X35445096Y-121225002D01*
X35441357Y-121294772D01*
X35400491Y-121351444D01*
X35335473Y-121377025D01*
X35324420Y-121377519D01*
X26270881Y-121377519D01*
X26265146Y-121377386D01*
X25904213Y-121360674D01*
X25892793Y-121359615D01*
X25537765Y-121310020D01*
X25526491Y-121307909D01*
X25177586Y-121225727D01*
X25166555Y-121222584D01*
X24826725Y-121108511D01*
X24816032Y-121104362D01*
X24488201Y-120959380D01*
X24477937Y-120954261D01*
X24164898Y-120779605D01*
X24155151Y-120773559D01*
X23859601Y-120570733D01*
X23850454Y-120563813D01*
X23574897Y-120334536D01*
X23566429Y-120326800D01*
X23313241Y-120073049D01*
X23305524Y-120064564D01*
X23076860Y-119788498D01*
X23069960Y-119779335D01*
X22867792Y-119483334D01*
X22861768Y-119473574D01*
X22766770Y-119302415D01*
X22687802Y-119160138D01*
X22682716Y-119149884D01*
X22538452Y-118821707D01*
X22534337Y-118811030D01*
X22421013Y-118470928D01*
X22417901Y-118459916D01*
X22336486Y-118110791D01*
X22334403Y-118099521D01*
X22325071Y-118031613D01*
X22285600Y-117744399D01*
X22284567Y-117733000D01*
X22268652Y-117371887D01*
X22268557Y-117368841D01*
X22268532Y-117367540D01*
X22268675Y-117303239D01*
X22267219Y-117297759D01*
X22266964Y-117284200D01*
X22267068Y-117283817D01*
X22266942Y-117281865D01*
X22268317Y-106716860D01*
X22268324Y-106666898D01*
X23134499Y-106666898D01*
X23134499Y-109653102D01*
X23138106Y-109683140D01*
X23145121Y-109741561D01*
X23145121Y-109741563D01*
X23145122Y-109741564D01*
X23149329Y-109752233D01*
X23200638Y-109882343D01*
X23292076Y-110002922D01*
X23412654Y-110094359D01*
X23412657Y-110094361D01*
X23455989Y-110111448D01*
X23511133Y-110154354D01*
X23534326Y-110220261D01*
X23534499Y-110226803D01*
X23534499Y-110497474D01*
X23568371Y-110623886D01*
X23572015Y-110637484D01*
X23572016Y-110637486D01*
X23572017Y-110637488D01*
X23644486Y-110763010D01*
X23644490Y-110763015D01*
X25137068Y-112255593D01*
X25170553Y-112316916D01*
X25167319Y-112381590D01*
X25145328Y-112449272D01*
X25113306Y-112651454D01*
X25113306Y-112856157D01*
X25145328Y-113058340D01*
X25208587Y-113253029D01*
X25301521Y-113435419D01*
X25421834Y-113601019D01*
X25566592Y-113745777D01*
X25690762Y-113835990D01*
X25732196Y-113866093D01*
X25827400Y-113914602D01*
X25914582Y-113959024D01*
X25914584Y-113959024D01*
X25914587Y-113959026D01*
X26018943Y-113992933D01*
X26109271Y-114022283D01*
X26152861Y-114029187D01*
X26311454Y-114054306D01*
X26311455Y-114054306D01*
X26516157Y-114054306D01*
X26516158Y-114054306D01*
X26718340Y-114022283D01*
X26786020Y-114000291D01*
X26855858Y-113998297D01*
X26912017Y-114030542D01*
X29733262Y-116851787D01*
X29766747Y-116913110D01*
X29763513Y-116977784D01*
X29741522Y-117045466D01*
X29709500Y-117247648D01*
X29709500Y-117452351D01*
X29741522Y-117654534D01*
X29804781Y-117849223D01*
X29868691Y-117974653D01*
X29880115Y-117997073D01*
X29897715Y-118031613D01*
X30018028Y-118197213D01*
X30162786Y-118341971D01*
X30317749Y-118454556D01*
X30328390Y-118462287D01*
X30444607Y-118521503D01*
X30510776Y-118555218D01*
X30510778Y-118555218D01*
X30510781Y-118555220D01*
X30615137Y-118589127D01*
X30705465Y-118618477D01*
X30806557Y-118634488D01*
X30907648Y-118650500D01*
X30907649Y-118650500D01*
X31112351Y-118650500D01*
X31112352Y-118650500D01*
X31314534Y-118618477D01*
X31509219Y-118555220D01*
X31691610Y-118462287D01*
X31784590Y-118394732D01*
X31857213Y-118341971D01*
X31857215Y-118341968D01*
X31857219Y-118341966D01*
X32001966Y-118197219D01*
X32001968Y-118197215D01*
X32001971Y-118197213D01*
X32063209Y-118112925D01*
X32122287Y-118031610D01*
X32215220Y-117849219D01*
X32278477Y-117654534D01*
X32310500Y-117452352D01*
X32310500Y-117247648D01*
X32298450Y-117171566D01*
X32278477Y-117045465D01*
X32233005Y-116905519D01*
X32215220Y-116850781D01*
X32215218Y-116850778D01*
X32215218Y-116850776D01*
X32181503Y-116784607D01*
X32122287Y-116668390D01*
X32114556Y-116657749D01*
X32001971Y-116502786D01*
X31857213Y-116358028D01*
X31691613Y-116237715D01*
X31691612Y-116237714D01*
X31691610Y-116237713D01*
X31634653Y-116208691D01*
X31509223Y-116144781D01*
X31314534Y-116081522D01*
X31139995Y-116053878D01*
X31112352Y-116049500D01*
X30907648Y-116049500D01*
X30880004Y-116053878D01*
X30705466Y-116081522D01*
X30637784Y-116103513D01*
X30567943Y-116105507D01*
X30511787Y-116073262D01*
X27690542Y-113252017D01*
X27657057Y-113190694D01*
X27660291Y-113126020D01*
X27682283Y-113058340D01*
X27714306Y-112856158D01*
X27714306Y-112651454D01*
X27693515Y-112520185D01*
X27682283Y-112449271D01*
X27635657Y-112305773D01*
X27619026Y-112254587D01*
X27619024Y-112254584D01*
X27619024Y-112254582D01*
X27554311Y-112127577D01*
X27526093Y-112072196D01*
X27518362Y-112061555D01*
X27405777Y-111906592D01*
X27261019Y-111761834D01*
X27095419Y-111641521D01*
X27095418Y-111641520D01*
X27095416Y-111641519D01*
X27038459Y-111612497D01*
X26913029Y-111548587D01*
X26718340Y-111485328D01*
X26527756Y-111455143D01*
X26516158Y-111453306D01*
X26311454Y-111453306D01*
X26299856Y-111455143D01*
X26109272Y-111485328D01*
X26041590Y-111507319D01*
X25971749Y-111509313D01*
X25915593Y-111477068D01*
X24729293Y-110290768D01*
X24695808Y-110229445D01*
X24700792Y-110159753D01*
X24742664Y-110103820D01*
X24756214Y-110094993D01*
X24757326Y-110094366D01*
X24757341Y-110094361D01*
X24877921Y-110002922D01*
X24969360Y-109882342D01*
X25024876Y-109741564D01*
X25035499Y-109653102D01*
X25035499Y-108834500D01*
X25055184Y-108767461D01*
X25107988Y-108721706D01*
X25159499Y-108710500D01*
X25262472Y-108710500D01*
X25262474Y-108710500D01*
X25262475Y-108710500D01*
X25402485Y-108672984D01*
X25450089Y-108645500D01*
X25475442Y-108630863D01*
X25528008Y-108600514D01*
X25528007Y-108600514D01*
X25528015Y-108600510D01*
X25792171Y-108336352D01*
X25837996Y-108309900D01*
X25837279Y-108308168D01*
X25844784Y-108305057D01*
X25844792Y-108305056D01*
X25981724Y-108225999D01*
X26093528Y-108114195D01*
X26172585Y-107977263D01*
X26213508Y-107824536D01*
X26213508Y-107783594D01*
X26233193Y-107716555D01*
X26285997Y-107670800D01*
X26355155Y-107660856D01*
X26418711Y-107689881D01*
X26452069Y-107736142D01*
X26490602Y-107829172D01*
X26490609Y-107829185D01*
X26578210Y-107960288D01*
X26578213Y-107960292D01*
X27399707Y-108781786D01*
X27399715Y-108781792D01*
X27529391Y-108868439D01*
X27574197Y-108922051D01*
X27584501Y-108971541D01*
X27584501Y-109653102D01*
X27588108Y-109683140D01*
X27595123Y-109741561D01*
X27595123Y-109741563D01*
X27595124Y-109741564D01*
X27599331Y-109752233D01*
X27650640Y-109882343D01*
X27742078Y-110002922D01*
X27862657Y-110094360D01*
X27862658Y-110094360D01*
X27862659Y-110094361D01*
X28003437Y-110149877D01*
X28091899Y-110160500D01*
X28091904Y-110160500D01*
X28978098Y-110160500D01*
X28978103Y-110160500D01*
X29066565Y-110149877D01*
X29207343Y-110094361D01*
X29327923Y-110002922D01*
X29419362Y-109882342D01*
X29474878Y-109741564D01*
X29485501Y-109653102D01*
X29485501Y-106666898D01*
X29474878Y-106578436D01*
X29419362Y-106437658D01*
X29419361Y-106437657D01*
X29419361Y-106437656D01*
X29327923Y-106317077D01*
X29207344Y-106225639D01*
X29066562Y-106170122D01*
X29020927Y-106164642D01*
X28978103Y-106159500D01*
X28091899Y-106159500D01*
X28052854Y-106164188D01*
X28003439Y-106170122D01*
X27862657Y-106225639D01*
X27742078Y-106317077D01*
X27650640Y-106437656D01*
X27595121Y-106578443D01*
X27593174Y-106586148D01*
X27591603Y-106585751D01*
X27567733Y-106641411D01*
X27509849Y-106680543D01*
X27439999Y-106682167D01*
X27436170Y-106681073D01*
X27433498Y-106680262D01*
X27278845Y-106649500D01*
X27278842Y-106649500D01*
X27121158Y-106649500D01*
X27121155Y-106649500D01*
X26966510Y-106680261D01*
X26966498Y-106680264D01*
X26820827Y-106740602D01*
X26820814Y-106740609D01*
X26689711Y-106828210D01*
X26689707Y-106828213D01*
X26578213Y-106939707D01*
X26578210Y-106939711D01*
X26490609Y-107070814D01*
X26490602Y-107070827D01*
X26430264Y-107216498D01*
X26430261Y-107216510D01*
X26399500Y-107371153D01*
X26399500Y-107443949D01*
X26379815Y-107510988D01*
X26327011Y-107556743D01*
X26257853Y-107566687D01*
X26194297Y-107537662D01*
X26168113Y-107505948D01*
X26093532Y-107376769D01*
X26093526Y-107376761D01*
X25981725Y-107264960D01*
X25981717Y-107264954D01*
X25844798Y-107185905D01*
X25844794Y-107185903D01*
X25844792Y-107185902D01*
X25692065Y-107144979D01*
X25533951Y-107144979D01*
X25381224Y-107185902D01*
X25381217Y-107185905D01*
X25244298Y-107264954D01*
X25237847Y-107269905D01*
X25236366Y-107267975D01*
X25185857Y-107295556D01*
X25116165Y-107290572D01*
X25060232Y-107248700D01*
X25035815Y-107183236D01*
X25035499Y-107174390D01*
X25035499Y-106666903D01*
X25035499Y-106666898D01*
X25024876Y-106578436D01*
X24969360Y-106437658D01*
X24969359Y-106437657D01*
X24969359Y-106437656D01*
X24877921Y-106317077D01*
X24757342Y-106225639D01*
X24616560Y-106170122D01*
X24570925Y-106164642D01*
X24528101Y-106159500D01*
X23641897Y-106159500D01*
X23602852Y-106164188D01*
X23553437Y-106170122D01*
X23412655Y-106225639D01*
X23292076Y-106317077D01*
X23200638Y-106437656D01*
X23145121Y-106578438D01*
X23141053Y-106612319D01*
X23134499Y-106666898D01*
X22268324Y-106666898D01*
X22268324Y-106663176D01*
X22268443Y-105745477D01*
X22268477Y-105484624D01*
X22288170Y-105417588D01*
X22340980Y-105371840D01*
X22410140Y-105361905D01*
X22439926Y-105370079D01*
X22521291Y-105403781D01*
X22521295Y-105403781D01*
X22521296Y-105403782D01*
X22705888Y-105440501D01*
X22705891Y-105440501D01*
X24084111Y-105440501D01*
X24208299Y-105415797D01*
X24268709Y-105403781D01*
X24403195Y-105348075D01*
X24442592Y-105331757D01*
X24442592Y-105331756D01*
X24442599Y-105331754D01*
X24599096Y-105227186D01*
X24632966Y-105193316D01*
X24694288Y-105159830D01*
X24763980Y-105164814D01*
X24819914Y-105206684D01*
X24844021Y-105271315D01*
X24844088Y-105271308D01*
X24844119Y-105271577D01*
X24844332Y-105272148D01*
X24844441Y-105273831D01*
X24844501Y-105274870D01*
X24847413Y-105299987D01*
X24847415Y-105299991D01*
X24892793Y-105402764D01*
X24892794Y-105402765D01*
X24972235Y-105482206D01*
X25075009Y-105527585D01*
X25100135Y-105530500D01*
X26589864Y-105530499D01*
X26589879Y-105530497D01*
X26589882Y-105530497D01*
X26614987Y-105527586D01*
X26614988Y-105527585D01*
X26614991Y-105527585D01*
X26717765Y-105482206D01*
X26797206Y-105402765D01*
X26842585Y-105299991D01*
X26845500Y-105274865D01*
X26845499Y-104679449D01*
X26865183Y-104612413D01*
X26917987Y-104566658D01*
X26987146Y-104556714D01*
X27050702Y-104585739D01*
G37*
%TD.AperFunction*%
%TA.AperFunction,Conductor*%
G36*
X38476443Y-90437303D02*
G01*
X38500462Y-90439830D01*
X38509364Y-90446970D01*
X38520312Y-90450185D01*
X38536125Y-90468434D01*
X38554966Y-90483546D01*
X38558594Y-90494365D01*
X38566067Y-90502989D01*
X38569504Y-90526893D01*
X38577183Y-90549789D01*
X38575329Y-90567410D01*
X38575774Y-90570505D01*
X38576071Y-90570541D01*
X38575938Y-90571643D01*
X38576011Y-90572147D01*
X38575672Y-90573858D01*
X38569462Y-90625571D01*
X38564500Y-90666898D01*
X38564500Y-93653102D01*
X38564905Y-93656471D01*
X38575122Y-93741561D01*
X38630639Y-93882343D01*
X38722077Y-94002922D01*
X38842656Y-94094360D01*
X38842657Y-94094360D01*
X38842658Y-94094361D01*
X38983436Y-94149877D01*
X39071898Y-94160500D01*
X39071903Y-94160500D01*
X39958097Y-94160500D01*
X39958102Y-94160500D01*
X40046564Y-94149877D01*
X40187342Y-94094361D01*
X40307922Y-94002922D01*
X40399361Y-93882342D01*
X40454877Y-93741564D01*
X40457384Y-93720685D01*
X40484921Y-93656471D01*
X40542803Y-93617338D01*
X40612654Y-93615710D01*
X40672296Y-93652106D01*
X40702794Y-93714968D01*
X40704500Y-93735469D01*
X40704500Y-94318102D01*
X40710047Y-94364297D01*
X40715122Y-94406561D01*
X40770639Y-94547343D01*
X40862077Y-94667922D01*
X40982656Y-94759360D01*
X40982657Y-94759360D01*
X40982658Y-94759361D01*
X41123436Y-94814877D01*
X41211898Y-94825500D01*
X41211903Y-94825500D01*
X42548097Y-94825500D01*
X42548102Y-94825500D01*
X42636564Y-94814877D01*
X42777342Y-94759361D01*
X42897922Y-94667922D01*
X42989361Y-94547342D01*
X43044877Y-94406564D01*
X43055500Y-94318102D01*
X43055500Y-93481898D01*
X43044877Y-93393436D01*
X42989361Y-93252658D01*
X42989360Y-93252657D01*
X42989360Y-93252656D01*
X42897922Y-93132077D01*
X42777343Y-93040639D01*
X42636561Y-92985122D01*
X42590926Y-92979642D01*
X42548102Y-92974500D01*
X42548097Y-92974500D01*
X42439741Y-92974500D01*
X42372702Y-92954815D01*
X42332354Y-92912500D01*
X42320512Y-92891989D01*
X42320508Y-92891984D01*
X41148016Y-91719491D01*
X41148015Y-91719490D01*
X41022485Y-91647016D01*
X41022486Y-91647016D01*
X40987482Y-91637637D01*
X40882475Y-91609500D01*
X40882472Y-91609500D01*
X40589500Y-91609500D01*
X40522461Y-91589815D01*
X40476706Y-91537011D01*
X40465500Y-91485500D01*
X40465500Y-90666903D01*
X40465500Y-90666898D01*
X40454877Y-90578436D01*
X40453929Y-90570541D01*
X40457067Y-90570164D01*
X40459163Y-90515070D01*
X40499143Y-90457769D01*
X40563756Y-90431180D01*
X40576727Y-90430500D01*
X43565500Y-90430500D01*
X43632539Y-90450185D01*
X43678294Y-90502989D01*
X43689500Y-90554500D01*
X43689500Y-91900739D01*
X43703981Y-91992170D01*
X43703981Y-91992171D01*
X43703982Y-91992174D01*
X43703983Y-91992175D01*
X43750255Y-92082989D01*
X43760142Y-92102392D01*
X43760145Y-92102396D01*
X43847603Y-92189854D01*
X43847605Y-92189855D01*
X43847609Y-92189859D01*
X43957825Y-92246017D01*
X43957826Y-92246017D01*
X43957828Y-92246018D01*
X43992947Y-92251579D01*
X44049265Y-92260500D01*
X44830734Y-92260499D01*
X44830739Y-92260499D01*
X44830739Y-92260498D01*
X44876454Y-92253258D01*
X44922170Y-92246018D01*
X44922171Y-92246018D01*
X44922172Y-92246017D01*
X44922175Y-92246017D01*
X45032391Y-92189859D01*
X45119859Y-92102391D01*
X45176017Y-91992175D01*
X45176017Y-91992173D01*
X45176018Y-91992172D01*
X45176018Y-91992171D01*
X45179901Y-91967650D01*
X45190500Y-91900735D01*
X45190499Y-90554499D01*
X45210184Y-90487461D01*
X45262987Y-90441706D01*
X45314499Y-90430500D01*
X46865500Y-90430500D01*
X46932539Y-90450185D01*
X46978294Y-90502989D01*
X46989500Y-90554500D01*
X46989500Y-90905393D01*
X46980062Y-90952844D01*
X46970263Y-90976501D01*
X46970261Y-90976505D01*
X46939500Y-91131153D01*
X46939500Y-91288846D01*
X46970261Y-91443494D01*
X46970264Y-91443502D01*
X46980061Y-91467154D01*
X46989500Y-91514606D01*
X46989500Y-91900739D01*
X47003981Y-91992170D01*
X47003981Y-91992171D01*
X47003982Y-91992174D01*
X47003983Y-91992175D01*
X47050255Y-92082989D01*
X47060142Y-92102392D01*
X47060145Y-92102396D01*
X47147603Y-92189854D01*
X47147605Y-92189855D01*
X47147609Y-92189859D01*
X47257825Y-92246017D01*
X47257826Y-92246017D01*
X47257828Y-92246018D01*
X47292947Y-92251579D01*
X47349265Y-92260500D01*
X48130734Y-92260499D01*
X48130739Y-92260499D01*
X48130739Y-92260498D01*
X48176454Y-92253258D01*
X48222170Y-92246018D01*
X48222171Y-92246018D01*
X48222172Y-92246017D01*
X48222175Y-92246017D01*
X48332391Y-92189859D01*
X48419859Y-92102391D01*
X48432183Y-92078204D01*
X48480157Y-92027409D01*
X48542667Y-92010500D01*
X49713851Y-92010500D01*
X49780890Y-92030185D01*
X49826645Y-92082989D01*
X49837851Y-92134500D01*
X49837851Y-92454006D01*
X49837852Y-92454032D01*
X49840763Y-92479137D01*
X49840765Y-92479141D01*
X49886143Y-92581914D01*
X49886144Y-92581915D01*
X49965585Y-92661356D01*
X50068359Y-92706735D01*
X50093485Y-92709650D01*
X51821514Y-92709649D01*
X51821529Y-92709647D01*
X51821532Y-92709647D01*
X51846637Y-92706736D01*
X51846638Y-92706735D01*
X51846641Y-92706735D01*
X51949415Y-92661356D01*
X52028856Y-92581915D01*
X52074235Y-92479141D01*
X52077150Y-92454015D01*
X52077149Y-90725986D01*
X52074375Y-90702066D01*
X52074236Y-90700863D01*
X52074235Y-90700861D01*
X52074235Y-90700859D01*
X52031725Y-90604584D01*
X52022655Y-90535308D01*
X52052479Y-90472123D01*
X52111728Y-90435092D01*
X52145161Y-90430500D01*
X52806920Y-90430500D01*
X52873959Y-90450185D01*
X52919714Y-90502989D01*
X52929658Y-90572147D01*
X52900633Y-90635703D01*
X52879805Y-90654818D01*
X52768103Y-90735973D01*
X52768098Y-90735977D01*
X52643473Y-90860602D01*
X52539892Y-91003172D01*
X52459881Y-91160199D01*
X52405419Y-91327814D01*
X52377850Y-91501882D01*
X52377850Y-91678117D01*
X52405419Y-91852185D01*
X52459881Y-92019800D01*
X52539892Y-92176827D01*
X52643473Y-92319397D01*
X52768102Y-92444026D01*
X52885138Y-92529056D01*
X52910676Y-92547610D01*
X53010731Y-92598591D01*
X53067699Y-92627618D01*
X53067701Y-92627618D01*
X53067704Y-92627620D01*
X53157548Y-92656812D01*
X53235314Y-92682080D01*
X53322348Y-92695865D01*
X53409382Y-92709650D01*
X53409383Y-92709650D01*
X53585617Y-92709650D01*
X53585618Y-92709650D01*
X53759685Y-92682080D01*
X53927296Y-92627620D01*
X54084324Y-92547610D01*
X54164374Y-92489450D01*
X54226897Y-92444026D01*
X54226899Y-92444023D01*
X54226903Y-92444021D01*
X54351521Y-92319403D01*
X54351523Y-92319399D01*
X54351526Y-92319397D01*
X54425042Y-92218209D01*
X54455110Y-92176824D01*
X54535120Y-92019796D01*
X54589580Y-91852185D01*
X54617150Y-91678118D01*
X54617150Y-91501882D01*
X54589580Y-91327815D01*
X54582784Y-91306900D01*
X54535118Y-91160199D01*
X54506091Y-91103231D01*
X54455110Y-91003176D01*
X54421618Y-90957078D01*
X54351526Y-90860602D01*
X54226901Y-90735977D01*
X54226896Y-90735973D01*
X54115195Y-90654818D01*
X54072529Y-90599489D01*
X54066550Y-90529875D01*
X54099155Y-90468080D01*
X54159994Y-90433723D01*
X54188080Y-90430500D01*
X57123746Y-90430500D01*
X57190785Y-90450185D01*
X57236540Y-90502989D01*
X57247746Y-90554455D01*
X57250004Y-96752547D01*
X57230344Y-96819593D01*
X57177557Y-96865368D01*
X57108402Y-96875336D01*
X57080515Y-96867947D01*
X56946563Y-96815123D01*
X56893978Y-96808809D01*
X56858102Y-96804501D01*
X55521898Y-96804501D01*
X55482853Y-96809189D01*
X55433438Y-96815123D01*
X55301267Y-96867245D01*
X55231680Y-96873526D01*
X55169744Y-96841189D01*
X55168096Y-96839571D01*
X55033015Y-96704490D01*
X55033014Y-96704489D01*
X54907484Y-96632015D01*
X54838143Y-96613435D01*
X54838142Y-96613434D01*
X54786409Y-96599572D01*
X54767474Y-96594499D01*
X54767473Y-96594499D01*
X54176804Y-96594499D01*
X54109765Y-96574814D01*
X54064010Y-96522010D01*
X54061450Y-96515989D01*
X54044362Y-96472659D01*
X54044361Y-96472657D01*
X53952922Y-96352076D01*
X53832343Y-96260638D01*
X53697551Y-96207483D01*
X53691564Y-96205122D01*
X53691563Y-96205121D01*
X53691561Y-96205121D01*
X53645926Y-96199641D01*
X53603102Y-96194499D01*
X50616898Y-96194499D01*
X50577853Y-96199187D01*
X50528438Y-96205121D01*
X50387656Y-96260638D01*
X50267077Y-96352076D01*
X50175639Y-96472655D01*
X50120122Y-96613437D01*
X50114188Y-96662852D01*
X50109500Y-96701897D01*
X50109500Y-97588101D01*
X50110529Y-97596666D01*
X50120122Y-97676560D01*
X50120122Y-97676562D01*
X50120123Y-97676563D01*
X50127659Y-97695672D01*
X50175639Y-97817342D01*
X50267077Y-97937921D01*
X50387656Y-98029359D01*
X50387657Y-98029359D01*
X50387658Y-98029360D01*
X50528436Y-98084876D01*
X50616898Y-98095499D01*
X50616903Y-98095499D01*
X53603097Y-98095499D01*
X53603102Y-98095499D01*
X53691564Y-98084876D01*
X53832342Y-98029360D01*
X53952922Y-97937921D01*
X54044361Y-97817341D01*
X54047512Y-97809349D01*
X54061450Y-97774009D01*
X54074357Y-97757420D01*
X54083091Y-97738296D01*
X54095384Y-97730395D01*
X54104356Y-97718865D01*
X54124183Y-97711887D01*
X54141869Y-97700522D01*
X54166577Y-97696969D01*
X54170264Y-97695672D01*
X54176804Y-97695499D01*
X54415612Y-97695499D01*
X54482651Y-97715184D01*
X54503293Y-97731818D01*
X54941986Y-98170511D01*
X54978424Y-98191548D01*
X55026640Y-98242115D01*
X55031779Y-98253446D01*
X55080637Y-98377340D01*
X55080638Y-98377342D01*
X55172077Y-98497923D01*
X55292656Y-98589361D01*
X55292657Y-98589361D01*
X55292658Y-98589362D01*
X55433436Y-98644878D01*
X55521898Y-98655501D01*
X55521903Y-98655501D01*
X56858097Y-98655501D01*
X56858102Y-98655501D01*
X56946564Y-98644878D01*
X57081226Y-98591773D01*
X57150811Y-98585492D01*
X57212747Y-98617828D01*
X57247369Y-98678517D01*
X57250715Y-98707083D01*
X57254492Y-109073259D01*
X57234832Y-109140305D01*
X57182045Y-109186080D01*
X57112890Y-109196048D01*
X57085002Y-109188659D01*
X56988781Y-109150714D01*
X56936565Y-109130123D01*
X56936564Y-109130122D01*
X56936562Y-109130122D01*
X56890927Y-109124642D01*
X56848103Y-109119500D01*
X55961899Y-109119500D01*
X55922854Y-109124188D01*
X55873439Y-109130122D01*
X55732657Y-109185639D01*
X55612078Y-109277077D01*
X55520640Y-109397656D01*
X55465123Y-109538438D01*
X55459189Y-109587853D01*
X55454501Y-109626898D01*
X55454501Y-109626903D01*
X55454501Y-110195500D01*
X55434816Y-110262539D01*
X55382012Y-110308294D01*
X55330501Y-110319500D01*
X55251153Y-110319500D01*
X55096510Y-110350260D01*
X55096502Y-110350262D01*
X54950824Y-110410604D01*
X54950814Y-110410609D01*
X54819711Y-110498210D01*
X54819707Y-110498213D01*
X54120337Y-111197585D01*
X53889711Y-111428211D01*
X53850752Y-111467170D01*
X53778209Y-111539712D01*
X53690609Y-111670814D01*
X53690602Y-111670827D01*
X53630264Y-111816498D01*
X53630261Y-111816510D01*
X53599500Y-111971153D01*
X53599500Y-114267060D01*
X53579815Y-114334099D01*
X53563181Y-114354741D01*
X53312180Y-114605742D01*
X53250857Y-114639227D01*
X53181165Y-114634243D01*
X53125232Y-114592371D01*
X53100815Y-114526907D01*
X53100499Y-114518061D01*
X53100499Y-114096903D01*
X53100499Y-114096898D01*
X53089877Y-114008435D01*
X53034361Y-113867657D01*
X53012289Y-113838550D01*
X52942923Y-113747076D01*
X52822345Y-113655640D01*
X52822339Y-113655637D01*
X52681566Y-113600123D01*
X52668927Y-113598605D01*
X52593103Y-113589500D01*
X52593097Y-113589500D01*
X51606903Y-113589500D01*
X51518435Y-113600123D01*
X51518431Y-113600124D01*
X51377660Y-113655637D01*
X51377654Y-113655640D01*
X51257076Y-113747076D01*
X51165638Y-113867657D01*
X51164325Y-113870988D01*
X51162307Y-113873580D01*
X51161481Y-113875051D01*
X51161260Y-113874926D01*
X51151416Y-113887578D01*
X51142683Y-113906703D01*
X51130391Y-113914602D01*
X51121420Y-113926133D01*
X51101590Y-113933111D01*
X51083905Y-113944477D01*
X51059201Y-113948028D01*
X51055513Y-113949327D01*
X51048970Y-113949500D01*
X50836682Y-113949500D01*
X50769643Y-113929815D01*
X50750202Y-113911786D01*
X50748917Y-113913072D01*
X50742919Y-113907073D01*
X50622345Y-113815640D01*
X50622339Y-113815637D01*
X50481566Y-113760123D01*
X50466821Y-113758352D01*
X50393103Y-113749500D01*
X50393098Y-113749500D01*
X49644500Y-113749500D01*
X49577461Y-113729815D01*
X49531706Y-113677011D01*
X49520500Y-113625500D01*
X49520500Y-112786989D01*
X49540185Y-112719950D01*
X49592989Y-112674195D01*
X49594295Y-112673607D01*
X49642765Y-112652206D01*
X49722206Y-112572765D01*
X49767585Y-112469991D01*
X49770500Y-112444865D01*
X49770499Y-111455136D01*
X49768398Y-111437016D01*
X49767586Y-111430012D01*
X49767585Y-111430010D01*
X49767585Y-111430009D01*
X49722206Y-111327235D01*
X49682652Y-111287681D01*
X49680657Y-111284028D01*
X49677142Y-111281801D01*
X49664054Y-111253622D01*
X49649167Y-111226358D01*
X49649463Y-111222207D01*
X49647711Y-111218433D01*
X49651934Y-111187657D01*
X49654151Y-111156666D01*
X49656806Y-111152157D01*
X49657211Y-111149212D01*
X49666334Y-111135981D01*
X49676102Y-111119399D01*
X49679236Y-111115734D01*
X49722206Y-111072765D01*
X49728838Y-111057744D01*
X49740681Y-111043899D01*
X49755301Y-111034369D01*
X49766564Y-111021037D01*
X49783965Y-111015688D01*
X49799216Y-111005749D01*
X49816667Y-111005637D01*
X49833350Y-111000510D01*
X49834912Y-111000500D01*
X50880499Y-111000500D01*
X50947538Y-111020185D01*
X50993293Y-111072989D01*
X51004499Y-111124500D01*
X51004499Y-112613102D01*
X51009105Y-112651454D01*
X51015121Y-112701561D01*
X51070638Y-112842343D01*
X51162076Y-112962922D01*
X51282655Y-113054360D01*
X51282656Y-113054360D01*
X51282657Y-113054361D01*
X51423435Y-113109877D01*
X51511897Y-113120500D01*
X51511902Y-113120500D01*
X52398096Y-113120500D01*
X52398101Y-113120500D01*
X52486563Y-113109877D01*
X52627341Y-113054361D01*
X52747921Y-112962922D01*
X52839360Y-112842342D01*
X52894876Y-112701564D01*
X52905499Y-112613102D01*
X52905499Y-109626898D01*
X52894876Y-109538436D01*
X52839360Y-109397658D01*
X52839359Y-109397657D01*
X52839359Y-109397656D01*
X52747920Y-109277076D01*
X52669574Y-109217664D01*
X52667094Y-109214308D01*
X52663297Y-109212574D01*
X52646507Y-109186448D01*
X52628051Y-109161472D01*
X52627135Y-109156304D01*
X52625523Y-109153796D01*
X52620500Y-109118861D01*
X52620500Y-109014499D01*
X52640185Y-108947460D01*
X52692989Y-108901705D01*
X52744500Y-108890499D01*
X53563097Y-108890499D01*
X53563102Y-108890499D01*
X53651565Y-108879877D01*
X53792343Y-108824361D01*
X53912923Y-108732923D01*
X54004361Y-108612343D01*
X54041168Y-108519007D01*
X54054075Y-108502418D01*
X54062808Y-108483297D01*
X54075099Y-108475397D01*
X54084072Y-108463866D01*
X54103901Y-108456887D01*
X54121586Y-108445523D01*
X54146292Y-108441970D01*
X54149980Y-108440673D01*
X54156521Y-108440500D01*
X54307844Y-108440500D01*
X54374883Y-108460185D01*
X54406798Y-108489773D01*
X54464186Y-108565767D01*
X54559639Y-108624869D01*
X54559641Y-108624870D01*
X54670000Y-108645500D01*
X54670002Y-108645500D01*
X55820000Y-108645500D01*
X55913429Y-108630863D01*
X56012192Y-108577471D01*
X56084998Y-108492008D01*
X56122015Y-108386014D01*
X56118243Y-108273807D01*
X56118242Y-108273806D01*
X56118242Y-108273803D01*
X56074193Y-108170543D01*
X56074190Y-108170538D01*
X56058527Y-108147044D01*
X55735421Y-107662384D01*
X55729808Y-107644392D01*
X55719618Y-107628536D01*
X55715135Y-107597359D01*
X55714613Y-107595685D01*
X55714595Y-107593601D01*
X55714595Y-107586399D01*
X55734280Y-107519360D01*
X55735421Y-107517616D01*
X56074187Y-107009467D01*
X56074191Y-107009461D01*
X56092656Y-106969475D01*
X56113838Y-106923605D01*
X56121585Y-106840000D01*
X56124197Y-106811812D01*
X56124196Y-106811811D01*
X56124197Y-106811810D01*
X56093473Y-106703829D01*
X56093472Y-106703828D01*
X56093472Y-106703827D01*
X56025814Y-106614233D01*
X56025813Y-106614232D01*
X55930360Y-106555130D01*
X55930361Y-106555130D01*
X55870279Y-106543899D01*
X55820000Y-106534500D01*
X54670000Y-106534500D01*
X54667130Y-106534632D01*
X54641816Y-106535802D01*
X54641807Y-106535804D01*
X54533830Y-106566526D01*
X54533825Y-106566529D01*
X54444232Y-106634186D01*
X54385130Y-106729639D01*
X54381666Y-106748172D01*
X54365115Y-106836714D01*
X54364500Y-106840002D01*
X54364500Y-107215500D01*
X54361949Y-107224185D01*
X54363238Y-107233147D01*
X54352259Y-107257187D01*
X54344815Y-107282539D01*
X54337974Y-107288466D01*
X54334213Y-107296703D01*
X54311978Y-107310992D01*
X54292011Y-107328294D01*
X54281496Y-107330581D01*
X54275435Y-107334477D01*
X54240500Y-107339500D01*
X54156521Y-107339500D01*
X54089482Y-107319815D01*
X54043727Y-107267011D01*
X54041179Y-107261022D01*
X54004361Y-107167657D01*
X53987164Y-107144979D01*
X53912923Y-107047076D01*
X53792345Y-106955640D01*
X53792339Y-106955637D01*
X53651566Y-106900123D01*
X53638927Y-106898605D01*
X53563103Y-106889500D01*
X53563097Y-106889500D01*
X50576903Y-106889500D01*
X50488435Y-106900123D01*
X50488431Y-106900124D01*
X50347660Y-106955637D01*
X50347654Y-106955640D01*
X50227076Y-107047076D01*
X50135640Y-107167654D01*
X50135637Y-107167660D01*
X50080123Y-107308433D01*
X50080123Y-107308435D01*
X50069500Y-107396897D01*
X50069500Y-107396901D01*
X50069500Y-107396902D01*
X50069500Y-108383096D01*
X50080123Y-108471564D01*
X50080124Y-108471568D01*
X50135637Y-108612339D01*
X50135639Y-108612343D01*
X50227076Y-108732923D01*
X50347654Y-108824359D01*
X50347657Y-108824361D01*
X50488435Y-108879877D01*
X50576897Y-108890500D01*
X51378628Y-108890499D01*
X51445667Y-108910183D01*
X51491422Y-108962987D01*
X51501366Y-109032146D01*
X51472341Y-109095702D01*
X51424118Y-109129853D01*
X51282659Y-109185637D01*
X51282657Y-109185638D01*
X51162076Y-109277077D01*
X51070638Y-109397656D01*
X51015121Y-109538438D01*
X51009187Y-109587853D01*
X51004499Y-109626898D01*
X51004499Y-109626903D01*
X51004499Y-109775500D01*
X50984814Y-109842539D01*
X50932010Y-109888294D01*
X50880499Y-109899500D01*
X49834912Y-109899500D01*
X49767873Y-109879815D01*
X49740681Y-109856101D01*
X49728838Y-109842255D01*
X49722206Y-109827235D01*
X49679236Y-109784265D01*
X49676102Y-109780601D01*
X49663690Y-109752955D01*
X49649167Y-109726358D01*
X49649521Y-109721396D01*
X49647485Y-109716860D01*
X49651989Y-109686896D01*
X49654151Y-109656666D01*
X49657260Y-109651827D01*
X49657871Y-109647767D01*
X49665335Y-109639263D01*
X49682652Y-109612319D01*
X49722206Y-109572765D01*
X49767585Y-109469991D01*
X49770500Y-109444865D01*
X49770499Y-108455136D01*
X49770497Y-108455117D01*
X49767586Y-108430012D01*
X49767585Y-108430010D01*
X49767585Y-108430009D01*
X49722206Y-108327235D01*
X49682652Y-108287681D01*
X49649167Y-108226358D01*
X49654151Y-108156666D01*
X49682652Y-108112319D01*
X49700370Y-108094601D01*
X49722206Y-108072765D01*
X49767585Y-107969991D01*
X49770500Y-107944865D01*
X49770499Y-106955136D01*
X49770497Y-106955117D01*
X49767586Y-106930012D01*
X49767585Y-106930010D01*
X49767585Y-106930009D01*
X49722206Y-106827235D01*
X49682652Y-106787681D01*
X49649167Y-106726358D01*
X49654151Y-106656666D01*
X49682652Y-106612319D01*
X49722206Y-106572765D01*
X49767585Y-106469991D01*
X49770500Y-106444865D01*
X49770499Y-105455136D01*
X49768802Y-105440501D01*
X49767586Y-105430012D01*
X49767585Y-105430010D01*
X49767585Y-105430009D01*
X49722206Y-105327235D01*
X49682652Y-105287681D01*
X49649167Y-105226358D01*
X49654151Y-105156666D01*
X49682652Y-105112319D01*
X49700874Y-105094097D01*
X49722206Y-105072765D01*
X49767165Y-104970943D01*
X53499500Y-104970943D01*
X53499500Y-105129057D01*
X53538571Y-105274870D01*
X53540423Y-105281783D01*
X53540426Y-105281790D01*
X53619475Y-105418709D01*
X53619479Y-105418714D01*
X53619480Y-105418716D01*
X53731284Y-105530520D01*
X53731286Y-105530521D01*
X53731290Y-105530524D01*
X53868209Y-105609573D01*
X53868216Y-105609577D01*
X54020943Y-105650500D01*
X54020945Y-105650500D01*
X54179055Y-105650500D01*
X54179057Y-105650500D01*
X54331784Y-105609577D01*
X54468716Y-105530520D01*
X54580520Y-105418716D01*
X54659577Y-105281784D01*
X54700500Y-105129057D01*
X54700500Y-104970943D01*
X54659577Y-104818216D01*
X54659573Y-104818209D01*
X54580524Y-104681290D01*
X54580518Y-104681282D01*
X54468717Y-104569481D01*
X54468709Y-104569475D01*
X54331790Y-104490426D01*
X54331786Y-104490424D01*
X54331784Y-104490423D01*
X54179057Y-104449500D01*
X54020943Y-104449500D01*
X53868216Y-104490423D01*
X53868209Y-104490426D01*
X53731290Y-104569475D01*
X53731282Y-104569481D01*
X53619481Y-104681282D01*
X53619475Y-104681290D01*
X53540426Y-104818209D01*
X53540423Y-104818216D01*
X53499500Y-104970943D01*
X49767165Y-104970943D01*
X49767585Y-104969991D01*
X49770500Y-104944865D01*
X49770499Y-104047940D01*
X49790183Y-103980902D01*
X49842987Y-103935147D01*
X49862397Y-103928168D01*
X49931784Y-103909577D01*
X50068716Y-103830520D01*
X50180520Y-103718716D01*
X50259577Y-103581784D01*
X50300500Y-103429057D01*
X50300500Y-103270943D01*
X50259577Y-103118216D01*
X50242141Y-103088015D01*
X50180524Y-102981290D01*
X50180518Y-102981282D01*
X50068717Y-102869481D01*
X50068712Y-102869477D01*
X49924746Y-102786359D01*
X49924961Y-102785986D01*
X49920684Y-102785056D01*
X49892430Y-102763905D01*
X49806818Y-102678293D01*
X49773333Y-102616970D01*
X49770499Y-102590612D01*
X49770499Y-102455143D01*
X49770499Y-102455136D01*
X49770497Y-102455117D01*
X49767586Y-102430012D01*
X49767585Y-102430010D01*
X49767585Y-102430009D01*
X49722206Y-102327235D01*
X49682652Y-102287681D01*
X49649167Y-102226358D01*
X49654151Y-102156666D01*
X49682652Y-102112319D01*
X49722206Y-102072765D01*
X49767585Y-101969991D01*
X49770500Y-101944865D01*
X49770499Y-101831385D01*
X49779144Y-101801942D01*
X49785667Y-101771959D01*
X49789420Y-101766945D01*
X49790183Y-101764347D01*
X49806809Y-101743714D01*
X49897822Y-101652702D01*
X49959143Y-101619220D01*
X50028834Y-101624204D01*
X50084768Y-101666076D01*
X50109184Y-101731541D01*
X50109500Y-101740386D01*
X50109500Y-102038103D01*
X50115126Y-102084955D01*
X50120122Y-102126562D01*
X50120122Y-102126564D01*
X50120123Y-102126565D01*
X50129361Y-102149991D01*
X50175639Y-102267344D01*
X50267077Y-102387923D01*
X50387656Y-102479361D01*
X50387657Y-102479361D01*
X50387658Y-102479362D01*
X50528436Y-102534878D01*
X50616898Y-102545501D01*
X50616903Y-102545501D01*
X53603097Y-102545501D01*
X53603102Y-102545501D01*
X53691564Y-102534878D01*
X53832342Y-102479362D01*
X53952922Y-102387923D01*
X54044361Y-102267343D01*
X54099877Y-102126565D01*
X54110500Y-102038103D01*
X54110500Y-101151899D01*
X54099877Y-101063437D01*
X54044361Y-100922659D01*
X54044360Y-100922658D01*
X54044360Y-100922657D01*
X53952922Y-100802078D01*
X53832343Y-100710640D01*
X53691561Y-100655123D01*
X53642332Y-100649212D01*
X53603102Y-100644501D01*
X53603097Y-100644501D01*
X52524387Y-100644501D01*
X52457348Y-100624816D01*
X52436706Y-100608182D01*
X51986095Y-100157570D01*
X51964262Y-100124895D01*
X51963641Y-100125254D01*
X51880524Y-99981290D01*
X51880518Y-99981282D01*
X51768717Y-99869481D01*
X51768709Y-99869475D01*
X51631790Y-99790426D01*
X51631786Y-99790424D01*
X51631784Y-99790423D01*
X51479057Y-99749500D01*
X51320943Y-99749500D01*
X51168216Y-99790423D01*
X51168215Y-99790423D01*
X51036499Y-99866469D01*
X51030597Y-99867900D01*
X51026011Y-99871875D01*
X50997048Y-99876039D01*
X50968599Y-99882941D01*
X50962861Y-99880955D01*
X50956853Y-99881819D01*
X50930231Y-99869661D01*
X50902572Y-99860088D01*
X50898819Y-99855315D01*
X50893297Y-99852794D01*
X50877473Y-99828171D01*
X50859382Y-99805166D01*
X50857965Y-99797816D01*
X50855523Y-99794016D01*
X50850500Y-99759081D01*
X50850500Y-99628362D01*
X50858167Y-99589822D01*
X50857473Y-99589636D01*
X50859577Y-99581784D01*
X50900500Y-99429057D01*
X50900500Y-99270943D01*
X50859577Y-99118216D01*
X50855133Y-99110518D01*
X50780524Y-98981290D01*
X50780518Y-98981282D01*
X50668717Y-98869481D01*
X50668709Y-98869475D01*
X50531790Y-98790426D01*
X50531786Y-98790424D01*
X50531784Y-98790423D01*
X50379057Y-98749500D01*
X50220943Y-98749500D01*
X50068216Y-98790423D01*
X50068209Y-98790426D01*
X49931290Y-98869475D01*
X49931282Y-98869481D01*
X49819481Y-98981282D01*
X49819475Y-98981290D01*
X49740426Y-99118209D01*
X49740423Y-99118216D01*
X49699500Y-99270943D01*
X49699500Y-99429057D01*
X49740423Y-99581784D01*
X49742527Y-99589636D01*
X49741832Y-99589822D01*
X49749500Y-99628362D01*
X49749500Y-100192612D01*
X49729815Y-100259651D01*
X49713181Y-100280293D01*
X49330293Y-100663181D01*
X49268970Y-100696666D01*
X49242612Y-100699500D01*
X47925143Y-100699500D01*
X47925117Y-100699502D01*
X47900012Y-100702413D01*
X47900008Y-100702415D01*
X47797235Y-100747793D01*
X47717794Y-100827234D01*
X47672415Y-100930006D01*
X47672415Y-100930008D01*
X47669500Y-100955131D01*
X47669500Y-101944856D01*
X47669502Y-101944882D01*
X47672413Y-101969987D01*
X47672415Y-101969991D01*
X47717793Y-102072764D01*
X47757348Y-102112319D01*
X47790833Y-102173642D01*
X47785849Y-102243334D01*
X47757348Y-102287681D01*
X47717794Y-102327234D01*
X47672415Y-102430006D01*
X47672415Y-102430008D01*
X47669500Y-102455131D01*
X47669500Y-103444856D01*
X47669502Y-103444882D01*
X47672413Y-103469987D01*
X47672415Y-103469991D01*
X47717793Y-103572764D01*
X47757348Y-103612319D01*
X47759342Y-103615971D01*
X47762858Y-103618199D01*
X47775945Y-103646377D01*
X47790833Y-103673642D01*
X47790536Y-103677792D01*
X47792289Y-103681567D01*
X47788065Y-103712342D01*
X47785849Y-103743334D01*
X47783193Y-103747842D01*
X47782789Y-103750788D01*
X47773665Y-103764018D01*
X47763898Y-103780601D01*
X47760763Y-103784265D01*
X47717794Y-103827235D01*
X47711161Y-103842255D01*
X47699319Y-103856101D01*
X47684698Y-103865630D01*
X47673436Y-103878963D01*
X47656034Y-103884311D01*
X47640784Y-103894251D01*
X47623332Y-103894362D01*
X47606650Y-103899490D01*
X47605088Y-103899500D01*
X46279387Y-103899500D01*
X46212348Y-103879815D01*
X46191706Y-103863181D01*
X46186095Y-103857570D01*
X46164262Y-103824895D01*
X46163641Y-103825254D01*
X46080524Y-103681290D01*
X46080518Y-103681282D01*
X45968717Y-103569481D01*
X45968709Y-103569475D01*
X45831790Y-103490426D01*
X45831786Y-103490424D01*
X45831784Y-103490423D01*
X45679057Y-103449500D01*
X45520943Y-103449500D01*
X45368216Y-103490423D01*
X45368209Y-103490426D01*
X45231290Y-103569475D01*
X45231282Y-103569481D01*
X45119481Y-103681282D01*
X45119475Y-103681290D01*
X45040426Y-103818209D01*
X45040423Y-103818216D01*
X44999500Y-103970943D01*
X44999500Y-104129057D01*
X45005246Y-104150499D01*
X45040423Y-104281783D01*
X45040426Y-104281790D01*
X45119475Y-104418709D01*
X45119479Y-104418714D01*
X45119480Y-104418716D01*
X45231284Y-104530520D01*
X45231286Y-104530521D01*
X45231290Y-104530524D01*
X45375254Y-104613641D01*
X45374895Y-104614262D01*
X45407570Y-104636095D01*
X45661985Y-104890510D01*
X45756130Y-104944864D01*
X45787515Y-104962984D01*
X45927525Y-105000500D01*
X47605088Y-105000500D01*
X47672127Y-105020185D01*
X47699319Y-105043899D01*
X47711161Y-105057744D01*
X47717794Y-105072765D01*
X47760763Y-105115734D01*
X47763898Y-105119399D01*
X47776309Y-105147044D01*
X47790833Y-105173642D01*
X47790478Y-105178603D01*
X47792515Y-105183140D01*
X47788010Y-105213103D01*
X47785849Y-105243334D01*
X47782739Y-105248172D01*
X47782129Y-105252233D01*
X47774664Y-105260736D01*
X47757348Y-105287681D01*
X47717794Y-105327234D01*
X47711301Y-105336714D01*
X47709921Y-105335768D01*
X47673436Y-105378963D01*
X47606650Y-105399490D01*
X47605088Y-105399500D01*
X45779387Y-105399500D01*
X45712348Y-105379815D01*
X45691706Y-105363181D01*
X39110706Y-98782181D01*
X39077221Y-98720858D01*
X39082205Y-98651166D01*
X39124077Y-98595233D01*
X39189541Y-98570816D01*
X39198387Y-98570500D01*
X39898098Y-98570500D01*
X39898103Y-98570500D01*
X39986565Y-98559877D01*
X40127343Y-98504361D01*
X40247923Y-98412922D01*
X40339362Y-98292342D01*
X40394878Y-98151564D01*
X40405501Y-98063102D01*
X40405501Y-97244500D01*
X40425186Y-97177461D01*
X40477990Y-97131706D01*
X40529501Y-97120500D01*
X41540613Y-97120500D01*
X41607652Y-97140185D01*
X41628294Y-97156819D01*
X43061985Y-98590510D01*
X43174554Y-98655501D01*
X43187515Y-98662984D01*
X43327525Y-98700500D01*
X43327528Y-98700500D01*
X47172472Y-98700500D01*
X47172474Y-98700500D01*
X47172475Y-98700500D01*
X47312485Y-98662984D01*
X47325446Y-98655501D01*
X47438015Y-98590510D01*
X48180510Y-97848014D01*
X48252984Y-97722485D01*
X48265290Y-97676560D01*
X48270391Y-97657525D01*
X48277751Y-97630054D01*
X48290500Y-97582475D01*
X48290500Y-97183112D01*
X48310185Y-97116073D01*
X48326819Y-97095430D01*
X48332388Y-97089860D01*
X48332391Y-97089859D01*
X48419859Y-97002391D01*
X48476017Y-96892175D01*
X48476017Y-96892173D01*
X48476018Y-96892172D01*
X48476018Y-96892171D01*
X48480263Y-96865368D01*
X48490500Y-96800735D01*
X48490499Y-95419266D01*
X48490499Y-95419264D01*
X48490499Y-95419260D01*
X48476018Y-95327829D01*
X48476018Y-95327828D01*
X48476017Y-95327826D01*
X48476017Y-95327825D01*
X48419859Y-95217609D01*
X48419857Y-95217607D01*
X48419854Y-95217603D01*
X48332396Y-95130145D01*
X48332393Y-95130143D01*
X48332391Y-95130141D01*
X48222175Y-95073983D01*
X48222174Y-95073982D01*
X48222171Y-95073981D01*
X48130735Y-95059500D01*
X47349260Y-95059500D01*
X47349260Y-95059501D01*
X47257829Y-95073981D01*
X47257828Y-95073981D01*
X47147607Y-95130142D01*
X47147603Y-95130145D01*
X47060145Y-95217603D01*
X47060143Y-95217607D01*
X47060141Y-95217609D01*
X47059832Y-95218216D01*
X47003981Y-95327827D01*
X47003981Y-95327828D01*
X46989500Y-95419264D01*
X46989500Y-96800739D01*
X47003981Y-96892170D01*
X47003981Y-96892171D01*
X47003982Y-96892174D01*
X47003983Y-96892175D01*
X47060141Y-97002391D01*
X47147609Y-97089859D01*
X47147610Y-97089859D01*
X47153181Y-97095430D01*
X47167888Y-97122363D01*
X47184477Y-97148177D01*
X47185368Y-97154376D01*
X47186666Y-97156753D01*
X47189500Y-97183112D01*
X47189500Y-97230613D01*
X47169815Y-97297652D01*
X47153181Y-97318294D01*
X46908294Y-97563181D01*
X46846971Y-97596666D01*
X46820613Y-97599500D01*
X43679387Y-97599500D01*
X43612348Y-97579815D01*
X43591706Y-97563181D01*
X42158016Y-96129491D01*
X42158015Y-96129490D01*
X42032485Y-96057016D01*
X41959744Y-96037525D01*
X41959743Y-96037524D01*
X41892475Y-96019500D01*
X40529501Y-96019500D01*
X40462462Y-95999815D01*
X40416707Y-95947011D01*
X40405501Y-95895500D01*
X40405501Y-95076903D01*
X40405501Y-95076898D01*
X40394878Y-94988436D01*
X40339362Y-94847658D01*
X40339361Y-94847657D01*
X40339361Y-94847656D01*
X40247923Y-94727077D01*
X40127344Y-94635639D01*
X39986562Y-94580122D01*
X39940927Y-94574642D01*
X39898103Y-94569500D01*
X39011899Y-94569500D01*
X38972854Y-94574188D01*
X38923439Y-94580122D01*
X38782657Y-94635639D01*
X38662078Y-94727077D01*
X38570640Y-94847656D01*
X38515123Y-94988438D01*
X38513846Y-94999077D01*
X38504501Y-95076898D01*
X38504501Y-95076903D01*
X38504501Y-97876614D01*
X38484816Y-97943653D01*
X38432012Y-97989408D01*
X38362854Y-97999352D01*
X38299298Y-97970327D01*
X38292820Y-97964295D01*
X36458016Y-96129491D01*
X36458015Y-96129490D01*
X36332485Y-96057016D01*
X36259744Y-96037525D01*
X36259743Y-96037524D01*
X36192475Y-96019500D01*
X36079499Y-96019500D01*
X36012460Y-95999815D01*
X35966705Y-95947011D01*
X35955499Y-95895500D01*
X35955499Y-95076903D01*
X35955499Y-95076898D01*
X35944876Y-94988436D01*
X35889360Y-94847658D01*
X35889359Y-94847657D01*
X35889359Y-94847656D01*
X35797921Y-94727077D01*
X35677342Y-94635639D01*
X35536560Y-94580122D01*
X35490925Y-94574642D01*
X35448101Y-94569500D01*
X34561897Y-94569500D01*
X34558386Y-94569500D01*
X34537140Y-94563261D01*
X34515052Y-94561682D01*
X34504268Y-94553609D01*
X34491347Y-94549815D01*
X34476847Y-94533081D01*
X34459119Y-94519810D01*
X34454411Y-94507189D01*
X34445592Y-94497011D01*
X34442440Y-94475093D01*
X34434702Y-94454346D01*
X34437564Y-94441185D01*
X34435648Y-94427853D01*
X34444847Y-94407709D01*
X34449554Y-94386073D01*
X34462822Y-94368347D01*
X34464673Y-94364297D01*
X34470705Y-94357819D01*
X34631705Y-94196819D01*
X34693028Y-94163334D01*
X34719386Y-94160500D01*
X35508095Y-94160500D01*
X35508100Y-94160500D01*
X35596562Y-94149877D01*
X35737340Y-94094361D01*
X35857920Y-94002922D01*
X35949359Y-93882342D01*
X36004875Y-93741564D01*
X36015498Y-93653102D01*
X36015498Y-90666898D01*
X36004875Y-90578436D01*
X36003927Y-90570541D01*
X36007065Y-90570164D01*
X36009161Y-90515070D01*
X36049141Y-90457769D01*
X36113754Y-90431180D01*
X36126725Y-90430500D01*
X38453273Y-90430500D01*
X38476443Y-90437303D01*
G37*
%TD.AperFunction*%
%TA.AperFunction,Conductor*%
G36*
X34070310Y-90450185D02*
G01*
X34116065Y-90502989D01*
X34125772Y-90570505D01*
X34126069Y-90570541D01*
X34125936Y-90571643D01*
X34126009Y-90572147D01*
X34125670Y-90573858D01*
X34119460Y-90625571D01*
X34114498Y-90666898D01*
X34114498Y-90666903D01*
X34114498Y-93105614D01*
X34094813Y-93172653D01*
X34078179Y-93193295D01*
X33802180Y-93469294D01*
X33740857Y-93502779D01*
X33671165Y-93497795D01*
X33615232Y-93455923D01*
X33590815Y-93390459D01*
X33590499Y-93381613D01*
X33590499Y-91306908D01*
X33590499Y-91306902D01*
X33579876Y-91218436D01*
X33524361Y-91077658D01*
X33524359Y-91077655D01*
X33432922Y-90957077D01*
X33312344Y-90865640D01*
X33312342Y-90865639D01*
X33171564Y-90810124D01*
X33171561Y-90810123D01*
X33083099Y-90799500D01*
X31396908Y-90799500D01*
X31308437Y-90810123D01*
X31167657Y-90865639D01*
X31167655Y-90865640D01*
X31047077Y-90957077D01*
X30955640Y-91077655D01*
X30955639Y-91077658D01*
X30923088Y-91160204D01*
X30900124Y-91218437D01*
X30900123Y-91218438D01*
X30889500Y-91306900D01*
X30889500Y-93893091D01*
X30900123Y-93981562D01*
X30955639Y-94122342D01*
X30955640Y-94122344D01*
X31047077Y-94242922D01*
X31146209Y-94318096D01*
X31167658Y-94334361D01*
X31308436Y-94389876D01*
X31396901Y-94400500D01*
X32571613Y-94400499D01*
X32638652Y-94420184D01*
X32684407Y-94472987D01*
X32694351Y-94542146D01*
X32665326Y-94605702D01*
X32659294Y-94612180D01*
X32407567Y-94863906D01*
X32374894Y-94885740D01*
X32375253Y-94886361D01*
X32368218Y-94890422D01*
X32368216Y-94890423D01*
X32282028Y-94940182D01*
X32231285Y-94969479D01*
X32231282Y-94969481D01*
X32119481Y-95081282D01*
X32119475Y-95081290D01*
X32040426Y-95218209D01*
X32040423Y-95218216D01*
X31999500Y-95370943D01*
X31999500Y-95529056D01*
X32040423Y-95681783D01*
X32040426Y-95681790D01*
X32119475Y-95818709D01*
X32119479Y-95818714D01*
X32119480Y-95818716D01*
X32231284Y-95930520D01*
X32231286Y-95930521D01*
X32231290Y-95930524D01*
X32368209Y-96009573D01*
X32368216Y-96009577D01*
X32520943Y-96050500D01*
X32520945Y-96050500D01*
X32679055Y-96050500D01*
X32679057Y-96050500D01*
X32831784Y-96009577D01*
X32968716Y-95930520D01*
X33080520Y-95818716D01*
X33159577Y-95681784D01*
X33159577Y-95681780D01*
X33163640Y-95674745D01*
X33164262Y-95675104D01*
X33186092Y-95642431D01*
X33842818Y-94985706D01*
X33904141Y-94952221D01*
X33973833Y-94957205D01*
X34029766Y-94999077D01*
X34054183Y-95064541D01*
X34054499Y-95073387D01*
X34054499Y-95076898D01*
X34054499Y-98063102D01*
X34060125Y-98109954D01*
X34065121Y-98151561D01*
X34120638Y-98292343D01*
X34212076Y-98412922D01*
X34332655Y-98504360D01*
X34332656Y-98504360D01*
X34332657Y-98504361D01*
X34473435Y-98559877D01*
X34561897Y-98570500D01*
X34561902Y-98570500D01*
X35448096Y-98570500D01*
X35448101Y-98570500D01*
X35536563Y-98559877D01*
X35677341Y-98504361D01*
X35797921Y-98412922D01*
X35889360Y-98292342D01*
X35944876Y-98151564D01*
X35955499Y-98063102D01*
X35955499Y-97483386D01*
X35975184Y-97416347D01*
X36027988Y-97370592D01*
X36097146Y-97360648D01*
X36160702Y-97389673D01*
X36167180Y-97395705D01*
X45161985Y-106390510D01*
X45243649Y-106437658D01*
X45287515Y-106462984D01*
X45427525Y-106500500D01*
X47605088Y-106500500D01*
X47672127Y-106520185D01*
X47699319Y-106543899D01*
X47711161Y-106557744D01*
X47717794Y-106572765D01*
X47760763Y-106615734D01*
X47763898Y-106619399D01*
X47776309Y-106647044D01*
X47790833Y-106673642D01*
X47790478Y-106678603D01*
X47792515Y-106683140D01*
X47788010Y-106713103D01*
X47785849Y-106743334D01*
X47782739Y-106748172D01*
X47782129Y-106752233D01*
X47774664Y-106760736D01*
X47757348Y-106787681D01*
X47717794Y-106827234D01*
X47711301Y-106836714D01*
X47709921Y-106835768D01*
X47673436Y-106878963D01*
X47606650Y-106899490D01*
X47605088Y-106899500D01*
X43578363Y-106899500D01*
X43539820Y-106891834D01*
X43539635Y-106892527D01*
X43531785Y-106890423D01*
X43531784Y-106890423D01*
X43379057Y-106849500D01*
X43220943Y-106849500D01*
X43068216Y-106890423D01*
X43068209Y-106890426D01*
X42931290Y-106969475D01*
X42931282Y-106969481D01*
X42819481Y-107081282D01*
X42819475Y-107081290D01*
X42740426Y-107218209D01*
X42740423Y-107218216D01*
X42699500Y-107370943D01*
X42699500Y-107529057D01*
X42734816Y-107660856D01*
X42740423Y-107681783D01*
X42740426Y-107681790D01*
X42819475Y-107818709D01*
X42819479Y-107818714D01*
X42819480Y-107818716D01*
X42931284Y-107930520D01*
X42931286Y-107930521D01*
X42931290Y-107930524D01*
X43012244Y-107977262D01*
X43068216Y-108009577D01*
X43220943Y-108050500D01*
X43220945Y-108050500D01*
X43379055Y-108050500D01*
X43379057Y-108050500D01*
X43531784Y-108009577D01*
X43531785Y-108009576D01*
X43539635Y-108007473D01*
X43539820Y-108008165D01*
X43578363Y-108000500D01*
X47605088Y-108000500D01*
X47672127Y-108020185D01*
X47699319Y-108043899D01*
X47711161Y-108057744D01*
X47717794Y-108072765D01*
X47760763Y-108115734D01*
X47763898Y-108119399D01*
X47776309Y-108147044D01*
X47790833Y-108173642D01*
X47790478Y-108178603D01*
X47792515Y-108183140D01*
X47788010Y-108213103D01*
X47785849Y-108243334D01*
X47782739Y-108248172D01*
X47782129Y-108252233D01*
X47774664Y-108260736D01*
X47757348Y-108287681D01*
X47717794Y-108327234D01*
X47711301Y-108336714D01*
X47709921Y-108335768D01*
X47673436Y-108378963D01*
X47606650Y-108399490D01*
X47605088Y-108399500D01*
X44327525Y-108399500D01*
X44222517Y-108427637D01*
X44187514Y-108437016D01*
X44061986Y-108509489D01*
X44061983Y-108509491D01*
X42707567Y-109863906D01*
X42674894Y-109885740D01*
X42675253Y-109886361D01*
X42668218Y-109890422D01*
X42668216Y-109890423D01*
X42599645Y-109930012D01*
X42531285Y-109969479D01*
X42531282Y-109969481D01*
X42419481Y-110081282D01*
X42419475Y-110081290D01*
X42340426Y-110218209D01*
X42340423Y-110218216D01*
X42299500Y-110370943D01*
X42299500Y-110529057D01*
X42324909Y-110623886D01*
X42341479Y-110685724D01*
X42339816Y-110755573D01*
X42300653Y-110813436D01*
X42236425Y-110840940D01*
X42167523Y-110829354D01*
X42134023Y-110805498D01*
X40038016Y-108709491D01*
X40038015Y-108709490D01*
X39912485Y-108637016D01*
X39912486Y-108637016D01*
X39820405Y-108612343D01*
X39820405Y-108612342D01*
X39776259Y-108600514D01*
X39772475Y-108599500D01*
X39772474Y-108599500D01*
X35779387Y-108599500D01*
X35712348Y-108579815D01*
X35691706Y-108563181D01*
X34138016Y-107009491D01*
X34138015Y-107009490D01*
X34012485Y-106937016D01*
X34012480Y-106937014D01*
X33962432Y-106923603D01*
X33962432Y-106923604D01*
X33917453Y-106911552D01*
X33872475Y-106899500D01*
X33872474Y-106899500D01*
X32334912Y-106899500D01*
X32267873Y-106879815D01*
X32240681Y-106856101D01*
X32228838Y-106842255D01*
X32222206Y-106827235D01*
X32179236Y-106784265D01*
X32176102Y-106780601D01*
X32163690Y-106752955D01*
X32149167Y-106726358D01*
X32149521Y-106721396D01*
X32147485Y-106716860D01*
X32151989Y-106686896D01*
X32154151Y-106656666D01*
X32157260Y-106651827D01*
X32157871Y-106647767D01*
X32165335Y-106639263D01*
X32182652Y-106612319D01*
X32222206Y-106572765D01*
X32267585Y-106469991D01*
X32270500Y-106444865D01*
X32270499Y-105455136D01*
X32268802Y-105440501D01*
X32267586Y-105430012D01*
X32267585Y-105430010D01*
X32267585Y-105430009D01*
X32222206Y-105327235D01*
X32182652Y-105287681D01*
X32149167Y-105226358D01*
X32154151Y-105156666D01*
X32182652Y-105112319D01*
X32200874Y-105094097D01*
X32222206Y-105072765D01*
X32267585Y-104969991D01*
X32270500Y-104944865D01*
X32270499Y-103955136D01*
X32270497Y-103955117D01*
X32267586Y-103930012D01*
X32267585Y-103930010D01*
X32267585Y-103930009D01*
X32222206Y-103827235D01*
X32182652Y-103787681D01*
X32149167Y-103726358D01*
X32154151Y-103656666D01*
X32165330Y-103634042D01*
X32172764Y-103622206D01*
X32222206Y-103572765D01*
X32265706Y-103474245D01*
X32270497Y-103466619D01*
X32290189Y-103449195D01*
X32290432Y-103448908D01*
X32270534Y-103386660D01*
X32270499Y-103383789D01*
X32270499Y-102455136D01*
X32270497Y-102455117D01*
X32267586Y-102430012D01*
X32267585Y-102430010D01*
X32267585Y-102430009D01*
X32222206Y-102327235D01*
X32182652Y-102287681D01*
X32149167Y-102226358D01*
X32154151Y-102156666D01*
X32182652Y-102112319D01*
X32222206Y-102072765D01*
X32267585Y-101969991D01*
X32270500Y-101944865D01*
X32270499Y-100955136D01*
X32270497Y-100955117D01*
X32267586Y-100930012D01*
X32267585Y-100930010D01*
X32267585Y-100930009D01*
X32222206Y-100827235D01*
X32182652Y-100787681D01*
X32180657Y-100784028D01*
X32177142Y-100781801D01*
X32164054Y-100753622D01*
X32149167Y-100726358D01*
X32149463Y-100722207D01*
X32147711Y-100718433D01*
X32151934Y-100687657D01*
X32154151Y-100656666D01*
X32156806Y-100652157D01*
X32157211Y-100649212D01*
X32166334Y-100635981D01*
X32176102Y-100619399D01*
X32179236Y-100615734D01*
X32222206Y-100572765D01*
X32228838Y-100557744D01*
X32240681Y-100543899D01*
X32255301Y-100534369D01*
X32266564Y-100521037D01*
X32283965Y-100515688D01*
X32299216Y-100505749D01*
X32316667Y-100505637D01*
X32333350Y-100500510D01*
X32334912Y-100500500D01*
X32920613Y-100500500D01*
X32987652Y-100520185D01*
X33008294Y-100536819D01*
X33313181Y-100841705D01*
X33346666Y-100903028D01*
X33349500Y-100929386D01*
X33349500Y-102470612D01*
X33329815Y-102537651D01*
X33313181Y-102558293D01*
X32907567Y-102963906D01*
X32874894Y-102985740D01*
X32875253Y-102986361D01*
X32868218Y-102990422D01*
X32868216Y-102990423D01*
X32782028Y-103040182D01*
X32731285Y-103069479D01*
X32731282Y-103069481D01*
X32619481Y-103181282D01*
X32619475Y-103181290D01*
X32540426Y-103318209D01*
X32540424Y-103318213D01*
X32540423Y-103318215D01*
X32540423Y-103318216D01*
X32535881Y-103335167D01*
X32514274Y-103415805D01*
X32480352Y-103471454D01*
X32487636Y-103479649D01*
X32489988Y-103490144D01*
X32494110Y-103496414D01*
X32494241Y-103509116D01*
X32499500Y-103532577D01*
X32499500Y-103629057D01*
X32534754Y-103760625D01*
X32540423Y-103781783D01*
X32540426Y-103781790D01*
X32619475Y-103918709D01*
X32619479Y-103918714D01*
X32619480Y-103918716D01*
X32731284Y-104030520D01*
X32731286Y-104030521D01*
X32731290Y-104030524D01*
X32868209Y-104109573D01*
X32868216Y-104109577D01*
X33020943Y-104150500D01*
X33020945Y-104150500D01*
X33179055Y-104150500D01*
X33179057Y-104150500D01*
X33331784Y-104109577D01*
X33468716Y-104030520D01*
X33580520Y-103918716D01*
X33659577Y-103781784D01*
X33659577Y-103781780D01*
X33663640Y-103774745D01*
X33664262Y-103775104D01*
X33686092Y-103742431D01*
X34340510Y-103088015D01*
X34412984Y-102962485D01*
X34450500Y-102822474D01*
X34450500Y-102677526D01*
X34450500Y-100577525D01*
X34412984Y-100437515D01*
X34408650Y-100430009D01*
X34340511Y-100311988D01*
X34340506Y-100311982D01*
X34079021Y-100050497D01*
X33999467Y-99970943D01*
X35999500Y-99970943D01*
X35999500Y-100129057D01*
X36040024Y-100280293D01*
X36040423Y-100281783D01*
X36040426Y-100281790D01*
X36119475Y-100418709D01*
X36119479Y-100418714D01*
X36119480Y-100418716D01*
X36231284Y-100530520D01*
X36231286Y-100530521D01*
X36231290Y-100530524D01*
X36365800Y-100608182D01*
X36368216Y-100609577D01*
X36520943Y-100650500D01*
X36520945Y-100650500D01*
X36679055Y-100650500D01*
X36679057Y-100650500D01*
X36831784Y-100609577D01*
X36968716Y-100530520D01*
X37080520Y-100418716D01*
X37159577Y-100281784D01*
X37200500Y-100129057D01*
X37200500Y-99970943D01*
X37159577Y-99818216D01*
X37107661Y-99728294D01*
X37080524Y-99681290D01*
X37080518Y-99681282D01*
X36968717Y-99569481D01*
X36968709Y-99569475D01*
X36831790Y-99490426D01*
X36831786Y-99490424D01*
X36831784Y-99490423D01*
X36679057Y-99449500D01*
X36520943Y-99449500D01*
X36368216Y-99490423D01*
X36368209Y-99490426D01*
X36231290Y-99569475D01*
X36231282Y-99569481D01*
X36119481Y-99681282D01*
X36119475Y-99681290D01*
X36040426Y-99818209D01*
X36040423Y-99818216D01*
X35999500Y-99970943D01*
X33999467Y-99970943D01*
X33883839Y-99855315D01*
X33538015Y-99509490D01*
X33412485Y-99437016D01*
X33342323Y-99418216D01*
X33342322Y-99418215D01*
X33291190Y-99404514D01*
X33272475Y-99399500D01*
X33272474Y-99399500D01*
X32334912Y-99399500D01*
X32267873Y-99379815D01*
X32229845Y-99335928D01*
X32228699Y-99336714D01*
X32222205Y-99327234D01*
X32142765Y-99247794D01*
X32039992Y-99202415D01*
X32014868Y-99199500D01*
X30677899Y-99199500D01*
X30610860Y-99179815D01*
X30565105Y-99127011D01*
X30555161Y-99057853D01*
X30576980Y-99006057D01*
X30576457Y-99005755D01*
X30578864Y-99001584D01*
X30579531Y-99000003D01*
X30580510Y-98998725D01*
X30580520Y-98998716D01*
X30659577Y-98861784D01*
X30700500Y-98709057D01*
X30700500Y-98550943D01*
X30659577Y-98398216D01*
X30647524Y-98377340D01*
X30580524Y-98261290D01*
X30580518Y-98261282D01*
X30468717Y-98149481D01*
X30468709Y-98149475D01*
X30324746Y-98066359D01*
X30324961Y-98065985D01*
X30320681Y-98065054D01*
X30292427Y-98043902D01*
X30276816Y-98028290D01*
X30243333Y-97966966D01*
X30240500Y-97940612D01*
X30240500Y-96508230D01*
X30260185Y-96441191D01*
X30265233Y-96433919D01*
X30315000Y-96367439D01*
X30333796Y-96342331D01*
X30384091Y-96207483D01*
X30390500Y-96147873D01*
X30390499Y-94852128D01*
X30384091Y-94792517D01*
X30371724Y-94759360D01*
X30333797Y-94657671D01*
X30333795Y-94657668D01*
X30265233Y-94566080D01*
X30240816Y-94500615D01*
X30240500Y-94491769D01*
X30240500Y-93167527D01*
X30240500Y-93167525D01*
X30202984Y-93027515D01*
X30130510Y-92901985D01*
X29238015Y-92009490D01*
X29112485Y-91937016D01*
X29112486Y-91937016D01*
X29077482Y-91927637D01*
X28972475Y-91899500D01*
X28972472Y-91899500D01*
X27378363Y-91899500D01*
X27339820Y-91891834D01*
X27339635Y-91892527D01*
X27331785Y-91890423D01*
X27331784Y-91890423D01*
X27179057Y-91849500D01*
X27020943Y-91849500D01*
X26868216Y-91890423D01*
X26868209Y-91890426D01*
X26731290Y-91969475D01*
X26731282Y-91969481D01*
X26619481Y-92081282D01*
X26619475Y-92081290D01*
X26540426Y-92218209D01*
X26540423Y-92218216D01*
X26499500Y-92370943D01*
X26499500Y-92529057D01*
X26534950Y-92661356D01*
X26540423Y-92681783D01*
X26540426Y-92681790D01*
X26619475Y-92818709D01*
X26619479Y-92818714D01*
X26619480Y-92818716D01*
X26731284Y-92930520D01*
X26731286Y-92930521D01*
X26731290Y-92930524D01*
X26825858Y-92985122D01*
X26868216Y-93009577D01*
X27020943Y-93050500D01*
X27020945Y-93050500D01*
X27179055Y-93050500D01*
X27179057Y-93050500D01*
X27331784Y-93009577D01*
X27331785Y-93009576D01*
X27339635Y-93007473D01*
X27339820Y-93008165D01*
X27378363Y-93000500D01*
X28620613Y-93000500D01*
X28687652Y-93020185D01*
X28708294Y-93036819D01*
X29103181Y-93431706D01*
X29136666Y-93493029D01*
X29139500Y-93519387D01*
X29139500Y-94400998D01*
X29119815Y-94468037D01*
X29067011Y-94513792D01*
X28997853Y-94523736D01*
X28941189Y-94500265D01*
X28882331Y-94456204D01*
X28882328Y-94456202D01*
X28747486Y-94405910D01*
X28747485Y-94405909D01*
X28747483Y-94405909D01*
X28687873Y-94399500D01*
X28687863Y-94399500D01*
X28192129Y-94399500D01*
X28192123Y-94399501D01*
X28132516Y-94405908D01*
X27997671Y-94456202D01*
X27997669Y-94456203D01*
X27929562Y-94507189D01*
X27889501Y-94537179D01*
X27889311Y-94537321D01*
X27823847Y-94561738D01*
X27755574Y-94546887D01*
X27740689Y-94537321D01*
X27740499Y-94537179D01*
X27691189Y-94500265D01*
X27632330Y-94456203D01*
X27632328Y-94456202D01*
X27497486Y-94405910D01*
X27497485Y-94405909D01*
X27497483Y-94405909D01*
X27437873Y-94399500D01*
X27437863Y-94399500D01*
X26942129Y-94399500D01*
X26942123Y-94399501D01*
X26882516Y-94405908D01*
X26747671Y-94456202D01*
X26747664Y-94456206D01*
X26632455Y-94542452D01*
X26632452Y-94542455D01*
X26546206Y-94657664D01*
X26546202Y-94657671D01*
X26495908Y-94792517D01*
X26489980Y-94847658D01*
X26489501Y-94852123D01*
X26489500Y-94852135D01*
X26489500Y-96147870D01*
X26489501Y-96147876D01*
X26495908Y-96207483D01*
X26546202Y-96342328D01*
X26546203Y-96342330D01*
X26624767Y-96447277D01*
X26649184Y-96512741D01*
X26649500Y-96521588D01*
X26649500Y-96805500D01*
X26629815Y-96872539D01*
X26577011Y-96918294D01*
X26525500Y-96929500D01*
X25100143Y-96929500D01*
X25100117Y-96929502D01*
X25075012Y-96932413D01*
X25075008Y-96932415D01*
X24972235Y-96977793D01*
X24892794Y-97057234D01*
X24847415Y-97160006D01*
X24847415Y-97160008D01*
X24844498Y-97185144D01*
X24844440Y-97186162D01*
X24844352Y-97186407D01*
X24844087Y-97188694D01*
X24843556Y-97188632D01*
X24820917Y-97251953D01*
X24765560Y-97294583D01*
X24695942Y-97300516D01*
X24634169Y-97267870D01*
X24632966Y-97266683D01*
X24599099Y-97232816D01*
X24599095Y-97232813D01*
X24442605Y-97128249D01*
X24442592Y-97128242D01*
X24268713Y-97056220D01*
X24268703Y-97056217D01*
X24084111Y-97019499D01*
X24084109Y-97019499D01*
X22705891Y-97019499D01*
X22705889Y-97019499D01*
X22521296Y-97056217D01*
X22521286Y-97056220D01*
X22441035Y-97089461D01*
X22371565Y-97096930D01*
X22309086Y-97065654D01*
X22273434Y-97005565D01*
X22269583Y-96974889D01*
X22269906Y-94497705D01*
X22289599Y-94430669D01*
X22342409Y-94384921D01*
X22411569Y-94374986D01*
X22439390Y-94382365D01*
X22458436Y-94389876D01*
X22546901Y-94400500D01*
X24233098Y-94400499D01*
X24321564Y-94389876D01*
X24462342Y-94334361D01*
X24582922Y-94242922D01*
X24674361Y-94122342D01*
X24729876Y-93981564D01*
X24740500Y-93893099D01*
X24740499Y-91306902D01*
X24729876Y-91218436D01*
X24674361Y-91077658D01*
X24674359Y-91077655D01*
X24582922Y-90957077D01*
X24462344Y-90865640D01*
X24462342Y-90865639D01*
X24321564Y-90810124D01*
X24321561Y-90810123D01*
X24233099Y-90799500D01*
X22546908Y-90799500D01*
X22458435Y-90810124D01*
X22439885Y-90817439D01*
X22370298Y-90823718D01*
X22308363Y-90791379D01*
X22273744Y-90730689D01*
X22270399Y-90702073D01*
X22270419Y-90554483D01*
X22290113Y-90487446D01*
X22342923Y-90441699D01*
X22394419Y-90430500D01*
X34003271Y-90430500D01*
X34070310Y-90450185D01*
G37*
%TD.AperFunction*%
%TA.AperFunction,Conductor*%
G36*
X24831494Y-100188376D02*
G01*
X24868216Y-100209577D01*
X24868218Y-100209577D01*
X24875256Y-100213641D01*
X24874896Y-100214263D01*
X24907570Y-100236095D01*
X25041985Y-100370510D01*
X25041988Y-100370512D01*
X25045988Y-100373581D01*
X25087190Y-100430009D01*
X25094500Y-100471956D01*
X25094500Y-100824856D01*
X25094502Y-100824882D01*
X25097413Y-100849985D01*
X25097415Y-100849992D01*
X25099591Y-100854920D01*
X25108659Y-100924199D01*
X25099591Y-100955079D01*
X25097418Y-100959999D01*
X25097416Y-100960008D01*
X25094501Y-100985131D01*
X25094501Y-101474856D01*
X25094503Y-101474882D01*
X25097414Y-101499987D01*
X25097415Y-101499989D01*
X25099590Y-101504915D01*
X25108659Y-101574194D01*
X25099592Y-101605075D01*
X25097417Y-101610000D01*
X25097415Y-101610009D01*
X25094500Y-101635131D01*
X25094500Y-102124856D01*
X25094502Y-102124882D01*
X25097413Y-102149987D01*
X25097415Y-102149991D01*
X25142793Y-102252764D01*
X25142794Y-102252765D01*
X25222235Y-102332206D01*
X25325009Y-102377585D01*
X25350135Y-102380500D01*
X26789864Y-102380499D01*
X26789879Y-102380497D01*
X26789882Y-102380497D01*
X26814985Y-102377586D01*
X26814986Y-102377585D01*
X26814991Y-102377585D01*
X26814994Y-102377583D01*
X26817941Y-102376782D01*
X26821337Y-102376849D01*
X26824258Y-102376511D01*
X26824304Y-102376908D01*
X26887797Y-102378173D01*
X26945811Y-102417110D01*
X26973565Y-102481231D01*
X26974500Y-102496431D01*
X26974500Y-103335167D01*
X26954815Y-103402206D01*
X26902011Y-103447961D01*
X26832853Y-103457905D01*
X26769297Y-103428880D01*
X26762819Y-103422848D01*
X26717765Y-103377794D01*
X26614992Y-103332415D01*
X26589865Y-103329500D01*
X25100143Y-103329500D01*
X25100117Y-103329502D01*
X25075012Y-103332413D01*
X25075008Y-103332415D01*
X24972235Y-103377793D01*
X24892793Y-103457235D01*
X24882864Y-103479723D01*
X24837777Y-103533098D01*
X24770991Y-103553624D01*
X24703709Y-103534784D01*
X24657293Y-103482560D01*
X24646803Y-103428446D01*
X24645500Y-103428446D01*
X24645499Y-102430012D01*
X24645499Y-101435136D01*
X24645497Y-101435117D01*
X24642586Y-101410012D01*
X24642585Y-101410010D01*
X24642585Y-101410009D01*
X24597206Y-101307235D01*
X24597199Y-101307228D01*
X24592303Y-101300080D01*
X24570655Y-101233649D01*
X24588358Y-101166059D01*
X24592303Y-101159920D01*
X24597198Y-101152772D01*
X24597206Y-101152765D01*
X24642585Y-101049991D01*
X24645500Y-101024865D01*
X24645499Y-100295764D01*
X24665183Y-100228726D01*
X24717987Y-100182971D01*
X24787146Y-100173027D01*
X24831494Y-100188376D01*
G37*
%TD.AperFunction*%
%TD*%
%TA.AperFunction,Conductor*%
%TO.N,/N*%
G36*
X117982624Y-64669685D02*
G01*
X117996788Y-64680288D01*
X118083660Y-64755564D01*
X118083661Y-64755565D01*
X118083664Y-64755567D01*
X118214541Y-64815338D01*
X118281580Y-64835023D01*
X118281584Y-64835024D01*
X118424000Y-64855500D01*
X120970500Y-64855500D01*
X121037539Y-64875185D01*
X121083294Y-64927989D01*
X121094500Y-64979500D01*
X121094500Y-66700354D01*
X121074815Y-66767393D01*
X121060797Y-66785339D01*
X119818307Y-68105485D01*
X119758026Y-68140812D01*
X119728010Y-68144500D01*
X117351360Y-68144500D01*
X117297311Y-68147397D01*
X117297310Y-68147397D01*
X117270977Y-68150229D01*
X117270950Y-68150232D01*
X117217554Y-68158885D01*
X117217552Y-68158885D01*
X117082743Y-68209168D01*
X117063320Y-68219773D01*
X116995047Y-68234623D01*
X116929583Y-68210204D01*
X116887714Y-68154269D01*
X116882732Y-68084577D01*
X116900797Y-68042045D01*
X116909394Y-68029179D01*
X116969737Y-67883497D01*
X117000500Y-67728842D01*
X117000500Y-67571158D01*
X117000500Y-67571155D01*
X117000499Y-67571153D01*
X116991957Y-67528210D01*
X116969737Y-67416503D01*
X116969735Y-67416498D01*
X116909397Y-67270827D01*
X116909390Y-67270814D01*
X116821789Y-67139711D01*
X116821786Y-67139707D01*
X116710292Y-67028213D01*
X116710288Y-67028210D01*
X116579185Y-66940609D01*
X116579172Y-66940602D01*
X116433501Y-66880264D01*
X116433489Y-66880261D01*
X116278845Y-66849500D01*
X116278842Y-66849500D01*
X116121158Y-66849500D01*
X116121155Y-66849500D01*
X115966510Y-66880261D01*
X115966498Y-66880264D01*
X115820827Y-66940602D01*
X115820814Y-66940609D01*
X115689711Y-67028210D01*
X115689707Y-67028213D01*
X115578213Y-67139707D01*
X115578210Y-67139711D01*
X115490609Y-67270814D01*
X115490602Y-67270827D01*
X115430264Y-67416498D01*
X115430261Y-67416510D01*
X115399500Y-67571153D01*
X115399500Y-67728846D01*
X115430261Y-67883489D01*
X115430264Y-67883501D01*
X115490602Y-68029172D01*
X115490609Y-68029185D01*
X115578210Y-68160288D01*
X115578213Y-68160292D01*
X115689707Y-68271786D01*
X115689711Y-68271789D01*
X115820814Y-68359390D01*
X115820827Y-68359397D01*
X115948000Y-68412073D01*
X115966503Y-68419737D01*
X116121153Y-68450499D01*
X116121156Y-68450500D01*
X116121158Y-68450500D01*
X116278844Y-68450500D01*
X116278845Y-68450499D01*
X116433497Y-68419737D01*
X116509473Y-68388266D01*
X116578940Y-68380798D01*
X116641419Y-68412073D01*
X116677072Y-68472162D01*
X116674579Y-68541987D01*
X116644605Y-68590509D01*
X115521435Y-69713681D01*
X115460112Y-69747166D01*
X115433754Y-69750000D01*
X112683441Y-69750000D01*
X112616402Y-69730315D01*
X112595760Y-69713681D01*
X112510292Y-69628213D01*
X112510288Y-69628210D01*
X112379185Y-69540609D01*
X112379172Y-69540602D01*
X112233501Y-69480264D01*
X112233489Y-69480261D01*
X112078845Y-69449500D01*
X112078842Y-69449500D01*
X111921158Y-69449500D01*
X111921155Y-69449500D01*
X111766510Y-69480261D01*
X111766498Y-69480264D01*
X111620827Y-69540602D01*
X111620814Y-69540609D01*
X111489711Y-69628210D01*
X111489707Y-69628213D01*
X111404240Y-69713681D01*
X111342917Y-69747166D01*
X111316559Y-69750000D01*
X105900000Y-69750000D01*
X105900000Y-79950000D01*
X108576000Y-79950000D01*
X108643039Y-79969685D01*
X108688794Y-80022489D01*
X108700000Y-80074000D01*
X108700000Y-88926000D01*
X108680315Y-88993039D01*
X108627511Y-89038794D01*
X108576000Y-89050000D01*
X106299999Y-89050000D01*
X105600000Y-89749999D01*
X105600000Y-89750000D01*
X105600000Y-94650000D01*
X108700000Y-97550000D01*
X127876000Y-97550000D01*
X127943039Y-97569685D01*
X127988794Y-97622489D01*
X128000000Y-97674000D01*
X128000000Y-104726000D01*
X127980315Y-104793039D01*
X127927511Y-104838794D01*
X127876000Y-104850000D01*
X109000000Y-104850000D01*
X105514615Y-108537435D01*
X105454259Y-108572633D01*
X105384455Y-108569613D01*
X105327365Y-108529333D01*
X105301114Y-108464582D01*
X105300500Y-108452257D01*
X105300500Y-108371155D01*
X105300499Y-108371153D01*
X105269738Y-108216510D01*
X105269737Y-108216503D01*
X105250815Y-108170821D01*
X105209397Y-108070827D01*
X105209390Y-108070814D01*
X105121789Y-107939711D01*
X105121786Y-107939707D01*
X105010292Y-107828213D01*
X105010288Y-107828210D01*
X104879185Y-107740609D01*
X104879172Y-107740602D01*
X104733501Y-107680264D01*
X104733489Y-107680261D01*
X104578845Y-107649500D01*
X104578842Y-107649500D01*
X104421158Y-107649500D01*
X104421155Y-107649500D01*
X104266510Y-107680261D01*
X104266498Y-107680264D01*
X104120827Y-107740602D01*
X104120814Y-107740609D01*
X103989711Y-107828210D01*
X103989707Y-107828213D01*
X103878213Y-107939707D01*
X103878210Y-107939711D01*
X103790609Y-108070814D01*
X103790602Y-108070827D01*
X103730264Y-108216498D01*
X103730261Y-108216510D01*
X103699500Y-108371153D01*
X103699500Y-108528846D01*
X103730261Y-108683489D01*
X103730264Y-108683501D01*
X103790602Y-108829172D01*
X103790609Y-108829185D01*
X103878210Y-108960288D01*
X103878213Y-108960292D01*
X103989707Y-109071786D01*
X103989711Y-109071789D01*
X104120814Y-109159390D01*
X104120827Y-109159397D01*
X104266498Y-109219735D01*
X104266503Y-109219737D01*
X104421153Y-109250499D01*
X104421156Y-109250500D01*
X104552791Y-109250500D01*
X104619830Y-109270185D01*
X104665585Y-109322989D01*
X104675529Y-109392147D01*
X104646504Y-109455703D01*
X104642906Y-109459678D01*
X103025829Y-111170500D01*
X102217206Y-112026000D01*
X102136695Y-112111178D01*
X102076339Y-112146376D01*
X102046580Y-112150000D01*
X95024000Y-112150000D01*
X94956961Y-112130315D01*
X94911206Y-112077511D01*
X94900000Y-112026000D01*
X94900000Y-110291153D01*
X99298848Y-110291153D01*
X99298848Y-110448846D01*
X99329609Y-110603489D01*
X99329612Y-110603501D01*
X99389950Y-110749172D01*
X99389957Y-110749185D01*
X99477558Y-110880288D01*
X99477561Y-110880292D01*
X99589055Y-110991786D01*
X99589059Y-110991789D01*
X99720162Y-111079390D01*
X99720175Y-111079397D01*
X99865846Y-111139735D01*
X99865851Y-111139737D01*
X100020501Y-111170499D01*
X100020504Y-111170500D01*
X100020506Y-111170500D01*
X100178192Y-111170500D01*
X100178193Y-111170499D01*
X100332845Y-111139737D01*
X100478527Y-111079394D01*
X100609637Y-110991789D01*
X100721137Y-110880289D01*
X100808742Y-110749179D01*
X100869085Y-110603497D01*
X100899848Y-110448842D01*
X100899848Y-110291158D01*
X100899848Y-110291155D01*
X100899847Y-110291153D01*
X100869086Y-110136510D01*
X100869085Y-110136503D01*
X100819380Y-110016503D01*
X100808745Y-109990827D01*
X100808738Y-109990814D01*
X100721137Y-109859711D01*
X100721134Y-109859707D01*
X100609640Y-109748213D01*
X100609636Y-109748210D01*
X100478533Y-109660609D01*
X100478520Y-109660602D01*
X100332849Y-109600264D01*
X100332837Y-109600261D01*
X100178193Y-109569500D01*
X100178190Y-109569500D01*
X100020506Y-109569500D01*
X100020503Y-109569500D01*
X99865858Y-109600261D01*
X99865846Y-109600264D01*
X99720175Y-109660602D01*
X99720162Y-109660609D01*
X99589059Y-109748210D01*
X99589055Y-109748213D01*
X99477561Y-109859707D01*
X99477558Y-109859711D01*
X99389957Y-109990814D01*
X99389950Y-109990827D01*
X99329612Y-110136498D01*
X99329609Y-110136510D01*
X99298848Y-110291153D01*
X94900000Y-110291153D01*
X94900000Y-107074000D01*
X94919685Y-107006961D01*
X94972489Y-106961206D01*
X95024000Y-106950000D01*
X98199999Y-106950000D01*
X98200000Y-106950000D01*
X99992339Y-105195000D01*
X100054011Y-105162163D01*
X100123646Y-105167881D01*
X100179136Y-105210339D01*
X100188451Y-105225148D01*
X100190606Y-105229180D01*
X100278210Y-105360288D01*
X100278213Y-105360292D01*
X100389707Y-105471786D01*
X100389711Y-105471789D01*
X100520814Y-105559390D01*
X100520827Y-105559397D01*
X100666498Y-105619735D01*
X100666503Y-105619737D01*
X100816131Y-105649500D01*
X100821153Y-105650499D01*
X100821156Y-105650500D01*
X100821158Y-105650500D01*
X100978844Y-105650500D01*
X100978845Y-105650499D01*
X101133497Y-105619737D01*
X101279179Y-105559394D01*
X101410289Y-105471789D01*
X101521789Y-105360289D01*
X101609394Y-105229179D01*
X101669737Y-105083497D01*
X101700500Y-104928842D01*
X101700500Y-104771158D01*
X101700500Y-104771155D01*
X101700499Y-104771153D01*
X101669738Y-104616510D01*
X101669737Y-104616503D01*
X101669735Y-104616498D01*
X101609397Y-104470827D01*
X101609390Y-104470814D01*
X101521789Y-104339711D01*
X101521786Y-104339707D01*
X101410292Y-104228213D01*
X101410288Y-104228210D01*
X101281337Y-104142047D01*
X101236532Y-104088435D01*
X101227825Y-104019110D01*
X101257980Y-103956082D01*
X101263453Y-103950368D01*
X102365631Y-102871153D01*
X111199500Y-102871153D01*
X111199500Y-103028846D01*
X111230261Y-103183489D01*
X111230264Y-103183501D01*
X111290602Y-103329172D01*
X111290609Y-103329185D01*
X111378210Y-103460288D01*
X111378213Y-103460292D01*
X111489707Y-103571786D01*
X111489711Y-103571789D01*
X111620814Y-103659390D01*
X111620827Y-103659397D01*
X111766498Y-103719735D01*
X111766503Y-103719737D01*
X111918157Y-103749903D01*
X111921153Y-103750499D01*
X111921156Y-103750500D01*
X111921158Y-103750500D01*
X112078844Y-103750500D01*
X112078845Y-103750499D01*
X112233497Y-103719737D01*
X112379179Y-103659394D01*
X112510289Y-103571789D01*
X112621789Y-103460289D01*
X112709394Y-103329179D01*
X112769737Y-103183497D01*
X112800500Y-103028842D01*
X112800500Y-102871158D01*
X112800500Y-102871155D01*
X112800499Y-102871153D01*
X112769738Y-102716510D01*
X112769737Y-102716503D01*
X112709794Y-102571786D01*
X112709397Y-102570827D01*
X112709390Y-102570814D01*
X112621789Y-102439711D01*
X112621786Y-102439707D01*
X112510292Y-102328213D01*
X112510288Y-102328210D01*
X112379185Y-102240609D01*
X112379172Y-102240602D01*
X112233501Y-102180264D01*
X112233489Y-102180261D01*
X112078845Y-102149500D01*
X112078842Y-102149500D01*
X111921158Y-102149500D01*
X111921155Y-102149500D01*
X111766510Y-102180261D01*
X111766498Y-102180264D01*
X111620827Y-102240602D01*
X111620814Y-102240609D01*
X111489711Y-102328210D01*
X111489707Y-102328213D01*
X111378213Y-102439707D01*
X111378210Y-102439711D01*
X111290609Y-102570814D01*
X111290602Y-102570827D01*
X111230264Y-102716498D01*
X111230261Y-102716510D01*
X111199500Y-102871153D01*
X102365631Y-102871153D01*
X103000000Y-102250000D01*
X102997313Y-101871153D01*
X104399500Y-101871153D01*
X104399500Y-102028846D01*
X104430261Y-102183489D01*
X104430264Y-102183501D01*
X104490602Y-102329172D01*
X104490609Y-102329185D01*
X104578210Y-102460288D01*
X104578213Y-102460292D01*
X104689707Y-102571786D01*
X104689711Y-102571789D01*
X104820814Y-102659390D01*
X104820827Y-102659397D01*
X104958683Y-102716498D01*
X104966503Y-102719737D01*
X105121153Y-102750499D01*
X105121156Y-102750500D01*
X105121158Y-102750500D01*
X105278844Y-102750500D01*
X105278845Y-102750499D01*
X105289179Y-102748443D01*
X105314287Y-102743450D01*
X105314292Y-102743449D01*
X105399800Y-102726439D01*
X105433497Y-102719737D01*
X105579179Y-102659394D01*
X105710289Y-102571789D01*
X105821789Y-102460289D01*
X105909394Y-102329179D01*
X105969737Y-102183497D01*
X106000500Y-102028842D01*
X106000500Y-101871158D01*
X106000500Y-101871155D01*
X106000499Y-101871153D01*
X105969738Y-101716510D01*
X105969737Y-101716503D01*
X105969735Y-101716498D01*
X105909397Y-101570827D01*
X105909390Y-101570814D01*
X105821789Y-101439711D01*
X105821786Y-101439707D01*
X105710292Y-101328213D01*
X105710288Y-101328210D01*
X105579185Y-101240609D01*
X105579172Y-101240602D01*
X105433501Y-101180264D01*
X105433489Y-101180261D01*
X105278845Y-101149500D01*
X105278842Y-101149500D01*
X105121158Y-101149500D01*
X105121155Y-101149500D01*
X104966510Y-101180261D01*
X104966498Y-101180264D01*
X104820827Y-101240602D01*
X104820814Y-101240609D01*
X104689711Y-101328210D01*
X104689707Y-101328213D01*
X104578213Y-101439707D01*
X104578210Y-101439711D01*
X104490609Y-101570814D01*
X104490602Y-101570827D01*
X104430264Y-101716498D01*
X104430261Y-101716510D01*
X104399500Y-101871153D01*
X102997313Y-101871153D01*
X102980291Y-99471153D01*
X103499500Y-99471153D01*
X103499500Y-99628846D01*
X103530261Y-99783489D01*
X103530264Y-99783501D01*
X103590602Y-99929172D01*
X103590609Y-99929185D01*
X103678210Y-100060288D01*
X103678213Y-100060292D01*
X103789707Y-100171786D01*
X103789711Y-100171789D01*
X103920814Y-100259390D01*
X103920827Y-100259397D01*
X104066498Y-100319735D01*
X104066503Y-100319737D01*
X104221153Y-100350499D01*
X104221156Y-100350500D01*
X104221158Y-100350500D01*
X104378844Y-100350500D01*
X104378845Y-100350499D01*
X104533497Y-100319737D01*
X104679179Y-100259394D01*
X104810289Y-100171789D01*
X104910925Y-100071153D01*
X111999500Y-100071153D01*
X111999500Y-100228846D01*
X112030261Y-100383489D01*
X112030264Y-100383501D01*
X112090602Y-100529172D01*
X112090609Y-100529185D01*
X112178210Y-100660288D01*
X112178213Y-100660292D01*
X112289707Y-100771786D01*
X112289711Y-100771789D01*
X112420814Y-100859390D01*
X112420827Y-100859397D01*
X112566498Y-100919735D01*
X112566503Y-100919737D01*
X112721153Y-100950499D01*
X112721156Y-100950500D01*
X112721158Y-100950500D01*
X112878844Y-100950500D01*
X112878845Y-100950499D01*
X113033497Y-100919737D01*
X113179179Y-100859394D01*
X113310289Y-100771789D01*
X113421789Y-100660289D01*
X113509394Y-100529179D01*
X113569737Y-100383497D01*
X113600500Y-100228842D01*
X113600500Y-100071158D01*
X113600500Y-100071155D01*
X113600499Y-100071153D01*
X113583809Y-99987246D01*
X113569737Y-99916503D01*
X113532873Y-99827504D01*
X113526457Y-99812013D01*
X113518988Y-99742544D01*
X113550264Y-99680065D01*
X113610353Y-99644413D01*
X113616817Y-99642946D01*
X113733497Y-99619737D01*
X113879179Y-99559394D01*
X114010289Y-99471789D01*
X114121789Y-99360289D01*
X114209394Y-99229179D01*
X114269737Y-99083497D01*
X114272171Y-99071263D01*
X124615500Y-99071263D01*
X124615500Y-99268736D01*
X124646389Y-99463763D01*
X124677462Y-99559394D01*
X124707409Y-99651561D01*
X124797056Y-99827501D01*
X124797058Y-99827504D01*
X124913115Y-99987246D01*
X125052753Y-100126884D01*
X125193089Y-100228842D01*
X125212499Y-100242944D01*
X125388439Y-100332591D01*
X125513637Y-100373270D01*
X125576236Y-100393610D01*
X125771264Y-100424500D01*
X125771269Y-100424500D01*
X125968736Y-100424500D01*
X126163763Y-100393610D01*
X126194875Y-100383501D01*
X126351561Y-100332591D01*
X126527501Y-100242944D01*
X126625442Y-100171786D01*
X126687246Y-100126884D01*
X126687248Y-100126881D01*
X126687252Y-100126879D01*
X126826879Y-99987252D01*
X126826881Y-99987248D01*
X126826884Y-99987246D01*
X126878284Y-99916498D01*
X126942944Y-99827501D01*
X127032591Y-99651561D01*
X127093610Y-99463763D01*
X127106835Y-99380263D01*
X127124500Y-99268736D01*
X127124500Y-99071263D01*
X127093610Y-98876236D01*
X127073270Y-98813637D01*
X127032591Y-98688439D01*
X126942944Y-98512499D01*
X126912668Y-98470827D01*
X126826884Y-98352753D01*
X126687246Y-98213115D01*
X126527504Y-98097058D01*
X126527503Y-98097057D01*
X126527501Y-98097056D01*
X126351561Y-98007409D01*
X126351558Y-98007408D01*
X126163763Y-97946389D01*
X125968736Y-97915500D01*
X125968731Y-97915500D01*
X125771269Y-97915500D01*
X125771264Y-97915500D01*
X125576236Y-97946389D01*
X125388441Y-98007408D01*
X125212495Y-98097058D01*
X125052753Y-98213115D01*
X124913115Y-98352753D01*
X124797058Y-98512495D01*
X124707408Y-98688441D01*
X124646389Y-98876236D01*
X124615500Y-99071263D01*
X114272171Y-99071263D01*
X114278448Y-99039707D01*
X114300499Y-98928846D01*
X114300500Y-98928844D01*
X114300500Y-98771155D01*
X114300499Y-98771153D01*
X114269738Y-98616510D01*
X114269737Y-98616503D01*
X114269735Y-98616498D01*
X114209397Y-98470827D01*
X114209390Y-98470814D01*
X114121789Y-98339711D01*
X114121786Y-98339707D01*
X114010292Y-98228213D01*
X114010288Y-98228210D01*
X113879185Y-98140609D01*
X113879172Y-98140602D01*
X113733501Y-98080264D01*
X113733489Y-98080261D01*
X113578845Y-98049500D01*
X113578842Y-98049500D01*
X113421158Y-98049500D01*
X113421155Y-98049500D01*
X113266510Y-98080261D01*
X113266498Y-98080264D01*
X113120827Y-98140602D01*
X113120814Y-98140609D01*
X112989711Y-98228210D01*
X112989707Y-98228213D01*
X112878213Y-98339707D01*
X112878210Y-98339711D01*
X112790609Y-98470814D01*
X112790602Y-98470827D01*
X112730264Y-98616498D01*
X112730261Y-98616510D01*
X112699500Y-98771153D01*
X112699500Y-98928846D01*
X112730261Y-99083489D01*
X112730263Y-99083496D01*
X112773543Y-99187987D01*
X112781011Y-99257456D01*
X112749735Y-99319935D01*
X112689646Y-99355587D01*
X112683173Y-99357055D01*
X112566508Y-99380261D01*
X112566498Y-99380264D01*
X112420827Y-99440602D01*
X112420814Y-99440609D01*
X112289711Y-99528210D01*
X112289707Y-99528213D01*
X112178213Y-99639707D01*
X112178210Y-99639711D01*
X112090609Y-99770814D01*
X112090602Y-99770827D01*
X112030264Y-99916498D01*
X112030261Y-99916510D01*
X111999500Y-100071153D01*
X104910925Y-100071153D01*
X104921789Y-100060289D01*
X105009394Y-99929179D01*
X105069737Y-99783497D01*
X105100500Y-99628842D01*
X105100500Y-99471158D01*
X105100500Y-99471155D01*
X105100499Y-99471153D01*
X105078447Y-99360292D01*
X105069737Y-99316503D01*
X105069735Y-99316498D01*
X105009397Y-99170827D01*
X105009390Y-99170814D01*
X104921789Y-99039711D01*
X104921786Y-99039707D01*
X104810292Y-98928213D01*
X104810288Y-98928210D01*
X104679185Y-98840609D01*
X104679172Y-98840602D01*
X104533501Y-98780264D01*
X104533489Y-98780261D01*
X104378845Y-98749500D01*
X104378842Y-98749500D01*
X104221158Y-98749500D01*
X104221155Y-98749500D01*
X104066510Y-98780261D01*
X104066498Y-98780264D01*
X103920827Y-98840602D01*
X103920814Y-98840609D01*
X103789711Y-98928210D01*
X103789707Y-98928213D01*
X103678213Y-99039707D01*
X103678210Y-99039711D01*
X103590609Y-99170814D01*
X103590602Y-99170827D01*
X103530264Y-99316498D01*
X103530261Y-99316510D01*
X103499500Y-99471153D01*
X102980291Y-99471153D01*
X102980239Y-99463763D01*
X102970855Y-98140602D01*
X102900000Y-88150000D01*
X102899999Y-88150000D01*
X102555001Y-88150000D01*
X102503489Y-88138794D01*
X102452232Y-88115385D01*
X102384962Y-88084663D01*
X102317917Y-88064976D01*
X102270444Y-88058150D01*
X102175500Y-88044500D01*
X102175498Y-88044500D01*
X100260746Y-88044500D01*
X100193707Y-88024815D01*
X100173065Y-88008181D01*
X97341819Y-85176935D01*
X97308334Y-85115612D01*
X97305500Y-85089254D01*
X97305500Y-81234778D01*
X97307908Y-81210460D01*
X97400000Y-80750000D01*
X97400000Y-76171153D01*
X101799500Y-76171153D01*
X101799500Y-76328846D01*
X101830261Y-76483489D01*
X101830264Y-76483501D01*
X101890602Y-76629172D01*
X101890609Y-76629185D01*
X101978210Y-76760288D01*
X101978213Y-76760292D01*
X102089707Y-76871786D01*
X102089711Y-76871789D01*
X102220814Y-76959390D01*
X102220827Y-76959397D01*
X102366498Y-77019735D01*
X102366503Y-77019737D01*
X102521153Y-77050499D01*
X102521156Y-77050500D01*
X102521158Y-77050500D01*
X102678844Y-77050500D01*
X102678845Y-77050499D01*
X102833497Y-77019737D01*
X102979179Y-76959394D01*
X103110289Y-76871789D01*
X103221789Y-76760289D01*
X103309394Y-76629179D01*
X103369737Y-76483497D01*
X103400500Y-76328842D01*
X103400500Y-76171158D01*
X103400500Y-76171155D01*
X103400499Y-76171153D01*
X103369738Y-76016510D01*
X103369737Y-76016503D01*
X103314645Y-75883497D01*
X103309397Y-75870827D01*
X103309390Y-75870814D01*
X103221789Y-75739711D01*
X103221786Y-75739707D01*
X103110292Y-75628213D01*
X103110288Y-75628210D01*
X102979185Y-75540609D01*
X102979172Y-75540602D01*
X102833501Y-75480264D01*
X102833489Y-75480261D01*
X102678845Y-75449500D01*
X102678842Y-75449500D01*
X102521158Y-75449500D01*
X102521155Y-75449500D01*
X102366510Y-75480261D01*
X102366498Y-75480264D01*
X102220827Y-75540602D01*
X102220814Y-75540609D01*
X102089711Y-75628210D01*
X102089707Y-75628213D01*
X101978213Y-75739707D01*
X101978210Y-75739711D01*
X101890609Y-75870814D01*
X101890602Y-75870827D01*
X101830264Y-76016498D01*
X101830261Y-76016510D01*
X101799500Y-76171153D01*
X97400000Y-76171153D01*
X97400000Y-69371153D01*
X103399500Y-69371153D01*
X103399500Y-69528846D01*
X103430261Y-69683489D01*
X103430264Y-69683501D01*
X103490602Y-69829172D01*
X103490609Y-69829185D01*
X103578210Y-69960288D01*
X103578213Y-69960292D01*
X103689707Y-70071786D01*
X103689711Y-70071789D01*
X103820814Y-70159390D01*
X103820827Y-70159397D01*
X103966498Y-70219735D01*
X103966503Y-70219737D01*
X104119926Y-70250255D01*
X104121153Y-70250499D01*
X104121156Y-70250500D01*
X104121158Y-70250500D01*
X104278844Y-70250500D01*
X104278845Y-70250499D01*
X104433497Y-70219737D01*
X104579179Y-70159394D01*
X104710289Y-70071789D01*
X104821789Y-69960289D01*
X104909394Y-69829179D01*
X104969737Y-69683497D01*
X105000500Y-69528842D01*
X105000500Y-69371158D01*
X105000500Y-69371155D01*
X105000499Y-69371153D01*
X104992083Y-69328842D01*
X104969737Y-69216503D01*
X104946752Y-69161011D01*
X104909397Y-69070827D01*
X104909390Y-69070814D01*
X104821789Y-68939711D01*
X104821786Y-68939707D01*
X104710292Y-68828213D01*
X104710288Y-68828210D01*
X104579185Y-68740609D01*
X104579172Y-68740602D01*
X104433501Y-68680264D01*
X104433489Y-68680261D01*
X104278845Y-68649500D01*
X104278842Y-68649500D01*
X104121158Y-68649500D01*
X104121155Y-68649500D01*
X103966510Y-68680261D01*
X103966498Y-68680264D01*
X103820827Y-68740602D01*
X103820814Y-68740609D01*
X103689711Y-68828210D01*
X103689707Y-68828213D01*
X103578213Y-68939707D01*
X103578210Y-68939711D01*
X103490609Y-69070814D01*
X103490602Y-69070827D01*
X103430264Y-69216498D01*
X103430261Y-69216510D01*
X103399500Y-69371153D01*
X97400000Y-69371153D01*
X97400000Y-68071153D01*
X110299500Y-68071153D01*
X110299500Y-68228846D01*
X110330261Y-68383489D01*
X110330264Y-68383501D01*
X110390602Y-68529172D01*
X110390609Y-68529185D01*
X110478210Y-68660288D01*
X110478213Y-68660292D01*
X110589707Y-68771786D01*
X110589711Y-68771789D01*
X110720814Y-68859390D01*
X110720827Y-68859397D01*
X110829389Y-68904364D01*
X110866503Y-68919737D01*
X111021153Y-68950499D01*
X111021156Y-68950500D01*
X111021158Y-68950500D01*
X111178844Y-68950500D01*
X111178845Y-68950499D01*
X111333497Y-68919737D01*
X111479179Y-68859394D01*
X111610289Y-68771789D01*
X111721789Y-68660289D01*
X111809394Y-68529179D01*
X111869737Y-68383497D01*
X111900500Y-68228842D01*
X111900500Y-68071158D01*
X111900500Y-68071155D01*
X111900499Y-68071153D01*
X111892151Y-68029185D01*
X111869737Y-67916503D01*
X111869735Y-67916498D01*
X111809397Y-67770827D01*
X111809390Y-67770814D01*
X111721789Y-67639711D01*
X111721786Y-67639707D01*
X111610292Y-67528213D01*
X111610288Y-67528210D01*
X111479185Y-67440609D01*
X111479172Y-67440602D01*
X111333501Y-67380264D01*
X111333489Y-67380261D01*
X111178845Y-67349500D01*
X111178842Y-67349500D01*
X111021158Y-67349500D01*
X111021155Y-67349500D01*
X110866510Y-67380261D01*
X110866498Y-67380264D01*
X110720827Y-67440602D01*
X110720814Y-67440609D01*
X110589711Y-67528210D01*
X110589707Y-67528213D01*
X110478213Y-67639707D01*
X110478210Y-67639711D01*
X110390609Y-67770814D01*
X110390602Y-67770827D01*
X110330264Y-67916498D01*
X110330261Y-67916510D01*
X110299500Y-68071153D01*
X97400000Y-68071153D01*
X97400000Y-67105684D01*
X97419685Y-67038645D01*
X97441619Y-67013005D01*
X97523073Y-66940602D01*
X99408977Y-65264242D01*
X100064764Y-64681321D01*
X100127948Y-64651495D01*
X100147145Y-64650000D01*
X117915585Y-64650000D01*
X117982624Y-64669685D01*
G37*
%TD.AperFunction*%
%TD*%
M02*
