%TF.GenerationSoftware,KiCad,Pcbnew,9.0.0*%
%TF.CreationDate,2025-08-30T14:42:31+03:00*%
%TF.ProjectId,easy home electronics,65617379-2068-46f6-9d65-20656c656374,rev?*%
%TF.SameCoordinates,Original*%
%TF.FileFunction,Soldermask,Top*%
%TF.FilePolarity,Negative*%
%FSLAX46Y46*%
G04 Gerber Fmt 4.6, Leading zero omitted, Abs format (unit mm)*
G04 Created by KiCad (PCBNEW 9.0.0) date 2025-08-30 14:42:31*
%MOMM*%
%LPD*%
G01*
G04 APERTURE LIST*
G04 Aperture macros list*
%AMRoundRect*
0 Rectangle with rounded corners*
0 $1 Rounding radius*
0 $2 $3 $4 $5 $6 $7 $8 $9 X,Y pos of 4 corners*
0 Add a 4 corners polygon primitive as box body*
4,1,4,$2,$3,$4,$5,$6,$7,$8,$9,$2,$3,0*
0 Add four circle primitives for the rounded corners*
1,1,$1+$1,$2,$3*
1,1,$1+$1,$4,$5*
1,1,$1+$1,$6,$7*
1,1,$1+$1,$8,$9*
0 Add four rect primitives between the rounded corners*
20,1,$1+$1,$2,$3,$4,$5,0*
20,1,$1+$1,$4,$5,$6,$7,0*
20,1,$1+$1,$6,$7,$8,$9,0*
20,1,$1+$1,$8,$9,$2,$3,0*%
%AMFreePoly0*
4,1,6,1.000000,0.000000,0.500000,-0.750000,-0.500000,-0.750000,-0.500000,0.750000,0.500000,0.750000,1.000000,0.000000,1.000000,0.000000,$1*%
%AMFreePoly1*
4,1,6,0.500000,-0.750000,-0.650000,-0.750000,-0.150000,0.000000,-0.650000,0.750000,0.500000,0.750000,0.500000,-0.750000,0.500000,-0.750000,$1*%
G04 Aperture macros list end*
%ADD10C,0.000000*%
%ADD11RoundRect,0.250000X0.625000X-0.375000X0.625000X0.375000X-0.625000X0.375000X-0.625000X-0.375000X0*%
%ADD12C,1.800000*%
%ADD13RoundRect,0.250000X-0.425000X-1.425000X0.425000X-1.425000X0.425000X1.425000X-0.425000X1.425000X0*%
%ADD14C,2.000000*%
%ADD15RoundRect,0.250000X-0.400000X-1.450000X0.400000X-1.450000X0.400000X1.450000X-0.400000X1.450000X0*%
%ADD16RoundRect,0.249999X-1.450001X0.450001X-1.450001X-0.450001X1.450001X-0.450001X1.450001X0.450001X0*%
%ADD17R,1.500000X0.900000*%
%ADD18C,0.600000*%
%ADD19R,2.900000X2.900000*%
%ADD20RoundRect,0.250000X-1.450000X0.400000X-1.450000X-0.400000X1.450000X-0.400000X1.450000X0.400000X0*%
%ADD21C,0.800000*%
%ADD22C,6.400000*%
%ADD23RoundRect,0.250000X0.400000X1.450000X-0.400000X1.450000X-0.400000X-1.450000X0.400000X-1.450000X0*%
%ADD24C,0.700000*%
%ADD25C,4.400000*%
%ADD26RoundRect,0.249999X1.450001X-0.450001X1.450001X0.450001X-1.450001X0.450001X-1.450001X-0.450001X0*%
%ADD27RoundRect,0.250000X1.412500X0.550000X-1.412500X0.550000X-1.412500X-0.550000X1.412500X-0.550000X0*%
%ADD28RoundRect,0.200000X-0.200000X-0.600000X0.200000X-0.600000X0.200000X0.600000X-0.200000X0.600000X0*%
%ADD29RoundRect,0.250001X-0.799999X-1.249999X0.799999X-1.249999X0.799999X1.249999X-0.799999X1.249999X0*%
%ADD30R,4.000000X4.000000*%
%ADD31RoundRect,0.250000X-0.550000X-0.550000X0.550000X-0.550000X0.550000X0.550000X-0.550000X0.550000X0*%
%ADD32C,1.600000*%
%ADD33RoundRect,0.250000X-0.625000X0.375000X-0.625000X-0.375000X0.625000X-0.375000X0.625000X0.375000X0*%
%ADD34RoundRect,0.090000X0.360000X-0.660000X0.360000X0.660000X-0.360000X0.660000X-0.360000X-0.660000X0*%
%ADD35C,1.524000*%
%ADD36FreePoly0,270.000000*%
%ADD37FreePoly1,270.000000*%
%ADD38RoundRect,0.102000X0.802500X0.802500X-0.802500X0.802500X-0.802500X-0.802500X0.802500X-0.802500X0*%
%ADD39C,1.809000*%
%ADD40RoundRect,0.250000X1.450000X-0.400000X1.450000X0.400000X-1.450000X0.400000X-1.450000X-0.400000X0*%
%ADD41C,6.000000*%
%ADD42FreePoly0,0.000000*%
%ADD43FreePoly1,0.000000*%
%ADD44R,1.905000X2.000000*%
%ADD45O,1.905000X2.000000*%
%ADD46RoundRect,0.102000X-0.754000X-0.754000X0.754000X-0.754000X0.754000X0.754000X-0.754000X0.754000X0*%
%ADD47C,1.712000*%
%ADD48RoundRect,0.102000X0.675000X-0.200000X0.675000X0.200000X-0.675000X0.200000X-0.675000X-0.200000X0*%
%ADD49RoundRect,0.102000X0.700000X-0.800000X0.700000X0.800000X-0.700000X0.800000X-0.700000X-0.800000X0*%
%ADD50RoundRect,0.102000X0.950000X-0.950000X0.950000X0.950000X-0.950000X0.950000X-0.950000X-0.950000X0*%
%ADD51O,2.704000X1.514000*%
%ADD52RoundRect,0.249999X0.450001X1.450001X-0.450001X1.450001X-0.450001X-1.450001X0.450001X-1.450001X0*%
%ADD53C,1.854000*%
%ADD54RoundRect,0.102000X0.819150X0.819150X-0.819150X0.819150X-0.819150X-0.819150X0.819150X-0.819150X0*%
%ADD55C,1.842300*%
%ADD56RoundRect,0.102000X-0.620000X-0.620000X0.620000X-0.620000X0.620000X0.620000X-0.620000X0.620000X0*%
%ADD57C,1.444000*%
G04 APERTURE END LIST*
D10*
%TO.C,JP2*%
G36*
X113048020Y-130046981D02*
G01*
X111548020Y-130046981D01*
X111548020Y-127596981D01*
X113048020Y-127596981D01*
X113048020Y-130046981D01*
G37*
%TO.C,JP1*%
G36*
X96388021Y-137441981D02*
G01*
X93938021Y-137441981D01*
X93938021Y-135941981D01*
X96388021Y-135941981D01*
X96388021Y-137441981D01*
G37*
%TD*%
D11*
%TO.C,D3*%
X109178020Y-153181979D03*
X109178020Y-150381981D03*
%TD*%
D12*
%TO.C,RV1*%
X119100000Y-66200000D03*
X120500000Y-58700001D03*
%TD*%
D13*
%TO.C,F1*%
X108400000Y-75550000D03*
X114200000Y-75550000D03*
%TD*%
D14*
%TO.C,SW1*%
X124644214Y-131528175D03*
X120048020Y-126931981D03*
X127826195Y-128346194D03*
X123230000Y-123750000D03*
%TD*%
D15*
%TO.C,R3*%
X105263019Y-128491981D03*
X109713021Y-128491981D03*
%TD*%
D16*
%TO.C,C2*%
X98988020Y-136391981D03*
X98988020Y-140491981D03*
%TD*%
D17*
%TO.C,U2*%
X102338020Y-132331981D03*
X102338020Y-133831981D03*
X102338020Y-135331981D03*
X102338020Y-136831981D03*
X102338020Y-138331981D03*
X102338020Y-139831981D03*
X102338020Y-141331981D03*
X102338020Y-142831981D03*
X102338020Y-144331981D03*
X119838020Y-144331981D03*
X119838020Y-142831981D03*
X119838020Y-141331981D03*
X119838020Y-139831981D03*
X119838020Y-138331981D03*
X119838020Y-136831981D03*
X119838020Y-135331981D03*
X119838020Y-133831981D03*
X119838020Y-132331981D03*
D18*
X110948020Y-137981982D03*
X110948020Y-139081981D03*
X111498020Y-137431981D03*
X111498020Y-138531981D03*
X111498020Y-139631981D03*
X112048020Y-137981981D03*
D19*
X112048020Y-138531981D03*
D18*
X112048020Y-139081982D03*
X112598020Y-137431981D03*
X112598020Y-138531981D03*
X112598020Y-139631981D03*
X113148020Y-137981982D03*
X113148020Y-139081981D03*
%TD*%
D20*
%TO.C,R13*%
X114840000Y-90724999D03*
X114840000Y-95175001D03*
%TD*%
D21*
%TO.C,REF\u002A\u002A*%
X109020000Y-60640000D03*
X109722944Y-58942944D03*
X109722944Y-62337056D03*
X111420000Y-58240000D03*
D22*
X111420000Y-60640000D03*
D21*
X111420000Y-63040000D03*
X113117056Y-58942944D03*
X113117056Y-62337056D03*
X113820000Y-60640000D03*
%TD*%
D23*
%TO.C,R19*%
X116053021Y-147711981D03*
X111603019Y-147711981D03*
%TD*%
D24*
%TO.C,REF\u002A\u002A*%
X109760000Y-83040000D03*
X110243274Y-81873274D03*
X110243274Y-84206726D03*
X111410000Y-81390000D03*
D25*
X111410000Y-83040000D03*
D24*
X111410000Y-84690000D03*
X112576726Y-81873274D03*
X112576726Y-84206726D03*
X113060000Y-83040000D03*
%TD*%
D15*
%TO.C,R7*%
X122523019Y-136121981D03*
X126973021Y-136121981D03*
%TD*%
D20*
%TO.C,R2*%
X98948020Y-142686980D03*
X98948020Y-147136982D03*
%TD*%
D26*
%TO.C,C6*%
X102158020Y-129531981D03*
X102158020Y-125431981D03*
%TD*%
D27*
%TO.C,C8*%
X124117500Y-72870000D03*
X119042500Y-72870000D03*
%TD*%
D28*
%TO.C,J4*%
X121368020Y-148781981D03*
X122618020Y-148781981D03*
X123868020Y-148781981D03*
X125118020Y-148781981D03*
D29*
X118818020Y-151681981D03*
X127668020Y-151681981D03*
%TD*%
D30*
%TO.C,TP2*%
X106130000Y-82770000D03*
%TD*%
D31*
%TO.C,U4*%
X99645000Y-91485000D03*
D32*
X99645000Y-94025000D03*
X107265000Y-94025000D03*
X107265000Y-91485000D03*
%TD*%
D33*
%TO.C,D1*%
X94868020Y-143751982D03*
X94868020Y-146551980D03*
%TD*%
D34*
%TO.C,D4*%
X103318020Y-153071981D03*
X106618020Y-153071981D03*
X106618020Y-148171981D03*
X103318020Y-148171981D03*
%TD*%
D35*
%TO.C,J8*%
X127300000Y-69200000D03*
X127300000Y-66660000D03*
X127300000Y-64120001D03*
%TD*%
D36*
%TO.C,JP2*%
X112298020Y-128096982D03*
D37*
X112298020Y-129546980D03*
%TD*%
D15*
%TO.C,R1*%
X94653019Y-133161981D03*
X99103021Y-133161981D03*
%TD*%
D38*
%TO.C,J6*%
X117760000Y-119290000D03*
D39*
X115220000Y-119290000D03*
X112680001Y-119290000D03*
X110139999Y-119290000D03*
X107600000Y-119290000D03*
X105060000Y-119290000D03*
%TD*%
D40*
%TO.C,R8*%
X96190000Y-95265001D03*
X96190000Y-90814999D03*
%TD*%
D21*
%TO.C,J2*%
X98070000Y-82890000D03*
X98729010Y-81299010D03*
X98729010Y-84480990D03*
X100320000Y-80640000D03*
D41*
X100320000Y-82890000D03*
D21*
X100320000Y-85140000D03*
X101910990Y-81299010D03*
X101910990Y-84480990D03*
X102570000Y-82890000D03*
%TD*%
D42*
%TO.C,JP1*%
X94438022Y-136691981D03*
D43*
X95888020Y-136691981D03*
%TD*%
D24*
%TO.C,REF\u002A\u002A*%
X123950000Y-59180000D03*
X124433274Y-58013274D03*
X124433274Y-60346726D03*
X125600000Y-57530000D03*
D25*
X125600000Y-59180000D03*
D24*
X125600000Y-60830000D03*
X126766726Y-58013274D03*
X126766726Y-60346726D03*
X127250000Y-59180000D03*
%TD*%
D40*
%TO.C,R12*%
X110590000Y-95175001D03*
X110590000Y-90724999D03*
%TD*%
D44*
%TO.C,Q1*%
X119860000Y-93595000D03*
D45*
X122400000Y-93595000D03*
X124939999Y-93595000D03*
%TD*%
D46*
%TO.C,PS1*%
X96470000Y-104370000D03*
D47*
X96470000Y-109370000D03*
X125870000Y-99170000D03*
X125870000Y-114570000D03*
%TD*%
D30*
%TO.C,TP13*%
X116650000Y-82830000D03*
%TD*%
D23*
%TO.C,R4*%
X115993022Y-152121981D03*
X111543020Y-152121981D03*
%TD*%
D48*
%TO.C,J3*%
X124988020Y-144351981D03*
X124988020Y-143701981D03*
X124988019Y-143051981D03*
X124988020Y-142401981D03*
X124988020Y-141751981D03*
D49*
X125213020Y-146251981D03*
D50*
X127663020Y-144251981D03*
X127663020Y-141851981D03*
D49*
X125213020Y-139851981D03*
D51*
X127663020Y-139796980D03*
X127663020Y-146306982D03*
%TD*%
D52*
%TO.C,C5*%
X98958020Y-128691981D03*
X94858020Y-128691981D03*
%TD*%
D21*
%TO.C,J1*%
X120320000Y-82890000D03*
X120979010Y-81299010D03*
X120979010Y-84480990D03*
X122570000Y-80640000D03*
D41*
X122570000Y-82890000D03*
D21*
X122570000Y-85140000D03*
X124160990Y-81299010D03*
X124160990Y-84480990D03*
X124820000Y-82890000D03*
%TD*%
D53*
%TO.C,C4*%
X98000000Y-60150000D03*
X98000000Y-75150000D03*
%TD*%
D54*
%TO.C,J7*%
X100100520Y-152691981D03*
D55*
X97560520Y-152691981D03*
X95020520Y-152691981D03*
%TD*%
D56*
%TO.C,J5*%
X105415520Y-124061981D03*
D57*
X107955520Y-124061981D03*
X110495519Y-124061981D03*
X113035520Y-124061981D03*
X115575520Y-124061981D03*
X118115520Y-124061981D03*
%TD*%
G36*
X108177550Y-79948469D02*
G01*
X108244338Y-79968990D01*
X108289429Y-80022361D01*
X108300000Y-80072459D01*
X108300000Y-85826000D01*
X108280315Y-85893039D01*
X108227511Y-85938794D01*
X108176000Y-85950000D01*
X100424000Y-85950000D01*
X100356961Y-85930315D01*
X100311206Y-85877511D01*
X100300000Y-85826000D01*
X100300000Y-79975559D01*
X100319685Y-79908520D01*
X100372489Y-79862765D01*
X100425550Y-79851569D01*
X108177550Y-79948469D01*
G37*
G36*
X118643039Y-84369685D02*
G01*
X118688794Y-84422489D01*
X118700000Y-84474000D01*
X118700000Y-84950000D01*
X120869088Y-87414872D01*
X120898599Y-87478204D01*
X120900000Y-87496790D01*
X120900000Y-92926000D01*
X120880315Y-92993039D01*
X120827511Y-93038794D01*
X120776000Y-93050000D01*
X118124000Y-93050000D01*
X118056961Y-93030315D01*
X118011206Y-92977511D01*
X118000000Y-92926000D01*
X118000000Y-89750000D01*
X114636319Y-86386319D01*
X114602834Y-86324996D01*
X114600000Y-86298638D01*
X114600000Y-84474000D01*
X114619685Y-84406961D01*
X114672489Y-84361206D01*
X114724000Y-84350000D01*
X118576000Y-84350000D01*
X118643039Y-84369685D01*
G37*
M02*
