%TF.GenerationSoftware,KiCad,Pcbnew,9.0.0*%
%TF.CreationDate,2025-08-30T14:42:31+03:00*%
%TF.ProjectId,easy home electronics,65617379-2068-46f6-9d65-20656c656374,rev?*%
%TF.SameCoordinates,Original*%
%TF.FileFunction,Copper,L2,Inr*%
%TF.FilePolarity,Positive*%
%FSLAX46Y46*%
G04 Gerber Fmt 4.6, Leading zero omitted, Abs format (unit mm)*
G04 Created by KiCad (PCBNEW 9.0.0) date 2025-08-30 14:42:31*
%MOMM*%
%LPD*%
G01*
G04 APERTURE LIST*
G04 Aperture macros list*
%AMRoundRect*
0 Rectangle with rounded corners*
0 $1 Rounding radius*
0 $2 $3 $4 $5 $6 $7 $8 $9 X,Y pos of 4 corners*
0 Add a 4 corners polygon primitive as box body*
4,1,4,$2,$3,$4,$5,$6,$7,$8,$9,$2,$3,0*
0 Add four circle primitives for the rounded corners*
1,1,$1+$1,$2,$3*
1,1,$1+$1,$4,$5*
1,1,$1+$1,$6,$7*
1,1,$1+$1,$8,$9*
0 Add four rect primitives between the rounded corners*
20,1,$1+$1,$2,$3,$4,$5,0*
20,1,$1+$1,$4,$5,$6,$7,0*
20,1,$1+$1,$6,$7,$8,$9,0*
20,1,$1+$1,$8,$9,$2,$3,0*%
G04 Aperture macros list end*
%TA.AperFunction,ComponentPad*%
%ADD10C,1.800000*%
%TD*%
%TA.AperFunction,ComponentPad*%
%ADD11C,2.000000*%
%TD*%
%TA.AperFunction,HeatsinkPad*%
%ADD12C,0.600000*%
%TD*%
%TA.AperFunction,ComponentPad*%
%ADD13C,0.800000*%
%TD*%
%TA.AperFunction,ComponentPad*%
%ADD14C,6.400000*%
%TD*%
%TA.AperFunction,ComponentPad*%
%ADD15C,0.700000*%
%TD*%
%TA.AperFunction,ComponentPad*%
%ADD16C,4.400000*%
%TD*%
%TA.AperFunction,ComponentPad*%
%ADD17RoundRect,0.250000X-0.550000X-0.550000X0.550000X-0.550000X0.550000X0.550000X-0.550000X0.550000X0*%
%TD*%
%TA.AperFunction,ComponentPad*%
%ADD18C,1.600000*%
%TD*%
%TA.AperFunction,ComponentPad*%
%ADD19C,1.524000*%
%TD*%
%TA.AperFunction,ComponentPad*%
%ADD20R,1.605000X1.605000*%
%TD*%
%TA.AperFunction,ComponentPad*%
%ADD21C,1.605000*%
%TD*%
%TA.AperFunction,ComponentPad*%
%ADD22C,6.000000*%
%TD*%
%TA.AperFunction,ComponentPad*%
%ADD23R,1.905000X2.000000*%
%TD*%
%TA.AperFunction,ComponentPad*%
%ADD24O,1.905000X2.000000*%
%TD*%
%TA.AperFunction,ComponentPad*%
%ADD25R,1.508000X1.508000*%
%TD*%
%TA.AperFunction,ComponentPad*%
%ADD26C,1.508000*%
%TD*%
%TA.AperFunction,ComponentPad*%
%ADD27O,2.500000X1.310000*%
%TD*%
%TA.AperFunction,ComponentPad*%
%ADD28C,1.650000*%
%TD*%
%TA.AperFunction,ComponentPad*%
%ADD29R,1.638300X1.638300*%
%TD*%
%TA.AperFunction,ComponentPad*%
%ADD30C,1.638300*%
%TD*%
%TA.AperFunction,ComponentPad*%
%ADD31R,1.240000X1.240000*%
%TD*%
%TA.AperFunction,ComponentPad*%
%ADD32C,1.240000*%
%TD*%
%TA.AperFunction,ViaPad*%
%ADD33C,0.600000*%
%TD*%
%TA.AperFunction,Conductor*%
%ADD34C,2.000000*%
%TD*%
%TA.AperFunction,Conductor*%
%ADD35C,0.500000*%
%TD*%
%TA.AperFunction,Conductor*%
%ADD36C,1.000000*%
%TD*%
G04 APERTURE END LIST*
D10*
%TO.N,/N*%
%TO.C,RV1*%
X119100000Y-66200000D03*
%TO.N,Net-(PS1-AC1)*%
X120500000Y-58700001D03*
%TD*%
D11*
%TO.N,/button in*%
%TO.C,SW1*%
X124644214Y-131528175D03*
X120048020Y-126931981D03*
%TO.N,GND*%
X127826195Y-128346194D03*
X123230000Y-123750000D03*
%TD*%
D12*
%TO.N,GND*%
%TO.C,U2*%
X110948020Y-137981982D03*
X110948020Y-139081981D03*
X111498020Y-137431981D03*
X111498020Y-138531981D03*
X111498020Y-139631981D03*
X112048020Y-137981981D03*
X112048020Y-139081982D03*
X112598020Y-137431981D03*
X112598020Y-138531981D03*
X112598020Y-139631981D03*
X113148020Y-137981982D03*
X113148020Y-139081981D03*
%TD*%
D13*
%TO.N,N/C*%
%TO.C,REF\u002A\u002A*%
X109020000Y-60640000D03*
X109722944Y-58942944D03*
X109722944Y-62337056D03*
X111420000Y-58240000D03*
D14*
X111420000Y-60640000D03*
D13*
X111420000Y-63040000D03*
X113117056Y-58942944D03*
X113117056Y-62337056D03*
X113820000Y-60640000D03*
%TD*%
D15*
%TO.N,N/C*%
%TO.C,REF\u002A\u002A*%
X109760000Y-83040000D03*
X110243274Y-81873274D03*
X110243274Y-84206726D03*
X111410000Y-81390000D03*
D16*
X111410000Y-83040000D03*
D15*
X111410000Y-84690000D03*
X112576726Y-81873274D03*
X112576726Y-84206726D03*
X113060000Y-83040000D03*
%TD*%
D17*
%TO.N,Net-(R8-Pad2)*%
%TO.C,U4*%
X99645000Y-91485000D03*
D18*
%TO.N,GND_base*%
X99645000Y-94025000D03*
%TO.N,Net-(R12-Pad1)*%
X107265000Y-94025000D03*
%TO.N,V5V_base*%
X107265000Y-91485000D03*
%TD*%
D19*
%TO.N,V5V_base*%
%TO.C,J8*%
X127300000Y-69200000D03*
%TO.N,VCC_base*%
X127300000Y-66660000D03*
%TO.N,GND_base*%
X127300000Y-64120001D03*
%TD*%
D20*
%TO.N,/current_sense*%
%TO.C,J6*%
X117760000Y-119290000D03*
D21*
%TO.N,GND_base*%
X115220000Y-119290000D03*
%TO.N,/Volt_sense*%
X112680001Y-119290000D03*
%TO.N,GND_base*%
X110139999Y-119290000D03*
%TO.N,/switch_base*%
X107600000Y-119290000D03*
%TO.N,GND_base*%
X105060000Y-119290000D03*
%TD*%
D13*
%TO.N,/N*%
%TO.C,J2*%
X98070000Y-82890000D03*
X98729010Y-81299010D03*
X98729010Y-84480990D03*
X100320000Y-80640000D03*
D22*
X100320000Y-82890000D03*
D13*
X100320000Y-85140000D03*
X101910990Y-81299010D03*
X101910990Y-84480990D03*
X102570000Y-82890000D03*
%TD*%
D15*
%TO.N,N/C*%
%TO.C,REF\u002A\u002A*%
X123950000Y-59180000D03*
X124433274Y-58013274D03*
X124433274Y-60346726D03*
X125600000Y-57530000D03*
D16*
X125600000Y-59180000D03*
D15*
X125600000Y-60830000D03*
X126766726Y-58013274D03*
X126766726Y-60346726D03*
X127250000Y-59180000D03*
%TD*%
D23*
%TO.N,/L3*%
%TO.C,Q1*%
X119860000Y-93595000D03*
D24*
%TO.N,/L2*%
X122400000Y-93595000D03*
%TO.N,/triac in*%
X124939999Y-93595000D03*
%TD*%
D25*
%TO.N,Net-(PS1-AC1)*%
%TO.C,PS1*%
X96470000Y-104370000D03*
D26*
%TO.N,/N*%
X96470000Y-109370000D03*
%TO.N,GND_base*%
X125870000Y-99170000D03*
%TO.N,VCC_base*%
X125870000Y-114570000D03*
%TD*%
D27*
%TO.N,unconnected-(J3-SHIELD-PadSH1)_2*%
%TO.C,J3*%
X127663020Y-139796980D03*
%TO.N,unconnected-(J3-SHIELD-PadSH1)_4*%
X127663020Y-146306982D03*
%TD*%
D13*
%TO.N,/L*%
%TO.C,J1*%
X120320000Y-82890000D03*
X120979010Y-81299010D03*
X120979010Y-84480990D03*
X122570000Y-80640000D03*
D22*
X122570000Y-82890000D03*
D13*
X122570000Y-85140000D03*
X124160990Y-81299010D03*
X124160990Y-84480990D03*
X124820000Y-82890000D03*
%TD*%
D28*
%TO.N,Net-(PS1-AC1)*%
%TO.C,C4*%
X98000000Y-60150000D03*
%TO.N,/N*%
X98000000Y-75150000D03*
%TD*%
D29*
%TO.N,V5V*%
%TO.C,J7*%
X100100520Y-152691981D03*
D30*
%TO.N,VCC*%
X97560520Y-152691981D03*
%TO.N,GND*%
X95020520Y-152691981D03*
%TD*%
D31*
%TO.N,/I_sense*%
%TO.C,J5*%
X105415520Y-124061981D03*
D32*
%TO.N,GND*%
X107955520Y-124061981D03*
%TO.N,/V_sense*%
X110495519Y-124061981D03*
%TO.N,GND*%
X113035520Y-124061981D03*
%TO.N,/switch *%
X115575520Y-124061981D03*
%TO.N,GND*%
X118115520Y-124061981D03*
%TD*%
D33*
%TO.N,GND*%
X109500000Y-137450000D03*
X110000000Y-140150000D03*
X110000000Y-139550000D03*
X122648020Y-125831981D03*
X110000000Y-136550000D03*
X112700000Y-141250000D03*
X112100000Y-141250000D03*
X114200000Y-140750000D03*
X112400000Y-140750000D03*
X113300000Y-136050000D03*
X114700000Y-138050000D03*
X109500000Y-138650000D03*
X111800000Y-136550000D03*
X110600000Y-140750000D03*
X111500000Y-136050000D03*
X113000000Y-140750000D03*
X113300000Y-141250000D03*
X114700000Y-139250000D03*
X114200000Y-137750000D03*
X109500000Y-139250000D03*
X110000000Y-137750000D03*
X111200000Y-136550000D03*
X109500000Y-136850000D03*
X114200000Y-138950000D03*
X110000000Y-138950000D03*
X113900000Y-141250000D03*
X114200000Y-140150000D03*
X110900000Y-141250000D03*
X114200000Y-138350000D03*
X109500000Y-138050000D03*
X110300000Y-136050000D03*
X114200000Y-139550000D03*
X111800000Y-140750000D03*
X114700000Y-140450000D03*
X113600000Y-140750000D03*
X114700000Y-138650000D03*
X109500000Y-140450000D03*
X110000000Y-137150000D03*
X111200000Y-140750000D03*
X110000000Y-138350000D03*
X114700000Y-136850000D03*
X114200000Y-137150000D03*
X110600000Y-136550000D03*
X126058020Y-141331981D03*
X123848020Y-125731981D03*
X113600000Y-136550000D03*
X111500000Y-141250000D03*
X112700000Y-136050000D03*
X113900000Y-136050000D03*
X114700000Y-139850000D03*
X125548020Y-153231981D03*
X110900000Y-136050000D03*
X109500000Y-139850000D03*
X114700000Y-137450000D03*
X112100000Y-136050000D03*
X112400000Y-136550000D03*
X114200000Y-136550000D03*
X110000000Y-140750000D03*
X113000000Y-136550000D03*
X110300000Y-141250000D03*
%TO.N,VCC*%
X123958020Y-151831981D03*
X120958020Y-145651981D03*
X125958020Y-144631981D03*
%TO.N,3V3*%
X95818020Y-133161981D03*
%TO.N,/N*%
X125600000Y-101150000D03*
%TO.N,V5V*%
X118458020Y-148831981D03*
X114458020Y-144231981D03*
X123858020Y-136831981D03*
%TO.N,Net-(U6-FILTER)*%
X121000000Y-75250000D03*
X119000000Y-74750000D03*
%TO.N,/triac in*%
X110590000Y-90724999D03*
X115100000Y-91950000D03*
%TO.N,/button in*%
X125445012Y-136536502D03*
X117958020Y-140731981D03*
%TO.N,Net-(U2-IO7)*%
X105458020Y-140231981D03*
X99658020Y-143931981D03*
%TO.N,/switch *%
X107758020Y-136831981D03*
%TO.N,/in+*%
X109700000Y-106450000D03*
X111100000Y-68150000D03*
%TO.N,/in-*%
X112000000Y-70250000D03*
X110000000Y-92550000D03*
%TO.N,/V_isolation*%
X96200000Y-117050000D03*
X95000000Y-72150000D03*
X100007107Y-99457107D03*
X99900000Y-103450000D03*
%TO.N,/L_sense*%
X118258020Y-135631981D03*
%TO.N,/XTAL OUT*%
X121458020Y-133331981D03*
%TO.N,/I_sense*%
X107258020Y-128731981D03*
%TO.N,/V_sense*%
X108158020Y-133831981D03*
%TO.N,Net-(U2-IO8)*%
X101358020Y-140931981D03*
X96958020Y-139231981D03*
%TO.N,Net-(U2-IO9)*%
X95849246Y-145513601D03*
X100758020Y-144931981D03*
%TO.N,VCC_base*%
X126700000Y-71250000D03*
%TO.N,/current_sense*%
X116200000Y-67650000D03*
X116700000Y-63750000D03*
%TO.N,/switch_base*%
X96200000Y-98050000D03*
%TO.N,/Volt_sense*%
X100100000Y-113450000D03*
X100099348Y-110370000D03*
%TO.N,V5V_base*%
X97600000Y-64350000D03*
X105200000Y-101950000D03*
X105400000Y-114450000D03*
X124300000Y-69250000D03*
X107100000Y-90650000D03*
%TO.N,Net-(U5-OUT1)*%
X104300000Y-99550000D03*
X112000000Y-102950000D03*
X112800000Y-100150000D03*
%TO.N,GND_base*%
X115100000Y-115950000D03*
X103100000Y-61150000D03*
X120700000Y-111050000D03*
X103100000Y-63550000D03*
X120100000Y-113450000D03*
X121300000Y-116450000D03*
X103100000Y-62950000D03*
X114500000Y-112350000D03*
X121300000Y-111650000D03*
X120100000Y-111050000D03*
X121300000Y-114650000D03*
X117000000Y-75650000D03*
X113900000Y-112950000D03*
X114500000Y-112950000D03*
X121300000Y-111050000D03*
X120700000Y-113450000D03*
X123583499Y-67330914D03*
X115100000Y-114750000D03*
X99400000Y-95450000D03*
X121900000Y-111050000D03*
X114500000Y-115950000D03*
X111700000Y-108550000D03*
X120100000Y-111650000D03*
X103700000Y-61150000D03*
X101300000Y-62350000D03*
X115700000Y-113550000D03*
X115100000Y-115350000D03*
X120700000Y-115850000D03*
X115700000Y-115950000D03*
X120100000Y-116450000D03*
X106100000Y-63550000D03*
X113900000Y-114750000D03*
X113500000Y-98850000D03*
X121900000Y-112250000D03*
X101900000Y-61750000D03*
X102100000Y-114550000D03*
X120700000Y-114050000D03*
X106700000Y-62950000D03*
X115100000Y-112950000D03*
X121900000Y-115250000D03*
X120700000Y-112250000D03*
X114500000Y-113550000D03*
X120700000Y-111650000D03*
X121900000Y-116450000D03*
X114500000Y-114150000D03*
X106700000Y-62350000D03*
X113900000Y-114150000D03*
X115700000Y-115350000D03*
X114500000Y-114750000D03*
X113900000Y-115950000D03*
X121900000Y-114050000D03*
X102500000Y-62950000D03*
X121900000Y-115850000D03*
X103100000Y-62350000D03*
X102600000Y-76250000D03*
X103700000Y-62350000D03*
X120100000Y-112250000D03*
X121900000Y-113450000D03*
X113900000Y-115350000D03*
X106100000Y-62350000D03*
X101300000Y-62950000D03*
X106600000Y-110250000D03*
X115700000Y-114150000D03*
X121900000Y-112850000D03*
X104300000Y-62950000D03*
X101900000Y-61150000D03*
X120100000Y-112850000D03*
X121300000Y-113450000D03*
X115700000Y-112950000D03*
X115700000Y-112350000D03*
X120100000Y-114050000D03*
X103100000Y-61750000D03*
X113900000Y-113550000D03*
X101300000Y-61750000D03*
X106700000Y-61750000D03*
X115100000Y-112350000D03*
X102500000Y-63550000D03*
X120100000Y-114650000D03*
X103700000Y-62950000D03*
X115100000Y-114150000D03*
X101900000Y-62950000D03*
X121900000Y-111650000D03*
X101900000Y-62350000D03*
X115000000Y-96250000D03*
X104300000Y-61750000D03*
X120700000Y-116450000D03*
X101900000Y-63550000D03*
X106700000Y-63550000D03*
X101300000Y-61150000D03*
X120100000Y-115250000D03*
X121300000Y-112250000D03*
X106700000Y-61150000D03*
X102500000Y-62350000D03*
X118800000Y-70750000D03*
X100900000Y-104850000D03*
X104300000Y-63550000D03*
X104300000Y-61150000D03*
X114500000Y-115350000D03*
X102500000Y-61150000D03*
X120700000Y-115250000D03*
X121900000Y-114650000D03*
X121300000Y-114050000D03*
X120700000Y-112850000D03*
X121300000Y-115250000D03*
X106100000Y-61750000D03*
X106100000Y-62950000D03*
X120100000Y-115850000D03*
X120700000Y-114650000D03*
X113900000Y-112350000D03*
X115100000Y-113550000D03*
X103700000Y-63550000D03*
X102500000Y-61750000D03*
X114500000Y-116650000D03*
X106100000Y-61150000D03*
X121300000Y-115850000D03*
X103700000Y-61750000D03*
X121300000Y-112850000D03*
X104300000Y-62350000D03*
X115700000Y-114750000D03*
X101300000Y-63550000D03*
%TO.N,Net-(U6-VIOUT)*%
X123600000Y-62750000D03*
X116900000Y-59650000D03*
X122144700Y-73925134D03*
%TO.N,Net-(R23-Pad1)*%
X104500000Y-108450000D03*
X105200000Y-59850000D03*
X104200000Y-69450000D03*
%TD*%
D34*
%TO.N,V5V*%
X100100520Y-152691981D02*
X109198020Y-152691981D01*
X109198020Y-152691981D02*
X114458020Y-147431981D01*
X114458020Y-147431981D02*
X114458020Y-144231981D01*
D35*
%TO.N,/button in*%
X125445012Y-136544989D02*
X121258020Y-140731981D01*
X125445012Y-136536502D02*
X125445012Y-136544989D01*
X121258020Y-140731981D02*
X117958020Y-140731981D01*
%TO.N,Net-(U2-IO7)*%
X104258020Y-143931981D02*
X105458020Y-142731981D01*
X99658020Y-143931981D02*
X104258020Y-143931981D01*
X105458020Y-142731981D02*
X105458020Y-140231981D01*
%TO.N,/switch *%
X108258020Y-136831981D02*
X107758020Y-136831981D01*
X115575520Y-129514481D02*
X108258020Y-136831981D01*
X115575520Y-124061981D02*
X115575520Y-129514481D01*
%TO.N,/I_sense*%
X105415520Y-126889481D02*
X107258020Y-128731981D01*
X105415520Y-124061981D02*
X105415520Y-126889481D01*
%TO.N,/V_sense*%
X110495519Y-131494482D02*
X110495519Y-124061981D01*
X108158020Y-133831981D02*
X110495519Y-131494482D01*
%TO.N,Net-(U2-IO8)*%
X97258020Y-138931981D02*
X96958020Y-139231981D01*
X100958020Y-138931981D02*
X97258020Y-138931981D01*
X101358020Y-140931981D02*
X101358020Y-139331981D01*
X101358020Y-139331981D02*
X100958020Y-138931981D01*
%TO.N,Net-(U2-IO9)*%
X100758020Y-144931981D02*
X99828020Y-145861981D01*
X99828020Y-145861981D02*
X96197626Y-145861981D01*
X96197626Y-145861981D02*
X95849246Y-145513601D01*
D34*
%TO.N,V5V_base*%
X124300000Y-69250000D02*
X127250000Y-69250000D01*
X99600000Y-66350000D02*
X97600000Y-64350000D01*
X105200000Y-101950000D02*
X106700000Y-100450000D01*
X106700000Y-97950000D02*
X104900000Y-96150000D01*
X120684372Y-72865628D02*
X112484372Y-72865628D01*
X105865000Y-91485000D02*
X107265000Y-91485000D01*
X104900000Y-96150000D02*
X104900000Y-92450000D01*
X107500000Y-77850000D02*
X99600000Y-69950000D01*
D36*
X127250000Y-69250000D02*
X127300000Y-69200000D01*
D34*
X106500000Y-78850000D02*
X107500000Y-77850000D01*
D36*
X107265000Y-91485000D02*
X107100000Y-91320000D01*
D34*
X99600000Y-69950000D02*
X99600000Y-66350000D01*
X106500000Y-90720000D02*
X106500000Y-78850000D01*
X105200000Y-101950000D02*
X105200000Y-104350000D01*
X104900000Y-92450000D02*
X105865000Y-91485000D01*
X124300000Y-69250000D02*
X120684372Y-72865628D01*
X107265000Y-91485000D02*
X106500000Y-90720000D01*
X102500000Y-107050000D02*
X102500000Y-111550000D01*
X105200000Y-104350000D02*
X102500000Y-107050000D01*
X106700000Y-100450000D02*
X106700000Y-97950000D01*
D36*
X107100000Y-91320000D02*
X107100000Y-90650000D01*
D34*
X102500000Y-111550000D02*
X105400000Y-114450000D01*
X112484372Y-72865628D02*
X107500000Y-77850000D01*
%TD*%
%TA.AperFunction,Conductor*%
%TO.N,GND_base*%
G36*
X124792855Y-55680632D02*
G01*
X125174532Y-55698277D01*
X125185922Y-55699333D01*
X125561501Y-55751724D01*
X125572745Y-55753826D01*
X125941887Y-55840647D01*
X125952877Y-55843774D01*
X126312454Y-55964293D01*
X126323108Y-55968421D01*
X126670015Y-56121595D01*
X126680242Y-56126687D01*
X126937155Y-56269787D01*
X127011532Y-56311215D01*
X127021270Y-56317244D01*
X127307706Y-56513457D01*
X127334118Y-56531549D01*
X127343258Y-56538452D01*
X127634985Y-56780699D01*
X127643449Y-56788415D01*
X127911584Y-57056550D01*
X127919300Y-57065014D01*
X128161547Y-57356741D01*
X128168450Y-57365881D01*
X128382755Y-57678729D01*
X128388784Y-57688467D01*
X128573305Y-58019744D01*
X128578410Y-58029997D01*
X128731573Y-58376878D01*
X128735711Y-58387558D01*
X128856221Y-58747109D01*
X128859355Y-58758125D01*
X128946171Y-59127246D01*
X128948276Y-59138505D01*
X129000665Y-59514070D01*
X129001722Y-59525474D01*
X129019368Y-59907144D01*
X129019500Y-59912828D01*
X129019500Y-59954170D01*
X129019514Y-59954211D01*
X129019518Y-59964666D01*
X129039497Y-116927117D01*
X129039365Y-116932887D01*
X129021636Y-117316370D01*
X129020579Y-117327774D01*
X128967935Y-117705169D01*
X128965830Y-117716428D01*
X128878591Y-118087347D01*
X128875457Y-118098363D01*
X128754361Y-118459665D01*
X128750223Y-118470345D01*
X128596313Y-118818917D01*
X128591208Y-118829170D01*
X128405789Y-119162060D01*
X128399760Y-119171798D01*
X128184410Y-119486171D01*
X128177507Y-119495311D01*
X127934080Y-119788459D01*
X127926364Y-119796923D01*
X127656923Y-120066364D01*
X127648459Y-120074080D01*
X127355311Y-120317507D01*
X127346171Y-120324410D01*
X127031798Y-120539760D01*
X127022060Y-120545789D01*
X126689170Y-120731208D01*
X126678917Y-120736313D01*
X126330345Y-120890223D01*
X126319665Y-120894361D01*
X125958363Y-121015457D01*
X125947347Y-121018591D01*
X125576428Y-121105830D01*
X125565169Y-121107935D01*
X125187774Y-121160579D01*
X125176370Y-121161636D01*
X124792855Y-121179368D01*
X124787171Y-121179500D01*
X124745830Y-121179500D01*
X124745791Y-121179514D01*
X124734830Y-121179518D01*
X124734820Y-121179515D01*
X124734787Y-121179518D01*
X124706904Y-121179518D01*
X124544879Y-121216500D01*
X124395157Y-121288602D01*
X124395152Y-121288605D01*
X124276939Y-121382878D01*
X124212252Y-121409286D01*
X124143557Y-121396530D01*
X124122314Y-121382878D01*
X124090486Y-121357496D01*
X124007853Y-121291596D01*
X124007847Y-121291593D01*
X123858124Y-121219491D01*
X123858109Y-121219486D01*
X123696096Y-121182508D01*
X123696094Y-121182508D01*
X123612998Y-121182509D01*
X123611936Y-121182509D01*
X119942277Y-121179563D01*
X119941541Y-121179499D01*
X119931171Y-121179499D01*
X119887002Y-121179499D01*
X119861302Y-121179499D01*
X119861153Y-121179499D01*
X119837374Y-121179480D01*
X119837296Y-121179512D01*
X119825039Y-121179519D01*
X119825021Y-121179513D01*
X119824971Y-121179519D01*
X119803900Y-121179519D01*
X119641886Y-121216498D01*
X119492154Y-121288605D01*
X119382327Y-121376188D01*
X119317640Y-121402596D01*
X119248945Y-121389839D01*
X119227704Y-121376188D01*
X119200617Y-121354587D01*
X119117856Y-121288588D01*
X119117853Y-121288586D01*
X119117851Y-121288585D01*
X118968125Y-121216481D01*
X118806096Y-121179498D01*
X118806095Y-121179498D01*
X118722998Y-121179499D01*
X117394997Y-121179499D01*
X117394795Y-121179519D01*
X117373900Y-121179519D01*
X117211886Y-121216498D01*
X117062154Y-121288605D01*
X116952327Y-121376188D01*
X116887640Y-121402596D01*
X116818945Y-121389839D01*
X116797704Y-121376188D01*
X116770617Y-121354587D01*
X116687856Y-121288588D01*
X116687853Y-121288586D01*
X116687851Y-121288585D01*
X116538125Y-121216481D01*
X116376096Y-121179498D01*
X116376095Y-121179498D01*
X116292998Y-121179499D01*
X112554997Y-121179499D01*
X112554795Y-121179519D01*
X112533900Y-121179519D01*
X112371886Y-121216498D01*
X112222157Y-121288604D01*
X112102328Y-121384163D01*
X112037641Y-121410571D01*
X111968945Y-121397814D01*
X111947704Y-121384162D01*
X111827861Y-121288591D01*
X111827851Y-121288585D01*
X111678125Y-121216481D01*
X111678126Y-121216481D01*
X111516096Y-121179498D01*
X111516095Y-121179498D01*
X111482823Y-121179498D01*
X111423447Y-121179499D01*
X111388829Y-121179499D01*
X111388827Y-121179499D01*
X111388803Y-121179499D01*
X110221947Y-121179518D01*
X110221946Y-121179518D01*
X110211224Y-121179518D01*
X110211171Y-121179499D01*
X110167002Y-121179499D01*
X110167002Y-121179518D01*
X110115621Y-121179519D01*
X110115620Y-121179518D01*
X110115620Y-121179519D01*
X110083900Y-121179519D01*
X109921886Y-121216498D01*
X109772157Y-121288604D01*
X109667328Y-121372201D01*
X109602641Y-121398609D01*
X109533945Y-121385852D01*
X109512704Y-121372201D01*
X109407855Y-121288587D01*
X109407851Y-121288585D01*
X109258125Y-121216481D01*
X109096096Y-121179498D01*
X109096095Y-121179498D01*
X109012998Y-121179499D01*
X105254997Y-121179499D01*
X105254795Y-121179519D01*
X105233900Y-121179519D01*
X105071886Y-121216498D01*
X104922157Y-121288604D01*
X104786778Y-121396564D01*
X104785899Y-121395462D01*
X104731358Y-121425236D01*
X104661667Y-121420244D01*
X104623766Y-121395883D01*
X104623236Y-121396549D01*
X104592704Y-121372201D01*
X104487856Y-121288588D01*
X104487853Y-121288586D01*
X104487851Y-121288585D01*
X104338125Y-121216481D01*
X104176096Y-121179498D01*
X104176095Y-121179498D01*
X104092998Y-121179499D01*
X102764997Y-121179499D01*
X102764795Y-121179519D01*
X102743900Y-121179519D01*
X102581886Y-121216498D01*
X102432154Y-121288605D01*
X102317327Y-121380175D01*
X102252640Y-121406583D01*
X102183945Y-121393826D01*
X102162704Y-121380175D01*
X102113355Y-121340821D01*
X102047856Y-121288588D01*
X102047853Y-121288586D01*
X102047851Y-121288585D01*
X101898125Y-121216481D01*
X101736096Y-121179498D01*
X101652999Y-121179498D01*
X101652998Y-121179499D01*
X101608829Y-121179499D01*
X101608826Y-121179499D01*
X101598829Y-121179500D01*
X101598828Y-121179499D01*
X101598827Y-121179500D01*
X98894935Y-121179500D01*
X98894753Y-121179518D01*
X98873900Y-121179518D01*
X98711885Y-121216497D01*
X98562154Y-121288604D01*
X98562152Y-121288605D01*
X98455828Y-121373397D01*
X98391141Y-121399805D01*
X98322446Y-121387050D01*
X98301202Y-121373397D01*
X98194858Y-121288589D01*
X98194853Y-121288586D01*
X98045121Y-121216480D01*
X98045123Y-121216480D01*
X97883101Y-121179500D01*
X97883096Y-121179500D01*
X97802862Y-121179500D01*
X97797127Y-121179367D01*
X97413094Y-121161586D01*
X97401674Y-121160527D01*
X97023744Y-121107733D01*
X97012470Y-121105622D01*
X96641056Y-121018138D01*
X96630025Y-121014995D01*
X96268273Y-120893564D01*
X96257580Y-120889415D01*
X95908601Y-120735080D01*
X95898337Y-120729961D01*
X95565103Y-120544037D01*
X95555356Y-120537991D01*
X95392526Y-120426246D01*
X95240734Y-120322076D01*
X95231588Y-120315156D01*
X94938265Y-120071098D01*
X94929796Y-120063362D01*
X94660271Y-119793237D01*
X94652554Y-119784752D01*
X94409130Y-119490866D01*
X94402246Y-119481725D01*
X94245723Y-119252555D01*
X94201281Y-119187486D01*
X103757500Y-119187486D01*
X103757500Y-119392513D01*
X103789570Y-119594997D01*
X103852927Y-119789991D01*
X103946003Y-119972661D01*
X103978733Y-120017711D01*
X103978734Y-120017711D01*
X104548459Y-119447985D01*
X104561460Y-119496502D01*
X104631894Y-119618497D01*
X104731503Y-119718106D01*
X104853498Y-119788540D01*
X104902012Y-119801539D01*
X104332287Y-120371264D01*
X104377344Y-120403999D01*
X104560008Y-120497072D01*
X104755002Y-120560429D01*
X104957487Y-120592500D01*
X105162513Y-120592500D01*
X105364997Y-120560429D01*
X105559991Y-120497072D01*
X105742659Y-120403997D01*
X105787711Y-120371264D01*
X105787712Y-120371264D01*
X105217987Y-119801539D01*
X105266502Y-119788540D01*
X105388497Y-119718106D01*
X105488106Y-119618497D01*
X105558540Y-119496502D01*
X105571539Y-119447987D01*
X106141264Y-120017712D01*
X106141264Y-120017711D01*
X106173999Y-119972657D01*
X106219234Y-119883877D01*
X106267208Y-119833081D01*
X106335028Y-119816285D01*
X106401164Y-119838822D01*
X106440204Y-119883876D01*
X106485440Y-119972657D01*
X106485577Y-119972924D01*
X106606121Y-120138840D01*
X106606125Y-120138845D01*
X106751154Y-120283874D01*
X106751159Y-120283878D01*
X106821296Y-120334835D01*
X106917079Y-120404425D01*
X107033522Y-120463755D01*
X107099817Y-120497535D01*
X107099819Y-120497535D01*
X107099822Y-120497537D01*
X107294880Y-120560916D01*
X107396166Y-120576958D01*
X107497447Y-120593000D01*
X107497452Y-120593000D01*
X107702553Y-120593000D01*
X107794626Y-120578416D01*
X107905120Y-120560916D01*
X108100178Y-120497537D01*
X108282921Y-120404425D01*
X108448847Y-120283873D01*
X108593873Y-120138847D01*
X108714425Y-119972921D01*
X108759795Y-119883876D01*
X108807768Y-119833082D01*
X108875588Y-119816286D01*
X108941724Y-119838823D01*
X108980763Y-119883876D01*
X109026000Y-119972658D01*
X109058732Y-120017711D01*
X109058733Y-120017711D01*
X109628458Y-119447985D01*
X109641459Y-119496502D01*
X109711893Y-119618497D01*
X109811502Y-119718106D01*
X109933497Y-119788540D01*
X109982011Y-119801539D01*
X109412286Y-120371264D01*
X109457343Y-120403999D01*
X109640007Y-120497072D01*
X109835001Y-120560429D01*
X110037486Y-120592500D01*
X110242512Y-120592500D01*
X110444996Y-120560429D01*
X110639990Y-120497072D01*
X110822658Y-120403997D01*
X110867710Y-120371264D01*
X110867711Y-120371264D01*
X110297986Y-119801539D01*
X110346501Y-119788540D01*
X110468496Y-119718106D01*
X110568105Y-119618497D01*
X110638539Y-119496502D01*
X110651538Y-119447987D01*
X111221263Y-120017712D01*
X111221263Y-120017711D01*
X111253998Y-119972657D01*
X111299234Y-119883875D01*
X111347208Y-119833079D01*
X111415028Y-119816283D01*
X111481164Y-119838820D01*
X111520204Y-119883874D01*
X111565441Y-119972657D01*
X111565578Y-119972924D01*
X111686122Y-120138840D01*
X111686126Y-120138845D01*
X111831155Y-120283874D01*
X111831160Y-120283878D01*
X111901297Y-120334835D01*
X111997080Y-120404425D01*
X112113523Y-120463755D01*
X112179818Y-120497535D01*
X112179820Y-120497535D01*
X112179823Y-120497537D01*
X112374881Y-120560916D01*
X112476167Y-120576958D01*
X112577448Y-120593000D01*
X112577453Y-120593000D01*
X112782554Y-120593000D01*
X112874627Y-120578416D01*
X112985121Y-120560916D01*
X113180179Y-120497537D01*
X113362922Y-120404425D01*
X113528848Y-120283873D01*
X113673874Y-120138847D01*
X113794426Y-119972921D01*
X113839796Y-119883876D01*
X113887769Y-119833082D01*
X113955589Y-119816286D01*
X114021725Y-119838823D01*
X114060764Y-119883876D01*
X114106001Y-119972658D01*
X114138733Y-120017711D01*
X114138734Y-120017711D01*
X114708459Y-119447985D01*
X114721460Y-119496502D01*
X114791894Y-119618497D01*
X114891503Y-119718106D01*
X115013498Y-119788540D01*
X115062012Y-119801539D01*
X114492287Y-120371264D01*
X114537344Y-120403999D01*
X114720008Y-120497072D01*
X114915002Y-120560429D01*
X115117487Y-120592500D01*
X115322513Y-120592500D01*
X115524997Y-120560429D01*
X115719991Y-120497072D01*
X115902659Y-120403997D01*
X115947711Y-120371264D01*
X115947712Y-120371264D01*
X115377987Y-119801539D01*
X115426502Y-119788540D01*
X115548497Y-119718106D01*
X115648106Y-119618497D01*
X115718540Y-119496502D01*
X115731539Y-119447987D01*
X116301263Y-120017711D01*
X116323271Y-120015980D01*
X116391648Y-120030344D01*
X116441405Y-120079396D01*
X116456357Y-120137088D01*
X116456599Y-120137076D01*
X116456646Y-120137071D01*
X116456646Y-120137073D01*
X116456824Y-120137064D01*
X116456947Y-120139364D01*
X116457000Y-120139568D01*
X116457000Y-120140355D01*
X116457001Y-120140376D01*
X116463408Y-120199983D01*
X116513702Y-120334828D01*
X116513706Y-120334835D01*
X116599952Y-120450044D01*
X116599955Y-120450047D01*
X116715164Y-120536293D01*
X116715171Y-120536297D01*
X116850017Y-120586591D01*
X116850016Y-120586591D01*
X116856944Y-120587335D01*
X116909627Y-120593000D01*
X118610372Y-120592999D01*
X118669983Y-120586591D01*
X118804831Y-120536296D01*
X118920046Y-120450046D01*
X119006296Y-120334831D01*
X119056591Y-120199983D01*
X119063000Y-120140373D01*
X119062999Y-118439628D01*
X119056591Y-118380017D01*
X119049074Y-118359864D01*
X119006297Y-118245171D01*
X119006293Y-118245164D01*
X118920047Y-118129955D01*
X118920044Y-118129952D01*
X118804835Y-118043706D01*
X118804828Y-118043702D01*
X118669982Y-117993408D01*
X118669983Y-117993408D01*
X118610383Y-117987001D01*
X118610381Y-117987000D01*
X118610373Y-117987000D01*
X118610364Y-117987000D01*
X116909629Y-117987000D01*
X116909623Y-117987001D01*
X116850016Y-117993408D01*
X116715171Y-118043702D01*
X116715164Y-118043706D01*
X116599955Y-118129952D01*
X116599952Y-118129955D01*
X116513706Y-118245164D01*
X116513702Y-118245171D01*
X116463408Y-118380017D01*
X116457001Y-118439616D01*
X116457001Y-118439623D01*
X116457000Y-118439635D01*
X116457000Y-118440401D01*
X116456949Y-118440572D01*
X116456822Y-118442952D01*
X116456259Y-118442921D01*
X116437315Y-118507440D01*
X116384511Y-118553195D01*
X116323271Y-118564019D01*
X116301264Y-118562287D01*
X115731539Y-119132012D01*
X115718540Y-119083498D01*
X115648106Y-118961503D01*
X115548497Y-118861894D01*
X115426502Y-118791460D01*
X115377985Y-118778459D01*
X115947711Y-118208734D01*
X115947711Y-118208733D01*
X115902661Y-118176003D01*
X115719991Y-118082927D01*
X115524997Y-118019570D01*
X115322513Y-117987500D01*
X115117487Y-117987500D01*
X114915002Y-118019570D01*
X114720008Y-118082927D01*
X114537338Y-118176003D01*
X114492287Y-118208733D01*
X114492287Y-118208734D01*
X115062013Y-118778460D01*
X115013498Y-118791460D01*
X114891503Y-118861894D01*
X114791894Y-118961503D01*
X114721460Y-119083498D01*
X114708460Y-119132013D01*
X114138734Y-118562287D01*
X114138733Y-118562287D01*
X114106001Y-118607341D01*
X114060764Y-118696123D01*
X114012789Y-118746919D01*
X113944968Y-118763713D01*
X113878833Y-118741175D01*
X113839795Y-118696121D01*
X113794425Y-118607077D01*
X113673879Y-118441159D01*
X113673875Y-118441154D01*
X113528846Y-118296125D01*
X113528841Y-118296121D01*
X113362925Y-118175577D01*
X113362924Y-118175576D01*
X113362922Y-118175575D01*
X113273382Y-118129952D01*
X113180183Y-118082464D01*
X113133385Y-118067258D01*
X112985121Y-118019084D01*
X112985115Y-118019083D01*
X112782554Y-117987000D01*
X112782549Y-117987000D01*
X112577453Y-117987000D01*
X112577448Y-117987000D01*
X112374886Y-118019083D01*
X112374884Y-118019083D01*
X112374881Y-118019084D01*
X112277352Y-118050773D01*
X112179818Y-118082464D01*
X111997076Y-118175577D01*
X111831160Y-118296121D01*
X111831155Y-118296125D01*
X111686126Y-118441154D01*
X111686122Y-118441159D01*
X111565576Y-118607077D01*
X111520203Y-118696126D01*
X111472229Y-118746921D01*
X111404407Y-118763716D01*
X111338273Y-118741178D01*
X111299234Y-118696124D01*
X111254000Y-118607347D01*
X111221263Y-118562287D01*
X110651538Y-119132012D01*
X110638539Y-119083498D01*
X110568105Y-118961503D01*
X110468496Y-118861894D01*
X110346501Y-118791460D01*
X110297984Y-118778459D01*
X110867710Y-118208734D01*
X110867710Y-118208733D01*
X110822660Y-118176003D01*
X110639990Y-118082927D01*
X110444996Y-118019570D01*
X110242512Y-117987500D01*
X110037486Y-117987500D01*
X109835001Y-118019570D01*
X109640007Y-118082927D01*
X109457337Y-118176003D01*
X109412286Y-118208733D01*
X109412286Y-118208734D01*
X109982012Y-118778460D01*
X109933497Y-118791460D01*
X109811502Y-118861894D01*
X109711893Y-118961503D01*
X109641459Y-119083498D01*
X109628459Y-119132013D01*
X109058733Y-118562287D01*
X109058732Y-118562287D01*
X109026000Y-118607341D01*
X108980763Y-118696123D01*
X108932788Y-118746919D01*
X108864967Y-118763713D01*
X108798832Y-118741175D01*
X108759794Y-118696121D01*
X108714424Y-118607077D01*
X108593878Y-118441159D01*
X108593874Y-118441154D01*
X108448845Y-118296125D01*
X108448840Y-118296121D01*
X108282924Y-118175577D01*
X108282923Y-118175576D01*
X108282921Y-118175575D01*
X108193381Y-118129952D01*
X108100182Y-118082464D01*
X108053384Y-118067258D01*
X107905120Y-118019084D01*
X107905114Y-118019083D01*
X107702553Y-117987000D01*
X107702548Y-117987000D01*
X107497452Y-117987000D01*
X107497447Y-117987000D01*
X107294885Y-118019083D01*
X107294883Y-118019083D01*
X107294880Y-118019084D01*
X107197351Y-118050773D01*
X107099817Y-118082464D01*
X106917075Y-118175577D01*
X106751159Y-118296121D01*
X106751154Y-118296125D01*
X106606125Y-118441154D01*
X106606121Y-118441159D01*
X106485575Y-118607077D01*
X106440203Y-118696124D01*
X106392229Y-118746919D01*
X106324407Y-118763714D01*
X106258273Y-118741176D01*
X106219234Y-118696122D01*
X106174001Y-118607347D01*
X106141264Y-118562287D01*
X105571539Y-119132012D01*
X105558540Y-119083498D01*
X105488106Y-118961503D01*
X105388497Y-118861894D01*
X105266502Y-118791460D01*
X105217985Y-118778459D01*
X105787711Y-118208734D01*
X105787711Y-118208733D01*
X105742661Y-118176003D01*
X105559991Y-118082927D01*
X105364997Y-118019570D01*
X105162513Y-117987500D01*
X104957487Y-117987500D01*
X104755002Y-118019570D01*
X104560008Y-118082927D01*
X104377338Y-118176003D01*
X104332287Y-118208733D01*
X104332287Y-118208734D01*
X104902013Y-118778460D01*
X104853498Y-118791460D01*
X104731503Y-118861894D01*
X104631894Y-118961503D01*
X104561460Y-119083498D01*
X104548460Y-119132013D01*
X103978734Y-118562287D01*
X103978733Y-118562287D01*
X103946003Y-118607338D01*
X103852927Y-118790008D01*
X103789570Y-118985002D01*
X103757500Y-119187486D01*
X94201281Y-119187486D01*
X94187028Y-119166618D01*
X94181004Y-119156858D01*
X94058669Y-118936446D01*
X93995816Y-118823203D01*
X93990730Y-118812948D01*
X93837161Y-118463606D01*
X93833039Y-118452909D01*
X93712415Y-118090894D01*
X93709298Y-118079863D01*
X93622631Y-117708220D01*
X93620552Y-117696975D01*
X93568598Y-117318930D01*
X93567564Y-117307514D01*
X93566505Y-117283489D01*
X93552739Y-116971153D01*
X95399500Y-116971153D01*
X95399500Y-117128846D01*
X95430261Y-117283489D01*
X95430264Y-117283501D01*
X95490602Y-117429172D01*
X95490609Y-117429185D01*
X95578210Y-117560288D01*
X95578213Y-117560292D01*
X95689707Y-117671786D01*
X95689711Y-117671789D01*
X95820814Y-117759390D01*
X95820827Y-117759397D01*
X95966498Y-117819735D01*
X95966503Y-117819737D01*
X96121153Y-117850499D01*
X96121156Y-117850500D01*
X96121158Y-117850500D01*
X96278844Y-117850500D01*
X96278845Y-117850499D01*
X96433497Y-117819737D01*
X96579179Y-117759394D01*
X96710289Y-117671789D01*
X96821789Y-117560289D01*
X96909394Y-117429179D01*
X96969737Y-117283497D01*
X97000500Y-117128842D01*
X97000500Y-116971158D01*
X97000500Y-116971155D01*
X97000499Y-116971153D01*
X96969738Y-116816510D01*
X96969737Y-116816503D01*
X96969735Y-116816498D01*
X96909397Y-116670827D01*
X96909390Y-116670814D01*
X96821789Y-116539711D01*
X96821786Y-116539707D01*
X96710292Y-116428213D01*
X96710288Y-116428210D01*
X96579185Y-116340609D01*
X96579172Y-116340602D01*
X96433501Y-116280264D01*
X96433489Y-116280261D01*
X96278845Y-116249500D01*
X96278842Y-116249500D01*
X96121158Y-116249500D01*
X96121155Y-116249500D01*
X95966510Y-116280261D01*
X95966498Y-116280264D01*
X95820827Y-116340602D01*
X95820814Y-116340609D01*
X95689711Y-116428210D01*
X95689707Y-116428213D01*
X95578213Y-116539707D01*
X95578210Y-116539711D01*
X95490609Y-116670814D01*
X95490602Y-116670827D01*
X95430264Y-116816498D01*
X95430261Y-116816510D01*
X95399500Y-116971153D01*
X93552739Y-116971153D01*
X93550635Y-116923408D01*
X93550516Y-116917688D01*
X93550608Y-116876387D01*
X93550607Y-116876385D01*
X93550609Y-116875630D01*
X93548903Y-116855906D01*
X93548388Y-113371153D01*
X99299500Y-113371153D01*
X99299500Y-113528846D01*
X99330261Y-113683489D01*
X99330264Y-113683501D01*
X99390602Y-113829172D01*
X99390609Y-113829185D01*
X99478210Y-113960288D01*
X99478213Y-113960292D01*
X99589707Y-114071786D01*
X99589711Y-114071789D01*
X99720814Y-114159390D01*
X99720827Y-114159397D01*
X99866498Y-114219735D01*
X99866503Y-114219737D01*
X100021153Y-114250499D01*
X100021156Y-114250500D01*
X100021158Y-114250500D01*
X100178844Y-114250500D01*
X100178845Y-114250499D01*
X100333497Y-114219737D01*
X100479179Y-114159394D01*
X100610289Y-114071789D01*
X100721789Y-113960289D01*
X100809394Y-113829179D01*
X100869737Y-113683497D01*
X100900500Y-113528842D01*
X100900500Y-113371158D01*
X100900500Y-113371155D01*
X100900499Y-113371153D01*
X100869738Y-113216510D01*
X100869737Y-113216503D01*
X100869735Y-113216498D01*
X100809397Y-113070827D01*
X100809390Y-113070814D01*
X100721789Y-112939711D01*
X100721786Y-112939707D01*
X100610292Y-112828213D01*
X100610288Y-112828210D01*
X100479185Y-112740609D01*
X100479172Y-112740602D01*
X100333501Y-112680264D01*
X100333489Y-112680261D01*
X100178845Y-112649500D01*
X100178842Y-112649500D01*
X100021158Y-112649500D01*
X100021155Y-112649500D01*
X99866510Y-112680261D01*
X99866498Y-112680264D01*
X99720827Y-112740602D01*
X99720814Y-112740609D01*
X99589711Y-112828210D01*
X99589707Y-112828213D01*
X99478213Y-112939707D01*
X99478210Y-112939711D01*
X99390609Y-113070814D01*
X99390602Y-113070827D01*
X99330264Y-113216498D01*
X99330261Y-113216510D01*
X99299500Y-113371153D01*
X93548388Y-113371153D01*
X93547783Y-109271263D01*
X95215500Y-109271263D01*
X95215500Y-109468736D01*
X95246389Y-109663763D01*
X95273829Y-109748213D01*
X95307409Y-109851561D01*
X95397056Y-110027501D01*
X95397058Y-110027504D01*
X95513115Y-110187246D01*
X95652753Y-110326884D01*
X95802234Y-110435486D01*
X95812499Y-110442944D01*
X95988439Y-110532591D01*
X96113637Y-110573270D01*
X96176236Y-110593610D01*
X96371264Y-110624500D01*
X96371269Y-110624500D01*
X96568736Y-110624500D01*
X96763763Y-110593610D01*
X96951561Y-110532591D01*
X97127501Y-110442944D01*
X97217192Y-110377779D01*
X97287246Y-110326884D01*
X97287248Y-110326881D01*
X97287252Y-110326879D01*
X97426879Y-110187252D01*
X97426881Y-110187248D01*
X97426884Y-110187246D01*
X97477779Y-110117192D01*
X97542944Y-110027501D01*
X97632591Y-109851561D01*
X97693610Y-109663763D01*
X97694111Y-109660602D01*
X97724500Y-109468736D01*
X97724500Y-109271263D01*
X97693610Y-109076236D01*
X97655936Y-108960288D01*
X97632591Y-108888439D01*
X97542944Y-108712499D01*
X97521867Y-108683489D01*
X97426884Y-108552753D01*
X97287246Y-108413115D01*
X97127504Y-108297058D01*
X97127503Y-108297057D01*
X97127501Y-108297056D01*
X96951561Y-108207409D01*
X96951558Y-108207408D01*
X96763763Y-108146389D01*
X96568736Y-108115500D01*
X96568731Y-108115500D01*
X96371269Y-108115500D01*
X96371264Y-108115500D01*
X96176236Y-108146389D01*
X95988441Y-108207408D01*
X95988439Y-108207408D01*
X95988439Y-108207409D01*
X95929792Y-108237291D01*
X95812495Y-108297058D01*
X95652753Y-108413115D01*
X95513115Y-108552753D01*
X95397058Y-108712495D01*
X95307408Y-108888441D01*
X95246389Y-109076236D01*
X95215500Y-109271263D01*
X93547783Y-109271263D01*
X93546941Y-103568135D01*
X95215500Y-103568135D01*
X95215500Y-105171870D01*
X95215501Y-105171876D01*
X95221908Y-105231483D01*
X95272202Y-105366328D01*
X95272206Y-105366335D01*
X95358452Y-105481544D01*
X95358455Y-105481547D01*
X95473664Y-105567793D01*
X95473671Y-105567797D01*
X95608517Y-105618091D01*
X95608516Y-105618091D01*
X95615444Y-105618835D01*
X95668127Y-105624500D01*
X97271872Y-105624499D01*
X97331483Y-105618091D01*
X97466331Y-105567796D01*
X97581546Y-105481546D01*
X97667796Y-105366331D01*
X97718091Y-105231483D01*
X97724500Y-105171873D01*
X97724499Y-103568128D01*
X97718091Y-103508517D01*
X97718091Y-103508516D01*
X97680750Y-103408399D01*
X97667797Y-103373671D01*
X97667793Y-103373664D01*
X97665913Y-103371153D01*
X99099500Y-103371153D01*
X99099500Y-103528846D01*
X99130261Y-103683489D01*
X99130264Y-103683501D01*
X99190602Y-103829172D01*
X99190609Y-103829185D01*
X99278210Y-103960288D01*
X99278213Y-103960292D01*
X99389707Y-104071786D01*
X99389711Y-104071789D01*
X99520814Y-104159390D01*
X99520827Y-104159397D01*
X99666498Y-104219735D01*
X99666503Y-104219737D01*
X99821153Y-104250499D01*
X99821156Y-104250500D01*
X99821158Y-104250500D01*
X99978844Y-104250500D01*
X99978845Y-104250499D01*
X100133497Y-104219737D01*
X100279179Y-104159394D01*
X100410289Y-104071789D01*
X100521789Y-103960289D01*
X100609394Y-103829179D01*
X100669737Y-103683497D01*
X100700500Y-103528842D01*
X100700500Y-103371158D01*
X100700500Y-103371155D01*
X100700499Y-103371153D01*
X100678082Y-103258455D01*
X100669737Y-103216503D01*
X100651387Y-103172202D01*
X100609397Y-103070827D01*
X100609390Y-103070814D01*
X100521789Y-102939711D01*
X100521786Y-102939707D01*
X100410292Y-102828213D01*
X100410288Y-102828210D01*
X100279185Y-102740609D01*
X100279172Y-102740602D01*
X100133501Y-102680264D01*
X100133489Y-102680261D01*
X99978845Y-102649500D01*
X99978842Y-102649500D01*
X99821158Y-102649500D01*
X99821155Y-102649500D01*
X99666510Y-102680261D01*
X99666498Y-102680264D01*
X99520827Y-102740602D01*
X99520814Y-102740609D01*
X99389711Y-102828210D01*
X99389707Y-102828213D01*
X99278213Y-102939707D01*
X99278210Y-102939711D01*
X99190609Y-103070814D01*
X99190602Y-103070827D01*
X99130264Y-103216498D01*
X99130261Y-103216510D01*
X99099500Y-103371153D01*
X97665913Y-103371153D01*
X97581547Y-103258455D01*
X97581544Y-103258452D01*
X97466335Y-103172206D01*
X97466328Y-103172202D01*
X97331482Y-103121908D01*
X97331483Y-103121908D01*
X97271883Y-103115501D01*
X97271881Y-103115500D01*
X97271873Y-103115500D01*
X97271864Y-103115500D01*
X95668129Y-103115500D01*
X95668123Y-103115501D01*
X95608516Y-103121908D01*
X95473671Y-103172202D01*
X95473664Y-103172206D01*
X95358455Y-103258452D01*
X95358452Y-103258455D01*
X95272206Y-103373664D01*
X95272202Y-103373671D01*
X95221908Y-103508517D01*
X95219723Y-103528846D01*
X95215501Y-103568123D01*
X95215500Y-103568135D01*
X93546941Y-103568135D01*
X93546323Y-99378260D01*
X99206607Y-99378260D01*
X99206607Y-99535953D01*
X99237368Y-99690596D01*
X99237371Y-99690608D01*
X99297709Y-99836279D01*
X99297716Y-99836292D01*
X99385317Y-99967395D01*
X99385320Y-99967399D01*
X99496814Y-100078893D01*
X99496818Y-100078896D01*
X99627921Y-100166497D01*
X99627934Y-100166504D01*
X99748741Y-100216543D01*
X99773610Y-100226844D01*
X99928260Y-100257606D01*
X99928263Y-100257607D01*
X99928265Y-100257607D01*
X100085951Y-100257607D01*
X100085952Y-100257606D01*
X100240604Y-100226844D01*
X100386286Y-100166501D01*
X100517396Y-100078896D01*
X100628896Y-99967396D01*
X100716501Y-99836286D01*
X100776844Y-99690604D01*
X100807607Y-99535949D01*
X100807607Y-99378265D01*
X100807607Y-99378262D01*
X100807606Y-99378260D01*
X100776845Y-99223617D01*
X100776844Y-99223610D01*
X100754978Y-99170821D01*
X100716504Y-99077934D01*
X100716497Y-99077921D01*
X100628896Y-98946818D01*
X100628893Y-98946814D01*
X100517399Y-98835320D01*
X100517395Y-98835317D01*
X100386292Y-98747716D01*
X100386279Y-98747709D01*
X100240608Y-98687371D01*
X100240596Y-98687368D01*
X100085952Y-98656607D01*
X100085949Y-98656607D01*
X99928265Y-98656607D01*
X99928262Y-98656607D01*
X99773617Y-98687368D01*
X99773605Y-98687371D01*
X99627934Y-98747709D01*
X99627921Y-98747716D01*
X99496818Y-98835317D01*
X99496814Y-98835320D01*
X99385320Y-98946814D01*
X99385317Y-98946818D01*
X99297716Y-99077921D01*
X99297709Y-99077934D01*
X99237371Y-99223605D01*
X99237368Y-99223617D01*
X99206607Y-99378260D01*
X93546323Y-99378260D01*
X93546115Y-97971153D01*
X95399500Y-97971153D01*
X95399500Y-98128846D01*
X95430261Y-98283489D01*
X95430264Y-98283501D01*
X95490602Y-98429172D01*
X95490609Y-98429185D01*
X95578210Y-98560288D01*
X95578213Y-98560292D01*
X95689707Y-98671786D01*
X95689711Y-98671789D01*
X95820814Y-98759390D01*
X95820827Y-98759397D01*
X95958558Y-98816446D01*
X95966503Y-98819737D01*
X96121153Y-98850499D01*
X96121156Y-98850500D01*
X96121158Y-98850500D01*
X96278844Y-98850500D01*
X96278845Y-98850499D01*
X96433497Y-98819737D01*
X96579179Y-98759394D01*
X96710289Y-98671789D01*
X96821789Y-98560289D01*
X96909394Y-98429179D01*
X96969737Y-98283497D01*
X97000500Y-98128842D01*
X97000500Y-97971158D01*
X97000500Y-97971155D01*
X97000499Y-97971153D01*
X96969738Y-97816510D01*
X96969737Y-97816503D01*
X96969735Y-97816498D01*
X96909397Y-97670827D01*
X96909390Y-97670814D01*
X96821789Y-97539711D01*
X96821786Y-97539707D01*
X96710292Y-97428213D01*
X96710288Y-97428210D01*
X96579185Y-97340609D01*
X96579172Y-97340602D01*
X96433501Y-97280264D01*
X96433489Y-97280261D01*
X96278845Y-97249500D01*
X96278842Y-97249500D01*
X96121158Y-97249500D01*
X96121155Y-97249500D01*
X95966510Y-97280261D01*
X95966498Y-97280264D01*
X95820827Y-97340602D01*
X95820814Y-97340609D01*
X95689711Y-97428210D01*
X95689707Y-97428213D01*
X95578213Y-97539707D01*
X95578210Y-97539711D01*
X95490609Y-97670814D01*
X95490602Y-97670827D01*
X95430264Y-97816498D01*
X95430261Y-97816510D01*
X95399500Y-97971153D01*
X93546115Y-97971153D01*
X93545069Y-90884983D01*
X98344500Y-90884983D01*
X98344500Y-92085001D01*
X98344501Y-92085018D01*
X98355000Y-92187796D01*
X98355001Y-92187799D01*
X98371456Y-92237455D01*
X98410186Y-92354334D01*
X98502288Y-92503656D01*
X98626344Y-92627712D01*
X98775666Y-92719814D01*
X98858152Y-92747147D01*
X98915597Y-92786920D01*
X98942420Y-92851436D01*
X98930105Y-92920212D01*
X98920143Y-92931975D01*
X98919077Y-92945524D01*
X99598554Y-93625000D01*
X99592339Y-93625000D01*
X99490606Y-93652259D01*
X99399394Y-93704920D01*
X99324920Y-93779394D01*
X99272259Y-93870606D01*
X99245000Y-93972339D01*
X99245000Y-93978553D01*
X98565524Y-93299077D01*
X98565523Y-93299077D01*
X98533143Y-93343644D01*
X98440244Y-93525968D01*
X98377009Y-93720582D01*
X98345000Y-93922682D01*
X98345000Y-94127317D01*
X98377009Y-94329417D01*
X98440244Y-94524031D01*
X98533141Y-94706350D01*
X98533147Y-94706359D01*
X98565523Y-94750921D01*
X98565524Y-94750922D01*
X99245000Y-94071446D01*
X99245000Y-94077661D01*
X99272259Y-94179394D01*
X99324920Y-94270606D01*
X99399394Y-94345080D01*
X99490606Y-94397741D01*
X99592339Y-94425000D01*
X99598553Y-94425000D01*
X98919076Y-95104474D01*
X98963650Y-95136859D01*
X99145968Y-95229755D01*
X99340582Y-95292990D01*
X99542683Y-95325000D01*
X99747317Y-95325000D01*
X99949417Y-95292990D01*
X100144031Y-95229755D01*
X100326349Y-95136859D01*
X100370921Y-95104474D01*
X99691447Y-94425000D01*
X99697661Y-94425000D01*
X99799394Y-94397741D01*
X99890606Y-94345080D01*
X99965080Y-94270606D01*
X100017741Y-94179394D01*
X100045000Y-94077661D01*
X100045000Y-94071448D01*
X100724474Y-94750922D01*
X100724474Y-94750921D01*
X100756859Y-94706349D01*
X100849755Y-94524031D01*
X100912990Y-94329417D01*
X100945000Y-94127317D01*
X100945000Y-93922682D01*
X100912990Y-93720582D01*
X100849755Y-93525968D01*
X100756859Y-93343650D01*
X100724474Y-93299077D01*
X100724474Y-93299076D01*
X100045000Y-93978551D01*
X100045000Y-93972339D01*
X100017741Y-93870606D01*
X99965080Y-93779394D01*
X99890606Y-93704920D01*
X99799394Y-93652259D01*
X99697661Y-93625000D01*
X99691446Y-93625000D01*
X100370922Y-92945524D01*
X100369570Y-92928349D01*
X100355299Y-92909842D01*
X100349320Y-92840229D01*
X100381925Y-92778433D01*
X100431845Y-92747148D01*
X100514334Y-92719814D01*
X100663656Y-92627712D01*
X100787712Y-92503656D01*
X100879814Y-92354334D01*
X100934999Y-92187797D01*
X100945500Y-92085009D01*
X100945499Y-90884992D01*
X100934999Y-90782203D01*
X100879814Y-90615666D01*
X100787712Y-90466344D01*
X100663656Y-90342288D01*
X100535044Y-90262960D01*
X100514336Y-90250187D01*
X100514331Y-90250185D01*
X100512862Y-90249698D01*
X100347797Y-90195001D01*
X100347795Y-90195000D01*
X100245010Y-90184500D01*
X99044998Y-90184500D01*
X99044981Y-90184501D01*
X98942203Y-90195000D01*
X98942200Y-90195001D01*
X98775668Y-90250185D01*
X98775663Y-90250187D01*
X98626342Y-90342289D01*
X98502289Y-90466342D01*
X98410187Y-90615663D01*
X98410186Y-90615666D01*
X98355001Y-90782203D01*
X98355001Y-90782204D01*
X98355000Y-90782204D01*
X98344500Y-90884983D01*
X93545069Y-90884983D01*
X93543865Y-82735195D01*
X95380258Y-82735195D01*
X95380258Y-83164804D01*
X95417700Y-83592769D01*
X95452261Y-83788771D01*
X95492300Y-84015842D01*
X95494238Y-84023076D01*
X95603486Y-84430797D01*
X95750418Y-84834492D01*
X95931973Y-85223839D01*
X95931981Y-85223854D01*
X96146774Y-85595885D01*
X96146783Y-85595900D01*
X96393192Y-85947808D01*
X96603817Y-86198821D01*
X96669330Y-86276896D01*
X96973104Y-86580670D01*
X97002445Y-86605290D01*
X97302191Y-86856807D01*
X97302197Y-86856811D01*
X97302198Y-86856812D01*
X97654106Y-87103221D01*
X98002786Y-87304532D01*
X98026145Y-87318018D01*
X98026160Y-87318026D01*
X98415507Y-87499581D01*
X98717261Y-87609410D01*
X98819196Y-87646511D01*
X98819197Y-87646511D01*
X98819202Y-87646513D01*
X98938054Y-87678359D01*
X99234158Y-87757700D01*
X99657233Y-87832300D01*
X100085197Y-87869741D01*
X100085198Y-87869742D01*
X100085199Y-87869742D01*
X100514802Y-87869742D01*
X100514802Y-87869741D01*
X100942767Y-87832300D01*
X101365842Y-87757700D01*
X101780804Y-87646511D01*
X102084584Y-87535944D01*
X102184492Y-87499581D01*
X102184493Y-87499580D01*
X102184497Y-87499579D01*
X102573848Y-87318022D01*
X102945894Y-87103221D01*
X103297802Y-86856812D01*
X103626896Y-86580670D01*
X103930670Y-86276896D01*
X104206812Y-85947802D01*
X104453221Y-85595894D01*
X104668022Y-85223848D01*
X104668026Y-85223838D01*
X104668031Y-85223830D01*
X104763118Y-85019915D01*
X104809290Y-84967475D01*
X104876484Y-84948323D01*
X104943365Y-84968539D01*
X104988699Y-85021704D01*
X104999500Y-85072319D01*
X104999500Y-90195921D01*
X104979815Y-90262960D01*
X104948387Y-90296238D01*
X104887490Y-90340482D01*
X103755484Y-91472488D01*
X103616657Y-91663565D01*
X103526451Y-91840606D01*
X103509433Y-91874003D01*
X103436446Y-92098631D01*
X103399500Y-92331902D01*
X103399500Y-96268097D01*
X103436446Y-96501368D01*
X103509433Y-96725996D01*
X103616657Y-96936434D01*
X103755484Y-97127511D01*
X105163181Y-98535208D01*
X105196666Y-98596531D01*
X105199500Y-98622889D01*
X105199500Y-99046560D01*
X105179815Y-99113599D01*
X105127011Y-99159354D01*
X105057853Y-99169298D01*
X104994297Y-99140273D01*
X104972398Y-99115451D01*
X104921789Y-99039711D01*
X104921786Y-99039707D01*
X104810292Y-98928213D01*
X104810288Y-98928210D01*
X104679185Y-98840609D01*
X104679172Y-98840602D01*
X104533501Y-98780264D01*
X104533489Y-98780261D01*
X104378845Y-98749500D01*
X104378842Y-98749500D01*
X104221158Y-98749500D01*
X104221155Y-98749500D01*
X104066510Y-98780261D01*
X104066498Y-98780264D01*
X103920827Y-98840602D01*
X103920814Y-98840609D01*
X103789711Y-98928210D01*
X103789707Y-98928213D01*
X103678213Y-99039707D01*
X103678210Y-99039711D01*
X103590609Y-99170814D01*
X103590602Y-99170827D01*
X103530264Y-99316498D01*
X103530261Y-99316510D01*
X103499500Y-99471153D01*
X103499500Y-99628846D01*
X103530261Y-99783489D01*
X103530264Y-99783501D01*
X103590602Y-99929172D01*
X103590609Y-99929185D01*
X103678210Y-100060288D01*
X103678213Y-100060292D01*
X103789707Y-100171786D01*
X103789711Y-100171789D01*
X103920814Y-100259390D01*
X103920827Y-100259397D01*
X104066498Y-100319735D01*
X104066503Y-100319737D01*
X104216131Y-100349500D01*
X104221153Y-100350499D01*
X104221156Y-100350500D01*
X104378111Y-100350500D01*
X104445150Y-100370185D01*
X104490905Y-100422989D01*
X104500849Y-100492147D01*
X104471824Y-100555703D01*
X104465792Y-100562181D01*
X104055485Y-100972487D01*
X104055484Y-100972488D01*
X103916659Y-101163562D01*
X103916658Y-101163564D01*
X103847396Y-101299500D01*
X103809433Y-101374003D01*
X103736446Y-101598631D01*
X103699500Y-101831902D01*
X103699500Y-103677110D01*
X103679815Y-103744149D01*
X103663181Y-103764791D01*
X101355484Y-106072488D01*
X101216657Y-106263565D01*
X101154309Y-106385931D01*
X101109434Y-106474003D01*
X101036446Y-106698631D01*
X100999500Y-106931902D01*
X100999500Y-109867536D01*
X100979815Y-109934575D01*
X100927011Y-109980330D01*
X100857853Y-109990274D01*
X100794297Y-109961249D01*
X100772398Y-109936427D01*
X100721137Y-109859711D01*
X100721134Y-109859707D01*
X100609640Y-109748213D01*
X100609636Y-109748210D01*
X100478533Y-109660609D01*
X100478520Y-109660602D01*
X100332849Y-109600264D01*
X100332837Y-109600261D01*
X100178193Y-109569500D01*
X100178190Y-109569500D01*
X100020506Y-109569500D01*
X100020503Y-109569500D01*
X99865858Y-109600261D01*
X99865846Y-109600264D01*
X99720175Y-109660602D01*
X99720162Y-109660609D01*
X99589059Y-109748210D01*
X99589055Y-109748213D01*
X99477561Y-109859707D01*
X99477558Y-109859711D01*
X99389957Y-109990814D01*
X99389950Y-109990827D01*
X99329612Y-110136498D01*
X99329609Y-110136510D01*
X99298848Y-110291153D01*
X99298848Y-110448846D01*
X99329609Y-110603489D01*
X99329612Y-110603501D01*
X99389950Y-110749172D01*
X99389957Y-110749185D01*
X99477558Y-110880288D01*
X99477561Y-110880292D01*
X99589055Y-110991786D01*
X99589059Y-110991789D01*
X99720162Y-111079390D01*
X99720175Y-111079397D01*
X99865846Y-111139735D01*
X99865851Y-111139737D01*
X100020501Y-111170499D01*
X100020504Y-111170500D01*
X100020506Y-111170500D01*
X100178192Y-111170500D01*
X100178193Y-111170499D01*
X100332845Y-111139737D01*
X100478527Y-111079394D01*
X100609637Y-110991789D01*
X100721137Y-110880289D01*
X100772398Y-110803572D01*
X100826010Y-110758767D01*
X100895335Y-110750060D01*
X100958362Y-110780214D01*
X100995082Y-110839657D01*
X100999500Y-110872463D01*
X100999500Y-111668097D01*
X101036446Y-111901368D01*
X101109433Y-112125996D01*
X101216657Y-112336434D01*
X101355483Y-112527510D01*
X104422490Y-115594517D01*
X104613566Y-115733343D01*
X104824008Y-115840568D01*
X104824010Y-115840569D01*
X104936319Y-115877060D01*
X105048631Y-115913552D01*
X105156673Y-115930663D01*
X105281903Y-115950499D01*
X105281908Y-115950499D01*
X105518097Y-115950499D01*
X105631184Y-115932587D01*
X105751368Y-115913552D01*
X105975992Y-115840568D01*
X106186433Y-115733343D01*
X106377510Y-115594517D01*
X106544517Y-115427510D01*
X106683343Y-115236433D01*
X106790568Y-115025992D01*
X106863552Y-114801368D01*
X106884559Y-114668736D01*
X106900499Y-114568097D01*
X106900499Y-114471263D01*
X124615500Y-114471263D01*
X124615500Y-114668736D01*
X124646389Y-114863763D01*
X124699100Y-115025989D01*
X124707409Y-115051561D01*
X124797056Y-115227501D01*
X124797058Y-115227504D01*
X124913115Y-115387246D01*
X125052753Y-115526884D01*
X125145844Y-115594517D01*
X125212499Y-115642944D01*
X125388439Y-115732591D01*
X125513637Y-115773270D01*
X125576236Y-115793610D01*
X125771264Y-115824500D01*
X125771269Y-115824500D01*
X125968736Y-115824500D01*
X126163763Y-115793610D01*
X126351561Y-115732591D01*
X126527501Y-115642944D01*
X126617192Y-115577779D01*
X126687246Y-115526884D01*
X126687248Y-115526881D01*
X126687252Y-115526879D01*
X126826879Y-115387252D01*
X126826881Y-115387248D01*
X126826884Y-115387246D01*
X126877779Y-115317192D01*
X126942944Y-115227501D01*
X127032591Y-115051561D01*
X127093610Y-114863763D01*
X127103492Y-114801369D01*
X127124500Y-114668736D01*
X127124500Y-114471263D01*
X127093610Y-114276236D01*
X127073270Y-114213637D01*
X127032591Y-114088439D01*
X126942944Y-113912499D01*
X126935486Y-113902234D01*
X126826884Y-113752753D01*
X126687246Y-113613115D01*
X126527504Y-113497058D01*
X126527503Y-113497057D01*
X126527501Y-113497056D01*
X126351561Y-113407409D01*
X126351558Y-113407408D01*
X126163763Y-113346389D01*
X125968736Y-113315500D01*
X125968731Y-113315500D01*
X125771269Y-113315500D01*
X125771264Y-113315500D01*
X125576236Y-113346389D01*
X125388441Y-113407408D01*
X125212495Y-113497058D01*
X125052753Y-113613115D01*
X124913115Y-113752753D01*
X124797058Y-113912495D01*
X124707408Y-114088441D01*
X124646389Y-114276236D01*
X124615500Y-114471263D01*
X106900499Y-114471263D01*
X106900499Y-114331902D01*
X106873175Y-114159390D01*
X106863552Y-114098631D01*
X106818602Y-113960288D01*
X106790569Y-113874010D01*
X106790567Y-113874007D01*
X106767730Y-113829185D01*
X106683343Y-113663566D01*
X106544517Y-113472490D01*
X104036819Y-110964792D01*
X104003334Y-110903469D01*
X104000500Y-110877111D01*
X104000500Y-109295134D01*
X104020185Y-109228095D01*
X104072989Y-109182340D01*
X104142147Y-109172396D01*
X104171950Y-109180572D01*
X104266503Y-109219737D01*
X104421153Y-109250499D01*
X104421156Y-109250500D01*
X104421158Y-109250500D01*
X104578844Y-109250500D01*
X104578845Y-109250499D01*
X104733497Y-109219737D01*
X104879179Y-109159394D01*
X105010289Y-109071789D01*
X105121789Y-108960289D01*
X105209394Y-108829179D01*
X105269737Y-108683497D01*
X105300500Y-108528842D01*
X105300500Y-108371158D01*
X105300500Y-108371155D01*
X105300499Y-108371153D01*
X105269738Y-108216510D01*
X105269737Y-108216503D01*
X105265970Y-108207408D01*
X105209397Y-108070827D01*
X105209390Y-108070814D01*
X105121789Y-107939711D01*
X105121786Y-107939707D01*
X105010292Y-107828213D01*
X105010288Y-107828210D01*
X104879185Y-107740609D01*
X104879172Y-107740602D01*
X104733501Y-107680264D01*
X104733489Y-107680261D01*
X104578845Y-107649500D01*
X104578842Y-107649500D01*
X104421158Y-107649500D01*
X104421153Y-107649500D01*
X104324463Y-107668733D01*
X104254871Y-107662506D01*
X104199694Y-107619643D01*
X104176450Y-107553753D01*
X104192518Y-107485756D01*
X104212587Y-107459439D01*
X105300874Y-106371153D01*
X108899500Y-106371153D01*
X108899500Y-106528846D01*
X108930261Y-106683489D01*
X108930264Y-106683501D01*
X108990602Y-106829172D01*
X108990609Y-106829185D01*
X109078210Y-106960288D01*
X109078213Y-106960292D01*
X109189707Y-107071786D01*
X109189711Y-107071789D01*
X109320814Y-107159390D01*
X109320827Y-107159397D01*
X109466498Y-107219735D01*
X109466503Y-107219737D01*
X109621153Y-107250499D01*
X109621156Y-107250500D01*
X109621158Y-107250500D01*
X109778844Y-107250500D01*
X109778845Y-107250499D01*
X109933497Y-107219737D01*
X110079179Y-107159394D01*
X110210289Y-107071789D01*
X110321789Y-106960289D01*
X110409394Y-106829179D01*
X110469737Y-106683497D01*
X110500500Y-106528842D01*
X110500500Y-106371158D01*
X110500500Y-106371155D01*
X110500499Y-106371153D01*
X110469738Y-106216510D01*
X110469737Y-106216503D01*
X110469735Y-106216498D01*
X110409397Y-106070827D01*
X110409390Y-106070814D01*
X110321789Y-105939711D01*
X110321786Y-105939707D01*
X110210292Y-105828213D01*
X110210288Y-105828210D01*
X110079185Y-105740609D01*
X110079172Y-105740602D01*
X109933501Y-105680264D01*
X109933489Y-105680261D01*
X109778845Y-105649500D01*
X109778842Y-105649500D01*
X109621158Y-105649500D01*
X109621155Y-105649500D01*
X109466510Y-105680261D01*
X109466498Y-105680264D01*
X109320827Y-105740602D01*
X109320814Y-105740609D01*
X109189711Y-105828210D01*
X109189707Y-105828213D01*
X109078213Y-105939707D01*
X109078210Y-105939711D01*
X108990609Y-106070814D01*
X108990602Y-106070827D01*
X108930264Y-106216498D01*
X108930261Y-106216510D01*
X108899500Y-106371153D01*
X105300874Y-106371153D01*
X106344518Y-105327510D01*
X106483343Y-105136433D01*
X106590568Y-104925992D01*
X106663553Y-104701368D01*
X106700500Y-104468097D01*
X106700500Y-102871153D01*
X111199500Y-102871153D01*
X111199500Y-103028846D01*
X111230261Y-103183489D01*
X111230264Y-103183501D01*
X111290602Y-103329172D01*
X111290609Y-103329185D01*
X111378210Y-103460288D01*
X111378213Y-103460292D01*
X111489707Y-103571786D01*
X111489711Y-103571789D01*
X111620814Y-103659390D01*
X111620827Y-103659397D01*
X111766498Y-103719735D01*
X111766503Y-103719737D01*
X111889230Y-103744149D01*
X111921153Y-103750499D01*
X111921156Y-103750500D01*
X111921158Y-103750500D01*
X112078844Y-103750500D01*
X112078845Y-103750499D01*
X112233497Y-103719737D01*
X112379179Y-103659394D01*
X112510289Y-103571789D01*
X112621789Y-103460289D01*
X112709394Y-103329179D01*
X112769737Y-103183497D01*
X112800500Y-103028842D01*
X112800500Y-102871158D01*
X112800500Y-102871155D01*
X112800499Y-102871153D01*
X112774531Y-102740606D01*
X112769737Y-102716503D01*
X112769735Y-102716498D01*
X112709397Y-102570827D01*
X112709390Y-102570814D01*
X112621789Y-102439711D01*
X112621786Y-102439707D01*
X112510292Y-102328213D01*
X112510288Y-102328210D01*
X112379185Y-102240609D01*
X112379172Y-102240602D01*
X112233501Y-102180264D01*
X112233489Y-102180261D01*
X112078845Y-102149500D01*
X112078842Y-102149500D01*
X111921158Y-102149500D01*
X111921155Y-102149500D01*
X111766510Y-102180261D01*
X111766498Y-102180264D01*
X111620827Y-102240602D01*
X111620814Y-102240609D01*
X111489711Y-102328210D01*
X111489707Y-102328213D01*
X111378213Y-102439707D01*
X111378210Y-102439711D01*
X111290609Y-102570814D01*
X111290602Y-102570827D01*
X111230264Y-102716498D01*
X111230261Y-102716510D01*
X111199500Y-102871153D01*
X106700500Y-102871153D01*
X106700500Y-102622889D01*
X106720185Y-102555850D01*
X106736819Y-102535208D01*
X107122527Y-102149500D01*
X107844517Y-101427510D01*
X107983343Y-101236434D01*
X108090568Y-101025992D01*
X108150392Y-100841873D01*
X108163553Y-100801368D01*
X108189157Y-100639711D01*
X108200500Y-100568097D01*
X108200500Y-100071153D01*
X111999500Y-100071153D01*
X111999500Y-100228846D01*
X112030261Y-100383489D01*
X112030264Y-100383501D01*
X112090602Y-100529172D01*
X112090609Y-100529185D01*
X112178210Y-100660288D01*
X112178213Y-100660292D01*
X112289707Y-100771786D01*
X112289711Y-100771789D01*
X112420814Y-100859390D01*
X112420827Y-100859397D01*
X112558683Y-100916498D01*
X112566503Y-100919737D01*
X112721153Y-100950499D01*
X112721156Y-100950500D01*
X112721158Y-100950500D01*
X112878844Y-100950500D01*
X112878845Y-100950499D01*
X112889179Y-100948443D01*
X112914287Y-100943450D01*
X112914292Y-100943449D01*
X112999800Y-100926439D01*
X113033497Y-100919737D01*
X113179179Y-100859394D01*
X113310289Y-100771789D01*
X113421789Y-100660289D01*
X113509394Y-100529179D01*
X113569737Y-100383497D01*
X113600500Y-100228842D01*
X113600500Y-100071158D01*
X113600500Y-100071155D01*
X113600499Y-100071153D01*
X113579860Y-99967395D01*
X113569737Y-99916503D01*
X113536513Y-99836292D01*
X113509397Y-99770827D01*
X113509390Y-99770814D01*
X113421789Y-99639711D01*
X113421786Y-99639707D01*
X113310292Y-99528213D01*
X113310288Y-99528210D01*
X113179185Y-99440609D01*
X113179172Y-99440602D01*
X113033501Y-99380264D01*
X113033489Y-99380261D01*
X112878845Y-99349500D01*
X112878842Y-99349500D01*
X112721158Y-99349500D01*
X112721155Y-99349500D01*
X112566510Y-99380261D01*
X112566498Y-99380264D01*
X112420827Y-99440602D01*
X112420814Y-99440609D01*
X112289711Y-99528210D01*
X112289707Y-99528213D01*
X112178213Y-99639707D01*
X112178210Y-99639711D01*
X112090609Y-99770814D01*
X112090602Y-99770827D01*
X112030264Y-99916498D01*
X112030261Y-99916510D01*
X111999500Y-100071153D01*
X108200500Y-100071153D01*
X108200500Y-99071302D01*
X124616000Y-99071302D01*
X124616000Y-99268697D01*
X124646876Y-99463646D01*
X124707873Y-99651373D01*
X124797483Y-99827239D01*
X124823457Y-99862988D01*
X124823457Y-99862989D01*
X125387037Y-99299409D01*
X125404075Y-99362993D01*
X125469901Y-99477007D01*
X125562993Y-99570099D01*
X125677007Y-99635925D01*
X125740590Y-99652962D01*
X125177009Y-100216541D01*
X125177010Y-100216542D01*
X125214713Y-100243935D01*
X125257379Y-100299265D01*
X125263358Y-100368878D01*
X125230752Y-100430673D01*
X125210719Y-100447355D01*
X125089711Y-100528210D01*
X125089707Y-100528213D01*
X124978213Y-100639707D01*
X124978210Y-100639711D01*
X124890609Y-100770814D01*
X124890602Y-100770827D01*
X124830264Y-100916498D01*
X124830261Y-100916510D01*
X124799500Y-101071153D01*
X124799500Y-101228846D01*
X124830261Y-101383489D01*
X124830264Y-101383501D01*
X124890602Y-101529172D01*
X124890609Y-101529185D01*
X124978210Y-101660288D01*
X124978213Y-101660292D01*
X125089707Y-101771786D01*
X125089711Y-101771789D01*
X125220814Y-101859390D01*
X125220827Y-101859397D01*
X125366498Y-101919735D01*
X125366503Y-101919737D01*
X125521153Y-101950499D01*
X125521156Y-101950500D01*
X125521158Y-101950500D01*
X125678844Y-101950500D01*
X125678845Y-101950499D01*
X125833497Y-101919737D01*
X125979179Y-101859394D01*
X126110289Y-101771789D01*
X126221789Y-101660289D01*
X126309394Y-101529179D01*
X126369737Y-101383497D01*
X126400500Y-101228842D01*
X126400500Y-101071158D01*
X126400500Y-101071155D01*
X126400499Y-101071153D01*
X126391516Y-101025992D01*
X126369737Y-100916503D01*
X126346080Y-100859390D01*
X126309397Y-100770827D01*
X126309390Y-100770814D01*
X126221789Y-100639711D01*
X126221786Y-100639707D01*
X126164498Y-100582419D01*
X126131013Y-100521096D01*
X126135997Y-100451404D01*
X126177869Y-100395471D01*
X126213861Y-100376807D01*
X126351371Y-100332126D01*
X126527241Y-100242516D01*
X126562988Y-100216543D01*
X126562988Y-100216541D01*
X125999410Y-99652962D01*
X126062993Y-99635925D01*
X126177007Y-99570099D01*
X126270099Y-99477007D01*
X126335925Y-99362993D01*
X126352962Y-99299409D01*
X126916541Y-99862988D01*
X126916543Y-99862988D01*
X126942516Y-99827241D01*
X127032126Y-99651373D01*
X127093123Y-99463646D01*
X127124000Y-99268697D01*
X127124000Y-99071302D01*
X127093123Y-98876353D01*
X127032126Y-98688626D01*
X126942520Y-98512768D01*
X126942512Y-98512755D01*
X126916542Y-98477010D01*
X126916541Y-98477009D01*
X126352962Y-99040589D01*
X126335925Y-98977007D01*
X126270099Y-98862993D01*
X126177007Y-98769901D01*
X126062993Y-98704075D01*
X125999409Y-98687037D01*
X126562989Y-98123457D01*
X126527239Y-98097483D01*
X126351373Y-98007873D01*
X126163646Y-97946876D01*
X125968697Y-97916000D01*
X125771303Y-97916000D01*
X125576353Y-97946876D01*
X125388626Y-98007873D01*
X125212762Y-98097482D01*
X125212760Y-98097483D01*
X125177010Y-98123456D01*
X125177010Y-98123457D01*
X125740591Y-98687037D01*
X125677007Y-98704075D01*
X125562993Y-98769901D01*
X125469901Y-98862993D01*
X125404075Y-98977007D01*
X125387037Y-99040590D01*
X124823457Y-98477010D01*
X124823456Y-98477010D01*
X124797483Y-98512760D01*
X124797482Y-98512762D01*
X124707873Y-98688626D01*
X124646876Y-98876353D01*
X124616000Y-99071302D01*
X108200500Y-99071302D01*
X108200500Y-97831902D01*
X108163553Y-97598631D01*
X108092075Y-97378647D01*
X108091012Y-97374880D01*
X108090568Y-97374008D01*
X108090568Y-97374007D01*
X107983343Y-97163566D01*
X107844517Y-96972490D01*
X106436819Y-95564792D01*
X106422115Y-95537864D01*
X106405523Y-95512046D01*
X106404631Y-95505845D01*
X106403334Y-95503469D01*
X106400500Y-95477111D01*
X106400500Y-95246449D01*
X106420185Y-95179410D01*
X106472989Y-95133655D01*
X106542147Y-95123711D01*
X106580795Y-95135964D01*
X106583386Y-95137284D01*
X106583390Y-95137287D01*
X106666061Y-95179410D01*
X106765776Y-95230218D01*
X106765778Y-95230218D01*
X106765781Y-95230220D01*
X106815729Y-95246449D01*
X106960465Y-95293477D01*
X107061557Y-95309488D01*
X107162648Y-95325500D01*
X107162649Y-95325500D01*
X107367351Y-95325500D01*
X107367352Y-95325500D01*
X107569534Y-95293477D01*
X107764219Y-95230220D01*
X107946610Y-95137287D01*
X108082171Y-95038797D01*
X108112213Y-95016971D01*
X108112215Y-95016968D01*
X108112219Y-95016966D01*
X108256966Y-94872219D01*
X108256968Y-94872215D01*
X108256971Y-94872213D01*
X108343965Y-94752474D01*
X108377287Y-94706610D01*
X108470220Y-94524219D01*
X108533477Y-94329534D01*
X108565500Y-94127352D01*
X108565500Y-93922648D01*
X108557257Y-93870606D01*
X108533477Y-93720465D01*
X108502458Y-93625000D01*
X108470220Y-93525781D01*
X108470218Y-93525778D01*
X108470218Y-93525776D01*
X108423020Y-93433146D01*
X108377287Y-93343390D01*
X108345092Y-93299077D01*
X108256971Y-93177786D01*
X108112219Y-93033034D01*
X108036725Y-92978185D01*
X107994060Y-92922856D01*
X107988081Y-92853243D01*
X108020686Y-92791447D01*
X108047686Y-92771539D01*
X108047285Y-92770884D01*
X108051418Y-92768350D01*
X108051433Y-92768343D01*
X108242510Y-92629517D01*
X108400874Y-92471153D01*
X109199500Y-92471153D01*
X109199500Y-92628846D01*
X109230261Y-92783489D01*
X109230264Y-92783501D01*
X109290602Y-92929172D01*
X109290609Y-92929185D01*
X109378210Y-93060288D01*
X109378213Y-93060292D01*
X109489707Y-93171786D01*
X109489711Y-93171789D01*
X109620814Y-93259390D01*
X109620827Y-93259397D01*
X109766498Y-93319735D01*
X109766503Y-93319737D01*
X109885394Y-93343386D01*
X109921153Y-93350499D01*
X109921156Y-93350500D01*
X109921158Y-93350500D01*
X110078844Y-93350500D01*
X110078845Y-93350499D01*
X110233497Y-93319737D01*
X110379179Y-93259394D01*
X110510289Y-93171789D01*
X110621789Y-93060289D01*
X110709394Y-92929179D01*
X110769737Y-92783497D01*
X110800500Y-92628842D01*
X110800500Y-92471158D01*
X110800500Y-92471155D01*
X110800499Y-92471153D01*
X110782474Y-92380538D01*
X110769737Y-92316503D01*
X110769735Y-92316498D01*
X110709397Y-92170827D01*
X110709390Y-92170814D01*
X110621789Y-92039711D01*
X110621786Y-92039707D01*
X110510292Y-91928213D01*
X110510288Y-91928210D01*
X110424897Y-91871153D01*
X114299500Y-91871153D01*
X114299500Y-92028846D01*
X114330261Y-92183489D01*
X114330264Y-92183501D01*
X114390602Y-92329172D01*
X114390609Y-92329185D01*
X114478210Y-92460288D01*
X114478213Y-92460292D01*
X114589707Y-92571786D01*
X114589711Y-92571789D01*
X114720814Y-92659390D01*
X114720827Y-92659397D01*
X114866498Y-92719735D01*
X114866503Y-92719737D01*
X115021153Y-92750499D01*
X115021156Y-92750500D01*
X115021158Y-92750500D01*
X115178844Y-92750500D01*
X115178845Y-92750499D01*
X115333497Y-92719737D01*
X115479179Y-92659394D01*
X115610289Y-92571789D01*
X115634943Y-92547135D01*
X118407000Y-92547135D01*
X118407000Y-94642870D01*
X118407001Y-94642876D01*
X118413408Y-94702483D01*
X118463702Y-94837328D01*
X118463706Y-94837335D01*
X118549952Y-94952544D01*
X118549955Y-94952547D01*
X118665164Y-95038793D01*
X118665171Y-95038797D01*
X118800017Y-95089091D01*
X118800016Y-95089091D01*
X118806944Y-95089835D01*
X118859627Y-95095500D01*
X120860372Y-95095499D01*
X120919983Y-95089091D01*
X121054831Y-95038796D01*
X121170046Y-94952546D01*
X121256296Y-94837331D01*
X121266690Y-94809460D01*
X121308560Y-94753527D01*
X121374023Y-94729108D01*
X121442297Y-94743958D01*
X121455746Y-94752465D01*
X121638462Y-94885217D01*
X121770599Y-94952544D01*
X121842244Y-94989049D01*
X122059751Y-95059721D01*
X122059752Y-95059721D01*
X122059755Y-95059722D01*
X122285646Y-95095500D01*
X122285647Y-95095500D01*
X122514353Y-95095500D01*
X122514354Y-95095500D01*
X122740245Y-95059722D01*
X122740248Y-95059721D01*
X122740249Y-95059721D01*
X122957755Y-94989049D01*
X122957755Y-94989048D01*
X122957758Y-94989048D01*
X123161538Y-94885217D01*
X123346566Y-94750786D01*
X123508286Y-94589066D01*
X123569684Y-94504558D01*
X123625010Y-94461896D01*
X123694624Y-94455917D01*
X123756419Y-94488522D01*
X123770313Y-94504556D01*
X123831713Y-94589066D01*
X123993433Y-94750786D01*
X124178461Y-94885217D01*
X124310598Y-94952544D01*
X124382243Y-94989049D01*
X124599750Y-95059721D01*
X124599751Y-95059721D01*
X124599754Y-95059722D01*
X124825645Y-95095500D01*
X124825646Y-95095500D01*
X125054352Y-95095500D01*
X125054353Y-95095500D01*
X125280244Y-95059722D01*
X125280247Y-95059721D01*
X125280248Y-95059721D01*
X125497754Y-94989049D01*
X125497754Y-94989048D01*
X125497757Y-94989048D01*
X125701537Y-94885217D01*
X125886565Y-94750786D01*
X126048285Y-94589066D01*
X126182716Y-94404038D01*
X126286547Y-94200258D01*
X126357221Y-93982745D01*
X126392999Y-93756854D01*
X126392999Y-93433146D01*
X126357221Y-93207255D01*
X126357220Y-93207251D01*
X126357220Y-93207250D01*
X126286548Y-92989744D01*
X126255692Y-92929185D01*
X126182716Y-92785962D01*
X126048285Y-92600934D01*
X125886565Y-92439214D01*
X125701537Y-92304783D01*
X125636084Y-92271433D01*
X125497754Y-92200950D01*
X125280247Y-92130278D01*
X125080441Y-92098632D01*
X125054353Y-92094500D01*
X124825645Y-92094500D01*
X124785187Y-92100908D01*
X124599752Y-92130278D01*
X124599749Y-92130278D01*
X124382243Y-92200950D01*
X124178460Y-92304783D01*
X124112549Y-92352671D01*
X123993433Y-92439214D01*
X123993431Y-92439216D01*
X123993430Y-92439216D01*
X123831714Y-92600932D01*
X123770317Y-92685438D01*
X123714986Y-92728103D01*
X123645373Y-92734082D01*
X123583578Y-92701476D01*
X123569681Y-92685437D01*
X123529053Y-92629517D01*
X123508286Y-92600934D01*
X123346566Y-92439214D01*
X123161538Y-92304783D01*
X123096085Y-92271433D01*
X122957755Y-92200950D01*
X122740248Y-92130278D01*
X122540442Y-92098632D01*
X122514354Y-92094500D01*
X122285646Y-92094500D01*
X122245188Y-92100908D01*
X122059753Y-92130278D01*
X122059750Y-92130278D01*
X121842244Y-92200950D01*
X121638461Y-92304783D01*
X121455759Y-92437525D01*
X121389952Y-92461005D01*
X121321898Y-92445180D01*
X121273203Y-92395074D01*
X121266690Y-92380538D01*
X121256296Y-92352669D01*
X121256293Y-92352664D01*
X121170047Y-92237455D01*
X121170044Y-92237452D01*
X121054835Y-92151206D01*
X121054828Y-92151202D01*
X120919982Y-92100908D01*
X120919983Y-92100908D01*
X120860383Y-92094501D01*
X120860381Y-92094500D01*
X120860373Y-92094500D01*
X120860364Y-92094500D01*
X118859629Y-92094500D01*
X118859623Y-92094501D01*
X118800016Y-92100908D01*
X118665171Y-92151202D01*
X118665164Y-92151206D01*
X118549955Y-92237452D01*
X118549952Y-92237455D01*
X118463706Y-92352664D01*
X118463702Y-92352671D01*
X118413408Y-92487517D01*
X118407001Y-92547116D01*
X118407000Y-92547135D01*
X115634943Y-92547135D01*
X115721789Y-92460289D01*
X115809394Y-92329179D01*
X115869737Y-92183497D01*
X115900500Y-92028842D01*
X115900500Y-91871158D01*
X115900500Y-91871155D01*
X115900499Y-91871153D01*
X115882419Y-91780261D01*
X115869737Y-91716503D01*
X115822761Y-91603092D01*
X115809397Y-91570827D01*
X115809390Y-91570814D01*
X115721789Y-91439711D01*
X115721786Y-91439707D01*
X115610292Y-91328213D01*
X115610288Y-91328210D01*
X115479185Y-91240609D01*
X115479172Y-91240602D01*
X115333501Y-91180264D01*
X115333489Y-91180261D01*
X115178845Y-91149500D01*
X115178842Y-91149500D01*
X115021158Y-91149500D01*
X115021155Y-91149500D01*
X114866510Y-91180261D01*
X114866498Y-91180264D01*
X114720827Y-91240602D01*
X114720814Y-91240609D01*
X114589711Y-91328210D01*
X114589707Y-91328213D01*
X114478213Y-91439707D01*
X114478210Y-91439711D01*
X114390609Y-91570814D01*
X114390602Y-91570827D01*
X114330264Y-91716498D01*
X114330261Y-91716510D01*
X114299500Y-91871153D01*
X110424897Y-91871153D01*
X110379185Y-91840609D01*
X110379172Y-91840602D01*
X110233501Y-91780264D01*
X110233489Y-91780261D01*
X110078845Y-91749500D01*
X110078842Y-91749500D01*
X109921158Y-91749500D01*
X109921155Y-91749500D01*
X109766510Y-91780261D01*
X109766498Y-91780264D01*
X109620827Y-91840602D01*
X109620814Y-91840609D01*
X109489711Y-91928210D01*
X109489707Y-91928213D01*
X109378213Y-92039707D01*
X109378210Y-92039711D01*
X109290609Y-92170814D01*
X109290602Y-92170827D01*
X109230264Y-92316498D01*
X109230261Y-92316510D01*
X109199500Y-92471153D01*
X108400874Y-92471153D01*
X108409517Y-92462510D01*
X108548343Y-92271433D01*
X108655568Y-92060992D01*
X108728553Y-91836368D01*
X108737439Y-91780263D01*
X108765500Y-91603097D01*
X108765500Y-91366902D01*
X108728553Y-91133631D01*
X108671649Y-90958500D01*
X108655568Y-90909008D01*
X108655566Y-90909005D01*
X108655566Y-90909003D01*
X108556242Y-90714069D01*
X108556241Y-90714068D01*
X108548343Y-90698566D01*
X108510262Y-90646152D01*
X109789500Y-90646152D01*
X109789500Y-90803845D01*
X109820261Y-90958488D01*
X109820264Y-90958500D01*
X109880602Y-91104171D01*
X109880609Y-91104184D01*
X109968210Y-91235287D01*
X109968213Y-91235291D01*
X110079707Y-91346785D01*
X110079711Y-91346788D01*
X110210814Y-91434389D01*
X110210827Y-91434396D01*
X110356498Y-91494734D01*
X110356503Y-91494736D01*
X110511153Y-91525498D01*
X110511156Y-91525499D01*
X110511158Y-91525499D01*
X110668844Y-91525499D01*
X110668845Y-91525498D01*
X110823497Y-91494736D01*
X110969179Y-91434393D01*
X111100289Y-91346788D01*
X111211789Y-91235288D01*
X111299394Y-91104178D01*
X111359737Y-90958496D01*
X111390500Y-90803841D01*
X111390500Y-90646157D01*
X111390500Y-90646154D01*
X111390499Y-90646152D01*
X111362917Y-90507490D01*
X111359737Y-90491502D01*
X111349316Y-90466344D01*
X111299397Y-90345826D01*
X111299390Y-90345813D01*
X111211789Y-90214710D01*
X111211786Y-90214706D01*
X111100292Y-90103212D01*
X111100288Y-90103209D01*
X110969185Y-90015608D01*
X110969172Y-90015601D01*
X110823501Y-89955263D01*
X110823489Y-89955260D01*
X110668845Y-89924499D01*
X110668842Y-89924499D01*
X110511158Y-89924499D01*
X110511155Y-89924499D01*
X110356510Y-89955260D01*
X110356498Y-89955263D01*
X110210827Y-90015601D01*
X110210814Y-90015608D01*
X110079711Y-90103209D01*
X110079707Y-90103212D01*
X109968213Y-90214706D01*
X109968210Y-90214710D01*
X109880609Y-90345813D01*
X109880602Y-90345826D01*
X109820264Y-90491497D01*
X109820261Y-90491509D01*
X109789500Y-90646152D01*
X108510262Y-90646152D01*
X108409517Y-90507490D01*
X108036819Y-90134792D01*
X108003334Y-90073469D01*
X108000500Y-90047111D01*
X108000500Y-82888336D01*
X108709500Y-82888336D01*
X108709500Y-83191663D01*
X108743457Y-83493048D01*
X108743460Y-83493062D01*
X108810953Y-83788771D01*
X108810957Y-83788783D01*
X108911133Y-84075068D01*
X109042733Y-84348338D01*
X109042735Y-84348341D01*
X109204108Y-84605164D01*
X109393221Y-84842304D01*
X109607696Y-85056779D01*
X109844836Y-85245892D01*
X110101659Y-85407265D01*
X110374935Y-85538868D01*
X110537924Y-85595900D01*
X110661216Y-85639042D01*
X110661228Y-85639046D01*
X110956937Y-85706540D01*
X110956946Y-85706541D01*
X110956951Y-85706542D01*
X111157874Y-85729180D01*
X111258337Y-85740499D01*
X111258340Y-85740500D01*
X111258343Y-85740500D01*
X111561660Y-85740500D01*
X111561661Y-85740499D01*
X111715694Y-85723144D01*
X111863048Y-85706542D01*
X111863051Y-85706541D01*
X111863063Y-85706540D01*
X112158772Y-85639046D01*
X112445065Y-85538868D01*
X112718341Y-85407265D01*
X112975164Y-85245892D01*
X113212304Y-85056779D01*
X113426779Y-84842304D01*
X113615892Y-84605164D01*
X113777265Y-84348341D01*
X113908868Y-84075065D01*
X114009046Y-83788772D01*
X114076540Y-83493063D01*
X114110500Y-83191657D01*
X114110500Y-82888343D01*
X114106940Y-82856755D01*
X114094341Y-82744920D01*
X114093081Y-82733739D01*
X117646897Y-82733739D01*
X117646897Y-83166260D01*
X117684593Y-83597128D01*
X117684593Y-83597132D01*
X117759696Y-84023059D01*
X117759700Y-84023076D01*
X117871637Y-84440835D01*
X117871640Y-84440845D01*
X117871641Y-84440846D01*
X118019570Y-84847276D01*
X118019573Y-84847283D01*
X118019574Y-84847285D01*
X118202353Y-85239258D01*
X118202361Y-85239273D01*
X118299351Y-85407265D01*
X118418615Y-85613836D01*
X118418619Y-85613842D01*
X118418626Y-85613853D01*
X118666695Y-85968132D01*
X118867646Y-86207615D01*
X118944710Y-86299456D01*
X119250544Y-86605290D01*
X119388305Y-86720885D01*
X119581867Y-86883304D01*
X119936146Y-87131373D01*
X119936153Y-87131377D01*
X119936164Y-87131385D01*
X120287215Y-87334064D01*
X120310726Y-87347638D01*
X120310741Y-87347646D01*
X120484951Y-87428881D01*
X120702724Y-87530430D01*
X121109154Y-87678359D01*
X121109160Y-87678360D01*
X121109164Y-87678362D01*
X121222931Y-87708845D01*
X121526931Y-87790302D01*
X121952874Y-87865407D01*
X122383741Y-87903102D01*
X122383742Y-87903103D01*
X122383743Y-87903103D01*
X122816258Y-87903103D01*
X122816258Y-87903102D01*
X123247126Y-87865407D01*
X123673069Y-87790302D01*
X124090846Y-87678359D01*
X124497276Y-87530430D01*
X124889267Y-87347642D01*
X125263836Y-87131385D01*
X125618131Y-86883305D01*
X125949456Y-86605290D01*
X126255290Y-86299456D01*
X126533305Y-85968131D01*
X126781385Y-85613836D01*
X126997642Y-85239267D01*
X127180430Y-84847276D01*
X127328359Y-84440846D01*
X127440302Y-84023069D01*
X127515407Y-83597126D01*
X127553103Y-83166257D01*
X127553103Y-82733743D01*
X127515407Y-82302874D01*
X127513351Y-82291216D01*
X127462872Y-82004935D01*
X127440302Y-81876931D01*
X127334039Y-81480351D01*
X127328362Y-81459164D01*
X127328360Y-81459160D01*
X127328359Y-81459154D01*
X127180430Y-81052724D01*
X127078487Y-80834107D01*
X126997646Y-80660741D01*
X126997638Y-80660726D01*
X126928590Y-80541132D01*
X126781385Y-80286164D01*
X126781377Y-80286153D01*
X126781373Y-80286146D01*
X126533304Y-79931867D01*
X126274220Y-79623104D01*
X126255290Y-79600544D01*
X125949456Y-79294710D01*
X125857615Y-79217646D01*
X125618132Y-79016695D01*
X125263853Y-78768626D01*
X125263842Y-78768619D01*
X125263836Y-78768615D01*
X124940576Y-78581981D01*
X124889273Y-78552361D01*
X124889258Y-78552353D01*
X124497285Y-78369574D01*
X124497283Y-78369573D01*
X124497276Y-78369570D01*
X124090846Y-78221641D01*
X124090845Y-78221640D01*
X124090835Y-78221637D01*
X123673076Y-78109700D01*
X123673079Y-78109700D01*
X123673069Y-78109698D01*
X123673063Y-78109696D01*
X123673059Y-78109696D01*
X123247130Y-78034593D01*
X122816260Y-77996897D01*
X122816257Y-77996897D01*
X122383743Y-77996897D01*
X122383739Y-77996897D01*
X121952871Y-78034593D01*
X121952867Y-78034593D01*
X121526940Y-78109696D01*
X121526923Y-78109700D01*
X121109164Y-78221637D01*
X120965291Y-78274003D01*
X120702724Y-78369570D01*
X120702720Y-78369571D01*
X120702714Y-78369574D01*
X120310741Y-78552353D01*
X120310726Y-78552361D01*
X119936172Y-78768610D01*
X119936146Y-78768626D01*
X119581867Y-79016695D01*
X119250541Y-79294712D01*
X118944712Y-79600541D01*
X118666695Y-79931867D01*
X118418626Y-80286146D01*
X118418610Y-80286172D01*
X118202361Y-80660726D01*
X118202353Y-80660741D01*
X118019574Y-81052714D01*
X118019571Y-81052720D01*
X118019570Y-81052724D01*
X117952245Y-81237696D01*
X117871637Y-81459164D01*
X117759700Y-81876923D01*
X117759696Y-81876940D01*
X117684593Y-82302867D01*
X117684593Y-82302871D01*
X117646897Y-82733739D01*
X114093081Y-82733739D01*
X114082236Y-82637494D01*
X114076540Y-82586937D01*
X114009046Y-82291228D01*
X113908868Y-82004935D01*
X113777265Y-81731659D01*
X113615892Y-81474836D01*
X113426779Y-81237696D01*
X113212304Y-81023221D01*
X112975164Y-80834108D01*
X112797785Y-80722653D01*
X112718338Y-80672733D01*
X112445068Y-80541133D01*
X112158783Y-80440957D01*
X112158771Y-80440953D01*
X111930556Y-80388864D01*
X111863063Y-80373460D01*
X111863060Y-80373459D01*
X111863048Y-80373457D01*
X111561663Y-80339500D01*
X111561657Y-80339500D01*
X111258343Y-80339500D01*
X111258336Y-80339500D01*
X110956951Y-80373457D01*
X110956937Y-80373460D01*
X110661228Y-80440953D01*
X110661216Y-80440957D01*
X110374931Y-80541133D01*
X110101661Y-80672733D01*
X109844837Y-80834107D01*
X109607696Y-81023220D01*
X109393220Y-81237696D01*
X109204107Y-81474837D01*
X109042733Y-81731661D01*
X108911133Y-82004931D01*
X108810957Y-82291216D01*
X108810953Y-82291228D01*
X108743460Y-82586937D01*
X108743457Y-82586951D01*
X108709500Y-82888336D01*
X108000500Y-82888336D01*
X108000500Y-79522889D01*
X108020185Y-79455850D01*
X108036819Y-79435208D01*
X108177317Y-79294710D01*
X108644518Y-78827510D01*
X108644519Y-78827508D01*
X108651579Y-78820448D01*
X108651584Y-78820441D01*
X113069580Y-74402447D01*
X113130903Y-74368962D01*
X113157261Y-74366128D01*
X118109080Y-74366128D01*
X118176119Y-74385813D01*
X118221874Y-74438617D01*
X118231818Y-74507775D01*
X118230697Y-74514320D01*
X118199500Y-74671155D01*
X118199500Y-74828846D01*
X118230261Y-74983489D01*
X118230264Y-74983501D01*
X118290602Y-75129172D01*
X118290609Y-75129185D01*
X118378210Y-75260288D01*
X118378213Y-75260292D01*
X118489707Y-75371786D01*
X118489711Y-75371789D01*
X118620814Y-75459390D01*
X118620827Y-75459397D01*
X118766498Y-75519735D01*
X118766503Y-75519737D01*
X118921153Y-75550499D01*
X118921156Y-75550500D01*
X118921158Y-75550500D01*
X119078844Y-75550500D01*
X119078845Y-75550499D01*
X119233497Y-75519737D01*
X119379179Y-75459394D01*
X119510289Y-75371789D01*
X119621789Y-75260289D01*
X119709394Y-75129179D01*
X119769737Y-74983497D01*
X119800500Y-74828842D01*
X119800500Y-74671158D01*
X119800500Y-74671155D01*
X119769303Y-74514320D01*
X119775530Y-74444728D01*
X119818393Y-74389551D01*
X119884283Y-74366306D01*
X119890920Y-74366128D01*
X120473172Y-74366128D01*
X120540211Y-74385813D01*
X120585966Y-74438617D01*
X120595910Y-74507775D01*
X120566885Y-74571331D01*
X120542063Y-74593230D01*
X120489711Y-74628210D01*
X120489707Y-74628213D01*
X120378213Y-74739707D01*
X120378210Y-74739711D01*
X120290609Y-74870814D01*
X120290602Y-74870827D01*
X120230264Y-75016498D01*
X120230261Y-75016510D01*
X120199500Y-75171153D01*
X120199500Y-75328846D01*
X120230261Y-75483489D01*
X120230264Y-75483501D01*
X120290602Y-75629172D01*
X120290609Y-75629185D01*
X120378210Y-75760288D01*
X120378213Y-75760292D01*
X120489707Y-75871786D01*
X120489711Y-75871789D01*
X120620814Y-75959390D01*
X120620827Y-75959397D01*
X120751460Y-76013506D01*
X120766503Y-76019737D01*
X120921153Y-76050499D01*
X120921156Y-76050500D01*
X120921158Y-76050500D01*
X121078844Y-76050500D01*
X121078845Y-76050499D01*
X121233497Y-76019737D01*
X121379179Y-75959394D01*
X121510289Y-75871789D01*
X121621789Y-75760289D01*
X121709394Y-75629179D01*
X121769737Y-75483497D01*
X121800500Y-75328842D01*
X121800500Y-75171158D01*
X121800500Y-75171155D01*
X121800499Y-75171153D01*
X121775541Y-75045681D01*
X121769737Y-75016503D01*
X121756062Y-74983489D01*
X121709397Y-74870827D01*
X121709393Y-74870820D01*
X121696711Y-74851840D01*
X121675833Y-74785162D01*
X121694317Y-74717782D01*
X121746295Y-74671092D01*
X121815265Y-74659915D01*
X121847261Y-74668385D01*
X121911203Y-74694871D01*
X122026384Y-74717782D01*
X122065853Y-74725633D01*
X122065856Y-74725634D01*
X122065858Y-74725634D01*
X122223544Y-74725634D01*
X122223545Y-74725633D01*
X122378197Y-74694871D01*
X122523879Y-74634528D01*
X122654989Y-74546923D01*
X122766489Y-74435423D01*
X122854094Y-74304313D01*
X122914437Y-74158631D01*
X122945200Y-74003976D01*
X122945200Y-73846292D01*
X122945200Y-73846289D01*
X122945199Y-73846287D01*
X122914438Y-73691644D01*
X122914437Y-73691637D01*
X122914435Y-73691632D01*
X122854097Y-73545961D01*
X122854090Y-73545948D01*
X122766489Y-73414845D01*
X122766486Y-73414841D01*
X122654991Y-73303346D01*
X122638176Y-73292110D01*
X122608988Y-73272608D01*
X122564185Y-73218998D01*
X122555477Y-73149673D01*
X122585631Y-73086645D01*
X122590179Y-73081846D01*
X124885208Y-70786819D01*
X124946531Y-70753334D01*
X124972889Y-70750500D01*
X125854866Y-70750500D01*
X125921905Y-70770185D01*
X125967660Y-70822989D01*
X125977604Y-70892147D01*
X125969427Y-70921950D01*
X125953920Y-70959390D01*
X125930263Y-71016502D01*
X125930261Y-71016510D01*
X125899500Y-71171153D01*
X125899500Y-71328846D01*
X125930261Y-71483489D01*
X125930264Y-71483501D01*
X125990602Y-71629172D01*
X125990609Y-71629185D01*
X126078210Y-71760288D01*
X126078213Y-71760292D01*
X126189707Y-71871786D01*
X126189711Y-71871789D01*
X126320814Y-71959390D01*
X126320827Y-71959397D01*
X126466498Y-72019735D01*
X126466503Y-72019737D01*
X126621153Y-72050499D01*
X126621156Y-72050500D01*
X126621158Y-72050500D01*
X126778844Y-72050500D01*
X126778845Y-72050499D01*
X126933497Y-72019737D01*
X127079179Y-71959394D01*
X127210289Y-71871789D01*
X127321789Y-71760289D01*
X127409394Y-71629179D01*
X127469737Y-71483497D01*
X127500500Y-71328842D01*
X127500500Y-71171158D01*
X127500500Y-71171155D01*
X127500499Y-71171153D01*
X127469738Y-71016510D01*
X127469737Y-71016503D01*
X127420273Y-70897087D01*
X127412805Y-70827619D01*
X127444080Y-70765140D01*
X127504169Y-70729488D01*
X127515437Y-70727163D01*
X127601368Y-70713553D01*
X127825992Y-70640568D01*
X128036433Y-70533343D01*
X128227510Y-70394517D01*
X128394517Y-70227510D01*
X128533343Y-70036433D01*
X128640568Y-69825992D01*
X128713553Y-69601368D01*
X128723177Y-69540606D01*
X128750500Y-69368097D01*
X128750500Y-69131902D01*
X128713553Y-68898631D01*
X128662206Y-68740602D01*
X128640568Y-68674008D01*
X128640566Y-68674005D01*
X128640566Y-68674003D01*
X128533342Y-68463566D01*
X128523849Y-68450500D01*
X128394517Y-68272490D01*
X128227510Y-68105483D01*
X128122477Y-68029172D01*
X128036431Y-67966655D01*
X127989256Y-67942619D01*
X127938459Y-67894645D01*
X127921664Y-67826824D01*
X127944201Y-67760689D01*
X127972665Y-67731816D01*
X127976756Y-67728844D01*
X128122464Y-67622981D01*
X128262981Y-67482464D01*
X128379787Y-67321694D01*
X128470005Y-67144632D01*
X128531413Y-66955636D01*
X128562500Y-66759361D01*
X128562500Y-66560639D01*
X128531413Y-66364364D01*
X128470005Y-66175368D01*
X128470005Y-66175367D01*
X128379953Y-65998632D01*
X128379787Y-65998306D01*
X128262981Y-65837536D01*
X128122464Y-65697019D01*
X127961694Y-65580213D01*
X127961690Y-65580211D01*
X127804669Y-65500204D01*
X127753873Y-65452229D01*
X127737078Y-65384408D01*
X127759616Y-65318273D01*
X127804670Y-65279234D01*
X127961422Y-65199365D01*
X127998716Y-65172269D01*
X127435942Y-64609495D01*
X127496081Y-64593382D01*
X127611920Y-64526503D01*
X127706502Y-64431921D01*
X127773381Y-64316082D01*
X127789495Y-64255943D01*
X128352268Y-64818716D01*
X128379362Y-64781426D01*
X128469542Y-64604438D01*
X128530924Y-64415524D01*
X128530924Y-64415521D01*
X128562000Y-64219322D01*
X128562000Y-64020679D01*
X128530924Y-63824480D01*
X128530924Y-63824477D01*
X128469542Y-63635563D01*
X128379358Y-63458568D01*
X128352268Y-63421284D01*
X127789494Y-63984058D01*
X127773381Y-63923920D01*
X127706502Y-63808081D01*
X127611920Y-63713499D01*
X127496081Y-63646620D01*
X127435942Y-63630505D01*
X127998716Y-63067732D01*
X127998715Y-63067731D01*
X127961432Y-63040642D01*
X127784437Y-62950458D01*
X127595522Y-62889076D01*
X127399321Y-62858001D01*
X127200679Y-62858001D01*
X127004479Y-62889076D01*
X127004476Y-62889076D01*
X126815562Y-62950458D01*
X126638564Y-63040644D01*
X126601283Y-63067730D01*
X126601282Y-63067731D01*
X127164058Y-63630505D01*
X127103919Y-63646620D01*
X126988080Y-63713499D01*
X126893498Y-63808081D01*
X126826619Y-63923920D01*
X126810504Y-63984058D01*
X126247730Y-63421283D01*
X126247729Y-63421284D01*
X126220643Y-63458565D01*
X126130457Y-63635563D01*
X126069075Y-63824477D01*
X126069075Y-63824480D01*
X126038000Y-64020679D01*
X126038000Y-64219322D01*
X126069075Y-64415521D01*
X126069075Y-64415524D01*
X126130457Y-64604438D01*
X126220641Y-64781433D01*
X126247730Y-64818716D01*
X126247731Y-64818717D01*
X126810504Y-64255943D01*
X126826619Y-64316082D01*
X126893498Y-64431921D01*
X126988080Y-64526503D01*
X127103919Y-64593382D01*
X127164057Y-64609495D01*
X126601283Y-65172269D01*
X126601283Y-65172270D01*
X126638567Y-65199359D01*
X126795330Y-65279234D01*
X126846126Y-65327209D01*
X126862921Y-65395029D01*
X126840384Y-65461164D01*
X126795331Y-65500203D01*
X126638307Y-65580211D01*
X126477533Y-65697021D01*
X126337021Y-65837533D01*
X126220213Y-65998305D01*
X126129994Y-66175367D01*
X126129993Y-66175370D01*
X126068587Y-66364362D01*
X126037500Y-66560639D01*
X126037500Y-66759360D01*
X126068587Y-66955637D01*
X126129993Y-67144629D01*
X126129994Y-67144632D01*
X126192978Y-67268243D01*
X126220213Y-67321694D01*
X126337019Y-67482464D01*
X126337021Y-67482466D01*
X126392374Y-67537819D01*
X126425859Y-67599142D01*
X126420875Y-67668834D01*
X126379003Y-67724767D01*
X126313539Y-67749184D01*
X126304693Y-67749500D01*
X124181903Y-67749500D01*
X123948634Y-67786446D01*
X123948631Y-67786447D01*
X123789972Y-67837999D01*
X123724005Y-67859433D01*
X123513565Y-67966657D01*
X123322488Y-68105484D01*
X123322487Y-68105485D01*
X120099164Y-71328809D01*
X120037841Y-71362294D01*
X120011483Y-71365128D01*
X112366275Y-71365128D01*
X112133003Y-71402074D01*
X112014431Y-71440602D01*
X111983968Y-71450500D01*
X111983967Y-71450500D01*
X111908384Y-71475057D01*
X111908378Y-71475059D01*
X111697937Y-71582285D01*
X111506860Y-71721112D01*
X111506859Y-71721113D01*
X107587681Y-75640292D01*
X107526358Y-75673777D01*
X107456666Y-75668793D01*
X107412319Y-75640292D01*
X101143180Y-69371153D01*
X103399500Y-69371153D01*
X103399500Y-69528846D01*
X103430261Y-69683489D01*
X103430264Y-69683501D01*
X103490602Y-69829172D01*
X103490609Y-69829185D01*
X103578210Y-69960288D01*
X103578213Y-69960292D01*
X103689707Y-70071786D01*
X103689711Y-70071789D01*
X103820814Y-70159390D01*
X103820827Y-70159397D01*
X103966498Y-70219735D01*
X103966503Y-70219737D01*
X104121153Y-70250499D01*
X104121156Y-70250500D01*
X104121158Y-70250500D01*
X104278844Y-70250500D01*
X104278845Y-70250499D01*
X104433497Y-70219737D01*
X104550790Y-70171153D01*
X111199500Y-70171153D01*
X111199500Y-70328846D01*
X111230261Y-70483489D01*
X111230264Y-70483501D01*
X111290602Y-70629172D01*
X111290609Y-70629185D01*
X111378210Y-70760288D01*
X111378213Y-70760292D01*
X111489707Y-70871786D01*
X111489711Y-70871789D01*
X111620814Y-70959390D01*
X111620827Y-70959397D01*
X111758693Y-71016502D01*
X111766503Y-71019737D01*
X111921153Y-71050499D01*
X111921156Y-71050500D01*
X111921158Y-71050500D01*
X112078844Y-71050500D01*
X112078845Y-71050499D01*
X112233497Y-71019737D01*
X112379179Y-70959394D01*
X112510289Y-70871789D01*
X112621789Y-70760289D01*
X112709394Y-70629179D01*
X112769737Y-70483497D01*
X112800500Y-70328842D01*
X112800500Y-70171158D01*
X112800500Y-70171155D01*
X112800499Y-70171153D01*
X112780734Y-70071788D01*
X112769737Y-70016503D01*
X112746452Y-69960288D01*
X112709397Y-69870827D01*
X112709390Y-69870814D01*
X112621789Y-69739711D01*
X112621786Y-69739707D01*
X112510292Y-69628213D01*
X112510288Y-69628210D01*
X112379185Y-69540609D01*
X112379172Y-69540602D01*
X112233501Y-69480264D01*
X112233489Y-69480261D01*
X112078845Y-69449500D01*
X112078842Y-69449500D01*
X111921158Y-69449500D01*
X111921155Y-69449500D01*
X111766510Y-69480261D01*
X111766498Y-69480264D01*
X111620827Y-69540602D01*
X111620814Y-69540609D01*
X111489711Y-69628210D01*
X111489707Y-69628213D01*
X111378213Y-69739707D01*
X111378210Y-69739711D01*
X111290609Y-69870814D01*
X111290602Y-69870827D01*
X111230264Y-70016498D01*
X111230261Y-70016510D01*
X111199500Y-70171153D01*
X104550790Y-70171153D01*
X104579179Y-70159394D01*
X104710289Y-70071789D01*
X104821789Y-69960289D01*
X104909394Y-69829179D01*
X104910713Y-69825996D01*
X104923067Y-69796166D01*
X104969737Y-69683497D01*
X105000500Y-69528842D01*
X105000500Y-69371158D01*
X105000500Y-69371155D01*
X105000499Y-69371153D01*
X104969738Y-69216510D01*
X104969737Y-69216503D01*
X104934697Y-69131908D01*
X104909397Y-69070827D01*
X104909390Y-69070814D01*
X104821789Y-68939711D01*
X104821786Y-68939707D01*
X104710292Y-68828213D01*
X104710288Y-68828210D01*
X104579185Y-68740609D01*
X104579172Y-68740602D01*
X104433501Y-68680264D01*
X104433489Y-68680261D01*
X104278845Y-68649500D01*
X104278842Y-68649500D01*
X104121158Y-68649500D01*
X104121155Y-68649500D01*
X103966510Y-68680261D01*
X103966498Y-68680264D01*
X103820827Y-68740602D01*
X103820814Y-68740609D01*
X103689711Y-68828210D01*
X103689707Y-68828213D01*
X103578213Y-68939707D01*
X103578210Y-68939711D01*
X103490609Y-69070814D01*
X103490602Y-69070827D01*
X103430264Y-69216498D01*
X103430261Y-69216510D01*
X103399500Y-69371153D01*
X101143180Y-69371153D01*
X101136819Y-69364792D01*
X101103334Y-69303469D01*
X101100500Y-69277111D01*
X101100500Y-68071153D01*
X110299500Y-68071153D01*
X110299500Y-68228846D01*
X110330261Y-68383489D01*
X110330264Y-68383501D01*
X110390602Y-68529172D01*
X110390609Y-68529185D01*
X110478210Y-68660288D01*
X110478213Y-68660292D01*
X110589707Y-68771786D01*
X110589711Y-68771789D01*
X110720814Y-68859390D01*
X110720827Y-68859397D01*
X110866498Y-68919735D01*
X110866503Y-68919737D01*
X111021153Y-68950499D01*
X111021156Y-68950500D01*
X111021158Y-68950500D01*
X111178844Y-68950500D01*
X111178845Y-68950499D01*
X111333497Y-68919737D01*
X111479179Y-68859394D01*
X111610289Y-68771789D01*
X111721789Y-68660289D01*
X111809394Y-68529179D01*
X111869737Y-68383497D01*
X111900500Y-68228842D01*
X111900500Y-68071158D01*
X111900500Y-68071155D01*
X111900499Y-68071153D01*
X111869738Y-67916510D01*
X111869737Y-67916503D01*
X111832591Y-67826824D01*
X111809397Y-67770827D01*
X111809390Y-67770814D01*
X111721790Y-67639712D01*
X111721784Y-67639705D01*
X111653232Y-67571153D01*
X115399500Y-67571153D01*
X115399500Y-67728846D01*
X115430261Y-67883489D01*
X115430264Y-67883501D01*
X115490602Y-68029172D01*
X115490609Y-68029185D01*
X115578210Y-68160288D01*
X115578213Y-68160292D01*
X115689707Y-68271786D01*
X115689711Y-68271789D01*
X115820814Y-68359390D01*
X115820827Y-68359397D01*
X115966498Y-68419735D01*
X115966503Y-68419737D01*
X116121153Y-68450499D01*
X116121156Y-68450500D01*
X116121158Y-68450500D01*
X116278844Y-68450500D01*
X116278845Y-68450499D01*
X116433497Y-68419737D01*
X116579179Y-68359394D01*
X116710289Y-68271789D01*
X116821789Y-68160289D01*
X116909394Y-68029179D01*
X116969737Y-67883497D01*
X117000500Y-67728842D01*
X117000500Y-67571158D01*
X117000500Y-67571155D01*
X117000499Y-67571153D01*
X116982858Y-67482466D01*
X116969737Y-67416503D01*
X116961995Y-67397812D01*
X116909397Y-67270827D01*
X116909390Y-67270814D01*
X116821789Y-67139711D01*
X116821786Y-67139707D01*
X116710292Y-67028213D01*
X116710288Y-67028210D01*
X116579185Y-66940609D01*
X116579172Y-66940602D01*
X116433501Y-66880264D01*
X116433489Y-66880261D01*
X116278845Y-66849500D01*
X116278842Y-66849500D01*
X116121158Y-66849500D01*
X116121155Y-66849500D01*
X115966510Y-66880261D01*
X115966498Y-66880264D01*
X115820827Y-66940602D01*
X115820814Y-66940609D01*
X115689711Y-67028210D01*
X115689707Y-67028213D01*
X115578213Y-67139707D01*
X115578210Y-67139711D01*
X115490609Y-67270814D01*
X115490602Y-67270827D01*
X115430264Y-67416498D01*
X115430261Y-67416510D01*
X115399500Y-67571153D01*
X111653232Y-67571153D01*
X111610292Y-67528213D01*
X111610288Y-67528210D01*
X111479185Y-67440609D01*
X111479172Y-67440602D01*
X111333501Y-67380264D01*
X111333489Y-67380261D01*
X111178845Y-67349500D01*
X111178842Y-67349500D01*
X111021158Y-67349500D01*
X111021155Y-67349500D01*
X110866510Y-67380261D01*
X110866498Y-67380264D01*
X110720827Y-67440602D01*
X110720814Y-67440609D01*
X110589711Y-67528210D01*
X110589707Y-67528213D01*
X110478213Y-67639707D01*
X110478210Y-67639711D01*
X110390609Y-67770814D01*
X110390602Y-67770827D01*
X110330264Y-67916498D01*
X110330261Y-67916510D01*
X110299500Y-68071153D01*
X101100500Y-68071153D01*
X101100500Y-66231902D01*
X101080290Y-66104304D01*
X101077989Y-66089778D01*
X117699500Y-66089778D01*
X117699500Y-66310221D01*
X117733985Y-66527952D01*
X117802103Y-66737603D01*
X117802104Y-66737606D01*
X117902187Y-66934025D01*
X118031752Y-67112358D01*
X118031756Y-67112363D01*
X118187636Y-67268243D01*
X118187641Y-67268247D01*
X118341817Y-67380261D01*
X118365978Y-67397815D01*
X118494375Y-67463237D01*
X118562393Y-67497895D01*
X118562396Y-67497896D01*
X118655695Y-67528210D01*
X118772049Y-67566015D01*
X118989778Y-67600500D01*
X118989779Y-67600500D01*
X119210221Y-67600500D01*
X119210222Y-67600500D01*
X119427951Y-67566015D01*
X119637606Y-67497895D01*
X119834022Y-67397815D01*
X120012365Y-67268242D01*
X120168242Y-67112365D01*
X120297815Y-66934022D01*
X120397895Y-66737606D01*
X120466015Y-66527951D01*
X120500500Y-66310222D01*
X120500500Y-66089778D01*
X120466015Y-65872049D01*
X120397895Y-65662394D01*
X120397895Y-65662393D01*
X120356020Y-65580211D01*
X120297815Y-65465978D01*
X120246268Y-65395029D01*
X120168247Y-65287641D01*
X120168243Y-65287636D01*
X120012363Y-65131756D01*
X120012358Y-65131752D01*
X119834025Y-65002187D01*
X119834024Y-65002186D01*
X119834022Y-65002185D01*
X119771096Y-64970122D01*
X119637606Y-64902104D01*
X119637603Y-64902103D01*
X119427952Y-64833985D01*
X119319086Y-64816742D01*
X119210222Y-64799500D01*
X118989778Y-64799500D01*
X118917201Y-64810995D01*
X118772047Y-64833985D01*
X118562396Y-64902103D01*
X118562393Y-64902104D01*
X118365974Y-65002187D01*
X118187641Y-65131752D01*
X118187636Y-65131756D01*
X118031756Y-65287636D01*
X118031752Y-65287641D01*
X117902187Y-65465974D01*
X117802104Y-65662393D01*
X117802103Y-65662396D01*
X117733985Y-65872047D01*
X117699500Y-66089778D01*
X101077989Y-66089778D01*
X101063553Y-65998631D01*
X101029689Y-65894412D01*
X100990568Y-65774008D01*
X100990566Y-65774005D01*
X100990566Y-65774003D01*
X100928147Y-65651500D01*
X100928146Y-65651499D01*
X100883343Y-65563566D01*
X100744517Y-65372490D01*
X98577510Y-63205483D01*
X98386434Y-63066657D01*
X98175996Y-62959433D01*
X97951368Y-62886446D01*
X97718097Y-62849500D01*
X97718092Y-62849500D01*
X97481908Y-62849500D01*
X97481903Y-62849500D01*
X97248631Y-62886446D01*
X97024003Y-62959433D01*
X96813565Y-63066657D01*
X96622488Y-63205484D01*
X96455484Y-63372488D01*
X96316657Y-63563565D01*
X96209433Y-63774003D01*
X96136446Y-63998631D01*
X96099500Y-64231902D01*
X96099500Y-64468097D01*
X96136446Y-64701368D01*
X96209433Y-64925996D01*
X96314271Y-65131752D01*
X96316657Y-65136434D01*
X96455264Y-65327209D01*
X96455484Y-65327511D01*
X98063181Y-66935208D01*
X98096666Y-66996531D01*
X98099500Y-67022889D01*
X98099500Y-70068097D01*
X98136446Y-70301368D01*
X98209433Y-70525996D01*
X98311933Y-70727163D01*
X98316657Y-70736434D01*
X98379543Y-70822989D01*
X98455484Y-70927511D01*
X105299523Y-77771550D01*
X105333008Y-77832873D01*
X105328024Y-77902565D01*
X105312160Y-77932116D01*
X105216659Y-78063561D01*
X105146444Y-78201368D01*
X105109433Y-78274003D01*
X105036446Y-78498631D01*
X104999500Y-78731902D01*
X104999500Y-80827680D01*
X104979815Y-80894719D01*
X104927011Y-80940474D01*
X104857853Y-80950418D01*
X104794297Y-80921393D01*
X104763118Y-80880085D01*
X104668026Y-80676161D01*
X104668018Y-80676145D01*
X104654532Y-80652786D01*
X104453221Y-80304106D01*
X104206812Y-79952198D01*
X104206811Y-79952197D01*
X104206807Y-79952191D01*
X103930667Y-79623101D01*
X103626898Y-79319332D01*
X103297808Y-79043192D01*
X102945900Y-78796783D01*
X102945897Y-78796781D01*
X102945894Y-78796779D01*
X102833524Y-78731902D01*
X102573854Y-78581981D01*
X102573839Y-78581973D01*
X102184492Y-78400418D01*
X101780797Y-78253486D01*
X101365849Y-78142302D01*
X101365852Y-78142302D01*
X101365842Y-78142300D01*
X101306111Y-78131767D01*
X100942769Y-78067700D01*
X100514804Y-78030258D01*
X100514801Y-78030258D01*
X100085199Y-78030258D01*
X100085195Y-78030258D01*
X99657230Y-78067700D01*
X99234163Y-78142299D01*
X99234160Y-78142299D01*
X99234158Y-78142300D01*
X99234153Y-78142301D01*
X99234150Y-78142302D01*
X98819202Y-78253486D01*
X98415507Y-78400418D01*
X98026160Y-78581973D01*
X98026145Y-78581981D01*
X97654114Y-78796774D01*
X97654099Y-78796783D01*
X97302191Y-79043192D01*
X96973101Y-79319332D01*
X96669332Y-79623101D01*
X96393192Y-79952191D01*
X96146783Y-80304099D01*
X96146774Y-80304114D01*
X95931981Y-80676145D01*
X95931973Y-80676160D01*
X95750418Y-81065507D01*
X95603486Y-81469202D01*
X95492302Y-81884150D01*
X95492299Y-81884163D01*
X95417700Y-82307230D01*
X95380258Y-82735195D01*
X93543865Y-82735195D01*
X93542730Y-75045675D01*
X96674500Y-75045675D01*
X96674500Y-75254324D01*
X96707137Y-75460389D01*
X96771612Y-75658820D01*
X96823315Y-75760292D01*
X96866330Y-75844714D01*
X96988965Y-76013505D01*
X97136495Y-76161035D01*
X97305286Y-76283670D01*
X97393116Y-76328421D01*
X97491179Y-76378387D01*
X97491181Y-76378387D01*
X97491184Y-76378389D01*
X97597545Y-76412948D01*
X97689610Y-76442862D01*
X97895676Y-76475500D01*
X97895681Y-76475500D01*
X98104324Y-76475500D01*
X98310389Y-76442862D01*
X98508816Y-76378389D01*
X98694714Y-76283670D01*
X98863505Y-76161035D01*
X99011035Y-76013505D01*
X99133670Y-75844714D01*
X99228389Y-75658816D01*
X99292862Y-75460389D01*
X99306895Y-75371789D01*
X99325500Y-75254324D01*
X99325500Y-75045675D01*
X99292862Y-74839610D01*
X99260401Y-74739707D01*
X99228389Y-74641184D01*
X99228387Y-74641181D01*
X99228387Y-74641179D01*
X99133669Y-74455285D01*
X99121559Y-74438617D01*
X99011035Y-74286495D01*
X98863505Y-74138965D01*
X98694714Y-74016330D01*
X98670468Y-74003976D01*
X98508820Y-73921612D01*
X98310389Y-73857137D01*
X98104324Y-73824500D01*
X98104319Y-73824500D01*
X97895681Y-73824500D01*
X97895676Y-73824500D01*
X97689610Y-73857137D01*
X97491179Y-73921612D01*
X97305285Y-74016330D01*
X97136493Y-74138966D01*
X96988966Y-74286493D01*
X96866330Y-74455285D01*
X96771612Y-74641179D01*
X96707137Y-74839610D01*
X96674500Y-75045675D01*
X93542730Y-75045675D01*
X93542291Y-72071153D01*
X94199500Y-72071153D01*
X94199500Y-72228846D01*
X94230261Y-72383489D01*
X94230264Y-72383501D01*
X94290602Y-72529172D01*
X94290609Y-72529185D01*
X94378210Y-72660288D01*
X94378213Y-72660292D01*
X94489707Y-72771786D01*
X94489711Y-72771789D01*
X94620814Y-72859390D01*
X94620827Y-72859397D01*
X94766498Y-72919735D01*
X94766503Y-72919737D01*
X94921153Y-72950499D01*
X94921156Y-72950500D01*
X94921158Y-72950500D01*
X95078844Y-72950500D01*
X95078845Y-72950499D01*
X95233497Y-72919737D01*
X95379179Y-72859394D01*
X95510289Y-72771789D01*
X95621789Y-72660289D01*
X95709394Y-72529179D01*
X95769737Y-72383497D01*
X95800500Y-72228842D01*
X95800500Y-72071158D01*
X95800500Y-72071155D01*
X95800499Y-72071153D01*
X95778269Y-71959397D01*
X95769737Y-71916503D01*
X95751215Y-71871786D01*
X95709397Y-71770827D01*
X95709390Y-71770814D01*
X95621789Y-71639711D01*
X95621786Y-71639707D01*
X95510292Y-71528213D01*
X95510288Y-71528210D01*
X95379185Y-71440609D01*
X95379172Y-71440602D01*
X95233501Y-71380264D01*
X95233489Y-71380261D01*
X95078845Y-71349500D01*
X95078842Y-71349500D01*
X94921158Y-71349500D01*
X94921155Y-71349500D01*
X94766510Y-71380261D01*
X94766498Y-71380264D01*
X94620827Y-71440602D01*
X94620814Y-71440609D01*
X94489711Y-71528210D01*
X94489707Y-71528213D01*
X94378213Y-71639707D01*
X94378210Y-71639711D01*
X94290609Y-71770814D01*
X94290602Y-71770827D01*
X94230264Y-71916498D01*
X94230261Y-71916510D01*
X94199500Y-72071153D01*
X93542291Y-72071153D01*
X93540515Y-60045675D01*
X96674500Y-60045675D01*
X96674500Y-60254324D01*
X96707137Y-60460389D01*
X96771612Y-60658820D01*
X96815606Y-60745162D01*
X96866330Y-60844714D01*
X96988965Y-61013505D01*
X97136495Y-61161035D01*
X97305286Y-61283670D01*
X97393116Y-61328421D01*
X97491179Y-61378387D01*
X97491181Y-61378387D01*
X97491184Y-61378389D01*
X97597545Y-61412948D01*
X97689610Y-61442862D01*
X97895676Y-61475500D01*
X97895681Y-61475500D01*
X98104324Y-61475500D01*
X98310389Y-61442862D01*
X98508816Y-61378389D01*
X98694714Y-61283670D01*
X98863505Y-61161035D01*
X99011035Y-61013505D01*
X99133670Y-60844714D01*
X99228389Y-60658816D01*
X99292862Y-60460389D01*
X99294428Y-60450499D01*
X99325500Y-60254324D01*
X99325500Y-60045675D01*
X99303558Y-59907144D01*
X99292862Y-59839611D01*
X99292861Y-59839607D01*
X99292861Y-59839606D01*
X99281092Y-59803384D01*
X99270619Y-59771153D01*
X104399500Y-59771153D01*
X104399500Y-59928846D01*
X104430261Y-60083489D01*
X104430264Y-60083501D01*
X104490602Y-60229172D01*
X104490609Y-60229185D01*
X104578210Y-60360288D01*
X104578213Y-60360292D01*
X104689707Y-60471786D01*
X104689711Y-60471789D01*
X104820814Y-60559390D01*
X104820827Y-60559397D01*
X104966498Y-60619735D01*
X104966503Y-60619737D01*
X105121153Y-60650499D01*
X105121156Y-60650500D01*
X105121158Y-60650500D01*
X105278844Y-60650500D01*
X105278845Y-60650499D01*
X105433497Y-60619737D01*
X105579179Y-60559394D01*
X105710289Y-60471789D01*
X105723872Y-60458206D01*
X107719500Y-60458206D01*
X107719500Y-60821794D01*
X107730337Y-60931829D01*
X107755137Y-61183630D01*
X107826064Y-61540212D01*
X107826067Y-61540223D01*
X107931614Y-61888165D01*
X108070754Y-62224078D01*
X108070756Y-62224083D01*
X108242140Y-62544720D01*
X108242151Y-62544738D01*
X108444140Y-62847035D01*
X108444150Y-62847049D01*
X108674807Y-63128106D01*
X108931893Y-63385192D01*
X108931898Y-63385196D01*
X108931899Y-63385197D01*
X109212956Y-63615854D01*
X109515268Y-63817853D01*
X109515277Y-63817858D01*
X109515279Y-63817859D01*
X109835916Y-63989243D01*
X109835918Y-63989243D01*
X109835924Y-63989247D01*
X110171836Y-64128386D01*
X110519767Y-64233930D01*
X110519773Y-64233931D01*
X110519776Y-64233932D01*
X110519787Y-64233935D01*
X110876369Y-64304862D01*
X111238206Y-64340500D01*
X111238209Y-64340500D01*
X111601791Y-64340500D01*
X111601794Y-64340500D01*
X111963631Y-64304862D01*
X112033045Y-64291054D01*
X112320212Y-64233935D01*
X112320223Y-64233932D01*
X112320223Y-64233931D01*
X112320233Y-64233930D01*
X112668164Y-64128386D01*
X113004076Y-63989247D01*
X113324732Y-63817853D01*
X113544283Y-63671153D01*
X115899500Y-63671153D01*
X115899500Y-63828846D01*
X115930261Y-63983489D01*
X115930264Y-63983501D01*
X115990602Y-64129172D01*
X115990609Y-64129185D01*
X116078210Y-64260288D01*
X116078213Y-64260292D01*
X116189707Y-64371786D01*
X116189711Y-64371789D01*
X116320814Y-64459390D01*
X116320827Y-64459397D01*
X116466498Y-64519735D01*
X116466503Y-64519737D01*
X116621153Y-64550499D01*
X116621156Y-64550500D01*
X116621158Y-64550500D01*
X116778844Y-64550500D01*
X116778845Y-64550499D01*
X116933497Y-64519737D01*
X117079179Y-64459394D01*
X117210289Y-64371789D01*
X117321789Y-64260289D01*
X117409394Y-64129179D01*
X117409723Y-64128386D01*
X117440898Y-64053121D01*
X117469737Y-63983497D01*
X117500500Y-63828842D01*
X117500500Y-63671158D01*
X117500500Y-63671155D01*
X117500499Y-63671153D01*
X117488733Y-63612001D01*
X117469737Y-63516503D01*
X117445740Y-63458568D01*
X117409397Y-63370827D01*
X117409390Y-63370814D01*
X117321789Y-63239711D01*
X117321786Y-63239707D01*
X117210292Y-63128213D01*
X117210288Y-63128210D01*
X117079185Y-63040609D01*
X117079172Y-63040602D01*
X116933501Y-62980264D01*
X116933489Y-62980261D01*
X116778845Y-62949500D01*
X116778842Y-62949500D01*
X116621158Y-62949500D01*
X116621155Y-62949500D01*
X116466510Y-62980261D01*
X116466498Y-62980264D01*
X116320827Y-63040602D01*
X116320814Y-63040609D01*
X116189711Y-63128210D01*
X116189707Y-63128213D01*
X116078213Y-63239707D01*
X116078210Y-63239711D01*
X115990609Y-63370814D01*
X115990602Y-63370827D01*
X115930264Y-63516498D01*
X115930261Y-63516510D01*
X115899500Y-63671153D01*
X113544283Y-63671153D01*
X113627044Y-63615854D01*
X113908101Y-63385197D01*
X114165197Y-63128101D01*
X114395854Y-62847044D01*
X114513381Y-62671153D01*
X122799500Y-62671153D01*
X122799500Y-62828846D01*
X122830261Y-62983489D01*
X122830264Y-62983501D01*
X122890602Y-63129172D01*
X122890609Y-63129185D01*
X122978210Y-63260288D01*
X122978213Y-63260292D01*
X123089707Y-63371786D01*
X123089711Y-63371789D01*
X123220814Y-63459390D01*
X123220827Y-63459397D01*
X123358683Y-63516498D01*
X123366503Y-63519737D01*
X123521153Y-63550499D01*
X123521156Y-63550500D01*
X123521158Y-63550500D01*
X123678844Y-63550500D01*
X123678845Y-63550499D01*
X123833497Y-63519737D01*
X123979179Y-63459394D01*
X124110289Y-63371789D01*
X124221789Y-63260289D01*
X124309394Y-63129179D01*
X124369737Y-62983497D01*
X124400500Y-62828842D01*
X124400500Y-62671158D01*
X124400500Y-62671155D01*
X124400499Y-62671153D01*
X124375352Y-62544732D01*
X124369737Y-62516503D01*
X124369735Y-62516498D01*
X124309397Y-62370827D01*
X124309390Y-62370814D01*
X124221789Y-62239711D01*
X124221786Y-62239707D01*
X124110292Y-62128213D01*
X124110288Y-62128210D01*
X123979185Y-62040609D01*
X123979172Y-62040602D01*
X123833501Y-61980264D01*
X123833489Y-61980261D01*
X123678845Y-61949500D01*
X123678842Y-61949500D01*
X123521158Y-61949500D01*
X123521155Y-61949500D01*
X123366510Y-61980261D01*
X123366498Y-61980264D01*
X123220827Y-62040602D01*
X123220814Y-62040609D01*
X123089711Y-62128210D01*
X123089707Y-62128213D01*
X122978213Y-62239707D01*
X122978210Y-62239711D01*
X122890609Y-62370814D01*
X122890602Y-62370827D01*
X122830264Y-62516498D01*
X122830261Y-62516510D01*
X122799500Y-62671153D01*
X114513381Y-62671153D01*
X114597853Y-62544732D01*
X114769247Y-62224076D01*
X114908386Y-61888164D01*
X115013930Y-61540233D01*
X115013932Y-61540223D01*
X115013935Y-61540212D01*
X115084862Y-61183630D01*
X115120500Y-60821794D01*
X115120500Y-60458206D01*
X115084862Y-60096369D01*
X115082300Y-60083489D01*
X115013935Y-59739787D01*
X115013933Y-59739782D01*
X115013932Y-59739781D01*
X115013930Y-59739767D01*
X114962781Y-59571153D01*
X116099500Y-59571153D01*
X116099500Y-59728846D01*
X116130261Y-59883489D01*
X116130264Y-59883501D01*
X116190602Y-60029172D01*
X116190609Y-60029185D01*
X116278210Y-60160288D01*
X116278213Y-60160292D01*
X116389707Y-60271786D01*
X116389711Y-60271789D01*
X116520814Y-60359390D01*
X116520827Y-60359397D01*
X116666498Y-60419735D01*
X116666503Y-60419737D01*
X116821153Y-60450499D01*
X116821156Y-60450500D01*
X116821158Y-60450500D01*
X116978844Y-60450500D01*
X116978845Y-60450499D01*
X117133497Y-60419737D01*
X117279179Y-60359394D01*
X117410289Y-60271789D01*
X117521789Y-60160289D01*
X117609394Y-60029179D01*
X117669737Y-59883497D01*
X117700500Y-59728842D01*
X117700500Y-59571158D01*
X117700500Y-59571155D01*
X117700499Y-59571153D01*
X117680543Y-59470827D01*
X117669737Y-59416503D01*
X117637929Y-59339711D01*
X117609397Y-59270827D01*
X117609390Y-59270814D01*
X117521789Y-59139711D01*
X117521786Y-59139707D01*
X117410292Y-59028213D01*
X117410288Y-59028210D01*
X117279185Y-58940609D01*
X117279172Y-58940602D01*
X117133501Y-58880264D01*
X117133489Y-58880261D01*
X116978845Y-58849500D01*
X116978842Y-58849500D01*
X116821158Y-58849500D01*
X116821155Y-58849500D01*
X116666510Y-58880261D01*
X116666498Y-58880264D01*
X116520827Y-58940602D01*
X116520814Y-58940609D01*
X116389711Y-59028210D01*
X116389707Y-59028213D01*
X116278213Y-59139707D01*
X116278210Y-59139711D01*
X116190609Y-59270814D01*
X116190602Y-59270827D01*
X116130264Y-59416498D01*
X116130261Y-59416510D01*
X116099500Y-59571153D01*
X114962781Y-59571153D01*
X114908386Y-59391836D01*
X114769247Y-59055924D01*
X114765813Y-59049500D01*
X114597859Y-58735279D01*
X114597858Y-58735277D01*
X114597853Y-58735268D01*
X114500640Y-58589779D01*
X119099500Y-58589779D01*
X119099500Y-58810223D01*
X119106931Y-58857138D01*
X119133985Y-59027953D01*
X119202103Y-59237604D01*
X119202104Y-59237607D01*
X119243087Y-59318038D01*
X119293255Y-59416498D01*
X119302187Y-59434026D01*
X119431752Y-59612359D01*
X119431756Y-59612364D01*
X119587636Y-59768244D01*
X119587641Y-59768248D01*
X119685858Y-59839606D01*
X119765978Y-59897816D01*
X119876578Y-59954170D01*
X119962393Y-59997896D01*
X119962396Y-59997897D01*
X120058653Y-60029172D01*
X120172049Y-60066016D01*
X120389778Y-60100501D01*
X120389779Y-60100501D01*
X120610221Y-60100501D01*
X120610222Y-60100501D01*
X120827951Y-60066016D01*
X121037606Y-59997896D01*
X121234022Y-59897816D01*
X121412365Y-59768243D01*
X121568242Y-59612366D01*
X121697815Y-59434023D01*
X121797895Y-59237607D01*
X121865890Y-59028336D01*
X122899500Y-59028336D01*
X122899500Y-59331663D01*
X122933457Y-59633048D01*
X122933459Y-59633060D01*
X122933460Y-59633063D01*
X122935314Y-59641184D01*
X123000953Y-59928771D01*
X123000957Y-59928783D01*
X123101133Y-60215068D01*
X123232733Y-60488338D01*
X123232735Y-60488341D01*
X123394108Y-60745164D01*
X123583221Y-60982304D01*
X123797696Y-61196779D01*
X124034836Y-61385892D01*
X124291659Y-61547265D01*
X124564935Y-61678868D01*
X124779951Y-61754105D01*
X124851216Y-61779042D01*
X124851228Y-61779046D01*
X125146937Y-61846540D01*
X125146946Y-61846541D01*
X125146951Y-61846542D01*
X125347874Y-61869180D01*
X125448337Y-61880499D01*
X125448340Y-61880500D01*
X125448343Y-61880500D01*
X125751660Y-61880500D01*
X125751661Y-61880499D01*
X125905694Y-61863144D01*
X126053048Y-61846542D01*
X126053051Y-61846541D01*
X126053063Y-61846540D01*
X126348772Y-61779046D01*
X126635065Y-61678868D01*
X126908341Y-61547265D01*
X127165164Y-61385892D01*
X127402304Y-61196779D01*
X127616779Y-60982304D01*
X127805892Y-60745164D01*
X127967265Y-60488341D01*
X128098868Y-60215065D01*
X128199046Y-59928772D01*
X128266540Y-59633063D01*
X128268407Y-59616498D01*
X128290941Y-59416498D01*
X128300500Y-59331657D01*
X128300500Y-59028343D01*
X128281210Y-58857137D01*
X128266542Y-58726951D01*
X128266541Y-58726946D01*
X128266540Y-58726937D01*
X128199046Y-58431228D01*
X128098868Y-58144935D01*
X127967265Y-57871659D01*
X127805892Y-57614836D01*
X127616779Y-57377696D01*
X127402304Y-57163221D01*
X127165164Y-56974108D01*
X126908341Y-56812735D01*
X126908338Y-56812733D01*
X126635068Y-56681133D01*
X126348783Y-56580957D01*
X126348771Y-56580953D01*
X126120556Y-56528864D01*
X126053063Y-56513460D01*
X126053060Y-56513459D01*
X126053048Y-56513457D01*
X125751663Y-56479500D01*
X125751657Y-56479500D01*
X125448343Y-56479500D01*
X125448336Y-56479500D01*
X125146951Y-56513457D01*
X125146937Y-56513460D01*
X124851228Y-56580953D01*
X124851216Y-56580957D01*
X124564931Y-56681133D01*
X124291661Y-56812733D01*
X124034837Y-56974107D01*
X123797696Y-57163220D01*
X123583220Y-57377696D01*
X123394107Y-57614837D01*
X123232733Y-57871661D01*
X123101133Y-58144931D01*
X123000957Y-58431216D01*
X123000953Y-58431228D01*
X122933460Y-58726937D01*
X122933457Y-58726951D01*
X122899500Y-59028336D01*
X121865890Y-59028336D01*
X121866015Y-59027952D01*
X121900500Y-58810223D01*
X121900500Y-58589779D01*
X121866015Y-58372050D01*
X121797895Y-58162395D01*
X121797895Y-58162394D01*
X121738902Y-58046616D01*
X121697815Y-57965979D01*
X121646103Y-57894803D01*
X121568247Y-57787642D01*
X121568243Y-57787637D01*
X121412363Y-57631757D01*
X121412358Y-57631753D01*
X121234025Y-57502188D01*
X121234024Y-57502187D01*
X121234022Y-57502186D01*
X121155428Y-57462140D01*
X121037606Y-57402105D01*
X121037603Y-57402104D01*
X120827952Y-57333986D01*
X120719086Y-57316743D01*
X120610222Y-57299501D01*
X120389778Y-57299501D01*
X120317201Y-57310996D01*
X120172047Y-57333986D01*
X119962396Y-57402104D01*
X119962393Y-57402105D01*
X119765974Y-57502188D01*
X119587641Y-57631753D01*
X119587636Y-57631757D01*
X119431756Y-57787637D01*
X119431752Y-57787642D01*
X119302187Y-57965975D01*
X119202104Y-58162394D01*
X119202103Y-58162397D01*
X119133985Y-58372048D01*
X119128492Y-58406730D01*
X119099500Y-58589779D01*
X114500640Y-58589779D01*
X114395854Y-58432956D01*
X114165197Y-58151899D01*
X114165196Y-58151898D01*
X114165192Y-58151893D01*
X113908106Y-57894807D01*
X113627049Y-57664150D01*
X113627048Y-57664149D01*
X113627044Y-57664146D01*
X113324732Y-57462147D01*
X113324727Y-57462144D01*
X113324720Y-57462140D01*
X113004083Y-57290756D01*
X113004078Y-57290754D01*
X112668165Y-57151614D01*
X112320223Y-57046067D01*
X112320212Y-57046064D01*
X111963630Y-56975137D01*
X111691111Y-56948296D01*
X111601794Y-56939500D01*
X111238206Y-56939500D01*
X111155679Y-56947628D01*
X110876369Y-56975137D01*
X110519787Y-57046064D01*
X110519776Y-57046067D01*
X110171834Y-57151614D01*
X109835921Y-57290754D01*
X109835916Y-57290756D01*
X109515279Y-57462140D01*
X109515261Y-57462151D01*
X109212964Y-57664140D01*
X109212950Y-57664150D01*
X108931893Y-57894807D01*
X108674807Y-58151893D01*
X108444150Y-58432950D01*
X108444140Y-58432964D01*
X108242151Y-58735261D01*
X108242140Y-58735279D01*
X108070756Y-59055916D01*
X108070754Y-59055921D01*
X107931614Y-59391834D01*
X107826067Y-59739776D01*
X107826064Y-59739787D01*
X107755137Y-60096369D01*
X107729233Y-60359390D01*
X107719500Y-60458206D01*
X105723872Y-60458206D01*
X105762343Y-60419735D01*
X105814598Y-60367481D01*
X105821786Y-60360292D01*
X105821789Y-60360289D01*
X105909394Y-60229179D01*
X105969737Y-60083497D01*
X106000500Y-59928842D01*
X106000500Y-59771158D01*
X106000500Y-59771155D01*
X106000499Y-59771153D01*
X105992741Y-59732152D01*
X105969737Y-59616503D01*
X105950955Y-59571158D01*
X105909397Y-59470827D01*
X105909390Y-59470814D01*
X105821789Y-59339711D01*
X105821786Y-59339707D01*
X105710292Y-59228213D01*
X105710288Y-59228210D01*
X105579185Y-59140609D01*
X105579172Y-59140602D01*
X105433501Y-59080264D01*
X105433489Y-59080261D01*
X105278845Y-59049500D01*
X105278842Y-59049500D01*
X105121158Y-59049500D01*
X105121155Y-59049500D01*
X104966510Y-59080261D01*
X104966498Y-59080264D01*
X104820827Y-59140602D01*
X104820814Y-59140609D01*
X104689711Y-59228210D01*
X104689707Y-59228213D01*
X104578213Y-59339707D01*
X104578210Y-59339711D01*
X104490609Y-59470814D01*
X104490602Y-59470827D01*
X104430264Y-59616498D01*
X104430261Y-59616510D01*
X104399500Y-59771153D01*
X99270619Y-59771153D01*
X99228387Y-59641179D01*
X99141585Y-59470821D01*
X99133670Y-59455286D01*
X99011035Y-59286495D01*
X98863505Y-59138965D01*
X98694714Y-59016330D01*
X98673384Y-59005462D01*
X98508820Y-58921612D01*
X98310389Y-58857137D01*
X98104324Y-58824500D01*
X98104319Y-58824500D01*
X97895681Y-58824500D01*
X97895676Y-58824500D01*
X97689610Y-58857137D01*
X97491179Y-58921612D01*
X97305285Y-59016330D01*
X97136493Y-59138966D01*
X96988966Y-59286493D01*
X96866330Y-59455285D01*
X96771612Y-59641179D01*
X96707137Y-59839610D01*
X96674500Y-60045675D01*
X93540515Y-60045675D01*
X93540500Y-59942853D01*
X93540632Y-59937127D01*
X93541019Y-59928772D01*
X93558405Y-59552697D01*
X93559462Y-59541302D01*
X93561670Y-59525474D01*
X93612236Y-59162982D01*
X93614336Y-59151746D01*
X93701795Y-58779897D01*
X93704918Y-58768917D01*
X93826318Y-58406710D01*
X93830449Y-58396050D01*
X93984739Y-58046616D01*
X93989837Y-58036376D01*
X94175711Y-57702668D01*
X94181737Y-57692936D01*
X94397619Y-57377788D01*
X94404502Y-57368675D01*
X94648540Y-57074790D01*
X94656234Y-57066350D01*
X94926350Y-56796234D01*
X94934790Y-56788540D01*
X95228675Y-56544502D01*
X95237788Y-56537619D01*
X95552942Y-56321733D01*
X95562668Y-56315711D01*
X95896376Y-56129837D01*
X95906616Y-56124739D01*
X96256050Y-55970449D01*
X96266710Y-55966318D01*
X96628917Y-55844918D01*
X96639897Y-55841795D01*
X97011746Y-55754336D01*
X97022982Y-55752236D01*
X97401312Y-55699461D01*
X97412697Y-55698405D01*
X97797145Y-55680632D01*
X97802872Y-55680500D01*
X97844170Y-55680500D01*
X124745830Y-55680500D01*
X124787128Y-55680500D01*
X124792855Y-55680632D01*
G37*
%TD.AperFunction*%
%TD*%
%TA.AperFunction,Conductor*%
%TO.N,GND*%
G36*
X104748335Y-122413745D02*
G01*
X104786244Y-122438105D01*
X104786778Y-122437436D01*
X104802329Y-122449837D01*
X104922155Y-122545394D01*
X104922156Y-122545394D01*
X104922157Y-122545395D01*
X105071886Y-122617501D01*
X105233900Y-122654480D01*
X105233905Y-122654480D01*
X105233907Y-122654481D01*
X105233909Y-122654481D01*
X105375605Y-122654481D01*
X105375613Y-122654480D01*
X108944169Y-122654480D01*
X108961622Y-122654481D01*
X108961686Y-122654500D01*
X109012998Y-122654500D01*
X109012998Y-122654501D01*
X109096095Y-122654502D01*
X109258121Y-122617520D01*
X109407856Y-122545412D01*
X109512706Y-122461797D01*
X109577388Y-122435391D01*
X109646084Y-122448146D01*
X109667327Y-122461798D01*
X109714224Y-122499196D01*
X109772155Y-122545394D01*
X109772156Y-122545394D01*
X109772157Y-122545395D01*
X109921886Y-122617501D01*
X110083900Y-122654480D01*
X110083905Y-122654480D01*
X110083907Y-122654481D01*
X110083909Y-122654481D01*
X110225605Y-122654481D01*
X110225613Y-122654480D01*
X111364169Y-122654480D01*
X111381622Y-122654481D01*
X111381686Y-122654500D01*
X111432998Y-122654500D01*
X111432998Y-122654501D01*
X111516095Y-122654502D01*
X111678121Y-122617520D01*
X111827856Y-122545412D01*
X111947706Y-122449835D01*
X112012388Y-122423429D01*
X112081084Y-122436184D01*
X112102327Y-122449836D01*
X112152664Y-122489977D01*
X112222155Y-122545394D01*
X112222156Y-122545394D01*
X112222157Y-122545395D01*
X112371886Y-122617501D01*
X112533900Y-122654480D01*
X112533905Y-122654480D01*
X112533907Y-122654481D01*
X112533909Y-122654481D01*
X112675605Y-122654481D01*
X112675613Y-122654480D01*
X116224169Y-122654480D01*
X116241622Y-122654481D01*
X116241686Y-122654500D01*
X116292998Y-122654500D01*
X116292998Y-122654501D01*
X116376095Y-122654502D01*
X116538121Y-122617520D01*
X116687856Y-122545412D01*
X116797705Y-122457810D01*
X116862389Y-122431404D01*
X116931084Y-122444159D01*
X116952327Y-122457811D01*
X117015249Y-122507988D01*
X117062155Y-122545394D01*
X117062156Y-122545394D01*
X117062157Y-122545395D01*
X117211886Y-122617501D01*
X117373900Y-122654480D01*
X117373905Y-122654480D01*
X117373907Y-122654481D01*
X117407173Y-122654481D01*
X118671615Y-122654481D01*
X118671679Y-122654500D01*
X118722998Y-122654500D01*
X118722998Y-122654501D01*
X118806095Y-122654502D01*
X118968121Y-122617520D01*
X119117856Y-122545412D01*
X119227705Y-122457810D01*
X119292389Y-122431404D01*
X119361084Y-122444159D01*
X119382327Y-122457811D01*
X119445249Y-122507988D01*
X119492155Y-122545394D01*
X119492156Y-122545394D01*
X119492157Y-122545395D01*
X119641886Y-122617501D01*
X119803900Y-122654480D01*
X119803905Y-122654480D01*
X119803907Y-122654481D01*
X119803909Y-122654481D01*
X119886493Y-122654481D01*
X123568730Y-122657455D01*
X123568829Y-122657491D01*
X123612998Y-122657491D01*
X123613103Y-122657491D01*
X123662625Y-122657531D01*
X123662626Y-122657530D01*
X123674700Y-122657540D01*
X123675191Y-122657491D01*
X123696094Y-122657492D01*
X123858118Y-122620511D01*
X124007851Y-122548404D01*
X124007853Y-122548403D01*
X124116449Y-122461799D01*
X124126075Y-122454122D01*
X124190761Y-122427714D01*
X124259456Y-122440469D01*
X124280700Y-122454121D01*
X124395153Y-122545395D01*
X124395156Y-122545396D01*
X124395157Y-122545397D01*
X124544879Y-122617499D01*
X124544881Y-122617499D01*
X124544884Y-122617501D01*
X124706906Y-122654482D01*
X124787571Y-122654482D01*
X124793305Y-122654614D01*
X125176903Y-122672375D01*
X125188322Y-122673434D01*
X125290424Y-122687697D01*
X125566251Y-122726228D01*
X125577520Y-122728338D01*
X125948948Y-122815827D01*
X125959953Y-122818962D01*
X126321721Y-122940400D01*
X126332409Y-122944548D01*
X126681401Y-123098889D01*
X126691650Y-123104002D01*
X127024880Y-123289926D01*
X127034619Y-123295966D01*
X127349255Y-123511892D01*
X127358387Y-123518802D01*
X127565986Y-123691536D01*
X127651718Y-123762870D01*
X127660186Y-123770606D01*
X127929703Y-124040726D01*
X127937420Y-124049211D01*
X128180827Y-124343082D01*
X128187727Y-124352244D01*
X128402941Y-124667349D01*
X128408962Y-124677105D01*
X128471323Y-124789464D01*
X128594135Y-125010741D01*
X128599232Y-125021017D01*
X128752792Y-125370352D01*
X128756917Y-125381053D01*
X128877539Y-125743070D01*
X128880657Y-125754108D01*
X128967310Y-126125713D01*
X128969396Y-126136992D01*
X129021344Y-126515032D01*
X129022378Y-126526455D01*
X129039361Y-126911908D01*
X129039438Y-126914102D01*
X129039485Y-126915901D01*
X129039392Y-126957572D01*
X129040676Y-126961125D01*
X129041034Y-126974705D01*
X129040852Y-126975387D01*
X129041077Y-126977985D01*
X129039554Y-138696010D01*
X129019861Y-138763047D01*
X128967051Y-138808795D01*
X128897891Y-138818730D01*
X128859259Y-138806479D01*
X128701582Y-138726137D01*
X128528600Y-138669931D01*
X128348965Y-138641480D01*
X128348960Y-138641480D01*
X126977080Y-138641480D01*
X126977075Y-138641480D01*
X126797439Y-138669931D01*
X126624457Y-138726137D01*
X126462402Y-138808710D01*
X126315268Y-138915608D01*
X126315263Y-138915612D01*
X126186652Y-139044223D01*
X126186648Y-139044228D01*
X126079750Y-139191362D01*
X125997177Y-139353417D01*
X125940971Y-139526399D01*
X125912520Y-139706034D01*
X125912520Y-139887925D01*
X125940971Y-140067560D01*
X125997177Y-140240542D01*
X126079750Y-140402597D01*
X126186648Y-140549731D01*
X126186652Y-140549736D01*
X126315263Y-140678347D01*
X126315268Y-140678351D01*
X126443606Y-140771593D01*
X126462406Y-140785252D01*
X126565665Y-140837865D01*
X126624457Y-140867822D01*
X126624459Y-140867822D01*
X126624462Y-140867824D01*
X126717182Y-140897950D01*
X126797439Y-140924028D01*
X126977075Y-140952480D01*
X126977080Y-140952480D01*
X128348965Y-140952480D01*
X128528600Y-140924028D01*
X128701578Y-140867824D01*
X128858973Y-140787626D01*
X128927642Y-140774730D01*
X128992382Y-140801006D01*
X129032640Y-140858112D01*
X129039268Y-140898127D01*
X129038708Y-145205581D01*
X129019015Y-145272618D01*
X128966205Y-145318366D01*
X128897045Y-145328301D01*
X128858413Y-145316050D01*
X128848802Y-145311153D01*
X128787866Y-145280104D01*
X128701582Y-145236139D01*
X128528600Y-145179933D01*
X128348965Y-145151482D01*
X128348960Y-145151482D01*
X126977080Y-145151482D01*
X126977075Y-145151482D01*
X126802160Y-145179186D01*
X126732867Y-145170231D01*
X126679415Y-145125235D01*
X126658775Y-145058484D01*
X126668201Y-145009261D01*
X126706868Y-144915908D01*
X126727757Y-144865478D01*
X126758520Y-144710823D01*
X126758520Y-144553139D01*
X126758520Y-144553135D01*
X126758519Y-144553134D01*
X126736467Y-144442273D01*
X126727757Y-144398484D01*
X126691589Y-144311166D01*
X126667417Y-144252808D01*
X126667410Y-144252795D01*
X126579809Y-144121692D01*
X126579806Y-144121688D01*
X126468312Y-144010194D01*
X126468308Y-144010191D01*
X126337205Y-143922590D01*
X126337192Y-143922583D01*
X126191521Y-143862245D01*
X126191509Y-143862242D01*
X126036865Y-143831481D01*
X126036862Y-143831481D01*
X125879178Y-143831481D01*
X125879175Y-143831481D01*
X125724530Y-143862242D01*
X125724518Y-143862245D01*
X125578847Y-143922583D01*
X125578834Y-143922590D01*
X125447731Y-144010191D01*
X125447727Y-144010194D01*
X125336233Y-144121688D01*
X125336230Y-144121692D01*
X125248629Y-144252795D01*
X125248622Y-144252808D01*
X125188284Y-144398479D01*
X125188281Y-144398491D01*
X125157520Y-144553134D01*
X125157520Y-144710827D01*
X125188281Y-144865470D01*
X125188284Y-144865482D01*
X125248622Y-145011153D01*
X125248629Y-145011166D01*
X125336230Y-145142269D01*
X125336233Y-145142273D01*
X125447727Y-145253767D01*
X125447731Y-145253770D01*
X125578834Y-145341371D01*
X125578847Y-145341378D01*
X125724518Y-145401716D01*
X125724523Y-145401718D01*
X125844666Y-145425616D01*
X125879173Y-145432480D01*
X125879176Y-145432481D01*
X126031741Y-145432481D01*
X126098780Y-145452166D01*
X126144535Y-145504970D01*
X126154479Y-145574128D01*
X126132060Y-145629366D01*
X126079747Y-145701368D01*
X125997177Y-145863419D01*
X125940971Y-146036401D01*
X125912520Y-146216036D01*
X125912520Y-146397927D01*
X125940971Y-146577562D01*
X125997177Y-146750544D01*
X126079750Y-146912599D01*
X126186648Y-147059733D01*
X126186652Y-147059738D01*
X126315263Y-147188349D01*
X126315268Y-147188353D01*
X126443606Y-147281595D01*
X126462406Y-147295254D01*
X126556391Y-147343142D01*
X126624457Y-147377824D01*
X126624459Y-147377824D01*
X126624462Y-147377826D01*
X126717182Y-147407952D01*
X126797439Y-147434030D01*
X126977075Y-147462482D01*
X126977080Y-147462482D01*
X128348965Y-147462482D01*
X128528600Y-147434030D01*
X128701578Y-147377826D01*
X128858127Y-147298059D01*
X128926795Y-147285163D01*
X128991536Y-147311439D01*
X129031794Y-147368545D01*
X129038422Y-147408560D01*
X129037569Y-153977497D01*
X129017876Y-154044534D01*
X128965066Y-154090282D01*
X128913569Y-154101481D01*
X110192445Y-154101481D01*
X110125406Y-154081796D01*
X110079651Y-154028992D01*
X110069707Y-153959834D01*
X110098732Y-153896278D01*
X110119555Y-153877166D01*
X110175530Y-153836498D01*
X112258894Y-151753134D01*
X123157520Y-151753134D01*
X123157520Y-151910827D01*
X123188281Y-152065470D01*
X123188284Y-152065482D01*
X123248622Y-152211153D01*
X123248629Y-152211166D01*
X123336230Y-152342269D01*
X123336233Y-152342273D01*
X123447727Y-152453767D01*
X123447731Y-152453770D01*
X123578834Y-152541371D01*
X123578847Y-152541378D01*
X123691699Y-152588122D01*
X123724523Y-152601718D01*
X123879173Y-152632480D01*
X123879176Y-152632481D01*
X123879178Y-152632481D01*
X124036864Y-152632481D01*
X124036865Y-152632480D01*
X124191517Y-152601718D01*
X124337199Y-152541375D01*
X124468309Y-152453770D01*
X124579809Y-152342270D01*
X124667414Y-152211160D01*
X124727757Y-152065478D01*
X124758520Y-151910823D01*
X124758520Y-151753139D01*
X124758520Y-151753136D01*
X124758519Y-151753134D01*
X124727758Y-151598491D01*
X124727757Y-151598484D01*
X124693295Y-151515285D01*
X124667417Y-151452808D01*
X124667410Y-151452795D01*
X124579809Y-151321692D01*
X124579806Y-151321688D01*
X124468312Y-151210194D01*
X124468308Y-151210191D01*
X124337205Y-151122590D01*
X124337192Y-151122583D01*
X124191521Y-151062245D01*
X124191509Y-151062242D01*
X124036865Y-151031481D01*
X124036862Y-151031481D01*
X123879178Y-151031481D01*
X123879175Y-151031481D01*
X123724530Y-151062242D01*
X123724518Y-151062245D01*
X123578847Y-151122583D01*
X123578834Y-151122590D01*
X123447731Y-151210191D01*
X123447727Y-151210194D01*
X123336233Y-151321688D01*
X123336230Y-151321692D01*
X123248629Y-151452795D01*
X123248622Y-151452808D01*
X123188284Y-151598479D01*
X123188281Y-151598491D01*
X123157520Y-151753134D01*
X112258894Y-151753134D01*
X115258894Y-148753134D01*
X117657520Y-148753134D01*
X117657520Y-148910827D01*
X117688281Y-149065470D01*
X117688284Y-149065482D01*
X117748622Y-149211153D01*
X117748629Y-149211166D01*
X117836230Y-149342269D01*
X117836233Y-149342273D01*
X117947727Y-149453767D01*
X117947731Y-149453770D01*
X118078834Y-149541371D01*
X118078847Y-149541378D01*
X118164249Y-149576752D01*
X118224523Y-149601718D01*
X118379173Y-149632480D01*
X118379176Y-149632481D01*
X118379178Y-149632481D01*
X118536864Y-149632481D01*
X118536865Y-149632480D01*
X118691517Y-149601718D01*
X118837199Y-149541375D01*
X118968309Y-149453770D01*
X119079809Y-149342270D01*
X119167414Y-149211160D01*
X119227757Y-149065478D01*
X119258520Y-148910823D01*
X119258520Y-148753139D01*
X119258520Y-148753136D01*
X119258519Y-148753134D01*
X119227758Y-148598491D01*
X119227757Y-148598484D01*
X119186138Y-148498005D01*
X119167417Y-148452808D01*
X119167410Y-148452795D01*
X119079809Y-148321692D01*
X119079806Y-148321688D01*
X118968312Y-148210194D01*
X118968308Y-148210191D01*
X118837205Y-148122590D01*
X118837192Y-148122583D01*
X118691521Y-148062245D01*
X118691509Y-148062242D01*
X118536865Y-148031481D01*
X118536862Y-148031481D01*
X118379178Y-148031481D01*
X118379175Y-148031481D01*
X118224530Y-148062242D01*
X118224518Y-148062245D01*
X118078847Y-148122583D01*
X118078834Y-148122590D01*
X117947731Y-148210191D01*
X117947727Y-148210194D01*
X117836233Y-148321688D01*
X117836230Y-148321692D01*
X117748629Y-148452795D01*
X117748622Y-148452808D01*
X117688284Y-148598479D01*
X117688281Y-148598491D01*
X117657520Y-148753134D01*
X115258894Y-148753134D01*
X115602537Y-148409491D01*
X115741363Y-148218415D01*
X115848588Y-148007973D01*
X115876791Y-147921173D01*
X115921573Y-147783349D01*
X115948374Y-147614133D01*
X115958520Y-147550078D01*
X115958520Y-145573134D01*
X120157520Y-145573134D01*
X120157520Y-145730827D01*
X120188281Y-145885470D01*
X120188284Y-145885482D01*
X120248622Y-146031153D01*
X120248629Y-146031166D01*
X120336230Y-146162269D01*
X120336233Y-146162273D01*
X120447727Y-146273767D01*
X120447731Y-146273770D01*
X120578834Y-146361371D01*
X120578847Y-146361378D01*
X120724518Y-146421716D01*
X120724523Y-146421718D01*
X120841222Y-146444931D01*
X120879173Y-146452480D01*
X120879176Y-146452481D01*
X120879178Y-146452481D01*
X121036864Y-146452481D01*
X121036865Y-146452480D01*
X121191517Y-146421718D01*
X121337199Y-146361375D01*
X121468309Y-146273770D01*
X121579809Y-146162270D01*
X121667414Y-146031160D01*
X121727757Y-145885478D01*
X121758520Y-145730823D01*
X121758520Y-145573139D01*
X121758520Y-145573136D01*
X121758519Y-145573134D01*
X121727757Y-145418484D01*
X121695816Y-145341371D01*
X121667417Y-145272808D01*
X121667410Y-145272795D01*
X121579809Y-145141692D01*
X121579806Y-145141688D01*
X121468312Y-145030194D01*
X121468308Y-145030191D01*
X121337205Y-144942590D01*
X121337192Y-144942583D01*
X121191521Y-144882245D01*
X121191509Y-144882242D01*
X121036865Y-144851481D01*
X121036862Y-144851481D01*
X120879178Y-144851481D01*
X120879175Y-144851481D01*
X120724530Y-144882242D01*
X120724518Y-144882245D01*
X120578847Y-144942583D01*
X120578834Y-144942590D01*
X120447731Y-145030191D01*
X120447727Y-145030194D01*
X120336233Y-145141688D01*
X120336230Y-145141692D01*
X120248629Y-145272795D01*
X120248622Y-145272808D01*
X120188284Y-145418479D01*
X120188281Y-145418491D01*
X120157520Y-145573134D01*
X115958520Y-145573134D01*
X115958520Y-144113883D01*
X115921573Y-143880612D01*
X115862398Y-143698491D01*
X115848588Y-143655989D01*
X115848586Y-143655986D01*
X115848586Y-143655984D01*
X115741362Y-143445547D01*
X115602537Y-143254471D01*
X115435530Y-143087464D01*
X115244453Y-142948638D01*
X115034016Y-142841414D01*
X114809388Y-142768427D01*
X114576117Y-142731481D01*
X114576112Y-142731481D01*
X114339928Y-142731481D01*
X114339923Y-142731481D01*
X114106651Y-142768427D01*
X113882023Y-142841414D01*
X113671586Y-142948638D01*
X113562570Y-143027843D01*
X113480510Y-143087464D01*
X113480508Y-143087466D01*
X113480507Y-143087466D01*
X113313505Y-143254468D01*
X113313505Y-143254469D01*
X113313503Y-143254471D01*
X113273020Y-143310191D01*
X113174677Y-143445547D01*
X113067453Y-143655984D01*
X112994466Y-143880612D01*
X112957520Y-144113883D01*
X112957520Y-146759092D01*
X112937835Y-146826131D01*
X112921201Y-146846773D01*
X108612812Y-151155162D01*
X108551489Y-151188647D01*
X108525131Y-151191481D01*
X99982423Y-151191481D01*
X99749150Y-151228428D01*
X99749147Y-151228428D01*
X99524529Y-151301412D01*
X99524528Y-151301412D01*
X99411865Y-151358816D01*
X99355572Y-151372331D01*
X99233500Y-151372331D01*
X99233493Y-151372332D01*
X99173886Y-151378739D01*
X99039041Y-151429033D01*
X99039034Y-151429037D01*
X98923825Y-151515283D01*
X98923822Y-151515286D01*
X98837576Y-151630495D01*
X98837572Y-151630502D01*
X98787279Y-151765346D01*
X98787019Y-151767766D01*
X98786293Y-151769516D01*
X98785496Y-151772893D01*
X98784948Y-151772763D01*
X98760276Y-151832315D01*
X98702882Y-151872160D01*
X98633056Y-151874649D01*
X98572970Y-151838993D01*
X98569437Y-151835031D01*
X98567091Y-151832284D01*
X98420217Y-151685410D01*
X98420215Y-151685408D01*
X98252168Y-151563315D01*
X98157900Y-151515283D01*
X98067087Y-151469011D01*
X97869540Y-151404825D01*
X97664384Y-151372331D01*
X97664379Y-151372331D01*
X97456661Y-151372331D01*
X97456656Y-151372331D01*
X97251499Y-151404825D01*
X97053952Y-151469011D01*
X96868871Y-151563315D01*
X96700822Y-151685410D01*
X96553949Y-151832283D01*
X96431854Y-152000332D01*
X96337550Y-152185413D01*
X96273364Y-152382960D01*
X96240870Y-152588116D01*
X96240870Y-152795845D01*
X96273364Y-153001001D01*
X96337550Y-153198548D01*
X96337552Y-153198551D01*
X96431854Y-153383629D01*
X96553947Y-153551676D01*
X96700825Y-153698554D01*
X96868872Y-153820647D01*
X96959837Y-153866996D01*
X97010633Y-153914971D01*
X97027428Y-153982792D01*
X97004891Y-154048927D01*
X96950175Y-154092378D01*
X96903542Y-154101481D01*
X93674500Y-154101481D01*
X93607461Y-154081796D01*
X93561706Y-154028992D01*
X93550500Y-153977481D01*
X93550500Y-151392529D01*
X93570185Y-151325490D01*
X93622989Y-151279735D01*
X93657613Y-151269684D01*
X93697768Y-151264166D01*
X93954709Y-151192175D01*
X94199454Y-151085867D01*
X94427443Y-150947224D01*
X94634431Y-150778827D01*
X94816561Y-150583814D01*
X94970439Y-150365817D01*
X95093201Y-150128897D01*
X95182559Y-149877468D01*
X95236848Y-149616214D01*
X95255058Y-149350000D01*
X95236848Y-149083786D01*
X95182559Y-148822532D01*
X95093201Y-148571103D01*
X94970439Y-148334183D01*
X94816561Y-148116186D01*
X94634431Y-147921173D01*
X94634424Y-147921167D01*
X94427449Y-147752780D01*
X94427438Y-147752773D01*
X94199452Y-147614131D01*
X93954710Y-147507825D01*
X93697774Y-147435835D01*
X93697768Y-147435834D01*
X93684643Y-147434030D01*
X93657613Y-147430314D01*
X93593880Y-147401685D01*
X93555742Y-147343142D01*
X93550500Y-147307470D01*
X93550500Y-145434754D01*
X95048746Y-145434754D01*
X95048746Y-145592447D01*
X95079507Y-145747090D01*
X95079510Y-145747102D01*
X95139848Y-145892773D01*
X95139855Y-145892786D01*
X95227456Y-146023889D01*
X95227459Y-146023893D01*
X95338956Y-146135390D01*
X95379190Y-146162273D01*
X95470067Y-146222995D01*
X95493721Y-146232792D01*
X95533949Y-146259672D01*
X95719212Y-146444935D01*
X95742048Y-146460192D01*
X95792896Y-146494167D01*
X95842131Y-146527065D01*
X95898706Y-146550499D01*
X95978714Y-146583640D01*
X96094867Y-146606744D01*
X96114094Y-146610568D01*
X96123707Y-146612481D01*
X96123708Y-146612481D01*
X99901940Y-146612481D01*
X99999482Y-146593077D01*
X100046933Y-146583639D01*
X100183515Y-146527065D01*
X100232749Y-146494167D01*
X100306436Y-146444933D01*
X101073317Y-145678050D01*
X101113542Y-145651173D01*
X101137199Y-145641375D01*
X101268309Y-145553770D01*
X101379809Y-145442270D01*
X101467414Y-145311160D01*
X101527757Y-145165478D01*
X101558520Y-145010823D01*
X101558520Y-144853139D01*
X101554051Y-144830671D01*
X101560280Y-144761080D01*
X101603143Y-144705903D01*
X101669033Y-144682659D01*
X101675669Y-144682481D01*
X104331940Y-144682481D01*
X104429482Y-144663077D01*
X104476933Y-144653639D01*
X104613515Y-144597065D01*
X104679255Y-144553139D01*
X104736436Y-144514933D01*
X106040971Y-143210397D01*
X106123104Y-143087476D01*
X106179678Y-142950894D01*
X106189116Y-142903443D01*
X106208520Y-142805901D01*
X106208520Y-140653134D01*
X117157520Y-140653134D01*
X117157520Y-140810827D01*
X117188281Y-140965470D01*
X117188284Y-140965482D01*
X117248622Y-141111153D01*
X117248629Y-141111166D01*
X117336230Y-141242269D01*
X117336233Y-141242273D01*
X117447727Y-141353767D01*
X117447731Y-141353770D01*
X117578834Y-141441371D01*
X117578847Y-141441378D01*
X117678080Y-141482481D01*
X117724523Y-141501718D01*
X117879173Y-141532480D01*
X117879176Y-141532481D01*
X117879178Y-141532481D01*
X118036864Y-141532481D01*
X118036865Y-141532480D01*
X118113172Y-141517301D01*
X118191508Y-141501720D01*
X118191509Y-141501719D01*
X118191517Y-141501718D01*
X118215175Y-141491918D01*
X118262624Y-141482481D01*
X121331940Y-141482481D01*
X121429482Y-141463077D01*
X121476933Y-141453639D01*
X121613515Y-141397065D01*
X121688967Y-141346650D01*
X121736436Y-141314933D01*
X125774797Y-137276570D01*
X125815027Y-137249691D01*
X125824191Y-137245896D01*
X125955301Y-137158291D01*
X126066801Y-137046791D01*
X126154406Y-136915681D01*
X126214749Y-136769999D01*
X126245512Y-136615344D01*
X126245512Y-136457660D01*
X126245512Y-136457657D01*
X126245511Y-136457655D01*
X126244544Y-136452795D01*
X126214749Y-136303005D01*
X126212500Y-136297576D01*
X126154409Y-136157329D01*
X126154402Y-136157316D01*
X126066801Y-136026213D01*
X126066798Y-136026209D01*
X125955304Y-135914715D01*
X125955300Y-135914712D01*
X125824197Y-135827111D01*
X125824184Y-135827104D01*
X125678513Y-135766766D01*
X125678501Y-135766763D01*
X125523857Y-135736002D01*
X125523854Y-135736002D01*
X125366170Y-135736002D01*
X125366167Y-135736002D01*
X125211522Y-135766763D01*
X125211510Y-135766766D01*
X125065839Y-135827104D01*
X125065826Y-135827111D01*
X124934723Y-135914712D01*
X124934719Y-135914715D01*
X124823225Y-136026209D01*
X124823219Y-136026217D01*
X124735619Y-136157320D01*
X124735616Y-136157326D01*
X124719817Y-136195467D01*
X124715186Y-136202397D01*
X124714090Y-136207438D01*
X124692939Y-136235693D01*
X124631054Y-136297577D01*
X124569734Y-136331061D01*
X124500042Y-136326077D01*
X124455694Y-136297576D01*
X124368312Y-136210194D01*
X124368308Y-136210191D01*
X124237205Y-136122590D01*
X124237192Y-136122583D01*
X124091521Y-136062245D01*
X124091509Y-136062242D01*
X123936865Y-136031481D01*
X123936862Y-136031481D01*
X123779178Y-136031481D01*
X123779175Y-136031481D01*
X123624530Y-136062242D01*
X123624518Y-136062245D01*
X123478847Y-136122583D01*
X123478834Y-136122590D01*
X123347731Y-136210191D01*
X123347727Y-136210194D01*
X123236233Y-136321688D01*
X123236230Y-136321692D01*
X123148629Y-136452795D01*
X123148622Y-136452808D01*
X123088284Y-136598479D01*
X123088281Y-136598491D01*
X123057520Y-136753134D01*
X123057520Y-136910827D01*
X123088281Y-137065470D01*
X123088284Y-137065482D01*
X123148622Y-137211153D01*
X123148629Y-137211166D01*
X123236230Y-137342269D01*
X123236233Y-137342273D01*
X123323615Y-137429655D01*
X123357100Y-137490978D01*
X123352116Y-137560670D01*
X123323615Y-137605017D01*
X120983471Y-139945162D01*
X120922148Y-139978647D01*
X120895790Y-139981481D01*
X118262624Y-139981481D01*
X118215175Y-139972043D01*
X118191517Y-139962244D01*
X118191513Y-139962243D01*
X118191508Y-139962241D01*
X118036865Y-139931481D01*
X118036862Y-139931481D01*
X117879178Y-139931481D01*
X117879175Y-139931481D01*
X117724530Y-139962242D01*
X117724518Y-139962245D01*
X117578847Y-140022583D01*
X117578834Y-140022590D01*
X117447731Y-140110191D01*
X117447727Y-140110194D01*
X117336233Y-140221688D01*
X117336230Y-140221692D01*
X117248629Y-140352795D01*
X117248622Y-140352808D01*
X117188284Y-140498479D01*
X117188281Y-140498491D01*
X117157520Y-140653134D01*
X106208520Y-140653134D01*
X106208520Y-140536585D01*
X106217959Y-140489132D01*
X106227757Y-140465478D01*
X106258520Y-140310823D01*
X106258520Y-140153139D01*
X106258520Y-140153136D01*
X106258519Y-140153134D01*
X106232551Y-140022587D01*
X106227757Y-139998484D01*
X106216805Y-139972043D01*
X106167417Y-139852808D01*
X106167410Y-139852795D01*
X106079809Y-139721692D01*
X106079806Y-139721688D01*
X105968312Y-139610194D01*
X105968308Y-139610191D01*
X105837205Y-139522590D01*
X105837192Y-139522583D01*
X105691521Y-139462245D01*
X105691509Y-139462242D01*
X105536865Y-139431481D01*
X105536862Y-139431481D01*
X105379178Y-139431481D01*
X105379175Y-139431481D01*
X105224530Y-139462242D01*
X105224518Y-139462245D01*
X105078847Y-139522583D01*
X105078834Y-139522590D01*
X104947731Y-139610191D01*
X104947727Y-139610194D01*
X104836233Y-139721688D01*
X104836230Y-139721692D01*
X104748629Y-139852795D01*
X104748622Y-139852808D01*
X104688284Y-139998479D01*
X104688281Y-139998491D01*
X104657520Y-140153134D01*
X104657520Y-140310827D01*
X104688281Y-140465470D01*
X104688283Y-140465478D01*
X104698081Y-140489132D01*
X104707520Y-140536585D01*
X104707520Y-142369751D01*
X104687835Y-142436790D01*
X104671201Y-142457432D01*
X103983471Y-143145162D01*
X103922148Y-143178647D01*
X103895790Y-143181481D01*
X99962624Y-143181481D01*
X99915175Y-143172043D01*
X99891517Y-143162244D01*
X99891513Y-143162243D01*
X99891508Y-143162241D01*
X99736865Y-143131481D01*
X99736862Y-143131481D01*
X99579178Y-143131481D01*
X99579175Y-143131481D01*
X99424530Y-143162242D01*
X99424518Y-143162245D01*
X99278847Y-143222583D01*
X99278834Y-143222590D01*
X99147731Y-143310191D01*
X99147727Y-143310194D01*
X99036233Y-143421688D01*
X99036230Y-143421692D01*
X98948629Y-143552795D01*
X98948622Y-143552808D01*
X98888284Y-143698479D01*
X98888281Y-143698491D01*
X98857520Y-143853134D01*
X98857520Y-144010827D01*
X98888281Y-144165470D01*
X98888284Y-144165482D01*
X98948622Y-144311153D01*
X98948629Y-144311166D01*
X99036230Y-144442269D01*
X99036233Y-144442273D01*
X99147727Y-144553767D01*
X99147731Y-144553770D01*
X99278834Y-144641371D01*
X99278847Y-144641378D01*
X99378080Y-144682481D01*
X99424523Y-144701718D01*
X99579173Y-144732480D01*
X99579176Y-144732481D01*
X99596790Y-144732481D01*
X99618035Y-144738719D01*
X99640124Y-144740299D01*
X99650907Y-144748371D01*
X99663829Y-144752166D01*
X99678328Y-144768899D01*
X99696057Y-144782171D01*
X99700764Y-144794791D01*
X99709584Y-144804970D01*
X99712735Y-144826887D01*
X99720474Y-144847635D01*
X99717611Y-144860795D01*
X99719528Y-144874128D01*
X99710328Y-144894271D01*
X99705622Y-144915908D01*
X99692353Y-144933633D01*
X99690503Y-144937684D01*
X99684471Y-144944162D01*
X99553471Y-145075162D01*
X99492148Y-145108647D01*
X99465790Y-145111481D01*
X96609591Y-145111481D01*
X96542552Y-145091796D01*
X96506489Y-145056372D01*
X96471035Y-145003312D01*
X96471032Y-145003308D01*
X96359538Y-144891814D01*
X96359534Y-144891811D01*
X96228431Y-144804210D01*
X96228418Y-144804203D01*
X96082747Y-144743865D01*
X96082735Y-144743862D01*
X95928091Y-144713101D01*
X95928088Y-144713101D01*
X95770404Y-144713101D01*
X95770401Y-144713101D01*
X95615756Y-144743862D01*
X95615744Y-144743865D01*
X95470073Y-144804203D01*
X95470060Y-144804210D01*
X95338957Y-144891811D01*
X95338953Y-144891814D01*
X95227459Y-145003308D01*
X95227456Y-145003312D01*
X95139855Y-145134415D01*
X95139848Y-145134428D01*
X95079510Y-145280099D01*
X95079507Y-145280111D01*
X95048746Y-145434754D01*
X93550500Y-145434754D01*
X93550500Y-139153134D01*
X96157520Y-139153134D01*
X96157520Y-139310827D01*
X96188281Y-139465470D01*
X96188284Y-139465482D01*
X96248622Y-139611153D01*
X96248629Y-139611166D01*
X96336230Y-139742269D01*
X96336233Y-139742273D01*
X96447727Y-139853767D01*
X96447731Y-139853770D01*
X96578834Y-139941371D01*
X96578847Y-139941378D01*
X96668824Y-139978647D01*
X96724523Y-140001718D01*
X96879173Y-140032480D01*
X96879176Y-140032481D01*
X96879178Y-140032481D01*
X97036864Y-140032481D01*
X97036865Y-140032480D01*
X97191517Y-140001718D01*
X97337199Y-139941375D01*
X97468309Y-139853770D01*
X97579809Y-139742270D01*
X97582934Y-139737592D01*
X97636545Y-139692787D01*
X97686038Y-139682481D01*
X100483520Y-139682481D01*
X100550559Y-139702166D01*
X100596314Y-139754970D01*
X100607520Y-139806481D01*
X100607520Y-140627377D01*
X100598082Y-140674825D01*
X100588283Y-140698484D01*
X100588282Y-140698487D01*
X100588280Y-140698492D01*
X100557520Y-140853134D01*
X100557520Y-141010827D01*
X100588281Y-141165470D01*
X100588284Y-141165482D01*
X100648622Y-141311153D01*
X100648629Y-141311166D01*
X100736230Y-141442269D01*
X100736233Y-141442273D01*
X100847727Y-141553767D01*
X100847731Y-141553770D01*
X100978834Y-141641371D01*
X100978847Y-141641378D01*
X101124518Y-141701716D01*
X101124523Y-141701718D01*
X101279173Y-141732480D01*
X101279176Y-141732481D01*
X101279178Y-141732481D01*
X101436864Y-141732481D01*
X101436865Y-141732480D01*
X101591517Y-141701718D01*
X101737199Y-141641375D01*
X101868309Y-141553770D01*
X101979809Y-141442270D01*
X102067414Y-141311160D01*
X102127757Y-141165478D01*
X102158520Y-141010823D01*
X102158520Y-140853139D01*
X102158520Y-140853136D01*
X102158519Y-140853134D01*
X102127759Y-140698492D01*
X102127758Y-140698489D01*
X102127757Y-140698484D01*
X102117957Y-140674825D01*
X102108520Y-140627377D01*
X102108520Y-139258060D01*
X102079679Y-139113073D01*
X102079678Y-139113072D01*
X102079678Y-139113068D01*
X102032214Y-138998479D01*
X102023107Y-138976492D01*
X102023100Y-138976479D01*
X101940972Y-138853566D01*
X101893885Y-138806479D01*
X101836436Y-138749030D01*
X101757337Y-138669931D01*
X101436441Y-138349033D01*
X101436434Y-138349027D01*
X101362749Y-138299793D01*
X101362749Y-138299794D01*
X101313511Y-138266894D01*
X101176937Y-138210324D01*
X101176927Y-138210321D01*
X101031940Y-138181481D01*
X101031938Y-138181481D01*
X97184102Y-138181481D01*
X97184100Y-138181481D01*
X97039112Y-138210321D01*
X97039106Y-138210323D01*
X96902528Y-138266895D01*
X96902516Y-138266902D01*
X96853290Y-138299792D01*
X96853291Y-138299793D01*
X96779605Y-138349028D01*
X96779600Y-138349032D01*
X96642720Y-138485910D01*
X96602497Y-138512787D01*
X96578843Y-138522585D01*
X96578838Y-138522588D01*
X96447735Y-138610188D01*
X96447727Y-138610194D01*
X96336233Y-138721688D01*
X96336230Y-138721692D01*
X96248629Y-138852795D01*
X96248622Y-138852808D01*
X96188284Y-138998479D01*
X96188281Y-138998491D01*
X96157520Y-139153134D01*
X93550500Y-139153134D01*
X93550500Y-137211153D01*
X93550500Y-136753134D01*
X106957520Y-136753134D01*
X106957520Y-136910827D01*
X106988281Y-137065470D01*
X106988284Y-137065482D01*
X107048622Y-137211153D01*
X107048629Y-137211166D01*
X107136230Y-137342269D01*
X107136233Y-137342273D01*
X107247727Y-137453767D01*
X107247731Y-137453770D01*
X107378834Y-137541371D01*
X107378847Y-137541378D01*
X107478080Y-137582481D01*
X107524523Y-137601718D01*
X107679173Y-137632480D01*
X107679176Y-137632481D01*
X107679178Y-137632481D01*
X107836864Y-137632481D01*
X107836865Y-137632480D01*
X107913172Y-137617301D01*
X107991508Y-137601720D01*
X107991509Y-137601719D01*
X107991517Y-137601718D01*
X108015175Y-137591918D01*
X108062624Y-137582481D01*
X108331940Y-137582481D01*
X108429482Y-137563077D01*
X108476933Y-137553639D01*
X108613515Y-137497065D01*
X108678311Y-137453770D01*
X108678314Y-137453767D01*
X108678316Y-137453767D01*
X108714402Y-137429655D01*
X108736436Y-137414933D01*
X109698574Y-136452795D01*
X110598236Y-135553134D01*
X117457520Y-135553134D01*
X117457520Y-135710827D01*
X117488281Y-135865470D01*
X117488284Y-135865482D01*
X117548622Y-136011153D01*
X117548629Y-136011166D01*
X117636230Y-136142269D01*
X117636233Y-136142273D01*
X117747727Y-136253767D01*
X117747731Y-136253770D01*
X117878834Y-136341371D01*
X117878847Y-136341378D01*
X118015310Y-136397902D01*
X118024523Y-136401718D01*
X118179173Y-136432480D01*
X118179176Y-136432481D01*
X118179178Y-136432481D01*
X118336864Y-136432481D01*
X118336865Y-136432480D01*
X118491517Y-136401718D01*
X118637199Y-136341375D01*
X118768309Y-136253770D01*
X118879809Y-136142270D01*
X118967414Y-136011160D01*
X119027757Y-135865478D01*
X119058520Y-135710823D01*
X119058520Y-135553139D01*
X119058520Y-135553136D01*
X119058519Y-135553134D01*
X119027758Y-135398491D01*
X119027757Y-135398484D01*
X119027755Y-135398479D01*
X118967417Y-135252808D01*
X118967410Y-135252795D01*
X118879809Y-135121692D01*
X118879806Y-135121688D01*
X118768312Y-135010194D01*
X118768308Y-135010191D01*
X118637205Y-134922590D01*
X118637192Y-134922583D01*
X118491521Y-134862245D01*
X118491509Y-134862242D01*
X118336865Y-134831481D01*
X118336862Y-134831481D01*
X118179178Y-134831481D01*
X118179175Y-134831481D01*
X118024530Y-134862242D01*
X118024518Y-134862245D01*
X117878847Y-134922583D01*
X117878834Y-134922590D01*
X117747731Y-135010191D01*
X117747727Y-135010194D01*
X117636233Y-135121688D01*
X117636230Y-135121692D01*
X117548629Y-135252795D01*
X117548622Y-135252808D01*
X117488284Y-135398479D01*
X117488281Y-135398491D01*
X117457520Y-135553134D01*
X110598236Y-135553134D01*
X110692004Y-135459366D01*
X112898236Y-133253134D01*
X120657520Y-133253134D01*
X120657520Y-133410827D01*
X120688281Y-133565470D01*
X120688284Y-133565482D01*
X120748622Y-133711153D01*
X120748629Y-133711166D01*
X120836230Y-133842269D01*
X120836233Y-133842273D01*
X120947727Y-133953767D01*
X120947731Y-133953770D01*
X121078834Y-134041371D01*
X121078847Y-134041378D01*
X121224518Y-134101716D01*
X121224523Y-134101718D01*
X121379173Y-134132480D01*
X121379176Y-134132481D01*
X121379178Y-134132481D01*
X121536864Y-134132481D01*
X121536865Y-134132480D01*
X121691517Y-134101718D01*
X121837199Y-134041375D01*
X121968309Y-133953770D01*
X122079809Y-133842270D01*
X122167414Y-133711160D01*
X122227757Y-133565478D01*
X122258520Y-133410823D01*
X122258520Y-133253139D01*
X122258520Y-133253136D01*
X122258519Y-133253134D01*
X122239867Y-133159366D01*
X122227757Y-133098484D01*
X122221399Y-133083134D01*
X122167417Y-132952808D01*
X122167410Y-132952795D01*
X122079809Y-132821692D01*
X122079806Y-132821688D01*
X121968312Y-132710194D01*
X121968308Y-132710191D01*
X121837205Y-132622590D01*
X121837192Y-132622583D01*
X121691521Y-132562245D01*
X121691509Y-132562242D01*
X121536865Y-132531481D01*
X121536862Y-132531481D01*
X121379178Y-132531481D01*
X121379175Y-132531481D01*
X121224530Y-132562242D01*
X121224518Y-132562245D01*
X121078847Y-132622583D01*
X121078834Y-132622590D01*
X120947731Y-132710191D01*
X120947727Y-132710194D01*
X120836233Y-132821688D01*
X120836230Y-132821692D01*
X120748629Y-132952795D01*
X120748622Y-132952808D01*
X120688284Y-133098479D01*
X120688281Y-133098491D01*
X120657520Y-133253134D01*
X112898236Y-133253134D01*
X112992004Y-133159366D01*
X114741292Y-131410077D01*
X123143714Y-131410077D01*
X123143714Y-131646272D01*
X123180660Y-131879543D01*
X123253647Y-132104171D01*
X123360871Y-132314608D01*
X123499697Y-132505685D01*
X123666704Y-132672692D01*
X123857781Y-132811518D01*
X123877749Y-132821692D01*
X124068217Y-132918741D01*
X124068219Y-132918741D01*
X124068222Y-132918743D01*
X124173063Y-132952808D01*
X124292845Y-132991728D01*
X124526117Y-133028675D01*
X124526122Y-133028675D01*
X124762311Y-133028675D01*
X124995582Y-132991728D01*
X125220206Y-132918743D01*
X125430647Y-132811518D01*
X125621724Y-132672692D01*
X125788731Y-132505685D01*
X125927557Y-132314608D01*
X126034782Y-132104167D01*
X126107767Y-131879543D01*
X126112451Y-131849972D01*
X126144714Y-131646272D01*
X126144714Y-131410077D01*
X126107767Y-131176806D01*
X126034780Y-130952178D01*
X125927556Y-130741741D01*
X125788731Y-130550665D01*
X125621724Y-130383658D01*
X125430647Y-130244832D01*
X125220210Y-130137608D01*
X124995582Y-130064621D01*
X124762311Y-130027675D01*
X124762306Y-130027675D01*
X124526122Y-130027675D01*
X124526117Y-130027675D01*
X124292845Y-130064621D01*
X124068217Y-130137608D01*
X123857780Y-130244832D01*
X123748764Y-130324037D01*
X123666704Y-130383658D01*
X123666702Y-130383660D01*
X123666701Y-130383660D01*
X123499699Y-130550662D01*
X123499699Y-130550663D01*
X123499697Y-130550665D01*
X123440076Y-130632725D01*
X123360871Y-130741741D01*
X123253647Y-130952178D01*
X123180660Y-131176806D01*
X123143714Y-131410077D01*
X114741292Y-131410077D01*
X114833839Y-131317530D01*
X115409628Y-130741741D01*
X116158472Y-129992897D01*
X116207706Y-129919210D01*
X116240604Y-129869976D01*
X116264038Y-129813401D01*
X116297179Y-129733393D01*
X116326020Y-129588398D01*
X116326020Y-129440563D01*
X116326020Y-126813883D01*
X118547520Y-126813883D01*
X118547520Y-127050078D01*
X118584466Y-127283346D01*
X118657453Y-127507977D01*
X118764677Y-127718414D01*
X118903503Y-127909491D01*
X119070510Y-128076498D01*
X119261587Y-128215324D01*
X119361011Y-128265983D01*
X119472023Y-128322547D01*
X119472025Y-128322547D01*
X119472028Y-128322549D01*
X119592432Y-128361670D01*
X119696651Y-128395534D01*
X119929923Y-128432481D01*
X119929928Y-128432481D01*
X120166117Y-128432481D01*
X120399388Y-128395534D01*
X120624012Y-128322549D01*
X120834453Y-128215324D01*
X121025530Y-128076498D01*
X121192537Y-127909491D01*
X121331363Y-127718414D01*
X121438588Y-127507973D01*
X121511573Y-127283349D01*
X121511572Y-127283349D01*
X121511574Y-127283346D01*
X121548520Y-127050078D01*
X121548520Y-126813883D01*
X121511573Y-126580612D01*
X121438586Y-126355984D01*
X121331362Y-126145547D01*
X121192537Y-125954471D01*
X121025530Y-125787464D01*
X120834453Y-125648638D01*
X120624016Y-125541414D01*
X120399388Y-125468427D01*
X120166117Y-125431481D01*
X120166112Y-125431481D01*
X119929928Y-125431481D01*
X119929923Y-125431481D01*
X119696651Y-125468427D01*
X119472023Y-125541414D01*
X119261586Y-125648638D01*
X119152570Y-125727843D01*
X119070510Y-125787464D01*
X119070508Y-125787466D01*
X119070507Y-125787466D01*
X118903505Y-125954468D01*
X118903505Y-125954469D01*
X118903503Y-125954471D01*
X118843882Y-126036531D01*
X118764677Y-126145547D01*
X118657453Y-126355984D01*
X118584466Y-126580612D01*
X118547520Y-126813883D01*
X116326020Y-126813883D01*
X116326020Y-124947470D01*
X116345705Y-124880431D01*
X116362339Y-124859789D01*
X116430190Y-124791938D01*
X116533858Y-124649251D01*
X116613928Y-124492104D01*
X116668430Y-124324365D01*
X116696020Y-124150171D01*
X116696020Y-123973790D01*
X116668430Y-123799596D01*
X116613926Y-123631853D01*
X116552800Y-123511887D01*
X116533858Y-123474711D01*
X116430190Y-123332024D01*
X116305477Y-123207311D01*
X116162790Y-123103643D01*
X116125092Y-123084435D01*
X116005647Y-123023574D01*
X115837904Y-122969070D01*
X115663710Y-122941481D01*
X115663705Y-122941481D01*
X115487335Y-122941481D01*
X115487330Y-122941481D01*
X115313135Y-122969070D01*
X115145392Y-123023574D01*
X114988249Y-123103643D01*
X114845560Y-123207313D01*
X114720852Y-123332021D01*
X114617182Y-123474710D01*
X114537113Y-123631853D01*
X114482609Y-123799596D01*
X114455020Y-123973790D01*
X114455020Y-124150171D01*
X114482609Y-124324365D01*
X114537113Y-124492108D01*
X114617182Y-124649251D01*
X114720850Y-124791938D01*
X114720852Y-124791940D01*
X114788701Y-124859789D01*
X114822186Y-124921112D01*
X114825020Y-124947470D01*
X114825020Y-129152250D01*
X114805335Y-129219289D01*
X114788701Y-129239931D01*
X108017424Y-136011207D01*
X107956101Y-136044692D01*
X107905553Y-136045144D01*
X107903280Y-136044692D01*
X107885049Y-136041065D01*
X107836862Y-136031481D01*
X107679178Y-136031481D01*
X107679175Y-136031481D01*
X107524530Y-136062242D01*
X107524518Y-136062245D01*
X107378847Y-136122583D01*
X107378834Y-136122590D01*
X107247731Y-136210191D01*
X107247727Y-136210194D01*
X107136233Y-136321688D01*
X107136230Y-136321692D01*
X107048629Y-136452795D01*
X107048622Y-136452808D01*
X106988284Y-136598479D01*
X106988281Y-136598491D01*
X106957520Y-136753134D01*
X93550500Y-136753134D01*
X93550500Y-133083134D01*
X95017520Y-133083134D01*
X95017520Y-133240827D01*
X95048281Y-133395470D01*
X95048284Y-133395482D01*
X95108622Y-133541153D01*
X95108629Y-133541166D01*
X95196230Y-133672269D01*
X95196233Y-133672273D01*
X95307727Y-133783767D01*
X95307731Y-133783770D01*
X95438834Y-133871371D01*
X95438847Y-133871378D01*
X95534087Y-133910827D01*
X95584523Y-133931718D01*
X95739173Y-133962480D01*
X95739176Y-133962481D01*
X95739178Y-133962481D01*
X95896864Y-133962481D01*
X95896865Y-133962480D01*
X96051517Y-133931718D01*
X96197199Y-133871375D01*
X96328309Y-133783770D01*
X96358945Y-133753134D01*
X107357520Y-133753134D01*
X107357520Y-133910827D01*
X107388281Y-134065470D01*
X107388284Y-134065482D01*
X107448622Y-134211153D01*
X107448629Y-134211166D01*
X107536230Y-134342269D01*
X107536233Y-134342273D01*
X107647727Y-134453767D01*
X107647731Y-134453770D01*
X107778834Y-134541371D01*
X107778847Y-134541378D01*
X107924518Y-134601716D01*
X107924523Y-134601718D01*
X108079173Y-134632480D01*
X108079176Y-134632481D01*
X108079178Y-134632481D01*
X108236864Y-134632481D01*
X108236865Y-134632480D01*
X108391517Y-134601718D01*
X108537199Y-134541375D01*
X108668309Y-134453770D01*
X108779809Y-134342270D01*
X108867414Y-134211160D01*
X108877211Y-134187505D01*
X108904089Y-134147278D01*
X111078471Y-131972898D01*
X111127705Y-131899211D01*
X111160603Y-131849977D01*
X111217177Y-131713395D01*
X111246019Y-131568400D01*
X111246019Y-124947470D01*
X111265704Y-124880431D01*
X111282338Y-124859789D01*
X111350189Y-124791938D01*
X111453857Y-124649251D01*
X111533927Y-124492104D01*
X111588429Y-124324365D01*
X111616019Y-124150171D01*
X111616019Y-123973790D01*
X111588429Y-123799596D01*
X111533925Y-123631853D01*
X111472799Y-123511887D01*
X111453857Y-123474711D01*
X111350189Y-123332024D01*
X111225476Y-123207311D01*
X111082789Y-123103643D01*
X111045091Y-123084435D01*
X110925646Y-123023574D01*
X110757903Y-122969070D01*
X110583709Y-122941481D01*
X110583704Y-122941481D01*
X110407334Y-122941481D01*
X110407329Y-122941481D01*
X110233134Y-122969070D01*
X110065391Y-123023574D01*
X109908248Y-123103643D01*
X109765559Y-123207313D01*
X109640851Y-123332021D01*
X109537181Y-123474710D01*
X109457112Y-123631853D01*
X109402608Y-123799596D01*
X109375019Y-123973790D01*
X109375019Y-124150171D01*
X109402608Y-124324365D01*
X109457112Y-124492108D01*
X109537181Y-124649251D01*
X109640849Y-124791938D01*
X109640851Y-124791940D01*
X109708700Y-124859789D01*
X109742185Y-124921112D01*
X109745019Y-124947470D01*
X109745019Y-131132251D01*
X109725334Y-131199290D01*
X109708700Y-131219932D01*
X107842723Y-133085908D01*
X107802500Y-133112786D01*
X107778839Y-133122587D01*
X107778838Y-133122588D01*
X107647735Y-133210188D01*
X107647727Y-133210194D01*
X107536233Y-133321688D01*
X107536230Y-133321692D01*
X107448629Y-133452795D01*
X107448622Y-133452808D01*
X107388284Y-133598479D01*
X107388281Y-133598491D01*
X107357520Y-133753134D01*
X96358945Y-133753134D01*
X96439809Y-133672270D01*
X96527414Y-133541160D01*
X96587757Y-133395478D01*
X96618520Y-133240823D01*
X96618520Y-133083139D01*
X96618520Y-133083136D01*
X96618519Y-133083134D01*
X96592594Y-132952802D01*
X96587757Y-132928484D01*
X96543521Y-132821688D01*
X96527417Y-132782808D01*
X96527410Y-132782795D01*
X96439809Y-132651692D01*
X96439806Y-132651688D01*
X96328312Y-132540194D01*
X96328308Y-132540191D01*
X96197205Y-132452590D01*
X96197192Y-132452583D01*
X96051521Y-132392245D01*
X96051509Y-132392242D01*
X95896865Y-132361481D01*
X95896862Y-132361481D01*
X95739178Y-132361481D01*
X95739175Y-132361481D01*
X95584530Y-132392242D01*
X95584518Y-132392245D01*
X95438847Y-132452583D01*
X95438834Y-132452590D01*
X95307731Y-132540191D01*
X95307727Y-132540194D01*
X95196233Y-132651688D01*
X95196230Y-132651692D01*
X95108629Y-132782795D01*
X95108622Y-132782808D01*
X95048284Y-132928479D01*
X95048281Y-132928491D01*
X95017520Y-133083134D01*
X93550500Y-133083134D01*
X93550500Y-126906789D01*
X93550630Y-126901149D01*
X93568367Y-126517589D01*
X93569424Y-126506192D01*
X93590379Y-126355984D01*
X93622072Y-126128793D01*
X93624176Y-126117541D01*
X93662531Y-125954471D01*
X93711420Y-125746612D01*
X93714547Y-125735622D01*
X93835654Y-125374296D01*
X93839781Y-125363641D01*
X93993704Y-125015046D01*
X93998796Y-125004820D01*
X94184229Y-124671908D01*
X94190258Y-124662175D01*
X94400822Y-124354792D01*
X94405608Y-124347805D01*
X94412490Y-124338692D01*
X94655937Y-124045520D01*
X94663632Y-124037079D01*
X94933099Y-123767615D01*
X94941542Y-123759918D01*
X95234720Y-123516467D01*
X95243848Y-123509576D01*
X95412400Y-123394116D01*
X104295020Y-123394116D01*
X104295020Y-124729851D01*
X104295021Y-124729857D01*
X104301428Y-124789464D01*
X104351722Y-124924309D01*
X104351726Y-124924316D01*
X104437972Y-125039525D01*
X104437975Y-125039528D01*
X104553184Y-125125774D01*
X104553189Y-125125777D01*
X104584352Y-125137400D01*
X104640285Y-125179269D01*
X104664704Y-125244733D01*
X104665020Y-125253582D01*
X104665020Y-126963399D01*
X104665020Y-126963401D01*
X104665019Y-126963401D01*
X104693860Y-127108388D01*
X104693863Y-127108398D01*
X104750432Y-127244969D01*
X104750440Y-127244983D01*
X104776074Y-127283346D01*
X104776075Y-127283349D01*
X104832566Y-127367895D01*
X104832572Y-127367902D01*
X106511946Y-129047274D01*
X106538825Y-129087500D01*
X106548623Y-129111153D01*
X106548626Y-129111159D01*
X106548629Y-129111166D01*
X106636230Y-129242269D01*
X106636233Y-129242273D01*
X106747727Y-129353767D01*
X106747731Y-129353770D01*
X106878834Y-129441371D01*
X106878847Y-129441378D01*
X107024518Y-129501716D01*
X107024523Y-129501718D01*
X107179173Y-129532480D01*
X107179176Y-129532481D01*
X107179178Y-129532481D01*
X107336864Y-129532481D01*
X107336865Y-129532480D01*
X107491517Y-129501718D01*
X107637199Y-129441375D01*
X107768309Y-129353770D01*
X107879809Y-129242270D01*
X107967414Y-129111160D01*
X108027757Y-128965478D01*
X108058520Y-128810823D01*
X108058520Y-128653139D01*
X108058520Y-128653136D01*
X108058519Y-128653134D01*
X108027758Y-128498491D01*
X108027757Y-128498484D01*
X107985114Y-128395534D01*
X107967417Y-128352808D01*
X107967410Y-128352795D01*
X107879809Y-128221692D01*
X107879806Y-128221688D01*
X107768312Y-128110194D01*
X107768308Y-128110191D01*
X107637205Y-128022590D01*
X107637200Y-128022588D01*
X107637199Y-128022587D01*
X107613539Y-128012786D01*
X107573313Y-127985907D01*
X106202339Y-126614932D01*
X106168854Y-126553609D01*
X106166020Y-126527251D01*
X106166020Y-125253582D01*
X106185705Y-125186543D01*
X106238509Y-125140788D01*
X106246674Y-125137405D01*
X106277851Y-125125777D01*
X106393066Y-125039527D01*
X106479316Y-124924312D01*
X106529611Y-124789464D01*
X106536020Y-124729854D01*
X106536019Y-123394109D01*
X106529611Y-123334498D01*
X106528688Y-123332024D01*
X106479317Y-123199652D01*
X106479313Y-123199645D01*
X106393067Y-123084436D01*
X106393064Y-123084433D01*
X106277855Y-122998187D01*
X106277848Y-122998183D01*
X106143002Y-122947889D01*
X106143003Y-122947889D01*
X106083403Y-122941482D01*
X106083401Y-122941481D01*
X106083393Y-122941481D01*
X106083384Y-122941481D01*
X104747649Y-122941481D01*
X104747643Y-122941482D01*
X104688036Y-122947889D01*
X104553191Y-122998183D01*
X104553184Y-122998187D01*
X104437975Y-123084433D01*
X104437972Y-123084436D01*
X104351726Y-123199645D01*
X104351722Y-123199652D01*
X104301428Y-123334498D01*
X104295021Y-123394097D01*
X104295021Y-123394104D01*
X104295020Y-123394116D01*
X95412400Y-123394116D01*
X95558213Y-123294233D01*
X95567944Y-123288207D01*
X95900852Y-123102779D01*
X95911061Y-123097695D01*
X96259691Y-122943762D01*
X96270331Y-122939640D01*
X96631661Y-122818535D01*
X96642640Y-122815412D01*
X97013588Y-122728166D01*
X97024825Y-122726066D01*
X97402237Y-122673419D01*
X97413625Y-122672363D01*
X97797168Y-122654631D01*
X97802892Y-122654500D01*
X97883094Y-122654500D01*
X97883096Y-122654500D01*
X97883099Y-122654499D01*
X97883101Y-122654499D01*
X98045122Y-122617519D01*
X98194853Y-122545413D01*
X98194853Y-122545412D01*
X98194857Y-122545411D01*
X98301202Y-122460602D01*
X98365887Y-122434194D01*
X98434583Y-122446949D01*
X98455825Y-122460600D01*
X98501468Y-122497000D01*
X98562152Y-122545394D01*
X98562154Y-122545395D01*
X98711885Y-122617502D01*
X98873900Y-122654481D01*
X98873905Y-122654481D01*
X98873907Y-122654482D01*
X98873909Y-122654482D01*
X99011161Y-122654482D01*
X99011173Y-122654481D01*
X101601615Y-122654481D01*
X101601679Y-122654500D01*
X101652998Y-122654500D01*
X101652998Y-122654501D01*
X101736095Y-122654502D01*
X101898121Y-122617520D01*
X102047856Y-122545412D01*
X102089874Y-122511904D01*
X102162704Y-122453825D01*
X102227390Y-122427416D01*
X102296086Y-122440173D01*
X102317328Y-122453824D01*
X102327329Y-122461799D01*
X102432155Y-122545394D01*
X102432156Y-122545394D01*
X102432157Y-122545395D01*
X102581886Y-122617501D01*
X102743900Y-122654480D01*
X102743905Y-122654480D01*
X102743907Y-122654481D01*
X102743909Y-122654481D01*
X102842199Y-122654481D01*
X104041635Y-122654499D01*
X104041638Y-122654500D01*
X104092998Y-122654500D01*
X104092998Y-122654501D01*
X104176095Y-122654502D01*
X104338121Y-122617520D01*
X104487856Y-122545412D01*
X104617791Y-122441793D01*
X104617790Y-122441793D01*
X104623236Y-122437451D01*
X104624113Y-122438551D01*
X104678642Y-122408769D01*
X104748335Y-122413745D01*
G37*
%TD.AperFunction*%
%TD*%
M02*
